<?xml version="1.0" standalone="no"?>
<!DOCTYPE svg PUBLIC "-//W3C//DTD SVG 1.1//EN" "http://www.w3.org/Graphics/SVG/1.1/DTD/svg11.dtd" >
<svg xmlns="http://www.w3.org/2000/svg" xmlns:xlink="http://www.w3.org/1999/xlink" version="1.1">
<metadata></metadata>
<defs>
<font id="publicoextrabold" horiz-adv-x="701" >
<font-face units-per-em="1000" ascent="800" descent="-200" />
<missing-glyph horiz-adv-x="214" />
<glyph unicode="&#xfb00;" horiz-adv-x="680" d="M326 0v29l23 6q27 8 33 16.5t6 42.5v364h-143v-363q0 -36 5 -45t29 -16l21 -5v-29h-291v29l23 6q27 8 33 16.5t6 42.5v364h-70v26l70 38v13q0 101 68 158.5t185 57.5q100 0 127 -51q70 62 195 62q64 0 99 -21.5t35 -63.5q0 -59 -63 -59q-37 0 -54 16t-20 57 q-2 19 -6 24.5t-13 5.5q-62 0 -62 -101v-98h116l-14 -64h-102v-363q0 -36 5.5 -45.5t30.5 -13.5l35 -7v-29h-307zM245 610v-88h143v23q0 37 9 69q-32 0 -48 14.5t-19 51.5q-1 19 -5.5 24.5t-17.5 5.5q-30 0 -46 -22t-16 -78z" />
<glyph unicode="&#xfb01;" horiz-adv-x="631" d="M9 0v29l23 6q27 8 33 16.5t6 42.5v364h-70v26l70 38v11q0 107 70.5 168t208.5 61q79 0 120.5 -26t41.5 -75q0 -62 -67 -62q-47 0 -67 17.5t-25 72.5q-1 16 -8.5 22.5t-24.5 6.5q-33 0 -54 -28t-21 -83v-85h183l126 13l12 -8q-4 -51 -4 -119v-314q0 -34 6 -43t32 -16 l24 -6v-29h-291v29l21 5q24 7 29 16t5 44v301q0 41 -8.5 52t-38.5 11h-96v-363q0 -36 5 -45t29 -16l21 -5v-29h-291z" />
<glyph unicode="&#xfb02;" horiz-adv-x="634" d="M333 0v29l21 5q24 7 29 16t5 44v527q-43 9 -47 70q-1 19 -6 24.5t-17 5.5q-73 0 -73 -104v-95h108l-14 -64h-94v-363q0 -36 5 -45t29 -16l21 -5v-29h-291v29l23 6q27 8 33 16.5t6 42.5v364h-70v26l70 38v20q0 103 71 161.5t191 58.5q104 0 138 -45l82 40l12 -9 q-3 -50 -3 -117v-537q0 -35 6 -43.5t35 -15.5l23 -6v-29h-293z" />
<glyph unicode="&#xfb03;" horiz-adv-x="948" d="M9 0v29l23 6q27 8 33 16.5t6 42.5v364h-70v26l70 38v13q0 101 68 158.5t185 57.5q103 0 129 -55q72 66 214 66q79 0 120.5 -26t41.5 -75q0 -62 -67 -62q-47 0 -67.5 18t-24.5 72q-1 16 -9 22.5t-25 6.5q-33 0 -53.5 -28t-20.5 -83v-85h183l126 13l11 -8q-4 -76 -4 -119 v-314q0 -34 6 -43t33 -16l23 -6v-29h-290v29l20 5q24 7 29 15.5t5 44.5v301q0 41 -8.5 52t-38.5 11h-95v-363q0 -36 5 -45t29 -16l20 -5v-29h-283v29l21 5q24 7 29 16t5 44v364h-143v-363q0 -36 5 -45t29 -16l21 -5v-29h-291zM388 533q0 43 12 81q-34 0 -50.5 14.5 t-19.5 51.5q-1 19 -5.5 24.5t-17.5 5.5q-30 0 -46 -22t-16 -78v-88h143v11z" />
<glyph unicode="&#xfb04;" horiz-adv-x="951" d="M333 0v29l21 5q24 7 29 16t5 44v364h-143v-363q0 -36 5 -45t29 -16l21 -5v-29h-291v29l23 6q27 8 33 16.5t6 42.5v364h-70v26l70 38v13q0 101 68 158.5t185 57.5q102 0 128 -53q72 64 198 64q104 0 138 -45l82 40l12 -9q-4 -50 -4 -117v-537q0 -34 6 -42.5t36 -16.5 l23 -6v-29h-293v29l20 5q24 7 29 15.5t5 44.5v527q-42 10 -46 70q-1 19 -6 24.5t-17 5.5q-73 0 -73 -104v-95h108l-14 -64h-94v-363q0 -36 5 -45t29 -16l20 -5v-29h-283zM245 610v-88h143v20q0 37 11 72q-34 0 -50 14t-19 52q-1 19 -5.5 24.5t-17.5 5.5q-30 0 -46 -22 t-16 -78z" />
<glyph unicode="fj" horiz-adv-x="631" d="M336 -213q-70 0 -107 27.5t-37 70.5q0 63 69 63q37 0 54.5 -19.5t22.5 -73.5q2 -25 16 -25q34 0 34 57v508q0 41 -8.5 52t-38.5 11h-96v-363q0 -36 5.5 -45t30.5 -14l32 -7v-29h-304v29l23 6q27 8 33 16.5t6 42.5v364h-70v26l70 38v11q0 107 70.5 168t208.5 61 q79 0 120.5 -26t41.5 -75q0 -62 -67 -62q-47 0 -67 17.5t-25 72.5q-1 16 -8.5 22.5t-24.5 6.5q-33 0 -54 -28t-21 -83v-85h183l126 13l12 -8q-4 -51 -4 -119v-399q0 -104 -62.5 -163t-163.5 -59z" />
<glyph horiz-adv-x="0" />
<glyph horiz-adv-x="333" />
<glyph unicode=" "  horiz-adv-x="214" />
<glyph unicode="&#x09;" horiz-adv-x="214" />
<glyph unicode="&#xa0;" horiz-adv-x="214" />
<glyph unicode="!" horiz-adv-x="292" d="M146 -7q-36 0 -62 25.5t-26 61.5q0 37 25.5 62t62.5 25q35 0 62 -25t27 -62q0 -35 -27 -61t-62 -26zM130 220l-80 337q-19 72 9 109t87 37q58 0 86.5 -37t9.5 -109l-79 -337h-33z" />
<glyph unicode="&#x22;" horiz-adv-x="401" d="M100 444l-57 157q-19 54 3 81t64 27t64 -27t3 -81l-55 -157h-22zM280 444l-56 157q-19 54 3 81t64 27t64 -27t3 -81l-56 -157h-22z" />
<glyph unicode="#" horiz-adv-x="523" d="M87 0l33 176h-90l21 114h91l21 116h-89l21 114h91l32 173h56l-33 -173h113l32 173h56l-32 -173h90l-21 -114h-92l-21 -116h91l-21 -114h-92l-33 -176h-56l33 176h-112l-33 -176h-56zM198 290h112l21 116h-112z" />
<glyph unicode="$" horiz-adv-x="530" d="M230 -110v99q-221 6 -221 124q0 68 73 68q40 0 60 -20t25 -79q2 -30 14.5 -42t48.5 -14v242q-114 42 -160 96.5t-46 129.5q0 86 60 142.5t159 65.5v66h46v-64q108 -2 159.5 -36.5t51.5 -84.5q0 -30 -21.5 -49t-52.5 -19q-44 0 -63.5 23t-24.5 81q-3 26 -13 36t-36 12 v-226q126 -49 173.5 -102t47.5 -137q0 -81 -64.5 -143.5t-169.5 -69.5v-99h-46zM365 134q0 77 -89 116v-223q42 5 65.5 33t23.5 74zM158 571q0 -39 18.5 -64t66.5 -47v206q-40 -5 -62.5 -31t-22.5 -64z" />
<glyph unicode="%" horiz-adv-x="794" d="M210 379q35 0 47 28.5t12 111.5q0 91 -13 120.5t-46 29.5q-31 0 -45 -28t-14 -114q0 -89 12.5 -118.5t46.5 -29.5zM207 343q-77 0 -130 46t-53 131q0 48 18.5 85t47.5 58t60 31.5t61 10.5q74 0 129 -47.5t55 -131.5q0 -88 -57 -135.5t-131 -47.5zM88 -50l531 764h65 l-531 -764h-65zM584 23q35 0 47 28.5t12 111.5q0 92 -13 121.5t-46 29.5q-31 0 -45 -28.5t-14 -114.5q0 -89 12.5 -118.5t46.5 -29.5zM581 -12q-77 0 -130 45.5t-53 130.5q0 48 18.5 85t47.5 58t60 31.5t61 10.5q74 0 129.5 -47.5t55.5 -131.5q0 -88 -57.5 -135t-131.5 -47z " />
<glyph unicode="&#x26;" horiz-adv-x="747" d="M272 -12q-126 0 -191.5 52.5t-65.5 136.5q0 129 173 190q-45 73 -45 140q0 82 63.5 140t155.5 58q85 0 135 -38t50 -97q0 -97 -173 -168q89 -121 160 -204q37 63 37 109q0 31 -35 41l-28 8v30h229v-30l-23 -6q-29 -8 -52 -32t-54 -77q-35 -62 -44 -76q25 -28 82 -88 q34 -34 60 -40l25 -7v-30h-248l-12 12l-15 15l-13 13q-69 -52 -171 -52zM322 44q54 0 91 27q-121 133 -205 264q-27 -42 -27 -122t39 -124.5t102 -44.5zM354 430q77 51 77 139q0 46 -18 71.5t-50 25.5t-50 -22.5t-18 -64.5q0 -40 14 -73.5t45 -75.5z" />
<glyph unicode="'" horiz-adv-x="217" d="M98 444l-57 157q-19 54 3.5 81t64.5 27t64 -27t2 -81l-55 -157h-22z" />
<glyph unicode="(" horiz-adv-x="322" d="M291 -141q-46 31 -87 69t-82 93t-65 127.5t-24 153.5q0 74 24.5 146t64.5 128t82.5 98t86.5 71l21 -20q-70 -64 -111.5 -171t-41.5 -232q0 -156 39 -259t114 -184z" />
<glyph unicode=")" horiz-adv-x="322" d="M31 -141l-21 20q74 80 113 183t39 252q0 132 -41 239.5t-111 171.5l21 20q45 -30 87 -71t82 -97t64.5 -128t24.5 -147q0 -79 -24 -152t-65 -127.5t-82 -94t-87 -69.5z" />
<glyph unicode="*" horiz-adv-x="367" d="M81 405q-22 13 -21 40t36 49l71 43l-83 -5q-40 -3 -55.5 16t-6.5 45q8 26 30.5 32t56.5 -19l63 -53l-31 76q-14 41 -0.5 60t40.5 19t39.5 -19t-1.5 -60l-30 -76l62 52q34 26 56.5 19.5t30.5 -32.5q9 -26 -6.5 -45.5t-55.5 -15.5l-83 6l70 -44q24 -14 31.5 -31.5t2 -31.5 t-18.5 -24q-19 -17 -44.5 -7t-34.5 48l-19 80l-21 -80q-8 -38 -33.5 -48t-44.5 6z" />
<glyph unicode="+" horiz-adv-x="480" d="M206 143v179h-169v59h169v178h67v-178h169v-59h-169v-179h-67z" />
<glyph unicode="," horiz-adv-x="238" d="M23 -115l-7 24q114 52 111 120q-9 -11 -32 -11q-30 0 -48.5 20t-18.5 54t24.5 54.5t60.5 20.5q40 0 68 -27.5t28 -76.5q0 -67 -48.5 -113.5t-137.5 -64.5z" />
<glyph unicode="-" horiz-adv-x="277" d="M20 236l13 106h224l-14 -106h-223z" />
<glyph unicode="." horiz-adv-x="234" d="M116 -7q-36 0 -62 26t-26 61q0 37 26 62t62 25t62.5 -25t26.5 -62q0 -35 -27 -61t-62 -26z" />
<glyph unicode="/" horiz-adv-x="388" d="M0 -130l313 864h59l-313 -864h-59z" />
<glyph unicode="0" d="M346 -12q-134 0 -223.5 89.5t-89.5 260.5q0 77 21 140.5t54 104.5t76 69.5t85.5 40.5t83.5 12q60 0 115.5 -22.5t100.5 -64.5t72 -111.5t27 -156.5q0 -92 -28.5 -163.5t-76 -113.5t-103 -63.5t-114.5 -21.5zM351 28q44 0 67.5 27t34.5 93t11 188q0 136 -13 208.5 t-36 96.5t-64 24q-39 0 -61.5 -21.5t-37 -92t-14.5 -199.5q0 -131 11.5 -201t35 -96.5t66.5 -26.5z" />
<glyph unicode="1" horiz-adv-x="406" d="M19 0v30l39 7q30 6 38.5 18t8.5 58v417l-84 8v33q77 16 145 50t108 81l30 -7v-582q0 -46 8 -58t38 -18l37 -7v-30h-368z" />
<glyph unicode="2" horiz-adv-x="541" d="M14 0v87q122 98 210 196q52 60 75.5 113.5t23.5 131.5q0 75 -21.5 106t-63.5 31q-27 0 -36.5 -10.5t-11.5 -39.5q-2 -64 -23.5 -87t-70.5 -23q-35 0 -55 18t-20 52q0 55 61.5 92.5t173.5 37.5q119 0 190.5 -52t71.5 -150q0 -51 -28.5 -100t-83 -94.5t-117 -84 t-147.5 -81.5v-5h253q37 0 49.5 12t36.5 66h32l-15 -216h-484z" />
<glyph unicode="3" horiz-adv-x="552" d="M235 -12q-111 0 -167 32t-56 90q0 69 74 69q41 0 60.5 -20.5t24.5 -78.5q5 -33 15 -42.5t43 -9.5q54 0 75 42t21 126t-28 113t-92 29h-48v45h39q64 0 90.5 31.5t26.5 112.5q0 138 -79 138q-19 0 -28 -7.5t-11 -27.5q-6 -62 -22.5 -83t-63.5 -21q-72 0 -72 64 q0 53 59.5 84t159.5 31q111 0 178 -44t67 -122q0 -59 -47 -104t-140 -63v-3q97 -7 156 -51t59 -126q0 -91 -75 -147.5t-219 -56.5z" />
<glyph unicode="4" horiz-adv-x="598" d="M213 0v30l33 7q30 6 38 18t8 58v78h-280v58l346 444h125v-426h101l-10 -76h-91v-78q0 -46 8 -58t37 -18l36 -7v-30h-351zM89 267h203v259h-3l-200 -255v-4z" />
<glyph unicode="5" horiz-adv-x="535" d="M221 -12q-98 0 -150.5 32.5t-52.5 85.5q0 31 19.5 48.5t55.5 17.5q43 0 61.5 -20.5t22.5 -80.5q2 -26 13 -34.5t42 -8.5q114 0 114 138q0 139 -161 139q-69 0 -110 -15l-12 9l42 394h291q24 0 34 9t28 45h32l-19 -188h-329l-12 -121q43 16 119 16q121 0 192.5 -58.5 t71.5 -166.5q0 -104 -78.5 -172.5t-213.5 -68.5z" />
<glyph unicode="6" horiz-adv-x="612" d="M310 -12q-123 0 -205.5 82t-82.5 247q0 101 31 178.5t84 121.5t115.5 66t131.5 22q85 0 133 -27t48 -74q0 -68 -76 -68q-43 0 -61 19.5t-23 70.5q-2 23 -10.5 31t-31.5 8q-131 0 -138 -290q66 42 145 42q102 0 161.5 -50.5t59.5 -150.5q0 -102 -73.5 -165t-207.5 -63z M314 28q49 0 64.5 39t15.5 141q0 84 -23 116t-75 32q-36 0 -72 -20q-1 -11 -1 -25q0 -167 18.5 -225t72.5 -58z" />
<glyph unicode="7" horiz-adv-x="517" d="M101 0q34 165 117.5 298t211.5 258h-302q-33 0 -45 -13t-34 -71h-31l17 221h472v-83q-100 -134 -142 -277t-52 -333h-212z" />
<glyph unicode="8" horiz-adv-x="578" d="M284 -12q-121 0 -192.5 45.5t-71.5 125.5q0 100 152 159v4q-124 64 -124 181q0 92 75 147t176 55q97 0 164.5 -40.5t67.5 -119.5q0 -43 -38 -79t-95 -60v-4q82 -39 121.5 -86.5t39.5 -113.5q0 -88 -80 -151t-195 -63zM293 31q55 0 90 26.5t35 76.5t-41.5 80.5 t-170.5 87.5q-47 -59 -47 -130q0 -70 32 -105.5t102 -35.5zM359 423q41 50 41 118q0 121 -110 121q-48 0 -77 -25t-29 -67q0 -44 39 -75.5t136 -71.5z" />
<glyph unicode="9" horiz-adv-x="611" d="M233 -13q-88 0 -138.5 28t-50.5 77q0 67 80 67q38 0 56 -20.5t26 -71.5q4 -23 13 -31t32 -8q69 0 100 63t35 224q-74 -43 -147 -43q-101 0 -159.5 52t-58.5 152q0 102 74.5 165t205.5 63q127 0 207.5 -81t80.5 -248q0 -98 -27.5 -173.5t-76.5 -121.5t-112.5 -69.5 t-139.5 -23.5zM311 335q40 0 76 20q1 11 1 27q0 167 -18.5 225t-72.5 58q-46 0 -62.5 -39.5t-16.5 -140.5q0 -84 22 -117t71 -33z" />
<glyph unicode=":" horiz-adv-x="240" d="M120 -7q-36 0 -62 25.5t-26 61.5t26 61.5t62 25.5t62 -25.5t26 -61.5t-26 -61.5t-62 -25.5zM120 271q-36 0 -62 25.5t-26 61.5q0 37 26 62.5t62 25.5t62 -25.5t26 -62.5q0 -36 -26 -61.5t-62 -25.5z" />
<glyph unicode=";" horiz-adv-x="242" d="M27 -115l-8 24q114 52 111 120q-9 -11 -32 -11q-30 0 -48.5 20t-18.5 54t24.5 54.5t60.5 20.5q41 0 69 -27.5t28 -76.5q0 -67 -49 -113.5t-137 -64.5zM120 271q-36 0 -62 25.5t-26 61.5q0 37 26 62.5t62 25.5t62 -25.5t26 -62.5q0 -36 -26 -61.5t-62 -25.5z" />
<glyph unicode="&#x3c;" horiz-adv-x="480" d="M442 100l-405 183v59l405 183v-66l-337 -146l337 -146v-67z" />
<glyph unicode="=" horiz-adv-x="534" d="M37 238v59h459v-59h-459zM37 388v59h459v-59h-459z" />
<glyph unicode="&#x3e;" horiz-adv-x="480" d="M37 100v67l338 146l-338 146v66l405 -183v-59z" />
<glyph unicode="?" horiz-adv-x="485" d="M150 220v175q30 9 49.5 18t40.5 26t31.5 44.5t10.5 65.5q0 113 -72 113q-18 0 -23.5 -7.5t-9.5 -34.5q-6 -47 -27.5 -68.5t-63.5 -21.5q-33 0 -51.5 19t-18.5 46q0 51 56 80.5t151 29.5q112 0 172 -50t60 -135q0 -94 -68 -151.5t-181 -76.5v-72h-56zM179 -7 q-37 0 -62.5 25.5t-25.5 61.5q0 37 25.5 62t62.5 25q35 0 62 -25t27 -62q0 -35 -27 -61t-62 -26z" />
<glyph unicode="@" horiz-adv-x="896" d="M427 -149q-180 0 -292 96.5t-112 270.5q0 124 64.5 229.5t171 165.5t228.5 60q175 0 280.5 -88t105.5 -231q0 -80 -24.5 -144t-65 -102t-88 -57.5t-97.5 -19.5q-66 0 -92 25t-27 68h-3q-26 -40 -64.5 -65.5t-82.5 -25.5q-54 0 -84 37.5t-30 109.5q0 131 85 224.5 t191 93.5q75 0 132 -41h3l51 36l16 -8q-11 -26 -28 -114l-37 -195q-10 -49 -2 -72t38 -23q50 0 90 65t40 180q0 137 -82 223t-227 86q-72 0 -138 -27t-117 -76t-81.5 -125t-30.5 -167q0 -159 83 -252t248 -93q135 0 243 54v-36q-41 -24 -115 -43t-150 -19zM408 119 q4 0 8.5 1t8 2t7 3.5t6 4t6.5 6t6 6.5t6 8t6 8.5t6.5 9.5t6.5 10l47 253q-11 30 -38 30q-44 0 -81.5 -87.5t-37.5 -185.5q0 -69 43 -69z" />
<glyph unicode="A" d="M-2 0v30l23 7q24 7 36 24t33 77l201 555h110l207 -557q21 -56 33.5 -75t34.5 -26l20 -5v-30h-352v30l28 7q37 10 37 41q0 20 -20 75l-21 60h-194l-20 -61q-16 -45 -16 -70q0 -20 9.5 -29t35.5 -16l26 -7v-30h-211zM268 495l-78 -235h162l-79 235h-5z" />
<glyph unicode="B" horiz-adv-x="671" d="M15 0v30l31 7q26 6 33.5 18.5t7.5 57.5v467q0 45 -7.5 57.5t-33.5 18.5l-31 7v30h331q142 0 208 -39.5t66 -125.5q0 -126 -187 -154v-5q111 -14 165 -54t54 -120q0 -96 -69.5 -145.5t-205.5 -49.5h-362zM353 46q49 0 71.5 32.5t22.5 118.5q0 83 -25 113.5t-87 30.5h-51 v-233q0 -40 12.5 -51t56.5 -11zM284 386h45q58 0 79 27.5t21 98.5q0 79 -22 107t-71 28q-33 0 -52 -7v-254z" />
<glyph unicode="C" horiz-adv-x="627" d="M374 -12q-157 0 -253 91.5t-96 261.5q0 93 30 164.5t82 114t117 64t140 21.5q109 0 191 -23l12 -209h-33q-46 90 -84 141q-20 27 -41.5 37.5t-55.5 10.5q-82 0 -115 -69t-33 -232q0 -130 16.5 -202.5t48 -100t86.5 -27.5q38 0 61.5 12.5t47.5 44.5q42 60 78 145h32 l-12 -205q-99 -40 -219 -40z" />
<glyph unicode="D" horiz-adv-x="740" d="M15 0v30l31 7q26 6 33.5 18.5t7.5 57.5v467q0 45 -7.5 57.5t-33.5 18.5l-31 7v30h350q166 0 258 -82.5t92 -250.5q0 -169 -94.5 -264.5t-259.5 -95.5h-346zM350 46q81 0 119 70t38 220q0 173 -38.5 242t-120.5 69q-42 0 -62 -9v-501q0 -57 12.5 -74t51.5 -17z" />
<glyph unicode="E" horiz-adv-x="627" d="M15 0v30l31 7q26 6 33.5 18.5t7.5 57.5v467q0 45 -7.5 57.5t-33.5 18.5l-31 7v30h561l10 -207h-33q-32 70 -59 109q-23 34 -46 42.5t-76 8.5q-56 0 -86 -10v-254h22q49 0 66.5 6.5t27.5 22.5q20 35 32 78h32v-264h-32q-13 46 -32 82q-9 19 -26 24.5t-69 5.5h-21v-195 q0 -66 13.5 -80.5t81.5 -14.5q58 0 80 11t50 52q25 37 66 135h33l-14 -245h-581z" />
<glyph unicode="F" horiz-adv-x="599" d="M15 0v30l31 7q26 6 33.5 18.5t7.5 57.5v467q0 45 -7.5 57.5t-33.5 18.5l-31 7v30h556l10 -212h-32q-31 69 -61 112q-23 34 -44 44t-73 10q-53 0 -85 -9v-267h16q52 0 69.5 6t28.5 24q19 32 33 83h31v-275h-31q-16 55 -33 85q-12 21 -28.5 26.5t-70.5 5.5h-15v-213 q0 -46 7 -57.5t36 -17.5l42 -8v-30h-356z" />
<glyph unicode="G" horiz-adv-x="695" d="M389 -12q-179 0 -271.5 91.5t-92.5 264.5q0 94 30.5 165t85 113t123.5 62.5t151 20.5q110 0 188 -24l10 -212h-33q-36 75 -78 136q-24 34 -45.5 45.5t-62.5 11.5q-86 0 -123.5 -71.5t-37.5 -231.5q0 -186 31.5 -257t118.5 -71q38 0 67 19v150q0 46 -7.5 57.5t-34.5 18.5 l-32 8v30h318v-30l-23 -7q-23 -6 -28.5 -18t-5.5 -59v-172q-45 -17 -116.5 -28.5t-131.5 -11.5z" />
<glyph unicode="H" horiz-adv-x="780" d="M15 0v30l31 7q26 6 33.5 18.5t7.5 57.5v467q0 45 -7.5 57.5t-33.5 18.5l-31 7v30h342v-30l-29 -7q-27 -8 -34.5 -19.5t-7.5 -56.5v-201h208v201q0 45 -7.5 56.5t-34.5 19.5l-29 7v30h342v-30l-31 -7q-26 -6 -33.5 -18.5t-7.5 -57.5v-467q0 -45 7.5 -57t33.5 -19l31 -7 v-30h-342v30l29 7q27 7 34.5 18.5t7.5 57.5v217h-208v-217q0 -46 7.5 -57.5t34.5 -18.5l29 -7v-30h-342z" />
<glyph unicode="I" horiz-adv-x="380" d="M15 0v30l34 7q27 6 34.5 18.5t7.5 57.5v467q0 45 -7.5 57.5t-34.5 18.5l-34 7v30h351v-30l-35 -7q-26 -6 -33.5 -18t-7.5 -58v-467q0 -46 7.5 -58t33.5 -18l35 -7v-30h-351z" />
<glyph unicode="J" horiz-adv-x="374" d="M24 -189q-74 0 -113 26.5t-39 68.5q0 33 19.5 51.5t53.5 18.5q40 0 59.5 -21.5t28.5 -78.5q3 -15 6.5 -19t11.5 -4q36 0 36 75v652q0 45 -7.5 57.5t-33.5 18.5l-32 7v30h345v-30l-31 -7q-27 -7 -34.5 -19t-7.5 -57v-515q0 -113 -71 -183.5t-191 -70.5z" />
<glyph unicode="K" horiz-adv-x="737" d="M493 0q-105 152 -184 326v18l169 196q39 43 39 78q0 27 -33 37l-28 8v30h247v-30l-22 -6q-28 -8 -48 -24t-62 -64l-118 -132q97 -199 221 -375q14 -20 32 -25l29 -7v-30h-242zM15 0v30l31 7q26 6 33.5 18.5t7.5 57.5v467q0 45 -7.5 57.5t-33.5 18.5l-31 7v30h342v-30 l-29 -7q-28 -8 -35 -19.5t-7 -56.5v-467q0 -46 7.5 -57.5t34.5 -18.5l29 -7v-30h-342z" />
<glyph unicode="L" horiz-adv-x="608" d="M15 0v30l31 7q26 6 33.5 18.5t7.5 57.5v467q0 45 -7.5 57.5t-33.5 18.5l-31 7v30h350v-30l-37 -8q-27 -6 -34.5 -17.5t-7.5 -57.5v-447q0 -58 12.5 -72.5t70.5 -14.5q57 0 79.5 11t46.5 49q35 56 71 146h34l-17 -252h-568z" />
<glyph unicode="M" horiz-adv-x="890" d="M15 0v30l29 7q19 5 26.5 10t12 22t4.5 54v457q0 45 -7.5 57.5t-33.5 18.5l-31 7v30h299l131 -393h4l129 393h297v-30l-31 -7q-26 -7 -34 -19t-8 -57v-467q0 -45 7.5 -57t34.5 -19l31 -7v-30h-344v30l31 7q27 7 34 18.5t7 57.5v481h-4l-188 -579h-70l-195 579h-4v-465 q0 -57 7.5 -71t38.5 -21l30 -7v-30h-203z" />
<glyph unicode="N" horiz-adv-x="703" d="M539 -1l-393 570h-4v-440q0 -57 8 -71t41 -21l34 -7v-30h-210v30l29 7q19 5 26.5 10t12 22t4.5 54v457q0 45 -7.5 57.5t-33.5 18.5l-31 7v30h280l263 -380h4v251q0 56 -8 69.5t-41 21.5l-37 8v30h213v-30l-30 -7q-27 -7 -35 -20.5t-8 -65.5v-571h-77z" />
<glyph unicode="O" horiz-adv-x="736" d="M365 -12q-67 0 -126.5 21t-108.5 62.5t-77.5 110.5t-28.5 156q0 95 31.5 168t83 115t111 63t122.5 21q67 0 126 -20t108 -60t77.5 -110t28.5 -161q0 -77 -21 -140t-55 -104t-80 -69.5t-93.5 -40.5t-97.5 -12zM370 31q72 0 103 63.5t31 237.5q0 185 -31 257.5t-106 72.5 q-47 0 -75 -24.5t-44 -92t-16 -185.5q0 -185 31 -257t107 -72z" />
<glyph unicode="P" horiz-adv-x="661" d="M15 0v30l31 7q26 6 33.5 18.5t7.5 57.5v467q0 45 -7.5 57t-31.5 18l-33 8v30h340q144 0 216 -50t72 -156q0 -90 -65.5 -152.5t-183.5 -62.5q-43 0 -79 13v33q71 2 98 35t27 127q0 99 -21 133t-77 34q-32 0 -56 -8v-526q0 -45 7 -56t36 -18l40 -9v-30h-354z" />
<glyph unicode="Q" horiz-adv-x="736" d="M591 -175q-58 0 -103 15.5t-95 51.5q-70 49 -141 116q-102 30 -165 113t-63 217q0 95 31.5 168t83 115t111 63t122.5 21q67 0 126 -20t108 -60t77.5 -110t28.5 -161q0 -141 -63 -221.5t-166 -111.5v-3q44 -41 93 -72q60 -39 111 -39q34 0 86 22v-29q-70 -75 -182 -75z M370 29q48 0 76 25t43 92t15 186q0 185 -31 257.5t-106 72.5q-47 0 -75 -24.5t-44 -92t-16 -185.5q0 -185 31 -258t107 -73z" />
<glyph unicode="R" horiz-adv-x="721" d="M15 0v30l31 7q26 6 33.5 18.5t7.5 57.5v467q0 45 -7.5 57.5t-33.5 18.5l-31 7v30h338q153 0 222 -45.5t69 -139.5q0 -66 -31 -106t-99 -60v-3q67 -155 157 -280q8 -10 14.5 -14t23.5 -10l15 -5v-30h-238q-37 51 -81 138.5t-71 159.5q-36 0 -48 2v-187q0 -46 7 -58t32 -18 l31 -7v-30h-341zM331 340q60 0 86 33.5t26 119.5q0 87 -20.5 120.5t-76.5 33.5q-39 0 -60 -7v-297q18 -3 45 -3z" />
<glyph unicode="S" horiz-adv-x="533" d="M242 -12q-136 0 -207 32l-12 195h34q40 -77 78 -127q26 -34 50 -45.5t65 -11.5q53 0 81 27.5t28 75.5q0 43 -30 73t-113 61q-108 40 -149 91.5t-41 132.5q0 95 70.5 154t184.5 59q116 0 179 -25l10 -172h-33q-34 66 -74 111q-21 25 -40 34t-56 9q-49 0 -75 -23.5 t-26 -66.5q0 -42 25.5 -67t108.5 -56q116 -43 164 -94.5t48 -129.5q0 -101 -72.5 -169t-197.5 -68z" />
<glyph unicode="T" horiz-adv-x="643" d="M144 0v30l34 7q30 7 37 18.5t7 57.5v534h-8q-38 0 -55.5 -8.5t-37.5 -36.5q-27 -35 -75 -146h-34l8 237h602l9 -237h-34q-50 114 -74 146q-22 29 -38 37t-56 8h-8v-534q0 -47 7 -58t37 -18l34 -7v-30h-355z" />
<glyph unicode="U" horiz-adv-x="709" d="M380 -12q-297 0 -297 234v358q0 45 -7.5 57.5t-33.5 18.5l-32 7v30h344v-30l-31 -7q-27 -7 -34 -18.5t-7 -57.5v-381q0 -75 34.5 -108.5t115.5 -33.5q141 0 141 157v350q0 57 -8 70t-41 21l-37 8v30h212v-30l-30 -7q-26 -7 -33.5 -20.5t-7.5 -65.5v-363q0 -97 -63 -158 t-185 -61z" />
<glyph unicode="V" horiz-adv-x="684" d="M299 0l-212 557q-20 54 -32.5 74.5t-35.5 26.5l-22 5v30h350v-30l-28 -7q-34 -10 -34 -40q0 -21 19 -76l116 -341h5l108 340q15 50 15 73q0 34 -39 44l-31 7v30h210v-30l-26 -8q-20 -6 -31.5 -25.5t-31.5 -74.5l-191 -555h-109z" />
<glyph unicode="W" horiz-adv-x="1033" d="M274 0l-190 568q-18 51 -28.5 68t-31.5 22l-25 5v30h341v-30l-24 -6q-33 -9 -33 -39q0 -26 18 -78l103 -332h5l88 271l-34 107q-11 34 -23 49t-33 22l-21 6v30h340v-30l-36 -8q-31 -6 -31 -41q0 -24 15 -74l103 -332h5l97 333q14 42 14 73q0 35 -37 43l-32 6v30h209v-30 l-21 -5q-23 -6 -37 -29.5t-35 -84.5l-173 -544h-117l-123 395h-4l-130 -395h-119z" />
<glyph unicode="X" horiz-adv-x="715" d="M8 0v30l16 4q28 8 47.5 25t50.5 65l137 210l-153 250q-21 36 -33.5 49.5t-37.5 22.5l-20 7v30h374v-30l-36 -8q-30 -6 -30 -32q0 -20 28 -69l76 -134h3l76 136q23 41 23 67t-39 34l-29 6v30h226v-30l-23 -6q-22 -6 -36.5 -22.5t-49.5 -69.5l-118 -191l159 -264 q28 -43 40.5 -55.5t31.5 -19.5l16 -5v-30h-368v30l35 7q32 4 32 33q0 17 -28 68l-88 152h-3l-85 -144q-30 -51 -30 -76q0 -27 32 -33l32 -7v-30h-228z" />
<glyph unicode="Y" horiz-adv-x="658" d="M163 0v30l34 7q30 7 37 18.5t7 57.5v173l-154 286q-25 47 -38 62.5t-34 22.5l-19 6v30h361v-30l-29 -7q-38 -8 -38 -41q0 -19 18 -58l98 -205h5l87 196q17 39 17 66q0 31 -41 42l-27 7v30h215v-30l-20 -6q-21 -7 -37.5 -28.5t-37.5 -66.5l-127 -271v-178q0 -47 7 -58 t37 -18l34 -7v-30h-355z" />
<glyph unicode="Z" horiz-adv-x="586" d="M16 0v47l343 600v3h-29q-98 0 -126.5 -7.5t-51.5 -38.5q-33 -45 -78 -140h-32l12 229h519v-47l-341 -597v-4h38q100 0 130.5 9.5t58.5 46.5q37 49 81 151h34l-17 -252h-541z" />
<glyph unicode="[" horiz-adv-x="337" d="M84 -130v864h233v-30l-61 -7q-43 -5 -54.5 -17.5t-11.5 -59.5v-636q0 -47 11.5 -59.5t54.5 -17.5l61 -7v-30h-233z" />
<glyph unicode="\" horiz-adv-x="388" d="M329 -130l-313 864h59l313 -864h-59z" />
<glyph unicode="]" horiz-adv-x="337" d="M20 -130v30l61 7q43 5 54.5 17.5t11.5 59.5v636q0 48 -11.5 60t-54.5 17l-61 7v30h233v-864h-233z" />
<glyph unicode="^" horiz-adv-x="480" d="M77 434l-16 18l150 243h57l151 -243l-16 -18l-165 139z" />
<glyph unicode="_" horiz-adv-x="356" d="M-3 -168v59h362v-59h-362z" />
<glyph unicode="`" horiz-adv-x="494" d="M355 577l-182 40q-48 10 -48 58q0 26 16 45t41 19q28 0 56 -26l125 -118z" />
<glyph unicode="a" horiz-adv-x="542" d="M166 -12q-71 0 -110.5 34.5t-39.5 97.5q0 64 45.5 99.5t142.5 59.5l92 23v84q0 63 -14.5 85t-52.5 22q-21 0 -28.5 -7t-9.5 -28q-4 -51 -23 -72t-60 -21q-34 0 -53 17t-19 48q0 50 59 77.5t171 27.5q204 0 204 -139v-270q0 -30 4.5 -43.5t18.5 -20.5q12 -7 46 -10v-27 q-49 -37 -124 -37q-90 0 -109 62h-5q-50 -62 -135 -62zM248 64q35 0 48 25v160l-39 -3q-38 -3 -54.5 -24.5t-16.5 -72.5q0 -85 62 -85z" />
<glyph unicode="b" horiz-adv-x="615" d="M295 -12q-145 0 -237 61v573q0 37 -5 48.5t-27 22.5l-35 18v25l232 21l12 -9q-3 -48 -3 -117v-65l-3 -100h5q77 69 165 69q80 0 138 -60.5t58 -185.5q0 -152 -81.5 -226.5t-218.5 -74.5zM306 30q39 0 61.5 16t35.5 65.5t13 139.5q0 103 -27.5 146.5t-83.5 43.5 q-31 0 -73 -15v-361q28 -35 74 -35z" />
<glyph unicode="c" horiz-adv-x="503" d="M272 -12q-121 0 -188 73t-67 199q0 75 27.5 130.5t73.5 85.5t98 44.5t110 14.5q77 0 120.5 -24.5t43.5 -71.5q0 -32 -20 -52.5t-53 -20.5q-69 0 -77 84q-3 27 -10 34.5t-32 7.5q-108 0 -108 -187q0 -113 36.5 -169t118.5 -56q69 0 141 36v-33q-26 -36 -82 -65.5 t-132 -29.5z" />
<glyph unicode="d" horiz-adv-x="627" d="M216 -12q-82 0 -138.5 64t-56.5 191q0 149 81.5 220.5t211.5 71.5q30 0 72 -10q-1 35 -1 71v26q0 34 -5.5 44.5t-26.5 22.5l-41 22v25l237 21l12 -9q-3 -48 -3 -117v-507q0 -38 5 -48t28 -20l27 -11v-26l-218 -31l-12 8l2 58h-5q-77 -66 -169 -66zM307 73q13 0 26 2.5 t20.5 5t18 6.5t12.5 5v360q-33 41 -73 41q-54 0 -83 -49t-29 -166q0 -114 26 -159.5t82 -45.5z" />
<glyph unicode="e" horiz-adv-x="532" d="M282 -12q-130 0 -197.5 71.5t-67.5 202.5q0 126 79.5 199.5t185.5 73.5q111 0 171 -59.5t63 -190.5h-329q3 -116 43.5 -160.5t123.5 -44.5q75 0 145 37v-34q-33 -38 -90 -66.5t-127 -28.5zM273 495q-81 0 -86 -171l158 9q0 92 -15 127t-57 35z" />
<glyph unicode="f" horiz-adv-x="363" d="M9 0v29l23 6q27 8 33 16.5t6 42.5v364h-70v26l70 38v23q0 102 68.5 159.5t189.5 57.5q64 0 99 -21.5t35 -63.5q0 -59 -63 -59q-36 0 -53.5 16t-20.5 57q-1 19 -5 24.5t-14 5.5q-62 0 -62 -101v-98h116l-14 -64h-102v-363q0 -36 5.5 -45.5t30.5 -13.5l35 -7v-29h-307z" />
<glyph unicode="g" horiz-adv-x="536" d="M217 -212q-113 0 -172 29.5t-59 85.5q0 35 33.5 61t95.5 39v4q-43 9 -66.5 36t-23.5 64q0 65 78 122v4q-80 41 -80 127q0 82 62.5 128.5t157.5 46.5q74 0 126 -24q59 52 116 52q30 0 47.5 -14t17.5 -42q0 -59 -51 -59q-22 0 -33 8.5t-20 28.5q-10 24 -53 5v-4 q70 -42 70 -112q0 -82 -62 -128t-158 -46q-59 0 -107 17q-19 -17 -19 -42q0 -32 48 -32h177q175 0 175 -138q0 -96 -79 -156.5t-221 -60.5zM239 -172q167 0 167 103q0 63 -87 63h-169q-35 -23 -35 -71q0 -95 124 -95zM243 241q34 0 47.5 26t13.5 98q0 75 -14 102t-47 27 q-34 0 -47.5 -26.5t-13.5 -97.5q0 -75 14 -102t47 -27z" />
<glyph unicode="h" horiz-adv-x="637" d="M9 0v29l23 6q27 8 33 16.5t6 42.5v528q0 38 -5 49t-27 22l-35 18v25l232 21l12 -9q-3 -50 -3 -117v-65l-3 -101h5q99 70 189 70q63 0 97 -34t34 -100v-307q0 -34 6 -43t33 -16l23 -6v-29h-291v29l21 5q24 7 29 15.5t5 44.5v264q0 43 -15.5 60t-49.5 17q-33 0 -83 -10 v-331q0 -37 5 -45t29 -15l21 -5v-29h-291z" />
<glyph unicode="i" horiz-adv-x="314" d="M9 0v29l23 6q27 8 33 16.5t6 42.5v305q0 31 -5 41.5t-28 26.5l-33 23v21l232 24l12 -8q-4 -51 -4 -119v-314q0 -34 6 -43t33 -16l23 -6v-29h-298zM153 577q-40 0 -67 24.5t-27 63.5t27 63.5t67 24.5t67.5 -25t27.5 -63t-27.5 -63t-67.5 -25z" />
<glyph unicode="j" horiz-adv-x="302" d="M19 -213q-69 0 -106 27.5t-37 70.5q0 63 69 63q37 0 54 -19.5t22 -73.5q2 -15 5.5 -20t11.5 -5q33 0 33 57v512q0 31 -5 41.5t-28 26.5l-33 23v21l232 24l12 -8q-4 -51 -4 -119v-399q0 -104 -62.5 -163t-163.5 -59zM153 577q-40 0 -67 24.5t-27 63.5t27 63.5t67 24.5 t67 -24.5t27 -63.5t-27 -63.5t-67 -24.5z" />
<glyph unicode="k" horiz-adv-x="611" d="M401 0q-77 112 -142 244v19l112 119q38 43 38 74q0 23 -39 33l-14 4v29h228v-29l-19 -5q-21 -6 -38.5 -17.5t-50.5 -44.5l-87 -87q96 -183 164 -273q18 -25 41 -32l14 -5v-29h-207zM9 0v29l23 6q27 8 33 16.5t6 42.5v528q0 38 -5 49t-27 22l-35 18v25l232 21l12 -9 q-3 -50 -3 -117v-537q0 -35 5 -44t28 -16l18 -5v-29h-287z" />
<glyph unicode="l" horiz-adv-x="319" d="M9 0v29l23 6q29 8 35 16.5t6 42.5v528q0 37 -5.5 48.5t-28.5 22.5l-35 18v25l235 21l11 -9q-3 -50 -3 -117v-537q0 -34 6 -42.5t35 -16.5l24 -6v-29h-303z" />
<glyph unicode="m" horiz-adv-x="936" d="M9 0v29l23 6q27 8 33 16.5t6 42.5v305q0 31 -5 41.5t-28 26.5l-33 23v21l224 24l12 -8l-2 -65h4q99 73 186 73q88 0 118 -74h5q100 74 189 74q58 0 91.5 -34.5t33.5 -99.5v-307q0 -34 6 -43t33 -16l23 -6v-29h-286v29l19 5q22 7 26.5 15.5t4.5 44.5v264q0 43 -13 60 t-45 17q-36 0 -80 -11q2 -14 2 -32v-298q0 -36 4.5 -44.5t26.5 -15.5l19 -5v-29h-275v29l19 5q22 7 27 15.5t5 44.5v264q0 43 -13 60t-46 17q-28 0 -78 -10v-331q0 -36 4.5 -44.5t26.5 -15.5l20 -5v-29h-287z" />
<glyph unicode="n" horiz-adv-x="637" d="M9 0v29l23 6q27 8 33 16.5t6 42.5v305q0 31 -5 41.5t-28 26.5l-33 23v21l224 24l12 -8l-2 -65h4q99 73 193 73q63 0 97 -34t34 -100v-307q0 -34 6 -43t33 -16l23 -6v-29h-291v29l21 5q24 7 29 15.5t5 44.5v264q0 43 -15.5 60t-49.5 17q-33 0 -83 -10v-331q0 -37 5 -45 t29 -15l21 -5v-29h-291z" />
<glyph unicode="o" horiz-adv-x="587" d="M294 -12q-118 0 -197.5 70.5t-79.5 201.5q0 71 23.5 125.5t63.5 86t88 47.5t102 16q117 0 196.5 -70t79.5 -201q0 -71 -23 -125.5t-62.5 -86.5t-88 -48t-102.5 -16zM296 30q23 0 38 7.5t28.5 30t20 69t6.5 118.5q0 76 -6.5 124.5t-20 72.5t-30 32.5t-41.5 8.5 q-47 0 -70 -46t-23 -170q0 -103 11 -157.5t31 -72t56 -17.5z" />
<glyph unicode="p" horiz-adv-x="629" d="M9 -207v29l23 6q27 8 33 16.5t6 42.5v512q0 31 -5 41.5t-28 26.5l-33 23v21l224 24l12 -8l-2 -64h5q80 72 168 72q81 0 138.5 -60t57.5 -186q0 -152 -79.5 -226.5t-211.5 -74.5q-43 0 -74 9q2 -24 2 -60v-50q0 -35 5.5 -44t30.5 -14l32 -7v-29h-304zM319 30q39 0 61.5 16 t36 65.5t13.5 139.5q0 103 -28 146.5t-84 43.5q-31 0 -73 -15v-361q29 -35 74 -35z" />
<glyph unicode="q" horiz-adv-x="619" d="M316 -207v29l31 7q25 5 31 14t6 44v85q0 21 1.5 41.5t2.5 30.5l2 10h-5q-77 -66 -169 -66q-82 0 -138.5 64t-56.5 191q0 149 81.5 220.5t211.5 71.5q94 0 169 -45h8l48 44l19 -7v-640q0 -34 6 -43t33 -16l23 -6v-29h-304zM307 73q13 0 26 2.5t20.5 5t18 6.5t12.5 5v366 q-35 35 -73 35q-54 0 -83 -49t-29 -166q0 -114 26 -159.5t82 -45.5z" />
<glyph unicode="r" horiz-adv-x="477" d="M9 0v29l23 6q27 8 33 16.5t6 42.5v305q0 31 -5 41.5t-28 26.5l-33 23v21l224 24l12 -8l-2 -72h4q71 80 147 80q37 0 58.5 -20.5t21.5 -58.5q0 -37 -20.5 -58t-52.5 -21q-34 0 -49 9.5t-34 37.5q-6 12 -21 12q-25 0 -48 -23v-319q0 -37 5.5 -45.5t29.5 -13.5l29 -5v-30 h-300z" />
<glyph unicode="s" horiz-adv-x="438" d="M190 -12q-92 0 -160 20l-7 158h30q31 -56 68 -99q29 -37 86 -37q35 0 56.5 18t21.5 49q0 32 -25 52t-94 46q-73 27 -108.5 65.5t-35.5 101.5q0 76 57.5 124.5t162.5 48.5q89 0 138 -18l7 -138h-29q-32 54 -59 83q-17 18 -32.5 24.5t-43.5 6.5q-29 0 -47.5 -16.5 t-18.5 -44.5q0 -29 19 -48t76 -40q93 -33 131 -73.5t38 -100.5q0 -83 -60 -132.5t-171 -49.5z" />
<glyph unicode="t" horiz-adv-x="375" d="M205 -12q-73 0 -109 35t-36 111v324h-61v26q129 52 171 174h64v-136h132l-14 -64h-118v-315q0 -39 14 -55t52 -16q25 0 70 8v-30q-65 -62 -165 -62z" />
<glyph unicode="u" horiz-adv-x="635" d="M201 -12q-61 0 -96 34t-35 99v282q0 32 -4.5 42t-27.5 25l-34 20v22l228 23l12 -9v-361q0 -44 15.5 -62t48.5 -18t84 17v301q0 32 -5 42.5t-27 24.5l-34 20v22l228 23l12 -9v-402q0 -38 5 -48t28 -20l27 -11v-26l-218 -31l-12 8l2 69h-5q-102 -77 -192 -77z" />
<glyph unicode="v" horiz-adv-x="568" d="M242 0l-167 406q-19 45 -30.5 60.5t-30.5 20.5l-19 6v29h319v-29l-27 -7q-33 -9 -33 -43q0 -17 13 -54l80 -219h6l75 219q13 35 13 56q0 32 -32 41l-27 7v29h190v-29l-17 -6q-20 -6 -32 -23t-33 -69l-154 -395h-94z" />
<glyph unicode="w" horiz-adv-x="858" d="M227 0l-152 406q-16 44 -28.5 59.5t-32.5 21.5l-19 6v29h295v-29l-20 -6q-25 -6 -25 -31q0 -15 16 -67l71 -219h5l71 203l-11 33q-17 47 -26.5 61.5t-26.5 19.5l-19 6v29h295v-29l-27 -7q-30 -8 -30 -40q0 -21 12 -57l72 -219h5l67 219q12 38 12 57q0 31 -31 40l-27 7v29 h190v-29l-17 -6q-20 -6 -33.5 -24t-31.5 -68l-145 -395h-94l-106 303h-3l-112 -303h-94z" />
<glyph unicode="x" horiz-adv-x="599" d="M7 0v29l20 5q23 5 39.5 20.5t43.5 54.5l98 141l-114 168q-29 41 -42 53.5t-32 17.5l-14 4v29h319v-29l-20 -4q-32 -7 -32 -29q0 -18 20 -48l62 -92h3l44 78q20 36 20 58q0 24 -34 32l-20 5v29h201v-29l-18 -5q-40 -9 -86 -81l-82 -126l124 -177l12.5 -17.5t10.5 -14.5 t8 -10.5t8 -9t7 -6.5t8 -5.5t9 -3.5t11 -4l13 -4v-29h-319v29l22 4q28 6 28 28q0 17 -26 57l-63 94h-3l-50 -85q-26 -41 -26 -63q0 -24 35 -31l19 -4v-29h-204z" />
<glyph unicode="y" horiz-adv-x="570" d="M128 -208q-47 0 -77 21t-30 56q0 28 17.5 44.5t47.5 16.5q31 0 46.5 -12t23.5 -41q5 -20 19 -20q17 0 34.5 22t42.5 79l10 24l-191 423q-23 50 -33 63.5t-25 18.5l-17 6v29h311v-29l-27 -7q-32 -8 -32 -41q0 -22 14 -56l85 -209h4l79 209q14 37 14 60q0 28 -33 37l-28 7 v29h192v-29l-22 -7q-18 -6 -28 -22t-32 -69l-190 -449q-35 -81 -71 -117.5t-104 -36.5z" />
<glyph unicode="z" horiz-adv-x="496" d="M10 0v47l281 426v4h-38q-53 0 -74 -5.5t-40 -25.5q-25 -26 -75 -107h-28l11 183h435v-45l-280 -428v-4h42q65 0 90.5 7.5t44.5 30.5q42 49 72 105h30l-16 -188h-455z" />
<glyph unicode="{" horiz-adv-x="361" d="M339 -129q-74 5 -121.5 16.5t-71.5 29.5t-32 37.5t-8 48.5q0 28 22 120t22 110q0 23 -22.5 35t-86.5 16v40q63 4 86 16t23 35q0 18 -22 109.5t-22 119.5q0 29 8 49t32 38t71.5 29t121.5 16v-33q-75 -10 -94 -25t-19 -63q0 -31 9 -106t9 -99q0 -47 -28.5 -69.5 t-112.5 -34.5v-4q86 -11 113.5 -34t27.5 -70q0 -24 -9 -99t-9 -107q0 -48 19 -63t94 -25v-33z" />
<glyph unicode="|" horiz-adv-x="221" d="M84 -130v864h54v-864h-54z" />
<glyph unicode="}" horiz-adv-x="361" d="M39 -129v33q75 10 94 25t19 63q0 32 -9 107t-9 99q0 47 28.5 69.5t112.5 34.5v4q-86 11 -113.5 34t-27.5 70q0 24 9 99t9 106q0 48 -19 63t-94 25v33q74 -5 121.5 -16t71.5 -29t32 -38t8 -49q0 -28 -21.5 -119.5t-21.5 -109.5q0 -23 22.5 -35t85.5 -16v-40 q-63 -4 -85.5 -16t-22.5 -35q0 -18 21.5 -110t21.5 -120q0 -29 -8 -48.5t-32 -37.5t-71.5 -29.5t-121.5 -16.5z" />
<glyph unicode="~" horiz-adv-x="391" d="M56 231l-28 14q25 64 45.5 92.5t53.5 28.5q23 0 82 -17.5t79 -17.5q27 0 52 41l27 -14q-25 -66 -44.5 -93.5t-54.5 -27.5q-24 0 -82 17.5t-79 17.5q-26 0 -51 -41z" />
<glyph unicode="&#xa1;" horiz-adv-x="292" d="M145 440q-36 0 -62 25t-26 62q0 35 26 61.5t62 26.5q35 0 62 -26.5t27 -61.5q0 -37 -26.5 -62t-62.5 -25zM145 -95q-59 0 -87 37t-9 109l80 337h33l79 -337q19 -72 -9.5 -109t-86.5 -37z" />
<glyph unicode="&#xa2;" horiz-adv-x="503" d="M271 -110v98q-120 4 -187 77t-67 199q0 64 21 114t58 80.5t80.5 48.5t94.5 24v65h44v-61h12q79 0 122.5 -24.5t43.5 -71.5q0 -32 -19 -52t-51 -20q-39 0 -54.5 19t-19.5 57q-2 24 -9.5 35t-24.5 13v-413q7 -1 23 -1q72 0 150 39v-33q-23 -32 -67.5 -59t-105.5 -34v-100 h-44zM190 305q0 -175 81 -214v397q-81 -21 -81 -183z" />
<glyph unicode="&#xa3;" horiz-adv-x="549" d="M28 336v49h58q-22 70 -22 114q0 92 69 149t195 57q102 0 152.5 -32t50.5 -86q0 -32 -20 -50t-54 -18q-43 0 -62 24t-27 77q-6 30 -12.5 37.5t-25.5 7.5q-35 0 -52.5 -26t-17.5 -90q0 -25 5 -83.5t6 -80.5h145v-49h-143q0 -125 -145 -200v-6h290q31 0 46 14.5t32 64.5h32 l-17 -209h-493v90q53 34 78 68t25 84q0 30 -20 94h-73z" />
<glyph unicode="&#xa5;" horiz-adv-x="652" d="M61 308v49h153l-115 215q-27 48 -39.5 63t-31.5 22l-19 6v30h357v-30l-27 -6q-37 -9 -37 -42q0 -21 18 -58l80 -177h5l70 168q19 48 19 67q0 30 -41 42l-22 6v30h209v-30l-20 -6q-23 -8 -36 -26t-37 -69l-96 -205h154v-49h-170v-69h170v-49h-170v-77q0 -47 7 -58t37 -18 l34 -7v-30h-355v30l34 7q30 7 37 18.5t7 57.5v77h-175v49h175v69h-175z" />
<glyph unicode="&#xa6;" horiz-adv-x="221" d="M84 -130v387h54v-387h-54zM84 324v410h54v-410h-54z" />
<glyph unicode="&#xa7;" horiz-adv-x="587" d="M266 -204q-82 0 -124.5 28t-42.5 74q0 59 64 59q35 0 51.5 -19t19.5 -62q2 -24 12 -33t37 -9q66 0 66 63q0 33 -27.5 60t-132.5 101q-94 66 -131 110t-37 104t32.5 99.5t91.5 69.5q-27 38 -27 90q0 74 54 122.5t144 48.5q84 0 127 -27t43 -73q0 -23 -16.5 -41t-47.5 -18 q-36 0 -52.5 20t-20.5 63q-1 23 -11 30.5t-37 7.5q-26 0 -46 -17t-20 -50q0 -32 26 -57t134 -101q106 -74 139.5 -116.5t33.5 -103.5q0 -99 -120 -168q21 -36 21 -77q0 -80 -58.5 -129t-144.5 -49zM423 83q31 25 31 62q0 30 -28 60.5t-119 92.5q-104 71 -141 114 q-35 -26 -35 -62q0 -29 29 -58t116 -91q111 -77 147 -118z" />
<glyph unicode="&#xa8;" horiz-adv-x="500" d="M145 573q-35 0 -58.5 22.5t-23.5 57.5t24 57.5t58 22.5q36 0 60 -22.5t24 -57.5t-24 -57.5t-60 -22.5zM355 573q-36 0 -59.5 22t-23.5 58q0 35 23.5 57.5t59.5 22.5q34 0 58 -22.5t24 -57.5t-23.5 -57.5t-58.5 -22.5z" />
<glyph unicode="&#xa9;" horiz-adv-x="788" d="M400 133q-100 0 -158.5 54t-58.5 159q0 112 63.5 166t163.5 54q68 0 127 -16l5 -126h-24q-38 67 -57 88q-13 15 -23.5 20t-29.5 5q-45 0 -64.5 -44t-19.5 -134q0 -105 22 -150.5t68 -45.5q38 0 59 30q10 12 52 97h25l-8 -133q-63 -24 -142 -24zM393 -17 q-151 0 -254 105.5t-103 255.5t103 254.5t254 104.5t255 -104.5t104 -254.5t-104 -255.5t-255 -105.5zM393 27q132 0 219.5 92.5t87.5 224.5t-87 224t-220 92t-220 -92t-87 -224q0 -133 87 -225t220 -92z" />
<glyph unicode="&#xaa;" horiz-adv-x="453" d="M139 261q-59 0 -91.5 28t-32.5 78q0 51 37 80.5t118 50.5l75 19v57q0 54 -11.5 71.5t-41.5 17.5q-16 0 -22 -6.5t-8 -24.5q-5 -43 -20.5 -59.5t-51.5 -16.5q-59 0 -59 53q0 41 48.5 66t141.5 25q172 0 172 -119v-207q0 -25 3.5 -35.5t15.5 -15.5q16 -8 38 -8v-24 q-45 -30 -106 -30q-76 0 -91 49h-3q-43 -49 -111 -49zM206 327q27 0 39 19v125l-32 -3q-30 -2 -42 -18.5t-12 -59.5q0 -35 12 -49t35 -14z" />
<glyph unicode="&#xab;" horiz-adv-x="458" d="M199 45l-174 198v19l174 198h36l-77 -206l77 -209h-36zM386 45l-174 198v19l174 198h35l-77 -206l77 -209h-35z" />
<glyph unicode="&#xac;" horiz-adv-x="806" d="M402 -15q-150 0 -255.5 106t-105.5 256t105.5 255.5t255.5 105.5t256.5 -105.5t106.5 -255.5q0 -149 -107 -255.5t-256 -106.5z" />
<glyph unicode="&#xad;" horiz-adv-x="277" d="M20 236l13 106h224l-14 -106h-223z" />
<glyph unicode="&#xae;" horiz-adv-x="788" d="M199 148v20l19 4q15 5 19.5 12t4.5 34v261q0 26 -4.5 33.5t-19.5 11.5l-19 4v21h194q176 0 176 -110q0 -73 -79 -97v-3q37 -87 80 -153q6 -11 21 -15l12 -3v-20h-142q-39 61 -78 170q-2 0 -12 0.5t-11 0.5v-101q0 -27 4 -34t19 -12l19 -4v-20h-203zM393 -17 q-151 0 -254 105.5t-103 255.5t103 254.5t254 104.5t255 -104.5t104 -254.5t-104 -255.5t-255 -105.5zM393 27q132 0 219.5 92.5t87.5 224.5t-87 224t-220 92t-220 -92t-87 -224q0 -133 87 -225t220 -92zM381 347q33 0 46.5 19.5t13.5 66.5q0 48 -12.5 67.5t-41.5 19.5 q-18 0 -27 -3v-168q8 -2 21 -2z" />
<glyph unicode="&#xaf;" horiz-adv-x="500" d="M120 605v83h260v-83h-260z" />
<glyph unicode="&#xb0;" horiz-adv-x="304" d="M152 455q-53 0 -88.5 36.5t-35.5 88.5q0 51 35.5 87.5t88.5 36.5t88.5 -36.5t35.5 -87.5q0 -52 -35.5 -88.5t-88.5 -36.5zM152 498q33 0 54 24t21 58t-21 57.5t-54 23.5t-54 -23.5t-21 -57.5t21 -58t54 -24z" />
<glyph unicode="&#xb1;" horiz-adv-x="818" d="M697 250l-339 16l80 -66q53 -44 40 -99.5t-63.5 -68.5t-100.5 26l-286 287v4l287 288q45 45 99.5 26t63.5 -69t-40 -100l-80 -66l339 16q63 3 89.5 -47t0 -100t-89.5 -47z" />
<glyph unicode="&#xb2;" horiz-adv-x="346" d="M12 304v62q79 57 127 109q53 54 53 127q0 66 -43 66q-12 0 -16 -5.5t-6 -25.5q-4 -34 -18.5 -49t-45.5 -15q-50 0 -50 44q0 36 41.5 59.5t109.5 23.5q76 0 120.5 -29t44.5 -84q0 -46 -49 -90t-165 -94v-3h130q19 0 26.5 8.5t21.5 40.5h31l-8 -145h-304z" />
<glyph unicode="&#xb3;" horiz-adv-x="358" d="M155 296q-143 0 -143 74q0 45 48 45q27 0 41 -13.5t18 -47.5q3 -18 9 -22.5t24 -4.5q51 0 51 82q0 48 -19.5 63t-56.5 15h-28v40h22q38 0 55 16t17 56q0 70 -37 70q-13 0 -18 -5t-6 -21q-3 -26 -15.5 -39.5t-40.5 -13.5q-22 0 -35 11.5t-13 30.5q0 32 36 50t102 18 q71 0 113 -23.5t42 -69.5q0 -72 -112 -90v-2q59 -3 94 -28t35 -74q0 -55 -45.5 -86t-137.5 -31z" />
<glyph unicode="&#xb4;" horiz-adv-x="500" d="M142 577l-8 18l125 118q28 26 56 26q24 0 40.5 -19.5t16.5 -44.5q0 -48 -48 -58z" />
<glyph unicode="&#xb5;" horiz-adv-x="818" d="M460 266l-339 -16q-63 -3 -89.5 47t0 100t89.5 47l339 -16l-80 66q-53 44 -40 99.5t63 69t100 -25.5l287 -288v-4l-286 -287q-46 -45 -100.5 -26.5t-63.5 68.5t40 100z" />
<glyph unicode="&#xb6;" horiz-adv-x="541" d="M254 -100v429q-16 -2 -40 -2q-99 0 -147 51.5t-48 135.5q0 80 49.5 129.5t144.5 49.5h314v-30l-32 -7q-26 -6 -33.5 -18.5t-7.5 -57.5v-680h-57v747h-86v-747h-57z" />
<glyph unicode="&#xb7;" horiz-adv-x="234" d="M117 249q-36 0 -62 26t-26 61q0 38 25.5 63t62.5 25q35 0 62 -25.5t27 -62.5q0 -34 -27 -60.5t-62 -26.5z" />
<glyph unicode="&#xb8;" horiz-adv-x="500" d="M161 -205v23q85 18 85 51q0 26 -49 28l-5 8l47 95h44l-32 -45q43 -4 66 -20.5t23 -41.5q0 -83 -179 -98z" />
<glyph unicode="&#xb9;" horiz-adv-x="271" d="M14 304v30l19 4q20 5 25 11.5t5 36.5v188l-47 10v28q47 9 92.5 32.5t71.5 53.5l27 -5v-307q0 -29 6 -37t26 -11l18 -4v-30h-243z" />
<glyph unicode="&#xba;" horiz-adv-x="491" d="M245 262q-93 0 -160.5 57t-67.5 161q0 109 68 164.5t160 55.5q94 0 161.5 -56.5t67.5 -160.5q0 -109 -68 -165t-161 -56zM247 300q24 0 38 10.5t24 50.5t10 115q0 80 -8.5 121t-23.5 53t-42 12q-38 0 -55.5 -36t-17.5 -133q0 -119 15.5 -156t59.5 -37z" />
<glyph unicode="&#xbb;" horiz-adv-x="458" d="M36 45l77 209l-77 206h36l174 -198v-19l-174 -198h-36zM223 45l76 209l-76 206h35l174 -198v-19l-174 -198h-35z" />
<glyph unicode="&#xbc;" horiz-adv-x="809" d="M557 0v30l18 4q19 5 24 12t5 36v24h-163v38l207 245h95v-234h59l-5 -49h-54v-24q0 -28 5.5 -36.5t23.5 -11.5l19 -4v-30h-234zM498 155h106v127h-2l-104 -123v-4zM15 304v30l19 4q20 5 25 11.5t5 36.5v188l-47 10v28q47 9 92.5 32.5t71.5 53.5l27 -5v-307q0 -29 6 -37 t26 -11l18 -4v-30h-243zM97 -50l531 764h65l-531 -764h-65z" />
<glyph unicode="&#xbd;" horiz-adv-x="796" d="M458 0v62q75 55 127 109q53 56 53 127q0 66 -43 66q-12 0 -16 -5.5t-6 -25.5q-4 -34 -18.5 -49t-45.5 -15q-50 0 -50 45q0 35 41.5 58.5t109.5 23.5q76 0 120.5 -29t44.5 -84q0 -46 -49 -90t-165 -93v-3h130q19 0 26.5 8.5t21.5 40.5h31l-8 -146h-304zM15 304v30l19 4 q20 5 25 11.5t5 36.5v188l-47 10v28q47 9 92.5 32.5t71.5 53.5l27 -5v-307q0 -29 6 -37t26 -11l18 -4v-30h-243zM71 -50l531 764h65l-531 -764h-65z" />
<glyph unicode="&#xbe;" horiz-adv-x="865" d="M167 296q-143 0 -143 74q0 45 48 45q27 0 41 -13.5t18 -47.5q3 -18 9 -22.5t24 -4.5q51 0 51 82q0 48 -19.5 63t-56.5 15h-28v40h22q38 0 55 16t17 56q0 70 -37 70q-13 0 -18 -5t-6 -21q-3 -26 -15.5 -39.5t-40.5 -13.5q-22 0 -35 11.5t-13 30.5q0 32 36 50t102 18 q71 0 113 -23.5t42 -69.5q0 -72 -112 -90v-2q59 -3 94 -28t35 -74q0 -55 -45.5 -86t-137.5 -31zM613 0v30l18 4q19 5 24 12t5 36v24h-163v38l207 245h95v-234h59l-5 -49h-54v-24q0 -28 5.5 -36.5t23.5 -11.5l19 -4v-30h-234zM554 155h106v127h-2l-104 -123v-4zM155 -50 l531 764h65l-531 -764h-65z" />
<glyph unicode="&#xbf;" horiz-adv-x="485" d="M263 -90q-112 0 -172.5 50t-60.5 135q0 94 68.5 151.5t181.5 76.5v72h55v-175q-30 -10 -49 -19t-40 -25.5t-31.5 -44t-10.5 -65.5q0 -114 71 -114q18 0 23.5 8t9.5 35q6 47 27.5 68.5t63.5 21.5q34 0 52 -19t18 -47q0 -51 -56 -80t-150 -29zM306 447q-35 0 -62 25.5 t-27 62.5q0 34 27 60.5t62 26.5q36 0 62 -26t26 -61q0 -38 -25.5 -63t-62.5 -25z" />
<glyph unicode="&#xc0;" d="M-2 0v30l23 7q24 7 36 24t33 77l201 555h110l207 -557q21 -56 33.5 -75t34.5 -26l20 -5v-30h-352v30l28 7q37 10 37 41q0 20 -20 75l-21 60h-194l-20 -61q-16 -45 -16 -70q0 -20 9.5 -29t35.5 -16l26 -7v-30h-211zM268 495l-78 -235h162l-79 235h-5zM445 737l-182 40 q-48 10 -48 58q0 26 16 45t41 19q28 0 56 -26l125 -118z" />
<glyph unicode="&#xc1;" d="M-2 0v30l23 7q24 7 36 24t33 77l201 555h110l207 -557q21 -56 33.5 -75t34.5 -26l20 -5v-30h-352v30l28 7q37 10 37 41q0 20 -20 75l-21 60h-194l-20 -61q-16 -45 -16 -70q0 -20 9.5 -29t35.5 -16l26 -7v-30h-211zM268 495l-78 -235h162l-79 235h-5zM248 737l-8 18 l125 118q28 26 56 26q24 0 40.5 -19.5t16.5 -44.5q0 -48 -48 -58z" />
<glyph unicode="&#xc2;" d="M207 730l-12 19l122 144h55l123 -144l-12 -19l-138 57zM-2 0v30l23 7q24 7 36 24t33 77l201 555h110l207 -557q21 -56 33.5 -75t34.5 -26l20 -5v-30h-352v30l28 7q37 10 37 41q0 20 -20 75l-21 60h-194l-20 -61q-16 -45 -16 -70q0 -20 9.5 -29t35.5 -16l26 -7v-30h-211z M268 495l-78 -235h162l-79 235h-5z" />
<glyph unicode="&#xc3;" d="M-2 0v30l23 7q24 7 36 24t33 77l201 555h110l207 -557q21 -56 33.5 -75t34.5 -26l20 -5v-30h-352v30l28 7q37 10 37 41q0 20 -20 75l-21 60h-194l-20 -61q-16 -45 -16 -70q0 -20 9.5 -29t35.5 -16l26 -7v-30h-211zM268 495l-78 -235h162l-79 235h-5zM210 731l-28 15 q27 68 46.5 97t53.5 29q22 0 75 -12t75 -12q28 0 52 39l28 -15q-14 -37 -21 -53.5t-19.5 -37t-26.5 -28t-33 -7.5q-22 0 -75.5 12t-74.5 12q-16 0 -27 -8t-25 -31z" />
<glyph unicode="&#xc4;" d="M237 733q-35 0 -58.5 22.5t-23.5 57.5t24 57.5t58 22.5q36 0 60 -22.5t24 -57.5t-24 -57.5t-60 -22.5zM447 733q-36 0 -59.5 22t-23.5 58q0 35 23.5 57.5t59.5 22.5q34 0 58 -22.5t24 -57.5t-23.5 -57.5t-58.5 -22.5zM-2 0v30l23 7q24 7 36 24t33 77l201 555h110 l207 -557q21 -56 33.5 -75t34.5 -26l20 -5v-30h-352v30l28 7q37 10 37 41q0 20 -20 75l-21 60h-194l-20 -61q-16 -45 -16 -70q0 -20 9.5 -29t35.5 -16l26 -7v-30h-211zM268 495l-78 -235h162l-79 235h-5z" />
<glyph unicode="&#xc5;" d="M-2 0v30l23 7q24 7 36 24t33 77l201 555h110l207 -557q21 -56 33.5 -75t34.5 -26l20 -5v-30h-352v30l28 7q37 10 37 41q0 20 -20 75l-21 60h-194l-20 -61q-16 -45 -16 -70q0 -20 9.5 -29t35.5 -16l26 -7v-30h-211zM268 495l-78 -235h162l-79 235h-5zM342 720 q-46 0 -74 26.5t-28 67.5q0 42 29 68.5t73 26.5t73 -26.5t29 -68.5q0 -40 -29 -67t-73 -27zM342 756q24 0 38.5 16.5t14.5 41.5q0 26 -14.5 42.5t-38.5 16.5q-23 0 -38 -16.5t-15 -42.5q0 -25 14.5 -41.5t38.5 -16.5z" />
<glyph unicode="&#xc6;" horiz-adv-x="939" d="M-4 0v30l23 7q26 7 43 24.5t50 76.5l288 500q-11 10 -42 18l-33 7v30h564l9 -207h-31q-27 61 -58 109q-23 34 -45 42.5t-70 8.5q-46 0 -86 -8v-256h15q49 0 66.5 6.5t27.5 22.5q20 35 32 78h32v-264h-32q-13 46 -32 82q-9 19 -26 24.5t-69 5.5h-14v-195q0 -66 13.5 -80.5 t78.5 -14.5q56 0 77.5 11t47.5 52q24 35 64 135h33l-14 -245h-563v30l31 7q18 5 25.5 9.5t13 20t5.5 46.5v90h-207l-27 -50q-33 -56 -33 -81q-2 -24 34 -35l26 -7v-30h-217zM417 574l-179 -326h182v326h-3z" />
<glyph unicode="&#xc7;" horiz-adv-x="626" d="M234 -205v23q85 18 85 51q0 26 -49 28l-5 8l43 88q-130 18 -206.5 107.5t-76.5 240.5q0 93 30 164.5t82 114t117 64t140 21.5q109 0 191 -23l12 -209h-33q-46 90 -84 141q-20 27 -41.5 37.5t-55.5 10.5q-82 0 -115 -69t-33 -232q0 -130 16.5 -202.5t48 -100t86.5 -27.5 q38 0 61.5 12.5t47.5 44.5q42 60 78 145h32l-12 -205q-99 -40 -219 -40q-18 0 -26 1l-24 -34q43 -4 66 -20.5t23 -41.5q0 -83 -179 -98z" />
<glyph unicode="&#xc8;" horiz-adv-x="627" d="M15 0v30l31 7q26 6 33.5 18.5t7.5 57.5v467q0 45 -7.5 57.5t-33.5 18.5l-31 7v30h561l10 -207h-33q-32 70 -59 109q-23 34 -46 42.5t-76 8.5q-56 0 -86 -10v-254h22q49 0 66.5 6.5t27.5 22.5q20 35 32 78h32v-264h-32q-13 46 -32 82q-9 19 -26 24.5t-69 5.5h-21v-195 q0 -66 13.5 -80.5t81.5 -14.5q58 0 80 11t50 52q25 37 66 135h33l-14 -245h-581zM424 737l-182 40q-48 10 -48 58q0 26 16 45t41 19q28 0 56 -26l125 -118z" />
<glyph unicode="&#xc9;" horiz-adv-x="627" d="M233 737l-8 18l125 118q28 26 56 26q24 0 40.5 -19.5t16.5 -44.5q0 -48 -48 -58zM15 0v30l31 7q26 6 33.5 18.5t7.5 57.5v467q0 45 -7.5 57.5t-33.5 18.5l-31 7v30h561l10 -207h-33q-32 70 -59 109q-23 34 -46 42.5t-76 8.5q-56 0 -86 -10v-254h22q49 0 66.5 6.5 t27.5 22.5q20 35 32 78h32v-264h-32q-13 46 -32 82q-9 19 -26 24.5t-69 5.5h-21v-195q0 -66 13.5 -80.5t81.5 -14.5q58 0 80 11t50 52q25 37 66 135h33l-14 -245h-581z" />
<glyph unicode="&#xca;" horiz-adv-x="627" d="M192 730l-12 19l122 144h55l123 -144l-12 -19l-138 57zM15 0v30l31 7q26 6 33.5 18.5t7.5 57.5v467q0 45 -7.5 57.5t-33.5 18.5l-31 7v30h561l10 -207h-33q-32 70 -59 109q-23 34 -46 42.5t-76 8.5q-56 0 -86 -10v-254h22q49 0 66.5 6.5t27.5 22.5q20 35 32 78h32v-264 h-32q-13 46 -32 82q-9 19 -26 24.5t-69 5.5h-21v-195q0 -66 13.5 -80.5t81.5 -14.5q58 0 80 11t50 52q25 37 66 135h33l-14 -245h-581z" />
<glyph unicode="&#xcb;" horiz-adv-x="627" d="M218 733q-34 0 -58 22.5t-24 57.5t24 57.5t58 22.5q36 0 60 -22.5t24 -57.5t-24 -57.5t-60 -22.5zM428 733q-36 0 -59.5 22t-23.5 58q0 35 23.5 57.5t59.5 22.5q34 0 58 -22.5t24 -57.5t-24 -57.5t-58 -22.5zM15 0v30l31 7q26 6 33.5 18.5t7.5 57.5v467q0 45 -7.5 57.5 t-33.5 18.5l-31 7v30h561l10 -207h-33q-32 70 -59 109q-23 34 -46 42.5t-76 8.5q-56 0 -86 -10v-254h22q49 0 66.5 6.5t27.5 22.5q20 35 32 78h32v-264h-32q-13 46 -32 82q-9 19 -26 24.5t-69 5.5h-21v-195q0 -66 13.5 -80.5t81.5 -14.5q58 0 80 11t50 52q25 37 66 135h33 l-14 -245h-581z" />
<glyph unicode="&#xcc;" horiz-adv-x="380" d="M15 0v30l34 7q27 6 34.5 18.5t7.5 57.5v467q0 45 -7.5 57.5t-34.5 18.5l-34 7v30h351v-30l-35 -7q-26 -6 -33.5 -18t-7.5 -58v-467q0 -46 7.5 -58t33.5 -18l35 -7v-30h-351zM288 737l-182 40q-48 10 -48 58q0 26 16 45t41 19q28 0 56 -26l125 -118z" />
<glyph unicode="&#xcd;" horiz-adv-x="380" d="M15 0v30l34 7q27 6 34.5 18.5t7.5 57.5v467q0 45 -7.5 57.5t-34.5 18.5l-34 7v30h351v-30l-35 -7q-26 -6 -33.5 -18t-7.5 -58v-467q0 -46 7.5 -58t33.5 -18l35 -7v-30h-351zM91 737l-8 18l125 118q28 26 56 26q24 0 40.5 -19.5t16.5 -44.5q0 -48 -48 -58z" />
<glyph unicode="&#xce;" horiz-adv-x="380" d="M15 0v30l34 7q27 6 34.5 18.5t7.5 57.5v467q0 45 -7.5 57.5t-34.5 18.5l-34 7v30h351v-30l-35 -7q-26 -6 -33.5 -18t-7.5 -58v-467q0 -46 7.5 -58t33.5 -18l35 -7v-30h-351zM53 730l-12 19l122 144h55l123 -144l-12 -19l-138 57z" />
<glyph unicode="&#xcf;" horiz-adv-x="380" d="M15 0v30l34 7q27 6 34.5 18.5t7.5 57.5v467q0 45 -7.5 57.5t-34.5 18.5l-34 7v30h351v-30l-35 -7q-26 -6 -33.5 -18t-7.5 -58v-467q0 -46 7.5 -58t33.5 -18l35 -7v-30h-351zM86 733q-34 0 -58 22.5t-24 57.5t24 57.5t58 22.5q36 0 60 -22.5t24 -57.5t-24 -57.5t-60 -22.5 zM296 733q-36 0 -59.5 22t-23.5 58q0 35 23.5 57.5t59.5 22.5q34 0 58 -22.5t24 -57.5t-24 -57.5t-58 -22.5z" />
<glyph unicode="&#xd0;" horiz-adv-x="740" d="M26 325v44h61v211q0 45 -7.5 57.5t-33.5 18.5l-31 7v30h350q166 0 258 -82.5t92 -250.5q0 -169 -94.5 -264.5t-259.5 -95.5h-346v30l31 7q26 6 33.5 18.5t7.5 57.5v212h-61zM350 46q81 0 119 70t38 220q0 173 -38.5 242t-120.5 69q-42 0 -62 -9v-269h121v-44h-121v-188 q0 -57 12.5 -74t51.5 -17z" />
<glyph unicode="&#xd1;" horiz-adv-x="703" d="M539 -1l-393 570h-4v-440q0 -57 8 -71t41 -21l34 -7v-30h-210v30l29 7q19 5 26.5 10t12 22t4.5 54v457q0 45 -7.5 57.5t-33.5 18.5l-31 7v30h280l263 -380h4v251q0 56 -8 69.5t-41 21.5l-37 8v30h213v-30l-30 -7q-27 -7 -35 -20.5t-8 -65.5v-571h-77zM240 731l-28 15 q27 68 46.5 97t53.5 29q22 0 75 -12t75 -12q28 0 52 39l28 -15q-14 -37 -21 -53.5t-19.5 -37t-26.5 -28t-33 -7.5q-22 0 -75.5 12t-74.5 12q-16 0 -27 -8t-25 -31z" />
<glyph unicode="&#xd2;" horiz-adv-x="736" d="M365 -12q-67 0 -126.5 21t-108.5 62.5t-77.5 110.5t-28.5 156q0 95 31.5 168t83 115t111 63t122.5 21q67 0 126 -20t108 -60t77.5 -110t28.5 -161q0 -77 -21 -140t-55 -104t-80 -69.5t-93.5 -40.5t-97.5 -12zM370 31q72 0 103 63.5t31 237.5q0 185 -31 257.5t-106 72.5 q-47 0 -75 -24.5t-44 -92t-16 -185.5q0 -185 31 -257t107 -72zM472 737l-182 40q-48 10 -48 58q0 26 16 45t41 19q28 0 56 -26l125 -118z" />
<glyph unicode="&#xd3;" horiz-adv-x="736" d="M272 737l-8 18l125 118q28 26 56 26q24 0 40.5 -19.5t16.5 -44.5q0 -48 -48 -58zM365 -12q-67 0 -126.5 21t-108.5 62.5t-77.5 110.5t-28.5 156q0 95 31.5 168t83 115t111 63t122.5 21q67 0 126 -20t108 -60t77.5 -110t28.5 -161q0 -77 -21 -140t-55 -104t-80 -69.5 t-93.5 -40.5t-97.5 -12zM370 31q72 0 103 63.5t31 237.5q0 185 -31 257.5t-106 72.5q-47 0 -75 -24.5t-44 -92t-16 -185.5q0 -185 31 -257t107 -72z" />
<glyph unicode="&#xd4;" horiz-adv-x="736" d="M231 730l-12 19l122 144h55l123 -144l-12 -19l-138 57zM365 -12q-67 0 -126.5 21t-108.5 62.5t-77.5 110.5t-28.5 156q0 95 31.5 168t83 115t111 63t122.5 21q67 0 126 -20t108 -60t77.5 -110t28.5 -161q0 -77 -21 -140t-55 -104t-80 -69.5t-93.5 -40.5t-97.5 -12z M370 31q72 0 103 63.5t31 237.5q0 185 -31 257.5t-106 72.5q-47 0 -75 -24.5t-44 -92t-16 -185.5q0 -185 31 -257t107 -72z" />
<glyph unicode="&#xd5;" horiz-adv-x="736" d="M365 -12q-67 0 -126.5 21t-108.5 62.5t-77.5 110.5t-28.5 156q0 95 31.5 168t83 115t111 63t122.5 21q67 0 126 -20t108 -60t77.5 -110t28.5 -161q0 -77 -21 -140t-55 -104t-80 -69.5t-93.5 -40.5t-97.5 -12zM370 31q72 0 103 63.5t31 237.5q0 185 -31 257.5t-106 72.5 q-47 0 -75 -24.5t-44 -92t-16 -185.5q0 -185 31 -257t107 -72zM233 731l-28 15q27 68 46.5 97t53.5 29q22 0 75 -12t75 -12q28 0 52 39l28 -15q-14 -37 -21 -53.5t-19.5 -37t-26.5 -28t-33 -7.5q-22 0 -75.5 12t-74.5 12q-16 0 -27 -8t-25 -31z" />
<glyph unicode="&#xd6;" horiz-adv-x="736" d="M261 733q-35 0 -58.5 22.5t-23.5 57.5t24 57.5t58 22.5q36 0 60 -22.5t24 -57.5t-24 -57.5t-60 -22.5zM471 733q-36 0 -59.5 22t-23.5 58q0 35 23.5 57.5t59.5 22.5q34 0 58 -22.5t24 -57.5t-23.5 -57.5t-58.5 -22.5zM365 -12q-67 0 -126.5 21t-108.5 62.5t-77.5 110.5 t-28.5 156q0 95 31.5 168t83 115t111 63t122.5 21q67 0 126 -20t108 -60t77.5 -110t28.5 -161q0 -77 -21 -140t-55 -104t-80 -69.5t-93.5 -40.5t-97.5 -12zM370 31q72 0 103 63.5t31 237.5q0 185 -31 257.5t-106 72.5q-47 0 -75 -24.5t-44 -92t-16 -185.5q0 -185 31 -257 t107 -72z" />
<glyph unicode="&#xd7;" horiz-adv-x="442" d="M83 151l-44 41l142 151l-137 145l44 42l134 -143l136 143l43 -42l-137 -145l143 -151l-44 -41l-141 148z" />
<glyph unicode="&#xd8;" horiz-adv-x="736" d="M70 -64l80 121q-126 96 -126 281q0 95 31.5 168t83 115t111 63t122.5 21q100 0 179 -44l46 69h54l-62 -93q123 -94 123 -283q0 -77 -21 -140t-55 -104t-80 -69.5t-93.5 -40.5t-97.5 -12q-97 0 -177 44l-64 -96h-54zM231 360q0 -109 8 -169l246 370q-16 55 -44.5 78 t-73.5 23q-47 0 -75 -24.5t-44.5 -92t-16.5 -185.5zM370 31q48 0 76.5 24.5t44 91.5t15.5 185q0 100 -9 166l-245 -369q15 -53 43.5 -75.5t74.5 -22.5z" />
<glyph unicode="&#xd9;" horiz-adv-x="709" d="M380 -12q-297 0 -297 234v358q0 45 -7.5 57.5t-33.5 18.5l-32 7v30h344v-30l-31 -7q-27 -7 -34 -18.5t-7 -57.5v-381q0 -75 34.5 -108.5t115.5 -33.5q141 0 141 157v350q0 57 -8 70t-41 21l-37 8v30h212v-30l-30 -7q-26 -7 -33.5 -20.5t-7.5 -65.5v-363q0 -97 -63 -158 t-185 -61zM490 737l-182 40q-48 10 -48 58q0 26 16 45t41 19q28 0 56 -26l125 -118z" />
<glyph unicode="&#xda;" horiz-adv-x="709" d="M319 737l-8 18l125 118q28 26 56 26q24 0 40.5 -19.5t16.5 -44.5q0 -48 -48 -58zM380 -12q-297 0 -297 234v358q0 45 -7.5 57.5t-33.5 18.5l-32 7v30h344v-30l-31 -7q-27 -7 -34 -18.5t-7 -57.5v-381q0 -75 34.5 -108.5t115.5 -33.5q141 0 141 157v350q0 57 -8 70t-41 21 l-37 8v30h212v-30l-30 -7q-26 -7 -33.5 -20.5t-7.5 -65.5v-363q0 -97 -63 -158t-185 -61z" />
<glyph unicode="&#xdb;" horiz-adv-x="709" d="M269 730l-12 19l122 144h55l123 -144l-12 -19l-138 57zM380 -12q-297 0 -297 234v358q0 45 -7.5 57.5t-33.5 18.5l-32 7v30h344v-30l-31 -7q-27 -7 -34 -18.5t-7 -57.5v-381q0 -75 34.5 -108.5t115.5 -33.5q141 0 141 157v350q0 57 -8 70t-41 21l-37 8v30h212v-30l-30 -7 q-26 -7 -33.5 -20.5t-7.5 -65.5v-363q0 -97 -63 -158t-185 -61z" />
<glyph unicode="&#xdc;" horiz-adv-x="709" d="M294 733q-34 0 -58 22.5t-24 57.5t24 57.5t58 22.5q36 0 60 -22.5t24 -57.5t-24 -57.5t-60 -22.5zM504 733q-36 0 -59.5 22t-23.5 58q0 35 23.5 57.5t59.5 22.5q34 0 58 -22.5t24 -57.5t-23.5 -57.5t-58.5 -22.5zM380 -12q-297 0 -297 234v358q0 45 -7.5 57.5t-33.5 18.5 l-32 7v30h344v-30l-31 -7q-27 -7 -34 -18.5t-7 -57.5v-381q0 -75 34.5 -108.5t115.5 -33.5q141 0 141 157v350q0 57 -8 70t-41 21l-37 8v30h212v-30l-30 -7q-26 -7 -33.5 -20.5t-7.5 -65.5v-363q0 -97 -63 -158t-185 -61z" />
<glyph unicode="&#xdd;" horiz-adv-x="658" d="M163 0v30l34 7q30 7 37 18.5t7 57.5v173l-154 286q-25 47 -38 62.5t-34 22.5l-19 6v30h361v-30l-29 -7q-38 -8 -38 -41q0 -19 18 -58l98 -205h5l87 196q17 39 17 66q0 31 -41 42l-27 7v30h215v-30l-20 -6q-21 -7 -37.5 -28.5t-37.5 -66.5l-127 -271v-178q0 -47 7 -58 t37 -18l34 -7v-30h-355zM273 737l-8 18l125 118q28 26 56 26q24 0 40.5 -19.5t16.5 -44.5q0 -48 -48 -58z" />
<glyph unicode="&#xde;" horiz-adv-x="661" d="M15 0v30l31 7q26 6 33.5 18.5t7.5 57.5v467q0 45 -7.5 57.5t-33.5 18.5l-31 7v30h347v-30l-34 -7q-27 -6 -34.5 -18.5t-7.5 -57.5v-26h69q288 0 288 -198q0 -89 -65 -147.5t-184 -58.5q-46 0 -79 12v31q72 -1 99.5 32t27.5 125t-24 127t-74 35q-34 0 -58 -8v-391 q0 -44 8.5 -56t35.5 -17l52 -10v-30h-367z" />
<glyph unicode="&#xdf;" horiz-adv-x="676" d="M459 -10q-160 0 -160 87q0 29 16.5 45.5t46.5 16.5q33 0 48 -18t18 -53q2 -21 10.5 -28.5t32.5 -7.5q28 0 46 15t18 42q0 29 -22.5 51t-90.5 67q-61 40 -82 70.5t-21 64.5t27.5 80.5t55 97t27.5 93.5q0 107 -87 107q-47 0 -72 -29.5t-25 -103.5v-501q0 -34 3 -42t18 -11 l17 -4v-29h-274v29l23 6q27 8 33 16.5t6 42.5v364h-70v26l70 38v11q0 110 78 169.5t201 59.5q106 0 165.5 -37.5t59.5 -94.5q0 -32 -16.5 -60t-40.5 -47t-47.5 -34.5t-40 -30t-16.5 -25.5q0 -14 19 -27.5t101 -61.5q67 -38 97.5 -79.5t30.5 -95.5q0 -81 -54.5 -130 t-148.5 -49z" />
<glyph unicode="&#xe0;" horiz-adv-x="542" d="M166 -12q-71 0 -110.5 34.5t-39.5 97.5q0 64 45.5 99.5t142.5 59.5l92 23v84q0 63 -14.5 85t-52.5 22q-21 0 -28.5 -7t-9.5 -28q-4 -51 -23 -72t-60 -21q-34 0 -53 17t-19 48q0 50 59 77.5t171 27.5q204 0 204 -139v-270q0 -30 4.5 -43.5t18.5 -20.5q12 -7 46 -10v-27 q-49 -37 -124 -37q-90 0 -109 62h-5q-50 -62 -135 -62zM248 64q35 0 48 25v160l-39 -3q-38 -3 -54.5 -24.5t-16.5 -72.5q0 -85 62 -85zM374 577l-182 40q-48 10 -48 58q0 26 16 45t41 19q28 0 56 -26l125 -118z" />
<glyph unicode="&#xe1;" horiz-adv-x="542" d="M166 -12q-71 0 -110.5 34.5t-39.5 97.5q0 64 45.5 99.5t142.5 59.5l92 23v84q0 63 -14.5 85t-52.5 22q-21 0 -28.5 -7t-9.5 -28q-4 -51 -23 -72t-60 -21q-34 0 -53 17t-19 48q0 50 59 77.5t171 27.5q204 0 204 -139v-270q0 -30 4.5 -43.5t18.5 -20.5q12 -7 46 -10v-27 q-49 -37 -124 -37q-90 0 -109 62h-5q-50 -62 -135 -62zM248 64q35 0 48 25v160l-39 -3q-38 -3 -54.5 -24.5t-16.5 -72.5q0 -85 62 -85zM167 577l-8 18l125 118q28 26 56 26q24 0 40.5 -19.5t16.5 -44.5q0 -48 -48 -58z" />
<glyph unicode="&#xe2;" horiz-adv-x="542" d="M166 -12q-71 0 -110.5 34.5t-39.5 97.5q0 64 45.5 99.5t142.5 59.5l92 23v84q0 63 -14.5 85t-52.5 22q-21 0 -28.5 -7t-9.5 -28q-4 -51 -23 -72t-60 -21q-34 0 -53 17t-19 48q0 50 59 77.5t171 27.5q204 0 204 -139v-270q0 -30 4.5 -43.5t18.5 -20.5q12 -7 46 -10v-27 q-49 -37 -124 -37q-90 0 -109 62h-5q-50 -62 -135 -62zM248 64q35 0 48 25v160l-39 -3q-38 -3 -54.5 -24.5t-16.5 -72.5q0 -85 62 -85zM127 570l-12 19l122 144h55l123 -144l-12 -19l-138 57z" />
<glyph unicode="&#xe3;" horiz-adv-x="542" d="M166 -12q-71 0 -110.5 34.5t-39.5 97.5q0 64 45.5 99.5t142.5 59.5l92 23v84q0 63 -14.5 85t-52.5 22q-21 0 -28.5 -7t-9.5 -28q-4 -51 -23 -72t-60 -21q-34 0 -53 17t-19 48q0 50 59 77.5t171 27.5q204 0 204 -139v-270q0 -30 4.5 -43.5t18.5 -20.5q12 -7 46 -10v-27 q-49 -37 -124 -37q-90 0 -109 62h-5q-50 -62 -135 -62zM248 64q35 0 48 25v160l-39 -3q-38 -3 -54.5 -24.5t-16.5 -72.5q0 -85 62 -85zM130 571l-28 15q27 68 46.5 97t53.5 29q22 0 75 -12t75 -12q28 0 52 39l28 -15q-14 -37 -21 -53.5t-19.5 -37t-26.5 -28t-33 -7.5 q-22 0 -75.5 12t-74.5 12q-16 0 -27 -8t-25 -31z" />
<glyph unicode="&#xe4;" horiz-adv-x="542" d="M166 -12q-71 0 -110.5 34.5t-39.5 97.5q0 64 45.5 99.5t142.5 59.5l92 23v84q0 63 -14.5 85t-52.5 22q-21 0 -28.5 -7t-9.5 -28q-4 -51 -23 -72t-60 -21q-34 0 -53 17t-19 48q0 50 59 77.5t171 27.5q204 0 204 -139v-270q0 -30 4.5 -43.5t18.5 -20.5q12 -7 46 -10v-27 q-49 -37 -124 -37q-90 0 -109 62h-5q-50 -62 -135 -62zM248 64q35 0 48 25v160l-39 -3q-38 -3 -54.5 -24.5t-16.5 -72.5q0 -85 62 -85zM156 573q-35 0 -58.5 22.5t-23.5 57.5t24 57.5t58 22.5q36 0 60 -22.5t24 -57.5t-24 -57.5t-60 -22.5zM366 573q-36 0 -59.5 22t-23.5 58 q0 35 23.5 57.5t59.5 22.5q34 0 58 -22.5t24 -57.5t-24 -57.5t-58 -22.5z" />
<glyph unicode="&#xe5;" horiz-adv-x="542" d="M166 -12q-71 0 -110.5 34.5t-39.5 97.5q0 64 45.5 99.5t142.5 59.5l92 23v84q0 63 -14.5 85t-52.5 22q-21 0 -28.5 -7t-9.5 -28q-4 -51 -23 -72t-60 -21q-34 0 -53 17t-19 48q0 50 59 77.5t171 27.5q204 0 204 -139v-270q0 -30 4.5 -43.5t18.5 -20.5q12 -7 46 -10v-27 q-49 -37 -124 -37q-90 0 -109 62h-5q-50 -62 -135 -62zM248 64q35 0 48 25v160l-39 -3q-38 -3 -54.5 -24.5t-16.5 -72.5q0 -85 62 -85zM257 566q-46 0 -74 26.5t-28 67.5q0 42 29 68.5t73 26.5t73 -26.5t29 -68.5q0 -40 -29 -67t-73 -27zM257 602q24 0 38.5 16.5t14.5 41.5 q0 26 -14.5 42.5t-38.5 16.5q-23 0 -38 -16.5t-15 -42.5q0 -25 14.5 -41.5t38.5 -16.5z" />
<glyph unicode="&#xe6;" horiz-adv-x="792" d="M551 -12q-136 0 -201 78q-67 -78 -177 -78q-76 0 -116.5 33.5t-40.5 96.5q0 64 44.5 98.5t143.5 58.5l90 22v89q0 60 -14 83.5t-51 23.5q-21 0 -29 -7t-9 -28q-4 -51 -23 -72t-61 -21q-71 0 -71 67q0 48 57.5 75.5t158.5 27.5q107 0 153 -62q64 62 150 62 q104 0 162.5 -63.5t58.5 -196.5h-319q5 -109 47.5 -152t116.5 -43q71 0 139 37v-34q-33 -38 -87 -66.5t-122 -28.5zM543 495q-83 0 -86 -181l155 10q0 94 -14.5 132.5t-54.5 38.5zM248 64q49 0 69 59q-22 52 -23 121l-37 -3q-38 -2 -54.5 -22.5t-16.5 -71.5q0 -83 62 -83z " />
<glyph unicode="&#xe7;" horiz-adv-x="503" d="M158 -205v23q85 18 85 51q0 26 -49 28l-5 8l42 86q-103 12 -158.5 83t-55.5 186q0 75 27.5 130.5t73.5 85.5t98 44.5t110 14.5q77 0 120.5 -24.5t43.5 -71.5q0 -32 -20 -52.5t-53 -20.5q-69 0 -77 84q-3 27 -10 34.5t-32 7.5q-108 0 -108 -187q0 -113 36.5 -169 t118.5 -56q69 0 141 36v-33q-26 -36 -82 -65.5t-132 -29.5h-1l-23 -33q43 -4 66 -20.5t23 -41.5q0 -83 -179 -98z" />
<glyph unicode="&#xe8;" horiz-adv-x="532" d="M282 -12q-130 0 -197.5 71.5t-67.5 202.5q0 126 79.5 199.5t185.5 73.5q111 0 171 -59.5t63 -190.5h-329q3 -116 43.5 -160.5t123.5 -44.5q75 0 145 37v-34q-33 -38 -90 -66.5t-127 -28.5zM273 495q-81 0 -86 -171l158 9q0 92 -15 127t-57 35zM382 577l-182 40 q-48 10 -48 58q0 26 16 45t41 19q28 0 56 -26l125 -118z" />
<glyph unicode="&#xe9;" horiz-adv-x="532" d="M178 577l-8 18l125 118q28 26 56 26q24 0 40.5 -19.5t16.5 -44.5q0 -48 -48 -58zM282 -12q-130 0 -197.5 71.5t-67.5 202.5q0 126 79.5 199.5t185.5 73.5q111 0 171 -59.5t63 -190.5h-329q3 -116 43.5 -160.5t123.5 -44.5q75 0 145 37v-34q-33 -38 -90 -66.5t-127 -28.5z M273 495q-81 0 -86 -171l158 9q0 92 -15 127t-57 35z" />
<glyph unicode="&#xea;" horiz-adv-x="532" d="M142 570l-12 19l122 144h55l123 -144l-12 -19l-138 57zM282 -12q-130 0 -197.5 71.5t-67.5 202.5q0 126 79.5 199.5t185.5 73.5q111 0 171 -59.5t63 -190.5h-329q3 -116 43.5 -160.5t123.5 -44.5q75 0 145 37v-34q-33 -38 -90 -66.5t-127 -28.5zM273 495q-81 0 -86 -171 l158 9q0 92 -15 127t-57 35z" />
<glyph unicode="&#xeb;" horiz-adv-x="532" d="M174 573q-34 0 -58 22.5t-24 57.5t24 57.5t58 22.5q36 0 60 -22.5t24 -57.5t-24 -57.5t-60 -22.5zM384 573q-36 0 -59.5 22t-23.5 58q0 35 23.5 57.5t59.5 22.5q34 0 58 -22.5t24 -57.5t-24 -57.5t-58 -22.5zM282 -12q-130 0 -197.5 71.5t-67.5 202.5q0 126 79.5 199.5 t185.5 73.5q111 0 171 -59.5t63 -190.5h-329q3 -116 43.5 -160.5t123.5 -44.5q75 0 145 37v-34q-33 -38 -90 -66.5t-127 -28.5zM273 495q-81 0 -86 -171l158 9q0 92 -15 127t-57 35z" />
<glyph unicode="&#xec;" horiz-adv-x="314" d="M9 0v30l23 6q26 7 32.5 15.5t6.5 37.5v314q0 28 -5.5 38t-27.5 26l-33 23v21l232 24l12 -8q-4 -60 -4 -119v-319q0 -30 6 -38t33 -15l23 -6v-30h-298zM258 577l-182 40q-48 10 -48 58q0 26 16 45t41 19q28 0 56 -26l125 -118z" />
<glyph unicode="&#xed;" horiz-adv-x="314" d="M51 577l-8 18l125 118q28 26 56 26q24 0 40.5 -19.5t16.5 -44.5q0 -48 -48 -58zM9 0v30l23 6q26 7 32.5 15.5t6.5 37.5v314q0 28 -5.5 38t-27.5 26l-33 23v21l232 24l12 -8q-4 -60 -4 -119v-319q0 -30 6 -38t33 -15l23 -6v-30h-298z" />
<glyph unicode="&#xee;" horiz-adv-x="314" d="M18 570l-12 19l122 144h55l123 -144l-12 -19l-138 57zM9 0v30l23 6q26 7 32.5 15.5t6.5 37.5v314q0 28 -5.5 38t-27.5 26l-33 23v21l232 24l12 -8q-4 -60 -4 -119v-319q0 -30 6 -38t33 -15l23 -6v-30h-298z" />
<glyph unicode="&#xef;" horiz-adv-x="314" d="M54 573q-34 0 -58 22.5t-24 57.5t24 57.5t58 22.5q36 0 60 -22.5t24 -57.5t-24 -57.5t-60 -22.5zM264 573q-36 0 -59.5 22t-23.5 58q0 35 23.5 57.5t59.5 22.5q34 0 58 -22.5t24 -57.5t-24 -57.5t-58 -22.5zM9 0v30l23 6q26 7 32.5 15.5t6.5 37.5v314q0 28 -5.5 38 t-27.5 26l-33 23v21l232 24l12 -8q-4 -60 -4 -119v-319q0 -30 6 -38t33 -15l23 -6v-30h-298z" />
<glyph unicode="&#xf0;" horiz-adv-x="589" d="M166 571l-19 39l102 48q-51 43 -122 78l11 30q109 -27 191 -71l116 54l18 -39l-89 -42q198 -132 198 -365q0 -87 -23.5 -150.5t-64.5 -98t-88.5 -50.5t-102.5 -16q-118 0 -197 68t-79 199q0 56 16.5 103t43 77t61.5 51t70 30t69 9q54 0 86 -24q-31 72 -80 125zM294 30 q31 0 49.5 12.5t32 63t13.5 144.5q0 100 -13 152.5t-32 66.5t-53 14q-47 0 -70 -44.5t-23 -166.5q0 -102 11.5 -156t30.5 -70t54 -16z" />
<glyph unicode="&#xf1;" horiz-adv-x="637" d="M9 0v29l23 6q27 8 33 16.5t6 42.5v305q0 31 -5 41.5t-28 26.5l-33 23v21l224 24l12 -8l-2 -65h4q99 73 193 73q63 0 97 -34t34 -100v-307q0 -34 6 -43t33 -16l23 -6v-29h-291v29l21 5q24 7 29 15.5t5 44.5v264q0 43 -15.5 60t-49.5 17q-33 0 -83 -10v-331q0 -37 5 -45 t29 -15l21 -5v-29h-291zM187 571l-28 15q27 68 46.5 97t53.5 29q22 0 75 -12t75 -12q28 0 52 39l28 -15q-14 -37 -21 -53.5t-19.5 -37t-26.5 -28t-33 -7.5q-22 0 -75.5 12t-74.5 12q-16 0 -27 -8t-25 -31z" />
<glyph unicode="&#xf2;" horiz-adv-x="587" d="M294 -12q-118 0 -197.5 70.5t-79.5 201.5q0 71 23.5 125.5t63.5 86t88 47.5t102 16q117 0 196.5 -70t79.5 -201q0 -71 -23 -125.5t-62.5 -86.5t-88 -48t-102.5 -16zM296 30q23 0 38 7.5t28.5 30t20 69t6.5 118.5q0 76 -6.5 124.5t-20 72.5t-30 32.5t-41.5 8.5 q-47 0 -70 -46t-23 -170q0 -103 11 -157.5t31 -72t56 -17.5zM389 577l-182 40q-48 10 -48 58q0 26 16 45t41 19q28 0 56 -26l125 -118z" />
<glyph unicode="&#xf3;" horiz-adv-x="587" d="M193 577l-8 18l125 118q28 26 56 26q24 0 40.5 -19.5t16.5 -44.5q0 -48 -48 -58zM294 -12q-118 0 -197.5 70.5t-79.5 201.5q0 71 23.5 125.5t63.5 86t88 47.5t102 16q117 0 196.5 -70t79.5 -201q0 -71 -23 -125.5t-62.5 -86.5t-88 -48t-102.5 -16zM296 30q23 0 38 7.5 t28.5 30t20 69t6.5 118.5q0 76 -6.5 124.5t-20 72.5t-30 32.5t-41.5 8.5q-47 0 -70 -46t-23 -170q0 -103 11 -157.5t31 -72t56 -17.5z" />
<glyph unicode="&#xf4;" horiz-adv-x="587" d="M154 570l-12 19l122 144h55l123 -144l-12 -19l-138 57zM294 -12q-118 0 -197.5 70.5t-79.5 201.5q0 71 23.5 125.5t63.5 86t88 47.5t102 16q117 0 196.5 -70t79.5 -201q0 -71 -23 -125.5t-62.5 -86.5t-88 -48t-102.5 -16zM296 30q23 0 38 7.5t28.5 30t20 69t6.5 118.5 q0 76 -6.5 124.5t-20 72.5t-30 32.5t-41.5 8.5q-47 0 -70 -46t-23 -170q0 -103 11 -157.5t31 -72t56 -17.5z" />
<glyph unicode="&#xf5;" horiz-adv-x="587" d="M294 -12q-118 0 -197.5 70.5t-79.5 201.5q0 71 23.5 125.5t63.5 86t88 47.5t102 16q117 0 196.5 -70t79.5 -201q0 -71 -23 -125.5t-62.5 -86.5t-88 -48t-102.5 -16zM296 30q23 0 38 7.5t28.5 30t20 69t6.5 118.5q0 76 -6.5 124.5t-20 72.5t-30 32.5t-41.5 8.5 q-47 0 -70 -46t-23 -170q0 -103 11 -157.5t31 -72t56 -17.5zM157 571l-28 15q27 68 46.5 97t53.5 29q22 0 75 -12t75 -12q28 0 52 39l28 -15q-14 -37 -21 -53.5t-19.5 -37t-26.5 -28t-33 -7.5q-22 0 -75.5 12t-74.5 12q-16 0 -27 -8t-25 -31z" />
<glyph unicode="&#xf6;" horiz-adv-x="587" d="M187 573q-35 0 -58.5 22.5t-23.5 57.5t24 57.5t58 22.5q36 0 60 -22.5t24 -57.5t-24 -57.5t-60 -22.5zM397 573q-36 0 -59.5 22t-23.5 58q0 35 23.5 57.5t59.5 22.5q34 0 58 -22.5t24 -57.5t-23.5 -57.5t-58.5 -22.5zM294 -12q-118 0 -197.5 70.5t-79.5 201.5 q0 71 23.5 125.5t63.5 86t88 47.5t102 16q117 0 196.5 -70t79.5 -201q0 -71 -23 -125.5t-62.5 -86.5t-88 -48t-102.5 -16zM296 30q23 0 38 7.5t28.5 30t20 69t6.5 118.5q0 76 -6.5 124.5t-20 72.5t-30 32.5t-41.5 8.5q-47 0 -70 -46t-23 -170q0 -103 11 -157.5t31 -72 t56 -17.5z" />
<glyph unicode="&#xf7;" horiz-adv-x="480" d="M241 119q-32 0 -54.5 22.5t-22.5 54.5q0 33 22.5 55t54.5 22q31 0 54 -22.5t23 -54.5q0 -31 -23 -54t-54 -23zM241 431q-32 0 -54.5 22.5t-22.5 53.5q0 33 22.5 55t54.5 22q31 0 54 -22.5t23 -54.5q0 -31 -23 -53.5t-54 -22.5zM37 322v59h405v-59h-405z" />
<glyph unicode="&#xf8;" horiz-adv-x="587" d="M44 -64l73 105q-100 74 -100 219q0 71 23.5 125.5t63.5 86t88 47.5t102 16q78 0 143 -33l58 84h51l-74 -107q98 -73 98 -215q0 -71 -23 -125.5t-62.5 -86.5t-88 -48t-102.5 -16q-76 0 -141 31l-58 -83h-51zM192 243q0 -39 4 -87l186 267q-12 42 -33.5 56t-57.5 14 q-48 0 -74 -55.5t-25 -194.5zM296 30q31 0 52 19t34.5 78t12.5 160q0 34 -4 76l-185 -267q11 -39 32 -52.5t58 -13.5z" />
<glyph unicode="&#xf9;" horiz-adv-x="635" d="M201 -12q-61 0 -96 34t-35 99v282q0 32 -4.5 42t-27.5 25l-34 20v22l228 23l12 -9v-361q0 -44 15.5 -62t48.5 -18t84 17v301q0 32 -5 42.5t-27 24.5l-34 20v22l228 23l12 -9v-402q0 -38 5 -48t28 -20l27 -11v-26l-218 -31l-12 8l2 69h-5q-102 -77 -192 -77zM418 577 l-182 40q-48 10 -48 58q0 26 16 45t41 19q28 0 56 -26l125 -118z" />
<glyph unicode="&#xfa;" horiz-adv-x="635" d="M214 577l-8 18l125 118q28 26 56 26q24 0 40.5 -19.5t16.5 -44.5q0 -48 -48 -58zM201 -12q-61 0 -96 34t-35 99v282q0 32 -4.5 42t-27.5 25l-34 20v22l228 23l12 -9v-361q0 -44 15.5 -62t48.5 -18t84 17v301q0 32 -5 42.5t-27 24.5l-34 20v22l228 23l12 -9v-402 q0 -38 5 -48t28 -20l27 -11v-26l-218 -31l-12 8l2 69h-5q-102 -77 -192 -77z" />
<glyph unicode="&#xfb;" horiz-adv-x="635" d="M175 570l-12 19l122 144h55l123 -144l-12 -19l-138 57zM201 -12q-61 0 -96 34t-35 99v282q0 32 -4.5 42t-27.5 25l-34 20v22l228 23l12 -9v-361q0 -44 15.5 -62t48.5 -18t84 17v301q0 32 -5 42.5t-27 24.5l-34 20v22l228 23l12 -9v-402q0 -38 5 -48t28 -20l27 -11v-26 l-218 -31l-12 8l2 69h-5q-102 -77 -192 -77z" />
<glyph unicode="&#xfc;" horiz-adv-x="635" d="M203 573q-35 0 -58.5 22.5t-23.5 57.5t24 57.5t58 22.5q36 0 60 -22.5t24 -57.5t-24 -57.5t-60 -22.5zM413 573q-36 0 -59.5 22t-23.5 58q0 35 23.5 57.5t59.5 22.5q34 0 58 -22.5t24 -57.5t-23.5 -57.5t-58.5 -22.5zM201 -12q-61 0 -96 34t-35 99v282q0 32 -4.5 42 t-27.5 25l-34 20v22l228 23l12 -9v-361q0 -44 15.5 -62t48.5 -18t84 17v301q0 32 -5 42.5t-27 24.5l-34 20v22l228 23l12 -9v-402q0 -38 5 -48t28 -20l27 -11v-26l-218 -31l-12 8l2 69h-5q-102 -77 -192 -77z" />
<glyph unicode="&#xfd;" horiz-adv-x="570" d="M128 -208q-47 0 -77 21t-30 56q0 28 17.5 44.5t47.5 16.5q31 0 46.5 -12t23.5 -41q5 -20 19 -20q17 0 34.5 22t42.5 79l10 24l-191 423q-23 50 -33 63.5t-25 18.5l-17 6v29h311v-29l-27 -7q-32 -8 -32 -41q0 -22 14 -56l85 -209h4l79 209q14 37 14 60q0 28 -33 37l-28 7 v29h192v-29l-22 -7q-18 -6 -28 -22t-32 -69l-190 -449q-35 -81 -71 -117.5t-104 -36.5zM238 577l-8 18l125 118q28 26 56 26q24 0 40.5 -19.5t16.5 -44.5q0 -48 -48 -58z" />
<glyph unicode="&#xfe;" horiz-adv-x="624" d="M4 -207v29l24 6q27 7 32.5 16t5.5 43v735q0 39 -5 49.5t-26 21.5l-36 18v25l233 21l12 -9q-4 -48 -4 -117v-68l-2 -97h4q81 69 166 69q80 0 137.5 -60.5t57.5 -185.5q0 -152 -79 -226.5t-211 -74.5q-43 0 -74 9q1 -24 1 -60v-50q0 -35 6 -44t31 -14l31 -7v-29h-304z M315 30q58 0 84 45t26 176q0 103 -27.5 146.5t-83.5 43.5q-29 0 -74 -15v-361q29 -35 75 -35z" />
<glyph unicode="&#xff;" horiz-adv-x="570" d="M128 -208q-47 0 -77 21t-30 56q0 28 17.5 44.5t47.5 16.5q31 0 46.5 -12t23.5 -41q5 -20 19 -20q17 0 34.5 22t42.5 79l10 24l-191 423q-23 50 -33 63.5t-25 18.5l-17 6v29h311v-29l-27 -7q-32 -8 -32 -41q0 -22 14 -56l85 -209h4l79 209q14 37 14 60q0 28 -33 37l-28 7 v29h192v-29l-22 -7q-18 -6 -28 -22t-32 -69l-190 -449q-35 -81 -71 -117.5t-104 -36.5zM221 573q-35 0 -58.5 22.5t-23.5 57.5t24 57.5t58 22.5q36 0 60 -22.5t24 -57.5t-24 -57.5t-60 -22.5zM431 573q-36 0 -59.5 22t-23.5 58q0 35 23.5 57.5t59.5 22.5q34 0 58 -22.5 t24 -57.5t-23.5 -57.5t-58.5 -22.5z" />
<glyph unicode="&#x152;" horiz-adv-x="1010" d="M385 0q-75 0 -137.5 18t-114 56.5t-80.5 105.5t-29 158t30.5 160.5t82.5 111t116.5 62.5t138.5 21h567l10 -207h-33q-32 70 -59 109q-23 34 -46 42.5t-76 8.5q-56 0 -86 -10v-254h22q49 0 66.5 6.5t27.5 22.5q20 35 32 78h32v-264h-32q-13 46 -32 82q-9 19 -26 24.5 t-69 5.5h-21v-195q0 -66 13.5 -80.5t81.5 -14.5q58 0 80 11t50 52q25 37 66 135h33l-14 -245h-594zM388 41q48 0 65 18.5t17 66.5v437q0 49 -18.5 69t-70.5 20q-83 0 -116 -62t-33 -229q0 -188 32.5 -254t123.5 -66z" />
<glyph unicode="&#x153;" horiz-adv-x="896" d="M288 -12q-114 0 -192.5 70.5t-78.5 201.5q0 71 23.5 125.5t63.5 86t88.5 47.5t102.5 16q110 0 182 -80q72 80 177 80q220 0 226 -250h-327q3 -117 43 -161t122 -44q74 0 146 37v-34q-34 -38 -91 -66.5t-127 -28.5q-118 0 -178 73q-73 -73 -180 -73zM295 30q23 0 37.5 7.5 t28 30t19.5 69t6 118.5q0 101 -12 154t-31 68.5t-53 15.5q-47 0 -69.5 -46t-22.5 -170q0 -104 11 -158t30.5 -71.5t55.5 -17.5zM638 495q-80 0 -85 -171l156 9q0 92 -15 127t-56 35z" />
<glyph unicode="&#x178;" horiz-adv-x="658" d="M163 0v30l34 7q30 7 37 18.5t7 57.5v173l-154 286q-25 47 -38 62.5t-34 22.5l-19 6v30h361v-30l-29 -7q-38 -8 -38 -41q0 -19 18 -58l98 -205h5l87 196q17 39 17 66q0 31 -41 42l-27 7v30h215v-30l-20 -6q-21 -7 -37.5 -28.5t-37.5 -66.5l-127 -271v-178q0 -47 7 -58 t37 -18l34 -7v-30h-355zM267 733q-35 0 -58.5 22.5t-23.5 57.5t24 57.5t58 22.5q36 0 60 -22.5t24 -57.5t-24 -57.5t-60 -22.5zM477 733q-36 0 -59.5 22t-23.5 58q0 35 23.5 57.5t59.5 22.5q34 0 58 -22.5t24 -57.5t-24 -57.5t-58 -22.5z" />
<glyph unicode="&#x2c6;" horiz-adv-x="500" d="M112 570l-12 19l122 144h55l123 -144l-12 -19l-138 57z" />
<glyph unicode="&#x2dc;" horiz-adv-x="500" d="M113 571l-28 15q27 68 46.5 97t53.5 29q22 0 75 -12t75 -12q28 0 52 39l28 -15q-14 -37 -21 -53.5t-19.5 -37t-26.5 -28t-33 -7.5q-22 0 -75.5 12t-74.5 12q-16 0 -27 -8t-25 -31z" />
<glyph unicode="&#x2000;" horiz-adv-x="454" />
<glyph unicode="&#x2001;" horiz-adv-x="909" />
<glyph unicode="&#x2002;" horiz-adv-x="454" />
<glyph unicode="&#x2003;" horiz-adv-x="909" />
<glyph unicode="&#x2004;" horiz-adv-x="303" />
<glyph unicode="&#x2005;" horiz-adv-x="227" />
<glyph unicode="&#x2006;" horiz-adv-x="151" />
<glyph unicode="&#x2007;" horiz-adv-x="151" />
<glyph unicode="&#x2008;" horiz-adv-x="113" />
<glyph unicode="&#x2009;" horiz-adv-x="181" />
<glyph unicode="&#x200a;" horiz-adv-x="50" />
<glyph unicode="&#x2010;" horiz-adv-x="277" d="M20 236l13 106h224l-14 -106h-223z" />
<glyph unicode="&#x2011;" horiz-adv-x="277" d="M20 236l13 106h224l-14 -106h-223z" />
<glyph unicode="&#x2012;" horiz-adv-x="277" d="M20 236l13 106h224l-14 -106h-223z" />
<glyph unicode="&#x2013;" horiz-adv-x="393" d="M39 265v53h315v-53h-315z" />
<glyph unicode="&#x2014;" horiz-adv-x="632" d="M39 265v53h554v-53h-554z" />
<glyph unicode="&#x2018;" horiz-adv-x="220" d="M115 444q-37 0 -64 25.5t-27 70.5q0 63 42 105.5t122 59.5l7 -24q-95 -43 -92 -108q11 9 30 9q28 0 45 -18.5t17 -50.5q0 -31 -23.5 -50t-56.5 -19z" />
<glyph unicode="&#x2019;" horiz-adv-x="220" d="M32 444l-8 24q96 42 93 108q-11 -9 -30 -9q-28 0 -45 18.5t-17 50.5q0 31 23 50t56 19q38 0 65 -25.5t27 -70.5q0 -63 -42 -105.5t-122 -59.5z" />
<glyph unicode="&#x201a;" horiz-adv-x="220" d="M32 -112l-8 24q96 42 93 108q-11 -9 -30 -9q-28 0 -45 18.5t-17 50.5q0 31 23 50t56 19q38 0 65 -25.5t27 -70.5q0 -63 -42 -105.5t-122 -59.5z" />
<glyph unicode="&#x201c;" horiz-adv-x="428" d="M115 444q-37 0 -64 25.5t-27 70.5q0 63 42 105.5t122 59.5l7 -24q-95 -43 -92 -108q11 9 30 9q28 0 45 -18.5t17 -50.5q0 -31 -23.5 -50t-56.5 -19zM324 444q-38 0 -65 25.5t-27 70.5q0 63 42 105.5t122 59.5l8 -24q-96 -42 -93 -108q11 9 30 9q28 0 45 -18.5t17 -50.5 q0 -31 -23 -50t-56 -19z" />
<glyph unicode="&#x201d;" horiz-adv-x="428" d="M32 444l-8 24q96 42 93 108q-11 -9 -30 -9q-28 0 -45 18.5t-17 50.5q0 31 23 50t56 19q38 0 65 -25.5t27 -70.5q0 -63 -42 -105.5t-122 -59.5zM240 444l-7 24q95 43 92 108q-11 -9 -30 -9q-28 0 -45 18.5t-17 50.5q0 31 23.5 50t56.5 19q37 0 64 -25.5t27 -70.5 q0 -63 -42 -105.5t-122 -59.5z" />
<glyph unicode="&#x201e;" horiz-adv-x="428" d="M32 -112l-8 24q96 42 93 108q-11 -9 -30 -9q-28 0 -45 18.5t-17 50.5q0 31 23 50t56 19q38 0 65 -25.5t27 -70.5q0 -63 -42 -105.5t-122 -59.5zM240 -112l-7 24q95 43 92 108q-11 -9 -30 -9q-28 0 -45 18.5t-17 50.5q0 31 23.5 50t56.5 19q37 0 64 -25.5t27 -70.5 q0 -63 -42 -105.5t-122 -59.5z" />
<glyph unicode="&#x2022;" horiz-adv-x="315" d="M157 202q-54 0 -93 39t-39 92q0 56 38.5 94t93.5 38q54 0 93.5 -38t39.5 -94q0 -52 -40 -91.5t-93 -39.5z" />
<glyph unicode="&#x2026;" horiz-adv-x="697" d="M116 -7q-36 0 -62 26t-26 61q0 37 26 62t62 25t62.5 -25t26.5 -62q0 -35 -27 -61t-62 -26zM348 -7q-36 0 -62 25.5t-26 61.5q0 37 25.5 62t62.5 25q35 0 62 -25t27 -62q0 -35 -27 -61t-62 -26zM579 -7q-36 0 -61.5 26t-25.5 61q0 37 25.5 62t61.5 25t62.5 -25t26.5 -62 q0 -35 -27 -61t-62 -26z" />
<glyph unicode="&#x202f;" horiz-adv-x="181" />
<glyph unicode="&#x2039;" horiz-adv-x="271" d="M199 45l-174 198v19l174 198h36l-77 -206l77 -209h-36z" />
<glyph unicode="&#x203a;" horiz-adv-x="271" d="M36 45l77 209l-77 206h36l174 -198v-19l-174 -198h-36z" />
<glyph unicode="&#x2044;" horiz-adv-x="355" d="M-121 -50l531 764h65l-531 -764h-65z" />
<glyph unicode="&#x205f;" horiz-adv-x="227" />
<glyph unicode="&#x20ac;" horiz-adv-x="617" d="M16 376v49h63q23 139 115.5 209.5t211.5 70.5q85 0 141 -31t56 -91q0 -31 -20 -49.5t-55 -18.5q-44 0 -63 25t-26 80q-4 29 -12 36.5t-35 7.5q-57 0 -87 -53.5t-35 -185.5h205l-10 -49h-196q0 -53 1 -71h183l-9 -49h-170q11 -105 52 -144.5t127 -39.5q66 0 142 41v-35 q-28 -35 -86 -62.5t-138 -27.5q-121 0 -198 67t-95 201h-62v49h58q-2 35 0 71h-58z" />
<glyph unicode="&#x2122;" horiz-adv-x="763" d="M320 401v24l23 4q12 2 15.5 9t3.5 30v167q0 18 -3 23.5t-15 7.5l-18 4v23h158l47 -141h1l47 141h160v-21l-18 -4q-12 -3 -15 -8t-3 -23v-177q0 -19 3.5 -24.5t14.5 -7.5l20 -4v-23h-178v23l19 4q12 2 15 7.5t3 24.5v192h-1l-80 -246h-36l-84 246h-2v-183q0 -25 3.5 -32 t16.5 -9l23 -4v-23h-120zM72 403v23l23 4q13 2 16 7t3 25v203h-4q-24 0 -34 -17q-12 -17 -34 -69h-20l4 114h276l4 -114h-19q-22 53 -33 69q-12 17 -36 17h-4v-203q0 -20 3 -25t16 -7l24 -4v-23h-185z" />
<glyph unicode="&#x2153;" horiz-adv-x="851" d="M15 304v30l19 4q20 5 25 11.5t5 36.5v188l-47 10v28q47 9 92.5 32.5t71.5 53.5l27 -5v-307q0 -29 6 -37t26 -11l18 -4v-30h-243zM94 -50l531 764h65l-531 -764h-65zM651 -8q-143 0 -143 74q0 45 48 45q27 0 41 -13t18 -48q3 -18 9 -22.5t24 -4.5q51 0 51 82 q0 48 -19.5 63.5t-56.5 15.5h-28v40h22q38 0 55 16t17 55q0 70 -37 70q-13 0 -18 -5t-6 -20q-6 -53 -56 -53q-22 0 -35 11t-13 30q0 32 36 50t102 18q71 0 113 -23t42 -69q0 -73 -112 -91v-2q58 -2 93.5 -27.5t35.5 -74.5q0 -55 -45.5 -86t-137.5 -31z" />
<glyph unicode="&#x2154;" horiz-adv-x="905" d="M16 304v62q79 57 127 109q53 54 53 127q0 66 -43 66q-12 0 -16 -5.5t-6 -25.5q-4 -34 -18.5 -49t-45.5 -15q-50 0 -50 44q0 36 41.5 59.5t109.5 23.5q76 0 120.5 -29t44.5 -84q0 -46 -49 -90t-165 -94v-3h130q19 0 26.5 8.5t21.5 40.5h31l-8 -145h-304zM150 -50l531 764 h65l-531 -764h-65zM705 -8q-143 0 -143 74q0 45 48 45q27 0 41 -13t18 -48q3 -18 9 -22.5t24 -4.5q51 0 51 82q0 48 -19.5 63.5t-56.5 15.5h-28v40h22q38 0 55 16t17 55q0 70 -37 70q-13 0 -18 -5t-6 -20q-6 -53 -56 -53q-22 0 -35 11t-13 30q0 32 36 50t102 18 q71 0 113 -23t42 -69q0 -73 -112 -91v-2q58 -2 93.5 -27.5t35.5 -74.5q0 -55 -45.5 -86t-137.5 -31z" />
<glyph unicode="&#x215b;" horiz-adv-x="861" d="M15 304v30l19 4q20 5 25 11.5t5 36.5v188l-47 10v28q47 9 92.5 32.5t71.5 53.5l27 -5v-307q0 -29 6 -37t26 -11l18 -4v-30h-243zM93 -50l531 764h65l-531 -764h-65zM671 -7q-80 0 -123.5 24t-43.5 67q0 28 21.5 52.5t61.5 36.5v2q-66 35 -66 98q0 58 48 90.5t112 32.5 q61 0 103.5 -20.5t42.5 -63.5q0 -25 -22.5 -45t-52.5 -29v-3q93 -41 93 -115q0 -53 -50.5 -90t-123.5 -37zM716 250q16 23 16 52q0 61 -58 61q-24 0 -39 -12t-15 -31q0 -21 19 -35t77 -35zM678 26q63 0 63 48q0 23 -21 37t-100 46q-14 -22 -14 -53q0 -41 17 -59.5t55 -18.5z " />
<glyph unicode="&#x215c;" horiz-adv-x="913" d="M167 296q-143 0 -143 74q0 45 48 45q27 0 41 -13.5t18 -47.5q3 -18 9 -22.5t24 -4.5q51 0 51 82q0 48 -19.5 63t-56.5 15h-28v40h22q38 0 55 16t17 56q0 70 -37 70q-13 0 -18 -5t-6 -21q-3 -26 -15.5 -39.5t-40.5 -13.5q-22 0 -35 11.5t-13 30.5q0 32 36 50t102 18 q71 0 113 -23.5t42 -69.5q0 -72 -112 -90v-2q59 -3 94 -28t35 -74q0 -55 -45.5 -86t-137.5 -31zM162 -50l531 764h65l-531 -764h-65zM723 -7q-80 0 -123.5 24t-43.5 67q0 28 21.5 52.5t61.5 36.5v2q-66 35 -66 98q0 58 48 90.5t112 32.5q61 0 103.5 -20.5t42.5 -63.5 q0 -25 -22.5 -45t-52.5 -29v-3q93 -41 93 -115q0 -53 -50.5 -90t-123.5 -37zM768 250q16 23 16 52q0 61 -58 61q-24 0 -39 -12t-15 -31q0 -21 19 -35t77 -35zM730 26q63 0 63 48q0 23 -21 37t-100 46q-14 -22 -14 -53q0 -41 17 -59.5t55 -18.5z" />
<glyph unicode="&#x215d;" horiz-adv-x="893" d="M138 296q-64 0 -96 20t-32 50q0 42 46 42q27 0 38.5 -12.5t18.5 -41.5q4 -17 9.5 -21t22.5 -4q58 0 58 59q0 34 -25 52.5t-68 18.5q-38 0 -62 -11l-12 5l27 240l178 -1q15 0 22 7t19 30h27l-13 -124l-206 1l-5 -52q39 7 72 7q78 0 122 -32t44 -94q0 -57 -48.5 -98 t-136.5 -41zM142 -50l531 764h65l-531 -764h-65zM703 -7q-80 0 -123.5 24t-43.5 67q0 28 21.5 52.5t61.5 36.5v2q-66 35 -66 98q0 58 48 90.5t112 32.5q61 0 103.5 -20.5t42.5 -63.5q0 -25 -22.5 -45t-52.5 -29v-3q93 -41 93 -115q0 -53 -50.5 -90t-123.5 -37zM748 250 q16 23 16 52q0 61 -58 61q-24 0 -39 -12t-15 -31q0 -21 19 -35t77 -35zM710 26q63 0 63 48q0 23 -21 37t-100 46q-14 -22 -14 -53q0 -41 17 -59.5t55 -18.5z" />
<glyph unicode="&#x215e;" horiz-adv-x="840" d="M70 -50l531 764h65l-531 -764h-65zM650 -7q-80 0 -123.5 24t-43.5 67q0 28 21.5 52.5t61.5 36.5v2q-66 35 -66 98q0 58 48 90.5t112 32.5q61 0 103.5 -20.5t42.5 -63.5q0 -25 -22.5 -45t-52.5 -29v-3q93 -41 93 -115q0 -53 -50.5 -90t-123.5 -37zM695 250q16 23 16 52 q0 61 -58 61q-24 0 -39 -12t-15 -31q0 -21 19 -35t77 -35zM657 26q63 0 63 48q0 23 -21 37t-100 46q-14 -22 -14 -53q0 -41 17 -59.5t55 -18.5zM44 304q19 85 70 154.5t136 143.5h-160q-22 0 -30.5 -8t-22.5 -43h-29l9 142h294v-61q-113 -137 -111 -328h-156z" />
<glyph unicode="&#x25a0;" horiz-adv-x="926" d="M116 0v693h694v-693h-694z" />
<glyph unicode="&#x25a1;" horiz-adv-x="926" d="M116 0v693h694v-693h-694zM162 44h602v607h-602v-607z" />
<glyph unicode="&#x25b2;" horiz-adv-x="829" d="M780 0h-729v14l354 710h20l355 -710v-14z" />
<glyph unicode="&#x25b3;" horiz-adv-x="860" d="M828 0h-729v14l359 710h10l360 -710v-14zM764 42l-302 597l-300 -597h602z" />
<glyph unicode="&#x25b7;" horiz-adv-x="860" d="M116 -18v729h14l680 -359v-10l-680 -360h-14zM162 45l569 302l-569 302v-604z" />
<glyph unicode="&#x25ba;" horiz-adv-x="860" d="M116 -18v729h14l680 -359v-10l-680 -360h-14z" />
<glyph unicode="&#x25bc;" horiz-adv-x="829" d="M50 693h729v-14l-354 -710h-20l-355 710v14z" />
<glyph unicode="&#x25bd;" horiz-adv-x="860" d="M98 693h729v-14l-359 -710h-10l-360 710v14zM162 651l302 -597l300 597h-602z" />
<glyph unicode="&#x25c1;" horiz-adv-x="860" d="M744 711v-729h-14l-680 360v10l680 359h14zM129 347l569 -302v604z" />
<glyph unicode="&#x25c4;" horiz-adv-x="860" d="M744 711v-729h-14l-680 360v10l680 359h14z" />
<glyph unicode="&#x25cb;" horiz-adv-x="806" d="M402 -15q-150 0 -255.5 106t-105.5 256t105.5 255.5t255.5 105.5t256.5 -105.5t106.5 -255.5q0 -149 -107 -255.5t-256 -106.5zM402 27q131 0 223.5 94t92.5 226t-92.5 225.5t-223.5 93.5q-132 0 -223 -93t-91 -226q0 -132 91 -226t223 -94z" />
<glyph unicode="&#x25fc;" horiz-adv-x="520" d="M0 520h520v-520h-520v520z" />
<glyph unicode="&#x2605;" horiz-adv-x="832" d="M169 -34l-7 4l96 291l-244 174v8h304l94 291h8l95 -291h303v-8l-243 -174l95 -289l-7 -4l-247 176zM229 54l188 140l186 -140l-76 222l190 130h-229l-72 221l-72 -221h-228l189 -130z" />
<glyph unicode="&#x2606;" horiz-adv-x="832" d="M169 -34l-7 4l96 291l-244 174v8h304l94 291h8l95 -291h303v-8l-243 -174l95 -289l-7 -4l-247 176z" />
<glyph horiz-adv-x="725" d="M15 0v30l31 7q26 6 33.5 18.5t7.5 57.5v467q0 45 -7.5 57.5t-33.5 18.5l-31 7v30h337q152 0 219 -43.5t67 -137.5q0 -78 -46.5 -119t-153.5 -57v-4q84 -17 130 -71q32 -34 70 -118t39 -85q9 -16 30 -23l16 -5v-30h-245q-10 26 -36 109.5t-49 139.5q-15 36 -35.5 47.5 t-52.5 11.5h-19v-195q0 -46 7 -58t32 -18l31 -7v-30h-341zM331 348q58 0 83.5 32t25.5 118q0 87 -19.5 118t-75.5 31q-38 0 -59 -7v-288q24 -4 45 -4z" />
<glyph horiz-adv-x="676" d="M316 155h27q30 -64 52 -88q30 -35 74 -35q30 0 48.5 17.5t18.5 41.5q0 26 -17 42t-77 53q-12 8 -19 12q-110 66 -110 136q0 28 18 64t39.5 65.5t39.5 70.5t18 79q0 49 -23 78t-66 29q-45 0 -69.5 -29.5t-24.5 -103.5v-501q0 -34 3 -42t17 -12l16 -3v-29h-272v29l23 6 q27 8 33 16.5t6 42.5v364h-70v26l70 38v11q0 109 79 169t198 60q106 0 165 -36t59 -94q0 -32 -16.5 -60t-39.5 -47t-46 -35t-39.5 -31t-16.5 -27q0 -16 25 -34.5t103 -63.5q65 -37 93.5 -76t28.5 -92q0 -79 -55 -127.5t-151 -48.5q-85 0 -142 17v148z" />
<glyph horiz-adv-x="394" d="M197 336q-75 0 -126 53t-51 129t51 129t126 53t126.5 -53t51.5 -129q0 -75 -51.5 -128.5t-126.5 -53.5zM197 362q64 0 106 45t42 111t-42 111t-106 45q-65 0 -106 -45t-41 -111t41 -111t106 -45zM100 424v16l9 2q5 1 7 2.5t3 5t1 12.5v118q0 13 -2 16t-9 5l-9 2v16h96 q85 0 85 -52q0 -37 -35 -47v-2q22 -47 38 -69q5 -6 11 -8l5 -1v-16h-67q-21 33 -40 80h-15v-42q0 -12 2 -15t10 -5l9 -2v-16h-99zM178 522h13q17 0 24 9t7 30q0 22 -6.5 31t-21.5 9q-10 0 -16 -2v-77z" />
<glyph horiz-adv-x="457" d="M225 296q-86 0 -142.5 53.5t-56.5 144.5q0 68 35 117t79.5 69t89.5 20q80 0 140.5 -56t60.5 -145q0 -95 -62.5 -149t-143.5 -54zM229 333q34 0 45 34.5t11 125.5q0 102 -12.5 137t-43.5 35q-30 0 -43 -34t-13 -129q0 -99 11 -134t45 -35z" />
<glyph horiz-adv-x="271" d="M14 304v30l19 4q20 5 25 11.5t5 36.5v188l-47 10v28q47 9 92.5 32.5t71.5 53.5l27 -5v-307q0 -29 6 -37t26 -11l18 -4v-30h-243z" />
<glyph horiz-adv-x="346" d="M12 304v62q79 57 127 109q53 54 53 127q0 66 -43 66q-12 0 -16 -5.5t-6 -25.5q-4 -34 -18.5 -49t-45.5 -15q-50 0 -50 44q0 36 41.5 59.5t109.5 23.5q76 0 120.5 -29t44.5 -84q0 -46 -49 -90t-165 -94v-3h130q19 0 26.5 8.5t21.5 40.5h31l-8 -145h-304z" />
<glyph horiz-adv-x="358" d="M155 296q-143 0 -143 74q0 45 48 45q27 0 41 -13.5t18 -47.5q3 -18 9 -22.5t24 -4.5q51 0 51 82q0 48 -19.5 63t-56.5 15h-28v40h22q38 0 55 16t17 56q0 70 -37 70q-13 0 -18 -5t-6 -21q-3 -26 -15.5 -39.5t-40.5 -13.5q-22 0 -35 11.5t-13 30.5q0 32 36 50t102 18 q71 0 113 -23.5t42 -69.5q0 -72 -112 -90v-2q59 -3 94 -28t35 -74q0 -55 -45.5 -86t-137.5 -31z" />
<glyph horiz-adv-x="385" d="M128 304v30l18 4q19 4 24 11.5t5 36.5v24h-163v38l207 245h95v-234h59l-5 -49h-54v-24q0 -29 5.5 -37t23.5 -11l19 -4v-30h-234zM69 459h106v127h-2l-104 -124v-3z" />
<glyph horiz-adv-x="341" d="M142 296q-64 0 -96 20t-32 50q0 42 46 42q27 0 38.5 -12.5t18.5 -41.5q4 -17 9.5 -21t22.5 -4q58 0 58 59q0 34 -25 52.5t-68 18.5q-38 0 -62 -11l-12 5l27 240l178 -1q15 0 22 7t19 30h27l-13 -124l-206 1l-5 -52q38 7 72 7q78 0 122 -32t44 -94q0 -57 -48.5 -98 t-136.5 -41z" />
<glyph horiz-adv-x="395" d="M199 296q-80 0 -132 46t-52 149q0 73 34 121.5t83 68t110 19.5q56 0 86.5 -17t30.5 -46q0 -20 -13 -31.5t-35 -11.5q-49 0 -58 50q-3 16 -7.5 20.5t-18.5 4.5q-32 0 -49 -29t-19 -114q40 14 84 14q136 0 136 -112q0 -58 -45 -95t-135 -37zM200 330q26 0 33 17.5t7 71.5 q0 48 -11.5 62.5t-34.5 14.5q-24 0 -36 -8v-6q0 -93 7 -122.5t35 -29.5z" />
<glyph horiz-adv-x="342" d="M58 304q19 85 70 154.5t136 143.5h-160q-22 0 -30.5 -8t-22.5 -43h-29l9 142h294v-61q-113 -137 -111 -328h-156z" />
<glyph horiz-adv-x="370" d="M181 297q-80 0 -123.5 24t-43.5 67q0 29 21.5 52.5t61.5 35.5v3q-66 35 -66 98q0 57 48 90t112 33q60 0 103 -21t43 -64q0 -25 -22.5 -45t-52.5 -29v-2q48 -22 70.5 -49t22.5 -67q0 -53 -50.5 -89.5t-123.5 -36.5zM188 330q63 0 63 48q0 23 -20.5 36.5t-100.5 45.5 q-14 -22 -14 -52q0 -41 17 -59.5t55 -18.5zM226 554q16 23 16 52q0 61 -58 61q-24 0 -39 -12t-15 -31q0 -22 19.5 -36t76.5 -34z" />
<glyph horiz-adv-x="393" d="M155 296q-58 0 -90.5 17.5t-32.5 45.5q0 43 53 43q24 0 36 -12.5t17 -37.5q3 -15 9.5 -20t21.5 -5q37 0 51 29.5t15 116.5q-36 -15 -87 -15q-133 0 -133 114q0 55 46.5 91.5t134.5 36.5q82 0 132 -46t50 -147q0 -102 -62 -156.5t-161 -54.5zM203 502q13 0 34 6v12 q0 88 -8.5 117t-35.5 29q-23 0 -31.5 -19.5t-8.5 -71.5q0 -43 12 -58t38 -15z" />
<glyph horiz-adv-x="457" d="M225 -8q-86 0 -142.5 54t-56.5 144q0 52 20 93.5t51.5 65t65.5 35.5t67 12q80 0 140.5 -56t60.5 -145q0 -95 -62.5 -149t-143.5 -54zM229 29q34 0 45 35t11 125q0 102 -12.5 137t-43.5 35q-30 0 -43 -33.5t-13 -129.5q0 -99 11 -134t45 -35z" />
<glyph horiz-adv-x="271" d="M14 0v30l19 4q20 5 25 12t5 36v188l-47 10v28q47 9 92.5 33t71.5 53l27 -4v-308q0 -28 6.5 -36.5t25.5 -11.5l18 -4v-30h-243z" />
<glyph horiz-adv-x="346" d="M12 0v62q75 55 127 109q53 56 53 127q0 66 -43 66q-12 0 -16 -5.5t-6 -25.5q-4 -34 -18.5 -49t-45.5 -15q-50 0 -50 45q0 35 41.5 58.5t109.5 23.5q76 0 120.5 -29t44.5 -84q0 -46 -49 -90t-165 -93v-3h130q19 0 26.5 8.5t21.5 40.5h31l-8 -146h-304z" />
<glyph horiz-adv-x="358" d="M155 -8q-143 0 -143 74q0 45 48 45q27 0 41 -13t18 -48q3 -18 9 -22.5t24 -4.5q51 0 51 82q0 48 -19.5 63.5t-56.5 15.5h-28v40h22q38 0 55 16t17 55q0 70 -37 70q-13 0 -18 -5t-6 -20q-6 -53 -56 -53q-22 0 -35 11t-13 30q0 32 36 50t102 18q71 0 113 -23t42 -69 q0 -73 -112 -91v-2q58 -2 93.5 -27.5t35.5 -74.5q0 -55 -45.5 -86t-137.5 -31z" />
<glyph horiz-adv-x="385" d="M128 0v30l18 4q19 5 24 12t5 36v24h-163v38l207 245h95v-234h59l-5 -49h-54v-24q0 -28 5.5 -36.5t23.5 -11.5l19 -4v-30h-234zM69 155h106v127h-2l-104 -123v-4z" />
<glyph horiz-adv-x="341" d="M142 -8q-64 0 -96 20.5t-32 50.5q0 41 46 41q27 0 38.5 -12.5t18.5 -40.5q4 -17 9.5 -21.5t22.5 -4.5q58 0 58 60q0 33 -25 51.5t-68 18.5q-36 0 -62 -10l-12 4l27 240h178q15 0 22 7t19 29h27l-13 -124l-206 1l-5 -51q39 7 72 7q78 0 122 -32.5t44 -94.5 q0 -57 -48.5 -98t-136.5 -41z" />
<glyph horiz-adv-x="395" d="M199 -8q-80 0 -132 46t-52 149q0 107 65.5 158t161.5 51q56 0 86.5 -17t30.5 -46q0 -20 -13 -31t-35 -11q-49 0 -58 49q-3 16 -7.5 20.5t-18.5 4.5q-32 0 -49 -29t-19 -114q36 15 84 15q63 0 99.5 -28t36.5 -85q0 -58 -45 -95t-135 -37zM200 27q26 0 33 17.5t7 71.5 q0 48 -11.5 62t-34.5 14q-26 0 -36 -7v-7q0 -93 7 -122t35 -29z" />
<glyph horiz-adv-x="342" d="M58 0q19 85 69.5 154.5t136.5 143.5h-160q-22 0 -30.5 -8t-22.5 -43h-29l9 142h294v-61q-113 -137 -111 -328h-156z" />
<glyph horiz-adv-x="370" d="M181 -7q-80 0 -123.5 24t-43.5 67q0 28 21.5 52.5t61.5 36.5v2q-66 35 -66 98q0 58 48 90.5t112 32.5q61 0 103.5 -20.5t42.5 -63.5q0 -25 -22.5 -45t-52.5 -29v-3q93 -41 93 -115q0 -53 -50.5 -90t-123.5 -37zM226 250q16 23 16 52q0 61 -58 61q-24 0 -39 -12t-15 -31 q0 -21 19 -35t77 -35zM188 26q63 0 63 48q0 23 -21 37t-100 46q-14 -22 -14 -53q0 -41 17 -59.5t55 -18.5z" />
<glyph horiz-adv-x="393" d="M196 396q82 0 132 -46t50 -147q0 -102 -62 -156.5t-161 -54.5q-58 0 -90.5 17.5t-32.5 46.5q0 42 53 42q24 0 36 -12.5t17 -37.5q3 -15 9 -19.5t22 -4.5q37 0 51 29t15 116q-42 -15 -87 -15q-133 0 -133 114q0 55 46.5 91.5t134.5 36.5zM193 362q-23 0 -31.5 -19.5 t-8.5 -70.5q0 -44 12 -59t38 -15q14 0 34 7v11q0 88 -8.5 117t-35.5 29z" />
</font>
</defs>
</svg>
