<?xml version="1.0" standalone="no"?>
<!DOCTYPE svg PUBLIC "-//W3C//DTD SVG 1.1//EN" "http://www.w3.org/Graphics/SVG/1.1/DTD/svg11.dtd" >
<svg xmlns="http://www.w3.org/2000/svg" xmlns:xlink="http://www.w3.org/1999/xlink" version="1.1">
<metadata>
Created by FontForge 20170910 at Mon Jan 11 11:57:28 2016
 By Jimmy Wärting
\\\\uFFFD 2010 Paul Barnes and Christian Schwartz, under exclusive license to Schwartzco Inc./Commercial Type. All rights reserved.
</metadata>
<defs>
<font id="ChubbPublico-BoldItalic" horiz-adv-x="710" >
  <font-face 
    font-family="Chubb Publico Bold"
    font-weight="700"
    font-style="italic"
    font-stretch="normal"
    units-per-em="1000"
    panose-1="2 4 8 2 6 5 4 13 2 3"
    ascent="801"
    descent="-199"
    x-height="533"
    cap-height="693"
    bbox="-175 -250 1147 1069"
    underline-thickness="50"
    underline-position="-113"
    slope="-12"
    stemh="42"
    stemv="151"
    unicode-range="U+0020-FB04"
  />
<missing-glyph horiz-adv-x="500" 
 />
    <glyph glyph-name="f_b" unicode="fb" horiz-adv-x="863" 
d="M-51 -204c-65 0 -100 28 -100 69c0 30 21 50 52 50c36 0 53 -11 63 -62c3 -14 7 -18 15 -18c25 0 36 21 60 178l68 448h-67l4 24l71 34l1 5c30 161 141 237 275 237c63 0 104 -18 121 -44l85 40l11 -9s-14 -52 -26 -117l-26 -137c-7 -38 -19 -78 -23 -92h4
c46 55 118 131 199 131c71 0 116 -65 116 -158c0 -218 -143 -388 -332 -388c-104 0 -160 32 -201 73v8l109 564c-19 8 -28 26 -32 65c-2 19 -9 24 -24 24c-45 0 -76 -34 -97 -175l-4 -27h99l-15 -58h-94l-50 -305c-40 -244 -140 -360 -262 -360zM536 26
c91 0 161 164 161 344c0 48 -15 65 -43 65c-43 0 -98 -50 -128 -89l-57 -282c10 -18 32 -38 67 -38z" />
    <glyph glyph-name="f_f" unicode="ff" horiz-adv-x="627" 
d="M232 -194c-70 0 -106 32 -106 71c0 30 21 49 51 49c41 0 54 -15 62 -63c3 -13 7 -17 15 -17c27 0 46 15 69 167l67 448h-129l-50 -305c-40 -244 -140 -360 -262 -360c-65 0 -100 28 -100 69c0 30 21 50 52 50c36 0 53 -11 63 -62c3 -14 7 -18 15 -18c25 0 36 21 60 178
l68 448h-67l4 24l71 34l1 6c26 157 146 223 272 223c56 0 94 -14 114 -36c44 33 98 49 153 49c89 0 130 -33 130 -75c0 -32 -21 -57 -62 -57s-58 14 -65 69c-2 18 -8 23 -18 23c-38 0 -60 -26 -82 -170l-5 -32h111l-16 -58h-103l-51 -305c-40 -244 -142 -350 -262 -350z
M274 546l-4 -27h129l1 6c5 37 15 69 29 97c-17 8 -26 26 -33 64c-4 18 -13 23 -25 23c-42 0 -76 -22 -97 -163z" />
    <glyph glyph-name="f_f_b" unicode="ffb" horiz-adv-x="1146" 
d="M-51 -204c-65 0 -100 28 -100 69c0 30 21 50 52 50c36 0 53 -11 63 -62c3 -14 7 -18 15 -18c25 0 36 21 60 178l68 448h-67l4 24l71 34l1 6c26 157 146 223 272 223c58 0 98 -16 117 -39c47 35 106 52 169 52c64 0 105 -18 122 -44l84 40l11 -9s-14 -52 -26 -117
l-25 -137c-7 -38 -19 -78 -23 -92h4c46 55 117 131 199 131c70 0 115 -65 115 -158c0 -218 -142 -388 -332 -388c-103 0 -159 32 -200 73v8l109 564c-19 8 -28 26 -32 65c-2 19 -10 24 -24 24c-46 0 -77 -34 -98 -175l-4 -27h100l-15 -58h-94l-51 -305
c-40 -244 -142 -350 -262 -350c-70 0 -106 32 -106 71c0 30 21 49 51 49c41 0 54 -15 62 -63c3 -13 7 -17 15 -17c25 0 46 15 69 167l67 448h-129l-50 -305c-40 -244 -140 -360 -262 -360zM820 26c91 0 161 164 161 344c0 48 -16 65 -44 65c-42 0 -97 -50 -127 -89l-57 -282
c10 -18 31 -38 67 -38zM274 546l-4 -27h129c6 39 17 73 32 103c-18 7 -27 24 -35 64c-4 18 -13 23 -25 23c-42 0 -76 -22 -97 -163z" />
    <glyph glyph-name="f_f_h" unicode="ffh" horiz-adv-x="1164" 
d="M-51 -204c-65 0 -100 28 -100 69c0 30 21 50 52 50c36 0 53 -11 63 -62c3 -14 7 -18 15 -18c25 0 36 21 60 178l68 448h-67l4 24l71 34l1 6c26 157 146 223 272 223c58 0 98 -16 117 -39c47 35 106 52 169 52c64 0 105 -18 122 -44l85 40l11 -9s-13 -52 -26 -117
l-27 -137c-9 -47 -17 -79 -24 -101h5c58 68 128 140 216 140c53 0 87 -42 87 -94c0 -20 -5 -56 -11 -82l-53 -228c-2 -9 -3 -18 -3 -27c0 -24 16 -26 48 -6l25 15l18 -22c-46 -44 -119 -101 -190 -101c-46 0 -61 34 -61 64c0 26 6 57 13 87l44 199c16 73 11 91 -13 91
c-40 0 -92 -45 -132 -93l-68 -336h-153l126 632c-20 7 -29 26 -33 65c-2 19 -10 24 -24 24c-46 0 -77 -34 -98 -175l-4 -27h100l-15 -58h-94l-51 -305c-40 -244 -142 -350 -262 -350c-70 0 -106 32 -106 71c0 30 21 49 51 49c41 0 54 -15 62 -63c3 -13 7 -17 15 -17
c25 0 46 15 69 167l67 448h-129l-50 -305c-40 -244 -140 -360 -262 -360zM274 546l-4 -27h129c6 39 17 73 32 103c-18 7 -27 24 -35 64c-4 18 -13 23 -25 23c-42 0 -76 -22 -97 -163z" />
    <glyph glyph-name="f_f_i" unicode="ffi" horiz-adv-x="865" 
d="M-51 -204c-65 0 -100 28 -100 69c0 30 21 50 52 50c36 0 53 -11 63 -62c3 -14 7 -18 15 -18c25 0 36 21 60 178l68 448h-67l4 24l71 34l1 6c26 157 146 223 272 223c59 0 99 -16 118 -40c50 36 114 53 182 53c91 0 134 -34 134 -77c0 -34 -22 -63 -68 -63s-62 14 -70 74
c-3 21 -8 26 -22 26c-50 0 -83 -35 -105 -179l-3 -23h219c46 0 63 -17 63 -51c0 -22 -7 -59 -20 -110l-56 -223c-3 -11 -5 -25 -5 -35c0 -22 16 -23 48 -4l28 17l17 -22c-46 -45 -117 -103 -189 -103c-46 0 -65 34 -65 64c0 26 7 61 15 93l63 257c4 15 6 30 6 40
c0 14 -7 19 -22 19h-111l-51 -305c-40 -244 -142 -350 -262 -350c-70 0 -106 32 -106 71c0 30 21 49 51 49c41 0 54 -15 62 -63c3 -13 7 -17 15 -17c27 0 46 15 69 167l67 448h-129l-50 -305c-40 -244 -140 -360 -262 -360zM399 519c6 39 17 73 32 102c-18 7 -27 25 -35 65
c-4 18 -13 23 -25 23c-42 0 -76 -22 -97 -163l-4 -27h129z" />
    <glyph glyph-name="f_f_j" unicode="ffj" horiz-adv-x="860" 
d="M554 519h217c45 0 62 -17 62 -51c0 -23 -6 -61 -16 -110l-63 -296c-37 -178 -126 -267 -247 -267c-73 0 -111 37 -111 80c0 10 2 18 5 26c-47 -65 -106 -95 -169 -95c-70 0 -106 32 -106 71c0 30 21 49 51 49c41 0 54 -15 62 -63c3 -13 7 -17 15 -17c27 0 46 15 69 167
l67 448h-129l-50 -305c-40 -244 -140 -360 -262 -360c-65 0 -100 28 -100 69c0 30 21 50 52 50c36 0 53 -11 63 -62c3 -14 7 -18 15 -18c25 0 36 21 60 178l68 448h-67l4 24l71 34l1 6c26 157 146 223 272 223c59 0 99 -16 118 -40c50 36 114 53 182 53
c91 0 134 -34 134 -77c0 -34 -22 -63 -68 -63s-62 14 -70 74c-3 21 -8 26 -22 26c-50 0 -83 -35 -105 -179zM494 156c-18 -106 -46 -185 -83 -242c9 9 23 14 40 14c40 0 59 -14 69 -74c2 -14 6 -18 14 -18c20 0 38 20 58 134l77 432c2 15 4 30 4 40c0 14 -7 19 -22 19h-106z
M274 546l-4 -27h129c6 39 17 73 32 102c-18 7 -27 25 -35 65c-4 18 -13 23 -25 23c-42 0 -76 -22 -97 -163z" />
    <glyph glyph-name="f_f_k" unicode="ffk" horiz-adv-x="1124" 
d="M-51 -204c-65 0 -100 28 -100 69c0 30 21 50 52 50c36 0 53 -11 63 -62c3 -14 7 -18 15 -18c25 0 36 21 60 178l68 448h-67l4 24l71 34l1 6c26 157 146 223 272 223c58 0 98 -16 117 -39c47 35 106 52 169 52c64 0 105 -18 122 -44l85 39l11 -8s-13 -52 -26 -117
l-126 -631h-155l127 632c-19 8 -28 26 -32 65c-2 19 -10 24 -24 24c-46 0 -77 -34 -98 -175l-4 -27h100l-15 -58h-94l-51 -305c-40 -244 -142 -350 -262 -350c-70 0 -106 32 -106 71c0 30 21 49 51 49c41 0 54 -15 62 -63c3 -13 7 -17 15 -17c25 0 46 15 69 167l67 448h-129
l-50 -305c-40 -244 -140 -360 -262 -360zM947 -12c-37 0 -59 28 -81 87c-18 46 -35 98 -59 177l2 14c100 146 193 267 274 267c32 0 59 -22 59 -64c0 -41 -29 -63 -57 -63c-48 0 -46 40 -64 40c-22 0 -70 -47 -100 -90c35 -101 59 -168 82 -222c25 -59 34 -58 70 -36l21 13
l17 -22c-51 -49 -109 -101 -164 -101zM274 546l-4 -27h129c6 39 17 73 32 103c-18 7 -27 24 -35 64c-4 18 -13 23 -25 23c-42 0 -76 -22 -97 -163z" />
    <glyph glyph-name="f_f_l" unicode="ffl" horiz-adv-x="872" 
d="M232 -194c-70 0 -106 32 -106 71c0 30 21 49 51 49c41 0 54 -15 62 -63c3 -13 7 -17 15 -17c25 0 46 15 69 167l67 448h-129l-50 -305c-40 -244 -140 -360 -262 -360c-65 0 -100 28 -100 69c0 30 21 50 52 50c36 0 53 -11 63 -62c3 -14 7 -18 15 -18c25 0 36 21 60 178
l68 448h-67l4 24l71 34l1 6c26 157 146 223 272 223c58 0 98 -16 117 -39c47 35 106 52 169 52c64 0 105 -18 122 -44l84 40l11 -9s-13 -52 -26 -117l-98 -502c-2 -9 -5 -18 -5 -28c0 -24 19 -25 53 -4l26 16l18 -22c-47 -47 -120 -103 -194 -103c-46 0 -62 34 -62 64
c0 26 6 57 12 88l97 492c-19 8 -28 26 -32 65c-2 19 -10 24 -24 24c-46 0 -77 -34 -98 -175l-4 -27h100l-15 -58h-94l-51 -305c-40 -244 -142 -350 -262 -350zM274 546l-4 -27h129c6 39 17 73 32 103c-18 7 -27 24 -35 64c-4 18 -13 23 -25 23c-42 0 -76 -22 -97 -163z" />
    <glyph glyph-name="f_h" unicode="fh" horiz-adv-x="880" 
d="M-51 -204c-65 0 -100 28 -100 69c0 30 21 50 52 50c36 0 53 -11 63 -62c3 -14 7 -18 15 -18c25 0 36 21 60 178l68 448h-67l4 24l71 34l1 5c30 161 141 237 275 237c63 0 104 -18 121 -44l85 40l12 -9s-14 -52 -26 -117l-28 -137c-9 -47 -17 -79 -23 -101h5
c58 68 128 140 216 140c53 0 86 -42 86 -94c0 -20 -5 -56 -11 -82l-52 -228c-2 -9 -4 -18 -4 -27c0 -24 16 -26 49 -6l24 15l18 -22c-46 -44 -118 -101 -190 -101c-46 0 -61 34 -61 64c0 26 6 57 13 87l44 199c17 73 12 91 -12 91c-40 0 -92 -45 -132 -93l-68 -336h-154
l126 631c-20 7 -29 26 -33 66c-2 19 -9 24 -24 24c-45 0 -76 -34 -97 -175l-4 -27h99l-15 -58h-94l-50 -305c-40 -244 -140 -360 -262 -360z" />
    <glyph glyph-name="f_i" unicode="fi" horiz-adv-x="582" 
d="M-51 -204c-65 0 -100 28 -100 69c0 30 21 50 52 50c36 0 53 -11 63 -62c3 -14 7 -18 15 -18c25 0 36 21 60 178l68 448h-67l4 24l71 34l1 5c31 167 148 237 289 237c91 0 133 -34 133 -77c0 -34 -21 -63 -68 -63c-46 0 -61 14 -70 74c-3 21 -8 26 -21 26
c-51 0 -83 -35 -105 -179l-3 -23h219c45 0 63 -17 63 -51c0 -22 -8 -59 -21 -110l-55 -223c-3 -11 -6 -25 -6 -35c0 -22 17 -23 49 -4l27 17l18 -22c-46 -45 -118 -103 -190 -103c-46 0 -65 34 -65 64c0 26 8 61 16 93l63 257c3 15 6 30 6 40c0 14 -7 19 -22 19h-112
l-50 -305c-40 -244 -140 -360 -262 -360z" />
    <glyph glyph-name="f_j" unicode="fj" horiz-adv-x="576" 
d="M223 -205c-72 0 -111 37 -111 80c0 5 0 9 1 13c-46 -62 -102 -92 -164 -92c-65 0 -101 31 -101 69c0 30 22 50 52 50c35 0 50 -19 63 -62c4 -14 7 -18 15 -18c25 0 37 21 61 178l68 448h-67l4 24l71 34l1 5c31 167 148 237 289 237c91 0 133 -34 133 -77
c0 -34 -21 -63 -68 -63c-46 0 -61 14 -70 74c-3 21 -8 26 -21 26c-51 0 -83 -35 -105 -179l-3 -23h216c46 0 62 -17 62 -51c0 -23 -6 -61 -16 -110l-62 -296c-37 -178 -127 -267 -248 -267zM211 156c-17 -101 -44 -179 -78 -237c9 6 21 9 34 9c41 0 59 -14 69 -74
c2 -14 7 -18 15 -18c20 0 37 20 57 134l77 432c3 15 5 30 5 40c0 14 -8 19 -23 19h-106z" />
    <glyph glyph-name="f_k" unicode="fk" horiz-adv-x="840" 
d="M-51 -204c-65 0 -100 28 -100 69c0 30 21 50 52 50c36 0 53 -11 63 -62c3 -14 7 -18 15 -18c25 0 36 21 60 178l68 448h-67l4 24l71 34l1 5c30 161 141 237 275 237c63 0 104 -18 121 -45l86 40l11 -8s-13 -52 -26 -117l-126 -631h-155l127 632c-20 7 -29 26 -33 65
c-2 19 -9 24 -24 24c-45 0 -76 -34 -97 -175l-4 -27h99l-15 -58h-94l-50 -305c-40 -244 -140 -360 -262 -360zM663 -12c-37 0 -59 28 -81 87c-17 46 -35 98 -58 177l2 14c100 146 192 267 274 267c31 0 58 -22 58 -64c0 -41 -28 -63 -57 -63c-47 0 -46 40 -64 40
c-21 0 -70 -47 -99 -90c35 -101 59 -168 82 -222c25 -59 34 -58 69 -36l21 13l18 -22c-51 -49 -109 -101 -165 -101z" />
    <glyph glyph-name="f_l" unicode="fl" horiz-adv-x="589" 
d="M382 -12c-46 0 -63 34 -63 64c0 26 7 57 13 88l96 492c-19 8 -28 26 -32 65c-2 19 -9 24 -24 24c-45 0 -76 -34 -97 -175l-4 -27h99l-15 -58h-94l-50 -305c-40 -244 -140 -360 -262 -360c-65 0 -100 28 -100 69c0 30 21 50 52 50c36 0 53 -11 63 -62c3 -14 7 -18 15 -18
c25 0 36 21 60 178l68 448h-67l4 24l71 34l1 5c30 161 141 237 275 237c63 0 104 -18 121 -44l84 40l12 -9s-14 -52 -27 -117l-98 -502c-2 -10 -4 -19 -4 -29c0 -23 18 -24 52 -3l27 16l18 -22c-48 -47 -121 -103 -194 -103z" />
    <glyph glyph-name=".notdef" horiz-adv-x="500" 
 />
    <glyph glyph-name="Eth" unicode="&#xd0;" horiz-adv-x="712" 
d="M37 327l8 42h63l38 216c10 58 4 64 -27 73l-31 7l5 28h311c197 0 303 -105 303 -274c0 -249 -185 -419 -401 -419h-335l5 28l34 7c32 8 41 12 52 73l38 219h-63zM300 44c155 0 228 195 228 436c0 114 -41 169 -132 169c-29 0 -51 -4 -63 -9l-47 -271h134l-8 -42h-134
l-33 -192c-13 -67 -3 -91 55 -91z" />
    <glyph glyph-name="eth" unicode="&#xf0;" horiz-adv-x="546" 
d="M188 575l-14 35l109 50c-29 31 -64 58 -106 83l14 28c65 -20 121 -45 167 -76l111 51l14 -35l-90 -42c93 -77 138 -183 138 -315c0 -243 -159 -367 -304 -367c-138 0 -212 90 -212 210c0 204 147 328 281 328c36 0 61 -9 79 -24c-12 46 -34 90 -66 130zM232 26
c105 0 145 231 145 352c0 71 -20 108 -69 108c-97 0 -143 -188 -143 -350c0 -71 24 -110 67 -110z" />
    <glyph glyph-name="Lslash" unicode="&#x141;" horiz-adv-x="586" 
d="M-3 231l8 46l92 31l49 277c10 58 5 64 -27 73l-31 7l5 28h329l-5 -28l-41 -8c-32 -7 -41 -11 -52 -72l-38 -212l188 64l-8 -47l-188 -64l-34 -194c-12 -67 -8 -88 70 -88s100 14 135 57c27 32 51 72 91 144h31l-53 -245h-547l5 28l34 7c32 9 41 12 52 73l27 154z" />
    <glyph glyph-name="lslash" unicode="&#x142;" horiz-adv-x="300" 
d="M4 269l9 50l69 30l54 280c9 48 8 57 -19 69l-37 15l4 23l226 20l9 -8s-16 -52 -29 -117l-40 -207l80 36l-9 -50l-81 -36l-48 -245c-2 -10 -4 -19 -4 -30c0 -22 18 -22 53 -1l24 15l18 -22c-50 -48 -119 -103 -192 -103c-46 0 -63 34 -63 64c0 27 7 57 13 88l31 159z" />
    <glyph glyph-name="Scaron" unicode="&#x160;" horiz-adv-x="515" 
d="M504 879l8 -16l-149 -135h-49l-111 135l11 16l133 -54zM200 -13c-81 0 -164 21 -201 44l16 183h31c19 -55 33 -90 53 -124c22 -38 54 -60 110 -60c82 0 122 50 122 116c0 52 -28 89 -116 137c-104 58 -144 116 -144 197c0 133 118 225 267 225c84 0 136 -15 169 -31
l-15 -164h-29c-17 48 -29 77 -49 108c-19 29 -41 46 -94 46c-68 0 -111 -41 -111 -105c0 -51 31 -86 106 -127c118 -66 168 -122 168 -211c0 -130 -120 -234 -283 -234z" />
    <glyph glyph-name="scaron" unicode="&#x161;" horiz-adv-x="426" 
d="M241 573l-94 144l12 16l116 -62l143 62l10 -17l-139 -143h-48zM169 -12c-131 0 -183 53 -183 105c0 34 21 57 62 57c48 0 62 -17 79 -86c6 -24 20 -38 58 -38c51 0 79 28 79 69c0 36 -21 65 -92 110c-78 48 -121 94 -121 161c0 104 100 167 206 167
c119 0 165 -51 165 -99c0 -32 -21 -49 -57 -49c-45 0 -59 18 -74 72c-7 27 -21 38 -48 38c-43 0 -72 -22 -72 -62c0 -38 22 -62 105 -114c78 -46 113 -96 113 -155c0 -97 -89 -176 -220 -176z" />
    <glyph glyph-name="Yacute" unicode="&#xdd;" horiz-adv-x="631" 
d="M105 0l4 28l37 7c36 8 43 12 54 73l32 179l-85 286c-19 64 -28 77 -53 86l-19 6l5 28h318l-6 -28l-30 -6c-31 -7 -45 -24 -45 -49c0 -13 3 -31 13 -63l56 -200h4l127 201c23 37 32 54 32 75c0 17 -10 29 -36 36l-23 6l5 28h213l-6 -28l-20 -6c-31 -9 -52 -35 -92 -97
l-180 -273l-31 -181c-11 -58 -6 -65 27 -73l35 -7l-5 -28h-331zM539 763l-196 -39l-7 18l147 114c17 14 33 21 51 21c31 0 54 -30 54 -62c0 -24 -13 -45 -49 -52z" />
    <glyph glyph-name="yacute" unicode="&#xfd;" horiz-adv-x="499" 
d="M-5 -210c-54 0 -86 27 -86 71c0 35 25 57 56 57c50 0 57 -52 94 -52c25 0 55 21 103 76c-18 205 -42 367 -60 442c-15 54 -24 56 -67 26l-16 -11l-18 23c52 57 124 111 177 111c35 0 53 -18 66 -77c22 -103 38 -228 45 -347h3c66 97 128 211 128 281c0 36 -42 49 -42 90
c0 34 30 53 61 53c36 0 67 -24 67 -74c0 -91 -98 -267 -215 -424c-109 -149 -202 -245 -296 -245zM241 574l-8 18l133 117c18 16 35 24 53 24c30 0 51 -29 51 -58c0 -25 -14 -49 -48 -57z" />
    <glyph glyph-name="Thorn" unicode="&#xde;" horiz-adv-x="635" 
d="M240 108c-11 -60 -3 -64 27 -71l48 -9l-4 -28h-342l4 28l37 7c31 7 40 12 51 73l84 477c11 61 3 66 -26 73l-34 7l6 28h326l-5 -28l-37 -7c-32 -7 -41 -12 -51 -73l-6 -30h58c171 0 257 -62 257 -176c0 -125 -100 -225 -255 -225c-45 0 -82 9 -100 17l5 29
c116 -12 172 56 172 212c0 76 -26 102 -87 102c-23 0 -48 -5 -59 -8z" />
    <glyph glyph-name="thorn" unicode="&#xfe;" horiz-adv-x="572" 
d="M243 402h4c47 56 118 131 199 131c72 0 116 -65 116 -161c0 -212 -139 -385 -321 -385c-30 0 -53 6 -72 14c0 0 -2 -25 -8 -53l-11 -62c-8 -45 -7 -50 23 -57l34 -8l-5 -27h-287l4 27l28 7c33 9 39 16 47 58l144 743c9 48 7 57 -19 69l-35 15l4 23l223 20l10 -8
s-16 -52 -29 -117l-25 -137c-8 -38 -20 -78 -24 -92zM249 26c92 0 158 164 158 344c0 48 -15 65 -43 65c-43 0 -98 -50 -128 -89l-56 -276c12 -22 33 -44 69 -44z" />
    <glyph glyph-name="Zcaron" unicode="&#x17d;" horiz-adv-x="567" 
d="M538 879l8 -16l-149 -135h-49l-111 135l11 16l133 -54zM-28 0l8 44l440 605v3h-30c-128 0 -151 -9 -187 -49c-30 -33 -47 -63 -91 -132h-31l45 222h501l-8 -44l-440 -602v-4h37c142 0 161 9 203 54c35 37 60 78 100 147h32l-52 -244h-527z" />
    <glyph glyph-name="zcaron" unicode="&#x17e;" horiz-adv-x="450" 
d="M279 573l-94 144l12 16l116 -62l143 62l10 -17l-139 -143h-48zM263 -17c-78 0 -127 86 -204 86c-21 0 -43 -30 -64 -77h-6l-39 34v6c39 29 70 56 98 83l277 264c-88 3 -152 40 -221 40c-9 0 -17 -5 -17 -13c-1 -13 52 -12 52 -53c0 -28 -17 -47 -47 -47
c-36 0 -54 26 -54 60c0 60 88 168 170 168s143 -82 186 -82c28 0 44 27 65 74h7l37 -29v-8c-34 -26 -60 -52 -104 -94l-256 -246c74 -4 135 -32 184 -32c29 0 45 12 79 60l26 -11c-59 -115 -103 -183 -169 -183z" />
    <glyph glyph-name="onehalf" unicode="&#xbd;" horiz-adv-x="779" 
d="M21 308l4 27l22 5c26 7 30 9 37 46l36 202l-51 8l4 26c71 10 130 37 170 80l21 -6l-55 -312c-6 -34 -2 -39 23 -45l19 -4l-4 -27h-226zM18 -50l624 764h65l-623 -764h-66zM411 0l8 56c54 36 102 70 137 104c50 47 79 93 79 155c0 33 -17 47 -41 47c-13 0 -21 -5 -23 -25
c-7 -51 -21 -63 -54 -63c-34 0 -48 18 -48 41c0 47 59 77 137 77c84 0 143 -35 143 -103c0 -77 -88 -137 -233 -198v-3h131c26 0 32 7 57 47h25l-27 -135h-291z" />
    <glyph glyph-name="onequarter" unicode="&#xbc;" horiz-adv-x="749" 
d="M21 308l4 27l22 5c26 7 30 9 37 46l36 202l-51 8l4 26c71 10 130 37 170 80l21 -6l-55 -312c-6 -34 -2 -39 23 -45l19 -4l-4 -27h-226zM23 -50l623 764h65l-623 -764h-65zM439 0l5 26l20 5c26 7 30 12 36 44l6 30h-156l6 36l229 244h93l-42 -235h54l-7 -45h-55l-5 -27
c-6 -37 -5 -42 19 -47l21 -5l-4 -26h-220zM414 150h100l22 131h-3l-119 -127v-4z" />
    <glyph glyph-name="onesuperior" unicode="&#xb9;" horiz-adv-x="255" 
d="M21 308l4 27l22 5c26 7 30 9 37 46l36 202l-51 8l4 26c71 10 130 37 170 80l21 -6l-55 -312c-6 -34 -2 -39 23 -45l19 -4l-4 -27h-226z" />
    <glyph glyph-name="threequarters" unicode="&#xbe;" horiz-adv-x="778" 
d="M151 300c-80 0 -129 24 -129 73c0 28 19 44 46 44c35 0 46 -13 51 -59c3 -22 5 -29 24 -29c43 0 68 47 68 108c0 44 -24 55 -61 55h-27l6 36h19c57 0 79 33 79 93c0 32 -12 50 -34 50c-15 0 -22 -6 -24 -26c-5 -43 -17 -54 -48 -54c-30 0 -46 16 -46 37
c0 43 52 72 131 72s136 -32 136 -86c0 -49 -34 -83 -116 -96v-2c63 -6 108 -37 108 -91c0 -81 -75 -125 -183 -125zM54 -50l623 764h65l-622 -764h-66zM467 0l5 26l20 5c26 7 30 12 36 44l6 30h-156l6 36l229 244h93l-42 -235h54l-7 -45h-55l-5 -27c-6 -37 -5 -42 19 -47
l21 -5l-4 -26h-220zM442 150h100l22 131h-3l-119 -127v-4z" />
    <glyph glyph-name="threesuperior" unicode="&#xb3;" horiz-adv-x="332" 
d="M151 300c-80 0 -129 24 -129 73c0 28 19 44 46 44c35 0 46 -13 51 -59c3 -22 5 -29 24 -29c43 0 68 47 68 108c0 44 -24 55 -61 55h-27l6 36h19c57 0 79 33 79 93c0 32 -12 50 -34 50c-15 0 -22 -6 -24 -26c-5 -43 -17 -54 -48 -54c-30 0 -46 16 -46 37
c0 43 52 72 131 72s136 -32 136 -86c0 -49 -34 -83 -116 -96v-2c63 -6 108 -37 108 -91c0 -81 -75 -125 -183 -125z" />
    <glyph glyph-name="twosuperior" unicode="&#xb2;" horiz-adv-x="331" 
d="M16 308l8 56c54 36 102 70 137 104c50 47 79 94 79 155c0 34 -17 47 -42 47c-12 0 -20 -5 -23 -25c-6 -50 -20 -63 -53 -63c-35 0 -48 19 -48 41c0 47 59 77 136 77c85 0 143 -35 143 -103c0 -77 -87 -137 -232 -198v-3h131c26 0 32 7 57 48h25l-27 -136h-291z" />
    <glyph glyph-name="brokenbar" unicode="&#xa6;" horiz-adv-x="240" 
d="M161 734v-409h-51v409h51zM110 -130v387h51v-387h-51z" />
    <glyph glyph-name="minus" unicode="&#x2212;" horiz-adv-x="461" 
d="M43 310v57h398v-57h-398z" />
    <glyph glyph-name="multiply" unicode="&#xd7;" horiz-adv-x="430" 
d="M88 149l-42 40l141 150l-137 146l43 40l134 -144l135 144l41 -40l-136 -146l141 -150l-42 -40l-139 147z" />
    <glyph glyph-name="space" unicode=" " horiz-adv-x="214" 
 />
    <glyph glyph-name="exclam" unicode="!" horiz-adv-x="280" 
d="M109 -7c-44 0 -82 38 -82 83c0 47 38 82 82 82s82 -35 82 -82c0 -45 -38 -83 -82 -83zM146 215h-32l-9 368c-4 87 38 120 103 120c67 0 117 -47 75 -142z" />
    <glyph glyph-name="quotedbl" unicode="&#x22;" horiz-adv-x="352" 
d="M115 449l-25 162c-12 74 36 98 79 96c45 -2 81 -35 44 -105l-76 -153h-22zM286 449l-23 159c-12 73 34 100 77 100c45 0 84 -31 46 -103l-79 -156h-21z" />
    <glyph glyph-name="numbersign" unicode="#" horiz-adv-x="467" 
d="M49 0l47 180h-87l27 106h90l33 124h-89l28 106h91l46 177h54l-49 -177h111l49 177h52l-48 -177h89l-27 -106h-91l-32 -124h89l-28 -106h-91l-48 -180h-52l47 180h-111l-48 -180h-52zM178 286h112l32 124h-110z" />
    <glyph glyph-name="dollar" unicode="$" horiz-adv-x="515" 
d="M157 -110l17 100c-125 6 -190 60 -190 125c0 45 29 66 70 66c45 0 67 -15 74 -76c5 -44 11 -69 53 -77l44 253c-109 61 -156 116 -156 200c0 123 108 213 246 222l11 64h43l-12 -64c123 -5 188 -58 188 -121c0 -44 -29 -64 -70 -64c-45 0 -67 15 -73 74
c-5 42 -8 64 -52 72l-41 -232c1 -1 2 -2 4 -2c120 -64 171 -117 171 -211c0 -115 -105 -222 -268 -229l-17 -100h-42zM342 143c0 53 -25 83 -78 116l-41 -233c75 5 119 51 119 117zM200 558c0 -38 15 -69 71 -104l37 213c-54 -3 -108 -37 -108 -109z" />
    <glyph glyph-name="percent" unicode="%" horiz-adv-x="750" 
d="M169 455c0 -55 15 -78 43 -78c57 0 90 134 90 217c0 55 -13 78 -42 78c-58 0 -91 -138 -91 -217zM209 344c-80 0 -150 51 -150 145c0 126 108 216 203 216c78 0 151 -50 151 -143c0 -129 -107 -218 -204 -218zM37 -50l621 764h63l-619 -764h-65zM478 98
c0 -55 15 -78 43 -78c57 0 90 134 90 217c0 55 -14 78 -42 78c-58 0 -91 -138 -91 -217zM368 132c0 126 107 216 203 216c78 0 150 -50 150 -143c0 -129 -106 -218 -203 -218c-80 0 -150 51 -150 145z" />
    <glyph glyph-name="ampersand" unicode="&#x26;" horiz-adv-x="718" 
d="M714 382l-5 -27l-25 -7c-30 -8 -49 -26 -71 -62c-30 -48 -51 -85 -87 -128c22 -31 44 -60 66 -86c15 -18 32 -31 50 -37l28 -7l-4 -28h-221c-12 13 -24 28 -36 43c-47 -34 -101 -55 -175 -55c-150 0 -220 81 -220 168c0 113 91 181 195 216c-15 37 -22 76 -22 118
c0 129 97 215 217 215c100 0 155 -62 155 -124c0 -96 -93 -146 -188 -180c42 -72 87 -143 131 -208c30 44 53 94 53 122c0 18 -12 26 -32 32l-24 8l5 27h210zM292 45c36 0 65 11 93 30c-53 73 -110 163 -164 271c-36 -36 -53 -85 -53 -152c0 -102 52 -149 124 -149zM323 559
c0 -44 11 -86 34 -132c56 31 99 72 99 154c0 54 -21 86 -56 86c-47 0 -77 -39 -77 -108z" />
    <glyph glyph-name="quotesingle" unicode="'" horiz-adv-x="180" 
d="M114 449l-24 159c-11 74 35 100 78 100c46 0 85 -31 47 -103l-79 -156h-22z" />
    <glyph glyph-name="parenleft" unicode="(" horiz-adv-x="345" 
d="M245 -140c-85 85 -180 215 -180 386c0 237 182 407 330 500l20 -19c-150 -125 -242 -312 -242 -514c0 -142 38 -255 96 -336z" />
    <glyph glyph-name="parenright" unicode=")" horiz-adv-x="345" 
d="M106 746c85 -85 180 -215 180 -386c0 -237 -182 -407 -330 -500l-20 19c150 125 244 311 244 514c-1 142 -40 255 -98 336z" />
    <glyph glyph-name="asterisk" unicode="*" horiz-adv-x="341" 
d="M111 424c-22 20 -25 59 24 81l79 37l-84 7c-53 3 -61 39 -48 66c13 26 46 41 82 2l55 -61l-19 83c-12 53 20 71 49 67s55 -30 27 -78l-42 -74l70 46c45 29 74 4 79 -25c4 -29 -15 -61 -66 -50l-83 14l65 -55c41 -33 26 -69 0 -83c-26 -13 -63 -5 -68 47l-8 83l-34 -78
c-20 -48 -56 -50 -78 -29z" />
    <glyph glyph-name="plus" unicode="+" horiz-adv-x="461" 
d="M211 130v180h-167v57h167v179h64v-179h167v-57h-167v-180h-64z" />
    <glyph glyph-name="comma" unicode="," horiz-adv-x="237" 
d="M-25 -114l-6 22c73 32 113 72 121 118c-6 -5 -17 -9 -28 -9c-32 0 -61 24 -61 67c0 45 39 73 79 73c51 0 89 -39 89 -98c0 -88 -85 -151 -194 -173z" />
    <glyph glyph-name="hyphen" unicode="-" horiz-adv-x="270" 
d="M23 239l18 100h216l-19 -100h-215z" />
    <glyph glyph-name="period" unicode="." horiz-adv-x="229" 
d="M79 -7c-44 0 -80 38 -80 83c2 47 41 82 85 82c43 0 80 -35 80 -82c-1 -45 -41 -83 -85 -83z" />
    <glyph glyph-name="slash" unicode="/" horiz-adv-x="382" 
d="M-66 -130l452 864h59l-452 -864h-59z" />
    <glyph glyph-name="zero" unicode="0" horiz-adv-x="654" 
d="M288 -13c-139 0 -255 94 -255 273c0 285 206 445 364 445c133 0 254 -92 254 -274c0 -285 -206 -444 -363 -444zM293 27c127 0 189 315 189 470c0 128 -33 168 -90 168c-126 0 -189 -305 -189 -471c0 -129 33 -167 90 -167z" />
    <glyph glyph-name="one" unicode="1" horiz-adv-x="387" 
d="M-24 0l6 28l39 7c39 8 47 12 58 73l75 433l-83 10l5 30c103 17 198 60 258 121l26 -7l-103 -587c-10 -59 -7 -65 29 -73l39 -7l-4 -28h-345z" />
    <glyph glyph-name="two" unicode="2" horiz-adv-x="521" 
d="M-34 0l15 80c100 72 170 129 232 185c98 92 155 177 155 304c0 72 -34 97 -84 97c-28 0 -41 -12 -45 -47c-11 -78 -34 -100 -83 -100c-54 0 -73 30 -73 66c0 71 86 120 215 120c135 0 235 -61 235 -178c0 -168 -206 -283 -423 -396v-5h243c49 0 59 8 101 78h29l-47 -204
h-470z" />
    <glyph glyph-name="three" unicode="3" horiz-adv-x="540" 
d="M196 -13c-131 0 -210 39 -210 119c0 44 26 69 72 69s69 -17 74 -87c4 -49 8 -61 51 -61c95 0 141 109 141 209c0 73 -33 104 -100 104h-48l8 43h40c109 0 136 77 136 185c0 63 -25 97 -77 97c-28 0 -46 -8 -49 -38c-8 -68 -25 -95 -77 -95c-43 0 -68 22 -68 57
c0 69 83 116 208 116c139 0 224 -61 224 -152c0 -89 -56 -159 -193 -184v-4c104 -14 172 -65 172 -155c0 -133 -122 -223 -304 -223z" />
    <glyph glyph-name="four" unicode="4" horiz-adv-x="576" 
d="M165 0l4 28l35 7c37 9 45 11 56 73l15 86h-273l9 54l413 445h114l-76 -427h97l-16 -72h-93l-15 -86c-10 -59 -4 -66 28 -73l36 -7l-4 -28h-330zM93 266h194l46 261h-3l-237 -258v-3z" />
    <glyph glyph-name="five" unicode="5" horiz-adv-x="528" 
d="M189 -13c-118 0 -193 38 -193 117c0 40 25 69 70 69c49 0 69 -18 72 -83c3 -52 11 -63 58 -63c74 0 144 57 144 162c0 88 -60 127 -146 127c-56 0 -95 -11 -114 -19l-10 9l99 387h283c31 0 38 7 67 53h30l-43 -179h-322l-34 -134c18 7 53 17 111 17
c138 0 234 -73 234 -195c0 -163 -152 -268 -306 -268z" />
    <glyph glyph-name="six" unicode="6" horiz-adv-x="594" 
d="M273 -13c-132 0 -241 89 -241 257c0 285 230 461 414 461c119 0 170 -39 170 -100c0 -43 -23 -66 -69 -66c-54 0 -71 22 -74 88c-2 33 -13 39 -42 39c-72 0 -157 -86 -206 -296c32 21 83 44 152 44c108 0 187 -62 187 -171c0 -144 -117 -256 -291 -256zM272 27
c84 0 119 134 119 231c0 70 -26 99 -82 99c-38 0 -67 -11 -91 -24c-13 -59 -24 -132 -24 -194c0 -66 20 -112 78 -112z" />
    <glyph glyph-name="seven" unicode="7" horiz-adv-x="500" 
d="M56 0c80 245 236 416 410 566h-290c-41 0 -49 -9 -90 -81h-28l50 208h459l-14 -76c-175 -189 -262 -376 -309 -617h-188z" />
    <glyph glyph-name="eight" unicode="8" horiz-adv-x="566" 
d="M253 -13c-147 0 -248 68 -248 164c0 87 78 144 181 181v3c-58 40 -90 94 -90 153c0 136 127 217 255 217c113 0 214 -54 214 -151c0 -79 -76 -128 -161 -162v-3c81 -49 126 -101 126 -172c0 -129 -120 -230 -277 -230zM259 27c79 0 135 47 135 121c0 62 -59 98 -180 167
c-40 -36 -81 -74 -81 -163c0 -73 41 -125 126 -125zM371 410c39 33 77 74 77 145c0 73 -38 111 -103 111c-70 0 -119 -46 -119 -110c0 -55 51 -96 145 -146z" />
    <glyph glyph-name="nine" unicode="9" horiz-adv-x="594" 
d="M182 -13c-119 0 -171 40 -171 100c0 43 23 66 69 66c53 0 74 -23 78 -87c2 -33 11 -39 37 -39c87 0 168 90 203 295c-32 -21 -82 -43 -151 -43c-108 0 -185 61 -185 169c0 142 122 257 291 257c135 0 240 -85 240 -255c0 -270 -207 -463 -411 -463zM314 336
c38 0 67 10 91 23c15 70 23 139 23 190c0 70 -20 116 -78 116c-84 0 -118 -132 -118 -230c0 -69 26 -99 82 -99z" />
    <glyph glyph-name="colon" unicode=":" horiz-adv-x="233" 
d="M86 -7c-44 0 -83 38 -83 83c0 47 39 82 83 82c43 0 82 -35 82 -82c0 -45 -39 -83 -82 -83zM134 273c-44 0 -83 39 -83 83c0 47 39 82 83 82s82 -35 82 -82c0 -44 -38 -83 -82 -83z" />
    <glyph glyph-name="semicolon" unicode=";" horiz-adv-x="237" 
d="M-21 -114l-6 22c73 32 113 72 121 118c-6 -5 -17 -9 -28 -9c-32 0 -61 24 -61 67c0 45 39 73 79 73c51 0 89 -39 89 -98c0 -88 -85 -151 -194 -173zM134 273c-44 0 -83 39 -83 83c0 47 39 82 83 82s82 -35 82 -82c0 -44 -38 -83 -82 -83z" />
    <glyph glyph-name="less" unicode="&#x3c;" horiz-adv-x="467" 
d="M439 122l-398 182v55l398 182v-62l-333 -147l333 -146v-64z" />
    <glyph glyph-name="equal" unicode="=" horiz-adv-x="510" 
d="M43 385v57h447v-57h-447zM43 235v57h447v-57h-447z" />
    <glyph glyph-name="greater" unicode="&#x3e;" horiz-adv-x="467" 
d="M48 122v64l333 146l-333 147v63l397 -183v-55z" />
    <glyph glyph-name="question" unicode="?" horiz-adv-x="465" 
d="M129 215l32 182c82 17 174 48 174 185c0 58 -35 82 -72 82c-23 0 -32 -8 -37 -44c-9 -58 -33 -76 -78 -76s-64 26 -64 57c0 66 62 104 164 104c143 0 234 -67 234 -173c0 -146 -128 -216 -287 -235l-14 -82h-52zM143 -7c-45 0 -83 38 -83 83c0 47 38 82 83 82
c43 0 82 -35 82 -82c0 -45 -39 -83 -82 -83z" />
    <glyph glyph-name="at" unicode="@" horiz-adv-x="878" 
d="M395 -146c-219 0 -373 128 -373 342c0 259 233 474 482 474c223 0 360 -128 360 -298c0 -239 -163 -339 -290 -339c-83 0 -104 42 -104 97h-3c-37 -53 -91 -95 -152 -95c-63 0 -104 41 -104 126c0 186 151 335 288 335c54 0 93 -17 124 -40h3l50 36l14 -8
s-12 -28 -33 -113l-47 -193c-13 -56 -14 -96 28 -96c64 0 148 84 148 265c0 169 -96 286 -285 286c-201 0 -388 -162 -388 -420c0 -188 105 -315 313 -315c91 0 177 24 240 53l-8 -36c-52 -29 -157 -61 -263 -61zM390 115c31 0 52 29 80 67l59 248c-5 17 -14 30 -39 30
c-68 0 -139 -165 -139 -288c0 -43 14 -57 39 -57z" />
    <glyph glyph-name="A" unicode="A" horiz-adv-x="657" 
d="M-47 0l5 28l24 6c31 9 41 20 87 102l307 557h97l81 -560c11 -75 20 -92 45 -100l20 -5l-5 -28h-319l5 28l29 7c30 6 45 21 45 44c1 17 -2 42 -5 69l-9 71h-190l-37 -72c-17 -32 -29 -58 -29 -77s9 -29 32 -35l27 -7l-5 -28h-205zM322 508l-129 -245h162l-28 245h-5z" />
    <glyph glyph-name="B" unicode="B" horiz-adv-x="642" 
d="M-29 0l5 28l34 7c32 9 41 13 52 73l84 477c10 58 5 64 -27 73l-31 7l5 28h297c153 0 239 -51 239 -151s-74 -156 -199 -174v-5c116 -15 178 -65 178 -153c0 -137 -109 -210 -290 -210h-347zM304 44c79 0 128 76 128 195c0 71 -28 103 -103 103h-51l-41 -233
c-8 -45 4 -65 67 -65zM286 384h45c91 0 128 67 128 171c0 67 -25 94 -79 94c-24 0 -38 -3 -48 -6z" />
    <glyph glyph-name="C" unicode="C" horiz-adv-x="609" 
d="M339 -12c-178 0 -304 108 -304 287c0 273 215 430 421 430c70 0 136 -13 174 -29l-18 -201h-30c-14 51 -30 101 -49 132c-24 41 -47 57 -92 57c-154 0 -227 -266 -227 -463c0 -123 40 -171 131 -171c48 0 83 22 115 62c28 33 58 83 91 137h29l-48 -209
c-41 -16 -111 -32 -193 -32z" />
    <glyph glyph-name="D" unicode="D" 
d="M-29 0l5 28l34 7c32 8 41 12 52 73l84 477c10 58 4 64 -27 73l-31 7l5 28h311c197 0 303 -105 303 -274c0 -245 -185 -419 -401 -419h-335zM300 44c155 0 228 202 228 436c0 114 -41 169 -132 169c-29 0 -51 -4 -63 -9l-88 -505c-13 -67 -3 -91 55 -91z" />
    <glyph glyph-name="E" unicode="E" horiz-adv-x="621" 
d="M-29 0l5 28l34 7c32 9 41 12 52 73l84 477c10 58 5 64 -27 73l-31 7l5 28h522l-13 -202h-30c-16 56 -26 85 -37 107c-22 43 -44 51 -111 51c-46 0 -74 -6 -91 -10l-45 -258h28c65 0 80 7 96 29c18 23 28 46 43 78h29l-46 -262h-29c-3 32 -6 56 -14 82
c-8 25 -22 30 -89 30h-26l-34 -194c-14 -82 -5 -100 77 -100c83 0 102 11 143 61c25 30 51 69 88 133h32l-58 -238h-557z" />
    <glyph glyph-name="F" unicode="F" horiz-adv-x="579" 
d="M-29 0l5 28l34 7c31 8 40 12 52 73l84 477c10 59 3 65 -27 73l-31 7l5 28h522l-12 -207h-31c-16 56 -26 82 -41 110c-21 41 -39 53 -112 53c-44 0 -70 -5 -86 -9l-47 -270h20c75 0 86 7 104 30s30 46 46 82h29l-48 -272h-29c-1 35 -5 60 -13 86c-8 27 -20 31 -96 31h-21
l-38 -219c-10 -60 -7 -65 26 -72l43 -8l-4 -28h-334z" />
    <glyph glyph-name="G" unicode="G" horiz-adv-x="674" 
d="M347 -12c-195 0 -313 111 -313 284c0 280 208 433 421 433c80 0 151 -13 190 -32l-19 -201h-31c-17 58 -31 99 -51 134c-23 42 -46 58 -100 58c-149 0 -230 -250 -230 -473c0 -110 32 -161 125 -161c31 0 51 6 69 19l27 151c10 57 4 65 -29 73l-29 8l5 27h298l-5 -27
l-26 -7c-29 -8 -34 -13 -45 -74l-31 -176c-53 -20 -135 -36 -226 -36z" />
    <glyph glyph-name="H" unicode="H" horiz-adv-x="746" 
d="M-29 0l5 28l34 7c32 9 41 12 52 73l84 477c10 58 5 64 -27 73l-31 7l5 28h321l-6 -28l-33 -7c-32 -9 -40 -12 -51 -73l-37 -208h217l36 208c11 58 5 64 -27 73l-29 7l5 28h320l-5 -28l-35 -7c-31 -7 -39 -12 -50 -73l-84 -477c-10 -58 -6 -65 25 -73l32 -7l-5 -28h-320
l4 28l33 7c33 9 41 12 52 73l39 223h-216l-39 -223c-10 -58 -6 -64 25 -73l31 -7l-4 -28h-321z" />
    <glyph glyph-name="I" unicode="I" horiz-adv-x="358" 
d="M-29 0l5 28l37 7c33 8 41 12 52 73l84 477c10 58 5 65 -26 73l-35 7l5 28h329l-6 -28l-38 -7c-32 -7 -40 -12 -50 -73l-84 -477c-10 -58 -6 -66 25 -73l35 -7l-4 -28h-329z" />
    <glyph glyph-name="J" unicode="J" horiz-adv-x="354" 
d="M-37 -184c-88 0 -138 40 -138 94c0 38 25 65 69 65c51 0 68 -18 73 -95c1 -19 5 -23 17 -23c21 0 36 16 48 82l114 646c10 58 5 64 -27 73l-31 7l5 28h322l-5 -28l-35 -7c-32 -8 -40 -12 -51 -73l-90 -510c-26 -146 -123 -259 -271 -259z" />
    <glyph glyph-name="K" unicode="K" horiz-adv-x="708" 
d="M438 0c-53 100 -105 230 -136 333l4 19l202 197c36 36 58 61 58 79c0 13 -11 24 -32 30l-25 7l6 28h232l-5 -28l-17 -4c-43 -12 -70 -36 -133 -94l-147 -137c43 -128 106 -281 154 -369c9 -17 20 -21 40 -27l22 -6l-5 -28h-218zM-29 0l5 28l34 7c32 9 41 12 52 73l84 477
c10 58 5 64 -27 73l-31 7l5 28h321l-6 -28l-33 -7c-32 -9 -40 -12 -51 -73l-84 -477c-10 -58 -6 -64 25 -73l31 -7l-4 -28h-321z" />
    <glyph glyph-name="L" unicode="L" horiz-adv-x="586" 
d="M-29 0l5 28l34 7c32 9 41 12 52 73l84 477c10 58 5 64 -27 73l-31 7l5 28h329l-5 -28l-41 -8c-32 -7 -41 -11 -52 -72l-80 -453c-12 -67 -8 -88 70 -88s100 14 135 57c27 32 51 72 91 144h31l-53 -245h-547z" />
    <glyph glyph-name="M" unicode="M" horiz-adv-x="853" 
d="M-29 0l5 28l30 7c36 9 48 22 60 96l80 454c10 58 5 64 -27 73l-31 7l5 28h268l63 -418h4l210 418h278l-5 -28l-35 -7c-31 -7 -40 -12 -51 -73l-84 -477c-10 -58 -4 -65 25 -73l33 -7l-5 -28h-321l5 28l33 7c32 8 41 12 52 73l86 491h-4l-290 -584h-62l-90 584h-4
l-84 -476c-12 -70 -7 -80 31 -89l27 -6l-4 -28h-198z" />
    <glyph glyph-name="N" unicode="N" horiz-adv-x="673" 
d="M481 -1l-280 591h-4l-82 -467c-12 -71 -5 -80 35 -89l30 -6l-4 -28h-205l5 28l30 7c38 9 47 23 60 94l80 456c10 58 5 64 -27 73l-31 7l5 28h248l201 -419h3l51 296c12 69 6 79 -31 88l-35 7l5 28h205l-5 -28l-30 -7c-36 -8 -45 -16 -59 -96l-99 -563h-66z" />
    <glyph glyph-name="O" unicode="O" 
d="M318 -13c-158 0 -284 112 -284 289c0 262 202 429 389 429c156 0 284 -102 284 -286c0 -269 -201 -432 -389 -432zM322 29c128 0 206 241 206 447c0 115 -25 187 -107 187c-131 0 -208 -251 -208 -449c0 -112 22 -185 109 -185z" />
    <glyph glyph-name="P" unicode="P" horiz-adv-x="633" 
d="M-29 0l5 28l34 7c32 8 41 12 52 73l84 477c10 59 4 64 -24 72l-34 8l5 28h307c167 0 253 -64 253 -183c0 -129 -98 -234 -252 -234c-45 0 -81 9 -100 18l6 30c117 -12 171 59 171 220c0 82 -27 105 -87 105c-21 0 -47 -4 -57 -7l-94 -534c-10 -59 -6 -63 27 -71l41 -9
l-5 -28h-332z" />
    <glyph glyph-name="Q" unicode="Q" 
d="M506 -174c-70 0 -122 24 -176 67c-30 24 -76 70 -116 112c-102 36 -180 136 -180 273c0 263 205 427 392 427c150 0 281 -101 281 -288c0 -219 -143 -362 -293 -402v-3c21 -24 49 -49 78 -70c40 -30 78 -38 111 -38c29 0 58 9 78 17l-3 -27c-28 -26 -94 -68 -172 -68z
M322 28c126 0 206 242 206 452c0 111 -25 183 -107 183c-130 0 -208 -251 -208 -450c0 -111 23 -185 109 -185z" />
    <glyph glyph-name="R" unicode="R" horiz-adv-x="689" 
d="M-29 0l5 28l34 7c32 9 41 11 52 73l84 477c10 58 5 64 -27 73l-31 7l5 28h303c181 0 255 -69 256 -171c0 -95 -62 -158 -158 -183v-5c28 -92 72 -204 112 -274c9 -14 16 -20 38 -28l14 -4l-4 -28h-209c-44 83 -90 211 -113 303h-58l-34 -195c-10 -58 -6 -66 23 -73l33 -7
l-4 -28h-321zM331 342c107 0 146 91 146 207c0 73 -26 100 -88 100c-25 0 -45 -3 -56 -7l-52 -296c5 -1 26 -4 50 -4z" />
    <glyph glyph-name="S" unicode="S" horiz-adv-x="515" 
d="M200 -13c-81 0 -164 21 -201 44l16 183h31c19 -55 33 -90 53 -124c22 -38 54 -60 110 -60c82 0 122 50 122 116c0 52 -28 89 -116 137c-104 58 -144 116 -144 197c0 133 118 225 267 225c84 0 136 -15 169 -31l-15 -164h-29c-17 48 -29 77 -49 108c-19 29 -41 46 -94 46
c-68 0 -111 -41 -111 -105c0 -51 31 -86 106 -127c118 -66 168 -122 168 -211c0 -130 -120 -234 -283 -234z" />
    <glyph glyph-name="T" unicode="T" horiz-adv-x="621" 
d="M100 0l5 28l37 7c36 8 43 12 54 73l95 541h-8c-59 0 -72 -4 -102 -39c-36 -39 -64 -89 -103 -158h-31l51 241h576l-31 -241h-31c-16 68 -26 116 -46 157c-16 36 -29 40 -88 40h-9l-95 -541c-10 -58 -6 -66 27 -73l36 -7l-5 -28h-332z" />
    <glyph glyph-name="U" unicode="U" horiz-adv-x="685" 
d="M344 -13c-172 0 -297 75 -263 269l59 329c10 58 5 64 -27 73l-31 7l6 28h321l-6 -28l-34 -7c-32 -8 -40 -12 -51 -73l-63 -361c-21 -116 19 -173 128 -173c104 0 145 54 163 154l64 365c13 74 5 79 -34 88l-33 7l5 28h206l-5 -28l-32 -7c-31 -7 -44 -14 -57 -91l-66 -374
c-21 -118 -96 -206 -250 -206z" />
    <glyph glyph-name="V" unicode="V" horiz-adv-x="661" 
d="M231 0l-95 560c-11 69 -15 92 -45 100l-20 5l5 28h320l-6 -28l-31 -7c-29 -6 -44 -24 -44 -53c0 -16 2 -36 6 -60l50 -359h5l180 360c18 34 29 61 29 80c0 18 -11 27 -33 33l-26 6l5 28h211l-6 -28l-22 -6c-33 -9 -47 -28 -87 -102l-296 -557h-100z" />
    <glyph glyph-name="W" unicode="W" horiz-adv-x="985" 
d="M210 0l-70 570c-9 67 -15 84 -44 90l-23 5l6 28h311l-6 -28l-22 -5c-30 -8 -44 -23 -44 -57c0 -16 2 -39 4 -58l37 -348h5l147 297l-10 90c-6 49 -15 68 -40 75l-21 6l6 28h311l-6 -28l-30 -7c-34 -7 -46 -27 -46 -60c0 -15 2 -33 4 -53l35 -348h5l165 349
c14 29 27 60 27 83c0 18 -11 27 -34 32l-23 4l5 28h204l-5 -28l-20 -5c-31 -9 -52 -37 -91 -114l-277 -546h-103l-45 408h-3l-204 -408h-105z" />
    <glyph glyph-name="X" unicode="X" horiz-adv-x="677" 
d="M-35 0l5 28l16 4c32 8 55 22 110 88l174 212l-105 254c-19 45 -26 59 -58 73l-17 6l5 28h331l-5 -28l-37 -7c-20 -4 -36 -17 -36 -38c0 -12 3 -27 16 -60l53 -139h3l105 142c24 32 31 51 31 69c0 15 -9 22 -31 27l-25 6l5 28h220l-5 -28l-19 -5c-34 -9 -50 -25 -104 -91
l-155 -195l111 -265c26 -61 36 -69 59 -76l15 -5l-4 -28h-326l4 28l33 6c22 4 39 17 39 37c0 13 -5 33 -16 61l-63 156h-3l-114 -151c-25 -34 -42 -58 -42 -77c0 -13 8 -22 28 -26l27 -6l-4 -28h-221z" />
    <glyph glyph-name="Y" unicode="Y" horiz-adv-x="631" 
d="M105 0l4 28l37 7c36 8 43 12 54 73l32 179l-85 286c-19 64 -28 77 -53 86l-19 6l5 28h318l-6 -28l-30 -6c-31 -7 -45 -24 -45 -49c0 -13 3 -31 13 -63l56 -200h4l127 201c23 37 32 54 32 75c0 17 -10 29 -36 36l-23 6l5 28h213l-6 -28l-20 -6c-31 -9 -52 -35 -92 -97
l-180 -273l-31 -181c-11 -58 -6 -65 27 -73l35 -7l-5 -28h-331z" />
    <glyph glyph-name="Z" unicode="Z" horiz-adv-x="567" 
d="M-28 0l8 44l440 605v3h-30c-128 0 -151 -9 -187 -49c-30 -33 -47 -63 -91 -132h-31l45 222h501l-8 -44l-440 -602v-4h37c142 0 161 9 203 54c35 37 60 78 100 147h32l-52 -244h-527z" />
    <glyph glyph-name="bracketleft" unicode="[" horiz-adv-x="354" 
d="M39 -130l153 864h224l-5 -28l-66 -7c-50 -6 -61 -12 -72 -75l-114 -644c-11 -62 -4 -69 46 -75l64 -7l-5 -28h-225z" />
    <glyph glyph-name="backslash" unicode="\" horiz-adv-x="382" 
d="M256 -130l-172 864h54l172 -864h-54z" />
    <glyph glyph-name="bracketright" unicode="]" horiz-adv-x="354" 
d="M-43 -130l5 28l66 7c51 6 61 13 72 75l115 644c10 62 3 69 -47 75l-64 7l5 28h224l-153 -864h-223z" />
    <glyph glyph-name="asciicircum" unicode="^" horiz-adv-x="369" 
d="M67 442l-13 17l175 238h49l110 -239l-17 -16l-131 137z" />
    <glyph glyph-name="underscore" unicode="_" horiz-adv-x="350" 
d="M-57 -169l9 56h350l-10 -56h-349z" />
    <glyph glyph-name="grave" unicode="`" horiz-adv-x="500" 
d="M407 574l-181 44c-34 7 -45 33 -45 54c0 31 23 60 54 60c18 0 36 -8 53 -25l127 -115z" />
    <glyph glyph-name="a" unicode="a" horiz-adv-x="572" 
d="M127 -13c-78 0 -120 57 -120 144c0 216 169 402 327 402c64 0 101 -16 136 -41h4l64 43l17 -7s-20 -49 -42 -156l-49 -242c-2 -11 -3 -19 -3 -28c0 -23 15 -26 48 -6l24 15l18 -22c-46 -44 -118 -101 -188 -101c-51 0 -58 39 -58 64c0 14 3 36 6 51h-4
c-45 -59 -106 -116 -180 -116zM204 78c40 0 82 44 113 86l61 291c-7 22 -19 39 -50 39c-77 0 -165 -178 -165 -350c0 -46 13 -66 41 -66z" />
    <glyph glyph-name="b" unicode="b" horiz-adv-x="568" 
d="M225 -13c-103 0 -159 32 -200 73v8l108 561c10 48 8 57 -18 69l-35 15l3 23l224 20l9 -8s-16 -52 -28 -117l-26 -137c-7 -38 -19 -78 -23 -92h4c46 55 118 131 199 131c70 0 115 -65 115 -158c0 -218 -142 -388 -332 -388zM242 26c91 0 161 164 161 344
c0 48 -15 65 -44 65c-42 0 -97 -50 -127 -89l-57 -282c10 -18 31 -38 67 -38z" />
    <glyph glyph-name="c" unicode="c" horiz-adv-x="468" 
d="M183 -13c-111 0 -168 68 -168 166c0 219 168 380 324 380c98 0 143 -48 143 -94c0 -39 -20 -63 -67 -63c-46 0 -64 19 -69 84c-3 27 -9 33 -29 33c-68 0 -147 -155 -147 -315c0 -69 22 -112 84 -112c56 0 101 34 148 77l23 -20c-41 -52 -122 -136 -242 -136z" />
    <glyph glyph-name="d" unicode="d" horiz-adv-x="584" 
d="M130 -13c-77 0 -122 56 -122 149c0 212 169 397 330 397c33 0 52 -7 64 -13h4s5 34 12 72l7 37c10 50 7 57 -19 69l-35 15l4 23l225 20l9 -8s-16 -52 -29 -117l-102 -501c-2 -10 -3 -19 -3 -28c0 -23 15 -26 48 -6l24 15l18 -22c-46 -44 -119 -101 -189 -101
c-51 0 -60 39 -60 64c0 14 3 38 6 53h-4c-45 -59 -111 -118 -188 -118zM208 75c39 0 89 49 120 90l62 289c-7 21 -24 40 -56 40c-83 0 -172 -179 -172 -348c0 -52 18 -71 46 -71z" />
    <glyph glyph-name="e" unicode="e" horiz-adv-x="477" 
d="M184 -13c-111 0 -169 70 -169 168c0 219 184 378 326 378c97 0 146 -42 146 -105c0 -99 -172 -160 -314 -194c-2 -17 -3 -36 -3 -54c0 -73 25 -115 84 -115c57 0 102 34 149 76l23 -20c-41 -51 -123 -134 -242 -134zM319 495c-47 0 -117 -94 -141 -223
c58 18 99 36 129 61c33 27 43 63 43 108c0 36 -12 54 -31 54z" />
    <glyph glyph-name="f" unicode="f" horiz-adv-x="343" 
d="M-50 -204c-66 0 -101 28 -101 69c0 30 21 50 52 50c36 0 53 -11 63 -62c3 -14 7 -18 15 -18c25 0 36 21 60 178l68 448h-67l4 24l71 34l1 6c26 163 135 236 255 236c90 0 130 -33 130 -75c0 -32 -21 -57 -62 -57c-40 0 -57 14 -64 69c-2 18 -9 23 -19 23
c-37 0 -60 -25 -81 -170l-5 -32h110l-15 -58h-104l-50 -305c-40 -244 -140 -360 -261 -360z" />
    <glyph glyph-name="g" unicode="g" horiz-adv-x="504" 
d="M177 -211c-148 0 -240 47 -240 117c0 63 79 97 150 114v4c-34 11 -65 38 -65 81c0 56 52 96 96 119v3c-46 24 -76 63 -76 117c0 116 117 189 232 189c47 0 87 -11 117 -30c29 28 71 59 119 59c38 0 57 -21 57 -50c0 -32 -19 -56 -53 -56c-30 0 -37 12 -51 33
c-9 15 -27 12 -50 -3v-3c29 -23 47 -58 47 -97c0 -118 -117 -188 -231 -188c-32 0 -59 5 -83 13c-14 -10 -27 -24 -27 -44c0 -16 11 -30 39 -31l134 -8c112 -6 170 -50 170 -138c0 -117 -124 -201 -285 -201zM193 -173c98 0 155 40 155 103c0 39 -21 57 -74 63l-152 17
c-28 -14 -59 -39 -59 -94c0 -60 42 -89 130 -89zM233 235c56 0 88 84 88 197c0 44 -18 64 -52 64c-57 0 -88 -88 -88 -198c0 -44 18 -63 52 -63z" />
    <glyph glyph-name="h" unicode="h" horiz-adv-x="588" 
d="M382 -12c-47 0 -61 34 -61 64c0 26 5 57 12 87l45 199c16 73 11 91 -13 91c-40 0 -92 -45 -132 -93l-68 -336h-154l126 629c9 48 6 57 -20 69l-35 15l4 23l223 20l10 -8s-16 -52 -29 -117l-26 -137c-10 -47 -18 -79 -24 -101h5c58 68 128 140 216 140c53 0 86 -42 86 -94
c0 -20 -4 -56 -10 -82l-53 -228c-2 -9 -3 -18 -3 -27c0 -24 15 -26 48 -6l25 15l17 -22c-46 -44 -118 -101 -189 -101z" />
    <glyph glyph-name="i" unicode="i" horiz-adv-x="299" 
d="M90 -12c-46 0 -64 34 -64 64c0 26 8 62 16 93l61 236c3 15 5 27 5 34c0 25 -17 21 -54 -5l-17 -12l-18 23c52 56 125 112 191 112c45 0 61 -31 61 -68c0 -18 -5 -57 -19 -107l-58 -223c-3 -11 -6 -24 -6 -33c0 -24 17 -26 50 -6l25 16l18 -22
c-46 -45 -120 -102 -191 -102zM221 582c-47 0 -83 32 -83 78c0 47 37 80 85 80c46 0 83 -32 83 -78c0 -47 -38 -80 -85 -80z" />
    <glyph glyph-name="j" unicode="j" horiz-adv-x="294" 
d="M-60 -205c-72 0 -111 37 -111 80c0 33 22 53 55 53c40 0 59 -14 69 -74c2 -14 7 -18 15 -18c21 0 37 21 58 134l77 411c2 15 5 27 5 34c0 25 -17 21 -54 -5l-17 -12l-18 23c52 56 126 112 191 112c45 0 61 -31 61 -68c0 -18 -8 -56 -18 -107l-64 -296
c-39 -179 -128 -267 -249 -267zM221 582c-47 0 -83 32 -83 78c0 47 37 80 85 80c46 0 83 -32 83 -78c0 -47 -38 -80 -85 -80z" />
    <glyph glyph-name="k" unicode="k" horiz-adv-x="549" 
d="M372 -12c-38 0 -59 28 -82 87c-17 46 -35 98 -58 177l2 14c100 146 193 267 274 267c32 0 59 -22 59 -64c0 -41 -29 -63 -57 -63c-48 0 -47 40 -65 40c-21 0 -70 -47 -99 -90c35 -101 59 -168 82 -222c25 -59 34 -58 70 -36l20 13l18 -22c-51 -49 -109 -101 -164 -101z
M10 0l126 629c10 48 7 57 -19 69l-35 15l4 23l223 20l10 -8s-16 -52 -29 -117l-125 -631h-155z" />
    <glyph glyph-name="l" unicode="l" horiz-adv-x="300" 
d="M91 -12c-46 0 -63 34 -63 64c0 27 7 57 13 88l95 489c9 48 8 57 -19 69l-37 15l4 23l226 20l9 -8s-16 -52 -29 -117l-98 -502c-2 -10 -4 -19 -4 -30c0 -22 18 -22 53 -1l24 15l18 -22c-50 -48 -119 -103 -192 -103z" />
    <glyph glyph-name="m" unicode="m" horiz-adv-x="872" 
d="M666 -12c-47 0 -61 34 -61 64c0 26 5 57 12 87l44 199c16 73 11 91 -13 91c-34 0 -77 -44 -113 -88l-73 -341h-155l72 338c15 73 10 91 -14 91c-35 0 -78 -45 -114 -89l-74 -340h-155l81 381c3 15 5 27 5 34c0 25 -18 21 -54 -5l-16 -11l-18 23c51 55 119 111 183 111
c43 0 58 -30 58 -61c0 -18 -6 -60 -12 -81h5c58 69 122 142 207 142c53 0 85 -39 85 -94c0 -9 -1 -26 -3 -40h4c57 68 114 134 197 134c53 0 87 -42 87 -94c0 -20 -5 -56 -11 -82l-52 -228c-2 -9 -4 -18 -4 -27c0 -24 16 -26 49 -6l25 15l17 -22
c-46 -44 -118 -101 -189 -101z" />
    <glyph glyph-name="n" unicode="n" horiz-adv-x="601" 
d="M394 -12c-46 0 -61 34 -61 64c0 26 6 57 13 87l44 199c16 73 11 91 -13 91c-40 0 -90 -45 -127 -91l-73 -338h-155l81 381c3 15 5 27 5 34c0 25 -18 21 -54 -5l-16 -11l-18 23c51 55 119 111 183 111c43 0 58 -30 58 -61c0 -18 -7 -61 -12 -83h5c59 72 130 144 219 144
c53 0 87 -42 87 -94c0 -20 -5 -56 -11 -82l-52 -228c-2 -9 -4 -18 -4 -27c0 -24 16 -26 48 -6l25 15l18 -22c-46 -44 -119 -101 -190 -101z" />
    <glyph glyph-name="o" unicode="o" horiz-adv-x="543" 
d="M228 -13c-145 0 -215 93 -215 207c0 212 161 339 302 339c144 0 214 -92 214 -205c0 -214 -160 -341 -301 -341zM228 26c97 0 150 199 150 356c0 74 -21 112 -65 112c-95 0 -149 -196 -149 -356c0 -72 20 -112 64 -112z" />
    <glyph glyph-name="p" unicode="p" horiz-adv-x="586" 
d="M-77 -206l4 27l28 7c33 9 39 16 48 58l100 495c3 15 5 27 5 34c0 25 -18 21 -54 -5l-16 -11l-18 23c51 55 120 111 189 111c41 0 54 -28 54 -59c0 -19 -5 -56 -11 -79h4c51 66 121 138 201 138c74 0 118 -65 118 -166c0 -207 -139 -380 -317 -380c-35 0 -59 5 -79 14
c0 0 -3 -25 -8 -53l-13 -62c-8 -45 -7 -50 23 -57l34 -8l-4 -27h-288zM265 26c92 0 154 176 154 344c0 48 -15 65 -43 65c-43 0 -95 -50 -125 -89l-58 -276c12 -22 35 -44 72 -44z" />
    <glyph glyph-name="q" unicode="q" horiz-adv-x="565" 
d="M182 -206l6 27l34 8c34 8 37 11 47 57l25 116c8 40 18 76 27 102h-4c-43 -55 -110 -117 -187 -117s-122 56 -122 149c0 212 170 397 335 397c64 0 106 -15 143 -41h4l62 43l17 -7s-19 -46 -42 -156l-100 -486c-9 -44 -5 -51 24 -58l27 -7l-6 -27h-290zM208 75
c39 0 87 48 119 89l62 290c-7 21 -23 40 -55 40c-83 0 -172 -179 -172 -348c0 -52 18 -71 46 -71z" />
    <glyph glyph-name="r" unicode="r" horiz-adv-x="469" 
d="M21 0l81 381c3 15 4 27 4 34c0 25 -17 21 -54 -5l-15 -11l-18 23c51 55 120 111 184 111c43 0 57 -30 57 -61c0 -18 -11 -80 -16 -101h5c46 81 103 162 176 162c38 0 67 -24 67 -70s-34 -72 -70 -72c-45 0 -47 34 -70 34c-28 0 -69 -52 -110 -123l-66 -302h-155z" />
    <glyph glyph-name="s" unicode="s" horiz-adv-x="426" 
d="M169 -12c-131 0 -183 53 -183 105c0 34 21 57 62 57c48 0 62 -17 79 -86c6 -24 20 -38 58 -38c51 0 79 28 79 69c0 36 -21 65 -92 110c-78 48 -121 94 -121 161c0 104 100 167 206 167c119 0 165 -51 165 -99c0 -32 -21 -49 -57 -49c-45 0 -59 18 -74 72
c-7 27 -21 38 -48 38c-43 0 -72 -22 -72 -62c0 -38 22 -62 105 -114c78 -46 113 -96 113 -155c0 -97 -89 -176 -220 -176z" />
    <glyph glyph-name="t" unicode="t" horiz-adv-x="354" 
d="M99 -12c-50 0 -66 35 -66 70c0 22 5 52 11 82l68 321h-68l5 24l76 33l19 85l135 59h31l-30 -143h109l-15 -58h-107l-68 -326c-3 -14 -5 -25 -5 -36c0 -23 18 -26 79 13l34 22l19 -22c-78 -78 -154 -124 -227 -124z" />
    <glyph glyph-name="u" unicode="u" horiz-adv-x="598" 
d="M126 -14c-53 0 -86 43 -86 95c0 19 5 56 11 82l50 220c3 12 4 24 4 32c0 25 -17 21 -54 -5l-15 -11l-18 23c51 55 119 111 184 111c46 0 64 -35 64 -66c0 -26 -5 -57 -12 -87l-44 -198c-17 -73 -10 -91 14 -91c36 0 86 45 122 88l73 340h155l-83 -390
c-2 -9 -4 -18 -4 -27c0 -24 16 -26 49 -6l24 15l18 -22c-46 -44 -122 -103 -189 -103c-46 0 -57 33 -57 63c0 19 8 57 15 78h-5c-59 -67 -126 -141 -216 -141z" />
    <glyph glyph-name="v" unicode="v" horiz-adv-x="491" 
d="M103 0c0 172 -4 298 -12 377c-7 60 -18 62 -61 33l-16 -11l-18 23c53 57 125 111 180 111c39 0 56 -28 62 -99c7 -86 9 -186 6 -311h4c84 92 161 215 161 271c0 35 -36 44 -36 86c0 34 29 53 61 53c37 0 65 -24 65 -71c0 -104 -164 -321 -314 -462h-82z" />
    <glyph glyph-name="w" unicode="w" horiz-adv-x="741" 
d="M103 0c0 174 -6 298 -14 377c-7 60 -18 62 -59 33l-16 -11l-18 23c52 57 126 111 179 111c39 0 57 -26 63 -96c7 -85 11 -178 8 -302h4c46 56 89 120 120 172l-3 80c-4 52 -14 51 -50 24l-15 -10l-18 22c44 49 115 110 166 110c37 0 58 -24 61 -93c4 -78 5 -185 -2 -308
h4c82 102 147 208 147 265c0 32 -38 42 -38 84c0 33 30 53 62 53c36 0 65 -24 65 -71c0 -102 -164 -323 -300 -463h-79c1 91 2 170 2 237h-3c-55 -80 -122 -169 -184 -237h-82z" />
    <glyph glyph-name="x" unicode="x" horiz-adv-x="531" 
d="M31 -13c-39 0 -63 24 -63 59c0 39 24 61 56 61c38 0 51 -44 83 -14c27 28 56 79 84 148c-12 51 -23 94 -37 138c-18 61 -27 64 -71 31l-15 -11l-18 23c52 58 124 111 179 111c37 0 45 -25 60 -83c9 -32 18 -73 29 -120h3c24 63 54 118 82 150c28 34 58 53 94 53
c35 0 59 -21 59 -57s-24 -59 -54 -59c-48 0 -50 41 -80 10c-28 -30 -56 -84 -81 -149c14 -56 29 -107 39 -140c20 -66 31 -66 68 -42l24 15l17 -22c-46 -47 -116 -101 -176 -101c-40 0 -56 28 -73 89c-11 41 -19 72 -27 113h-3c-24 -63 -60 -122 -85 -152
c-24 -29 -54 -51 -94 -51z" />
    <glyph glyph-name="y" unicode="y" horiz-adv-x="499" 
d="M-5 -210c-54 0 -86 27 -86 71c0 35 25 57 56 57c50 0 57 -52 94 -52c25 0 55 21 103 76c-18 205 -42 367 -60 442c-15 54 -24 56 -67 26l-16 -11l-18 23c52 57 124 111 177 111c35 0 53 -18 66 -77c22 -103 38 -228 45 -347h3c66 97 128 211 128 281c0 36 -42 49 -42 90
c0 34 30 53 61 53c36 0 67 -24 67 -74c0 -91 -98 -267 -215 -424c-109 -149 -202 -245 -296 -245z" />
    <glyph glyph-name="z" unicode="z" horiz-adv-x="450" 
d="M263 -17c-78 0 -127 86 -204 86c-21 0 -43 -30 -64 -77h-6l-39 34v6c39 29 70 56 98 83l277 264c-88 3 -152 40 -221 40c-9 0 -17 -5 -17 -13c-1 -13 52 -12 52 -53c0 -28 -17 -47 -47 -47c-36 0 -54 26 -54 60c0 60 88 168 170 168s143 -82 186 -82c28 0 44 27 65 74h7
l37 -29v-8c-34 -26 -60 -52 -104 -94l-256 -246c74 -4 135 -32 184 -32c29 0 45 12 79 60l26 -11c-59 -115 -103 -183 -169 -183z" />
    <glyph glyph-name="braceleft" unicode="{" horiz-adv-x="362" 
d="M271 -131c-155 21 -202 54 -202 112c0 66 85 211 85 264c0 26 -22 42 -97 55l6 38c104 4 122 29 122 73c0 42 -18 146 -18 194c0 84 37 123 247 129l-5 -31c-120 -14 -131 -35 -133 -99c-2 -49 3 -122 2 -176c-2 -55 -24 -90 -157 -111v-4c83 -21 118 -49 118 -97
c0 -53 -63 -196 -63 -249c0 -34 26 -51 101 -68z" />
    <glyph glyph-name="bar" unicode="|" horiz-adv-x="240" 
d="M110 -130v864h51v-864h-51z" />
    <glyph glyph-name="braceright" unicode="}" horiz-adv-x="362" 
d="M108 734c155 -21 202 -53 202 -111c0 -67 -85 -210 -85 -263c0 -26 23 -42 98 -55l-7 -38c-104 -5 -122 -29 -122 -73c0 -42 18 -147 18 -196c0 -84 -38 -122 -247 -129l5 31c119 14 131 35 134 100c1 48 -4 123 -3 177c2 54 24 90 157 111v4c-83 20 -118 48 -118 97
c0 53 63 194 63 247c0 35 -26 51 -101 68z" />
    <glyph glyph-name="asciitilde" unicode="~" horiz-adv-x="353" 
d="M37 231l-23 13c35 72 60 118 106 118s113 -35 155 -35c20 0 33 11 55 42l23 -12c-34 -73 -58 -119 -106 -119c-46 0 -114 35 -155 35c-20 0 -33 -11 -55 -42z" />
    <glyph glyph-name="Adieresis" unicode="&#xc4;" horiz-adv-x="657" 
d="M-47 0l5 28l24 6c31 9 41 20 87 102l307 557h97l81 -560c11 -75 20 -92 45 -100l20 -5l-5 -28h-319l5 28l29 7c30 6 45 21 45 44c1 17 -2 42 -5 69l-9 71h-190l-37 -72c-17 -32 -29 -58 -29 -77s9 -29 32 -35l27 -7l-5 -28h-205zM322 508l-129 -245h162l-28 245h-5z
M327 724c-41 0 -74 30 -74 73c0 44 34 75 76 75c41 0 75 -30 75 -73c0 -44 -35 -75 -77 -75zM538 724c-41 0 -74 30 -74 73c0 44 34 75 76 75c41 0 74 -30 74 -73c0 -44 -34 -75 -76 -75z" />
    <glyph glyph-name="Aring" unicode="&#xc5;" horiz-adv-x="657" 
d="M-47 0l5 28l24 6c31 9 41 20 87 102l307 557h97l81 -560c11 -75 20 -92 45 -100l20 -5l-5 -28h-319l5 28l29 7c30 6 45 21 45 44c1 17 -2 42 -5 69l-9 71h-190l-37 -72c-17 -32 -29 -58 -29 -77s9 -29 32 -35l27 -7l-5 -28h-205zM431 719c-56 0 -94 41 -94 90
c0 57 43 97 97 97s95 -37 95 -91c0 -56 -43 -96 -98 -96zM322 508l-129 -245h162l-28 245h-5zM432 754c31 0 53 23 53 60c0 33 -20 57 -51 57c-30 0 -53 -24 -53 -60c0 -34 20 -57 51 -57z" />
    <glyph glyph-name="Ccedilla" unicode="&#xc7;" horiz-adv-x="609" 
d="M169 -205l3 22c58 11 89 27 89 51c0 17 -16 28 -46 31l-4 8l55 88c-139 25 -231 126 -231 280c0 273 215 430 421 430c70 0 136 -13 174 -29l-18 -201h-30c-14 51 -30 101 -49 132c-24 41 -47 57 -92 57c-154 0 -227 -266 -227 -463c0 -123 40 -171 131 -171
c48 0 83 22 115 62c28 33 58 83 91 137h29l-48 -209c-41 -16 -111 -32 -193 -32c-12 0 -25 1 -36 2l-31 -36c53 -5 78 -36 78 -65c0 -65 -85 -88 -181 -94z" />
    <glyph glyph-name="Eacute" unicode="&#xc9;" horiz-adv-x="621" 
d="M488 763l-196 -39l-7 18l147 114c17 14 33 21 51 21c31 0 54 -30 54 -62c0 -24 -13 -45 -49 -52zM-29 0l5 28l34 7c32 9 41 12 52 73l84 477c10 58 5 64 -27 73l-31 7l5 28h522l-13 -202h-30c-16 56 -26 85 -37 107c-22 43 -44 51 -111 51c-46 0 -74 -6 -91 -10l-45 -258
h28c65 0 80 7 96 29c18 23 28 46 43 78h29l-46 -262h-29c-3 32 -6 56 -14 82c-8 25 -22 30 -89 30h-26l-34 -194c-14 -82 -5 -100 77 -100c83 0 102 11 143 61c25 30 51 69 88 133h32l-58 -238h-557z" />
    <glyph glyph-name="Ntilde" unicode="&#xd1;" horiz-adv-x="673" 
d="M319 723l-23 13c37 72 64 119 110 119c49 0 109 -27 151 -27c20 0 31 9 54 40l22 -13c-35 -72 -60 -119 -108 -119c-50 0 -110 27 -152 27c-20 0 -31 -9 -54 -40zM481 -1l-280 591h-4l-82 -467c-12 -71 -5 -80 35 -89l30 -6l-4 -28h-205l5 28l30 7c38 9 47 23 60 94
l80 456c10 58 5 64 -27 73l-31 7l5 28h248l201 -419h3l51 296c12 69 6 79 -31 88l-35 7l5 28h205l-5 -28l-30 -7c-36 -8 -45 -16 -59 -96l-99 -563h-66z" />
    <glyph glyph-name="Odieresis" unicode="&#xd6;" 
d="M340 724c-41 0 -74 30 -74 73c0 44 34 75 76 75c41 0 75 -30 75 -73c0 -44 -35 -75 -77 -75zM551 724c-41 0 -74 30 -74 73c0 44 34 75 76 75c41 0 74 -30 74 -73c0 -44 -34 -75 -76 -75zM318 -13c-158 0 -284 112 -284 289c0 262 202 429 389 429
c156 0 284 -102 284 -286c0 -269 -201 -432 -389 -432zM322 29c128 0 206 241 206 447c0 115 -25 187 -107 187c-131 0 -208 -251 -208 -449c0 -112 22 -185 109 -185z" />
    <glyph glyph-name="Udieresis" unicode="&#xdc;" horiz-adv-x="685" 
d="M344 -13c-172 0 -297 75 -263 269l59 329c10 58 5 64 -27 73l-31 7l6 28h321l-6 -28l-34 -7c-32 -8 -40 -12 -51 -73l-63 -361c-21 -116 19 -173 128 -173c104 0 145 54 163 154l64 365c13 74 5 79 -34 88l-33 7l5 28h206l-5 -28l-32 -7c-31 -7 -44 -14 -57 -91l-66 -374
c-21 -118 -96 -206 -250 -206zM383 724c-41 0 -74 30 -74 73c0 44 34 75 76 75c41 0 75 -30 75 -73c0 -44 -35 -75 -77 -75zM594 724c-41 0 -74 30 -74 73c0 44 34 75 76 75c41 0 74 -30 74 -73c0 -44 -34 -75 -76 -75z" />
    <glyph glyph-name="aacute" unicode="&#xe1;" horiz-adv-x="572" 
d="M127 -13c-78 0 -120 57 -120 144c0 216 169 402 327 402c64 0 101 -16 136 -41h4l64 43l17 -7s-20 -49 -42 -156l-49 -242c-2 -11 -3 -19 -3 -28c0 -23 15 -26 48 -6l24 15l18 -22c-46 -44 -118 -101 -188 -101c-51 0 -58 39 -58 64c0 14 3 36 6 51h-4
c-45 -59 -106 -116 -180 -116zM204 78c40 0 82 44 113 86l61 291c-7 22 -19 39 -50 39c-77 0 -165 -178 -165 -350c0 -46 13 -66 41 -66zM264 574l-8 18l133 117c18 16 35 24 53 24c30 0 51 -29 51 -58c0 -25 -14 -49 -48 -57z" />
    <glyph glyph-name="agrave" unicode="&#xe0;" horiz-adv-x="572" 
d="M127 -13c-78 0 -120 57 -120 144c0 216 169 402 327 402c64 0 101 -16 136 -41h4l64 43l17 -7s-20 -49 -42 -156l-49 -242c-2 -11 -3 -19 -3 -28c0 -23 15 -26 48 -6l24 15l18 -22c-46 -44 -118 -101 -188 -101c-51 0 -58 39 -58 64c0 14 3 36 6 51h-4
c-45 -59 -106 -116 -180 -116zM204 78c40 0 82 44 113 86l61 291c-7 22 -19 39 -50 39c-77 0 -165 -178 -165 -350c0 -46 13 -66 41 -66zM447 574l-181 44c-34 7 -45 33 -45 54c0 31 23 60 54 60c18 0 36 -8 53 -25l127 -115z" />
    <glyph glyph-name="acircumflex" unicode="&#xe2;" horiz-adv-x="572" 
d="M127 -13c-78 0 -120 57 -120 144c0 216 169 402 327 402c64 0 101 -16 136 -41h4l64 43l17 -7s-20 -49 -42 -156l-49 -242c-2 -11 -3 -19 -3 -28c0 -23 15 -26 48 -6l24 15l18 -22c-46 -44 -118 -101 -188 -101c-51 0 -58 39 -58 64c0 14 3 36 6 51h-4
c-45 -59 -106 -116 -180 -116zM204 78c40 0 82 44 113 86l61 291c-7 22 -19 39 -50 39c-77 0 -165 -178 -165 -350c0 -46 13 -66 41 -66zM211 571l-10 17l139 143h48l94 -144l-12 -16l-116 63z" />
    <glyph glyph-name="adieresis" unicode="&#xe4;" horiz-adv-x="572" 
d="M127 -13c-78 0 -120 57 -120 144c0 216 169 402 327 402c64 0 101 -16 136 -41h4l64 43l17 -7s-20 -49 -42 -156l-49 -242c-2 -11 -3 -19 -3 -28c0 -23 15 -26 48 -6l24 15l18 -22c-46 -44 -118 -101 -188 -101c-51 0 -58 39 -58 64c0 14 3 36 6 51h-4
c-45 -59 -106 -116 -180 -116zM204 78c40 0 82 44 113 86l61 291c-7 22 -19 39 -50 39c-77 0 -165 -178 -165 -350c0 -46 13 -66 41 -66zM253 578c-41 0 -74 30 -74 73c0 44 34 75 76 75c41 0 75 -31 75 -73c0 -44 -34 -75 -77 -75zM454 578c-41 0 -75 30 -75 73
c0 44 34 75 77 75c40 0 74 -31 74 -73c0 -44 -34 -75 -76 -75z" />
    <glyph glyph-name="atilde" unicode="&#xe3;" horiz-adv-x="572" 
d="M127 -13c-78 0 -120 57 -120 144c0 216 169 402 327 402c64 0 101 -16 136 -41h4l64 43l17 -7s-20 -49 -42 -156l-49 -242c-2 -11 -3 -19 -3 -28c0 -23 15 -26 48 -6l24 15l18 -22c-46 -44 -118 -101 -188 -101c-51 0 -58 39 -58 64c0 14 3 36 6 51h-4
c-45 -59 -106 -116 -180 -116zM204 78c40 0 82 44 113 86l61 291c-7 22 -19 39 -50 39c-77 0 -165 -178 -165 -350c0 -46 13 -66 41 -66zM226 574l-23 13c37 72 64 119 110 119c43 0 89 -27 131 -27c20 0 31 9 54 40l22 -13c-35 -72 -60 -119 -108 -119
c-43 0 -90 27 -132 27c-20 0 -31 -9 -54 -40z" />
    <glyph glyph-name="aring" unicode="&#xe5;" horiz-adv-x="572" 
d="M127 -13c-78 0 -120 57 -120 144c0 216 169 402 327 402c64 0 101 -16 136 -41h4l64 43l17 -7s-20 -49 -42 -156l-49 -242c-2 -11 -3 -19 -3 -28c0 -23 15 -26 48 -6l24 15l18 -22c-46 -44 -118 -101 -188 -101c-51 0 -58 39 -58 64c0 14 3 36 6 51h-4
c-45 -59 -106 -116 -180 -116zM204 78c40 0 82 44 113 86l61 291c-7 22 -19 39 -50 39c-77 0 -165 -178 -165 -350c0 -46 13 -66 41 -66zM350 571c-57 0 -95 40 -95 90c0 57 44 97 98 97c53 0 94 -37 94 -91c0 -56 -42 -96 -97 -96zM351 606c31 0 52 23 52 60
c0 33 -19 57 -51 57c-30 0 -53 -24 -53 -60c0 -34 20 -57 52 -57z" />
    <glyph glyph-name="ccedilla" unicode="&#xe7;" horiz-adv-x="468" 
d="M41 -205l3 22c58 11 89 27 89 51c0 17 -16 28 -46 31l-4 8l53 85c-80 16 -121 77 -121 161c0 219 168 380 324 380c98 0 143 -48 143 -94c0 -39 -20 -63 -67 -63c-46 0 -64 19 -69 84c-3 27 -9 33 -29 33c-68 0 -147 -155 -147 -315c0 -69 22 -112 84 -112
c56 0 101 34 148 77l23 -20c-41 -52 -122 -136 -242 -136h-10l-29 -33c53 -5 78 -36 78 -65c0 -65 -85 -88 -181 -94z" />
    <glyph glyph-name="eacute" unicode="&#xe9;" horiz-adv-x="477" 
d="M184 -13c-111 0 -169 70 -169 168c0 219 184 378 326 378c97 0 146 -42 146 -105c0 -99 -172 -160 -314 -194c-2 -17 -3 -36 -3 -54c0 -73 25 -115 84 -115c57 0 102 34 149 76l23 -20c-41 -51 -123 -134 -242 -134zM319 495c-47 0 -117 -94 -141 -223
c58 18 99 36 129 61c33 27 43 63 43 108c0 36 -12 54 -31 54zM255 574l-8 18l133 117c18 16 35 24 53 24c30 0 51 -29 51 -58c0 -25 -14 -49 -48 -57z" />
    <glyph glyph-name="egrave" unicode="&#xe8;" horiz-adv-x="477" 
d="M184 -13c-111 0 -169 70 -169 168c0 219 184 378 326 378c97 0 146 -42 146 -105c0 -99 -172 -160 -314 -194c-2 -17 -3 -36 -3 -54c0 -73 25 -115 84 -115c57 0 102 34 149 76l23 -20c-41 -51 -123 -134 -242 -134zM319 495c-47 0 -117 -94 -141 -223
c58 18 99 36 129 61c33 27 43 63 43 108c0 36 -12 54 -31 54zM439 574l-181 44c-34 7 -45 33 -45 54c0 31 23 60 54 60c18 0 36 -8 53 -25l127 -115z" />
    <glyph glyph-name="ecircumflex" unicode="&#xea;" horiz-adv-x="477" 
d="M184 -13c-111 0 -169 70 -169 168c0 219 184 378 326 378c97 0 146 -42 146 -105c0 -99 -172 -160 -314 -194c-2 -17 -3 -36 -3 -54c0 -73 25 -115 84 -115c57 0 102 34 149 76l23 -20c-41 -51 -123 -134 -242 -134zM319 495c-47 0 -117 -94 -141 -223
c58 18 99 36 129 61c33 27 43 63 43 108c0 36 -12 54 -31 54zM203 571l-10 17l139 143h48l94 -144l-12 -16l-116 63z" />
    <glyph glyph-name="edieresis" unicode="&#xeb;" horiz-adv-x="477" 
d="M184 -13c-111 0 -169 70 -169 168c0 219 184 378 326 378c97 0 146 -42 146 -105c0 -99 -172 -160 -314 -194c-2 -17 -3 -36 -3 -54c0 -73 25 -115 84 -115c57 0 102 34 149 76l23 -20c-41 -51 -123 -134 -242 -134zM319 495c-47 0 -117 -94 -141 -223
c58 18 99 36 129 61c33 27 43 63 43 108c0 36 -12 54 -31 54zM245 578c-41 0 -74 30 -74 73c0 44 34 75 76 75c41 0 75 -31 75 -73c0 -44 -34 -75 -77 -75zM446 578c-41 0 -75 30 -75 73c0 44 34 75 77 75c40 0 74 -31 74 -73c0 -44 -34 -75 -76 -75z" />
    <glyph glyph-name="iacute" unicode="&#xed;" horiz-adv-x="299" 
d="M126 574l-8 18l133 117c18 16 35 24 53 24c30 0 51 -29 51 -58c0 -25 -14 -49 -48 -57zM90 -12c-46 0 -64 34 -64 64c0 26 8 62 16 93l61 236c3 15 5 27 5 34c0 25 -17 21 -54 -5l-17 -12l-18 23c52 56 125 112 191 112c45 0 61 -31 61 -68c0 -18 -5 -57 -19 -107
l-58 -223c-3 -11 -6 -24 -6 -33c0 -24 17 -26 50 -6l25 16l18 -22c-46 -45 -120 -102 -191 -102z" />
    <glyph glyph-name="igrave" unicode="&#xec;" horiz-adv-x="299" 
d="M90 -12c-46 0 -64 34 -64 64c0 26 8 62 16 93l61 236c3 15 5 27 5 34c0 25 -17 21 -54 -5l-17 -12l-18 23c52 56 125 112 191 112c45 0 61 -31 61 -68c0 -18 -5 -57 -19 -107l-58 -223c-3 -11 -6 -24 -6 -33c0 -24 17 -26 50 -6l25 16l18 -22
c-46 -45 -120 -102 -191 -102zM310 574l-181 44c-34 7 -45 33 -45 54c0 31 23 60 54 60c18 0 36 -8 53 -25l127 -115z" />
    <glyph glyph-name="icircumflex" unicode="&#xee;" horiz-adv-x="299" 
d="M74 571l-10 17l139 143h48l94 -144l-12 -16l-116 63zM90 -12c-46 0 -64 34 -64 64c0 26 8 62 16 93l61 236c3 15 5 27 5 34c0 25 -17 21 -54 -5l-17 -12l-18 23c52 56 125 112 191 112c45 0 61 -31 61 -68c0 -18 -5 -57 -19 -107l-58 -223c-3 -11 -6 -24 -6 -33
c0 -24 17 -26 50 -6l25 16l18 -22c-46 -45 -120 -102 -191 -102z" />
    <glyph glyph-name="idieresis" unicode="&#xef;" horiz-adv-x="299" 
d="M115 578c-41 0 -74 30 -74 73c0 44 34 75 76 75c41 0 75 -31 75 -73c0 -44 -34 -75 -77 -75zM316 578c-41 0 -75 30 -75 73c0 44 34 75 77 75c40 0 74 -31 74 -73c0 -44 -34 -75 -76 -75zM90 -12c-46 0 -64 34 -64 64c0 26 8 62 16 93l61 236c3 15 5 27 5 34
c0 25 -17 21 -54 -5l-17 -12l-18 23c52 56 125 112 191 112c45 0 61 -31 61 -68c0 -18 -5 -57 -19 -107l-58 -223c-3 -11 -6 -24 -6 -33c0 -24 17 -26 50 -6l25 16l18 -22c-46 -45 -120 -102 -191 -102z" />
    <glyph glyph-name="ntilde" unicode="&#xf1;" horiz-adv-x="601" 
d="M394 -12c-46 0 -61 34 -61 64c0 26 6 57 13 87l44 199c16 73 11 91 -13 91c-40 0 -90 -45 -127 -91l-73 -338h-155l81 381c3 15 5 27 5 34c0 25 -18 21 -54 -5l-16 -11l-18 23c51 55 119 111 183 111c43 0 58 -30 58 -61c0 -18 -7 -61 -12 -83h5c59 72 130 144 219 144
c53 0 87 -42 87 -94c0 -20 -5 -56 -11 -82l-52 -228c-2 -9 -4 -18 -4 -27c0 -24 16 -26 48 -6l25 15l18 -22c-46 -44 -119 -101 -190 -101zM243 574l-23 13c37 72 64 119 110 119c43 0 89 -27 131 -27c20 0 31 9 54 40l22 -13c-35 -72 -60 -119 -108 -119
c-43 0 -90 27 -132 27c-20 0 -31 -9 -54 -40z" />
    <glyph glyph-name="oacute" unicode="&#xf3;" horiz-adv-x="543" 
d="M246 574l-8 18l133 117c18 16 35 24 53 24c30 0 51 -29 51 -58c0 -25 -14 -49 -48 -57zM228 -13c-145 0 -215 93 -215 207c0 212 161 339 302 339c144 0 214 -92 214 -205c0 -214 -160 -341 -301 -341zM228 26c97 0 150 199 150 356c0 74 -21 112 -65 112
c-95 0 -149 -196 -149 -356c0 -72 20 -112 64 -112z" />
    <glyph glyph-name="ograve" unicode="&#xf2;" horiz-adv-x="543" 
d="M228 -13c-145 0 -215 93 -215 207c0 212 161 339 302 339c144 0 214 -92 214 -205c0 -214 -160 -341 -301 -341zM228 26c97 0 150 199 150 356c0 74 -21 112 -65 112c-95 0 -149 -196 -149 -356c0 -72 20 -112 64 -112zM429 574l-181 44c-34 7 -45 33 -45 54
c0 31 23 60 54 60c18 0 36 -8 53 -25l127 -115z" />
    <glyph glyph-name="ocircumflex" unicode="&#xf4;" horiz-adv-x="543" 
d="M194 571l-10 17l139 143h48l94 -144l-12 -16l-116 63zM228 -13c-145 0 -215 93 -215 207c0 212 161 339 302 339c144 0 214 -92 214 -205c0 -214 -160 -341 -301 -341zM228 26c97 0 150 199 150 356c0 74 -21 112 -65 112c-95 0 -149 -196 -149 -356
c0 -72 20 -112 64 -112z" />
    <glyph glyph-name="odieresis" unicode="&#xf6;" horiz-adv-x="543" 
d="M235 578c-41 0 -74 30 -74 73c0 44 34 75 76 75c41 0 75 -31 75 -73c0 -44 -34 -75 -77 -75zM436 578c-41 0 -75 30 -75 73c0 44 34 75 77 75c40 0 74 -31 74 -73c0 -44 -34 -75 -76 -75zM228 -13c-145 0 -215 93 -215 207c0 212 161 339 302 339c144 0 214 -92 214 -205
c0 -214 -160 -341 -301 -341zM228 26c97 0 150 199 150 356c0 74 -21 112 -65 112c-95 0 -149 -196 -149 -356c0 -72 20 -112 64 -112z" />
    <glyph glyph-name="otilde" unicode="&#xf5;" horiz-adv-x="543" 
d="M228 -13c-145 0 -215 93 -215 207c0 212 161 339 302 339c144 0 214 -92 214 -205c0 -214 -160 -341 -301 -341zM228 26c97 0 150 199 150 356c0 74 -21 112 -65 112c-95 0 -149 -196 -149 -356c0 -72 20 -112 64 -112zM209 574l-23 13c37 72 64 119 110 119
c43 0 89 -27 131 -27c20 0 31 9 54 40l22 -13c-35 -72 -60 -119 -108 -119c-43 0 -90 27 -132 27c-20 0 -31 -9 -54 -40z" />
    <glyph glyph-name="uacute" unicode="&#xfa;" horiz-adv-x="598" 
d="M269 574l-8 18l133 117c18 16 35 24 53 24c30 0 51 -29 51 -58c0 -25 -14 -49 -48 -57zM126 -14c-53 0 -86 43 -86 95c0 19 5 56 11 82l50 220c3 12 4 24 4 32c0 25 -17 21 -54 -5l-15 -11l-18 23c51 55 119 111 184 111c46 0 64 -35 64 -66c0 -26 -5 -57 -12 -87
l-44 -198c-17 -73 -10 -91 14 -91c36 0 86 45 122 88l73 340h155l-83 -390c-2 -9 -4 -18 -4 -27c0 -24 16 -26 49 -6l24 15l18 -22c-46 -44 -122 -103 -189 -103c-46 0 -57 33 -57 63c0 19 8 57 15 78h-5c-59 -67 -126 -141 -216 -141z" />
    <glyph glyph-name="ugrave" unicode="&#xf9;" horiz-adv-x="598" 
d="M126 -14c-53 0 -86 43 -86 95c0 19 5 56 11 82l50 220c3 12 4 24 4 32c0 25 -17 21 -54 -5l-15 -11l-18 23c51 55 119 111 184 111c46 0 64 -35 64 -66c0 -26 -5 -57 -12 -87l-44 -198c-17 -73 -10 -91 14 -91c36 0 86 45 122 88l73 340h155l-83 -390
c-2 -9 -4 -18 -4 -27c0 -24 16 -26 49 -6l24 15l18 -22c-46 -44 -122 -103 -189 -103c-46 0 -57 33 -57 63c0 19 8 57 15 78h-5c-59 -67 -126 -141 -216 -141zM452 574l-181 44c-34 7 -45 33 -45 54c0 31 23 60 54 60c18 0 36 -8 53 -25l127 -115z" />
    <glyph glyph-name="ucircumflex" unicode="&#xfb;" horiz-adv-x="598" 
d="M217 571l-10 17l139 143h48l94 -144l-12 -16l-116 63zM126 -14c-53 0 -86 43 -86 95c0 19 5 56 11 82l50 220c3 12 4 24 4 32c0 25 -17 21 -54 -5l-15 -11l-18 23c51 55 119 111 184 111c46 0 64 -35 64 -66c0 -26 -5 -57 -12 -87l-44 -198c-17 -73 -10 -91 14 -91
c36 0 86 45 122 88l73 340h155l-83 -390c-2 -9 -4 -18 -4 -27c0 -24 16 -26 49 -6l24 15l18 -22c-46 -44 -122 -103 -189 -103c-46 0 -57 33 -57 63c0 19 8 57 15 78h-5c-59 -67 -126 -141 -216 -141z" />
    <glyph glyph-name="udieresis" unicode="&#xfc;" horiz-adv-x="598" 
d="M258 578c-41 0 -74 30 -74 73c0 44 34 75 76 75c41 0 75 -31 75 -73c0 -44 -34 -75 -77 -75zM459 578c-41 0 -75 30 -75 73c0 44 34 75 77 75c40 0 74 -31 74 -73c0 -44 -34 -75 -76 -75zM126 -14c-53 0 -86 43 -86 95c0 19 5 56 11 82l50 220c3 12 4 24 4 32
c0 25 -17 21 -54 -5l-15 -11l-18 23c51 55 119 111 184 111c46 0 64 -35 64 -66c0 -26 -5 -57 -12 -87l-44 -198c-17 -73 -10 -91 14 -91c36 0 86 45 122 88l73 340h155l-83 -390c-2 -9 -4 -18 -4 -27c0 -24 16 -26 49 -6l24 15l18 -22c-46 -44 -122 -103 -189 -103
c-46 0 -57 33 -57 63c0 19 8 57 15 78h-5c-59 -67 -126 -141 -216 -141z" />
    <glyph glyph-name="dagger" unicode="&#x2020;" horiz-adv-x="404" 
d="M129 -67l25 434c29 29 62 70 69 110c-46 -4 -79 -34 -112 -34c-38 0 -59 28 -59 59c0 33 24 62 59 62c41 0 67 -46 115 -58c0 60 -27 103 -27 135c0 31 23 60 68 60c37 0 63 -27 63 -57c0 -48 -58 -87 -70 -140c44 4 80 35 114 35c36 0 57 -27 57 -57
c0 -35 -23 -63 -59 -63c-41 0 -68 43 -115 55c-4 -36 10 -87 26 -116l-126 -425h-28z" />
    <glyph glyph-name="degree" unicode="&#xb0;" horiz-adv-x="282" 
d="M184 456c-70 0 -119 53 -119 121c0 69 50 126 123 126c70 0 119 -54 119 -121c0 -70 -51 -126 -123 -126zM185 495c45 0 76 39 76 85c0 45 -29 84 -75 84c-45 0 -75 -39 -75 -84c0 -46 29 -85 74 -85z" />
    <glyph glyph-name="cent" unicode="&#xa2;" horiz-adv-x="468" 
d="M191 -13c-119 0 -178 68 -178 175c0 189 122 344 281 368l10 66h42l-10 -63h1c99 0 147 -48 147 -94c0 -39 -21 -63 -65 -63c-42 0 -60 19 -66 84c-3 20 -9 30 -23 33l-65 -428c53 4 90 28 144 78l22 -20c-33 -42 -94 -104 -176 -127l-16 -106h-42l15 98
c-7 0 -14 -1 -21 -1zM165 180c0 -64 16 -102 59 -112l64 421c-70 -29 -123 -168 -123 -309z" />
    <glyph glyph-name="sterling" unicode="&#xa3;" horiz-adv-x="531" 
d="M41 334l8 46h57c-7 31 -12 64 -12 97c1 128 96 228 271 228c110 0 183 -42 183 -108c0 -44 -24 -70 -72 -70c-58 0 -73 32 -76 99c-2 33 -10 40 -35 40c-47 0 -87 -34 -98 -116c-8 -49 -8 -113 -11 -170h162l-8 -46h-157c-1 -4 -1 -8 -1 -11c-12 -85 -69 -151 -153 -196
v-5h280c39 0 55 8 92 78h28l-44 -200h-482l15 85c80 46 134 105 134 185c0 20 -3 41 -7 64h-74z" />
    <glyph glyph-name="section" unicode="&#xa7;" horiz-adv-x="553" 
d="M155 519c0 112 100 182 216 182c115 0 166 -47 166 -100c0 -34 -22 -53 -57 -53c-45 0 -62 16 -73 73c-6 32 -15 41 -52 41c-46 0 -76 -29 -76 -74c0 -42 14 -67 120 -171c85 -84 134 -134 134 -211s-61 -137 -149 -170c8 -20 12 -40 12 -63c0 -98 -94 -178 -223 -178
c-118 0 -179 51 -179 106c0 38 25 60 63 60c50 0 62 -20 73 -77c6 -36 14 -49 57 -49c57 0 83 32 83 76c0 49 -33 79 -124 169c-78 77 -129 131 -129 211c0 82 60 142 149 169c-8 19 -11 39 -11 59zM407 136c0 38 -21 66 -113 158c-50 49 -90 92 -113 134
c-27 -12 -43 -36 -43 -67c0 -39 21 -66 113 -158c49 -49 91 -90 115 -133c27 14 41 38 41 66z" />
    <glyph glyph-name="bullet" unicode="&#x2022;" horiz-adv-x="320" 
d="M165 200c-71 0 -126 59 -124 129c2 76 61 134 134 134c69 0 130 -56 128 -130c-2 -72 -68 -133 -138 -133z" />
    <glyph glyph-name="paragraph" unicode="&#xb6;" horiz-adv-x="515" 
d="M177 -100l76 435c-7 -1 -19 -3 -35 -3c-111 0 -164 70 -166 157c0 117 79 204 219 204h307l-5 -28l-35 -7c-32 -7 -40 -12 -51 -73l-120 -685h-53l132 749h-84l-132 -749h-53z" />
    <glyph glyph-name="germandbls" unicode="&#xdf;" horiz-adv-x="636" 
d="M312 334c0 104 160 181 160 303c0 55 -27 85 -75 85c-54 0 -99 -40 -117 -149l-69 -417c-40 -244 -140 -360 -260 -360c-67 0 -102 28 -102 69c0 30 21 50 52 50c36 0 53 -11 63 -62c3 -14 7 -18 15 -18c25 0 36 21 60 178l68 448h-67l4 24l73 34l1 9
c28 153 148 233 292 233c114 0 197 -52 197 -126c0 -110 -194 -158 -194 -213c0 -61 197 -107 197 -253c0 -100 -85 -181 -210 -181c-103 0 -152 38 -152 91c0 34 19 51 56 51c34 0 51 -11 62 -66c5 -25 15 -36 44 -36c43 0 71 26 71 67c0 98 -169 127 -169 239z" />
    <glyph glyph-name="registered" unicode="&#xae;" horiz-adv-x="386" 
d="M243 336c-101 0 -177 82 -177 182c0 101 76 182 177 182c100 0 178 -81 178 -182c0 -100 -78 -182 -178 -182zM243 361c87 0 149 71 149 157c0 87 -62 157 -149 157c-88 0 -148 -70 -148 -157c0 -86 60 -157 148 -157zM147 424v15l10 2c9 2 11 4 11 20v120
c0 17 -2 18 -11 20l-10 2v15h95c59 0 83 -17 83 -51c0 -26 -11 -40 -36 -47v-2c12 -24 24 -49 40 -70c2 -3 7 -6 11 -7l6 -2v-15h-65c-17 25 -31 55 -41 80h-17v-43c0 -16 2 -18 11 -20l10 -2v-15h-97zM237 522c24 0 32 11 32 40c0 28 -9 39 -29 39c-5 0 -15 -1 -17 -1v-78
h14z" />
    <glyph glyph-name="copyright" unicode="&#xa9;" horiz-adv-x="788" 
d="M407 -17c-203 0 -355 163 -352 361c2 198 158 359 360 359c201 0 357 -161 355 -359c-3 -198 -162 -361 -363 -361zM407 25c180 0 311 144 313 319s-126 318 -306 318s-310 -143 -312 -318s125 -319 305 -319zM417 133c-124 0 -213 67 -213 212c0 159 103 220 224 220
c53 0 99 -9 125 -16l5 -125h-23c-21 39 -33 61 -53 85c-16 21 -27 27 -57 27c-65 0 -90 -59 -90 -178c0 -145 32 -196 96 -196c27 0 45 8 61 31c17 24 31 56 49 94h24l-7 -130c-29 -11 -79 -24 -141 -24z" />
    <glyph glyph-name="trademark" unicode="&#x2122;" horiz-adv-x="721" 
d="M327 405l4 23l22 3c15 3 19 9 24 39l29 168c4 23 1 26 -12 29l-17 5l4 21h145l24 -149h2l74 149h149l-4 -20l-19 -4c-14 -4 -18 -6 -22 -30l-30 -177c-5 -25 -2 -29 11 -31l20 -4l-4 -22h-166l4 22l20 4c15 3 18 6 22 31l33 192h-2l-120 -243h-34l-40 243h-2l-31 -182
c-6 -33 -4 -39 11 -41l22 -4l-4 -22h-113zM89 407l4 21l24 4c17 3 19 6 23 32l35 203h-4c-21 0 -29 -4 -41 -17c-14 -18 -24 -36 -42 -68h-18l22 111h264l-14 -111h-18c-8 31 -12 50 -20 68c-6 13 -14 17 -35 17h-4l-34 -203c-4 -26 -4 -30 12 -32l23 -4l-3 -21h-174z" />
    <glyph glyph-name="acute" unicode="&#xb4;" horiz-adv-x="500" 
d="M190 574l-8 18l133 117c18 16 35 24 53 24c30 0 51 -29 51 -58c0 -25 -14 -49 -48 -57z" />
    <glyph glyph-name="dieresis" unicode="&#xa8;" horiz-adv-x="500" 
d="M216 578c-41 0 -74 30 -74 73c0 44 34 75 76 75c41 0 75 -31 75 -73c0 -44 -34 -75 -77 -75zM417 578c-41 0 -75 30 -75 73c0 44 34 75 77 75c40 0 74 -31 74 -73c0 -44 -34 -75 -76 -75z" />
    <glyph glyph-name="notequal" unicode="&#x2260;" horiz-adv-x="510" 
d="M43 386v55h252l79 139h61l-80 -139h135v-55h-166l-54 -95h220v-55h-252l-79 -140h-61l80 140h-135v55h166l54 95h-220z" />
    <glyph glyph-name="AE" unicode="&#xc6;" horiz-adv-x="927" 
d="M289 0l6 28l34 7c30 8 43 12 54 73l17 101h-201l-43 -61c-22 -30 -43 -59 -45 -81c-3 -15 5 -25 28 -32l26 -7l-5 -28h-209l5 28l23 6c33 9 46 18 107 102l370 508c-8 7 -20 10 -34 14l-33 7l6 28h526l-13 -202h-29c-16 56 -27 85 -38 107c-24 47 -46 51 -109 51
c-42 0 -70 -5 -86 -9l-45 -259h22c65 0 81 7 96 30c19 24 29 45 44 77h30l-46 -262h-30c-3 32 -7 53 -15 82c-7 25 -19 30 -92 30h-17l-34 -194c-15 -89 -14 -100 76 -100c80 0 96 10 138 61c22 27 50 69 87 133h31l-59 -238h-543zM464 584l-236 -333h180l58 333h-2z" />
    <glyph glyph-name="Oslash" unicode="&#xd8;" 
d="M34 276c0 262 202 429 389 429c55 0 106 -13 150 -37l44 62h52l-61 -86c60 -49 99 -125 99 -225c0 -269 -201 -432 -389 -432c-54 0 -105 13 -148 37l-62 -88h-52l79 112c-62 50 -101 129 -101 228zM206 214c0 -22 1 -43 3 -62l310 440c-16 46 -46 71 -98 71
c-131 0 -215 -251 -215 -449zM322 29c128 0 212 241 212 447c0 21 -1 41 -3 59l-310 -439c16 -43 47 -67 101 -67z" />
    <glyph glyph-name="plusminus" unicode="&#xb1;" horiz-adv-x="463" 
d="M217 157v170h-167v56h167v170h64v-170h167v-56h-167v-170h-64zM49 1v56h400v-56h-400z" />
    <glyph glyph-name="lessequal" unicode="&#x2264;" horiz-adv-x="467" 
d="M36 0v56h397v-56h-397zM434 150l-398 166v55l398 166v-63l-332 -130l332 -129v-65z" />
    <glyph glyph-name="greaterequal" unicode="&#x2265;" horiz-adv-x="467" 
d="M447 56v-56h-398v56h398zM447 316l-398 -166v65l331 129l-331 130v63l398 -166v-55z" />
    <glyph glyph-name="yen" unicode="&#xa5;" horiz-adv-x="599" 
d="M52 306l9 46h153l-75 221c-22 63 -29 78 -53 86l-19 6l5 28h329l-6 -28l-27 -6c-27 -6 -42 -20 -45 -42c-2 -15 2 -31 9 -56l49 -186h5l106 179c17 30 28 52 30 67c2 19 -6 29 -34 38l-21 6l5 28h203l-6 -28l-21 -6c-33 -10 -48 -31 -89 -97l-134 -210h154l-9 -46h-168
l-12 -70h167l-8 -46h-167l-14 -82c-10 -57 -7 -65 27 -73l35 -7l-4 -28h-332l5 28l37 7c37 8 43 12 54 73l14 82h-172l8 46h172l12 70h-172z" />
    <glyph glyph-name="ordfeminine" unicode="&#xaa;" horiz-adv-x="494" 
d="M144 261c-63 0 -98 46 -98 118c0 171 130 322 268 322c51 0 85 -12 115 -35h3l56 37l14 -6s-15 -38 -34 -125l-41 -191c-1 -9 -2 -15 -2 -20c0 -19 10 -22 36 -6l18 12l17 -21c-35 -34 -98 -84 -159 -84c-45 0 -50 32 -50 53c0 9 2 24 3 34h-3c-36 -47 -84 -88 -143 -88z
M215 341c28 0 58 28 81 56l50 241c-5 15 -15 29 -37 29c-59 0 -126 -144 -126 -277c0 -35 11 -49 32 -49z" />
    <glyph glyph-name="ordmasculine" unicode="&#xba;" horiz-adv-x="470" 
d="M237 262c-122 0 -185 75 -185 171c0 164 124 268 243 268c122 0 184 -75 184 -170c0 -164 -123 -269 -242 -269zM236 297c68 0 111 157 111 290c0 57 -18 80 -52 80c-66 0 -110 -157 -110 -290c0 -54 14 -80 51 -80z" />
    <glyph glyph-name="ae" unicode="&#xe6;" horiz-adv-x="744" 
d="M452 -13c-84 0 -138 40 -159 102h-4c-35 -49 -87 -102 -164 -102c-69 0 -119 40 -119 115c0 95 74 148 294 186l10 58c17 93 12 148 -52 148c-31 0 -43 -6 -46 -37c-6 -63 -29 -83 -75 -83c-40 0 -60 18 -60 54c0 62 82 105 191 105c86 0 140 -26 161 -81
c55 51 119 81 180 81c97 0 146 -42 146 -105c0 -95 -168 -154 -313 -179c-3 -22 -4 -46 -4 -69c0 -73 25 -115 84 -115c56 0 102 34 149 76l23 -20c-41 -51 -124 -134 -242 -134zM587 495c-47 0 -112 -88 -138 -210c58 14 101 29 130 53c28 24 39 55 39 103
c0 36 -12 54 -31 54zM283 155c0 36 4 69 9 97c-116 -26 -145 -58 -145 -122c0 -38 15 -56 42 -56c28 0 63 21 95 59c-1 7 -1 14 -1 22z" />
    <glyph glyph-name="oslash" unicode="&#xf8;" horiz-adv-x="543" 
d="M13 194c0 212 161 339 302 339c44 0 80 -9 111 -24l51 73h50l-67 -95c46 -37 69 -95 69 -159c0 -214 -160 -341 -301 -341c-42 0 -77 8 -106 21l-50 -72h-49l65 92c-51 38 -75 98 -75 166zM158 135v-7l221 314c-10 36 -30 52 -66 52c-95 0 -155 -194 -155 -359zM228 26
c96 0 156 195 157 354l-219 -310c11 -30 31 -44 62 -44z" />
    <glyph glyph-name="questiondown" unicode="&#xbf;" horiz-adv-x="471" 
d="M360 395l-32 -182c-82 -17 -175 -48 -175 -185c0 -58 36 -82 72 -82c23 0 32 8 38 44c8 58 33 76 77 76c46 0 65 -26 65 -57c0 -67 -63 -104 -164 -104c-144 0 -234 67 -234 173c0 146 128 216 286 235l15 82h52zM347 617c44 0 82 -36 82 -83c0 -44 -38 -82 -82 -82
s-83 38 -83 82c0 47 39 83 83 83z" />
    <glyph glyph-name="exclamdown" unicode="&#xa1;" horiz-adv-x="296" 
d="M198 394l9 -368c5 -87 -38 -119 -102 -119c-67 0 -117 46 -76 141l138 346h31zM204 616c44 0 82 -36 82 -82c0 -45 -38 -83 -82 -83s-83 38 -83 83c0 46 39 82 83 82z" />
    <glyph glyph-name="florin" unicode="&#x192;" horiz-adv-x="479" 
d="M60 356l10 47h84l14 62c36 167 125 240 254 240c101 0 131 -50 131 -85c0 -38 -20 -63 -66 -63c-40 0 -60 15 -66 77c-3 24 -7 31 -20 31c-24 0 -40 -18 -59 -105l-35 -157h124l-9 -47h-125l-67 -302c-41 -185 -113 -252 -240 -252c-90 0 -121 42 -121 82
c0 35 21 57 61 57c37 0 55 -17 59 -71c2 -25 7 -29 18 -29c17 0 30 18 43 79l94 436h-84z" />
    <glyph glyph-name="approxequal" unicode="&#x2248;" horiz-adv-x="520" 
d="M448 497l48 -23c-27 -61 -57 -104 -121 -104c-63 0 -160 46 -212 46c-32 0 -56 -35 -69 -68l-48 24c21 56 57 101 119 101s157 -45 212 -45c33 0 54 33 71 69zM448 342l48 -23c-27 -61 -57 -104 -121 -104c-63 0 -160 45 -212 45c-32 0 -56 -34 -69 -67l-48 24
c21 57 57 101 119 101s157 -45 212 -45c33 0 54 33 71 69z" />
    <glyph glyph-name="guillemotleft" unicode="&#xab;" horiz-adv-x="453" 
d="M342 45l-137 203l1 19l209 193h34l-120 -204l46 -211h-33zM163 45l-136 203l1 19l208 193h35l-120 -204l46 -211h-34z" />
    <glyph glyph-name="guillemotright" unicode="&#xbb;" horiz-adv-x="453" 
d="M115 460l137 -203l-1 -19l-209 -193h-33l118 204l-45 211h33zM293 460l137 -203l-1 -19l-209 -193h-34l120 204l-46 211h33z" />
    <glyph glyph-name="ellipsis" unicode="&#x2026;" horiz-adv-x="675" 
d="M79 -7c-44 0 -80 38 -80 83c2 47 41 82 85 82c43 0 80 -35 80 -82c-1 -45 -41 -83 -85 -83zM302 -7c-44 0 -80 38 -80 83c2 47 41 82 85 82s81 -35 80 -82c-1 -45 -41 -83 -85 -83zM526 -7c-44 0 -81 38 -80 83c1 47 40 82 84 82s81 -35 80 -82c-1 -45 -41 -83 -84 -83z
" />
    <glyph glyph-name="uni00A0" unicode="&#xa0;" horiz-adv-x="214" 
 />
    <glyph glyph-name="Agrave" unicode="&#xc0;" horiz-adv-x="657" 
d="M-47 0l5 28l24 6c31 9 41 20 87 102l307 557h97l81 -560c11 -75 20 -92 45 -100l20 -5l-5 -28h-319l5 28l29 7c30 6 45 21 45 44c1 17 -2 42 -5 69l-9 71h-190l-37 -72c-17 -32 -29 -58 -29 -77s9 -29 32 -35l27 -7l-5 -28h-205zM322 508l-129 -245h162l-28 245h-5z
M528 724l-194 39c-36 7 -48 28 -48 52c0 32 22 62 54 62c18 0 33 -7 51 -21l145 -114z" />
    <glyph glyph-name="Atilde" unicode="&#xc3;" horiz-adv-x="657" 
d="M-47 0l5 28l24 6c31 9 41 20 87 102l307 557h97l81 -560c11 -75 20 -92 45 -100l20 -5l-5 -28h-319l5 28l29 7c30 6 45 21 45 44c1 17 -2 42 -5 69l-9 71h-190l-37 -72c-17 -32 -29 -58 -29 -77s9 -29 32 -35l27 -7l-5 -28h-205zM295 723l-23 13c37 72 64 119 110 119
c49 0 109 -27 151 -27c20 0 31 9 54 40l22 -13c-35 -72 -60 -119 -108 -119c-50 0 -110 27 -152 27c-20 0 -31 -9 -54 -40zM322 508l-129 -245h162l-28 245h-5z" />
    <glyph glyph-name="Otilde" unicode="&#xd5;" 
d="M308 723l-23 13c37 72 64 119 110 119c49 0 109 -27 151 -27c20 0 31 9 54 40l22 -13c-35 -72 -60 -119 -108 -119c-50 0 -110 27 -152 27c-20 0 -31 -9 -54 -40zM318 -13c-158 0 -284 112 -284 289c0 262 202 429 389 429c156 0 284 -102 284 -286
c0 -269 -201 -432 -389 -432zM322 29c128 0 206 241 206 447c0 115 -25 187 -107 187c-131 0 -208 -251 -208 -449c0 -112 22 -185 109 -185z" />
    <glyph glyph-name="OE" unicode="&#x152;" horiz-adv-x="981" 
d="M888 0h-540c-190 0 -314 100 -314 276c0 266 195 417 419 417h522l-14 -202h-29c-16 56 -26 85 -37 107c-22 43 -44 51 -111 51c-46 0 -74 -6 -91 -10l-45 -258h28c65 0 80 7 96 29c17 23 28 46 43 78h29l-46 -262h-29c-3 32 -6 56 -14 82c-8 25 -22 30 -89 30h-26
l-34 -194c-14 -82 -6 -100 77 -100s102 11 143 61c25 30 50 69 88 133h32zM442 653c-162 0 -229 -245 -229 -438c0 -120 50 -175 134 -175c51 0 65 20 77 87l77 432c12 65 2 94 -59 94z" />
    <glyph glyph-name="oe" unicode="&#x153;" horiz-adv-x="815" 
d="M534 -13c-66 0 -111 31 -136 76c-50 -49 -112 -76 -174 -76c-143 0 -210 93 -210 207c0 212 157 339 297 339c93 0 145 -47 170 -106c57 64 131 106 202 106c94 0 144 -42 144 -105c0 -98 -167 -160 -312 -194c-2 -17 -3 -36 -3 -54c0 -73 24 -115 90 -115
c50 0 96 34 143 76l23 -20c-41 -51 -124 -134 -234 -134zM226 26c93 0 147 196 147 364c0 66 -22 104 -64 104c-92 0 -145 -194 -145 -362c0 -66 19 -106 62 -106zM659 495c-48 0 -115 -94 -139 -223c58 19 99 37 127 61c31 27 43 59 43 108c0 36 -12 54 -31 54z" />
    <glyph glyph-name="endash" unicode="&#x2013;" horiz-adv-x="388" 
d="M43 265l10 51h307l-10 -51h-307z" />
    <glyph glyph-name="emdash" unicode="&#x2014;" horiz-adv-x="621" 
d="M43 265l10 51h539l-9 -51h-540z" />
    <glyph glyph-name="quotedblleft" unicode="&#x201c;" horiz-adv-x="419" 
d="M168 451c-55 0 -88 39 -88 93c0 81 68 141 185 160l7 -23c-75 -26 -111 -64 -116 -105c5 4 16 8 30 8c24 0 56 -19 56 -62c0 -44 -35 -71 -74 -71zM370 451c-54 0 -87 39 -87 93c0 81 68 141 185 160l7 -23c-76 -26 -111 -64 -117 -105c6 4 17 8 30 8c25 0 57 -19 57 -62
c0 -44 -35 -71 -75 -71z" />
    <glyph glyph-name="quotedblright" unicode="&#x201d;" horiz-adv-x="419" 
d="M67 453l-7 23c76 26 111 64 116 105c-5 -4 -16 -8 -29 -8c-24 0 -57 18 -57 62c0 43 35 71 74 71c55 0 88 -39 88 -93c0 -81 -68 -141 -185 -160zM270 453l-8 23c76 26 111 64 117 105c-5 -4 -16 -8 -29 -8c-25 0 -57 19 -57 62s35 71 74 71c55 0 88 -39 88 -93
c0 -81 -68 -141 -185 -160z" />
    <glyph glyph-name="quoteleft" unicode="&#x2018;" horiz-adv-x="216" 
d="M168 451c-55 0 -88 39 -88 93c0 81 68 141 185 160l7 -23c-75 -26 -111 -64 -116 -105c5 4 16 8 30 8c24 0 56 -19 56 -62c0 -44 -35 -71 -74 -71z" />
    <glyph glyph-name="quoteright" unicode="&#x2019;" horiz-adv-x="216" 
d="M67 453l-7 23c76 26 111 64 116 105c-5 -4 -16 -8 -29 -8c-24 0 -57 19 -57 62s35 71 74 71c55 0 88 -39 88 -93c0 -81 -68 -141 -185 -160z" />
    <glyph glyph-name="divide" unicode="&#xf7;" horiz-adv-x="461" 
d="M43 310v57h398v-57h-398zM243 108c-40 0 -73 34 -73 73c0 42 33 73 73 73c39 0 73 -31 73 -73c0 -39 -34 -73 -73 -73zM243 423c-40 0 -73 34 -73 73c0 42 33 73 73 73c39 0 73 -31 73 -73c0 -39 -34 -73 -73 -73z" />
    <glyph glyph-name="ydieresis" unicode="&#xff;" horiz-adv-x="499" 
d="M-5 -210c-54 0 -86 27 -86 71c0 35 25 57 56 57c50 0 57 -52 94 -52c25 0 55 21 103 76c-18 205 -42 367 -60 442c-15 54 -24 56 -67 26l-16 -11l-18 23c52 57 124 111 177 111c35 0 53 -18 66 -77c22 -103 38 -228 45 -347h3c66 97 128 211 128 281c0 36 -42 49 -42 90
c0 34 30 53 61 53c36 0 67 -24 67 -74c0 -91 -98 -267 -215 -424c-109 -149 -202 -245 -296 -245zM230 578c-41 0 -74 30 -74 73c0 44 34 75 76 75c41 0 75 -31 75 -73c0 -44 -34 -75 -77 -75zM431 578c-41 0 -75 30 -75 73c0 44 34 75 77 75c40 0 74 -31 74 -73
c0 -44 -34 -75 -76 -75z" />
    <glyph glyph-name="Ydieresis" unicode="&#x178;" horiz-adv-x="631" 
d="M105 0l4 28l37 7c36 8 43 12 54 73l32 179l-85 286c-19 64 -28 77 -53 86l-19 6l5 28h318l-6 -28l-30 -6c-31 -7 -45 -24 -45 -49c0 -13 3 -31 13 -63l56 -200h4l127 201c23 37 32 54 32 75c0 17 -10 29 -36 36l-23 6l5 28h213l-6 -28l-20 -6c-31 -9 -52 -35 -92 -97
l-180 -273l-31 -181c-11 -58 -6 -65 27 -73l35 -7l-5 -28h-331zM339 724c-41 0 -74 30 -74 73c0 44 34 75 76 75c41 0 75 -30 75 -73c0 -44 -35 -75 -77 -75zM550 724c-41 0 -74 30 -74 73c0 44 34 75 76 75c41 0 74 -30 74 -73c0 -44 -34 -75 -76 -75z" />
    <glyph glyph-name="fraction" unicode="&#x2044;" horiz-adv-x="294" 
d="M-157 -50l624 764h65l-623 -764h-66z" />
    <glyph glyph-name="Euro" unicode="&#x20ac;" horiz-adv-x="596" 
d="M37 379l8 46h62c60 175 209 280 356 280c110 0 170 -47 170 -113c0 -42 -23 -68 -72 -68c-55 0 -73 18 -77 91c-2 43 -6 50 -37 50c-81 0 -145 -108 -176 -240h211l-16 -46h-204c-4 -25 -7 -50 -9 -74h189l-16 -46h-175v-12c0 -130 44 -182 158 -182c53 0 95 17 136 38
l-6 -38c-37 -33 -104 -78 -210 -78c-154 0 -249 95 -249 267v5h-64l8 46h58c3 25 7 50 12 74h-57z" />
    <glyph glyph-name="guilsinglleft" unicode="&#x2039;" horiz-adv-x="275" 
d="M163 45l-136 203l1 19l208 193h35l-120 -204l46 -211h-34z" />
    <glyph glyph-name="guilsinglright" unicode="&#x203a;" horiz-adv-x="275" 
d="M115 460l137 -203l-1 -19l-209 -193h-33l118 204l-45 211h33z" />
    <glyph glyph-name="daggerdbl" unicode="&#x2021;" horiz-adv-x="421" 
d="M203 313l-30 110c24 20 47 40 55 70c-45 -3 -78 -33 -111 -33c-39 0 -60 27 -60 58c0 33 24 60 59 60c41 0 67 -45 115 -57c0 51 -28 88 -28 120c0 31 26 60 69 60c39 0 62 -27 62 -57c0 -48 -57 -78 -69 -125c44 3 79 35 114 35c36 0 58 -26 58 -56
c0 -35 -24 -62 -60 -62c-40 0 -67 43 -115 55c-2 -30 14 -52 30 -75l-63 -103h-26zM226 291l31 -111c-24 -19 -47 -39 -56 -70c46 4 79 34 112 34c39 0 59 -27 59 -59c0 -33 -23 -60 -58 -60c-42 0 -67 46 -116 58c0 -51 29 -88 29 -120c0 -31 -26 -60 -69 -60
c-40 0 -62 27 -62 57c0 48 57 78 69 125c-44 -4 -80 -36 -114 -36c-36 0 -58 26 -58 57c0 34 23 62 59 62c41 0 68 -43 115 -55c2 29 -13 52 -30 75l63 103h26z" />
    <glyph glyph-name="periodcentered" unicode="&#xb7;" horiz-adv-x="230" 
d="M127 254c-44 0 -81 39 -80 83c0 47 40 82 84 82c43 0 80 -35 80 -82c-1 -44 -41 -83 -84 -83z" />
    <glyph glyph-name="quotesinglbase" unicode="&#x201a;" horiz-adv-x="216" 
d="M-34 -116l-7 23c75 26 111 64 116 105c-5 -4 -16 -8 -29 -8c-24 0 -57 18 -57 62c0 43 35 71 74 71c55 0 88 -39 88 -93c0 -81 -68 -141 -185 -160z" />
    <glyph glyph-name="quotedblbase" unicode="&#x201e;" horiz-adv-x="419" 
d="M169 -116l-8 23c76 26 111 64 117 105c-5 -4 -16 -8 -29 -8c-25 0 -58 19 -58 62s36 71 75 71c55 0 88 -39 88 -93c0 -81 -68 -141 -185 -160zM-34 -116l-7 23c75 26 111 64 116 105c-5 -4 -16 -8 -29 -8c-24 0 -57 18 -57 62c0 43 35 71 74 71c55 0 88 -39 88 -93
c0 -81 -68 -141 -185 -160z" />
    <glyph glyph-name="perthousand" unicode="&#x2030;" horiz-adv-x="1126" 
d="M212 377c57 0 90 134 90 217c0 55 -13 78 -42 78c-58 0 -91 -138 -91 -217c0 -55 15 -78 43 -78zM209 344c-80 0 -150 51 -150 145c0 126 108 216 203 216c78 0 151 -50 151 -143c0 -129 -107 -218 -204 -218zM37 -50l621 764h63l-619 -764h-65zM521 20
c57 0 90 134 90 217c0 55 -14 78 -42 78c-58 0 -91 -138 -91 -217c0 -55 15 -78 43 -78zM518 -13c-80 0 -150 51 -150 145c0 126 107 216 203 216c78 0 150 -50 150 -143c0 -129 -106 -218 -203 -218zM903 20c57 0 90 134 90 217c0 55 -13 78 -42 78
c-58 0 -91 -138 -91 -217c0 -55 15 -78 43 -78zM900 -13c-80 0 -150 51 -150 145c0 126 108 216 203 216c78 0 151 -50 151 -143c0 -129 -107 -218 -204 -218z" />
    <glyph glyph-name="Acircumflex" unicode="&#xc2;" horiz-adv-x="657" 
d="M-47 0l5 28l24 6c31 9 41 20 87 102l307 557h97l81 -560c11 -75 20 -92 45 -100l20 -5l-5 -28h-319l5 28l29 7c30 6 45 21 45 44c1 17 -2 42 -5 69l-9 71h-190l-37 -72c-17 -32 -29 -58 -29 -77s9 -29 32 -35l27 -7l-5 -28h-205zM280 717l-9 17l155 135h48l106 -136
l-11 -16l-127 54zM322 508l-129 -245h162l-28 245h-5z" />
    <glyph glyph-name="Ecircumflex" unicode="&#xca;" horiz-adv-x="621" 
d="M234 717l-9 17l155 135h48l106 -136l-11 -16l-127 54zM-29 0l5 28l34 7c32 9 41 12 52 73l84 477c10 58 5 64 -27 73l-31 7l5 28h522l-13 -202h-30c-16 56 -26 85 -37 107c-22 43 -44 51 -111 51c-46 0 -74 -6 -91 -10l-45 -258h28c65 0 80 7 96 29c18 23 28 46 43 78h29
l-46 -262h-29c-3 32 -6 56 -14 82c-8 25 -22 30 -89 30h-26l-34 -194c-14 -82 -5 -100 77 -100c83 0 102 11 143 61c25 30 51 69 88 133h32l-58 -238h-557z" />
    <glyph glyph-name="Aacute" unicode="&#xc1;" horiz-adv-x="657" 
d="M-47 0l5 28l24 6c31 9 41 20 87 102l307 557h97l81 -560c11 -75 20 -92 45 -100l20 -5l-5 -28h-319l5 28l29 7c30 6 45 21 45 44c1 17 -2 42 -5 69l-9 71h-190l-37 -72c-17 -32 -29 -58 -29 -77s9 -29 32 -35l27 -7l-5 -28h-205zM322 508l-129 -245h162l-28 245h-5z
M527 763l-196 -39l-7 18l147 114c17 14 33 21 51 21c31 0 54 -30 54 -62c0 -24 -13 -45 -49 -52z" />
    <glyph glyph-name="Edieresis" unicode="&#xcb;" horiz-adv-x="621" 
d="M-29 0l5 28l34 7c32 9 41 12 52 73l84 477c10 58 5 64 -27 73l-31 7l5 28h522l-13 -202h-30c-16 56 -26 85 -37 107c-22 43 -44 51 -111 51c-46 0 -74 -6 -91 -10l-45 -258h28c65 0 80 7 96 29c18 23 28 46 43 78h29l-46 -262h-29c-3 32 -6 56 -14 82
c-8 25 -22 30 -89 30h-26l-34 -194c-14 -82 -5 -100 77 -100c83 0 102 11 143 61c25 30 51 69 88 133h32l-58 -238h-557zM288 724c-41 0 -74 30 -74 73c0 44 34 75 76 75c41 0 75 -30 75 -73c0 -44 -35 -75 -77 -75zM499 724c-41 0 -74 30 -74 73c0 44 34 75 76 75
c41 0 74 -30 74 -73c0 -44 -34 -75 -76 -75z" />
    <glyph glyph-name="Egrave" unicode="&#xc8;" horiz-adv-x="621" 
d="M489 724l-194 39c-36 7 -48 28 -48 52c0 32 22 62 54 62c18 0 33 -7 51 -21l145 -114zM-29 0l5 28l34 7c32 9 41 12 52 73l84 477c10 58 5 64 -27 73l-31 7l5 28h522l-13 -202h-30c-16 56 -26 85 -37 107c-22 43 -44 51 -111 51c-46 0 -74 -6 -91 -10l-45 -258h28
c65 0 80 7 96 29c18 23 28 46 43 78h29l-46 -262h-29c-3 32 -6 56 -14 82c-8 25 -22 30 -89 30h-26l-34 -194c-14 -82 -5 -100 77 -100c83 0 102 11 143 61c25 30 51 69 88 133h32l-58 -238h-557z" />
    <glyph glyph-name="Iacute" unicode="&#xcd;" horiz-adv-x="358" 
d="M-29 0l5 28l37 7c33 8 41 12 52 73l84 477c10 58 5 65 -26 73l-35 7l5 28h329l-6 -28l-38 -7c-32 -7 -40 -12 -50 -73l-84 -477c-10 -58 -6 -66 25 -73l35 -7l-4 -28h-329zM369 763l-196 -39l-7 18l147 114c17 14 33 21 51 21c31 0 54 -30 54 -62c0 -24 -13 -45 -49 -52z
" />
    <glyph glyph-name="Icircumflex" unicode="&#xce;" horiz-adv-x="358" 
d="M-29 0l5 28l37 7c33 8 41 12 52 73l84 477c10 58 5 65 -26 73l-35 7l5 28h329l-6 -28l-38 -7c-32 -7 -40 -12 -50 -73l-84 -477c-10 -58 -6 -66 25 -73l35 -7l-4 -28h-329zM115 717l-9 17l155 135h48l106 -136l-11 -16l-127 54z" />
    <glyph glyph-name="Idieresis" unicode="&#xcf;" horiz-adv-x="358" 
d="M-29 0l5 28l37 7c33 8 41 12 52 73l84 477c10 58 5 65 -26 73l-35 7l5 28h329l-6 -28l-38 -7c-32 -7 -40 -12 -50 -73l-84 -477c-10 -58 -6 -66 25 -73l35 -7l-4 -28h-329zM169 724c-41 0 -74 30 -74 73c0 44 34 75 76 75c41 0 75 -30 75 -73c0 -44 -35 -75 -77 -75z
M380 724c-41 0 -74 30 -74 73c0 44 34 75 76 75c41 0 74 -30 74 -73c0 -44 -34 -75 -76 -75z" />
    <glyph glyph-name="Igrave" unicode="&#xcc;" horiz-adv-x="358" 
d="M-29 0l5 28l37 7c33 8 41 12 52 73l84 477c10 58 5 65 -26 73l-35 7l5 28h329l-6 -28l-38 -7c-32 -7 -40 -12 -50 -73l-84 -477c-10 -58 -6 -66 25 -73l35 -7l-4 -28h-329zM370 724l-194 39c-36 7 -48 28 -48 52c0 32 22 62 54 62c18 0 33 -7 51 -21l145 -114z" />
    <glyph glyph-name="Oacute" unicode="&#xd3;" 
d="M540 763l-196 -39l-7 18l147 114c17 14 33 21 51 21c31 0 54 -30 54 -62c0 -24 -13 -45 -49 -52zM318 -13c-158 0 -284 112 -284 289c0 262 202 429 389 429c156 0 284 -102 284 -286c0 -269 -201 -432 -389 -432zM322 29c128 0 206 241 206 447c0 115 -25 187 -107 187
c-131 0 -208 -251 -208 -449c0 -112 22 -185 109 -185z" />
    <glyph glyph-name="Ocircumflex" unicode="&#xd4;" 
d="M286 717l-9 17l155 135h48l106 -136l-11 -16l-127 54zM318 -13c-158 0 -284 112 -284 289c0 262 202 429 389 429c156 0 284 -102 284 -286c0 -269 -201 -432 -389 -432zM322 29c128 0 206 241 206 447c0 115 -25 187 -107 187c-131 0 -208 -251 -208 -449
c0 -112 22 -185 109 -185z" />
    <glyph glyph-name="Ograve" unicode="&#xd2;" 
d="M541 724l-194 39c-36 7 -48 28 -48 52c0 32 22 62 54 62c18 0 33 -7 51 -21l145 -114zM318 -13c-158 0 -284 112 -284 289c0 262 202 429 389 429c156 0 284 -102 284 -286c0 -269 -201 -432 -389 -432zM322 29c128 0 206 241 206 447c0 115 -25 187 -107 187
c-131 0 -208 -251 -208 -449c0 -112 22 -185 109 -185z" />
    <glyph glyph-name="Uacute" unicode="&#xda;" horiz-adv-x="685" 
d="M583 763l-196 -39l-7 18l147 114c17 14 33 21 51 21c31 0 54 -30 54 -62c0 -24 -13 -45 -49 -52zM344 -13c-172 0 -297 75 -263 269l59 329c10 58 5 64 -27 73l-31 7l6 28h321l-6 -28l-34 -7c-32 -8 -40 -12 -51 -73l-63 -361c-21 -116 19 -173 128 -173
c104 0 145 54 163 154l64 365c13 74 5 79 -34 88l-33 7l5 28h206l-5 -28l-32 -7c-31 -7 -44 -14 -57 -91l-66 -374c-21 -118 -96 -206 -250 -206z" />
    <glyph glyph-name="Ucircumflex" unicode="&#xdb;" horiz-adv-x="685" 
d="M329 717l-9 17l155 135h48l106 -136l-11 -16l-127 54zM344 -13c-172 0 -297 75 -263 269l59 329c10 58 5 64 -27 73l-31 7l6 28h321l-6 -28l-34 -7c-32 -8 -40 -12 -51 -73l-63 -361c-21 -116 19 -173 128 -173c104 0 145 54 163 154l64 365c13 74 5 79 -34 88l-33 7
l5 28h206l-5 -28l-32 -7c-31 -7 -44 -14 -57 -91l-66 -374c-21 -118 -96 -206 -250 -206z" />
    <glyph glyph-name="Ugrave" unicode="&#xd9;" horiz-adv-x="685" 
d="M584 724l-194 39c-36 7 -48 28 -48 52c0 32 22 62 54 62c18 0 33 -7 51 -21l145 -114zM344 -13c-172 0 -297 75 -263 269l59 329c10 58 5 64 -27 73l-31 7l6 28h321l-6 -28l-34 -7c-32 -8 -40 -12 -51 -73l-63 -361c-21 -116 19 -173 128 -173c104 0 145 54 163 154
l64 365c13 74 5 79 -34 88l-33 7l5 28h206l-5 -28l-32 -7c-31 -7 -44 -14 -57 -91l-66 -374c-21 -118 -96 -206 -250 -206z" />
    <glyph glyph-name="dotlessi" unicode="&#x131;" horiz-adv-x="299" 
d="M90 -12c-46 0 -64 34 -64 64c0 26 8 62 16 93l61 236c3 15 5 27 5 34c0 25 -17 21 -54 -5l-17 -12l-18 23c52 56 125 112 191 112c45 0 61 -31 61 -68c0 -18 -5 -57 -19 -107l-58 -223c-3 -11 -6 -24 -6 -33c0 -24 17 -26 50 -6l25 16l18 -22
c-46 -45 -120 -102 -191 -102z" />
    <glyph glyph-name="circumflex" unicode="&#x2c6;" horiz-adv-x="500" 
d="M180 571l-10 17l139 143h48l94 -144l-12 -16l-116 63z" />
    <glyph glyph-name="tilde" unicode="&#x2dc;" horiz-adv-x="500" 
d="M182 574l-23 13c37 72 64 119 110 119c43 0 89 -27 131 -27c20 0 31 9 54 40l22 -13c-35 -72 -60 -119 -108 -119c-43 0 -90 27 -132 27c-20 0 -31 -9 -54 -40z" />
    <glyph glyph-name="macron" unicode="&#xaf;" horiz-adv-x="497" 
d="M178 605l12 73h252l-13 -73h-251z" />
    <glyph glyph-name="breve" unicode="&#x2d8;" horiz-adv-x="497" 
d="M308 575c-74 0 -108 61 -117 147l27 8c15 -36 42 -63 99 -63c45 0 85 23 111 63l26 -8c-22 -81 -77 -147 -146 -147z" />
    <glyph glyph-name="dotaccent" unicode="&#x2d9;" horiz-adv-x="374" 
d="M251 582c-46 0 -83 32 -83 78c0 47 37 80 85 80c46 0 83 -32 83 -78c0 -47 -38 -80 -85 -80z" />
    <glyph glyph-name="ring" unicode="&#x2da;" horiz-adv-x="373" 
d="M251 571c-57 0 -95 40 -95 90c0 57 44 97 98 97c53 0 94 -37 94 -91c0 -56 -42 -96 -97 -96zM252 606c31 0 52 23 52 60c0 33 -19 57 -51 57c-30 0 -53 -24 -53 -60c0 -34 20 -57 52 -57z" />
    <glyph glyph-name="cedilla" unicode="&#xb8;" horiz-adv-x="500" 
d="M140 -205l3 22c58 11 89 27 89 51c0 17 -16 28 -46 31l-4 8l59 93h42l-40 -46c53 -5 78 -36 78 -65c0 -65 -85 -88 -181 -94z" />
    <glyph glyph-name="hungarumlaut" unicode="&#x2dd;" horiz-adv-x="468" 
d="M151 573l-14 17l83 125c16 27 34 40 52 40c25 0 54 -26 54 -55c0 -20 -16 -39 -46 -56zM320 573l-14 17l82 125c17 27 35 40 52 40c25 0 54 -26 54 -55c0 -20 -15 -39 -46 -56z" />
    <glyph glyph-name="ogonek" unicode="&#x2db;" horiz-adv-x="402" 
d="M139 -203c-55 0 -94 28 -94 69c0 56 67 103 143 134h34c-31 -30 -66 -66 -66 -114c0 -26 16 -38 40 -38c10 0 25 2 36 6l-4 -28c-15 -12 -44 -29 -89 -29z" />
    <glyph glyph-name="caron" unicode="&#x2c7;" horiz-adv-x="423" 
d="M240 573l-94 144l12 16l116 -62l143 62l10 -17l-139 -143h-48z" />
    <glyph glyph-name="space_uni0326" horiz-adv-x="510" 
d="M171 -250l-6 24c72 14 99 40 104 75c-5 -3 -16 -7 -27 -7c-35 0 -54 22 -54 55c0 31 31 58 71 58c46 0 79 -27 79 -78c0 -66 -54 -116 -167 -127z" />
    <glyph glyph-name="caron.alt" horiz-adv-x="510" 
d="M256 557l-16 9l36 147c7 27 20 44 46 44c27 0 60 -20 59 -51c0 -16 -8 -32 -22 -45z" />
    <glyph glyph-name="space_uni0326.alt" horiz-adv-x="510" 
d="M345 774l6 -23c-71 -15 -99 -41 -104 -76c5 3 16 7 27 7c35 0 54 -22 54 -55c0 -31 -31 -58 -71 -58c-46 0 -79 27 -79 78c0 67 54 116 167 127z" />
    <glyph glyph-name="acute.pl" horiz-adv-x="510" 
d="M228 566l-14 14l60 140c13 29 25 46 56 46c29 0 59 -25 59 -56c0 -16 -6 -31 -25 -45z" />
    <glyph glyph-name="grave.uc" horiz-adv-x="500" 
d="M449 724l-194 39c-36 7 -48 28 -48 52c0 32 22 62 54 62c18 0 33 -7 51 -21l145 -114z" />
    <glyph glyph-name="dieresis.uc" horiz-adv-x="500" 
d="M235 724c-41 0 -74 30 -74 73c0 44 34 75 76 75c41 0 75 -30 75 -73c0 -44 -35 -75 -77 -75zM446 724c-41 0 -74 30 -74 73c0 44 34 75 76 75c41 0 74 -30 74 -73c0 -44 -34 -75 -76 -75z" />
    <glyph glyph-name="macron.uc" horiz-adv-x="497" 
d="M188 743l13 73h282l-13 -73h-282z" />
    <glyph glyph-name="acute.uc" horiz-adv-x="500" 
d="M419 763l-196 -39l-7 18l147 114c17 14 33 21 51 21c31 0 54 -30 54 -62c0 -24 -13 -45 -49 -52z" />
    <glyph glyph-name="circumflex.uc" horiz-adv-x="500" 
d="M186 717l-9 17l155 135h48l106 -136l-11 -16l-127 54z" />
    <glyph glyph-name="caron.uc" horiz-adv-x="423" 
d="M449 879l8 -16l-149 -135h-49l-111 135l11 16l133 -54z" />
    <glyph glyph-name="breve.uc" horiz-adv-x="497" 
d="M335 725c-82 0 -123 65 -132 147l27 8c16 -36 47 -63 111 -63c53 0 97 23 124 63l25 -8c-22 -81 -72 -147 -155 -147z" />
    <glyph glyph-name="dotaccent.uc" horiz-adv-x="374" 
d="M275 727c-46 0 -83 32 -83 78c0 47 38 80 85 80c46 0 83 -32 83 -78c0 -47 -38 -80 -85 -80z" />
    <glyph glyph-name="ring.uc" horiz-adv-x="373" 
d="M279 719c-56 0 -94 41 -94 90c0 57 43 97 97 97s95 -37 95 -91c0 -56 -43 -96 -98 -96zM280 754c31 0 53 23 53 60c0 33 -20 57 -51 57c-30 0 -53 -24 -53 -60c0 -34 20 -57 51 -57z" />
    <glyph glyph-name="tilde.uc" horiz-adv-x="500" 
d="M200 723l-23 13c37 72 64 119 110 119c49 0 109 -27 151 -27c20 0 31 9 54 40l22 -13c-35 -72 -60 -119 -108 -119c-50 0 -110 27 -152 27c-20 0 -31 -9 -54 -40z" />
    <glyph glyph-name="hungarumlaut.uc" horiz-adv-x="468" 
d="M362 722l-14 17l67 113c17 29 32 41 51 41c25 0 55 -24 55 -53c0 -20 -12 -40 -41 -55zM192 722l-14 17l67 113c17 29 32 41 51 41c25 0 55 -24 55 -53c0 -20 -12 -40 -41 -55z" />
    <glyph glyph-name="acute.ucpl" horiz-adv-x="510" 
d="M239 728l-16 13l59 122c14 29 28 46 56 46s60 -26 60 -57c0 -15 -6 -32 -32 -47z" />
    <glyph glyph-name="Dcroat" unicode="&#x110;" horiz-adv-x="712" 
d="M37 327l8 42h63l38 216c10 58 4 64 -27 73l-31 7l5 28h311c197 0 303 -105 303 -274c0 -249 -185 -419 -401 -419h-335l5 28l34 7c32 8 41 12 52 73l38 219h-63zM300 44c155 0 228 195 228 436c0 114 -41 169 -132 169c-29 0 -51 -4 -63 -9l-47 -271h134l-8 -42h-134
l-33 -192c-13 -67 -3 -91 55 -91z" />
    <glyph glyph-name="Eng" unicode="&#x14a;" horiz-adv-x="673" 
d="M406 -144c35 0 62 32 80 132l-285 602h-4l-82 -467c-12 -71 -5 -80 35 -89l30 -6l-4 -28h-205l5 28l30 7c38 9 47 23 60 94l80 456c10 58 5 64 -27 73l-31 7l5 28h248l201 -419h3l51 296c12 69 6 79 -31 88l-35 7l5 28h205l-5 -28l-30 -7c-36 -8 -45 -16 -59 -96
l-95 -546c-24 -135 -76 -200 -178 -200c-80 0 -121 39 -121 86c0 38 25 65 68 65c44 0 58 -19 66 -84c3 -22 7 -27 20 -27z" />
    <glyph glyph-name="IJ" unicode="&#x132;" horiz-adv-x="712" 
d="M-29 0l5 28l37 7c33 8 41 12 52 73l84 477c10 58 5 65 -26 73l-35 7l5 28h329l-6 -28l-38 -7c-32 -7 -40 -12 -50 -73l-84 -477c-10 -58 -6 -66 25 -73l35 -7l-4 -28h-329zM320 -184c-88 0 -138 40 -138 94c0 38 25 65 69 65c51 0 68 -18 73 -95c1 -19 5 -23 17 -23
c21 0 36 16 48 82l114 646c10 58 5 64 -27 73l-31 7l5 28h322l-5 -28l-35 -7c-32 -8 -40 -12 -51 -73l-90 -510c-26 -146 -123 -259 -271 -259z" />
    <glyph glyph-name="uni0237" unicode="&#x237;" horiz-adv-x="294" 
d="M-60 -205c-72 0 -111 37 -111 80c0 33 22 53 55 53c40 0 59 -14 69 -74c2 -14 7 -18 15 -18c21 0 37 21 58 134l77 411c2 15 5 27 5 34c0 25 -17 21 -54 -5l-17 -12l-18 23c52 56 126 112 191 112c45 0 61 -31 61 -68c0 -18 -8 -56 -18 -107l-64 -296
c-39 -179 -128 -267 -249 -267z" />
    <glyph glyph-name="dcroat" unicode="&#x111;" horiz-adv-x="584" 
d="M263 597l9 46h155c7 37 2 44 -21 55l-35 15l4 23l225 20l9 -8s-14 -46 -27 -105h69l-8 -46h-70l-95 -467c-2 -10 -3 -19 -3 -28c0 -23 15 -26 48 -6l24 15l18 -22c-46 -44 -119 -101 -189 -101c-51 0 -60 39 -60 64c0 14 3 38 6 53h-4c-45 -59 -111 -118 -188 -118
s-122 56 -122 149c0 212 169 397 330 397c33 0 52 -7 64 -13h4s5 34 12 72l1 5h-156zM208 75c39 0 89 49 120 90l62 289c-7 21 -24 40 -56 40c-83 0 -172 -179 -172 -348c0 -52 18 -71 46 -71z" />
    <glyph glyph-name="eng" unicode="&#x14b;" horiz-adv-x="592" 
d="M325 -9l66 346c14 75 10 92 -14 92c-40 0 -90 -45 -127 -91l-73 -338h-155l81 381c3 15 5 27 5 34c0 25 -18 21 -54 -5l-16 -11l-18 23c51 55 119 111 183 111c43 0 58 -30 58 -61c0 -18 -7 -61 -12 -83h5c59 72 130 144 219 144c53 0 87 -42 87 -94
c0 -23 -5 -54 -15 -97l-57 -262c-44 -201 -137 -285 -259 -285c-72 0 -112 37 -112 80c0 33 23 53 56 53c40 0 59 -14 69 -74c2 -14 6 -18 14 -18c23 0 44 19 69 155z" />
    <glyph glyph-name="ij" unicode="&#x133;" horiz-adv-x="588" 
d="M90 -12c-46 0 -64 34 -64 64c0 26 8 62 16 93l61 236c3 15 5 27 5 34c0 25 -17 21 -54 -5l-17 -12l-18 23c52 56 125 112 191 112c45 0 61 -31 61 -68c0 -18 -5 -57 -19 -107l-58 -223c-3 -11 -6 -24 -6 -33c0 -24 17 -26 50 -6l25 16l18 -22
c-46 -45 -120 -102 -191 -102zM221 582c-47 0 -83 32 -83 78c0 47 37 80 85 80c46 0 83 -32 83 -78c0 -47 -38 -80 -85 -80zM234 -205c-72 0 -111 37 -111 80c0 33 22 53 55 53c40 0 59 -14 69 -74c2 -14 7 -18 15 -18c21 0 37 21 58 134l77 411c2 15 5 27 5 34
c0 25 -17 21 -54 -5l-17 -12l-18 23c52 56 126 112 191 112c45 0 61 -31 61 -68c0 -18 -8 -56 -18 -107l-64 -296c-39 -179 -128 -267 -249 -267zM515 582c-47 0 -83 32 -83 78c0 47 37 80 85 80c46 0 83 -32 83 -78c0 -47 -38 -80 -85 -80z" />
    <glyph glyph-name="Abreve" unicode="&#x102;" horiz-adv-x="657" 
d="M-47 0l5 28l24 6c31 9 41 20 87 102l307 557h97l81 -560c11 -75 20 -92 45 -100l20 -5l-5 -28h-319l5 28l29 7c30 6 45 21 45 44c1 17 -2 42 -5 69l-9 71h-190l-37 -72c-17 -32 -29 -58 -29 -77s9 -29 32 -35l27 -7l-5 -28h-205zM431 725c-82 0 -123 65 -132 147l27 8
c16 -36 47 -63 111 -63c53 0 97 23 124 63l25 -8c-22 -81 -72 -147 -155 -147zM322 508l-129 -245h162l-28 245h-5z" />
    <glyph glyph-name="Amacron" unicode="&#x100;" horiz-adv-x="657" 
d="M-47 0l5 28l24 6c31 9 41 20 87 102l307 557h97l81 -560c11 -75 20 -92 45 -100l20 -5l-5 -28h-319l5 28l29 7c30 6 45 21 45 44c1 17 -2 42 -5 69l-9 71h-190l-37 -72c-17 -32 -29 -58 -29 -77s9 -29 32 -35l27 -7l-5 -28h-205zM286 743l13 73h282l-13 -73h-282z
M322 508l-129 -245h162l-28 245h-5z" />
    <glyph glyph-name="Aogonek" unicode="&#x104;" horiz-adv-x="657" 
d="M323 -203c-56 0 -94 29 -94 70c0 57 75 105 157 139l-26 213h-190l-37 -72c-17 -32 -29 -58 -29 -77s9 -29 32 -35l27 -7l-5 -28h-205l5 28l24 6c31 9 41 20 87 102l307 557h97l81 -560c11 -75 20 -92 45 -100l20 -5l-5 -28h-112c-120 0 -162 -56 -162 -114
c0 -26 15 -38 40 -38c10 0 25 2 36 6l-4 -28c-15 -12 -44 -29 -89 -29zM322 508l-129 -245h162l-28 245h-5z" />
    <glyph glyph-name="Aringacute" unicode="&#x1fa;" horiz-adv-x="657" 
d="M-47 0l5 28l24 6c31 9 41 20 87 102l307 557h97l81 -560c11 -75 20 -92 45 -100l20 -5l-5 -28h-319l5 28l29 7c30 6 45 21 45 44c1 17 -2 42 -5 69l-9 71h-190l-37 -72c-17 -32 -29 -58 -29 -77s9 -29 32 -35l27 -7l-5 -28h-205zM434 719c-56 0 -94 41 -94 90
c0 57 43 97 97 97s95 -37 95 -91c0 -56 -43 -96 -98 -96zM322 508l-129 -245h162l-28 245h-5zM552 955l-196 -39l-7 18l147 114c17 14 33 21 51 21c31 0 54 -30 54 -62c0 -24 -13 -45 -49 -52zM435 754c31 0 53 23 53 60c0 33 -20 57 -51 57c-30 0 -53 -24 -53 -60
c0 -34 20 -57 51 -57z" />
    <glyph glyph-name="AEacute" unicode="&#x1fc;" horiz-adv-x="927" 
d="M289 0l6 28l34 7c30 8 43 12 54 73l17 101h-201l-43 -61c-22 -30 -43 -59 -45 -81c-3 -15 5 -25 28 -32l26 -7l-5 -28h-209l5 28l23 6c33 9 46 18 107 102l370 508c-8 7 -20 10 -34 14l-33 7l6 28h526l-13 -202h-29c-16 56 -27 85 -38 107c-24 47 -46 51 -109 51
c-42 0 -70 -5 -86 -9l-45 -259h22c65 0 81 7 96 30c19 24 29 45 44 77h30l-46 -262h-30c-3 32 -7 53 -15 82c-7 25 -19 30 -92 30h-17l-34 -194c-15 -89 -14 -100 76 -100c80 0 96 10 138 61c22 27 50 69 87 133h31l-59 -238h-543zM464 584l-236 -333h180l58 333h-2z
M775 763l-196 -39l-7 18l147 114c17 14 33 21 51 21c31 0 54 -30 54 -62c0 -24 -13 -45 -49 -52z" />
    <glyph glyph-name="Cacute" unicode="&#x106;" horiz-adv-x="609" 
d="M339 -12c-178 0 -304 108 -304 287c0 273 215 430 421 430c70 0 136 -13 174 -29l-18 -201h-30c-14 51 -30 101 -49 132c-24 41 -47 57 -92 57c-154 0 -227 -266 -227 -463c0 -123 40 -171 131 -171c48 0 83 22 115 62c28 33 58 83 91 137h29l-48 -209
c-41 -16 -111 -32 -193 -32zM551 763l-196 -39l-7 18l147 114c17 14 33 21 51 21c31 0 54 -30 54 -62c0 -24 -13 -45 -49 -52z" />
    <glyph glyph-name="Ccaron" unicode="&#x10c;" horiz-adv-x="609" 
d="M615 879l8 -16l-149 -135h-49l-111 135l11 16l133 -54zM339 -12c-178 0 -304 108 -304 287c0 273 215 430 421 430c70 0 136 -13 174 -29l-18 -201h-30c-14 51 -30 101 -49 132c-24 41 -47 57 -92 57c-154 0 -227 -266 -227 -463c0 -123 40 -171 131 -171
c48 0 83 22 115 62c28 33 58 83 91 137h29l-48 -209c-41 -16 -111 -32 -193 -32z" />
    <glyph glyph-name="Ccircumflex" unicode="&#x108;" horiz-adv-x="609" 
d="M298 717l-9 17l155 135h48l106 -136l-11 -16l-127 54zM339 -12c-178 0 -304 108 -304 287c0 273 215 430 421 430c70 0 136 -13 174 -29l-18 -201h-30c-14 51 -30 101 -49 132c-24 41 -47 57 -92 57c-154 0 -227 -266 -227 -463c0 -123 40 -171 131 -171
c48 0 83 22 115 62c28 33 58 83 91 137h29l-48 -209c-41 -16 -111 -32 -193 -32z" />
    <glyph glyph-name="Cdotaccent" unicode="&#x10a;" horiz-adv-x="609" 
d="M339 -12c-178 0 -304 108 -304 287c0 273 215 430 421 430c70 0 136 -13 174 -29l-18 -201h-30c-14 51 -30 101 -49 132c-24 41 -47 57 -92 57c-154 0 -227 -266 -227 -463c0 -123 40 -171 131 -171c48 0 83 22 115 62c28 33 58 83 91 137h29l-48 -209
c-41 -16 -111 -32 -193 -32zM460 727c-46 0 -83 32 -83 78c0 47 38 80 85 80c46 0 83 -32 83 -78c0 -47 -38 -80 -85 -80z" />
    <glyph glyph-name="Cacute.pl" horiz-adv-x="609" 
d="M339 -12c-178 0 -304 108 -304 287c0 273 215 430 421 430c70 0 136 -13 174 -29l-18 -201h-30c-14 51 -30 101 -49 132c-24 41 -47 57 -92 57c-154 0 -227 -266 -227 -463c0 -123 40 -171 131 -171c48 0 83 22 115 62c28 33 58 83 91 137h29l-48 -209
c-41 -16 -111 -32 -193 -32zM428 728l-16 13l59 122c14 29 28 46 56 46s60 -26 60 -57c0 -15 -6 -32 -32 -47z" />
    <glyph glyph-name="Dcaron" unicode="&#x10e;" 
d="M569 879l8 -16l-149 -135h-49l-111 135l11 16l133 -54zM-29 0l5 28l34 7c32 8 41 12 52 73l84 477c10 58 4 64 -27 73l-31 7l5 28h311c197 0 303 -105 303 -274c0 -245 -185 -419 -401 -419h-335zM300 44c155 0 228 202 228 436c0 114 -41 169 -132 169
c-29 0 -51 -4 -63 -9l-88 -505c-13 -67 -3 -91 55 -91z" />
    <glyph glyph-name="Ebreve" unicode="&#x114;" horiz-adv-x="621" 
d="M-29 0l5 28l34 7c32 9 41 12 52 73l84 477c10 58 5 64 -27 73l-31 7l5 28h522l-13 -202h-30c-16 56 -26 85 -37 107c-22 43 -44 51 -111 51c-46 0 -74 -6 -91 -10l-45 -258h28c65 0 80 7 96 29c18 23 28 46 43 78h29l-46 -262h-29c-3 32 -6 56 -14 82
c-8 25 -22 30 -89 30h-26l-34 -194c-14 -82 -5 -100 77 -100c83 0 102 11 143 61c25 30 51 69 88 133h32l-58 -238h-557zM393 725c-82 0 -123 65 -132 147l27 8c16 -36 47 -63 111 -63c53 0 97 23 124 63l25 -8c-22 -81 -72 -147 -155 -147z" />
    <glyph glyph-name="Ecaron" unicode="&#x11a;" horiz-adv-x="621" 
d="M551 879l8 -16l-149 -135h-49l-111 135l11 16l133 -54zM-29 0l5 28l34 7c32 9 41 12 52 73l84 477c10 58 5 64 -27 73l-31 7l5 28h522l-13 -202h-30c-16 56 -26 85 -37 107c-22 43 -44 51 -111 51c-46 0 -74 -6 -91 -10l-45 -258h28c65 0 80 7 96 29c18 23 28 46 43 78
h29l-46 -262h-29c-3 32 -6 56 -14 82c-8 25 -22 30 -89 30h-26l-34 -194c-14 -82 -5 -100 77 -100c83 0 102 11 143 61c25 30 51 69 88 133h32l-58 -238h-557z" />
    <glyph glyph-name="Edotaccent" unicode="&#x116;" horiz-adv-x="621" 
d="M396 727c-46 0 -83 32 -83 78c0 47 38 80 85 80c46 0 83 -32 83 -78c0 -47 -38 -80 -85 -80zM-29 0l5 28l34 7c32 9 41 12 52 73l84 477c10 58 5 64 -27 73l-31 7l5 28h522l-13 -202h-30c-16 56 -26 85 -37 107c-22 43 -44 51 -111 51c-46 0 -74 -6 -91 -10l-45 -258h28
c65 0 80 7 96 29c18 23 28 46 43 78h29l-46 -262h-29c-3 32 -6 56 -14 82c-8 25 -22 30 -89 30h-26l-34 -194c-14 -82 -5 -100 77 -100c83 0 102 11 143 61c25 30 51 69 88 133h32l-58 -238h-557z" />
    <glyph glyph-name="Emacron" unicode="&#x112;" horiz-adv-x="621" 
d="M-29 0l5 28l34 7c32 9 41 12 52 73l84 477c10 58 5 64 -27 73l-31 7l5 28h522l-13 -202h-30c-16 56 -26 85 -37 107c-22 43 -44 51 -111 51c-46 0 -74 -6 -91 -10l-45 -258h28c65 0 80 7 96 29c18 23 28 46 43 78h29l-46 -262h-29c-3 32 -6 56 -14 82
c-8 25 -22 30 -89 30h-26l-34 -194c-14 -82 -5 -100 77 -100c83 0 102 11 143 61c25 30 51 69 88 133h32l-58 -238h-557zM247 743l13 73h282l-13 -73h-282z" />
    <glyph glyph-name="Eogonek" unicode="&#x118;" horiz-adv-x="621" 
d="M-29 0l5 28l34 7c32 9 41 12 52 73l84 477c10 58 5 64 -27 73l-31 7l5 28h522l-13 -202h-30c-16 56 -26 85 -37 107c-22 43 -44 51 -111 51c-46 0 -74 -6 -91 -10l-45 -258h28c65 0 80 7 96 29c18 23 28 46 43 78h29l-46 -262h-29c-3 32 -6 56 -14 82
c-8 25 -22 30 -89 30h-26l-34 -194c-14 -82 -5 -100 77 -100c83 0 102 11 143 61c25 30 51 69 88 133h32l-58 -238h-90c-32 -30 -67 -66 -67 -114c0 -26 16 -38 41 -38c10 0 25 2 35 6l-4 -28c-15 -12 -44 -29 -88 -29c-56 0 -94 28 -94 69c0 55 63 103 136 134h-426z" />
    <glyph glyph-name="Gbreve" unicode="&#x11e;" horiz-adv-x="674" 
d="M446 725c-82 0 -123 65 -132 147l27 8c16 -36 47 -63 111 -63c53 0 97 23 124 63l25 -8c-22 -81 -72 -147 -155 -147zM347 -12c-195 0 -313 111 -313 284c0 280 208 433 421 433c80 0 151 -13 190 -32l-19 -201h-31c-17 58 -31 99 -51 134c-23 42 -46 58 -100 58
c-149 0 -230 -250 -230 -473c0 -110 32 -161 125 -161c31 0 51 6 69 19l27 151c10 57 4 65 -29 73l-29 8l5 27h298l-5 -27l-26 -7c-29 -8 -34 -13 -45 -74l-31 -176c-53 -20 -135 -36 -226 -36z" />
    <glyph glyph-name="Gcircumflex" unicode="&#x11c;" horiz-adv-x="674" 
d="M296 717l-9 17l155 135h48l106 -136l-11 -16l-127 54zM347 -12c-195 0 -313 111 -313 284c0 280 208 433 421 433c80 0 151 -13 190 -32l-19 -201h-31c-17 58 -31 99 -51 134c-23 42 -46 58 -100 58c-149 0 -230 -250 -230 -473c0 -110 32 -161 125 -161c31 0 51 6 69 19
l27 151c10 57 4 65 -29 73l-29 8l5 27h298l-5 -27l-26 -7c-29 -8 -34 -13 -45 -74l-31 -176c-53 -20 -135 -36 -226 -36z" />
    <glyph glyph-name="Gcommaaccent" unicode="&#x122;" horiz-adv-x="674" 
d="M208 -250l-6 24c72 14 99 40 104 75c-5 -3 -16 -7 -27 -7c-35 0 -54 22 -54 55c0 31 31 58 71 58c46 0 79 -27 79 -78c0 -66 -54 -116 -167 -127zM347 -12c-195 0 -313 111 -313 284c0 280 208 433 421 433c80 0 151 -13 190 -32l-19 -201h-31c-17 58 -31 99 -51 134
c-23 42 -46 58 -100 58c-149 0 -230 -250 -230 -473c0 -110 32 -161 125 -161c31 0 51 6 69 19l27 151c10 57 4 65 -29 73l-29 8l5 27h298l-5 -27l-26 -7c-29 -8 -34 -13 -45 -74l-31 -176c-53 -20 -135 -36 -226 -36z" />
    <glyph glyph-name="Gdotaccent" unicode="&#x120;" horiz-adv-x="674" 
d="M451 727c-46 0 -83 32 -83 78c0 47 38 80 85 80c46 0 83 -32 83 -78c0 -47 -38 -80 -85 -80zM347 -12c-195 0 -313 111 -313 284c0 280 208 433 421 433c80 0 151 -13 190 -32l-19 -201h-31c-17 58 -31 99 -51 134c-23 42 -46 58 -100 58c-149 0 -230 -250 -230 -473
c0 -110 32 -161 125 -161c31 0 51 6 69 19l27 151c10 57 4 65 -29 73l-29 8l5 27h298l-5 -27l-26 -7c-29 -8 -34 -13 -45 -74l-31 -176c-53 -20 -135 -36 -226 -36z" />
    <glyph glyph-name="Hbar" unicode="&#x126;" horiz-adv-x="746" 
d="M45 491l7 43h85l9 51c10 58 5 64 -27 73l-31 7l5 28h321l-6 -28l-33 -7c-32 -9 -40 -12 -51 -73l-9 -51h216l9 51c11 58 5 64 -27 73l-29 7l5 28h320l-5 -28l-35 -7c-31 -7 -39 -12 -50 -73l-9 -51h87l-7 -43h-88l-67 -383c-10 -58 -6 -65 25 -73l32 -7l-5 -28h-320l4 28
l33 7c33 9 41 12 52 73l39 223h-216l-39 -223c-10 -58 -6 -64 25 -73l31 -7l-4 -28h-321l5 28l34 7c32 9 41 12 52 73l67 383h-84zM287 377h217l19 114h-216z" />
    <glyph glyph-name="Hcircumflex" unicode="&#x124;" horiz-adv-x="746" 
d="M-29 0l5 28l34 7c32 9 41 12 52 73l84 477c10 58 5 64 -27 73l-31 7l5 28h321l-6 -28l-33 -7c-32 -9 -40 -12 -51 -73l-37 -208h217l36 208c11 58 5 64 -27 73l-29 7l5 28h320l-5 -28l-35 -7c-31 -7 -39 -12 -50 -73l-84 -477c-10 -58 -6 -65 25 -73l32 -7l-5 -28h-320
l4 28l33 7c33 9 41 12 52 73l39 223h-216l-39 -223c-10 -58 -6 -64 25 -73l31 -7l-4 -28h-321zM308 717l-9 17l155 135h48l106 -136l-11 -16l-127 54z" />
    <glyph glyph-name="Idotaccent" unicode="&#x130;" horiz-adv-x="358" 
d="M-29 0l5 28l37 7c33 8 41 12 52 73l84 477c10 58 5 65 -26 73l-35 7l5 28h329l-6 -28l-38 -7c-32 -7 -40 -12 -50 -73l-84 -477c-10 -58 -6 -66 25 -73l35 -7l-4 -28h-329zM276 727c-46 0 -83 32 -83 78c0 47 38 80 85 80c46 0 83 -32 83 -78c0 -47 -38 -80 -85 -80z" />
    <glyph glyph-name="Ibreve" unicode="&#x12c;" horiz-adv-x="358" 
d="M-29 0l5 28l37 7c33 8 41 12 52 73l84 477c10 58 5 65 -26 73l-35 7l5 28h329l-6 -28l-38 -7c-32 -7 -40 -12 -50 -73l-84 -477c-10 -58 -6 -66 25 -73l35 -7l-4 -28h-329zM273 725c-82 0 -123 65 -132 147l27 8c16 -36 47 -63 111 -63c53 0 97 23 124 63l25 -8
c-22 -81 -72 -147 -155 -147z" />
    <glyph glyph-name="Imacron" unicode="&#x12a;" horiz-adv-x="358" 
d="M-29 0l5 28l37 7c33 8 41 12 52 73l84 477c10 58 5 65 -26 73l-35 7l5 28h329l-6 -28l-38 -7c-32 -7 -40 -12 -50 -73l-84 -477c-10 -58 -6 -66 25 -73l35 -7l-4 -28h-329zM128 743l13 73h282l-13 -73h-282z" />
    <glyph glyph-name="Iogonek" unicode="&#x12e;" horiz-adv-x="358" 
d="M-29 0l5 28l37 7c33 8 41 12 52 73l84 477c10 58 5 65 -26 73l-35 7l5 28h329l-6 -28l-38 -7c-32 -7 -40 -12 -50 -73l-84 -477c-10 -58 -6 -66 25 -73l35 -7l-4 -28h-100c-26 -30 -53 -67 -53 -114c0 -26 16 -38 40 -38c10 0 26 2 36 6l-4 -28c-15 -12 -44 -29 -88 -29
c-56 0 -94 28 -94 71c0 54 62 101 123 132h-189z" />
    <glyph glyph-name="Itilde" unicode="&#x128;" horiz-adv-x="358" 
d="M-29 0l5 28l37 7c33 8 41 12 52 73l84 477c10 58 5 65 -26 73l-35 7l5 28h329l-6 -28l-38 -7c-32 -7 -40 -12 -50 -73l-84 -477c-10 -58 -6 -66 25 -73l35 -7l-4 -28h-329zM137 723l-23 13c37 72 64 119 110 119c49 0 109 -27 151 -27c20 0 31 9 54 40l22 -13
c-35 -72 -60 -119 -108 -119c-50 0 -110 27 -152 27c-20 0 -31 -9 -54 -40z" />
    <glyph glyph-name="Jcircumflex" unicode="&#x134;" horiz-adv-x="354" 
d="M113 717l-9 17l155 135h48l106 -136l-11 -16l-127 54zM-37 -184c-88 0 -138 40 -138 94c0 38 25 65 69 65c51 0 68 -18 73 -95c1 -19 5 -23 17 -23c21 0 36 16 48 82l114 646c10 58 5 64 -27 73l-31 7l5 28h322l-5 -28l-35 -7c-32 -8 -40 -12 -51 -73l-90 -510
c-26 -146 -123 -259 -271 -259z" />
    <glyph glyph-name="Kcommaaccent" unicode="&#x136;" horiz-adv-x="708" 
d="M228 -250l-6 24c72 14 99 40 104 75c-5 -3 -16 -7 -27 -7c-35 0 -54 22 -54 55c0 31 31 58 71 58c46 0 79 -27 79 -78c0 -66 -54 -116 -167 -127zM438 0c-53 100 -105 230 -136 333l4 19l202 197c36 36 58 61 58 79c0 13 -11 24 -32 30l-25 7l6 28h232l-5 -28l-17 -4
c-43 -12 -70 -36 -133 -94l-147 -137c43 -128 106 -281 154 -369c9 -17 20 -21 40 -27l22 -6l-5 -28h-218zM-29 0l5 28l34 7c32 9 41 12 52 73l84 477c10 58 5 64 -27 73l-31 7l5 28h321l-6 -28l-33 -7c-32 -9 -40 -12 -51 -73l-84 -477c-10 -58 -6 -64 25 -73l31 -7l-4 -28
h-321z" />
    <glyph glyph-name="Lacute" unicode="&#x139;" horiz-adv-x="586" 
d="M356 763l-196 -39l-7 18l147 114c17 14 33 21 51 21c31 0 54 -30 54 -62c0 -24 -13 -45 -49 -52zM-29 0l5 28l34 7c32 9 41 12 52 73l84 477c10 58 5 64 -27 73l-31 7l5 28h329l-5 -28l-41 -8c-32 -7 -41 -11 -52 -72l-80 -453c-12 -67 -8 -88 70 -88s100 14 135 57
c27 32 51 72 91 144h31l-53 -245h-547z" />
    <glyph glyph-name="Lcaron" unicode="&#x13d;" horiz-adv-x="586" 
d="M463 497l-17 9l33 158c6 30 21 47 49 47c29 0 63 -21 63 -55c0 -18 -9 -33 -22 -48zM-29 0l5 28l34 7c32 9 41 12 52 73l84 477c10 58 5 64 -27 73l-31 7l5 28h329l-5 -28l-41 -8c-32 -7 -41 -11 -52 -72l-80 -453c-12 -67 -8 -88 70 -88s100 14 135 57
c27 32 51 72 91 144h31l-53 -245h-547z" />
    <glyph glyph-name="Lcommaaccent" unicode="&#x13b;" horiz-adv-x="586" 
d="M174 -250l-6 24c72 14 99 40 104 75c-5 -3 -16 -7 -27 -7c-35 0 -54 22 -54 55c0 31 31 58 71 58c46 0 79 -27 79 -78c0 -66 -54 -116 -167 -127zM-29 0l5 28l34 7c32 9 41 12 52 73l84 477c10 58 5 64 -27 73l-31 7l5 28h329l-5 -28l-41 -8c-32 -7 -41 -11 -52 -72
l-80 -453c-12 -67 -8 -88 70 -88s100 14 135 57c27 32 51 72 91 144h31l-53 -245h-547z" />
    <glyph glyph-name="Ldot" unicode="&#x13f;" horiz-adv-x="590" 
d="M519 291c-45 0 -82 39 -82 83c0 47 37 82 82 82c44 0 84 -35 84 -82c0 -44 -40 -83 -84 -83zM-29 0l5 28l34 7c32 9 41 12 52 73l84 477c10 58 5 64 -27 73l-31 7l5 28h329l-5 -28l-41 -8c-32 -7 -41 -11 -52 -72l-80 -453c-12 -67 -8 -88 70 -88s101 12 134 52
c29 35 53 73 85 130h34l-49 -226h-547z" />
    <glyph glyph-name="Nacute" unicode="&#x143;" horiz-adv-x="673" 
d="M550 763l-196 -39l-7 18l147 114c17 14 33 21 51 21c31 0 54 -30 54 -62c0 -24 -13 -45 -49 -52zM481 -1l-280 591h-4l-82 -467c-12 -71 -5 -80 35 -89l30 -6l-4 -28h-205l5 28l30 7c38 9 47 23 60 94l80 456c10 58 5 64 -27 73l-31 7l5 28h248l201 -419h3l51 296
c12 69 6 79 -31 88l-35 7l5 28h205l-5 -28l-30 -7c-36 -8 -45 -16 -59 -96l-99 -563h-66z" />
    <glyph glyph-name="Ncaron" unicode="&#x147;" horiz-adv-x="673" 
d="M614 879l8 -16l-149 -135h-49l-111 135l11 16l133 -54zM481 -1l-280 591h-4l-82 -467c-12 -71 -5 -80 35 -89l30 -6l-4 -28h-205l5 28l30 7c38 9 47 23 60 94l80 456c10 58 5 64 -27 73l-31 7l5 28h248l201 -419h3l51 296c12 69 6 79 -31 88l-35 7l5 28h205l-5 -28
l-30 -7c-36 -8 -45 -16 -59 -96l-99 -563h-66z" />
    <glyph glyph-name="Ncommaaccent" unicode="&#x145;" horiz-adv-x="673" 
d="M198 -250l-6 24c72 14 99 40 104 75c-5 -3 -16 -7 -27 -7c-35 0 -54 22 -54 55c0 31 31 58 71 58c46 0 79 -27 79 -78c0 -66 -54 -116 -167 -127zM481 -1l-280 591h-4l-82 -467c-12 -71 -5 -80 35 -89l30 -6l-4 -28h-205l5 28l30 7c38 9 47 23 60 94l80 456
c10 58 5 64 -27 73l-31 7l5 28h248l201 -419h3l51 296c12 69 6 79 -31 88l-35 7l5 28h205l-5 -28l-30 -7c-36 -8 -45 -16 -59 -96l-99 -563h-66z" />
    <glyph glyph-name="Nacute.pl" horiz-adv-x="673" 
d="M426 728l-16 13l59 122c14 29 28 46 56 46s60 -26 60 -57c0 -15 -6 -32 -32 -47zM481 -1l-280 591h-4l-82 -467c-12 -71 -5 -80 35 -89l30 -6l-4 -28h-205l5 28l30 7c38 9 47 23 60 94l80 456c10 58 5 64 -27 73l-31 7l5 28h248l201 -419h3l51 296c12 69 6 79 -31 88
l-35 7l5 28h205l-5 -28l-30 -7c-36 -8 -45 -16 -59 -96l-99 -563h-66z" />
    <glyph glyph-name="Obreve" unicode="&#x14e;" 
d="M445 725c-82 0 -123 65 -132 147l27 8c16 -36 47 -63 111 -63c53 0 97 23 124 63l25 -8c-22 -81 -72 -147 -155 -147zM318 -13c-158 0 -284 112 -284 289c0 262 202 429 389 429c156 0 284 -102 284 -286c0 -269 -201 -432 -389 -432zM322 29c128 0 206 241 206 447
c0 115 -25 187 -107 187c-131 0 -208 -251 -208 -449c0 -112 22 -185 109 -185z" />
    <glyph glyph-name="Ohungarumlaut" unicode="&#x150;" 
d="M502 722l-14 17l67 113c17 29 32 41 51 41c25 0 55 -24 55 -53c0 -20 -12 -40 -41 -55zM332 722l-14 17l67 113c17 29 32 41 51 41c25 0 55 -24 55 -53c0 -20 -12 -40 -41 -55zM318 -13c-158 0 -284 112 -284 289c0 262 202 429 389 429c156 0 284 -102 284 -286
c0 -269 -201 -432 -389 -432zM322 29c128 0 206 241 206 447c0 115 -25 187 -107 187c-131 0 -208 -251 -208 -449c0 -112 22 -185 109 -185z" />
    <glyph glyph-name="Omacron" unicode="&#x14c;" 
d="M299 743l13 73h282l-13 -73h-282zM318 -13c-158 0 -284 112 -284 289c0 262 202 429 389 429c156 0 284 -102 284 -286c0 -269 -201 -432 -389 -432zM322 29c128 0 206 241 206 447c0 115 -25 187 -107 187c-131 0 -208 -251 -208 -449c0 -112 22 -185 109 -185z" />
    <glyph glyph-name="Oacute.pl" 
d="M416 728l-16 13l59 122c14 29 28 46 56 46s60 -26 60 -57c0 -15 -6 -32 -32 -47zM318 -13c-158 0 -284 112 -284 289c0 262 202 429 389 429c156 0 284 -102 284 -286c0 -269 -201 -432 -389 -432zM322 29c128 0 206 241 206 447c0 115 -25 187 -107 187
c-131 0 -208 -251 -208 -449c0 -112 22 -185 109 -185z" />
    <glyph glyph-name="Oslashacute" unicode="&#x1fe;" 
d="M34 276c0 262 202 429 389 429c55 0 106 -13 150 -37l44 62h52l-61 -86c60 -49 99 -125 99 -225c0 -269 -201 -432 -389 -432c-54 0 -105 13 -148 37l-62 -88h-52l79 112c-62 50 -101 129 -101 228zM206 214c0 -22 1 -43 3 -62l310 440c-16 46 -46 71 -98 71
c-131 0 -215 -251 -215 -449zM322 29c128 0 212 241 212 447c0 21 -1 41 -3 59l-310 -439c16 -43 47 -67 101 -67zM540 763l-196 -39l-7 18l147 114c17 14 33 21 51 21c31 0 54 -30 54 -62c0 -24 -13 -45 -49 -52z" />
    <glyph glyph-name="Racute" unicode="&#x154;" horiz-adv-x="689" 
d="M499 763l-196 -39l-7 18l147 114c17 14 33 21 51 21c31 0 54 -30 54 -62c0 -24 -13 -45 -49 -52zM-29 0l5 28l34 7c32 9 41 11 52 73l84 477c10 58 5 64 -27 73l-31 7l5 28h303c181 0 255 -69 256 -171c0 -95 -62 -158 -158 -183v-5c28 -92 72 -204 112 -274
c9 -14 16 -20 38 -28l14 -4l-4 -28h-209c-44 83 -90 211 -113 303h-58l-34 -195c-10 -58 -6 -66 23 -73l33 -7l-4 -28h-321zM331 342c107 0 146 91 146 207c0 73 -26 100 -88 100c-25 0 -45 -3 -56 -7l-52 -296c5 -1 26 -4 50 -4z" />
    <glyph glyph-name="Rcaron" unicode="&#x158;" horiz-adv-x="689" 
d="M562 879l8 -16l-149 -135h-49l-111 135l11 16l133 -54zM-29 0l5 28l34 7c32 9 41 11 52 73l84 477c10 58 5 64 -27 73l-31 7l5 28h303c181 0 255 -69 256 -171c0 -95 -62 -158 -158 -183v-5c28 -92 72 -204 112 -274c9 -14 16 -20 38 -28l14 -4l-4 -28h-209
c-44 83 -90 211 -113 303h-58l-34 -195c-10 -58 -6 -66 23 -73l33 -7l-4 -28h-321zM331 342c107 0 146 91 146 207c0 73 -26 100 -88 100c-25 0 -45 -3 -56 -7l-52 -296c5 -1 26 -4 50 -4z" />
    <glyph glyph-name="Rcommaaccent" unicode="&#x156;" horiz-adv-x="689" 
d="M216 -250l-6 24c72 14 99 40 104 75c-5 -3 -16 -7 -27 -7c-35 0 -54 22 -54 55c0 31 31 58 71 58c46 0 79 -27 79 -78c0 -66 -54 -116 -167 -127zM-29 0l5 28l34 7c32 9 41 11 52 73l84 477c10 58 5 64 -27 73l-31 7l5 28h303c181 0 255 -69 256 -171
c0 -95 -62 -158 -158 -183v-5c28 -92 72 -204 112 -274c9 -14 16 -20 38 -28l14 -4l-4 -28h-209c-44 83 -90 211 -113 303h-58l-34 -195c-10 -58 -6 -66 23 -73l33 -7l-4 -28h-321zM331 342c107 0 146 91 146 207c0 73 -26 100 -88 100c-25 0 -45 -3 -56 -7l-52 -296
c5 -1 26 -4 50 -4z" />
    <glyph glyph-name="Sacute" unicode="&#x15a;" horiz-adv-x="515" 
d="M200 -13c-81 0 -164 21 -201 44l16 183h31c19 -55 33 -90 53 -124c22 -38 54 -60 110 -60c82 0 122 50 122 116c0 52 -28 89 -116 137c-104 58 -144 116 -144 197c0 133 118 225 267 225c84 0 136 -15 169 -31l-15 -164h-29c-17 48 -29 77 -49 108c-19 29 -41 46 -94 46
c-68 0 -111 -41 -111 -105c0 -51 31 -86 106 -127c118 -66 168 -122 168 -211c0 -130 -120 -234 -283 -234zM441 763l-196 -39l-7 18l147 114c17 14 33 21 51 21c31 0 54 -30 54 -62c0 -24 -13 -45 -49 -52z" />
    <glyph glyph-name="Scedilla" unicode="&#x15e;" horiz-adv-x="515" 
d="M70 -205l3 22c58 11 89 27 89 51c0 17 -16 28 -46 31l-4 8l51 82c-68 5 -133 22 -164 42l16 183h31c19 -55 33 -90 53 -124c22 -38 54 -60 110 -60c82 0 122 50 122 116c0 52 -28 89 -116 137c-104 58 -144 116 -144 197c0 133 118 225 267 225c84 0 136 -15 169 -31
l-15 -164h-29c-17 48 -29 77 -49 108c-19 29 -41 46 -94 46c-68 0 -111 -41 -111 -105c0 -51 31 -86 106 -127c118 -66 168 -122 168 -211c0 -130 -120 -233 -282 -234l-28 -33c53 -5 78 -36 78 -65c0 -65 -85 -88 -181 -94z" />
    <glyph glyph-name="Scircumflex" unicode="&#x15c;" horiz-adv-x="515" 
d="M187 717l-9 17l155 135h48l106 -136l-11 -16l-127 54zM200 -13c-81 0 -164 21 -201 44l16 183h31c19 -55 33 -90 53 -124c22 -38 54 -60 110 -60c82 0 122 50 122 116c0 52 -28 89 -116 137c-104 58 -144 116 -144 197c0 133 118 225 267 225c84 0 136 -15 169 -31
l-15 -164h-29c-17 48 -29 77 -49 108c-19 29 -41 46 -94 46c-68 0 -111 -41 -111 -105c0 -51 31 -86 106 -127c118 -66 168 -122 168 -211c0 -130 -120 -234 -283 -234z" />
    <glyph glyph-name="Scommaaccent" unicode="&#x218;" horiz-adv-x="515" 
d="M100 -250l-6 24c72 14 99 40 104 75c-5 -3 -16 -7 -27 -7c-35 0 -54 22 -54 55c0 31 31 58 71 58c46 0 79 -27 79 -78c0 -66 -54 -116 -167 -127zM200 -13c-81 0 -164 21 -201 44l16 183h31c19 -55 33 -90 53 -124c22 -38 54 -60 110 -60c82 0 122 50 122 116
c0 52 -28 89 -116 137c-104 58 -144 116 -144 197c0 133 118 225 267 225c84 0 136 -15 169 -31l-15 -164h-29c-17 48 -29 77 -49 108c-19 29 -41 46 -94 46c-68 0 -111 -41 -111 -105c0 -51 31 -86 106 -127c118 -66 168 -122 168 -211c0 -130 -120 -234 -283 -234z" />
    <glyph glyph-name="Sacute.pl" horiz-adv-x="515" 
d="M200 -13c-81 0 -164 21 -201 44l16 183h31c19 -55 33 -90 53 -124c22 -38 54 -60 110 -60c82 0 122 50 122 116c0 52 -28 89 -116 137c-104 58 -144 116 -144 197c0 133 118 225 267 225c84 0 136 -15 169 -31l-15 -164h-29c-17 48 -29 77 -49 108c-19 29 -41 46 -94 46
c-68 0 -111 -41 -111 -105c0 -51 31 -86 106 -127c118 -66 168 -122 168 -211c0 -130 -120 -234 -283 -234zM317 728l-16 13l59 122c14 29 28 46 56 46s60 -26 60 -57c0 -15 -6 -32 -32 -47z" />
    <glyph glyph-name="Tcaron" unicode="&#x164;" horiz-adv-x="621" 
d="M563 879l8 -16l-149 -135h-49l-111 135l11 16l133 -54zM100 0l5 28l37 7c36 8 43 12 54 73l95 541h-8c-59 0 -72 -4 -102 -39c-36 -39 -64 -89 -103 -158h-31l51 241h576l-31 -241h-31c-16 68 -26 116 -46 157c-16 36 -29 40 -88 40h-9l-95 -541c-10 -58 -6 -66 27 -73
l36 -7l-5 -28h-332z" />
    <glyph glyph-name="Tcommaaccent" unicode="&#x162;" horiz-adv-x="621" 
d="M163 -250l-6 24c72 14 99 40 104 75c-5 -3 -16 -7 -27 -7c-35 0 -54 22 -54 55c0 31 31 58 71 58c46 0 79 -27 79 -78c0 -66 -54 -116 -167 -127zM100 0l5 28l37 7c36 8 43 12 54 73l95 541h-8c-59 0 -72 -4 -102 -39c-36 -39 -64 -89 -103 -158h-31l51 241h576l-31 -241
h-31c-16 68 -26 116 -46 157c-16 36 -29 40 -88 40h-9l-95 -541c-10 -58 -6 -66 27 -73l36 -7l-5 -28h-332z" />
    <glyph glyph-name="Tbar" unicode="&#x166;" horiz-adv-x="621" 
d="M97 354l9 43h140l45 252h-8c-59 0 -72 -4 -102 -39c-36 -39 -64 -89 -103 -158h-31l51 241h576l-31 -241h-31c-16 68 -26 116 -46 157c-16 36 -29 40 -88 40h-9l-45 -252h146l-8 -43h-145l-43 -246c-10 -58 -6 -66 27 -73l36 -7l-5 -28h-332l5 28l37 7c36 8 43 12 54 73
l43 246h-142z" />
    <glyph glyph-name="Ubreve" unicode="&#x16c;" horiz-adv-x="685" 
d="M344 -13c-172 0 -297 75 -263 269l59 329c10 58 5 64 -27 73l-31 7l6 28h321l-6 -28l-34 -7c-32 -8 -40 -12 -51 -73l-63 -361c-21 -116 19 -173 128 -173c104 0 145 54 163 154l64 365c13 74 5 79 -34 88l-33 7l5 28h206l-5 -28l-32 -7c-31 -7 -44 -14 -57 -91l-66 -374
c-21 -118 -96 -206 -250 -206zM488 725c-82 0 -123 65 -132 147l27 8c16 -36 47 -63 111 -63c53 0 97 23 124 63l25 -8c-22 -81 -72 -147 -155 -147z" />
    <glyph glyph-name="Uhungarumlaut" unicode="&#x170;" horiz-adv-x="685" 
d="M544 722l-14 17l67 113c17 29 32 41 51 41c25 0 55 -24 55 -53c0 -20 -12 -40 -41 -55zM374 722l-14 17l67 113c17 29 32 41 51 41c25 0 55 -24 55 -53c0 -20 -12 -40 -41 -55zM344 -13c-172 0 -297 75 -263 269l59 329c10 58 5 64 -27 73l-31 7l6 28h321l-6 -28l-34 -7
c-32 -8 -40 -12 -51 -73l-63 -361c-21 -116 19 -173 128 -173c104 0 145 54 163 154l64 365c13 74 5 79 -34 88l-33 7l5 28h206l-5 -28l-32 -7c-31 -7 -44 -14 -57 -91l-66 -374c-21 -118 -96 -206 -250 -206z" />
    <glyph glyph-name="Umacron" unicode="&#x16a;" horiz-adv-x="685" 
d="M344 -13c-172 0 -297 75 -263 269l59 329c10 58 5 64 -27 73l-31 7l6 28h321l-6 -28l-34 -7c-32 -8 -40 -12 -51 -73l-63 -361c-21 -116 19 -173 128 -173c104 0 145 54 163 154l64 365c13 74 5 79 -34 88l-33 7l5 28h206l-5 -28l-32 -7c-31 -7 -44 -14 -57 -91l-66 -374
c-21 -118 -96 -206 -250 -206zM341 743l13 73h282l-13 -73h-282z" />
    <glyph glyph-name="Uogonek" unicode="&#x172;" horiz-adv-x="685" 
d="M341 -203c-56 0 -94 28 -94 69c0 49 51 92 121 122c-2 0 -19 -1 -24 -1c-172 0 -297 75 -263 269l59 329c10 58 5 64 -27 73l-31 7l6 28h321l-6 -28l-34 -7c-32 -8 -40 -12 -51 -73l-63 -361c-21 -116 19 -173 128 -173c104 0 145 54 163 154l64 365c13 74 5 79 -34 88
l-33 7l5 28h206l-5 -28l-32 -7c-31 -7 -44 -14 -57 -91l-66 -374c-13 -76 -48 -139 -115 -175c-57 -32 -122 -64 -122 -132c0 -26 16 -38 40 -38c10 0 26 2 36 6l-4 -28c-15 -12 -44 -29 -88 -29z" />
    <glyph glyph-name="Uring" unicode="&#x16e;" horiz-adv-x="685" 
d="M344 -13c-172 0 -297 75 -263 269l59 329c10 58 5 64 -27 73l-31 7l6 28h321l-6 -28l-34 -7c-32 -8 -40 -12 -51 -73l-63 -361c-21 -116 19 -173 128 -173c104 0 145 54 163 154l64 365c13 74 5 79 -34 88l-33 7l5 28h206l-5 -28l-32 -7c-31 -7 -44 -14 -57 -91l-66 -374
c-21 -118 -96 -206 -250 -206zM487 710c-56 0 -94 41 -94 90c0 57 43 97 97 97s95 -37 95 -91c0 -56 -43 -96 -98 -96zM488 745c31 0 53 23 53 60c0 33 -20 57 -51 57c-30 0 -53 -24 -53 -60c0 -34 20 -57 51 -57z" />
    <glyph glyph-name="Utilde" unicode="&#x168;" horiz-adv-x="685" 
d="M344 -13c-172 0 -297 75 -263 269l59 329c10 58 5 64 -27 73l-31 7l6 28h321l-6 -28l-34 -7c-32 -8 -40 -12 -51 -73l-63 -361c-21 -116 19 -173 128 -173c104 0 145 54 163 154l64 365c13 74 5 79 -34 88l-33 7l5 28h206l-5 -28l-32 -7c-31 -7 -44 -14 -57 -91l-66 -374
c-21 -118 -96 -206 -250 -206zM350 723l-23 13c37 72 64 119 110 119c49 0 109 -27 151 -27c20 0 31 9 54 40l22 -13c-35 -72 -60 -119 -108 -119c-50 0 -110 27 -152 27c-20 0 -31 -9 -54 -40z" />
    <glyph glyph-name="Wacute" unicode="&#x1e82;" horiz-adv-x="985" 
d="M702 763l-196 -39l-7 18l147 114c17 14 33 21 51 21c31 0 54 -30 54 -62c0 -24 -13 -45 -49 -52zM210 0l-70 570c-9 67 -15 84 -44 90l-23 5l6 28h311l-6 -28l-22 -5c-30 -8 -44 -23 -44 -57c0 -16 2 -39 4 -58l37 -348h5l147 297l-10 90c-6 49 -15 68 -40 75l-21 6l6 28
h311l-6 -28l-30 -7c-34 -7 -46 -27 -46 -60c0 -15 2 -33 4 -53l35 -348h5l165 349c14 29 27 60 27 83c0 18 -11 27 -34 32l-23 4l5 28h204l-5 -28l-20 -5c-31 -9 -52 -37 -91 -114l-277 -546h-103l-45 408h-3l-204 -408h-105z" />
    <glyph glyph-name="Wcircumflex" unicode="&#x174;" horiz-adv-x="985" 
d="M448 717l-9 17l155 135h48l106 -136l-11 -16l-127 54zM210 0l-70 570c-9 67 -15 84 -44 90l-23 5l6 28h311l-6 -28l-22 -5c-30 -8 -44 -23 -44 -57c0 -16 2 -39 4 -58l37 -348h5l147 297l-10 90c-6 49 -15 68 -40 75l-21 6l6 28h311l-6 -28l-30 -7
c-34 -7 -46 -27 -46 -60c0 -15 2 -33 4 -53l35 -348h5l165 349c14 29 27 60 27 83c0 18 -11 27 -34 32l-23 4l5 28h204l-5 -28l-20 -5c-31 -9 -52 -37 -91 -114l-277 -546h-103l-45 408h-3l-204 -408h-105z" />
    <glyph glyph-name="Wdieresis" unicode="&#x1e84;" horiz-adv-x="985" 
d="M502 724c-41 0 -74 30 -74 73c0 44 34 75 76 75c41 0 75 -30 75 -73c0 -44 -35 -75 -77 -75zM713 724c-41 0 -74 30 -74 73c0 44 34 75 76 75c41 0 74 -30 74 -73c0 -44 -34 -75 -76 -75zM210 0l-70 570c-9 67 -15 84 -44 90l-23 5l6 28h311l-6 -28l-22 -5
c-30 -8 -44 -23 -44 -57c0 -16 2 -39 4 -58l37 -348h5l147 297l-10 90c-6 49 -15 68 -40 75l-21 6l6 28h311l-6 -28l-30 -7c-34 -7 -46 -27 -46 -60c0 -15 2 -33 4 -53l35 -348h5l165 349c14 29 27 60 27 83c0 18 -11 27 -34 32l-23 4l5 28h204l-5 -28l-20 -5
c-31 -9 -52 -37 -91 -114l-277 -546h-103l-45 408h-3l-204 -408h-105z" />
    <glyph glyph-name="Wgrave" unicode="&#x1e80;" horiz-adv-x="985" 
d="M703 724l-194 39c-36 7 -48 28 -48 52c0 32 22 62 54 62c18 0 33 -7 51 -21l145 -114zM210 0l-70 570c-9 67 -15 84 -44 90l-23 5l6 28h311l-6 -28l-22 -5c-30 -8 -44 -23 -44 -57c0 -16 2 -39 4 -58l37 -348h5l147 297l-10 90c-6 49 -15 68 -40 75l-21 6l6 28h311
l-6 -28l-30 -7c-34 -7 -46 -27 -46 -60c0 -15 2 -33 4 -53l35 -348h5l165 349c14 29 27 60 27 83c0 18 -11 27 -34 32l-23 4l5 28h204l-5 -28l-20 -5c-31 -9 -52 -37 -91 -114l-277 -546h-103l-45 408h-3l-204 -408h-105z" />
    <glyph glyph-name="Ycircumflex" unicode="&#x176;" horiz-adv-x="631" 
d="M105 0l4 28l37 7c36 8 43 12 54 73l32 179l-85 286c-19 64 -28 77 -53 86l-19 6l5 28h318l-6 -28l-30 -6c-31 -7 -45 -24 -45 -49c0 -13 3 -31 13 -63l56 -200h4l127 201c23 37 32 54 32 75c0 17 -10 29 -36 36l-23 6l5 28h213l-6 -28l-20 -6c-31 -9 -52 -35 -92 -97
l-180 -273l-31 -181c-11 -58 -6 -65 27 -73l35 -7l-5 -28h-331zM285 717l-9 17l155 135h48l106 -136l-11 -16l-127 54z" />
    <glyph glyph-name="Ygrave" unicode="&#x1ef2;" horiz-adv-x="631" 
d="M105 0l4 28l37 7c36 8 43 12 54 73l32 179l-85 286c-19 64 -28 77 -53 86l-19 6l5 28h318l-6 -28l-30 -6c-31 -7 -45 -24 -45 -49c0 -13 3 -31 13 -63l56 -200h4l127 201c23 37 32 54 32 75c0 17 -10 29 -36 36l-23 6l5 28h213l-6 -28l-20 -6c-31 -9 -52 -35 -92 -97
l-180 -273l-31 -181c-11 -58 -6 -65 27 -73l35 -7l-5 -28h-331zM540 724l-194 39c-36 7 -48 28 -48 52c0 32 22 62 54 62c18 0 33 -7 51 -21l145 -114z" />
    <glyph glyph-name="Zacute" unicode="&#x179;" horiz-adv-x="567" 
d="M474 763l-196 -39l-7 18l147 114c17 14 33 21 51 21c31 0 54 -30 54 -62c0 -24 -13 -45 -49 -52zM-28 0l8 44l440 605v3h-30c-128 0 -151 -9 -187 -49c-30 -33 -47 -63 -91 -132h-31l45 222h501l-8 -44l-440 -602v-4h37c142 0 161 9 203 54c35 37 60 78 100 147h32
l-52 -244h-527z" />
    <glyph glyph-name="Zdotaccent" unicode="&#x17b;" horiz-adv-x="567" 
d="M-28 0l8 44l440 605v3h-30c-128 0 -151 -9 -187 -49c-30 -33 -47 -63 -91 -132h-31l45 222h501l-8 -44l-440 -602v-4h37c142 0 161 9 203 54c35 37 60 78 100 147h32l-52 -244h-527zM383 727c-46 0 -83 32 -83 78c0 47 38 80 85 80c46 0 83 -32 83 -78
c0 -47 -38 -80 -85 -80z" />
    <glyph glyph-name="Zacute.pl" horiz-adv-x="567" 
d="M-28 0l8 44l440 605v3h-30c-128 0 -151 -9 -187 -49c-30 -33 -47 -63 -91 -132h-31l45 222h501l-8 -44l-440 -602v-4h37c142 0 161 9 203 54c35 37 60 78 100 147h32l-52 -244h-527zM348 728l-16 13l59 122c14 29 28 46 56 46s60 -26 60 -57c0 -15 -6 -32 -32 -47z" />
    <glyph glyph-name="abreve" unicode="&#x103;" horiz-adv-x="572" 
d="M127 -13c-78 0 -120 57 -120 144c0 216 169 402 327 402c64 0 101 -16 136 -41h4l64 43l17 -7s-20 -49 -42 -156l-49 -242c-2 -11 -3 -19 -3 -28c0 -23 15 -26 48 -6l24 15l18 -22c-46 -44 -118 -101 -188 -101c-51 0 -58 39 -58 64c0 14 3 36 6 51h-4
c-45 -59 -106 -116 -180 -116zM204 78c40 0 82 44 113 86l61 291c-7 22 -19 39 -50 39c-77 0 -165 -178 -165 -350c0 -46 13 -66 41 -66zM346 575c-74 0 -108 61 -117 147l27 8c15 -36 42 -63 99 -63c45 0 85 23 111 63l26 -8c-22 -81 -77 -147 -146 -147z" />
    <glyph glyph-name="amacron" unicode="&#x101;" horiz-adv-x="572" 
d="M127 -13c-78 0 -120 57 -120 144c0 216 169 402 327 402c64 0 101 -16 136 -41h4l64 43l17 -7s-20 -49 -42 -156l-49 -242c-2 -11 -3 -19 -3 -28c0 -23 15 -26 48 -6l24 15l18 -22c-46 -44 -118 -101 -188 -101c-51 0 -58 39 -58 64c0 14 3 36 6 51h-4
c-45 -59 -106 -116 -180 -116zM204 78c40 0 82 44 113 86l61 291c-7 22 -19 39 -50 39c-77 0 -165 -178 -165 -350c0 -46 13 -66 41 -66zM221 605l12 73h252l-13 -73h-251z" />
    <glyph glyph-name="aogonek" unicode="&#x105;" horiz-adv-x="572" 
d="M339 -203c-56 0 -94 28 -94 69c0 50 53 92 120 122c-53 1 -60 39 -60 64c0 14 3 36 6 51h-4c-45 -59 -106 -116 -180 -116c-78 0 -120 57 -120 144c0 216 169 402 327 402c64 0 101 -16 136 -41h4l64 43l17 -7s-20 -49 -42 -156l-49 -242c-2 -11 -3 -19 -3 -28
c0 -23 15 -26 48 -6l24 15l18 -22c-38 -36 -80 -64 -121 -95c-37 -26 -75 -64 -75 -108c0 -26 16 -38 41 -38c10 0 25 2 35 6l-4 -28c-15 -12 -44 -29 -88 -29zM204 78c40 0 82 44 113 86l61 291c-7 22 -19 39 -50 39c-77 0 -165 -178 -165 -350c0 -46 13 -66 41 -66z" />
    <glyph glyph-name="aringacute" unicode="&#x1fb;" horiz-adv-x="572" 
d="M127 -13c-78 0 -120 57 -120 144c0 216 169 402 327 402c64 0 101 -16 136 -41h4l64 43l17 -7s-20 -49 -42 -156l-49 -242c-2 -11 -3 -19 -3 -28c0 -23 15 -26 48 -6l24 15l18 -22c-46 -44 -118 -101 -188 -101c-51 0 -58 39 -58 64c0 14 3 36 6 51h-4
c-45 -59 -106 -116 -180 -116zM204 78c40 0 82 44 113 86l61 291c-7 22 -19 39 -50 39c-77 0 -165 -178 -165 -350c0 -46 13 -66 41 -66zM355 571c-57 0 -95 40 -95 90c0 57 44 97 98 97c53 0 94 -37 94 -91c0 -56 -42 -96 -97 -96zM356 606c31 0 52 23 52 60
c0 33 -19 57 -51 57c-30 0 -53 -24 -53 -60c0 -34 20 -57 52 -57zM480 811l-196 -39l-7 18l147 114c17 14 33 21 51 21c31 0 54 -30 54 -62c0 -24 -13 -45 -49 -52z" />
    <glyph glyph-name="aeacute" unicode="&#x1fd;" horiz-adv-x="744" 
d="M452 -13c-84 0 -138 40 -159 102h-4c-35 -49 -87 -102 -164 -102c-69 0 -119 40 -119 115c0 95 74 148 294 186l10 58c17 93 12 148 -52 148c-31 0 -43 -6 -46 -37c-6 -63 -29 -83 -75 -83c-40 0 -60 18 -60 54c0 62 82 105 191 105c86 0 140 -26 161 -81
c55 51 119 81 180 81c97 0 146 -42 146 -105c0 -95 -168 -154 -313 -179c-3 -22 -4 -46 -4 -69c0 -73 25 -115 84 -115c56 0 102 34 149 76l23 -20c-41 -51 -124 -134 -242 -134zM587 495c-47 0 -112 -88 -138 -210c58 14 101 29 130 53c28 24 39 55 39 103
c0 36 -12 54 -31 54zM375 574l-8 18l133 117c18 16 35 24 53 24c30 0 51 -29 51 -58c0 -25 -14 -49 -48 -57zM283 155c0 36 4 69 9 97c-116 -26 -145 -58 -145 -122c0 -38 15 -56 42 -56c28 0 63 21 95 59c-1 7 -1 14 -1 22z" />
    <glyph glyph-name="cacute" unicode="&#x107;" horiz-adv-x="468" 
d="M265 574l-8 18l133 117c18 16 35 24 53 24c30 0 51 -29 51 -58c0 -25 -14 -49 -48 -57zM183 -13c-111 0 -168 68 -168 166c0 219 168 380 324 380c98 0 143 -48 143 -94c0 -39 -20 -63 -67 -63c-46 0 -64 19 -69 84c-3 27 -9 33 -29 33c-68 0 -147 -155 -147 -315
c0 -69 22 -112 84 -112c56 0 101 34 148 77l23 -20c-41 -52 -122 -136 -242 -136z" />
    <glyph glyph-name="ccaron" unicode="&#x10d;" horiz-adv-x="468" 
d="M312 573l-94 144l12 16l116 -62l143 62l10 -17l-139 -143h-48zM183 -13c-111 0 -168 68 -168 166c0 219 168 380 324 380c98 0 143 -48 143 -94c0 -39 -20 -63 -67 -63c-46 0 -64 19 -69 84c-3 27 -9 33 -29 33c-68 0 -147 -155 -147 -315c0 -69 22 -112 84 -112
c56 0 101 34 148 77l23 -20c-41 -52 -122 -136 -242 -136z" />
    <glyph glyph-name="ccircumflex" unicode="&#x109;" horiz-adv-x="468" 
d="M213 571l-10 17l139 143h48l94 -144l-12 -16l-116 63zM183 -13c-111 0 -168 68 -168 166c0 219 168 380 324 380c98 0 143 -48 143 -94c0 -39 -20 -63 -67 -63c-46 0 -64 19 -69 84c-3 27 -9 33 -29 33c-68 0 -147 -155 -147 -315c0 -69 22 -112 84 -112
c56 0 101 34 148 77l23 -20c-41 -52 -122 -136 -242 -136z" />
    <glyph glyph-name="cdotaccent" unicode="&#x10b;" horiz-adv-x="468" 
d="M183 -13c-111 0 -168 68 -168 166c0 219 168 380 324 380c98 0 143 -48 143 -94c0 -39 -20 -63 -67 -63c-46 0 -64 19 -69 84c-3 27 -9 33 -29 33c-68 0 -147 -155 -147 -315c0 -69 22 -112 84 -112c56 0 101 34 148 77l23 -20c-41 -52 -122 -136 -242 -136zM355 582
c-46 0 -83 32 -83 78c0 47 37 80 85 80c46 0 83 -32 83 -78c0 -47 -38 -80 -85 -80z" />
    <glyph glyph-name="cacute.pl" horiz-adv-x="468" 
d="M183 -13c-111 0 -168 68 -168 166c0 219 168 380 324 380c98 0 143 -48 143 -94c0 -39 -20 -63 -67 -63c-46 0 -64 19 -69 84c-3 27 -9 33 -29 33c-68 0 -147 -155 -147 -315c0 -69 22 -112 84 -112c56 0 101 34 148 77l23 -20c-41 -52 -122 -136 -242 -136zM319 566
l-14 14l60 140c13 29 25 46 56 46c29 0 59 -25 59 -56c0 -16 -6 -31 -25 -45z" />
    <glyph glyph-name="dcaron" unicode="&#x10f;" horiz-adv-x="584" 
d="M628 557l-16 9l36 147c7 27 20 44 46 44c27 0 60 -20 59 -51c0 -16 -8 -32 -22 -45zM130 -13c-77 0 -122 56 -122 149c0 212 169 397 330 397c33 0 52 -7 64 -13h4s5 34 12 72l7 37c10 50 7 57 -19 69l-35 15l4 23l225 20l9 -8s-16 -52 -29 -117l-102 -501
c-2 -10 -3 -19 -3 -28c0 -23 15 -26 48 -6l24 15l18 -22c-46 -44 -119 -101 -189 -101c-51 0 -60 39 -60 64c0 14 3 38 6 53h-4c-45 -59 -111 -118 -188 -118zM208 75c39 0 89 49 120 90l62 289c-7 21 -24 40 -56 40c-83 0 -172 -179 -172 -348c0 -52 18 -71 46 -71z" />
    <glyph glyph-name="ebreve" unicode="&#x115;" horiz-adv-x="477" 
d="M184 -13c-111 0 -169 70 -169 168c0 219 184 378 326 378c97 0 146 -42 146 -105c0 -99 -172 -160 -314 -194c-2 -17 -3 -36 -3 -54c0 -73 25 -115 84 -115c57 0 102 34 149 76l23 -20c-41 -51 -123 -134 -242 -134zM338 575c-74 0 -108 61 -117 147l27 8
c15 -36 42 -63 99 -63c45 0 85 23 111 63l26 -8c-22 -81 -77 -147 -146 -147zM319 495c-47 0 -117 -94 -141 -223c58 18 99 36 129 61c33 27 43 63 43 108c0 36 -12 54 -31 54z" />
    <glyph glyph-name="ecaron" unicode="&#x11b;" horiz-adv-x="477" 
d="M184 -13c-111 0 -169 70 -169 168c0 219 184 378 326 378c97 0 146 -42 146 -105c0 -99 -172 -160 -314 -194c-2 -17 -3 -36 -3 -54c0 -73 25 -115 84 -115c57 0 102 34 149 76l23 -20c-41 -51 -123 -134 -242 -134zM319 495c-47 0 -117 -94 -141 -223
c58 18 99 36 129 61c33 27 43 63 43 108c0 36 -12 54 -31 54zM302 573l-94 144l12 16l116 -62l143 62l10 -17l-139 -143h-48z" />
    <glyph glyph-name="edotaccent" unicode="&#x117;" horiz-adv-x="477" 
d="M184 -13c-111 0 -169 70 -169 168c0 219 184 378 326 378c97 0 146 -42 146 -105c0 -99 -172 -160 -314 -194c-2 -17 -3 -36 -3 -54c0 -73 25 -115 84 -115c57 0 102 34 149 76l23 -20c-41 -51 -123 -134 -242 -134zM319 495c-47 0 -117 -94 -141 -223
c58 18 99 36 129 61c33 27 43 63 43 108c0 36 -12 54 -31 54zM345 582c-46 0 -83 32 -83 78c0 47 37 80 85 80c46 0 83 -32 83 -78c0 -47 -38 -80 -85 -80z" />
    <glyph glyph-name="emacron" unicode="&#x113;" horiz-adv-x="477" 
d="M184 -13c-111 0 -169 70 -169 168c0 219 184 378 326 378c97 0 146 -42 146 -105c0 -99 -172 -160 -314 -194c-2 -17 -3 -36 -3 -54c0 -73 25 -115 84 -115c57 0 102 34 149 76l23 -20c-41 -51 -123 -134 -242 -134zM319 495c-47 0 -117 -94 -141 -223
c58 18 99 36 129 61c33 27 43 63 43 108c0 36 -12 54 -31 54zM213 605l12 73h252l-13 -73h-251z" />
    <glyph glyph-name="eogonek" unicode="&#x119;" horiz-adv-x="477" 
d="M15 155c0 219 184 378 326 378c97 0 146 -42 146 -105c0 -98 -168 -160 -314 -193c-2 -19 -3 -36 -3 -55c0 -73 25 -115 84 -115c57 0 102 34 149 76l23 -20c-28 -38 -77 -78 -120 -109c-54 -38 -97 -74 -97 -125c0 -26 16 -38 40 -38c11 0 26 2 36 6l-4 -28
c-15 -12 -44 -29 -88 -29c-56 0 -94 28 -94 69c0 49 54 92 122 122c-10 -1 -26 -2 -37 -2c-111 0 -169 70 -169 168zM319 495c-48 0 -116 -95 -140 -222c58 17 99 36 128 60c33 27 43 63 43 108c0 36 -12 54 -31 54z" />
    <glyph glyph-name="gbreve" unicode="&#x11f;" horiz-adv-x="504" 
d="M177 -211c-148 0 -240 47 -240 117c0 63 79 97 150 114v4c-34 11 -65 38 -65 81c0 56 52 96 96 119v3c-46 24 -76 63 -76 117c0 116 117 189 232 189c47 0 87 -11 117 -30c29 28 71 59 119 59c38 0 57 -21 57 -50c0 -32 -19 -56 -53 -56c-30 0 -37 12 -51 33
c-9 15 -27 12 -50 -3v-3c29 -23 47 -58 47 -97c0 -118 -117 -188 -231 -188c-32 0 -59 5 -83 13c-14 -10 -27 -24 -27 -44c0 -16 11 -30 39 -31l134 -8c112 -6 170 -50 170 -138c0 -117 -124 -201 -285 -201zM193 -173c98 0 155 40 155 103c0 39 -21 57 -74 63l-152 17
c-28 -14 -59 -39 -59 -94c0 -60 42 -89 130 -89zM233 235c56 0 88 84 88 197c0 44 -18 64 -52 64c-57 0 -88 -88 -88 -198c0 -44 18 -63 52 -63zM294 575c-74 0 -108 61 -117 147l27 8c15 -36 42 -63 99 -63c45 0 85 23 111 63l26 -8c-22 -81 -77 -147 -146 -147z" />
    <glyph glyph-name="gcircumflex" unicode="&#x11d;" horiz-adv-x="504" 
d="M159 571l-10 17l139 143h48l94 -144l-12 -16l-116 63zM177 -211c-148 0 -240 47 -240 117c0 63 79 97 150 114v4c-34 11 -65 38 -65 81c0 56 52 96 96 119v3c-46 24 -76 63 -76 117c0 116 117 189 232 189c47 0 87 -11 117 -30c29 28 71 59 119 59c38 0 57 -21 57 -50
c0 -32 -19 -56 -53 -56c-30 0 -37 12 -51 33c-9 15 -27 12 -50 -3v-3c29 -23 47 -58 47 -97c0 -118 -117 -188 -231 -188c-32 0 -59 5 -83 13c-14 -10 -27 -24 -27 -44c0 -16 11 -30 39 -31l134 -8c112 -6 170 -50 170 -138c0 -117 -124 -201 -285 -201zM193 -173
c98 0 155 40 155 103c0 39 -21 57 -74 63l-152 17c-28 -14 -59 -39 -59 -94c0 -60 42 -89 130 -89zM233 235c56 0 88 84 88 197c0 44 -18 64 -52 64c-57 0 -88 -88 -88 -198c0 -44 18 -63 52 -63z" />
    <glyph glyph-name="gcommaaccent" unicode="&#x123;" horiz-adv-x="504" 
d="M391 774l6 -23c-71 -15 -99 -41 -104 -76c5 3 16 7 27 7c35 0 54 -22 54 -55c0 -31 -31 -58 -71 -58c-46 0 -79 27 -79 78c0 67 54 116 167 127zM177 -211c-148 0 -240 47 -240 117c0 63 79 97 150 114v4c-34 11 -65 38 -65 81c0 56 52 96 96 119v3
c-46 24 -76 63 -76 117c0 116 117 189 232 189c47 0 87 -11 117 -30c29 28 71 59 119 59c38 0 57 -21 57 -50c0 -32 -19 -56 -53 -56c-30 0 -37 12 -51 33c-9 15 -27 12 -50 -3v-3c29 -23 47 -58 47 -97c0 -118 -117 -188 -231 -188c-32 0 -59 5 -83 13
c-14 -10 -27 -24 -27 -44c0 -16 11 -30 39 -31l134 -8c112 -6 170 -50 170 -138c0 -117 -124 -201 -285 -201zM193 -173c98 0 155 40 155 103c0 39 -21 57 -74 63l-152 17c-28 -14 -59 -39 -59 -94c0 -60 42 -89 130 -89zM233 235c56 0 88 84 88 197c0 44 -18 64 -52 64
c-57 0 -88 -88 -88 -198c0 -44 18 -63 52 -63z" />
    <glyph glyph-name="gdotaccent" unicode="&#x121;" horiz-adv-x="504" 
d="M177 -211c-148 0 -240 47 -240 117c0 63 79 97 150 114v4c-34 11 -65 38 -65 81c0 56 52 96 96 119v3c-46 24 -76 63 -76 117c0 116 117 189 232 189c47 0 87 -11 117 -30c29 28 71 59 119 59c38 0 57 -21 57 -50c0 -32 -19 -56 -53 -56c-30 0 -37 12 -51 33
c-9 15 -27 12 -50 -3v-3c29 -23 47 -58 47 -97c0 -118 -117 -188 -231 -188c-32 0 -59 5 -83 13c-14 -10 -27 -24 -27 -44c0 -16 11 -30 39 -31l134 -8c112 -6 170 -50 170 -138c0 -117 -124 -201 -285 -201zM193 -173c98 0 155 40 155 103c0 39 -21 57 -74 63l-152 17
c-28 -14 -59 -39 -59 -94c0 -60 42 -89 130 -89zM233 235c56 0 88 84 88 197c0 44 -18 64 -52 64c-57 0 -88 -88 -88 -198c0 -44 18 -63 52 -63zM301 582c-46 0 -83 32 -83 78c0 47 37 80 85 80c46 0 83 -32 83 -78c0 -47 -38 -80 -85 -80z" />
    <glyph glyph-name="hbar" unicode="&#x127;" horiz-adv-x="588" 
d="M49 597l8 46h82c6 36 1 44 -22 55l-35 15l4 23l223 20l10 -8s-14 -46 -27 -105h145l-9 -46h-145l-19 -103c-10 -47 -18 -79 -24 -101h5c58 68 128 140 216 140c53 0 86 -42 86 -94c0 -20 -4 -56 -10 -82l-53 -228c-2 -9 -3 -18 -3 -27c0 -24 15 -26 48 -6l25 15l17 -22
c-46 -44 -118 -101 -189 -101c-47 0 -61 34 -61 64c0 26 5 57 12 87l45 199c16 73 11 91 -13 91c-40 0 -92 -45 -132 -93l-68 -336h-154l119 597h-81z" />
    <glyph glyph-name="hcircumflex" unicode="&#x125;" horiz-adv-x="588" 
d="M382 -12c-47 0 -61 34 -61 64c0 26 5 57 12 87l45 199c16 73 11 91 -13 91c-40 0 -92 -45 -132 -93l-68 -336h-154l126 629c9 48 6 57 -20 69l-35 15l4 23l223 20l10 -8s-16 -52 -29 -117l-26 -137c-10 -47 -18 -79 -24 -101h5c58 68 128 140 216 140c53 0 86 -42 86 -94
c0 -20 -4 -56 -10 -82l-53 -228c-2 -9 -3 -18 -3 -27c0 -24 15 -26 48 -6l25 15l17 -22c-46 -44 -118 -101 -189 -101zM230 777l-9 17l155 135h48l106 -136l-11 -16l-127 54z" />
    <glyph glyph-name="ibreve" unicode="&#x12d;" horiz-adv-x="299" 
d="M90 -12c-46 0 -64 34 -64 64c0 26 8 62 16 93l61 236c3 15 5 27 5 34c0 25 -17 21 -54 -5l-17 -12l-18 23c52 56 125 112 191 112c45 0 61 -31 61 -68c0 -18 -5 -57 -19 -107l-58 -223c-3 -11 -6 -24 -6 -33c0 -24 17 -26 50 -6l25 16l18 -22
c-46 -45 -120 -102 -191 -102zM209 575c-74 0 -108 61 -117 147l27 8c15 -36 42 -63 99 -63c45 0 85 23 111 63l26 -8c-22 -81 -77 -147 -146 -147z" />
    <glyph glyph-name="imacron" unicode="&#x12b;" horiz-adv-x="299" 
d="M90 -12c-46 0 -64 34 -64 64c0 26 8 62 16 93l61 236c3 15 5 27 5 34c0 25 -17 21 -54 -5l-17 -12l-18 23c52 56 125 112 191 112c45 0 61 -31 61 -68c0 -18 -5 -57 -19 -107l-58 -223c-3 -11 -6 -24 -6 -33c0 -24 17 -26 50 -6l25 16l18 -22
c-46 -45 -120 -102 -191 -102zM83 605l13 73h251l-12 -73h-252z" />
    <glyph glyph-name="iogonek" unicode="&#x12f;" horiz-adv-x="299" 
d="M67 -203c-56 0 -94 28 -94 69c0 50 53 91 120 122h-3c-47 0 -64 36 -64 64c0 26 8 62 16 93l61 236c3 15 5 27 5 34c0 25 -17 21 -54 -5l-17 -12l-18 23c52 56 125 112 191 112c45 0 61 -31 61 -68c0 -18 -5 -57 -19 -107l-58 -223c-3 -11 -6 -24 -6 -33
c0 -24 17 -26 50 -6l25 16l18 -22c-34 -33 -74 -63 -119 -92c-36 -24 -78 -64 -78 -112c0 -26 15 -38 40 -38c10 0 25 2 36 6l-4 -28c-16 -12 -44 -29 -89 -29zM221 582c-47 0 -83 32 -83 78c0 47 37 80 85 80c46 0 83 -32 83 -78c0 -47 -38 -80 -85 -80z" />
    <glyph glyph-name="itilde" unicode="&#x129;" horiz-adv-x="299" 
d="M90 -12c-46 0 -64 34 -64 64c0 26 8 62 16 93l61 236c3 15 5 27 5 34c0 25 -17 21 -54 -5l-17 -12l-18 23c52 56 125 112 191 112c45 0 61 -31 61 -68c0 -18 -5 -57 -19 -107l-58 -223c-3 -11 -6 -24 -6 -33c0 -24 17 -26 50 -6l25 16l18 -22
c-46 -45 -120 -102 -191 -102zM89 574l-23 13c37 72 64 119 110 119c43 0 89 -27 131 -27c20 0 31 9 54 40l22 -13c-35 -72 -60 -119 -108 -119c-43 0 -90 27 -132 27c-20 0 -31 -9 -54 -40z" />
    <glyph glyph-name="idotaccent" horiz-adv-x="299" 
d="M90 -12c-46 0 -64 34 -64 64c0 26 8 62 16 93l61 236c3 15 5 27 5 34c0 25 -17 21 -54 -5l-17 -12l-18 23c52 56 125 112 191 112c45 0 61 -31 61 -68c0 -18 -5 -57 -19 -107l-58 -223c-3 -11 -6 -24 -6 -33c0 -24 17 -26 50 -6l25 16l18 -22
c-46 -45 -120 -102 -191 -102zM221 582c-47 0 -83 32 -83 78c0 47 37 80 85 80c46 0 83 -32 83 -78c0 -47 -38 -80 -85 -80z" />
    <glyph glyph-name="jcircumflex" unicode="&#x135;" horiz-adv-x="294" 
d="M-60 -205c-72 0 -111 37 -111 80c0 33 22 53 55 53c40 0 59 -14 69 -74c2 -14 7 -18 15 -18c21 0 37 21 58 134l77 411c2 15 5 27 5 34c0 25 -17 21 -54 -5l-17 -12l-18 23c52 56 126 112 191 112c45 0 61 -31 61 -68c0 -18 -8 -56 -18 -107l-64 -296
c-39 -179 -128 -267 -249 -267zM73 571l-10 17l139 143h48l94 -144l-12 -16l-116 63z" />
    <glyph glyph-name="kcommaaccent" unicode="&#x137;" horiz-adv-x="549" 
d="M124 -250l-6 24c72 14 99 40 104 75c-5 -3 -16 -7 -27 -7c-35 0 -54 22 -54 55c0 31 31 58 71 58c46 0 79 -27 79 -78c0 -66 -54 -116 -167 -127zM372 -12c-38 0 -59 28 -82 87c-17 46 -35 98 -58 177l2 14c100 146 193 267 274 267c32 0 59 -22 59 -64
c0 -41 -29 -63 -57 -63c-48 0 -47 40 -65 40c-21 0 -70 -47 -99 -90c35 -101 59 -168 82 -222c25 -59 34 -58 70 -36l20 13l18 -22c-51 -49 -109 -101 -164 -101zM10 0l126 629c10 48 7 57 -19 69l-35 15l4 23l223 20l10 -8s-16 -52 -29 -117l-125 -631h-155z" />
    <glyph glyph-name="lacute" unicode="&#x13a;" horiz-adv-x="300" 
d="M344 823l-196 -39l-7 18l147 114c17 14 33 21 51 21c31 0 54 -30 54 -62c0 -24 -13 -45 -49 -52zM91 -12c-46 0 -63 34 -63 64c0 27 7 57 13 88l95 489c9 48 8 57 -19 69l-37 15l4 23l226 20l9 -8s-16 -52 -29 -117l-98 -502c-2 -10 -4 -19 -4 -30c0 -22 18 -22 53 -1
l24 15l18 -22c-50 -48 -119 -103 -192 -103z" />
    <glyph glyph-name="lcaron" unicode="&#x13e;" horiz-adv-x="299" 
d="M339 557l-16 9l36 147c7 27 20 44 46 44c27 0 60 -20 59 -51c0 -16 -8 -32 -22 -45zM91 -12c-46 0 -63 34 -63 64c0 27 7 57 13 88l95 489c9 48 8 57 -19 69l-37 15l4 23l226 20l9 -8s-16 -52 -29 -117l-98 -502c-2 -10 -4 -19 -4 -30c0 -22 18 -22 53 -1l24 15l18 -22
c-50 -48 -119 -103 -192 -103z" />
    <glyph glyph-name="lcommaaccent" unicode="&#x13c;" horiz-adv-x="300" 
d="M2 -250l-6 24c72 14 99 40 104 75c-5 -3 -16 -7 -27 -7c-35 0 -54 22 -54 55c0 31 31 58 71 58c46 0 79 -27 79 -78c0 -66 -54 -116 -167 -127zM91 -12c-46 0 -63 34 -63 64c0 27 7 57 13 88l95 489c9 48 8 57 -19 69l-37 15l4 23l226 20l9 -8s-16 -52 -29 -117l-98 -502
c-2 -10 -4 -19 -4 -30c0 -22 18 -22 53 -1l24 15l18 -22c-50 -48 -119 -103 -192 -103z" />
    <glyph glyph-name="ldot" unicode="&#x140;" horiz-adv-x="364" 
d="M91 -12c-46 0 -63 34 -63 64c0 27 7 57 13 88l95 489c9 48 8 57 -19 69l-37 15l4 23l226 20l9 -8s-16 -52 -29 -117l-98 -502c-2 -10 -4 -19 -4 -30c0 -22 18 -22 53 -1l24 15l18 -22c-50 -48 -119 -103 -192 -103zM337 275c-36 0 -66 32 -65 68c0 38 32 67 68 67
s66 -29 66 -67c-1 -36 -34 -68 -69 -68z" />
    <glyph glyph-name="nacute" unicode="&#x144;" horiz-adv-x="601" 
d="M281 574l-8 18l133 117c18 16 35 24 53 24c30 0 51 -29 51 -58c0 -25 -14 -49 -48 -57zM394 -12c-46 0 -61 34 -61 64c0 26 6 57 13 87l44 199c16 73 11 91 -13 91c-40 0 -90 -45 -127 -91l-73 -338h-155l81 381c3 15 5 27 5 34c0 25 -18 21 -54 -5l-16 -11l-18 23
c51 55 119 111 183 111c43 0 58 -30 58 -61c0 -18 -7 -61 -12 -83h5c59 72 130 144 219 144c53 0 87 -42 87 -94c0 -20 -5 -56 -11 -82l-52 -228c-2 -9 -4 -18 -4 -27c0 -24 16 -26 48 -6l25 15l18 -22c-46 -44 -119 -101 -190 -101z" />
    <glyph glyph-name="napostrophe" unicode="&#x149;" horiz-adv-x="653" 
d="M-48 453l-7 23c76 26 111 64 117 105c-6 -4 -17 -8 -30 -8c-24 0 -57 19 -57 62s35 71 75 71c54 0 87 -39 87 -93c0 -81 -68 -141 -185 -160zM446 -12c-46 0 -61 34 -61 64c0 26 6 57 13 87l44 199c16 73 11 91 -13 91c-40 0 -90 -45 -127 -91l-73 -338h-155l81 381
c3 15 5 27 5 34c0 25 -18 21 -54 -5l-16 -11l-18 23c51 55 119 111 183 111c43 0 58 -30 58 -61c0 -18 -7 -61 -12 -83h5c59 72 130 144 219 144c53 0 87 -42 87 -94c0 -20 -5 -56 -11 -82l-52 -228c-2 -9 -4 -18 -4 -27c0 -24 16 -26 48 -6l25 15l18 -22
c-46 -44 -119 -101 -190 -101z" />
    <glyph glyph-name="ncaron" unicode="&#x148;" horiz-adv-x="601" 
d="M328 573l-94 144l12 16l116 -62l143 62l10 -17l-139 -143h-48zM394 -12c-46 0 -61 34 -61 64c0 26 6 57 13 87l44 199c16 73 11 91 -13 91c-40 0 -90 -45 -127 -91l-73 -338h-155l81 381c3 15 5 27 5 34c0 25 -18 21 -54 -5l-16 -11l-18 23c51 55 119 111 183 111
c43 0 58 -30 58 -61c0 -18 -7 -61 -12 -83h5c59 72 130 144 219 144c53 0 87 -42 87 -94c0 -20 -5 -56 -11 -82l-52 -228c-2 -9 -4 -18 -4 -27c0 -24 16 -26 48 -6l25 15l18 -22c-46 -44 -119 -101 -190 -101z" />
    <glyph glyph-name="ncommaaccent" unicode="&#x146;" horiz-adv-x="601" 
d="M154 -250l-6 24c72 14 99 40 104 75c-5 -3 -16 -7 -27 -7c-35 0 -54 22 -54 55c0 31 31 58 71 58c46 0 79 -27 79 -78c0 -66 -54 -116 -167 -127zM394 -12c-46 0 -61 34 -61 64c0 26 6 57 13 87l44 199c16 73 11 91 -13 91c-40 0 -90 -45 -127 -91l-73 -338h-155l81 381
c3 15 5 27 5 34c0 25 -18 21 -54 -5l-16 -11l-18 23c51 55 119 111 183 111c43 0 58 -30 58 -61c0 -18 -7 -61 -12 -83h5c59 72 130 144 219 144c53 0 87 -42 87 -94c0 -20 -5 -56 -11 -82l-52 -228c-2 -9 -4 -18 -4 -27c0 -24 16 -26 48 -6l25 15l18 -22
c-46 -44 -119 -101 -190 -101z" />
    <glyph glyph-name="nacute.pl" horiz-adv-x="601" 
d="M334 566l-14 14l60 140c13 29 25 46 56 46c29 0 59 -25 59 -56c0 -16 -6 -31 -25 -45zM394 -12c-46 0 -61 34 -61 64c0 26 6 57 13 87l44 199c16 73 11 91 -13 91c-40 0 -90 -45 -127 -91l-73 -338h-155l81 381c3 15 5 27 5 34c0 25 -18 21 -54 -5l-16 -11l-18 23
c51 55 119 111 183 111c43 0 58 -30 58 -61c0 -18 -7 -61 -12 -83h5c59 72 130 144 219 144c53 0 87 -42 87 -94c0 -20 -5 -56 -11 -82l-52 -228c-2 -9 -4 -18 -4 -27c0 -24 16 -26 48 -6l25 15l18 -22c-46 -44 -119 -101 -190 -101z" />
    <glyph glyph-name="obreve" unicode="&#x14f;" horiz-adv-x="543" 
d="M228 -13c-145 0 -215 93 -215 207c0 212 161 339 302 339c144 0 214 -92 214 -205c0 -214 -160 -341 -301 -341zM228 26c97 0 150 199 150 356c0 74 -21 112 -65 112c-95 0 -149 -196 -149 -356c0 -72 20 -112 64 -112zM328 575c-74 0 -108 61 -117 147l27 8
c15 -36 42 -63 99 -63c45 0 85 23 111 63l26 -8c-22 -81 -77 -147 -146 -147z" />
    <glyph glyph-name="ohungarumlaut" unicode="&#x151;" horiz-adv-x="543" 
d="M217 573l-14 17l83 125c16 27 34 40 52 40c25 0 54 -26 54 -55c0 -20 -16 -39 -46 -56zM386 573l-14 17l82 125c17 27 35 40 52 40c25 0 54 -26 54 -55c0 -20 -15 -39 -46 -56zM228 -13c-145 0 -215 93 -215 207c0 212 161 339 302 339c144 0 214 -92 214 -205
c0 -214 -160 -341 -301 -341zM228 26c97 0 150 199 150 356c0 74 -21 112 -65 112c-95 0 -149 -196 -149 -356c0 -72 20 -112 64 -112z" />
    <glyph glyph-name="omacron" unicode="&#x14d;" horiz-adv-x="543" 
d="M203 605l12 73h252l-13 -73h-251zM228 -13c-145 0 -215 93 -215 207c0 212 161 339 302 339c144 0 214 -92 214 -205c0 -214 -160 -341 -301 -341zM228 26c97 0 150 199 150 356c0 74 -21 112 -65 112c-95 0 -149 -196 -149 -356c0 -72 20 -112 64 -112z" />
    <glyph glyph-name="oacute.pl" horiz-adv-x="543" 
d="M228 -13c-145 0 -215 93 -215 207c0 212 161 339 302 339c144 0 214 -92 214 -205c0 -214 -160 -341 -301 -341zM228 26c97 0 150 199 150 356c0 74 -21 112 -65 112c-95 0 -149 -196 -149 -356c0 -72 20 -112 64 -112zM300 566l-14 14l60 140c13 29 25 46 56 46
c29 0 59 -25 59 -56c0 -16 -6 -31 -25 -45z" />
    <glyph glyph-name="oslashacute" unicode="&#x1ff;" horiz-adv-x="543" 
d="M13 194c0 212 161 339 302 339c44 0 80 -9 111 -24l51 73h50l-67 -95c46 -37 69 -95 69 -159c0 -214 -160 -341 -301 -341c-42 0 -77 8 -106 21l-50 -72h-49l65 92c-51 38 -75 98 -75 166zM158 135v-7l221 314c-10 36 -30 52 -66 52c-95 0 -155 -194 -155 -359zM228 26
c96 0 156 195 157 354l-219 -310c11 -30 31 -44 62 -44zM248 574l-8 18l133 117c18 16 35 24 53 24c30 0 51 -29 51 -58c0 -25 -14 -49 -48 -57z" />
    <glyph glyph-name="racute" unicode="&#x155;" horiz-adv-x="469" 
d="M233 574l-8 18l133 117c18 16 35 24 53 24c30 0 51 -29 51 -58c0 -25 -14 -49 -48 -57zM21 0l81 381c3 15 4 27 4 34c0 25 -17 21 -54 -5l-15 -11l-18 23c51 55 120 111 184 111c43 0 57 -30 57 -61c0 -18 -11 -80 -16 -101h5c46 81 103 162 176 162c38 0 67 -24 67 -70
s-34 -72 -70 -72c-45 0 -47 34 -70 34c-28 0 -69 -52 -110 -123l-66 -302h-155z" />
    <glyph glyph-name="rcaron" unicode="&#x159;" horiz-adv-x="469" 
d="M280 573l-94 144l12 16l116 -62l143 62l10 -17l-139 -143h-48zM21 0l81 381c3 15 4 27 4 34c0 25 -17 21 -54 -5l-15 -11l-18 23c51 55 120 111 184 111c43 0 57 -30 57 -61c0 -18 -11 -80 -16 -101h5c46 81 103 162 176 162c38 0 67 -24 67 -70s-34 -72 -70 -72
c-45 0 -47 34 -70 34c-28 0 -69 -52 -110 -123l-66 -302h-155z" />
    <glyph glyph-name="rcommaaccent" unicode="&#x157;" horiz-adv-x="469" 
d="M-11 -250l-6 24c72 14 99 40 104 75c-5 -3 -16 -7 -27 -7c-35 0 -54 22 -54 55c0 31 31 58 71 58c46 0 79 -27 79 -78c0 -66 -54 -116 -167 -127zM21 0l81 381c3 15 4 27 4 34c0 25 -17 21 -54 -5l-15 -11l-18 23c51 55 120 111 184 111c43 0 57 -30 57 -61
c0 -18 -11 -80 -16 -101h5c46 81 103 162 176 162c38 0 67 -24 67 -70s-34 -72 -70 -72c-45 0 -47 34 -70 34c-28 0 -69 -52 -110 -123l-66 -302h-155z" />
    <glyph glyph-name="sacute" unicode="&#x15b;" horiz-adv-x="426" 
d="M194 574l-8 18l133 117c18 16 35 24 53 24c30 0 51 -29 51 -58c0 -25 -14 -49 -48 -57zM169 -12c-131 0 -183 53 -183 105c0 34 21 57 62 57c48 0 62 -17 79 -86c6 -24 20 -38 58 -38c51 0 79 28 79 69c0 36 -21 65 -92 110c-78 48 -121 94 -121 161
c0 104 100 167 206 167c119 0 165 -51 165 -99c0 -32 -21 -49 -57 -49c-45 0 -59 18 -74 72c-7 27 -21 38 -48 38c-43 0 -72 -22 -72 -62c0 -38 22 -62 105 -114c78 -46 113 -96 113 -155c0 -97 -89 -176 -220 -176z" />
    <glyph glyph-name="scedilla" unicode="&#x15f;" horiz-adv-x="426" 
d="M29 -205l3 22c58 11 89 27 89 51c0 17 -16 28 -46 31l-4 8l53 84c-98 10 -138 56 -138 102c0 34 21 57 62 57c48 0 62 -17 79 -86c6 -24 20 -38 58 -38c51 0 79 28 79 69c0 36 -21 65 -92 110c-78 48 -121 94 -121 161c0 104 100 167 206 167c119 0 165 -51 165 -99
c0 -32 -21 -49 -57 -49c-45 0 -59 18 -74 72c-7 27 -21 38 -48 38c-43 0 -72 -22 -72 -62c0 -38 22 -62 105 -114c78 -46 113 -96 113 -155c0 -97 -89 -176 -220 -176h-8l-29 -34c53 -5 78 -36 78 -65c0 -65 -85 -88 -181 -94z" />
    <glyph glyph-name="scircumflex" unicode="&#x15d;" horiz-adv-x="426" 
d="M143 571l-10 17l139 143h48l94 -144l-12 -16l-116 63zM169 -12c-131 0 -183 53 -183 105c0 34 21 57 62 57c48 0 62 -17 79 -86c6 -24 20 -38 58 -38c51 0 79 28 79 69c0 36 -21 65 -92 110c-78 48 -121 94 -121 161c0 104 100 167 206 167c119 0 165 -51 165 -99
c0 -32 -21 -49 -57 -49c-45 0 -59 18 -74 72c-7 27 -21 38 -48 38c-43 0 -72 -22 -72 -62c0 -38 22 -62 105 -114c78 -46 113 -96 113 -155c0 -97 -89 -176 -220 -176z" />
    <glyph glyph-name="scommaaccent" unicode="&#x219;" horiz-adv-x="426" 
d="M48 -250l-6 24c72 14 99 40 104 75c-5 -3 -16 -7 -27 -7c-35 0 -54 22 -54 55c0 31 31 58 71 58c46 0 79 -27 79 -78c0 -66 -54 -116 -167 -127zM169 -12c-131 0 -183 53 -183 105c0 34 21 57 62 57c48 0 62 -17 79 -86c6 -24 20 -38 58 -38c51 0 79 28 79 69
c0 36 -21 65 -92 110c-78 48 -121 94 -121 161c0 104 100 167 206 167c119 0 165 -51 165 -99c0 -32 -21 -49 -57 -49c-45 0 -59 18 -74 72c-7 27 -21 38 -48 38c-43 0 -72 -22 -72 -62c0 -38 22 -62 105 -114c78 -46 113 -96 113 -155c0 -97 -89 -176 -220 -176z" />
    <glyph glyph-name="sacute.pl" horiz-adv-x="426" 
d="M169 -12c-131 0 -183 53 -183 105c0 34 21 57 62 57c48 0 62 -17 79 -86c6 -24 20 -38 58 -38c51 0 79 28 79 69c0 36 -21 65 -92 110c-78 48 -121 94 -121 161c0 104 100 167 206 167c119 0 165 -51 165 -99c0 -32 -21 -49 -57 -49c-45 0 -59 18 -74 72
c-7 27 -21 38 -48 38c-43 0 -72 -22 -72 -62c0 -38 22 -62 105 -114c78 -46 113 -96 113 -155c0 -97 -89 -176 -220 -176zM247 566l-14 14l60 140c13 29 25 46 56 46c29 0 59 -25 59 -56c0 -16 -6 -31 -25 -45z" />
    <glyph glyph-name="tbar" unicode="&#x167;" horiz-adv-x="357" 
d="M21 326l9 46h63l19 89h-68l5 24l76 33l19 85l135 59h31l-30 -143h109l-15 -58h-107l-19 -89h126l-10 -46h-125l-40 -191c-3 -14 -5 -25 -5 -36c0 -23 18 -26 79 13l34 22l19 -22c-78 -78 -154 -124 -227 -124c-50 0 -66 35 -66 70c0 22 5 52 11 82l39 186h-62z" />
    <glyph glyph-name="tcaron" unicode="&#x165;" horiz-adv-x="354" 
d="M357 557l-16 9l36 147c7 27 20 44 46 44c27 0 60 -20 59 -51c0 -16 -8 -32 -22 -45zM99 -12c-50 0 -66 35 -66 70c0 22 5 52 11 82l68 321h-68l5 24l76 33l19 85l135 59h31l-30 -143h109l-15 -58h-107l-68 -326c-3 -14 -5 -25 -5 -36c0 -23 18 -26 79 13l34 22l19 -22
c-78 -78 -154 -124 -227 -124z" />
    <glyph glyph-name="tcommaaccent" unicode="&#x163;" horiz-adv-x="354" 
d="M0 -250l-6 24c72 14 99 40 104 75c-5 -3 -16 -7 -27 -7c-35 0 -54 22 -54 55c0 31 31 58 71 58c46 0 79 -27 79 -78c0 -66 -54 -116 -167 -127zM99 -12c-50 0 -66 35 -66 70c0 22 5 52 11 82l68 321h-68l5 24l76 33l19 85l135 59h31l-30 -143h109l-15 -58h-107l-68 -326
c-3 -14 -5 -25 -5 -36c0 -23 18 -26 79 13l34 22l19 -22c-78 -78 -154 -124 -227 -124z" />
    <glyph glyph-name="ubreve" unicode="&#x16d;" horiz-adv-x="598" 
d="M126 -14c-53 0 -86 43 -86 95c0 19 5 56 11 82l50 220c3 12 4 24 4 32c0 25 -17 21 -54 -5l-15 -11l-18 23c51 55 119 111 184 111c46 0 64 -35 64 -66c0 -26 -5 -57 -12 -87l-44 -198c-17 -73 -10 -91 14 -91c36 0 86 45 122 88l73 340h155l-83 -390
c-2 -9 -4 -18 -4 -27c0 -24 16 -26 49 -6l24 15l18 -22c-46 -44 -122 -103 -189 -103c-46 0 -57 33 -57 63c0 19 8 57 15 78h-5c-59 -67 -126 -141 -216 -141zM351 575c-74 0 -108 61 -117 147l27 8c15 -36 42 -63 99 -63c45 0 85 23 111 63l26 -8
c-22 -81 -77 -147 -146 -147z" />
    <glyph glyph-name="uhungarumlaut" unicode="&#x171;" horiz-adv-x="598" 
d="M126 -14c-53 0 -86 43 -86 95c0 19 5 56 11 82l50 220c3 12 4 24 4 32c0 25 -17 21 -54 -5l-15 -11l-18 23c51 55 119 111 184 111c46 0 64 -35 64 -66c0 -26 -5 -57 -12 -87l-44 -198c-17 -73 -10 -91 14 -91c36 0 86 45 122 88l73 340h155l-83 -390
c-2 -9 -4 -18 -4 -27c0 -24 16 -26 49 -6l24 15l18 -22c-46 -44 -122 -103 -189 -103c-46 0 -57 33 -57 63c0 19 8 57 15 78h-5c-59 -67 -126 -141 -216 -141zM240 573l-14 17l83 125c16 27 34 40 52 40c25 0 54 -26 54 -55c0 -20 -16 -39 -46 -56zM409 573l-14 17l82 125
c17 27 35 40 52 40c25 0 54 -26 54 -55c0 -20 -15 -39 -46 -56z" />
    <glyph glyph-name="umacron" unicode="&#x16b;" horiz-adv-x="598" 
d="M126 -14c-53 0 -86 43 -86 95c0 19 5 56 11 82l50 220c3 12 4 24 4 32c0 25 -17 21 -54 -5l-15 -11l-18 23c51 55 119 111 184 111c46 0 64 -35 64 -66c0 -26 -5 -57 -12 -87l-44 -198c-17 -73 -10 -91 14 -91c36 0 86 45 122 88l73 340h155l-83 -390
c-2 -9 -4 -18 -4 -27c0 -24 16 -26 49 -6l24 15l18 -22c-46 -44 -122 -103 -189 -103c-46 0 -57 33 -57 63c0 19 8 57 15 78h-5c-59 -67 -126 -141 -216 -141zM226 605l12 73h252l-13 -73h-251z" />
    <glyph glyph-name="uogonek" unicode="&#x173;" horiz-adv-x="598" 
d="M332 49c0 19 8 57 15 78h-5c-59 -67 -126 -141 -216 -141c-53 0 -86 43 -86 95c0 19 5 56 11 82l50 220c3 12 4 24 4 32c0 25 -17 21 -54 -5l-15 -11l-18 23c51 55 119 111 184 111c46 0 64 -35 64 -66c0 -26 -5 -57 -12 -87l-44 -198c-17 -73 -10 -91 14 -91
c36 0 86 45 122 88l73 340h155l-83 -390c-2 -9 -4 -18 -4 -27c0 -24 16 -26 49 -6l24 15l18 -22c-37 -35 -83 -66 -123 -98c-36 -27 -71 -61 -71 -105c0 -26 16 -38 41 -38c10 0 25 2 35 6l-4 -28c-15 -12 -44 -29 -88 -29c-56 0 -94 28 -94 69c0 48 51 90 117 120
c-49 0 -59 34 -59 63z" />
    <glyph glyph-name="uring" unicode="&#x16f;" horiz-adv-x="598" 
d="M355 571c-57 0 -95 40 -95 90c0 57 44 97 98 97c53 0 94 -37 94 -91c0 -56 -42 -96 -97 -96zM356 606c31 0 52 23 52 60c0 33 -19 57 -51 57c-30 0 -53 -24 -53 -60c0 -34 20 -57 52 -57zM126 -14c-53 0 -86 43 -86 95c0 19 5 56 11 82l50 220c3 12 4 24 4 32
c0 25 -17 21 -54 -5l-15 -11l-18 23c51 55 119 111 184 111c46 0 64 -35 64 -66c0 -26 -5 -57 -12 -87l-44 -198c-17 -73 -10 -91 14 -91c36 0 86 45 122 88l73 340h155l-83 -390c-2 -9 -4 -18 -4 -27c0 -24 16 -26 49 -6l24 15l18 -22c-46 -44 -122 -103 -189 -103
c-46 0 -57 33 -57 63c0 19 8 57 15 78h-5c-59 -67 -126 -141 -216 -141z" />
    <glyph glyph-name="utilde" unicode="&#x169;" horiz-adv-x="598" 
d="M126 -14c-53 0 -86 43 -86 95c0 19 5 56 11 82l50 220c3 12 4 24 4 32c0 25 -17 21 -54 -5l-15 -11l-18 23c51 55 119 111 184 111c46 0 64 -35 64 -66c0 -26 -5 -57 -12 -87l-44 -198c-17 -73 -10 -91 14 -91c36 0 86 45 122 88l73 340h155l-83 -390
c-2 -9 -4 -18 -4 -27c0 -24 16 -26 49 -6l24 15l18 -22c-46 -44 -122 -103 -189 -103c-46 0 -57 33 -57 63c0 19 8 57 15 78h-5c-59 -67 -126 -141 -216 -141zM231 574l-23 13c37 72 64 119 110 119c43 0 89 -27 131 -27c20 0 31 9 54 40l22 -13c-35 -72 -60 -119 -108 -119
c-43 0 -90 27 -132 27c-20 0 -31 -9 -54 -40z" />
    <glyph glyph-name="wacute" unicode="&#x1e83;" horiz-adv-x="741" 
d="M103 0c0 174 -6 298 -14 377c-7 60 -18 62 -59 33l-16 -11l-18 23c52 57 126 111 179 111c39 0 57 -26 63 -96c7 -85 11 -178 8 -302h4c46 56 89 120 120 172l-3 80c-4 52 -14 51 -50 24l-15 -10l-18 22c44 49 115 110 166 110c37 0 58 -24 61 -93c4 -78 5 -185 -2 -308
h4c82 102 147 208 147 265c0 32 -38 42 -38 84c0 33 30 53 62 53c36 0 65 -24 65 -71c0 -102 -164 -323 -300 -463h-79c1 91 2 170 2 237h-3c-55 -80 -122 -169 -184 -237h-82zM359 574l-8 18l133 117c18 16 35 24 53 24c30 0 51 -29 51 -58c0 -25 -14 -49 -48 -57z" />
    <glyph glyph-name="wcircumflex" unicode="&#x175;" horiz-adv-x="741" 
d="M103 0c0 174 -6 298 -14 377c-7 60 -18 62 -59 33l-16 -11l-18 23c52 57 126 111 179 111c39 0 57 -26 63 -96c7 -85 11 -178 8 -302h4c46 56 89 120 120 172l-3 80c-4 52 -14 51 -50 24l-15 -10l-18 22c44 49 115 110 166 110c37 0 58 -24 61 -93c4 -78 5 -185 -2 -308
h4c82 102 147 208 147 265c0 32 -38 42 -38 84c0 33 30 53 62 53c36 0 65 -24 65 -71c0 -102 -164 -323 -300 -463h-79c1 91 2 170 2 237h-3c-55 -80 -122 -169 -184 -237h-82zM306 571l-10 17l139 143h48l94 -144l-12 -16l-116 63z" />
    <glyph glyph-name="wdieresis" unicode="&#x1e85;" horiz-adv-x="741" 
d="M103 0c0 174 -6 298 -14 377c-7 60 -18 62 -59 33l-16 -11l-18 23c52 57 126 111 179 111c39 0 57 -26 63 -96c7 -85 11 -178 8 -302h4c46 56 89 120 120 172l-3 80c-4 52 -14 51 -50 24l-15 -10l-18 22c44 49 115 110 166 110c37 0 58 -24 61 -93c4 -78 5 -185 -2 -308
h4c82 102 147 208 147 265c0 32 -38 42 -38 84c0 33 30 53 62 53c36 0 65 -24 65 -71c0 -102 -164 -323 -300 -463h-79c1 91 2 170 2 237h-3c-55 -80 -122 -169 -184 -237h-82zM348 578c-41 0 -74 30 -74 73c0 44 34 75 76 75c41 0 75 -31 75 -73c0 -44 -34 -75 -77 -75z
M549 578c-41 0 -75 30 -75 73c0 44 34 75 77 75c40 0 74 -31 74 -73c0 -44 -34 -75 -76 -75z" />
    <glyph glyph-name="wgrave" unicode="&#x1e81;" horiz-adv-x="741" 
d="M103 0c0 174 -6 298 -14 377c-7 60 -18 62 -59 33l-16 -11l-18 23c52 57 126 111 179 111c39 0 57 -26 63 -96c7 -85 11 -178 8 -302h4c46 56 89 120 120 172l-3 80c-4 52 -14 51 -50 24l-15 -10l-18 22c44 49 115 110 166 110c37 0 58 -24 61 -93c4 -78 5 -185 -2 -308
h4c82 102 147 208 147 265c0 32 -38 42 -38 84c0 33 30 53 62 53c36 0 65 -24 65 -71c0 -102 -164 -323 -300 -463h-79c1 91 2 170 2 237h-3c-55 -80 -122 -169 -184 -237h-82zM542 574l-181 44c-34 7 -45 33 -45 54c0 31 23 60 54 60c18 0 36 -8 53 -25l127 -115z" />
    <glyph glyph-name="ycircumflex" unicode="&#x177;" horiz-adv-x="499" 
d="M-5 -210c-54 0 -86 27 -86 71c0 35 25 57 56 57c50 0 57 -52 94 -52c25 0 55 21 103 76c-18 205 -42 367 -60 442c-15 54 -24 56 -67 26l-16 -11l-18 23c52 57 124 111 177 111c35 0 53 -18 66 -77c22 -103 38 -228 45 -347h3c66 97 128 211 128 281c0 36 -42 49 -42 90
c0 34 30 53 61 53c36 0 67 -24 67 -74c0 -91 -98 -267 -215 -424c-109 -149 -202 -245 -296 -245zM189 571l-10 17l139 143h48l94 -144l-12 -16l-116 63z" />
    <glyph glyph-name="ygrave" unicode="&#x1ef3;" horiz-adv-x="499" 
d="M-5 -210c-54 0 -86 27 -86 71c0 35 25 57 56 57c50 0 57 -52 94 -52c25 0 55 21 103 76c-18 205 -42 367 -60 442c-15 54 -24 56 -67 26l-16 -11l-18 23c52 57 124 111 177 111c35 0 53 -18 66 -77c22 -103 38 -228 45 -347h3c66 97 128 211 128 281c0 36 -42 49 -42 90
c0 34 30 53 61 53c36 0 67 -24 67 -74c0 -91 -98 -267 -215 -424c-109 -149 -202 -245 -296 -245zM424 574l-181 44c-34 7 -45 33 -45 54c0 31 23 60 54 60c18 0 36 -8 53 -25l127 -115z" />
    <glyph glyph-name="zacute" unicode="&#x17a;" horiz-adv-x="450" 
d="M219 574l-8 18l133 117c18 16 35 24 53 24c30 0 51 -29 51 -58c0 -25 -14 -49 -48 -57zM263 -17c-78 0 -127 86 -204 86c-21 0 -43 -30 -64 -77h-6l-39 34v6c39 29 70 56 98 83l277 264c-88 3 -152 40 -221 40c-9 0 -17 -5 -17 -13c-1 -13 52 -12 52 -53
c0 -28 -17 -47 -47 -47c-36 0 -54 26 -54 60c0 60 88 168 170 168s143 -82 186 -82c28 0 44 27 65 74h7l37 -29v-8c-34 -26 -60 -52 -104 -94l-256 -246c74 -4 135 -32 184 -32c29 0 45 12 79 60l26 -11c-59 -115 -103 -183 -169 -183z" />
    <glyph glyph-name="zdotaccent" unicode="&#x17c;" horiz-adv-x="450" 
d="M263 -17c-78 0 -127 86 -204 86c-21 0 -43 -30 -64 -77h-6l-39 34v6c39 29 70 56 98 83l277 264c-88 3 -152 40 -221 40c-9 0 -17 -5 -17 -13c-1 -13 52 -12 52 -53c0 -28 -17 -47 -47 -47c-36 0 -54 26 -54 60c0 60 88 168 170 168s143 -82 186 -82c28 0 44 27 65 74h7
l37 -29v-8c-34 -26 -60 -52 -104 -94l-256 -246c74 -4 135 -32 184 -32c29 0 45 12 79 60l26 -11c-59 -115 -103 -183 -169 -183zM309 582c-46 0 -83 32 -83 78c0 47 37 80 85 80c46 0 83 -32 83 -78c0 -47 -38 -80 -85 -80z" />
    <glyph glyph-name="zacute.pl" horiz-adv-x="450" 
d="M263 -17c-78 0 -127 86 -204 86c-21 0 -43 -30 -64 -77h-6l-39 34v6c39 29 70 56 98 83l277 264c-88 3 -152 40 -221 40c-9 0 -17 -5 -17 -13c-1 -13 52 -12 52 -53c0 -28 -17 -47 -47 -47c-36 0 -54 26 -54 60c0 60 88 168 170 168s143 -82 186 -82c28 0 44 27 65 74h7
l37 -29v-8c-34 -26 -60 -52 -104 -94l-256 -246c74 -4 135 -32 184 -32c29 0 45 12 79 60l26 -11c-59 -115 -103 -183 -169 -183zM260 566l-14 14l60 140c13 29 25 46 56 46c29 0 59 -25 59 -56c0 -16 -6 -31 -25 -45z" />
    <glyph glyph-name="oneeighth" unicode="&#x215b;" horiz-adv-x="759" 
d="M21 308l4 27l22 5c26 7 30 9 37 46l36 202l-51 8l4 26c71 10 130 37 170 80l21 -6l-55 -312c-6 -34 -2 -39 23 -45l19 -4l-4 -27h-226zM16 -50l623 764h65l-623 -764h-65zM548 -9c-93 0 -155 36 -155 92c0 49 46 79 108 99v2c-36 22 -57 54 -57 87c0 79 78 124 157 124
c72 0 130 -29 130 -83c0 -44 -40 -70 -93 -87v-2c46 -25 77 -58 77 -102c0 -71 -68 -130 -167 -130zM551 24c41 0 70 23 70 58c0 31 -29 49 -98 84c-21 -19 -41 -42 -41 -83c0 -36 24 -59 69 -59zM610 238c22 17 41 42 41 75c0 32 -22 50 -55 50c-34 0 -62 -20 -62 -52
c0 -25 20 -45 76 -73z" />
    <glyph glyph-name="onethird" unicode="&#x2153;" horiz-adv-x="769" 
d="M21 308l4 27l22 5c26 7 30 9 37 46l36 202l-51 8l4 26c71 10 130 37 170 80l21 -6l-55 -312c-6 -34 -2 -39 23 -45l19 -4l-4 -27h-226zM18 -50l623 764h65l-622 -764h-66zM541 -9c-80 0 -129 25 -129 74c0 28 19 43 47 43c35 0 46 -12 50 -59c3 -21 5 -28 24 -28
c43 0 68 47 68 108c0 44 -23 55 -61 55h-27l6 36h19c57 0 79 33 79 92c0 33 -12 50 -34 50c-15 0 -22 -5 -24 -25c-5 -43 -17 -55 -48 -55c-30 0 -45 17 -45 38c0 42 51 72 130 72s136 -32 136 -86c0 -49 -34 -83 -116 -96v-2c63 -7 108 -37 108 -91
c0 -81 -75 -126 -183 -126z" />
    <glyph glyph-name="threeeighths" unicode="&#x215c;" horiz-adv-x="787" 
d="M151 300c-80 0 -129 24 -129 73c0 28 19 44 46 44c35 0 46 -13 51 -59c3 -22 5 -29 24 -29c43 0 68 47 68 108c0 44 -24 55 -61 55h-27l6 36h19c57 0 79 33 79 93c0 32 -12 50 -34 50c-15 0 -22 -6 -24 -26c-5 -43 -17 -54 -48 -54c-30 0 -46 16 -46 37
c0 43 52 72 131 72s136 -32 136 -86c0 -49 -34 -83 -116 -96v-2c63 -6 108 -37 108 -91c0 -81 -75 -125 -183 -125zM49 -50l624 764h64l-622 -764h-66zM576 -9c-93 0 -155 36 -155 92c0 49 47 79 108 99v2c-35 22 -56 54 -56 87c-1 79 78 124 156 124c72 0 130 -29 130 -83
c0 -44 -40 -70 -92 -87v-2c45 -25 77 -58 77 -102c0 -71 -69 -130 -168 -130zM580 24c40 0 70 23 70 58c0 31 -29 49 -98 84c-21 -19 -41 -42 -41 -83c0 -36 24 -59 69 -59zM639 238c21 17 41 42 41 75c0 32 -22 50 -56 50s-61 -20 -61 -52c0 -25 19 -45 76 -73z" />
    <glyph glyph-name="fiveeighths" unicode="&#x215d;" horiz-adv-x="782" 
d="M149 300c-73 0 -114 25 -114 67c0 24 16 41 43 41c25 0 40 -8 44 -48c3 -24 8 -30 27 -30c44 0 77 28 77 76c0 43 -31 64 -80 64c-32 0 -51 -6 -63 -11l-9 7l56 227h161c19 0 23 4 41 33h23l-26 -115h-183l-16 -63c13 4 29 8 61 8c84 0 139 -36 139 -107
c0 -88 -74 -149 -181 -149zM42 -50l624 764h64l-623 -764h-65zM571 -9c-93 0 -155 36 -155 92c0 49 46 79 108 99v2c-36 22 -56 54 -56 87c-1 79 77 124 156 124c72 0 130 -29 130 -83c0 -44 -40 -70 -93 -87v-2c46 -25 77 -58 77 -102c0 -71 -68 -130 -167 -130zM574 24
c41 0 70 23 70 58c0 31 -29 49 -98 84c-21 -19 -40 -42 -40 -83c0 -36 23 -59 68 -59zM633 238c22 17 41 42 41 75c0 32 -22 50 -55 50c-34 0 -62 -20 -62 -52c0 -25 20 -45 76 -73z" />
    <glyph glyph-name="twothirds" unicode="&#x2154;" horiz-adv-x="824" 
d="M16 308l8 56c54 36 102 70 137 104c50 47 79 94 79 155c0 34 -17 47 -42 47c-12 0 -20 -5 -23 -25c-6 -50 -20 -63 -53 -63c-35 0 -48 19 -48 41c0 47 59 77 136 77c85 0 143 -35 143 -103c0 -77 -87 -137 -232 -198v-3h131c26 0 32 7 57 48h25l-27 -136h-291zM73 -50
l624 764h64l-622 -764h-66zM596 -8c-80 0 -129 25 -129 73c0 28 19 44 46 44c35 0 46 -13 51 -59c2 -22 4 -29 24 -29c43 0 67 47 67 108c0 44 -23 56 -60 56h-27l6 35h19c57 0 79 33 79 93c0 32 -12 49 -34 49c-16 0 -22 -5 -24 -25c-6 -42 -17 -54 -48 -54
c-30 0 -46 16 -46 37c0 43 52 72 131 72s135 -32 135 -86c0 -49 -33 -83 -115 -96v-2c63 -6 108 -37 108 -91c0 -81 -75 -125 -183 -125z" />
    <glyph glyph-name="seveneighths" unicode="&#x215e;" horiz-adv-x="737" 
d="M62 308c41 119 125 217 236 300h-155c-28 0 -35 -6 -59 -47h-24l32 132h278l-11 -57c-110 -106 -140 -208 -157 -328h-140zM-8 -50l623 764h65l-623 -764h-65zM526 -9c-93 0 -155 36 -155 92c0 49 47 79 109 99v2c-36 22 -57 54 -57 87c-1 79 78 124 156 124
c72 0 130 -29 130 -83c0 -44 -40 -70 -92 -87v-2c45 -25 77 -58 77 -102c0 -71 -69 -130 -168 -130zM530 24c40 0 69 23 69 58c0 31 -28 49 -97 84c-21 -19 -41 -42 -41 -83c0 -36 24 -59 69 -59zM589 238c21 17 40 42 40 75c0 32 -22 50 -55 50c-34 0 -61 -20 -61 -52
c0 -25 19 -45 76 -73z" />
    <glyph glyph-name="uni24C5" unicode="&#x24c5;" horiz-adv-x="788" 
d="M436 168v-20h-203v20l12 3c20 5 26 9 26 48v258c0 39 -5 41 -26 47l-12 4v20h193c113 0 172 -37 172 -120c0 -71 -46 -121 -127 -121c-25 0 -46 3 -56 8v21c39 4 60 26 60 87c0 71 -16 96 -58 96c-8 0 -20 -1 -30 -5v-294c0 -42 4 -43 28 -48zM407 -17
c-202 0 -356 163 -356 361s154 359 356 359s359 -161 359 -359s-157 -361 -359 -361zM407 25c180 0 310 144 310 319s-130 318 -310 318s-309 -143 -309 -318s129 -319 309 -319z" />
    <glyph glyph-name="dollar.old" horiz-adv-x="498" 
d="M154 -110l17 99c-120 7 -182 59 -182 120c0 38 21 63 65 63c42 0 64 -21 71 -73c5 -44 14 -65 53 -71l41 239c-105 57 -149 112 -149 190c0 116 102 202 230 211l14 78h43l-14 -78c109 -5 175 -49 175 -113c0 -40 -25 -62 -63 -62c-39 0 -63 18 -68 70
c-4 41 -11 61 -51 67l-38 -221h1c116 -61 165 -113 165 -202c0 -109 -99 -211 -251 -218l-17 -99h-42zM332 137c0 49 -25 78 -75 109l-38 -220c71 5 113 49 113 111zM191 530c0 -37 16 -66 69 -100l34 202c-53 -3 -103 -35 -103 -102z" />
    <glyph glyph-name="Euro.old" horiz-adv-x="576" 
d="M36 359l8 44h63c57 167 198 267 336 267c100 0 161 -44 161 -108c0 -40 -27 -65 -67 -65c-41 0 -70 20 -72 86c-2 40 -8 48 -37 48c-77 0 -139 -102 -169 -228h205l-17 -44h-196c-4 -23 -7 -46 -9 -69h182l-15 -45h-169v-11c0 -121 43 -170 152 -170c51 0 92 15 132 35
l-6 -37c-37 -32 -102 -74 -201 -74c-146 0 -235 90 -235 253v4h-65l7 45h60c2 24 6 47 11 69h-59z" />
    <glyph glyph-name="sterling.old" horiz-adv-x="513" 
d="M44 317l7 44h56c-6 29 -11 60 -11 91c0 121 90 218 255 218c106 0 174 -42 174 -103c0 -42 -26 -67 -68 -67c-48 0 -68 30 -72 93c-1 31 -9 38 -35 38c-43 0 -82 -31 -93 -110c-6 -45 -6 -106 -9 -160h155l-7 -44h-151c-1 -4 -1 -7 -1 -10c-10 -81 -61 -144 -140 -187v-5
h261c37 0 51 8 85 75h29l-41 -190h-458l15 81c78 44 127 98 127 175c0 19 -2 40 -6 61h-72z" />
    <glyph glyph-name="yen.old" horiz-adv-x="575" 
d="M54 291l8 44h147l-76 214c-20 56 -27 68 -51 76l-17 6l5 27h308l-6 -27l-24 -5c-26 -6 -41 -17 -43 -37c-3 -14 1 -31 8 -57l47 -172h5l102 165c18 28 28 50 30 64c2 19 -6 29 -32 36l-20 6l4 27h195l-5 -27l-20 -6c-32 -9 -46 -30 -85 -90l-132 -200h145l-8 -44h-160
l-11 -67h159l-7 -44h-160l-13 -77c-10 -55 -6 -61 26 -69l32 -7l-3 -27h-305l4 27l33 7c36 8 43 12 52 69l13 77h-164l8 44h164l12 67h-165z" />
    <glyph glyph-name="zero.old" horiz-adv-x="628" 
d="M283 -13c-125 0 -241 81 -241 239c0 222 146 376 326 376c127 0 242 -85 242 -242c0 -219 -146 -373 -327 -373zM194 166c0 -95 33 -138 94 -138c102 0 169 161 169 393c0 101 -35 141 -93 141c-100 0 -170 -165 -170 -396z" />
    <glyph glyph-name="one.old" horiz-adv-x="378" 
d="M-13 0l4 27l40 7c36 6 43 14 52 65l65 360l-80 9l4 27c98 16 165 44 234 102l29 -7l-87 -491c-9 -49 -3 -59 29 -65l38 -7l-3 -27h-325z" />
    <glyph glyph-name="two.old" horiz-adv-x="506" 
d="M442 117l-25 -117h-442l11 79c67 43 137 88 206 145c100 82 146 160 146 260c0 53 -32 80 -78 80c-28 0 -41 -13 -45 -42c-9 -65 -31 -91 -78 -91c-46 0 -65 29 -65 64c0 60 69 107 199 107c135 0 222 -57 222 -158c0 -136 -132 -225 -367 -323v-4h316z" />
    <glyph glyph-name="three.old" horiz-adv-x="536" 
d="M178 -125c-129 0 -194 46 -194 117c1 39 27 63 65 63c42 0 65 -24 72 -81c6 -43 16 -59 54 -59c89 0 138 102 139 208c0 81 -30 111 -99 111h-47l6 43h41c104 0 137 71 137 179c0 69 -26 108 -78 108c-35 0 -47 -13 -51 -45c-7 -65 -37 -88 -77 -88c-37 0 -63 22 -63 58
c0 59 59 113 199 113c149 0 231 -65 231 -160c0 -89 -58 -152 -183 -179v-3c101 -14 159 -69 159 -157c-1 -132 -122 -228 -311 -228z" />
    <glyph glyph-name="four.old" horiz-adv-x="576" 
d="M3 60l8 54l413 476h110l-81 -458h100l-14 -72h-98l-31 -172h-163l31 172h-275zM290 132l51 289h-3l-247 -285v-4h199z" />
    <glyph glyph-name="five.old" horiz-adv-x="523" 
d="M517 590l-27 -125h-321l-32 -136c24 8 66 15 104 15c142 0 236 -82 236 -203c0 -155 -135 -265 -299 -265c-114 0 -187 43 -187 113c0 37 22 62 62 62c41 0 65 -18 72 -76c5 -46 19 -60 60 -60c79 0 151 67 151 165c0 84 -62 130 -154 130c-52 0 -91 -9 -115 -18l-9 8
l90 390h369z" />
    <glyph glyph-name="six.old" horiz-adv-x="601" 
d="M284 -12c-145 0 -237 89 -237 267c0 261 187 451 398 451c117 0 174 -46 174 -101c0 -41 -29 -63 -65 -63c-46 0 -67 24 -72 83c-3 34 -14 41 -44 41c-78 0 -172 -86 -216 -291c36 23 88 43 153 43c112 0 190 -63 190 -179c0 -142 -115 -251 -281 -251zM284 27
c67 0 122 85 122 223c0 75 -31 111 -91 111c-40 0 -74 -12 -100 -24c-11 -52 -19 -111 -19 -166c0 -93 21 -144 88 -144z" />
    <glyph glyph-name="seven.old" horiz-adv-x="514" 
d="M71 -112c77 245 232 422 396 575h-299c-40 0 -48 -9 -86 -82h-27l45 209h459l-11 -77c-168 -191 -251 -383 -299 -625h-178z" />
    <glyph glyph-name="eight.old" horiz-adv-x="570" 
d="M262 -13c-145 0 -247 66 -247 164c0 80 58 136 177 179v3c-62 46 -96 101 -96 162c0 107 96 211 244 211c123 0 215 -61 215 -151c0 -81 -67 -127 -158 -160v-4c82 -50 132 -99 132 -181c0 -121 -108 -223 -267 -223zM267 27c82 0 136 46 136 119c0 65 -68 97 -183 167
c-44 -39 -85 -82 -85 -158c0 -78 48 -128 132 -128zM367 410c39 33 77 75 77 144c0 72 -47 112 -109 112c-73 0 -118 -50 -118 -109c0 -60 60 -96 150 -147z" />
    <glyph glyph-name="nine.old" horiz-adv-x="603" 
d="M176 -125c-116 0 -169 43 -169 103c0 38 25 65 64 65c45 0 68 -22 75 -88c4 -32 13 -40 41 -40c89 0 174 101 211 299c-38 -26 -95 -44 -152 -44c-117 0 -188 67 -188 177c0 144 114 255 276 255c137 0 240 -84 240 -271c0 -266 -193 -456 -398 -456zM306 228
c38 0 73 9 98 22c9 40 19 120 19 164c0 99 -23 149 -91 149c-80 0 -118 -125 -118 -226c0 -73 33 -109 92 -109z" />
    <glyph glyph-name="percent.old" horiz-adv-x="731" 
d="M107 -48h-60l584 726h60zM202 359c52 0 86 112 86 204c0 54 -14 75 -41 75c-52 0 -86 -116 -86 -205c0 -53 15 -74 41 -74zM58 465c0 120 102 204 192 204c74 0 143 -48 143 -136c0 -123 -101 -207 -193 -207c-76 0 -142 49 -142 139zM508 -13c-75 0 -141 50 -141 139
c0 120 102 205 192 205c74 0 142 -48 142 -137c0 -123 -101 -207 -193 -207zM510 19c53 0 87 113 87 206c0 53 -15 74 -41 74c-52 0 -87 -117 -87 -205c0 -53 15 -75 41 -75z" />
    <glyph glyph-name="perthousand.old" horiz-adv-x="1089" 
d="M107 -48h-60l584 726h60zM202 359c52 0 86 112 86 204c0 54 -14 75 -41 75c-52 0 -86 -116 -86 -205c0 -53 15 -74 41 -74zM58 465c0 120 102 204 192 204c74 0 143 -48 143 -136c0 -123 -101 -207 -193 -207c-76 0 -142 49 -142 139zM508 -13c-75 0 -141 50 -141 139
c0 120 102 205 192 205c74 0 142 -48 142 -137c0 -123 -101 -207 -193 -207zM510 19c53 0 87 113 87 206c0 53 -15 74 -41 74c-52 0 -87 -117 -87 -205c0 -53 15 -75 41 -75zM872 -13c-75 0 -142 50 -142 139c0 120 102 205 193 205c74 0 142 -48 142 -137
c0 -123 -101 -207 -193 -207zM875 19c51 0 86 113 86 206c0 53 -15 74 -41 74c-53 0 -86 -117 -86 -205c0 -53 15 -75 41 -75z" />
    <glyph glyph-name="plus.old" horiz-adv-x="474" 
d="M214 89v179h-167v57h167v180h64v-180h167v-57h-167v-179h-64z" />
    <glyph glyph-name="minus.old" horiz-adv-x="474" 
d="M47 268v57h398v-57h-398z" />
    <glyph glyph-name="multiply.old" horiz-adv-x="442" 
d="M90 103l-42 40l141 150l-136 146l42 40l134 -144l135 144l41 -40l-136 -146l141 -150l-42 -40l-139 147z" />
    <glyph glyph-name="divide.old" horiz-adv-x="474" 
d="M47 268v57h398v-57h-398zM247 70c-41 0 -74 33 -74 73c0 42 33 73 74 73c39 0 74 -31 74 -73c0 -40 -35 -73 -74 -73zM247 378c-41 0 -74 33 -74 73c0 42 33 73 74 73c39 0 74 -31 74 -73c0 -40 -35 -73 -74 -73z" />
    <glyph glyph-name="equal.old" horiz-adv-x="523" 
d="M47 343v57h447v-57h-447zM47 193v57h447v-57h-447z" />
    <glyph glyph-name="less.old" horiz-adv-x="480" 
d="M434 83l-398 179v55l398 179v-63l-333 -143l333 -143v-64z" />
    <glyph glyph-name="greater.old" horiz-adv-x="481" 
d="M57 83v64l333 143l-333 143v63l397 -179v-55z" />
    <glyph glyph-name="plusminus.old" horiz-adv-x="466" 
d="M210 143v167h-164v56h164v166h64v-166h163v-56h-163v-167h-64zM46 1v56h391v-56h-391z" />
    <glyph glyph-name="notequal.old" horiz-adv-x="523" 
d="M47 344v55h253l79 139h61l-80 -139h134v-55h-165l-55 -95h220v-55h-251l-80 -140h-60l80 140h-136v55h167l54 95h-221z" />
    <glyph glyph-name="approxequal.old" horiz-adv-x="523" 
d="M448 460l49 -23c-28 -61 -58 -104 -121 -104s-160 46 -213 46c-32 0 -56 -35 -69 -68l-47 24c20 56 56 101 118 101s157 -45 213 -45c33 0 54 33 70 69zM448 305l49 -23c-28 -61 -58 -104 -121 -104s-160 45 -213 45c-32 0 -56 -34 -69 -67l-47 24c20 56 56 101 118 101
s157 -46 213 -46c33 0 54 34 70 70z" />
    <glyph glyph-name="lessequal.old" horiz-adv-x="480" 
d="M40 0v56h398v-56h-398zM438 140l-398 163v55l398 162v-63l-331 -126l331 -126v-65z" />
    <glyph glyph-name="greaterequal.old" horiz-adv-x="480" 
d="M451 56v-56h-398v56h398zM451 303l-398 -163v65l331 126l-331 126v63l398 -162v-55z" />
    <glyph glyph-name="numbersign.old" horiz-adv-x="487" 
d="M62 0l46 174h-83l24 95h86l33 123h-84l24 95h86l47 171h51l-48 -171h115l47 171h50l-46 -171h84l-24 -95h-87l-31 -123h84l-25 -95h-87l-45 -174h-51l46 174h-115l-47 -174h-50zM185 269h116l32 123h-114z" />
    <glyph glyph-name="zero.num" horiz-adv-x="416" 
d="M217 299c-96 0 -163 60 -163 159c0 156 125 243 225 243c91 0 158 -57 158 -158c0 -153 -120 -244 -220 -244zM220 334c62 0 95 157 95 249c0 60 -13 84 -43 84c-63 0 -96 -162 -96 -250c0 -61 16 -83 44 -83z" />
    <glyph glyph-name="one.num" horiz-adv-x="255" 
d="M21 308l4 27l22 6c26 6 30 9 37 45l36 202l-51 9l4 25c71 10 130 38 170 80l21 -5l-55 -313c-6 -34 -2 -39 23 -45l19 -4l-4 -27h-226z" />
    <glyph glyph-name="two.num" horiz-adv-x="331" 
d="M16 308l8 56c54 36 102 70 137 104c50 47 79 94 79 155c0 34 -17 47 -42 47c-12 0 -20 -4 -23 -25c-6 -50 -20 -62 -53 -62c-35 0 -48 18 -48 40c0 48 59 77 136 77c85 0 143 -34 143 -102c0 -78 -87 -138 -232 -199v-3h131c26 0 32 8 57 48h25l-27 -136h-291z" />
    <glyph glyph-name="three.num" horiz-adv-x="332" 
d="M151 300c-80 0 -129 25 -129 74c0 28 19 43 46 43c35 0 46 -13 51 -59c3 -22 5 -29 24 -29c43 0 68 47 68 108c0 45 -24 56 -61 56h-27l6 35h19c57 0 79 33 79 93c0 33 -12 50 -34 50c-15 0 -22 -5 -24 -25c-5 -43 -17 -55 -48 -55c-30 0 -46 16 -46 37
c0 43 52 72 131 72s136 -31 136 -86c0 -49 -34 -82 -116 -95v-2c63 -7 108 -37 108 -91c0 -81 -75 -126 -183 -126z" />
    <glyph glyph-name="four.num" horiz-adv-x="357" 
d="M122 308l4 27l20 6c27 7 29 10 35 42l6 30h-160l7 36l232 244h90l-42 -234h56l-10 -46h-54l-5 -26c-7 -38 -6 -43 19 -48l21 -4l-4 -27h-215zM91 459h104l24 135h-3l-125 -132v-3z" />
    <glyph glyph-name="five.num" horiz-adv-x="324" 
d="M148 300c-73 0 -114 25 -114 67c0 24 17 41 43 41c25 0 41 -7 45 -48c2 -24 7 -30 26 -30c45 0 77 29 77 76c0 43 -31 64 -80 64c-32 0 -50 -5 -62 -10l-9 7l56 226h160c19 0 24 5 41 33h23l-26 -115h-183l-16 -62c14 4 29 7 62 7c83 0 138 -35 138 -107
c0 -87 -74 -149 -181 -149z" />
    <glyph glyph-name="six.num" horiz-adv-x="375" 
d="M207 299c-81 0 -152 50 -152 151c0 159 130 251 242 251c67 0 106 -23 106 -62c0 -26 -17 -42 -49 -42c-33 0 -41 11 -45 50c-1 17 -6 21 -20 21c-38 0 -79 -34 -104 -148c18 11 49 23 94 23c63 0 106 -35 106 -97c0 -78 -70 -147 -178 -147zM209 333c44 0 59 69 59 119
c0 35 -15 50 -41 50c-19 0 -36 -7 -46 -12c-7 -32 -10 -68 -10 -101c0 -37 12 -56 38 -56z" />
    <glyph glyph-name="seven.num" horiz-adv-x="314" 
d="M65 308c41 119 126 218 237 301h-156c-27 0 -34 -6 -58 -48h-25l32 132h278l-11 -56c-110 -106 -140 -208 -156 -329h-141z" />
    <glyph glyph-name="eight.num" horiz-adv-x="352" 
d="M188 299c-93 0 -155 37 -155 92c0 49 47 79 108 99v3c-35 22 -56 53 -56 86c-1 80 77 125 156 125c72 0 130 -29 130 -84c0 -43 -40 -70 -92 -86v-2c45 -26 76 -59 76 -102c0 -72 -68 -131 -167 -131zM192 332c40 0 69 23 69 58c0 32 -28 50 -97 85
c-22 -19 -41 -42 -41 -84c0 -36 23 -59 69 -59zM251 546c21 17 40 42 40 75c0 32 -22 50 -55 50c-34 0 -62 -20 -62 -51c0 -26 20 -46 77 -74z" />
    <glyph glyph-name="nine.num" horiz-adv-x="373" 
d="M153 299c-67 0 -106 23 -106 62c0 25 17 42 49 42c33 0 41 -14 46 -50c1 -17 6 -21 20 -21c46 0 81 36 102 147c-18 -11 -47 -22 -93 -22c-61 0 -107 34 -107 94c0 80 72 149 178 149c82 0 152 -49 152 -151c0 -157 -115 -250 -241 -250zM222 498c19 0 36 6 46 12
c7 34 10 69 10 101c0 37 -12 56 -38 56c-44 0 -59 -69 -59 -119c0 -35 15 -50 41 -50z" />
    <glyph glyph-name="zero.den" horiz-adv-x="416" 
d="M170 -9c-97 0 -163 59 -163 159c0 156 125 243 224 243c92 0 159 -57 159 -158c0 -153 -120 -244 -220 -244zM172 26c63 0 96 157 96 249c0 59 -14 83 -43 83c-63 0 -96 -161 -96 -249c0 -61 15 -83 43 -83z" />
    <glyph glyph-name="one.den" horiz-adv-x="255" 
d="M-26 0l4 26l22 6c26 7 30 10 36 45l36 203l-51 8l5 26c70 10 129 37 170 80l21 -5l-55 -313c-6 -34 -2 -39 23 -45l19 -5l-5 -26h-225z" />
    <glyph glyph-name="two.den" horiz-adv-x="331" 
d="M-31 0l7 56c55 36 103 70 138 104c50 47 79 93 79 155c0 33 -18 47 -42 47c-13 0 -20 -5 -23 -25c-7 -51 -20 -63 -53 -63c-35 0 -48 18 -48 41c0 47 59 77 136 77c84 0 143 -35 143 -103c0 -77 -87 -137 -232 -198v-3h130c27 0 33 7 58 47h25l-27 -135h-291z" />
    <glyph glyph-name="three.den" horiz-adv-x="332" 
d="M104 -8c-80 0 -129 25 -129 73c0 28 19 44 46 44c35 0 46 -13 51 -59c2 -22 4 -29 24 -29c43 0 67 47 67 108c0 44 -23 56 -60 56h-27l6 35h19c57 0 79 33 79 93c0 32 -12 49 -34 49c-16 0 -22 -5 -24 -25c-6 -42 -17 -54 -48 -54c-30 0 -46 16 -46 37c0 43 52 72 131 72
s135 -32 135 -86c0 -49 -33 -83 -115 -96v-2c63 -6 108 -37 108 -91c0 -81 -75 -125 -183 -125z" />
    <glyph glyph-name="four.den" horiz-adv-x="371" 
d="M74 0l4 26l21 6c27 7 29 11 35 43l6 30h-160l6 36l232 244h91l-43 -235h56l-9 -45h-55l-4 -27c-7 -37 -6 -42 19 -47l21 -5l-5 -26h-215zM44 150h103l25 136h-3l-125 -132v-4z" />
    <glyph glyph-name="five.den" horiz-adv-x="324" 
d="M101 -8c-73 0 -114 25 -114 67c0 23 16 41 43 41c25 0 40 -8 45 -48c2 -24 7 -30 26 -30c44 0 77 28 77 76c0 43 -31 63 -80 63c-32 0 -51 -5 -63 -10l-9 8l57 226h160c19 0 24 4 41 32h23l-26 -114h-183l-16 -63c13 4 29 7 62 7c83 0 138 -35 138 -107
c0 -87 -74 -148 -181 -148z" />
    <glyph glyph-name="six.den" horiz-adv-x="375" 
d="M159 -9c-80 0 -151 50 -151 151c0 159 130 251 242 251c67 0 106 -24 106 -63c0 -25 -17 -41 -50 -41c-32 0 -40 10 -44 50c-2 17 -6 20 -20 20c-38 0 -79 -33 -104 -147c18 11 49 23 94 23c62 0 106 -35 106 -97c0 -78 -70 -147 -179 -147zM162 24c44 0 58 70 58 119
c0 36 -14 50 -41 50c-18 0 -36 -6 -45 -11c-7 -32 -10 -68 -10 -102c0 -36 12 -56 38 -56z" />
    <glyph glyph-name="seven.den" horiz-adv-x="314" 
d="M18 0c41 118 125 217 236 300h-155c-28 0 -35 -6 -59 -47h-24l32 132h278l-11 -57c-111 -105 -140 -207 -157 -328h-140z" />
    <glyph glyph-name="eight.den" horiz-adv-x="352" 
d="M141 -9c-93 0 -155 36 -155 92c0 49 46 79 108 99v2c-36 22 -57 54 -57 87c0 79 78 124 157 124c72 0 130 -29 130 -83c0 -44 -40 -70 -93 -87v-2c46 -25 77 -58 77 -102c0 -71 -68 -130 -167 -130zM144 24c41 0 70 23 70 58c0 31 -29 49 -98 84c-21 -19 -41 -42 -41 -83
c0 -36 24 -59 69 -59zM203 238c22 17 41 42 41 75c0 32 -22 50 -55 50c-34 0 -62 -20 -62 -52c0 -25 20 -45 76 -73z" />
    <glyph glyph-name="nine.den" horiz-adv-x="373" 
d="M106 -10c-68 0 -107 24 -107 63c0 25 17 42 50 42s40 -14 45 -50c2 -17 7 -21 20 -21c47 0 82 35 103 147c-18 -11 -48 -22 -93 -22c-62 0 -107 34 -107 94c0 80 71 149 178 149c82 0 152 -50 152 -152c0 -156 -116 -250 -241 -250zM175 190c18 0 36 6 46 12
c7 33 9 69 9 101c0 37 -11 56 -38 56c-44 0 -58 -69 -58 -119c0 -36 14 -50 41 -50z" />
    <glyph glyph-name="zero.sub" horiz-adv-x="416" 
d="M161 -58c-96 0 -163 60 -163 159c0 156 126 243 225 243c91 0 158 -57 158 -157c0 -153 -120 -245 -220 -245zM164 -23c63 0 95 157 95 250c0 59 -13 83 -43 83c-63 0 -96 -162 -96 -250c0 -61 16 -83 44 -83z" />
    <glyph glyph-name="one.sub" horiz-adv-x="255" 
d="M-35 -49l4 27l22 6c26 6 30 9 37 45l36 202l-51 9l4 25c71 10 130 37 170 80l21 -5l-55 -313c-6 -34 -2 -39 24 -45l18 -4l-4 -27h-226z" />
    <glyph glyph-name="two.sub" horiz-adv-x="331" 
d="M-40 -49l8 57c54 35 102 69 137 103c50 47 79 94 79 155c0 34 -17 47 -42 47c-12 0 -20 -4 -23 -25c-6 -50 -20 -62 -53 -62c-34 0 -48 18 -48 40c0 48 59 78 137 78c84 0 143 -35 143 -103c0 -78 -88 -138 -233 -199v-3h131c26 0 32 8 57 48h25l-27 -136h-291z" />
    <glyph glyph-name="three.sub" horiz-adv-x="332" 
d="M96 -57c-81 0 -130 25 -130 74c0 28 19 43 46 43c35 0 46 -12 51 -59c3 -21 5 -28 24 -28c43 0 68 47 68 107c0 45 -24 56 -61 56h-27l6 36h19c57 0 80 33 80 92c0 33 -13 50 -35 50c-15 0 -21 -5 -24 -25c-5 -43 -17 -55 -48 -55c-29 0 -45 16 -45 38c0 42 51 72 130 72
s136 -32 136 -86c0 -50 -34 -83 -116 -96v-2c63 -7 108 -37 108 -91c0 -82 -75 -126 -182 -126z" />
    <glyph glyph-name="four.sub" horiz-adv-x="371" 
d="M66 -49l4 27l21 6c26 7 28 10 34 42l6 31h-160l7 35l232 245h90l-42 -235h56l-10 -45h-54l-5 -27c-6 -37 -6 -43 19 -48l21 -4l-4 -27h-215zM35 102h104l24 135h-3l-125 -132v-3z" />
    <glyph glyph-name="five.sub" horiz-adv-x="324" 
d="M92 -57c-72 0 -114 25 -114 67c0 24 17 41 44 41c24 0 40 -7 44 -47c3 -24 7 -31 26 -31c45 0 78 29 78 76c0 44 -32 64 -81 64c-32 0 -50 -5 -62 -10l-9 7l56 227h160c19 0 24 4 42 32h22l-26 -115h-183l-16 -62c14 4 29 7 62 7c83 0 138 -35 138 -107
c0 -87 -74 -149 -181 -149z" />
    <glyph glyph-name="six.sub" horiz-adv-x="375" 
d="M151 -58c-81 0 -152 50 -152 151c0 159 130 251 242 251c67 0 106 -23 106 -62c0 -26 -16 -42 -49 -42s-41 11 -44 50c-2 17 -7 21 -21 21c-38 0 -78 -33 -103 -148c18 11 48 23 93 23c63 0 106 -34 106 -97c0 -78 -70 -147 -178 -147zM153 -24c45 0 59 69 59 119
c0 35 -15 50 -41 50c-19 0 -36 -6 -46 -12c-7 -32 -10 -68 -10 -101c0 -37 12 -56 38 -56z" />
    <glyph glyph-name="seven.sub" horiz-adv-x="314" 
d="M9 -49c41 119 126 217 237 301h-155c-28 0 -35 -6 -59 -48h-25l33 133h277l-11 -57c-110 -106 -139 -208 -156 -329h-141z" />
    <glyph glyph-name="eight.sub" horiz-adv-x="352" 
d="M132 -58c-93 0 -155 37 -155 92c0 49 47 79 109 99v3c-36 22 -57 53 -57 86c-1 80 77 125 156 125c72 0 130 -29 130 -84c0 -43 -40 -70 -92 -86v-2c45 -26 77 -59 77 -102c0 -72 -69 -131 -168 -131zM136 -25c40 0 69 23 69 59c0 31 -28 49 -97 84
c-22 -19 -41 -42 -41 -84c0 -36 24 -59 69 -59zM195 189c21 17 40 43 40 75c0 33 -22 50 -55 50c-34 0 -62 -20 -62 -51c0 -26 20 -46 77 -74z" />
    <glyph glyph-name="nine.sub" horiz-adv-x="373" 
d="M97 -58c-67 0 -106 23 -106 62c0 26 17 43 49 43c33 0 41 -15 46 -51c2 -17 6 -21 20 -21c46 0 81 36 102 148c-18 -12 -47 -23 -93 -23c-61 0 -107 34 -107 94c0 81 72 150 178 150c82 0 152 -50 152 -152c0 -156 -115 -250 -241 -250zM166 141c19 0 36 6 46 12
c7 34 10 69 10 101c0 37 -12 56 -38 56c-44 0 -59 -69 -59 -119c0 -35 15 -50 41 -50z" />
    <glyph glyph-name="plus.sub" horiz-adv-x="359" 
d="M133 -18v137h-129v46h129v137h53v-137h128v-46h-128v-137h-53z" />
    <glyph glyph-name="minus.sub" horiz-adv-x="359" 
d="M314 119h-310v46h310v-46z" />
    <glyph glyph-name="zero.sup" horiz-adv-x="416" 
d="M235 397c-96 0 -163 60 -163 159c0 156 125 243 225 243c91 0 158 -57 158 -157c0 -153 -120 -245 -220 -245zM238 432c62 0 95 157 95 250c0 59 -14 83 -43 83c-63 0 -96 -162 -96 -250c0 -61 15 -83 44 -83z" />
    <glyph glyph-name="one.sup" horiz-adv-x="255" 
d="M39 406l4 27l22 6c25 6 30 9 36 45l37 202l-51 9l4 25c70 10 129 37 170 80l21 -5l-55 -313c-6 -34 -2 -39 23 -45l19 -4l-5 -27h-225z" />
    <glyph glyph-name="two.sup" horiz-adv-x="331" 
d="M34 406l8 57c54 35 102 69 137 103c50 47 79 94 79 155c0 34 -17 47 -42 47c-12 0 -20 -4 -23 -25c-7 -50 -20 -62 -53 -62c-35 0 -48 18 -48 40c0 48 59 78 136 78c85 0 143 -35 143 -103c0 -78 -87 -138 -232 -199v-3h131c26 0 32 8 57 48h25l-27 -136h-291z" />
    <glyph glyph-name="three.sup" horiz-adv-x="332" 
d="M169 398c-80 0 -129 25 -129 74c0 28 19 43 46 43c35 0 46 -12 51 -59c3 -21 5 -28 24 -28c43 0 67 47 67 107c0 45 -23 56 -60 56h-27l6 36h19c57 0 79 33 79 92c0 33 -12 50 -34 50c-16 0 -22 -5 -24 -25c-6 -43 -17 -55 -48 -55c-30 0 -46 16 -46 38
c0 42 52 72 131 72s135 -32 135 -86c0 -50 -33 -83 -115 -96v-2c63 -7 108 -37 108 -91c0 -82 -75 -126 -183 -126z" />
    <glyph glyph-name="four.sup" horiz-adv-x="357" 
d="M140 406l4 27l20 6c27 7 29 10 35 42l6 31h-160l7 35l232 245h90l-42 -235h55l-9 -45h-54l-5 -27c-7 -37 -6 -43 19 -48l21 -4l-5 -27h-214zM109 557h104l24 135h-3l-125 -132v-3z" />
    <glyph glyph-name="five.sup" horiz-adv-x="324" 
d="M166 398c-73 0 -114 25 -114 67c0 24 16 41 43 41c25 0 40 -7 45 -47c2 -24 7 -31 26 -31c45 0 77 29 77 76c0 44 -31 64 -80 64c-32 0 -51 -5 -63 -10l-8 7l55 227h161c19 0 24 4 41 32h23l-26 -115h-183l-16 -62c14 4 29 7 62 7c83 0 138 -35 138 -107
c0 -87 -74 -149 -181 -149z" />
    <glyph glyph-name="six.sup" horiz-adv-x="375" 
d="M225 397c-81 0 -152 50 -152 151c0 159 130 251 242 251c67 0 106 -23 106 -62c0 -26 -17 -42 -50 -42c-32 0 -40 11 -44 50c-2 17 -6 21 -20 21c-38 0 -79 -33 -104 -148c18 11 49 23 94 23c63 0 106 -34 106 -97c0 -78 -70 -147 -178 -147zM227 431c44 0 59 69 59 119
c0 35 -15 50 -41 50c-19 0 -37 -6 -46 -12c-7 -32 -10 -68 -10 -101c0 -37 12 -56 38 -56z" />
    <glyph glyph-name="seven.sup" horiz-adv-x="314" 
d="M83 406c41 119 125 217 237 301h-156c-27 0 -34 -6 -59 -48h-24l32 133h278l-11 -57c-110 -106 -140 -208 -157 -329h-140z" />
    <glyph glyph-name="eight.sup" horiz-adv-x="352" 
d="M206 397c-93 0 -155 37 -155 92c0 49 47 79 108 99v3c-35 22 -56 53 -56 86c-1 80 77 125 156 125c72 0 130 -29 130 -84c0 -43 -40 -70 -93 -86v-2c46 -26 77 -59 77 -102c0 -72 -68 -131 -167 -131zM209 430c41 0 70 23 70 59c0 31 -28 49 -97 84
c-22 -19 -41 -42 -41 -84c0 -36 23 -59 68 -59zM268 644c22 17 41 43 41 75c0 33 -22 50 -55 50c-34 0 -62 -20 -62 -51c0 -26 20 -46 76 -74z" />
    <glyph glyph-name="nine.sup" horiz-adv-x="373" 
d="M171 397c-67 0 -106 23 -106 62c0 26 17 43 49 43c33 0 40 -15 45 -51c2 -16 6 -21 20 -21c47 0 82 36 102 148c-18 -12 -47 -23 -92 -23c-61 0 -107 34 -107 94c0 81 72 150 178 150c82 0 152 -50 152 -152c0 -156 -116 -250 -241 -250zM240 596c18 0 36 6 46 12
c7 34 9 69 9 101c0 37 -11 56 -38 56c-44 0 -58 -69 -58 -119c0 -35 15 -50 41 -50z" />
    <glyph glyph-name="plus.sup" horiz-adv-x="359" 
d="M207 437v137h-129v46h129v137h52v-137h129v-46h-129v-137h-52z" />
    <glyph glyph-name="minus.sup" horiz-adv-x="359" 
d="M388 574h-310v46h310v-46z" />
    <glyph glyph-name="uni2033" unicode="&#x2033;" horiz-adv-x="399" 
d="M92 448l-2 170c-3 72 39 93 83 88c52 -5 80 -53 40 -111l-101 -148zM267 448l-2 170c-2 72 39 93 83 88c52 -5 80 -53 41 -111l-102 -148z" />
    <glyph glyph-name="uni2032" unicode="&#x2032;" horiz-adv-x="221" 
d="M91 448l-2 170c-4 72 39 93 83 88c52 -5 79 -53 40 -111l-101 -148z" />
    <glyph glyph-name="J.alt" horiz-adv-x="477" 
d="M121 -13c-89 0 -139 40 -139 95c0 38 25 65 70 65c51 0 68 -18 72 -95c1 -19 5 -23 18 -23c21 0 35 16 47 82l83 474c10 58 5 64 -26 73l-32 7l6 28h322l-6 -28l-35 -7c-32 -8 -39 -12 -50 -73l-60 -339c-30 -169 -114 -259 -270 -259z" />
    <glyph glyph-name="R.alt" horiz-adv-x="694" 
d="M-29 0l5 28l34 7c32 9 41 11 52 73l84 477c10 58 5 64 -27 73l-31 7l5 28h303c178 0 250 -61 250 -163c0 -105 -74 -174 -220 -194v-4c46 -12 79 -35 104 -78c40 -59 57 -147 77 -194c7 -17 12 -22 32 -28l15 -4l-4 -28h-216c-17 66 -27 149 -51 245
c-15 57 -36 65 -77 65h-31l-35 -202c-10 -58 -6 -66 23 -73l33 -7l-4 -28h-321zM330 349c98 0 142 73 142 207c0 65 -21 93 -84 93c-25 0 -44 -3 -55 -7l-51 -289c6 -1 25 -4 48 -4z" />
    <glyph glyph-name="Jcircumflex.alt" horiz-adv-x="477" 
d="M235 717l-9 17l155 135h48l106 -136l-11 -16l-127 54zM121 -13c-89 0 -139 40 -139 95c0 38 25 65 70 65c51 0 68 -18 72 -95c1 -19 5 -23 18 -23c21 0 35 16 47 82l83 474c10 58 5 64 -26 73l-32 7l6 28h322l-6 -28l-35 -7c-32 -8 -39 -12 -50 -73l-60 -339
c-30 -169 -114 -259 -270 -259z" />
    <glyph glyph-name="IJ.alt" horiz-adv-x="832" 
d="M-29 0l5 28l37 7c33 8 41 12 52 73l84 477c10 58 5 65 -26 73l-35 7l5 28h329l-6 -28l-38 -7c-32 -7 -40 -12 -50 -73l-84 -477c-10 -58 -6 -66 25 -73l35 -7l-4 -28h-329zM475 -13c-89 0 -139 40 -139 95c0 38 25 65 70 65c51 0 68 -18 72 -95c1 -19 5 -23 18 -23
c21 0 35 16 47 82l83 474c10 58 5 64 -26 73l-32 7l6 28h322l-6 -28l-35 -7c-32 -8 -39 -12 -50 -73l-60 -339c-30 -169 -114 -259 -270 -259z" />
    <glyph glyph-name="Racute.alt" horiz-adv-x="694" 
d="M509 763l-196 -39l-7 18l147 114c17 14 33 21 51 21c31 0 54 -30 54 -62c0 -24 -13 -45 -49 -52zM-29 0l5 28l34 7c32 9 41 11 52 73l84 477c10 58 5 64 -27 73l-31 7l5 28h303c178 0 250 -61 250 -163c0 -105 -74 -174 -220 -194v-4c46 -12 79 -35 104 -78
c40 -59 57 -147 77 -194c7 -17 12 -22 32 -28l15 -4l-4 -28h-216c-17 66 -27 149 -51 245c-15 57 -36 65 -77 65h-31l-35 -202c-10 -58 -6 -66 23 -73l33 -7l-4 -28h-321zM330 349c98 0 142 73 142 207c0 65 -21 93 -84 93c-25 0 -44 -3 -55 -7l-51 -289c6 -1 25 -4 48 -4z
" />
    <glyph glyph-name="Rcaron.alt" horiz-adv-x="694" 
d="M572 879l8 -16l-149 -135h-49l-111 135l11 16l133 -54zM-29 0l5 28l34 7c32 9 41 11 52 73l84 477c10 58 5 64 -27 73l-31 7l5 28h303c178 0 250 -61 250 -163c0 -105 -74 -174 -220 -194v-4c46 -12 79 -35 104 -78c40 -59 57 -147 77 -194c7 -17 12 -22 32 -28l15 -4
l-4 -28h-216c-17 66 -27 149 -51 245c-15 57 -36 65 -77 65h-31l-35 -202c-10 -58 -6 -66 23 -73l33 -7l-4 -28h-321zM330 349c98 0 142 73 142 207c0 65 -21 93 -84 93c-25 0 -44 -3 -55 -7l-51 -289c6 -1 25 -4 48 -4z" />
    <glyph glyph-name="Rcommaaccent.alt" horiz-adv-x="694" 
d="M234 -250l-6 24c72 14 99 40 104 75c-5 -3 -16 -7 -27 -7c-35 0 -54 22 -54 55c0 31 31 58 71 58c46 0 79 -27 79 -78c0 -66 -54 -116 -167 -127zM-29 0l5 28l34 7c32 9 41 11 52 73l84 477c10 58 5 64 -27 73l-31 7l5 28h303c178 0 250 -61 250 -163
c0 -105 -74 -174 -220 -194v-4c46 -12 79 -35 104 -78c40 -59 57 -147 77 -194c7 -17 12 -22 32 -28l15 -4l-4 -28h-216c-17 66 -27 149 -51 245c-15 57 -36 65 -77 65h-31l-35 -202c-10 -58 -6 -66 23 -73l33 -7l-4 -28h-321zM330 349c98 0 142 73 142 207
c0 65 -21 93 -84 93c-25 0 -44 -3 -55 -7l-51 -289c6 -1 25 -4 48 -4z" />
    <glyph glyph-name="f.short" horiz-adv-x="343" 
d="M270 519h110l-15 -58h-104l-50 -305c-40 -244 -140 -360 -261 -360c-66 0 -101 28 -101 69c0 30 21 50 52 50c36 0 53 -11 63 -62c3 -14 7 -18 15 -18c25 0 36 21 60 178l68 448h-67l2 24l73 34l1 6c24 153 118 236 232 236c66 0 110 -29 110 -80c0 -34 -25 -56 -59 -56
c-39 0 -55 16 -59 76c-1 18 -4 21 -10 21c-16 0 -31 -14 -44 -96z" />
    <glyph glyph-name="f_f.short" horiz-adv-x="627" 
d="M553 519h111l-16 -58h-103l-51 -305c-40 -244 -142 -350 -262 -350c-70 0 -106 32 -106 71c0 30 21 49 51 49c41 0 54 -15 62 -63c3 -13 7 -17 15 -17c27 0 46 15 69 167l67 448h-129l-50 -305c-40 -244 -140 -360 -262 -360c-65 0 -100 28 -100 69c0 30 21 50 52 50
c36 0 53 -11 63 -62c3 -14 7 -18 15 -18c25 0 36 21 60 178l68 448h-67l2 24l73 34l1 6c26 157 146 223 272 223c53 0 91 -13 111 -33c38 30 84 46 133 46c65 0 110 -29 110 -80c0 -34 -25 -56 -60 -56c-39 0 -55 16 -59 76c-1 18 -4 21 -10 21c-16 0 -31 -14 -43 -96z
M274 546l-4 -27h129c6 39 16 73 30 103c-17 8 -26 26 -33 64c-4 18 -13 23 -25 23c-42 0 -76 -22 -97 -163z" />
    <glyph glyph-name="g.short" horiz-adv-x="504" 
d="M177 -211c-148 0 -240 47 -240 117c0 63 79 97 150 114v4c-34 11 -65 38 -65 81c0 56 52 96 96 119v3c-46 24 -76 63 -76 117c0 116 117 189 232 189c47 0 86 -11 114 -29c26 28 66 58 107 58c34 0 52 -22 52 -50c0 -29 -21 -54 -50 -54c-27 0 -33 12 -46 33
c-8 14 -19 11 -40 -3v-3c30 -24 49 -60 49 -99c0 -118 -117 -188 -231 -188c-32 0 -59 5 -83 13c-14 -10 -27 -24 -27 -44c0 -16 11 -30 39 -31l134 -8c112 -6 170 -50 170 -138c0 -117 -124 -201 -285 -201zM193 -173c98 0 155 40 155 103c0 39 -21 57 -74 63l-152 17
c-28 -14 -59 -39 -59 -94c0 -60 42 -89 130 -89zM233 235c56 0 88 84 88 197c0 44 -18 64 -52 64c-57 0 -88 -88 -88 -198c0 -44 18 -63 52 -63z" />
    <glyph glyph-name="gbreve.short" horiz-adv-x="504" 
d="M177 -211c-148 0 -240 47 -240 117c0 63 79 97 150 114v4c-34 11 -65 38 -65 81c0 56 52 96 96 119v3c-46 24 -76 63 -76 117c0 116 117 189 232 189c47 0 86 -11 114 -29c26 28 66 58 107 58c34 0 52 -22 52 -50c0 -29 -21 -54 -50 -54c-27 0 -33 12 -46 33
c-8 14 -19 11 -40 -3v-3c30 -24 49 -60 49 -99c0 -118 -117 -188 -231 -188c-32 0 -59 5 -83 13c-14 -10 -27 -24 -27 -44c0 -16 11 -30 39 -31l134 -8c112 -6 170 -50 170 -138c0 -117 -124 -201 -285 -201zM193 -173c98 0 155 40 155 103c0 39 -21 57 -74 63l-152 17
c-28 -14 -59 -39 -59 -94c0 -60 42 -89 130 -89zM233 235c56 0 88 84 88 197c0 44 -18 64 -52 64c-57 0 -88 -88 -88 -198c0 -44 18 -63 52 -63zM294 575c-74 0 -108 61 -117 147l27 8c15 -36 42 -63 99 -63c45 0 85 23 111 63l26 -8c-22 -81 -77 -147 -146 -147z" />
    <glyph glyph-name="gcircumflex.short" horiz-adv-x="504" 
d="M159 571l-10 17l139 143h48l94 -144l-12 -16l-116 63zM177 -211c-148 0 -240 47 -240 117c0 63 79 97 150 114v4c-34 11 -65 38 -65 81c0 56 52 96 96 119v3c-46 24 -76 63 -76 117c0 116 117 189 232 189c47 0 86 -11 114 -29c26 28 66 58 107 58c34 0 52 -22 52 -50
c0 -29 -21 -54 -50 -54c-27 0 -33 12 -46 33c-8 14 -19 11 -40 -3v-3c30 -24 49 -60 49 -99c0 -118 -117 -188 -231 -188c-32 0 -59 5 -83 13c-14 -10 -27 -24 -27 -44c0 -16 11 -30 39 -31l134 -8c112 -6 170 -50 170 -138c0 -117 -124 -201 -285 -201zM193 -173
c98 0 155 40 155 103c0 39 -21 57 -74 63l-152 17c-28 -14 -59 -39 -59 -94c0 -60 42 -89 130 -89zM233 235c56 0 88 84 88 197c0 44 -18 64 -52 64c-57 0 -88 -88 -88 -198c0 -44 18 -63 52 -63z" />
    <glyph glyph-name="gcommaaccent.short" horiz-adv-x="504" 
d="M391 774l6 -23c-71 -15 -99 -41 -104 -76c5 3 16 7 27 7c35 0 54 -22 54 -55c0 -31 -31 -58 -71 -58c-46 0 -79 27 -79 78c0 67 54 116 167 127zM177 -211c-148 0 -240 47 -240 117c0 63 79 97 150 114v4c-34 11 -65 38 -65 81c0 56 52 96 96 119v3
c-46 24 -76 63 -76 117c0 116 117 189 232 189c47 0 86 -11 114 -29c26 28 66 58 107 58c34 0 52 -22 52 -50c0 -29 -21 -54 -50 -54c-27 0 -33 12 -46 33c-8 14 -19 11 -40 -3v-3c30 -24 49 -60 49 -99c0 -118 -117 -188 -231 -188c-32 0 -59 5 -83 13
c-14 -10 -27 -24 -27 -44c0 -16 11 -30 39 -31l134 -8c112 -6 170 -50 170 -138c0 -117 -124 -201 -285 -201zM193 -173c98 0 155 40 155 103c0 39 -21 57 -74 63l-152 17c-28 -14 -59 -39 -59 -94c0 -60 42 -89 130 -89zM233 235c56 0 88 84 88 197c0 44 -18 64 -52 64
c-57 0 -88 -88 -88 -198c0 -44 18 -63 52 -63z" />
    <glyph glyph-name="gdotaccent.short" horiz-adv-x="504" 
d="M177 -211c-148 0 -240 47 -240 117c0 63 79 97 150 114v4c-34 11 -65 38 -65 81c0 56 52 96 96 119v3c-46 24 -76 63 -76 117c0 116 117 189 232 189c47 0 86 -11 114 -29c26 28 66 58 107 58c34 0 52 -22 52 -50c0 -29 -21 -54 -50 -54c-27 0 -33 12 -46 33
c-8 14 -19 11 -40 -3v-3c30 -24 49 -60 49 -99c0 -118 -117 -188 -231 -188c-32 0 -59 5 -83 13c-14 -10 -27 -24 -27 -44c0 -16 11 -30 39 -31l134 -8c112 -6 170 -50 170 -138c0 -117 -124 -201 -285 -201zM193 -173c98 0 155 40 155 103c0 39 -21 57 -74 63l-152 17
c-28 -14 -59 -39 -59 -94c0 -60 42 -89 130 -89zM233 235c56 0 88 84 88 197c0 44 -18 64 -52 64c-57 0 -88 -88 -88 -198c0 -44 18 -63 52 -63zM301 582c-46 0 -83 32 -83 78c0 47 37 80 85 80c46 0 83 -32 83 -78c0 -47 -38 -80 -85 -80z" />
    <glyph glyph-name="registered.alt" horiz-adv-x="788" 
d="M407 -17c-203 0 -355 163 -352 361c2 198 158 359 360 359c201 0 357 -161 355 -359c-3 -198 -162 -361 -363 -361zM407 25c180 0 311 144 313 319s-126 318 -306 318s-310 -143 -312 -318s125 -319 305 -319zM220 148v19l20 5c18 5 24 7 24 44v263c0 37 -6 40 -24 44
l-20 5v20h191c117 0 171 -38 171 -109c0 -52 -29 -82 -79 -97v-3c21 -52 51 -109 80 -153c6 -8 12 -12 22 -15l14 -4v-19h-136c-28 42 -62 118 -81 170c-5 0 -23 1 -27 2v-104c0 -37 4 -39 23 -44l21 -5v-19h-199zM399 346c49 0 65 26 65 87c0 63 -18 86 -58 86
c-10 0 -29 -1 -31 -3v-167c5 -2 15 -3 24 -3z" />
    <glyph glyph-name="questiondown.uc" horiz-adv-x="471" 
d="M371 478l-32 -182c-82 -17 -174 -48 -174 -184c0 -59 35 -83 72 -83c23 0 32 8 37 44c9 58 33 76 78 76s64 -26 64 -57c0 -66 -62 -104 -163 -104c-144 0 -235 67 -235 173c0 146 128 216 287 235l14 82h52zM358 700c44 0 82 -38 82 -82c0 -48 -38 -83 -82 -83
s-83 35 -83 83c0 44 39 82 83 82z" />
    <glyph glyph-name="exclamdown.uc" horiz-adv-x="280" 
d="M203 700c44 0 82 -38 82 -82c0 -48 -38 -83 -82 -83s-83 35 -83 83c0 44 39 82 83 82zM197 478l9 -368c5 -87 -38 -120 -102 -120c-67 0 -117 47 -75 142l137 346h31z" />
    <glyph glyph-name="hyphen.uc" horiz-adv-x="270" 
d="M31 295l18 100h216l-19 -100h-215z" />
    <glyph glyph-name="endash.uc" horiz-adv-x="388" 
d="M49 320l10 51h307l-10 -51h-307z" />
    <glyph glyph-name="emdash.uc" horiz-adv-x="620" 
d="M49 320l10 51h539l-9 -51h-540z" />
    <glyph glyph-name="guilsinglleft.uc" horiz-adv-x="275" 
d="M173 124l-136 203l1 19l208 193h35l-120 -204l46 -211h-34z" />
    <glyph glyph-name="guilsinglright.uc" horiz-adv-x="275" 
d="M115 539l136 -203l-1 -19l-208 -193h-34l119 205l-46 210h34z" />
    <glyph glyph-name="guillemotleft.uc" horiz-adv-x="453" 
d="M352 124l-137 203l1 19l209 193h34l-120 -204l46 -211h-33zM173 124l-136 203l1 19l208 193h35l-120 -204l46 -211h-34z" />
    <glyph glyph-name="guillemotright.uc" horiz-adv-x="453" 
d="M115 539l136 -203l-1 -19l-208 -193h-34l119 205l-46 210h34zM293 539l136 -203l-1 -19l-208 -193h-35l120 205l-45 210h33z" />
    <glyph glyph-name="parenleft.uc" horiz-adv-x="345" 
d="M256 -97c-85 85 -180 215 -180 386c0 238 182 407 330 500l20 -18c-150 -125 -242 -313 -242 -515c0 -141 38 -254 96 -335z" />
    <glyph glyph-name="parenright.uc" horiz-adv-x="345" 
d="M117 789c85 -85 180 -214 180 -385c0 -238 -182 -408 -330 -501l-20 19c150 125 243 312 243 514c0 142 -39 255 -97 336z" />
    <glyph glyph-name="bracketleft.uc" horiz-adv-x="354" 
d="M51 -86l152 864h225l-6 -28l-65 -7c-51 -6 -62 -12 -73 -75l-114 -644c-11 -62 -3 -69 47 -75l63 -7l-5 -28h-224z" />
    </font>
</defs>
</svg>
