<?xml version="1.0" standalone="no"?>
<!DOCTYPE svg PUBLIC "-//W3C//DTD SVG 1.1//EN" "http://www.w3.org/Graphics/SVG/1.1/DTD/svg11.dtd" >
<svg xmlns="http://www.w3.org/2000/svg">
<metadata>
Created by FontPrep 20130207 at Wed Apr 13 12:11:23 2016
 By Dan
(c)2010 Paul Barnes and Christian Schwartz, under exclusive license to Schwartzco Inc./Commercial Type. All rights reserved.
</metadata>
<defs>
<font id="5058f1af8388633f609cadb75a75dc9d" horiz-adv-x='1024' >
  <font-face 
    font-family="."
    font-weight="300"
    font-stretch="normal"
    units-per-em="2048"
    panose-1="2 4 3 2 6 5 4 6 2 3"
    ascent="1640"
    descent="-408"
    x-height="1034"
    cap-height="1419"
    bbox="-322 -432 2044 2101"
    underline-thickness="102"
    underline-position="-205"
    unicode-range="U+000D-FB04"
  />
<missing-glyph horiz-adv-x="1019" 
 />
    <glyph glyph-name="f_f" unicode="ff" horiz-adv-x="1136" 
d="M743 160v801h-409v-799q0 -51 8 -73.5t55 -35.5l80 -20v-33h-430v33l68 18q45 12 56 31.5t11 77.5v801h-139v36l139 39v88q0 180 116 292t277 112q86 0 119 -32t33 -68t-25.5 -59t-68.5 -23q-77 0 -90 75q-7 49 -35 49q-122 0 -148 -91t-26 -160v-185h409v111
q0 185 118.5 294t291.5 109q94 0 134 -33.5t40 -72.5q0 -86 -88 -86q-51 0 -72.5 18.5t-29.5 57.5t-16.5 49t-38.5 10q-71 0 -129 -64.5t-58 -199.5v-193h219l-12 -73h-207v-799q0 -51 9 -75t48 -32l107 -22v-33h-445v33l62 18q45 14 56 32.5t11 76.5z" />
    <glyph glyph-name="f_i" unicode="fi" horiz-adv-x="1060" 
d="M741 858q0 103 -73 103h-334v-799q0 -51 9 -72.5t52 -34.5l82 -22v-33h-430v33l68 18q45 12 56 31.5t11 77.5v801h-139v36l139 39v76q0 207 127 321.5t328 114.5q106 0 151.5 -38t45.5 -78q0 -86 -97 -86q-90 0 -99 80q-5 42 -16.5 54.5t-49.5 12.5q-98 0 -168 -68
t-70 -229v-162h358l197 29l12 -6q-8 -100 -8 -217v-680q0 -59 12.5 -78t55.5 -31l67 -18v-33h-420v33l66 18q45 12 56 31.5t11 77.5v698z" />
    <glyph glyph-name="f_l" unicode="fl" horiz-adv-x="1062" 
d="M893 1290v-1130q0 -59 12.5 -78t55.5 -31l69 -18v-33h-416v33l60 18q43 14 55 32.5t12 76.5v1188h-8q-59 0 -79.5 31t-25.5 61t-17.5 40.5t-45.5 10.5q-231 0 -231 -289v-168h231l-20 -73h-211v-799q0 -51 10 -72.5t57 -36.5l76 -20v-33h-430v33l68 18q47 12 57 31.5
t10 77.5v801h-139v36l139 39v82q0 211 121 320.5t320 109.5q148 0 196 -63l68 61l14 -12q-8 -132 -8 -244z" />
    <glyph glyph-name="f_f_i" unicode="ffi" horiz-adv-x="1622" 
d="M1303 858q0 103 -74 103h-334v-799q0 -51 7 -71.5t42 -31.5l94 -26v-33h-424v33l62 18q43 12 55 31.5t12 77.5v801h-409v-799q0 -51 8 -73.5t55 -35.5l80 -20v-33h-430v33l68 18q45 12 56 31.5t11 77.5v801h-139v36l139 39v88q0 180 116 292t277 112q86 0 119 -32t33 -68
t-25.5 -59t-68.5 -23q-77 0 -90 75q-7 49 -35 49q-122 0 -148 -91t-26 -160v-185h409v78q0 207 127 321.5t328 114.5q106 0 151.5 -38t45.5 -78q0 -86 -97 -86q-90 0 -99 80q-5 42 -17 54.5t-50 12.5q-96 0 -166.5 -67.5t-70.5 -229.5v-162h358l197 29l12 -6
q-8 -100 -8 -217v-680q0 -59 12.5 -78t55.5 -31l67 -18v-33h-420v33l66 18q45 12 56.5 31.5t11.5 77.5v698z" />
    <glyph glyph-name="f_f_l" unicode="ffl" horiz-adv-x="1624" 
d="M1454 1290v-1130q0 -59 12.5 -78t55.5 -31l69 -18v-33h-422v33l66 18q45 14 56.5 32.5t11.5 76.5v1188h-11q-59 0 -79.5 31t-25.5 61t-17.5 40.5t-45.5 10.5q-229 0 -229 -289v-168h225l-14 -73h-211v-799q0 -51 10 -72.5t58 -36.5l75 -20v-33h-424v33l62 18
q45 14 56 32.5t11 76.5v801h-409v-799q0 -51 8 -73.5t55 -35.5l80 -20v-33h-430v33l68 18q45 12 56 31.5t11 77.5v801h-139v36l139 39v88q0 180 116 292t277 112q86 0 119 -32t33 -68t-25.5 -59t-68.5 -23q-77 0 -90 75q-7 49 -35 49q-122 0 -148 -91t-26 -160v-185h409v84
q0 205 121 317.5t318 112.5q147 0 198 -65l68 63l14 -12q-8 -132 -8 -244z" />
    <glyph glyph-name=".notdef" horiz-adv-x="1019" 
 />
    <glyph glyph-name=".null" horiz-adv-x="0" 
 />
    <glyph glyph-name=".null" horiz-adv-x="0" 
 />
    <glyph glyph-name="nonmarkingreturn" unicode="&#xd;" horiz-adv-x="423" 
 />
    <glyph glyph-name="space" unicode=" " horiz-adv-x="423" 
 />
    <glyph glyph-name="exclam" unicode="!" horiz-adv-x="503" 
d="M260 1438q41 0 74 -30t28 -89l-77 -942h-49l-78 942q-4 59 28.5 89t73.5 30zM258 -8q-43 0 -73.5 30.5t-30.5 74.5t30.5 73t73.5 29t76 -29t33 -73t-33 -74.5t-76 -30.5z" />
    <glyph glyph-name="quotedbl" unicode="&#x22;" horiz-adv-x="620" 
d="M533 1406q31 -34 16 -95l-78 -305h-35l-67 305q-12 68 20.5 98.5t72.5 30.5t71 -34zM158 1440q41 0 73.5 -30t20.5 -99l-70 -305h-32l-78 305q-15 61 15 95t71 34z" />
    <glyph glyph-name="numbersign" unicode="#" horiz-adv-x="1060" 
d="M627 541l73 344h-268l-74 -344h269zM256 414h-188l22 127h195l71 344h-188l22 127h195l86 407h76l-86 -407h268l86 407h74l-86 -407h190l-22 -127h-197l-72 -344h191l-25 -127h-194l-88 -414h-76l86 414h-266l-86 -414h-74z" />
    <glyph glyph-name="dollar" unicode="$" horiz-adv-x="1001" 
d="M213 1122q0 -94 56.5 -158.5t191.5 -129.5v534q-121 -12 -184.5 -82t-63.5 -164zM780 315q0 104 -56 170t-196 136v-582q135 16 193.5 94t58.5 182zM51 209q0 90 88 90q53 0 74 -28.5t25 -76.5t11 -75t42 -54.5t178 -27.5v614q-4 1 -55 25q-160 77 -244 167t-84 232
q0 141 103.5 239t271.5 116v124h59v-120q172 0 270.5 -64t98.5 -148q0 -83 -90 -83q-51 0 -72 28.5t-27 88.5t-41.5 86t-138.5 28v-565q225 -110 313.5 -198t88.5 -222q0 -185 -116 -289.5t-278 -120.5v-188h-59v186q-418 7 -418 236z" />
    <glyph glyph-name="percent" unicode="%" horiz-adv-x="1402" 
d="M1030 16q160 0 160 316t-160 315q-160 1 -160 -315t160 -316zM1027 -29q-118 0 -212 89.5t-94 262.5t95 272t217 99t214 -92t92 -264t-97 -269.5t-215 -97.5zM1153 1462h82l-1014 -1564h-84zM371 762q82 0 121.5 72.5t39.5 228.5q0 330 -160 330q-160 1 -159 -315
q0 -316 158 -316zM157.5 807q-94.5 90 -94.5 261t95.5 271.5t217.5 100.5t214 -92t92 -265t-98 -269.5t-215 -96.5t-211.5 90z" />
    <glyph glyph-name="ampersand" unicode="&#x26;" horiz-adv-x="1302" 
d="M735 1173.5q0 98.5 -41 155.5t-118.5 57t-126 -58t-48.5 -150t29 -161t90 -159q113 66 164 141.5t51 174zM221 399q0 -178 94.5 -268t209.5 -90q116 0 191 42t115 85q-197 245 -415 584q-195 -133 -195 -353zM870 123q-150 -150 -376 -150q-129 0 -287 67.5t-158 323.5
q0 257 338 431q-53 76 -89 147.5t-36 151.5q0 151 92 250.5t229 99.5t219.5 -78t82.5 -192t-84 -196t-250 -163q211 -326 371 -520q90 153 90 309q0 45 -24.5 64.5t-72.5 27.5l-41 9v34h396v-32l-58 -15q-47 -10 -60.5 -28.5t-25.5 -50.5t-52 -147.5t-113 -219.5
q117 -147 143 -167t67 -30l58 -14v-35h-260q-32 36 -99 123z" />
    <glyph glyph-name="quotesingle" unicode="'" horiz-adv-x="323" 
d="M72 1311q-15 61 15 95t74 34t75 -34t16 -95l-74 -305h-33z" />
    <glyph glyph-name="parenleft" unicode="(" horiz-adv-x="636" 
d="M256 659q0 -548 348 -915l-33 -29q-201 172 -328.5 385.5t-127.5 520.5q0 406 186 618.5t270 284.5l33 -31q-244 -271 -296 -490t-52 -344z" />
    <glyph glyph-name="parenright" unicode=")" horiz-adv-x="636" 
d="M381 598q0 523 -348 895l33 29q206 -181 331 -390t125 -509q0 -505 -456 -910l-33 31q348 387 348 854z" />
    <glyph glyph-name="asterisk" unicode="*" horiz-adv-x="647" 
d="M323.5 1436q32.5 0 51 -23.5t8.5 -56.5l-49 -185l145 99q35 25 63 14.5t38 -38.5t-4.5 -52.5t-61.5 -28.5l-174 -12l147 -121q23 -18 26 -49t-21 -48t-54 -13t-45 41l-69 176l-70 -176q-14 -37 -44 -41t-54 13t-21.5 48t25.5 49l147 121l-174 12q-47 4 -62 28.5t-5 52.5
t38.5 38t63.5 -14l145 -99l-49 185q-10 33 8.5 56.5t51 23.5z" />
    <glyph glyph-name="plus" unicode="+" horiz-adv-x="894" 
d="M397 649h-329v86h329v381h101v-381h329v-86h-329v-381h-101v381z" />
    <glyph glyph-name="comma" unicode="," horiz-adv-x="378" 
d="M160 -2q-35 0 -62.5 29.5t-27.5 72.5t31.5 72t82.5 29t87 -40t36 -120t-58.5 -153.5t-182.5 -108.5l-13 28q82 35 117 84.5t39 120.5q-14 -14 -49 -14z" />
    <glyph glyph-name="hyphen" unicode="-" horiz-adv-x="540" 
d="M72 659h407l-8 -122h-410z" />
    <glyph glyph-name="period" unicode="." horiz-adv-x="354" 
d="M177 -8q-44 0 -74.5 29.5t-30.5 73.5t30.5 75t74.5 31t75 -31t31 -75t-31 -73.5t-75 -29.5z" />
    <glyph glyph-name="slash" unicode="/" horiz-adv-x="755" 
d="M90 -266h-84l621 1769h84z" />
    <glyph glyph-name="zero" unicode="0" horiz-adv-x="1204" 
d="M603 41q177 0 272.5 162.5t95.5 486.5t-93.5 507t-274.5 183t-274 -169t-93 -491t95 -500.5t272 -178.5zM600 -25q-94 0 -189.5 38t-219 175.5t-123.5 506.5t158.5 559t378.5 190q221 0 376.5 -177t155.5 -545q0 -367 -125 -515t-221.5 -190t-190.5 -42z" />
    <glyph glyph-name="one" unicode="1" horiz-adv-x="655" 
d="M260 160v1071h-180v37q120 20 186.5 55t128.5 111l25 -4v-1270q0 -57 13 -80t56 -29l113 -16v-35h-530v35l110 16q49 6 63.5 28.5t14.5 80.5z" />
    <glyph glyph-name="two" unicode="2" horiz-adv-x="978" 
d="M169 1155q-75 0 -75 93t107 144.5t282 51.5t299.5 -94.5t124.5 -282.5q0 -125 -51 -233.5t-144.5 -217t-224.5 -223t-292 -250.5v-6h499q82 0 109.5 22.5t48 57.5t49.5 94h37l-35 -311h-870v82q326 282 515 504.5t189 478.5q0 162 -81.5 239.5t-188.5 77.5
q-108 0 -137 -25.5t-35 -81.5t-28.5 -88t-97.5 -32z" />
    <glyph glyph-name="three" unicode="3" horiz-adv-x="976" 
d="M45 166q0 41 25.5 64.5t70.5 23.5t66 -26.5t31 -66.5q19 -74 48.5 -98t116.5 -24q172 0 253 101t81 254t-69 230.5t-234 77.5h-115v68h95q147 0 213.5 76t66.5 228t-67.5 232t-196.5 80q-68 0 -104.5 -22.5t-43.5 -86.5q-12 -114 -100 -114q-53 0 -71.5 26.5t-18.5 66.5
t34 77t114 74t200 37q217 0 317.5 -98t100.5 -242q0 -202 -122 -271t-210 -88v-6q193 -16 286 -111.5t93 -250.5t-131.5 -278.5t-389.5 -123.5q-146 0 -242.5 47.5t-96.5 143.5z" />
    <glyph glyph-name="four" unicode="4" horiz-adv-x="1075" 
d="M631 518v672h-6l-482 -670v-2h488zM631 162v262h-592v65l680 930h65v-901h238l-12 -94h-226v-262q0 -59 14.5 -81t53.5 -30l90 -16v-35h-465v35l82 14q43 8 57.5 30.5t14.5 82.5z" />
    <glyph glyph-name="five" unicode="5" horiz-adv-x="960" 
d="M748 411q0 324 -352 324q-163 0 -257 -39l-12 11l80 712h518q39 0 55.5 15t48.5 86h35l-35 -244h-569l-49 -430q91 31 199 31q218 0 348.5 -98.5t130.5 -311.5t-154.5 -352.5t-372.5 -139.5q-141 0 -229 48.5t-88 140.5q0 43 25.5 68.5t71.5 25.5t72 -21.5t35 -66.5
q16 -81 41 -106t93 -25q168 0 266.5 100.5t98.5 271.5z" />
    <glyph glyph-name="six" unicode="6" horiz-adv-x="1067" 
d="M244 612q0 -226 41 -338t106 -174.5t163 -62.5t193 50t95 310q0 385 -303 385q-76 0 -159 -28.5t-134 -67.5v-9zM76 555q0 252 64.5 419t161.5 271.5t211.5 151.5t232.5 47t189 -43t71 -121q0 -39 -22.5 -61.5t-66.5 -22.5t-66 20.5t-32 72.5t-32.5 72.5t-82.5 20.5
t-137.5 -32.5t-189 -158t-129.5 -452.5q53 43 139 82t193 39q199 0 312.5 -115.5t113.5 -319.5t-134 -327t-320 -123q-94 0 -185 43t-191 164t-100 373z" />
    <glyph glyph-name="seven" unicode="7" horiz-adv-x="948" 
d="M197 1274q-50 0 -68 -22t-53 -107h-35l33 274h854v-69q-209 -320 -330.5 -624.5t-191.5 -725.5h-162q117 533 302 845t259 429h-608z" />
    <glyph glyph-name="eight" unicode="8" horiz-adv-x="1042" 
d="M524 1380q-121 0 -186.5 -68.5t-65.5 -172.5q0 -148 144.5 -238t195.5 -121q31 29 102.5 97t71.5 242q0 124 -70.5 192.5t-191.5 68.5zM831 317q0 160 -168.5 260.5t-232.5 141.5q-95 -72 -154 -153t-59 -219t90 -224t235 -86q135 0 212 79t77 201zM543 -27
q-87 0 -168.5 20.5t-150 64.5t-115 115t-46.5 151t49.5 185.5t272.5 233.5v7q-201 117 -226.5 206.5t-25.5 151.5t31 125t113.5 137t249.5 74t287 -88t120 -238q0 -177 -283 -364v-4q168 -100 223.5 -159t80 -111t24.5 -122t-32 -141.5t-91 -125.5t-142.5 -86t-170.5 -32z
" />
    <glyph glyph-name="nine" unicode="9" horiz-adv-x="1069" 
d="M823 809q0 573 -323 573q-275 0 -275 -372q0 -170 72.5 -269.5t239.5 -99.5t284 96l1 9zM819 680q-145 -121 -332 -121t-306.5 113.5t-119.5 316.5q0 204 137.5 329.5t301.5 125.5q224 0 358.5 -167t134.5 -446q0 -429 -183.5 -642.5t-451.5 -213.5q-135 0 -205.5 45.5
t-70.5 120.5q0 84 94 84q45 0 65.5 -21.5t30.5 -71.5t31 -72.5t87 -22.5t141 31.5t174 152.5t114 459z" />
    <glyph glyph-name="colon" unicode=":" horiz-adv-x="366" 
d="M183 588q-44 0 -74.5 29.5t-30.5 73.5t30.5 75t74.5 31t75 -31t31 -75t-31 -73.5t-75 -29.5zM183 -8q-44 0 -74.5 29.5t-30.5 73.5t30.5 75t74.5 31t75 -31t31 -75t-31 -73.5t-75 -29.5z" />
    <glyph glyph-name="semicolon" unicode=";" horiz-adv-x="378" 
d="M160 -2q-35 0 -62.5 29.5t-27.5 72.5t31.5 72t82.5 29t87 -40t36 -120t-58.5 -153.5t-182.5 -108.5l-13 28q82 35 117 84.5t39 120.5q-14 -14 -49 -14zM183 588q-44 0 -74.5 29.5t-30.5 73.5t30.5 75t74.5 31t75 -31t31 -75t-31 -73.5t-75 -29.5z" />
    <glyph glyph-name="less" unicode="&#x3c;" horiz-adv-x="925" 
d="M82 629v84l756 356v-96l-656 -301l656 -301v-97z" />
    <glyph glyph-name="equal" unicode="=" horiz-adv-x="968" 
d="M82 870h805v-86h-805v86zM82 557h805v-84h-805v84z" />
    <glyph glyph-name="greater" unicode="&#x3e;" horiz-adv-x="925" 
d="M88 367l655 303l-655 301v98l756 -356v-84l-756 -355v93z" />
    <glyph glyph-name="question" unicode="?" horiz-adv-x="837" 
d="M327 -8q-42 0 -74 30.5t-32 74.5t32 73t74 29t75.5 -29t33.5 -73t-33.5 -74.5t-75.5 -30.5zM635 1117q0 136 -76.5 198.5t-204.5 62.5q-29 0 -53.5 -11t-33.5 -66t-29.5 -79t-67.5 -24t-68.5 24.5t-21.5 62.5q0 72 81 115.5t178 43.5q189 0 301 -102.5t112 -288.5
q0 -292 -379 -432v-240h-80v371q226 79 284 184.5t58 180.5z" />
    <glyph glyph-name="at" unicode="@" horiz-adv-x="1665" 
d="M604 336q0 -78 19.5 -113t73.5 -35t126 71t140 171l86 432q-22 72 -115 72q-57 0 -115.5 -48t-136.5 -179.5t-78 -370.5zM643 90q-184 0 -184 240q0 147 51 269t127 209t161 136t134 49q75 0 106 -13t80 -48h10l64 57l25 -12q-32 -80 -54 -209l-65 -383q-18 -111 0 -170
t94 -59q117 0 209 133t92 390q0 256 -140.5 419.5t-400.5 163.5q-176 0 -315 -64.5t-288.5 -231.5t-149.5 -479t158 -486.5t479 -174.5q133 0 239.5 22.5t214.5 81.5v-49q-76 -47 -204 -90t-296 -43q-330 0 -529.5 184.5t-199.5 487.5q0 186 72 350t195 286t288.5 191.5
t339.5 69.5t293 -50t201 -131t123 -185.5t41 -240.5t-44 -259t-148 -245t-285 -122q-208 0 -181 252h-8q-66 -109 -144.5 -177.5t-160.5 -68.5z" />
    <glyph glyph-name="A" unicode="A" horiz-adv-x="1280" 
d="M387 582h424l-205 610h-10zM1286 0h-455v35l46 12q67 15 75.5 50t-26.5 145l-95 276h-466l-95 -276q-33 -101 -22.5 -131.5t29 -41t49.5 -18.5l59 -16v-35h-391l2 35l63 20q40 13 65 51t62 150l426 1163h82l408 -1192q47 -140 79.5 -157t55.5 -23l49 -12v-35z" />
    <glyph glyph-name="B" unicode="B" horiz-adv-x="1179" 
d="M1036 1087q0 -272 -325 -335v-7q201 -14 302 -102t101 -244q0 -186 -137.5 -292.5t-364.5 -106.5h-557v35l80 16q43 7 60.5 27.5t17.5 87.5v1087q0 69 -16 88t-62 27l-80 16v35h510q471 0 471 -332zM547 1362q-115 0 -174 -19v-579h182q145 0 231 78t86 226t-78.5 221
t-246.5 73zM940 382q0 153 -80 236.5t-272 83.5h-215v-473q0 -57 7 -91t40.5 -56.5t196.5 -22.5q162 0 242.5 85t80.5 238z" />
    <glyph glyph-name="C" unicode="C" horiz-adv-x="1226" 
d="M683 -25q-435 0 -523 263.5t-88 465.5q0 383 194 561.5t482 178.5q194 0 366 -53l25 -383h-41q-56 160 -87 210q-32 50 -76 104t-204 54q-237 0 -363 -151t-126 -488q0 -533 166 -613.5t256 -80.5q146 0 245.5 52.5t136.5 159.5t60 179h39l-25 -377q-184 -82 -437 -82z
" />
    <glyph glyph-name="D" unicode="D" horiz-adv-x="1349" 
d="M373 246q0 -57 6 -93t36.5 -64t181.5 -28q523 0 523 623q0 340 -123.5 508t-413.5 168q-150 0 -210 -19v-1095zM213 166v1087q0 69 -16 88t-62 27l-80 16v35h559q476 0 574 -249.5t98 -441.5q0 -363 -187.5 -545.5t-498.5 -182.5h-545v35l80 16q43 7 60.5 27.5t17.5 87.5
z" />
    <glyph glyph-name="E" unicode="E" horiz-adv-x="1159" 
d="M577 1362q-136 0 -204 -19v-575h112q130 0 185 12t75 56t43 155h43v-506h-43q-28 150 -60 182t-102.5 36t-140.5 4h-112v-451q0 -74 5 -114t32.5 -58t86 -22.5t147.5 -4.5q158 0 216.5 16.5t102 104t90.5 228.5h47l-31 -406h-1014v35l80 16q43 7 60.5 27.5t17.5 87.5
v1087q0 69 -16 88t-62 27l-80 16v35h973l27 -342h-43q-71 165 -90 195q-18 29 -36 47t-47.5 27.5t-77.5 12.5t-184 3z" />
    <glyph glyph-name="F" unicode="F" horiz-adv-x="1091" 
d="M576 1362q-104 0 -203 -16v-603h71q158 0 199 12.5t55.5 26t26.5 41t35 140.5h43v-514h-43q-22 117 -35 151q-12 33 -26.5 47.5t-51 23.5t-203.5 9h-71v-514q0 -67 13.5 -87t62.5 -28l108 -16v-35h-502v35l80 16q43 7 60.5 27.5t17.5 87.5v1087q0 69 -16 88t-62 27
l-80 16v35h957l20 -366h-43q-69 181 -91 215q-23 35 -43.5 53t-51.5 27.5t-77 11.5t-150 2z" />
    <glyph glyph-name="G" unicode="G" horiz-adv-x="1339" 
d="M737 43q158 0 283 61v302q0 70 -14 88.5t-62 25.5l-88 17v34h461v-34l-76 -19q-41 -10 -51 -24.5t-10 -69.5v-377q-66 -18 -177.5 -45t-264.5 -27q-316 0 -491 180t-175 539q0 403 200 576.5t500 173.5q119 0 207 -16.5t170 -36.5l25 -379h-44q-46 162 -99 237
t-105.5 101t-175.5 26q-253 0 -382.5 -146.5t-129.5 -484.5q0 -337 117.5 -519.5t381.5 -182.5z" />
    <glyph glyph-name="H" unicode="H" horiz-adv-x="1417" 
d="M213 166v1087q0 69 -16 88t-62 27l-80 16v35h482v-35l-88 -16q-50 -8 -63 -26.5t-13 -88.5v-497h671v497q0 70 -13 88.5t-64 26.5l-86 16v35h481v-35l-82 -16q-47 -7 -61.5 -27t-14.5 -88v-1087q0 -68 15.5 -88t60.5 -27l82 -16v-35h-481v35l86 14q51 8 64 27.5t13 89.5
v524h-671v-524q0 -70 12 -88.5t64 -26.5l88 -16v-35h-482v35l80 16q43 7 60.5 27.5t17.5 87.5z" />
    <glyph glyph-name="I" unicode="I" horiz-adv-x="598" 
d="M219 1253q0 70 -13 89t-63 26l-88 16v35h488v-35l-88 -16q-53 -8 -64.5 -27t-11.5 -88v-1087q0 -70 12 -88.5t64 -26.5l88 -16v-35h-488v35l88 16q49 7 62.5 26t13.5 89v1087z" />
    <glyph glyph-name="J" unicode="J" horiz-adv-x="589" 
d="M78 -260q141 0 141 328v1185q0 70 -13 89t-63 26l-88 16v35h480v-35l-84 -16q-49 -8 -60.5 -27t-11.5 -88v-1138q0 -307 -136.5 -370.5t-226.5 -63.5t-138 34.5t-48 94.5q0 29 21.5 53t76.5 24t75 -27.5t28 -63.5t16 -46t31 -10z" />
    <glyph glyph-name="K" unicode="K" horiz-adv-x="1226" 
d="M373 166q0 -70 12 -88.5t64 -26.5l90 -16l-2 -35h-482v35l80 16q43 7 60.5 27.5t17.5 87.5v1087q0 69 -16 88t-62 27l-80 16v35h482v-35l-88 -16q-50 -8 -63 -26.5t-13 -88.5v-1087zM905 1306q0 24 -17.5 36t-53.5 22l-72 20v35h424v-35l-53 -12q-47 -11 -74 -33
t-50.5 -47.5t-60.5 -64.5l-381 -428q155 -261 325.5 -468.5t196 -231t40 -33t49.5 -17.5l53 -14v-35h-264q-293 319 -523 717v22l428 500q33 43 33 67z" />
    <glyph glyph-name="L" unicode="L" horiz-adv-x="1085" 
d="M55 0v35l80 16q43 7 60.5 27.5t17.5 87.5v1087q0 69 -16 88t-62 27l-80 16v35h482v-35l-88 -16q-50 -8 -63 -26.5t-13 -88.5v-1032q0 -53 4 -85t36.5 -55.5t152.5 -23.5q186 0 236.5 17.5t92.5 75.5q20 25 54 99.5t61 172.5h47l-25 -422h-977z" />
    <glyph glyph-name="M" unicode="M" horiz-adv-x="1677" 
d="M1464 1253v-1087q0 -68 15 -87.5t61 -27.5l82 -16v-35h-481v35l86 14q52 12 65 32t13 85v1122h-9l-454 -1247h-68l-473 1247h-8v-1089q0 -70 12 -98.5t64 -43.5l88 -22v-35h-402v35l80 22q45 12 61.5 42t16.5 100v1054q0 69 -16 88t-62 27l-80 16v35h363l430 -1132h4
l412 1132h358v-35l-82 -16q-47 -7 -61.5 -27t-14.5 -88z" />
    <glyph glyph-name="N" unicode="N" horiz-adv-x="1359" 
d="M293 199q0 -70 12 -98.5t64 -43.5l88 -22v-35h-402v35l80 22q45 12 61.5 42t16.5 100v1054q0 69 -16 88t-62 27l-80 16v35h334l696 -1126h7v928q0 68 -12.5 100.5t-63.5 42.5l-103 20v35h416v-35l-80 -20q-51 -12 -64.5 -44t-13.5 -97v-1233h-79l-793 1276h-6v-1067z" />
    <glyph glyph-name="O" unicode="O" horiz-adv-x="1374" 
d="M1137 686q0 299 -112.5 494.5t-343.5 195.5t-337 -169t-106 -480t117.5 -497.5t341.5 -186.5q440 0 440 643zM72 709q0 361 176.5 548t448.5 187q271 0 438.5 -194.5t167.5 -550.5t-177 -540t-453 -184q-265 0 -433 186.5t-168 547.5z" />
    <glyph glyph-name="P" unicode="P" horiz-adv-x="1105" 
d="M567 1362q-123 0 -194 -19v-1177q0 -67 13.5 -87t62.5 -28l110 -16v-35h-504v35l80 16q43 7 60.5 27.5t17.5 87.5v1087q0 69 -16 88t-62 27l-80 16v35h531q236 0 354.5 -104.5t118.5 -298.5t-136 -315t-364 -121q-88 0 -119 14v39q227 -14 339 72t112 286t-75 285.5
t-249 85.5z" />
    <glyph glyph-name="Q" unicode="Q" horiz-adv-x="1374" 
d="M1137 686q0 299 -112.5 494.5t-343.5 195.5t-337 -169t-106 -480t117.5 -497.5t341.5 -186.5q440 0 440 643zM815 -18q280 -224 497 -224q65 0 150 31v-37q-35 -29 -95.5 -59.5t-164.5 -30.5t-181 23.5t-139 63.5t-95 64.5t-65 50t-65.5 54.5t-78.5 64q-232 32 -369 218
t-137 490q0 380 176.5 567t448.5 187q271 0 438.5 -194.5t167.5 -523.5t-131.5 -510.5t-356.5 -227.5v-6z" />
    <glyph glyph-name="R" unicode="R" horiz-adv-x="1222" 
d="M498 735q193 0 279.5 79t86.5 239q0 249 -111.5 279t-212.5 30t-167 -14v-605q72 -8 125 -8zM373 678v-512q0 -70 12 -88.5t64 -26.5l90 -16l-2 -35h-482v35l80 16q43 7 60.5 27.5t17.5 87.5v1087q0 69 -16 88t-62 27l-80 16v35h551q424 0 424 -338q0 -141 -91 -235
t-245 -135v-6q243 -408 391 -584q35 -41 54.5 -53.5t48.5 -20.5l45 -12v-35h-254q-248 323 -436 678h-170z" />
    <glyph glyph-name="S" unicode="S" horiz-adv-x="987" 
d="M489 1378q-270 0 -270 -235q0 -115 57.5 -180t191.5 -134q256 -132 345.5 -219t89.5 -223q0 -181 -118.5 -297.5t-323.5 -116.5t-381 78l-23 361h47q49 -148 96 -230q48 -82 110 -110.5t158 -28.5t147 21.5t100 75.5t49 168q0 113 -65 183.5t-249 164.5
q-183 94 -241.5 151t-87.5 120.5t-29 146.5q0 163 108.5 267.5t288.5 104.5t322 -53l25 -322h-43q-45 121 -59.5 147.5t-28.5 50.5q-33 57 -77 83t-139 26z" />
    <glyph glyph-name="T" unicode="T" horiz-adv-x="1150" 
d="M655 1360v-1194q0 -70 12.5 -88.5t63.5 -26.5l88 -16v-35h-487v35l88 16q47 7 61.5 25.5t14.5 89.5v1194h-60q-156 0 -199.5 -21.5t-68.5 -60.5t-86 -254h-49l22 395h1041l22 -395h-49q-66 223 -88.5 258t-66 56.5t-199.5 21.5h-60z" />
    <glyph glyph-name="U" unicode="U" horiz-adv-x="1384" 
d="M352 455q0 -195 91 -290t293 -95t289 105.5t87 293.5v762q0 68 -12.5 95.5t-63.5 37.5l-108 20v35h422v-35l-80 -20q-51 -14 -64.5 -41t-13.5 -92v-780q0 -327 -182.5 -401.5t-317.5 -74.5q-233 0 -366 118t-133 370v790q0 67 -15.5 86.5t-62.5 28.5l-80 16v35h469v-35
l-82 -16q-50 -12 -60 -27t-10 -88v-798z" />
    <glyph glyph-name="V" unicode="V" horiz-adv-x="1261" 
d="M-6 1419h452v-35l-57 -14q-74 -18 -74 -67q0 -35 35 -129l330 -945h10l314 945q28 86 28 120q0 33 -17.5 48.5t-58.5 25.5l-67 16v35h379v-35l-39 -10q-50 -11 -73 -49t-69 -166l-409 -1159h-84l-422 1188q-38 107 -60.5 139t-64.5 43l-53 14v35z" />
    <glyph glyph-name="W" unicode="W" horiz-adv-x="1873" 
d="M-6 1419h461v-35l-70 -14q-35 -8 -51.5 -23.5t-16.5 -51.5t29 -121l295 -922h10l269 813l-35 104q-38 115 -58 147t-36.5 40t-36.5 14l-60 14v35h455v-35l-62 -12q-65 -12 -65 -68q0 -46 27 -130l297 -922h10l252 899q26 102 26 138t-13 51.5t-46 25.5l-70 18v35h375v-35
l-68 -18q-43 -10 -65.5 -54t-56.5 -165l-336 -1147h-78l-318 944h-6l-315 -944h-72l-387 1180q-35 112 -54.5 140t-34.5 36t-36 14l-59 14v35z" />
    <glyph glyph-name="X" unicode="X" horiz-adv-x="1263" 
d="M55 1419h453v-35l-88 -14q-43 -6 -43 -45t45 -113l233 -399h7l223 399q47 86 41 117t-58 43l-57 12v35h354v-35l-45 -10q-46 -11 -76 -45t-79 -117l-269 -456l326 -545q56 -94 81 -125.5t62 -38.5l60 -12v-35h-455v35l64 8q29 4 44 12t15 36t-49 112l-258 434h-6
l-261 -436q-83 -133 17 -154l55 -12v-35h-362v35l43 10q54 12 81.5 39t88.5 127l305 487l-309 525q-25 39 -40.5 65.5t-32.5 51t-56 32.5l-54 12v35z" />
    <glyph glyph-name="Y" unicode="Y" horiz-adv-x="1191" 
d="M-8 1419h463v-35l-70 -16q-59 -12 -69.5 -42.5t32.5 -108.5l305 -566h6l263 549q63 123 23 141.5t-71 26.5l-67 16v35h393v-35l-49 -16q-50 -16 -83 -54t-91 -159l-279 -565v-424q0 -70 12.5 -88.5t63.5 -26.5l88 -16v-35h-487v35l88 16q47 7 61.5 25.5t14.5 89.5v403
l-363 656q-25 43 -40 69.5t-32.5 45.5t-56.5 30l-55 14v35z" />
    <glyph glyph-name="Z" unicode="Z" horiz-adv-x="1095" 
d="M864 1362h-164q-268 0 -326.5 -11.5t-84 -31t-53.5 -70.5t-78 -200h-41l24 370h895v-57l-805 -1296v-9h148q275 0 357.5 16.5t108 35t52.5 66.5t90 228h45l-33 -403h-948v59l813 1295v8z" />
    <glyph glyph-name="bracketleft" unicode="[" horiz-adv-x="614" 
d="M195 1503h399v-35l-201 -24q-39 -4 -50 -25.5t-11 -95.5v-1411q0 -74 11 -94.5t50 -24.5l201 -24v-35h-399v1769z" />
    <glyph glyph-name="backslash" unicode="\" horiz-adv-x="755" 
d="M45 1503h84l621 -1769h-84z" />
    <glyph glyph-name="bracketright" unicode="]" horiz-adv-x="614" 
d="M281 -88v1411q0 74 -11.5 95.5t-50.5 25.5l-199 24v35h400v-1769h-400v35l199 24q39 4 50.5 24.5t11.5 94.5z" />
    <glyph glyph-name="asciicircum" unicode="^" horiz-adv-x="757" 
d="M78 1024l272 422h58l274 -422l-29 -25l-278 254l-271 -254z" />
    <glyph glyph-name="underscore" unicode="_" horiz-adv-x="671" 
d="M-4 -276h680v-86h-680v86z" />
    <glyph glyph-name="grave" unicode="`" horiz-adv-x="1024" 
d="M274 1390q0 26 20 49t52 23t68 -24l319 -234l-14 -28l-377 124q-68 26 -68 90z" />
    <glyph glyph-name="a" unicode="a" horiz-adv-x="956" 
d="M403 59q91 0 149 34t83 77v330l-152 -17q-276 -31 -276 -219q0 -100 52.5 -152.5t143.5 -52.5zM940 14q-56 -39 -168 -39q-56 0 -91.5 35t-41.5 82h-10q-37 -51 -116 -85t-163 -34q-141 0 -222 68t-81 189q0 212 275 276l313 74v219q0 112 -38 162.5t-169 50.5
q-74 0 -99.5 -18t-30.5 -52t-12 -81.5t-83 -47.5q-94 0 -94 98q0 39 69.5 98.5t263.5 59.5q193 0 268.5 -67.5t75.5 -192.5v-651q0 -63 36 -88q36 -24 118 -29v-27z" />
    <glyph glyph-name="b" unicode="b" horiz-adv-x="1118" 
d="M525 39q180 0 270 120t90 392q0 199 -88 308.5t-246 109.5q-98 0 -157.5 -25.5t-98.5 -46.5v-780q47 -39 96 -58.5t134 -19.5zM625 1067q288 0 355 -177.5t67 -321.5q0 -281 -153.5 -437t-416.5 -156q-190 0 -334 74v1292q0 54 -12 69.5t-65 41.5l-68 33v33l293 28
l12 -12q-8 -140 -8 -244v-176l-2 -113q-2 -27 -2 -51h8q152 117 326 117z" />
    <glyph glyph-name="c" unicode="c" horiz-adv-x="925" 
d="M879 102q-127 -127 -371 -127q-92 0 -180 39t-177.5 144.5t-89.5 337.5q0 166 55.5 276.5t169.5 202.5t312 92q154 0 218.5 -47t64.5 -117q0 -41 -26 -68.5t-74 -27.5t-66.5 22.5t-25.5 61.5q-14 76 -38 94.5t-89 18.5q-139 0 -235 -113t-96 -340q0 -228 78 -351.5
t250 -123.5t320 86v-60z" />
    <glyph glyph-name="d" unicode="d" horiz-adv-x="1144" 
d="M624 1001q-196 0 -293.5 -113.5t-97.5 -356.5q0 -242 90 -349.5t234 -107.5t266 73v768q-97 86 -199 86zM975 1446v-1268q0 -53 11.5 -68.5t66.5 -41.5l61 -29v-27l-278 -37l-13 11l4 106h-8q-61 -47 -149.5 -82t-174.5 -35q-183 0 -303 119t-120 395q0 275 165 426.5
t390 151.5q127 0 196 -27v306q0 52 -9.5 66.5t-47.5 33.5l-86 39v33l289 28l12 -12q-6 -75 -6 -88z" />
    <glyph glyph-name="e" unicode="e" horiz-adv-x="993" 
d="M534 1008q-126 0 -210 -97.5t-95 -296.5l529 25q0 193 -49 281t-175 88zM524 -25q-100 0 -191 41t-181.5 151.5t-90.5 354.5q0 243 138 394t342 151q396 0 389 -502h-703v-6q0 -250 99.5 -365.5t261.5 -115.5q116 0 181 22.5t144 65.5v-57q-65 -58 -117.5 -81.5t-112 -38
t-159.5 -14.5z" />
    <glyph glyph-name="f" unicode="f" horiz-adv-x="575" 
d="M182 160v801h-139v36l139 39v109q0 185 117.5 294t292.5 109q94 0 134 -33.5t40 -72.5q0 -86 -88 -86q-51 0 -72.5 18.5t-29.5 57.5t-16.5 49t-38.5 10q-71 0 -129 -64.5t-58 -199.5v-193h219l-12 -73h-207v-799q0 -51 9 -75t48 -32l107 -22v-33h-451v33l68 18
q45 12 56 31.5t11 77.5z" />
    <glyph glyph-name="g" unicode="g" horiz-adv-x="962" 
d="M223 735q0 -303 215 -303t215 266q0 314 -215 314q-102 0 -158.5 -67.5t-56.5 -209.5zM815 -88q0 78 -47 117t-156 39h-317q-103 -23 -131.5 -85.5t-28.5 -107.5q0 -113 75 -165t226 -52t265 61t114 193zM203 307q0 -57 30.5 -77.5t100.5 -20.5h309q141 0 213 -63.5
t72 -187.5t-122 -241.5t-412 -117.5t-355.5 96.5t-65.5 164.5t63.5 122.5t166.5 89.5v6q-117 45 -117 148.5t137 201.5v8q-61 29 -112.5 102.5t-51.5 167.5q0 173 116 267t244 94t224 -51q108 92 221 92q49 0 76 -23.5t27 -62.5q0 -80 -76 -80q-53 0 -71 43t-58.5 40
t-77.5 -26v-6q133 -79 133 -258q0 -180 -114.5 -268t-264.5 -88q-95 0 -162 31q-73 -46 -73 -103z" />
    <glyph glyph-name="h" unicode="h" horiz-adv-x="1150" 
d="M330 942h6q126 85 227 105t146 20q156 0 214 -67.5t58 -204.5v-635q0 -57 11.5 -77t56.5 -32l69 -18v-33h-430v33l70 18q45 12 58 30.5t13 78.5v600q0 115 -39.5 159t-141.5 44t-182.5 -24t-131.5 -42v-737q0 -59 13 -79t59 -30l71 -18v-33h-430v33l68 18q45 12 56 31.5
t11 77.5v1181q0 54 -12.5 69.5t-65.5 41.5l-67 33v33l293 28l12 -12q-8 -132 -8 -244v-176l-2 -117q-2 -29 -2 -55z" />
    <glyph glyph-name="i" unicode="i" 
d="M251 1237q-42 0 -73 32.5t-31 72.5t31 72t73 32t72.5 -32t30.5 -72t-30.5 -72.5t-72.5 -32.5zM334 840v-680q0 -59 12 -78t55 -31l68 -18v-33h-422v33l68 18q45 12 56 31.5t11 77.5v696q0 54 -11 68t-26.5 22t-40.5 21l-55 26v29l281 41l12 -6q-8 -100 -8 -217z" />
    <glyph glyph-name="j" unicode="j" horiz-adv-x="489" 
d="M247 1237q-42 0 -73 32.5t-31 72.5t31 72t73 32t71.5 -32t29.5 -72t-29.5 -72.5t-71.5 -32.5zM334 842v-842q0 -221 -91.5 -316.5t-240.5 -95.5q-78 0 -111.5 35t-33.5 73t22.5 61.5t66.5 23.5t62.5 -16.5t24.5 -57.5t15 -51t44 -10t62.5 36.5t27.5 114.5v1059
q0 54 -11 68t-26.5 22t-40.5 21l-55 26v29l281 41l12 -6q-8 -100 -8 -215z" />
    <glyph glyph-name="k" unicode="k" horiz-adv-x="1017" 
d="M334 1290v-1130q0 -59 13 -79t59 -30l73 -18v-33h-432v33l68 18q45 12 56 31.5t11 77.5v1186q0 50 -12.5 65t-65.5 41l-67 33v33l293 28l12 -12q-8 -132 -8 -244zM707 956q0 20 -39 35l-35 13v30h328v-33l-54 -18q-78 -25 -115.5 -62.5t-66.5 -68.5l-231 -256
q185 -265 417 -508q34 -34 68 -43l45 -12v-33h-223q-228 228 -430 522v8l233 271q103 115 103 155z" />
    <glyph glyph-name="l" unicode="l" 
d="M334 1290v-1130q0 -59 12 -78t55 -31l68 -18v-33h-422v33l68 18q45 12 56 31.5t11 77.5v1186q0 50 -12.5 65t-65.5 41l-67 33v33l291 28l14 -12q-8 -132 -8 -244z" />
    <glyph glyph-name="m" unicode="m" horiz-adv-x="1728" 
d="M618 963q-113 0 -284 -66v-737q0 -59 13 -79t59 -30l71 -18v-33h-430v33l68 18q45 12 56 31.5t11 77.5v696q0 54 -11 68t-26.5 22t-40.5 21l-55 26v29l273 41l14 -6l-4 -113h6q194 123 350 123q113 0 164 -35t76 -94h6q84 47 177 88t217 41t177.5 -67.5t53.5 -206.5v-633
q0 -57 11 -77t56 -32l70 -18v-33h-430v33l69 18q43 12 57.5 29.5t14.5 79.5v598q0 109 -30.5 157t-122.5 48q-146 0 -312 -72q4 -32 4 -94v-637q0 -57 11.5 -77t56.5 -32l69 -18v-33h-430v33l70 18q43 12 57.5 29.5t14.5 79.5v598q0 109 -32 157t-145 48z" />
    <glyph glyph-name="n" unicode="n" horiz-adv-x="1150" 
d="M700 1067q165 0 223 -67.5t58 -204.5v-635q0 -57 11.5 -77t56.5 -32l69 -18v-33h-430v33l70 18q45 12 58 30.5t13 78.5v600q0 115 -39.5 159t-141.5 44t-182.5 -24t-131.5 -42v-737q0 -59 13 -79t59 -30l71 -18v-33h-430v33l68 18q45 12 56 31.5t11 77.5v696q0 54 -11 68
t-26.5 22t-40.5 21l-55 26v29l273 41l14 -6l-4 -113h6q197 123 362 123z" />
    <glyph glyph-name="o" unicode="o" horiz-adv-x="1099" 
d="M559 33q305 -1 305 487q0 242 -77.5 366t-241.5 124q-309 0 -309 -465q-1 -512 323 -512zM61 515q0 253 144 403.5t353 150.5t344.5 -137.5t135.5 -391.5t-144.5 -410.5t-349.5 -156.5q-215 0 -349 144.5t-134 397.5z" />
    <glyph glyph-name="p" unicode="p" horiz-adv-x="1157" 
d="M564 39q179 0 269.5 120t90.5 392q0 199 -87 308.5t-237 109.5q-98 0 -161.5 -24.5t-104.5 -47.5v-780q47 -39 96 -58.5t134 -19.5zM334 -248q0 -59 14 -79.5t64 -28.5l92 -19v-33h-457v33l68 19q45 12 56 31.5t11 76.5v1104q0 54 -11 68t-26.5 22t-40.5 21l-55 26v29
l273 41l14 -6l-4 -103h8q151 113 324 113q289 0 355 -177.5t66 -321.5q0 -282 -153 -437.5t-416 -155.5q-91 0 -184 29v-41l2 -92v-119z" />
    <glyph glyph-name="q" unicode="q" horiz-adv-x="1122" 
d="M562 74q149 0 261 76v759q-37 35 -87 63.5t-132 28.5q-175 0 -273 -113.5t-98 -356.5q0 -242 90 -349.5t239 -107.5zM647 1067q125 0 244 -68h6l55 74l23 -6v-1315q0 -57 11 -76.5t56 -31.5l68 -19v-33h-457v33l92 19q49 8 63.5 28.5t14.5 79.5v301q0 23 2 39h-6
q-61 -47 -149 -82t-174 -35q-183 0 -303.5 119t-120.5 395q0 275 165.5 426.5t409.5 151.5z" />
    <glyph glyph-name="r" unicode="r" horiz-adv-x="772" 
d="M182 160v696q0 54 -11 68t-26.5 22t-40.5 21l-55 26v29l273 41l14 -10l-4 -117h6q57 53 137 93t150 40q123 0 123 -108q0 -51 -28 -77t-72 -26q-75 0 -91 70q-8 23 -12.5 31t-20.5 8q-26 0 -95 -32t-95 -67v-708q0 -49 9 -73t48 -32l107 -22v-33h-451v33l68 18
q45 12 56 31.5t11 77.5z" />
    <glyph glyph-name="s" unicode="s" horiz-adv-x="806" 
d="M375 35q98 0 161.5 51t63.5 140t-58 141.5t-148 90.5q-174 74 -246 142t-72 194q0 127 98 201t240 74t266 -45l6 -256h-35q-23 49 -41 91t-43 76q-55 75 -161 75t-156.5 -49t-50.5 -127t60 -129.5t153 -89.5q176 -72 250.5 -138t74.5 -174q0 -141 -102 -234.5t-267 -93.5
t-305 52l-4 297h41q42 -117 69 -168q66 -121 206 -121z" />
    <glyph glyph-name="t" unicode="t" horiz-adv-x="622" 
d="M441 66q68 0 167 30v-39q-12 -8 -33.5 -22.5t-96 -46.5t-170 -8t-123 79.5t-27.5 110.5v791h-146v32q98 29 163 93.5t106 181.5h28v-234h285l-8 -73h-277v-773q0 -63 32 -92.5t100 -29.5z" />
    <glyph glyph-name="u" unicode="u" horiz-adv-x="1132" 
d="M172 242v622q0 55 -14.5 76t-61.5 39l-57 22v31l266 31l19 -16v-771q0 -196 182 -196q147 0 313 76v710q0 55 -13 76t-65 39l-57 20v31l266 31l21 -16v-846q0 -62 15 -86t63 -45l57 -27v-27l-275 -36l-12 8l4 121h-8q-192 -134 -377 -134q-123 0 -194.5 69t-71.5 198z
" />
    <glyph glyph-name="v" unicode="v" horiz-adv-x="991" 
d="M-16 1034h409v-33l-55 -14q-35 -10 -43 -24.5t-8 -42t24 -97.5l224 -608h8l225 608q25 81 23 109t-16.5 37.5t-43.5 17.5l-53 14v33h330v-33l-54 -14q-39 -10 -55.5 -37t-48.5 -114l-315 -836h-70l-326 856q-31 97 -54.5 108t-39.5 17l-61 20v33z" />
    <glyph glyph-name="w" unicode="w" horiz-adv-x="1486" 
d="M-16 1034h411v-33l-55 -14q-35 -10 -43 -24.5t-8 -40t24 -99.5l201 -606h6l199 571l-25 68q-18 57 -38.5 87t-55.5 42l-53 16v33h373v-33l-56 -14q-29 -8 -34 -22.5t-5 -38.5t27 -103l209 -606h8l199 606q24 81 22 109t-16 37.5t-43 17.5l-53 14v33h325v-33l-53 -14
q-39 -10 -54.5 -34.5t-24.5 -51.5t-23 -65l-291 -836h-64l-239 690h-4l-240 -690h-70l-303 856q-25 70 -42 92.5t-50 32.5l-61 20v33z" />
    <glyph glyph-name="x" unicode="x" horiz-adv-x="1050" 
d="M35 1034h401v-33l-49 -10q-76 -17 -4 -133l166 -262h6l145 256q29 49 35 87t-39 48l-61 14v33h346v-33l-63 -16q-66 -16 -95.5 -65.5t-54.5 -85.5l-176 -279l250 -358q59 -88 90 -117t76 -41l24 -6v-33h-409v33l55 10q45 8 45 39q0 23 -16.5 50.5t-34.5 55.5l-183 273h-6
l-149 -246q-60 -97 -60 -122t15.5 -34.5t50.5 -17.5l35 -8v-33h-357v33l62 18q52 14 85 44.5t81 103.5l205 303l-226 336q-31 45 -50 73.5t-37.5 48.5t-67.5 33l-35 8v33z" />
    <glyph glyph-name="y" unicode="y" horiz-adv-x="978" 
d="M160 -420q-82 0 -116 35t-34 81t28 69.5t73 23.5t63.5 -20.5t29.5 -48.5t17 -35t21 -7q76 0 155 185l58 139l-318 854q-27 71 -43.5 93.5t-56.5 35.5l-53 16v33h399v-33l-53 -14q-33 -10 -43.5 -23.5t-10.5 -37t27 -101.5l229 -618h9l217 616q42 124 18 140t-53 24
l-53 14v33h325v-33l-61 -16q-34 -8 -52.5 -41t-43.5 -108l-336 -906q-25 -66 -50.5 -128t-63.5 -111t-92 -80t-136 -31z" />
    <glyph glyph-name="z" unicode="z" horiz-adv-x="903" 
d="M672 981h-217q-127 0 -158 -12.5t-65 -56.5t-93 -183h-35l11 305h753v-30l-630 -943v-8h184q170 0 212 16.5t81.5 60.5t93.5 202h37l-19 -332h-782v37l627 936v8z" />
    <glyph glyph-name="braceleft" unicode="{" horiz-adv-x="612" 
d="M428 410q0 -47 -12.5 -106.5t-38 -186t-25.5 -179.5t11.5 -80.5t38 -45t72.5 -26.5t118 -22v-30q-199 -2 -295 45t-96 155q0 60 52 266.5t52 240.5q0 72 -56.5 110.5t-199.5 46.5v49q147 6 201.5 51t54.5 111q0 34 -52 232.5t-52 258.5q0 109 96 156t295 45v-31
q-154 -26 -185.5 -45.5t-43 -47t-11.5 -77.5t12.5 -113t25.5 -124.5t25.5 -118.5t12.5 -102q0 -84 -67.5 -137.5t-167.5 -77.5v-9q235 -38 235 -208z" />
    <glyph glyph-name="bar" unicode="|" horiz-adv-x="454" 
d="M188 1503h78v-1769h-78v1769z" />
    <glyph glyph-name="braceright" unicode="}" horiz-adv-x="612" 
d="M184 410q0 170 236 208v9q-100 25 -168 78t-68 137q0 45 38 218t38 232q0 58 -11 85.5t-42.5 46.5t-186.5 46v31q199 2 295.5 -45t96.5 -156q0 -56 -52.5 -256.5t-52.5 -234.5q0 -66 54.5 -111t201.5 -51v-49q-207 -11 -231.5 -67t-24.5 -88q0 -36 52.5 -244.5
t52.5 -264.5q0 -109 -96.5 -155.5t-295.5 -44.5v30q70 12 117 21.5t85 34t38 95.5q0 70 -12 135t-25.5 129.5t-26 123.5t-12.5 107z" />
    <glyph glyph-name="asciitilde" unicode="~" horiz-adv-x="733" 
d="M243 684q36 0 142 -21.5t142 -21.5q62 0 110 86l33 -14q-64 -145 -107 -173t-78 -28t-141 21.5t-143 21.5t-60.5 -22.5t-46.5 -63.5l-35 12q46 105 84.5 154t99.5 49z" />
    <glyph glyph-name="uni00A0" unicode="&#xa0;" horiz-adv-x="423" 
 />
    <glyph glyph-name="exclamdown" unicode="&#xa1;" horiz-adv-x="503" 
d="M260 -172q-41 0 -73.5 29.5t-28.5 89.5l78 942h49l77 -942q4 -59 -28.5 -89t-73.5 -30zM262 1274q43 0 74 -31t31 -75t-31 -72.5t-74 -28.5t-75.5 28.5t-32.5 72.5t32.5 75t75.5 31z" />
    <glyph glyph-name="cent" unicode="&#xa2;" horiz-adv-x="931" 
d="M233 555q0 -205 58.5 -325.5t195.5 -149.5v919q-111 -27 -182.5 -133t-71.5 -311zM185 884.5q122 134.5 302 170.5v166h76v-156q10 2 13 2h24q154 0 218.5 -47t64.5 -117q0 -41 -26 -68.5t-74 -27.5t-66.5 22.5t-25.5 61.5q-14 78 -37.5 97.5t-88.5 19.5h-2v-936h10
q106 0 182 30.5t126 59.5v-60q-70 -70 -163 -96t-155 -29v-190h-76v190q-201 15 -312.5 157t-111.5 379t122 371.5z" />
    <glyph glyph-name="sterling" unicode="&#xa3;" horiz-adv-x="1011" 
d="M401 472q0 -186 -204 -312v-10h534q64 0 87.5 19t43 52t49.5 88h35l-61 -309h-848v115q121 59 186.5 139t65.5 203q0 60 -33 239h-147v64h133q-37 190 -37 278t38 166t135.5 159t293.5 81q108 0 164.5 -27.5t78 -58.5t21.5 -71q0 -89 -84 -89q-76 0 -100 81
q-22 75 -44 89t-74 14q-118 0 -195 -78.5t-77 -246.5q0 -82 21 -297h362v-64h-356q12 -178 12 -224z" />
    <glyph glyph-name="yen" unicode="&#xa5;" horiz-adv-x="1107" 
d="M1008 655v-61h-371v-143h371v-62h-371v-223q0 -70 12 -88.5t64 -26.5l88 -16v-35h-488v35l88 16q49 7 62.5 26t13.5 89v223h-368v62h368v143h-368v61h356l-291 531q-33 59 -52.5 94t-35.5 59t-55 33l-47 12v35h450v-35l-72 -16q-59 -12 -68.5 -42t34.5 -112l264 -507h8
l234 493q60 123 22.5 141.5t-68.5 26.5l-59 16v35h367v-35l-47 -14q-40 -13 -65 -48.5t-93 -166.5l-248 -500h365z" />
    <glyph glyph-name="brokenbar" unicode="&#xa6;" horiz-adv-x="454" 
d="M188 1503h78v-829h-78v829zM188 518h78v-784h-78v784z" />
    <glyph glyph-name="section" unicode="&#xa7;" horiz-adv-x="1046" 
d="M866 266q0 89 -57.5 152t-195.5 180t-213.5 189.5t-123.5 146.5q-94 -57 -94 -180q0 -88 55 -149t197 -181q141 -119 220 -190.5t126 -145.5q86 59 86 178zM836 -90q0 -141 -94.5 -234.5t-278.5 -93.5q-137 0 -214 46t-77 118q0 39 24.5 63.5t67.5 24.5q84 0 94 -86
q8 -68 35 -88t88 -20q109 0 159 60t50 130t-17.5 115t-55 90t-97 97t-140.5 122q-188 163 -260.5 251.5t-72.5 186.5q0 173 209 287q-31 69 -31 139q0 140 103 230t280 90q119 0 194 -42t75 -114q0 -31 -23 -58.5t-70 -27.5t-69.5 22.5t-31.5 72.5t-29 69.5t-76 19.5
q-103 0 -154 -57.5t-51 -128.5t15 -116.5t50 -91.5t92.5 -98t146.5 -128q194 -166 258 -246.5t64 -179.5q0 -98 -51 -164t-143 -127q31 -77 31 -133z" />
    <glyph glyph-name="dieresis" unicode="&#xa8;" horiz-adv-x="987" 
d="M670 1231q-43 0 -71 29.5t-28 69.5t28 68.5t71 28.5t70.5 -28.5t27.5 -68.5t-27.5 -69.5t-70.5 -29.5zM317 1231q-43 0 -70.5 29.5t-27.5 69.5t27.5 68.5t70.5 28.5t71 -28.5t28 -68.5t-28 -69.5t-71 -29.5z" />
    <glyph glyph-name="copyright" unicode="&#xa9;" horiz-adv-x="1613" 
d="M573 723q0 -391 234 -391q103 0 139.5 39t57 88t38.5 98h35l-12 -225q-109 -53 -268 -53q-255 0 -312 154.5t-57 268.5q0 222 118 327.5t290 105.5q126 0 227 -31l10 -240h-37q-38 101 -63 144q-26 43 -56 58t-94 15q-121 0 -185.5 -84t-64.5 -274zM1320 282
q134 141 134 421t-183 474.5t-467 194.5q-282 0 -465 -194.5t-183 -474.5t184.5 -474t463.5 -194q142 0 262 53t254 194zM804.5 -29q-153.5 0 -286.5 57.5t-230.5 158t-152.5 233.5t-55 284.5t55 284.5t152.5 231.5t230.5 156t286.5 57.5t287 -57.5t231.5 -156t154.5 -231.5
t56.5 -284.5t-56.5 -284.5t-154.5 -233.5t-231.5 -158t-287 -57.5z" />
    <glyph glyph-name="ordfeminine" unicode="&#xaa;" horiz-adv-x="790" 
d="M305 641q117 0 174 86v246l-112 -15q-197 -21 -197 -169q0 -77 38 -112.5t97 -35.5zM152 1214q-82 0 -82 72q0 58 80.5 103t203.5 45t195 -58.5t72 -169.5v-477q0 -31 8.5 -59t109.5 -35v-29q-61 -37 -131 -37q-120 0 -125 95h-10q-80 -97 -199 -97t-183 53.5t-64 145.5
q0 140 90 173.5t129 43.5l233 59v156q0 97 -30 141.5t-132 44.5q-57 0 -70.5 -21.5t-17.5 -56t-16.5 -63.5t-60.5 -29z" />
    <glyph glyph-name="guillemotleft" unicode="&#xab;" horiz-adv-x="851" 
d="M410 496v43l338 403h63l-240 -424l240 -426h-63zM98 496v43l336 403h64l-238 -424l238 -426h-64z" />
    <glyph glyph-name="registered" unicode="&#xae;" horiz-adv-x="806" 
d="M393 1065q80 0 80 81t-76 81h-45v-162h41zM625.5 1295.5q-89.5 93.5 -222.5 93.5q-134 0 -221.5 -94t-87.5 -233t86.5 -234t221.5 -95q136 0 224.5 94.5t88.5 234.5t-89.5 233.5zM402 688q-151 0 -256 108.5t-105 264t103.5 264.5t257.5 109t260 -109.5t106 -264
t-107.5 -263.5t-258.5 -109zM352 1036v-100q0 -16 3 -21.5t14 -9.5l28 -6v-22h-164v22l29 6q17 7 17 31v260q0 26 -17 33l-26 6v22h167q144 0 144 -100q0 -75 -78 -96v-4q72 -147 109 -154l20 -4v-22h-100q-49 65 -95 159h-51z" />
    <glyph glyph-name="macron" unicode="&#xaf;" horiz-adv-x="1007" 
d="M276 1319h455v-90h-455v90z" />
    <glyph glyph-name="degree" unicode="&#xb0;" horiz-adv-x="606" 
d="M303 999q78 0 126 56.5t48 135.5t-48 134t-126 55t-126 -55t-48 -134t48 -135.5t126 -56.5zM303 944q-106 0 -175 73t-69 173t69 173t175 73t175 -73t69 -173t-69 -173t-175 -73z" />
    <glyph glyph-name="plusminus" unicode="&#xb1;" horiz-adv-x="894" 
d="M397 649h-329v86h329v361h101v-361h329v-86h-329v-360h-101v360zM68 86h759v-86h-759v86z" />
    <glyph glyph-name="twosuperior" unicode="&#xb2;" horiz-adv-x="542" 
d="M176 1339q-8 -88 -70 -88t-61 71q0 34 54.5 73t128.5 39q126 0 198 -58.5t72 -156.5q0 -135 -148.5 -248t-214.5 -162v-6h238q41 0 57 20.5t45 81.5h27l-19 -194h-456v63q163 142 206 191q88 101 113 155.5t25 122.5q0 147 -119 148q-35 0 -53.5 -9.5t-22.5 -42.5z" />
    <glyph glyph-name="threesuperior" unicode="&#xb3;" horiz-adv-x="532" 
d="M487 905q0 -137 -101 -171t-175 -34t-133.5 30t-59.5 81q0 61 58 61q50 0 62 -51q13 -52 29.5 -67t71.5 -15t91.5 47.5t36.5 119t-31 110.5t-123 39h-37v43h41q135 0 135 151q0 78 -31.5 110t-74.5 32t-59.5 -10.5t-21.5 -43.5t-18.5 -54t-45.5 -21t-45 18t-13 39
q0 53 59.5 84t153.5 31t150.5 -49.5t56.5 -114.5t-39 -117.5t-127 -71.5v-4q190 -22 190 -172z" />
    <glyph glyph-name="acute" unicode="&#xb4;" horiz-adv-x="1024" 
d="M656 1462q32 0 52.5 -22.5t20.5 -49.5q0 -62 -67 -90l-377 -124l-15 28l320 234q34 24 66 24z" />
    <glyph glyph-name="paragraph" unicode="&#xb6;" horiz-adv-x="1046" 
d="M453 715q-211 0 -311.5 96t-100.5 262t106.5 256t309.5 90h534v-35l-80 -14q-50 -8 -63.5 -29t-13.5 -88v-1458h-82v1565h-160v-1565h-82v924q-28 -4 -57 -4z" />
    <glyph glyph-name="periodcentered" unicode="&#xb7;" horiz-adv-x="378" 
d="M188 588q-43 0 -74.5 30.5t-31.5 74.5t31.5 74t74.5 30t76 -30t33 -74t-33 -74.5t-76 -30.5z" />
    <glyph glyph-name="cedilla" unicode="&#xb8;" horiz-adv-x="1005" 
d="M479 -106q160 -14 160 -132q0 -143 -301 -172v31q182 43 182 123q0 31 -29.5 51.5t-82.5 24.5l-11 14l80 166h66z" />
    <glyph glyph-name="onesuperior" unicode="&#xb9;" horiz-adv-x="393" 
d="M139 819v471h-102v31q78 14 121 39.5t78 66.5l22 -6v-602q0 -37 8 -49t37 -18l51 -11v-30h-315v30l55 11q29 6 37 18t8 49z" />
    <glyph glyph-name="ordmasculine" unicode="&#xba;" horiz-adv-x="866" 
d="M438 629q125 0 178.5 91.5t53.5 281.5t-57.5 284t-181.5 94t-178 -86t-54 -280t57 -289.5t182 -95.5zM152.5 682q-105.5 111 -105.5 313t114 320.5t279 118.5t272 -108t107 -308q0 -201 -112.5 -324t-280.5 -123t-273.5 111z" />
    <glyph glyph-name="guillemotright" unicode="&#xbb;" horiz-adv-x="856" 
d="M596 516l-240 426h64l338 -403v-43l-338 -404h-64zM281 516l-240 426h63l336 -403v-43l-336 -404h-63z" />
    <glyph glyph-name="onequarter" unicode="&#xbc;" horiz-adv-x="1167" 
d="M1051 1462h82l-1014 -1564h-84zM920 260v307h-2l-240 -305v-2h242zM1034 109q0 -37 8.5 -49.5t36.5 -18.5l51 -10v-31h-311v31l55 10q29 6 37.5 18.5t8.5 49.5v94h-304v43l361 463h57v-449h96l-6 -57h-90v-94zM139 819v471h-102v31q78 14 121 39.5t78 66.5l22 -6v-602
q0 -37 8 -49t37 -18l51 -11v-30h-315v30l55 11q29 6 37 18t8 49z" />
    <glyph glyph-name="onehalf" unicode="&#xbd;" horiz-adv-x="1257" 
d="M1042 1462h82l-1013 -1564h-84zM891 629q-7 -88 -69 -88q-62 1 -62 71q0 34 54 72.5t128 38.5q127 0 198.5 -59t71.5 -156q0 -133 -148.5 -247t-213.5 -163v-6h237q41 0 57.5 20.5t45.5 82.5h27l-19 -195h-457v63q163 142 206 191q86 99 112 152.5t26 125.5
q0 147 -118 148q-35 0 -53.5 -9t-22.5 -42zM139 819v471h-102v31q78 14 121 39.5t78 66.5l22 -6v-602q0 -37 8 -49t37 -18l51 -11v-30h-315v30l55 11q29 6 37 18t8 49z" />
    <glyph glyph-name="threequarters" unicode="&#xbe;" horiz-adv-x="1230" 
d="M1114 1462h82l-1014 -1564h-84zM983 260v307h-2l-240 -305v-2h242zM1098 109q0 -37 8 -49.5t37 -18.5l51 -10v-31h-311v31l55 10q29 6 37 18.5t8 49.5v94h-303v43l360 463h58v-449h96l-6 -57h-90v-94zM520 905q0 -137 -101 -171t-175 -34t-133.5 30t-59.5 81q0 61 58 61
q50 0 62 -51q13 -54 30 -68t71 -14q55 0 91 47.5t36 119t-30.5 110.5t-122.5 39h-37v43h41q135 0 135 146t-113 147q-37 0 -53 -10.5t-21 -43.5t-18.5 -54t-45.5 -21t-45 18t-13 39q0 53 59.5 84t153.5 31t150.5 -49.5t56.5 -114.5t-39 -117.5t-127 -71.5v-4
q190 -22 190 -172z" />
    <glyph glyph-name="questiondown" unicode="&#xbf;" horiz-adv-x="837" 
d="M511 1274q42 0 73.5 -31t31.5 -75t-31.5 -72.5t-73.5 -28.5t-76 28.5t-34 72.5t34 75t76 31zM86 213q0 291 379 432v240h80v-371q-153 -60 -247.5 -145.5t-94.5 -221.5t77.5 -198t202.5 -62q29 0 53.5 11.5t33.5 66.5t30 79t68 24t68.5 -25t21.5 -63q0 -72 -80 -115
t-179 -43q-189 0 -301 101.5t-112 289.5z" />
    <glyph glyph-name="Agrave" unicode="&#xc0;" horiz-adv-x="1280" 
d="M387 582h424l-205 610h-10zM1286 0h-455v35l46 12q67 15 75.5 50t-26.5 145l-95 276h-466l-95 -276q-33 -101 -22.5 -131.5t29 -41t49.5 -18.5l59 -16v-35h-391l2 35l63 20q40 13 65 51t62 150l426 1163h82l408 -1192q47 -140 79.5 -157t55.5 -23l49 -12v-35zM389 1676
q0 30 20.5 53.5t50.5 23.5t62 -20l342 -211l-12 -29l-397 102q-66 17 -66 81z" />
    <glyph glyph-name="Aacute" unicode="&#xc1;" horiz-adv-x="1280" 
d="M387 582h424l-205 610h-10zM1286 0h-455v35l46 12q67 15 75.5 50t-26.5 145l-95 276h-466l-95 -276q-33 -101 -22.5 -131.5t29 -41t49.5 -18.5l59 -16v-35h-391l2 35l63 20q40 13 65 51t62 150l426 1163h82l408 -1192q47 -140 79.5 -157t55.5 -23l49 -12v-35zM860 1753
q30 0 50 -23.5t20 -53.5q0 -61 -66 -81l-397 -102l-12 29l342 211q33 20 63 20z" />
    <glyph glyph-name="Acircumflex" unicode="&#xc2;" horiz-adv-x="1280" 
d="M387 582h424l-205 610h-10zM1286 0h-455v35l46 12q67 15 75.5 50t-26.5 145l-95 276h-466l-95 -276q-33 -101 -22.5 -131.5t29 -41t49.5 -18.5l59 -16v-35h-391l2 35l63 20q40 13 65 51t62 150l426 1163h82l408 -1192q47 -140 79.5 -157t55.5 -23l49 -12v-35zM375 1511
l246 242h59l248 -242l-13 -24l-268 125l-260 -125z" />
    <glyph glyph-name="Atilde" unicode="&#xc3;" horiz-adv-x="1280" 
d="M387 582h424l-205 610h-10zM1286 0h-455v35l46 12q67 15 75.5 50t-26.5 145l-95 276h-466l-95 -276q-33 -101 -22.5 -131.5t29 -41t49.5 -18.5l59 -16v-35h-391l2 35l63 20q40 13 65 51t62 150l426 1163h82l408 -1192q47 -140 79.5 -157t55.5 -23l49 -12v-35zM683 1670
q112 -28 156 -28t69.5 25t47.5 66l33 -15q-64 -147 -104.5 -171.5t-73.5 -24.5q-56 0 -161 27.5t-152 27.5t-71 -24.5t-46 -65.5l-35 12q45 102 81 150.5t90 48.5t166 -28z" />
    <glyph glyph-name="Adieresis" unicode="&#xc4;" horiz-adv-x="1280" 
d="M387 582h424l-205 610h-10zM1286 0h-455v35l46 12q67 15 75.5 50t-26.5 145l-95 276h-466l-95 -276q-33 -101 -22.5 -131.5t29 -41t49.5 -18.5l59 -16v-35h-391l2 35l63 20q40 13 65 51t62 150l426 1163h82l408 -1192q47 -140 79.5 -157t55.5 -23l49 -12v-35zM840 1513
q-43 0 -71 30t-28 70t28 68.5t71 28.5t70.5 -28.5t27.5 -68.5t-27.5 -70t-70.5 -30zM463 1513q-43 0 -70.5 30t-27.5 70t27.5 68.5t70.5 28.5t70.5 -28.5t27.5 -68.5t-27.5 -70t-70.5 -30z" />
    <glyph glyph-name="Aring" unicode="&#xc5;" horiz-adv-x="1280" 
d="M387 582h424l-205 610h-10zM1286 0h-455v35l46 12q67 15 75.5 50t-26.5 145l-95 276h-466l-95 -276q-33 -101 -22.5 -131.5t29 -41t49.5 -18.5l59 -16v-35h-391l2 35l63 20q40 13 65 51t62 150l426 1163h82l408 -1192q47 -140 79.5 -157t55.5 -23l49 -12v-35zM651 1532
q51 0 83 35t32 89t-32 87t-83 33t-81.5 -33t-30.5 -87t30.5 -89t81.5 -35zM648 1485q-79 0 -125 49t-46 121t50.5 120t126.5 48t124.5 -49.5t48.5 -121t-50 -119.5t-129 -48z" />
    <glyph glyph-name="AE" unicode="&#xc6;" horiz-adv-x="1798" 
d="M870 557v715h-6l-387 -715h393zM1228 1362q-124 0 -198 -19v-575h94q130 0 185 12t75 56t43 155h43v-506h-43q-28 150 -60 182t-102.5 36t-140.5 4h-94v-451q0 -74 6 -114t32 -58t80 -22.5t139 -4.5q154 0 212.5 16.5t102 104t90.5 228.5h47l-31 -406h-995v35l80 16
q43 8 60 28.5t17 86.5v326h-430l-131 -246q-53 -98 -51 -139t68 -58l57 -14v-35h-397v35l47 14q65 20 101.5 58t101.5 155l610 1088q-14 8 -53 18l-91 16v35h965l27 -342h-43q-68 159 -88 190q-20 32 -38 50t-47.5 28.5t-77.5 13.5t-172 3z" />
    <glyph glyph-name="Ccedilla" unicode="&#xc7;" horiz-adv-x="1226" 
d="M575 -106q160 -14 160 -132q0 -143 -301 -172v31q182 43 182 123q0 31 -29.5 51.5t-82.5 24.5l-10 14l71 150q-223 29 -358 202.5t-135 511.5q0 389 194 567.5t482 178.5q194 0 366 -53l25 -383h-41q-56 160 -87 210q-32 50 -76 104t-204 54q-237 0 -363 -151t-126 -488
q0 -533 166 -613.5t256 -80.5q146 0 245.5 52.5t136.5 159.5t60 179h39l-25 -377q-184 -82 -444 -82h-20q-19 0 -31 2z" />
    <glyph glyph-name="Egrave" unicode="&#xc8;" horiz-adv-x="1159" 
d="M577 1362q-136 0 -204 -19v-575h112q130 0 185 12t75 56t43 155h43v-506h-43q-28 150 -60 182t-102.5 36t-140.5 4h-112v-451q0 -74 5 -114t32.5 -58t86 -22.5t147.5 -4.5q158 0 216.5 16.5t102 104t90.5 228.5h47l-31 -406h-1014v35l80 16q43 7 60.5 27.5t17.5 87.5
v1087q0 69 -16 88t-62 27l-80 16v35h973l27 -342h-43q-71 165 -90 195q-18 29 -36 47t-47.5 27.5t-77.5 12.5t-184 3zM352 1676q0 30 20.5 53.5t50.5 23.5t62 -20l342 -211l-12 -29l-397 102q-66 17 -66 81z" />
    <glyph glyph-name="Eacute" unicode="&#xc9;" horiz-adv-x="1159" 
d="M577 1362q-136 0 -204 -19v-575h112q130 0 185 12t75 56t43 155h43v-506h-43q-28 150 -60 182t-102.5 36t-140.5 4h-112v-451q0 -74 5 -114t32.5 -58t86 -22.5t147.5 -4.5q158 0 216.5 16.5t102 104t90.5 228.5h47l-31 -406h-1014v35l80 16q43 7 60.5 27.5t17.5 87.5
v1087q0 69 -16 88t-62 27l-80 16v35h973l27 -342h-43q-71 165 -90 195q-18 29 -36 47t-47.5 27.5t-77.5 12.5t-184 3zM822 1753q30 0 50.5 -23.5t20.5 -53.5q0 -61 -66 -81l-397 -102l-12 29l342 211q32 20 62 20z" />
    <glyph glyph-name="Ecircumflex" unicode="&#xca;" horiz-adv-x="1159" 
d="M577 1362q-136 0 -204 -19v-575h112q130 0 185 12t75 56t43 155h43v-506h-43q-28 150 -60 182t-102.5 36t-140.5 4h-112v-451q0 -74 5 -114t32.5 -58t86 -22.5t147.5 -4.5q158 0 216.5 16.5t102 104t90.5 228.5h47l-31 -406h-1014v35l80 16q43 7 60.5 27.5t17.5 87.5
v1087q0 69 -16 88t-62 27l-80 16v35h973l27 -342h-43q-71 165 -90 195q-18 29 -36 47t-47.5 27.5t-77.5 12.5t-184 3zM338 1511l246 242h59l248 -242l-12 -24l-269 125l-260 -125z" />
    <glyph glyph-name="Edieresis" unicode="&#xcb;" horiz-adv-x="1159" 
d="M577 1362q-136 0 -204 -19v-575h112q130 0 185 12t75 56t43 155h43v-506h-43q-28 150 -60 182t-102.5 36t-140.5 4h-112v-451q0 -74 5 -114t32.5 -58t86 -22.5t147.5 -4.5q158 0 216.5 16.5t102 104t90.5 228.5h47l-31 -406h-1014v35l80 16q43 7 60.5 27.5t17.5 87.5
v1087q0 69 -16 88t-62 27l-80 16v35h973l27 -342h-43q-71 165 -90 195q-18 29 -36 47t-47.5 27.5t-77.5 12.5t-184 3zM803 1513q-43 0 -70.5 30t-27.5 70t27.5 68.5t70.5 28.5t70.5 -28.5t27.5 -68.5t-27.5 -70t-70.5 -30zM426 1513q-43 0 -70.5 30t-27.5 70t27.5 68.5
t70.5 28.5t70.5 -28.5t27.5 -68.5t-27.5 -70t-70.5 -30z" />
    <glyph glyph-name="Igrave" unicode="&#xcc;" horiz-adv-x="598" 
d="M219 1253q0 70 -13 89t-63 26l-88 16v35h488v-35l-88 -16q-53 -8 -64.5 -27t-11.5 -88v-1087q0 -70 12 -88.5t64 -26.5l88 -16v-35h-488v35l88 16q49 7 62.5 26t13.5 89v1087zM37 1676q0 30 20.5 53.5t50.5 23.5t62 -20l342 -211l-12 -29l-398 102q-65 17 -65 81z" />
    <glyph glyph-name="Iacute" unicode="&#xcd;" horiz-adv-x="598" 
d="M219 1253q0 70 -13 89t-63 26l-88 16v35h488v-35l-88 -16q-53 -8 -64.5 -27t-11.5 -88v-1087q0 -70 12 -88.5t64 -26.5l88 -16v-35h-488v35l88 16q49 7 62.5 26t13.5 89v1087zM507 1753q30 0 50.5 -23.5t20.5 -53.5q0 -61 -66 -81l-397 -102l-13 29l342 211q33 20 63 20z
" />
    <glyph glyph-name="Icircumflex" unicode="&#xce;" horiz-adv-x="598" 
d="M219 1253q0 70 -13 89t-63 26l-88 16v35h488v-35l-88 -16q-53 -8 -64.5 -27t-11.5 -88v-1087q0 -70 12 -88.5t64 -26.5l88 -16v-35h-488v35l88 16q49 7 62.5 26t13.5 89v1087zM23 1511l245 242h60l247 -242l-12 -24l-268 125l-260 -125z" />
    <glyph glyph-name="Idieresis" unicode="&#xcf;" horiz-adv-x="598" 
d="M219 1253q0 70 -13 89t-63 26l-88 16v35h488v-35l-88 -16q-53 -8 -64.5 -27t-11.5 -88v-1087q0 -70 12 -88.5t64 -26.5l88 -16v-35h-488v35l88 16q49 7 62.5 26t13.5 89v1087zM487 1513q-43 0 -70.5 30t-27.5 70t27.5 68.5t70.5 28.5t71 -28.5t28 -68.5t-28 -70t-71 -30z
M111 1513q-43 0 -71 30t-28 70t28 68.5t71 28.5t70.5 -28.5t27.5 -68.5t-27.5 -70t-70.5 -30z" />
    <glyph glyph-name="Eth" unicode="&#xd0;" horiz-adv-x="1349" 
d="M373 750h405v-60h-405v-444q0 -57 6 -93t36.5 -64t181.5 -28q523 0 523 623q0 340 -123.5 508t-413.5 168q-150 0 -210 -19v-591zM55 750h158v503q0 69 -16 88t-62 27l-80 16v35h559q476 0 574 -249.5t98 -441.5q0 -363 -187.5 -545.5t-498.5 -182.5h-545v35l80 16
q43 7 60.5 27.5t17.5 87.5v524h-158v60z" />
    <glyph glyph-name="Ntilde" unicode="&#xd1;" horiz-adv-x="1359" 
d="M293 199q0 -70 12 -98.5t64 -43.5l88 -22v-35h-402v35l80 22q45 12 61.5 42t16.5 100v1054q0 69 -16 88t-62 27l-80 16v35h334l696 -1126h7v928q0 68 -12.5 100.5t-63.5 42.5l-103 20v35h416v-35l-80 -20q-51 -12 -64.5 -44t-13.5 -97v-1233h-79l-793 1276h-6v-1067z
M748.5 1670q111.5 -28 155.5 -28t69.5 25t48.5 66l33 -15q-64 -146 -105.5 -171t-73.5 -25q-55 0 -160 27.5t-153 27.5q-47 0 -70.5 -24.5t-46.5 -65.5l-34 12q45 102 81 150.5t90 48.5t165.5 -28z" />
    <glyph glyph-name="Ograve" unicode="&#xd2;" horiz-adv-x="1374" 
d="M1137 686q0 299 -112.5 494.5t-343.5 195.5t-337 -169t-106 -480t117.5 -497.5t341.5 -186.5q440 0 440 643zM72 709q0 361 176.5 548t448.5 187q271 0 438.5 -194.5t167.5 -550.5t-177 -540t-453 -184q-265 0 -433 186.5t-168 547.5zM424 1676q0 30 20.5 53.5t50.5 23.5
t62 -20l342 -211l-12 -29l-398 102q-65 17 -65 81z" />
    <glyph glyph-name="Oacute" unicode="&#xd3;" horiz-adv-x="1374" 
d="M1137 686q0 299 -112.5 494.5t-343.5 195.5t-337 -169t-106 -480t117.5 -497.5t341.5 -186.5q440 0 440 643zM72 709q0 361 176.5 548t448.5 187q271 0 438.5 -194.5t167.5 -550.5t-177 -540t-453 -184q-265 0 -433 186.5t-168 547.5zM894 1753q30 0 50.5 -23.5
t20.5 -53.5q0 -61 -66 -81l-397 -102l-13 29l342 211q33 20 63 20z" />
    <glyph glyph-name="Ocircumflex" unicode="&#xd4;" horiz-adv-x="1374" 
d="M1137 686q0 299 -112.5 494.5t-343.5 195.5t-337 -169t-106 -480t117.5 -497.5t341.5 -186.5q440 0 440 643zM72 709q0 361 176.5 548t448.5 187q271 0 438.5 -194.5t167.5 -550.5t-177 -540t-453 -184q-265 0 -433 186.5t-168 547.5zM410 1511l245 242h60l248 -242
l-13 -24l-268 125l-260 -125z" />
    <glyph glyph-name="Otilde" unicode="&#xd5;" horiz-adv-x="1374" 
d="M1137 686q0 299 -112.5 494.5t-343.5 195.5t-337 -169t-106 -480t117.5 -497.5t341.5 -186.5q440 0 440 643zM72 709q0 361 176.5 548t448.5 187q271 0 438.5 -194.5t167.5 -550.5t-177 -540t-453 -184q-265 0 -433 186.5t-168 547.5zM718 1670q112 -28 156 -28t69.5 25
t47.5 66l33 -15q-64 -147 -104.5 -171.5t-73.5 -24.5q-56 0 -161 27.5t-153 27.5q-47 0 -70.5 -24.5t-45.5 -65.5l-35 12q45 102 81 150.5t90 48.5t166 -28z" />
    <glyph glyph-name="Odieresis" unicode="&#xd6;" horiz-adv-x="1374" 
d="M1137 686q0 299 -112.5 494.5t-343.5 195.5t-337 -169t-106 -480t117.5 -497.5t341.5 -186.5q440 0 440 643zM72 709q0 361 176.5 548t448.5 187q271 0 438.5 -194.5t167.5 -550.5t-177 -540t-453 -184q-265 0 -433 186.5t-168 547.5zM874.5 1513q-43.5 0 -71 30
t-27.5 70t27.5 68.5t71 28.5t71 -28.5t27.5 -68.5t-27.5 -70t-71 -30zM498 1513q-43 0 -71 30t-28 70t28 68.5t71 28.5t70.5 -28.5t27.5 -68.5t-27.5 -70t-70.5 -30z" />
    <glyph glyph-name="multiply" unicode="&#xd7;" horiz-adv-x="872" 
d="M86 373l283 299l-287 303l72 72l284 -304l287 304l66 -72l-287 -303l282 -299l-65 -72l-285 299l-278 -299z" />
    <glyph glyph-name="Oslash" unicode="&#xd8;" horiz-adv-x="1374" 
d="M1029.5 206q107.5 163 107.5 475t-111 501l-612 -1032q111 -107 272 -107q236 0 343.5 163zM686 1376q-236 0 -342 -169t-106 -495t127 -503l616 1034q-116 133 -295 133zM1094 1294q209 -196 209 -574q0 -377 -177 -561t-450 -184q-180 0 -318 84l-112 -190h-82l137 231
q-229 185 -229 577q0 393 176.5 580t449.5 187q197 0 340 -105l92 156h82z" />
    <glyph glyph-name="Ugrave" unicode="&#xd9;" horiz-adv-x="1384" 
d="M352 455q0 -195 91 -290t293 -95t289 105.5t87 293.5v762q0 68 -12.5 95.5t-63.5 37.5l-108 20v35h422v-35l-80 -20q-51 -14 -64.5 -41t-13.5 -92v-780q0 -327 -182.5 -401.5t-317.5 -74.5q-233 0 -366 118t-133 370v790q0 67 -15.5 86.5t-62.5 28.5l-80 16v35h469v-35
l-82 -16q-50 -12 -60 -27t-10 -88v-798zM475 1676q0 30 20.5 53.5t50.5 23.5t62 -20l342 -211l-12 -29l-397 102q-66 17 -66 81z" />
    <glyph glyph-name="Uacute" unicode="&#xda;" horiz-adv-x="1384" 
d="M352 455q0 -195 91 -290t293 -95t289 105.5t87 293.5v762q0 68 -12.5 95.5t-63.5 37.5l-108 20v35h422v-35l-80 -20q-51 -14 -64.5 -41t-13.5 -92v-780q0 -327 -182.5 -401.5t-317.5 -74.5q-233 0 -366 118t-133 370v790q0 67 -15.5 86.5t-62.5 28.5l-80 16v35h469v-35
l-82 -16q-50 -12 -60 -27t-10 -88v-798zM946 1753q30 0 50 -23.5t20 -53.5q0 -61 -66 -81l-397 -102l-12 29l342 211q33 20 63 20z" />
    <glyph glyph-name="Ucircumflex" unicode="&#xdb;" horiz-adv-x="1384" 
d="M352 455q0 -195 91 -290t293 -95t289 105.5t87 293.5v762q0 68 -12.5 95.5t-63.5 37.5l-108 20v35h422v-35l-80 -20q-51 -14 -64.5 -41t-13.5 -92v-780q0 -327 -182.5 -401.5t-317.5 -74.5q-233 0 -366 118t-133 370v790q0 67 -15.5 86.5t-62.5 28.5l-80 16v35h469v-35
l-82 -16q-50 -12 -60 -27t-10 -88v-798zM461 1511l246 242h59l248 -242l-13 -24l-268 125l-260 -125z" />
    <glyph glyph-name="Udieresis" unicode="&#xdc;" horiz-adv-x="1384" 
d="M352 455q0 -195 91 -290t293 -95t289 105.5t87 293.5v762q0 68 -12.5 95.5t-63.5 37.5l-108 20v35h422v-35l-80 -20q-51 -14 -64.5 -41t-13.5 -92v-780q0 -327 -182.5 -401.5t-317.5 -74.5q-233 0 -366 118t-133 370v790q0 67 -15.5 86.5t-62.5 28.5l-80 16v35h469v-35
l-82 -16q-50 -12 -60 -27t-10 -88v-798zM926 1513q-43 0 -71 30t-28 70t28 68.5t71 28.5t70.5 -28.5t27.5 -68.5t-27.5 -70t-70.5 -30zM549 1513q-43 0 -70.5 30t-27.5 70t27.5 68.5t70.5 28.5t70.5 -28.5t27.5 -68.5t-27.5 -70t-70.5 -30z" />
    <glyph glyph-name="Yacute" unicode="&#xdd;" horiz-adv-x="1191" 
d="M-8 1419h463v-35l-70 -16q-59 -12 -69.5 -42.5t32.5 -108.5l305 -566h6l263 549q63 123 23 141.5t-71 26.5l-67 16v35h393v-35l-49 -16q-50 -16 -83 -54t-91 -159l-279 -565v-424q0 -70 12.5 -88.5t63.5 -26.5l88 -16v-35h-487v35l88 16q47 7 61.5 25.5t14.5 89.5v403
l-363 656q-25 43 -40 69.5t-32.5 45.5t-56.5 30l-55 14v35zM856 1753q30 0 50 -23.5t20 -53.5q0 -61 -66 -81l-397 -102l-12 29l342 211q33 20 63 20z" />
    <glyph glyph-name="Thorn" unicode="&#xde;" horiz-adv-x="1099" 
d="M567 1071q-116 0 -194 -18v-887q0 -70 12 -88.5t64 -26.5l88 -16v-35h-482v35l80 16q43 7 60.5 27.5t17.5 87.5v1087q0 69 -16 88t-62 27l-80 16v35h482v-35l-88 -16q-53 -8 -64.5 -27t-11.5 -88v-123h207q236 0 358.5 -91t122.5 -275t-138.5 -296t-355.5 -112
q-73 0 -127 19v33q225 -10 338 64.5t113 263.5t-80 262t-244 73z" />
    <glyph glyph-name="germandbls" unicode="&#xdf;" horiz-adv-x="1155" 
d="M498 140q0 30 19.5 55.5t56.5 25.5q56 0 74.5 -25.5t27.5 -67.5q10 -42 29.5 -65.5t95.5 -23.5t125 48t49 121t-51.5 134t-163.5 134t-168.5 131.5t-56.5 124.5t38.5 124.5t86 122t86 136.5t38.5 166t-53 152.5t-167 59.5t-172 -77t-58 -206v-1044q0 -68 9.5 -86.5
t51.5 -30.5l56 -16v-33h-404v33l68 18q45 12 56 31.5t11 77.5v801h-139v36l139 39v51q0 248 128 354.5t286 106.5t245 -69t87 -176q0 -74 -44 -142.5t-97.5 -131t-97.5 -117t-44 -84.5t6 -50t44 -61t167 -128t186.5 -164t57.5 -161q0 -129 -96 -202.5t-265 -73.5t-208 61
t-39 91z" />
    <glyph glyph-name="agrave" unicode="&#xe0;" horiz-adv-x="956" 
d="M207 264q1 -100 53 -152t143 -53q91 0 149 34t83 77v330l-152 -17q-276 -30 -276 -219zM205 813q-96 1 -96 99q0 38 37 70q103 87 296 87t269 -68t75 -192v-651q0 -66 43 -92q29 -20 111 -25v-27q-52 -36 -138 -38q-86 -1 -122 34t-41 82h-10q-37 -51 -116 -85t-163 -34
q-141 0 -222 68t-81 188t93 196q65 52 182 81l313 74v219q0 112 -27 147q-28 35 -68 50q-40 16 -113 16t-99 -18t-30 -52q-5 -34 -8 -54q-11 -74 -85 -75zM193 1390q0 26 20 50q43 49 119 -2l319 -234l-14 -28l-377 124q-67 26 -67 90z" />
    <glyph glyph-name="aacute" unicode="&#xe1;" horiz-adv-x="956" 
d="M207 264q1 -100 53 -152t143 -53q91 0 149 34t83 77v330l-152 -17q-276 -30 -276 -219zM205 813q-96 1 -96 99q0 38 37 70q103 87 296 87t269 -68t75 -192v-651q0 -66 43 -92q29 -20 111 -25v-27q-52 -36 -138 -38q-86 -1 -122 34t-41 82h-10q-37 -51 -116 -85t-163 -34
q-141 0 -222 68t-81 188t93 196q65 52 182 81l313 74v219q0 112 -27 147q-28 35 -68 50q-40 16 -113 16t-99 -18t-30 -52q-5 -34 -8 -54q-11 -74 -85 -75zM656 1462q32 0 53 -22q20 -23 20 -50q0 -64 -67 -90l-377 -124l-15 28l320 234q34 24 66 24z" />
    <glyph glyph-name="acircumflex" unicode="&#xe2;" horiz-adv-x="956" 
d="M207 264q1 -100 53 -152t143 -53q91 0 149 34t83 77v330l-152 -17q-276 -30 -276 -219zM205 813q-96 1 -96 99q0 38 37 70q103 87 296 87t269 -68t75 -192v-651q0 -66 43 -92q29 -20 111 -25v-27q-52 -36 -138 -38q-86 -1 -122 34t-41 82h-10q-37 -51 -116 -85t-163 -34
q-141 0 -222 68t-81 188t93 196q65 52 182 81l313 74v219q0 112 -27 147q-28 35 -68 50q-40 16 -113 16t-99 -18t-30 -52q-5 -34 -8 -54q-11 -74 -85 -75zM195 1200l229 264h59l232 -264l-17 -22l-247 145l-240 -145z" />
    <glyph glyph-name="atilde" unicode="&#xe3;" horiz-adv-x="956" 
d="M207 264q1 -100 53 -152t143 -53q91 0 149 34t83 77v330l-152 -17q-276 -30 -276 -219zM205 813q-96 1 -96 99q0 38 37 70q103 87 296 87t269 -68t75 -192v-651q0 -66 43 -92q29 -20 111 -25v-27q-52 -36 -138 -38q-86 -1 -122 34t-41 82h-10q-37 -51 -116 -85t-163 -34
q-141 0 -222 68t-81 188t93 196q65 52 182 81l313 74v219q0 112 -27 147q-28 35 -68 50q-40 16 -113 16t-99 -18t-30 -52q-5 -34 -8 -54q-11 -74 -85 -75zM298 1270q-40 0 -64 -25t-46 -65l-34 12q47 106 70 137q45 60 97 61t152 -27q99 -28 150 -28t100 90l33 -14
q-43 -98 -70 -132q-49 -63 -94 -64q-59 -1 -156 27q-98 28 -138 28z" />
    <glyph glyph-name="adieresis" unicode="&#xe4;" horiz-adv-x="956" 
d="M207 264q1 -100 53 -152t143 -53q91 0 149 34t83 77v330l-152 -17q-276 -30 -276 -219zM205 813q-96 1 -96 99q0 38 37 70q103 87 296 87t269 -68t75 -192v-651q0 -66 43 -92q29 -20 111 -25v-27q-52 -36 -138 -38q-86 -1 -122 34t-41 82h-10q-37 -51 -116 -85t-163 -34
q-141 0 -222 68t-81 188t93 196q65 52 182 81l313 74v219q0 112 -27 147q-28 35 -68 50q-40 16 -113 16t-99 -18t-30 -52q-5 -34 -8 -54q-11 -74 -85 -75zM631 1231q-43 0 -71 30q-28 29 -28 69t28 69t71 29t71 -30q28 -28 27 -68q1 -40 -27 -70t-71 -29zM279 1231
q-43 0 -71 30q-28 29 -28 69t28 69t71 29t71 -30q28 -28 27 -68q1 -40 -27 -70t-71 -29z" />
    <glyph glyph-name="aring" unicode="&#xe5;" horiz-adv-x="956" 
d="M207 264q1 -100 53 -152t143 -53q91 0 149 34t83 77v330l-152 -17q-276 -30 -276 -219zM205 813q-96 1 -96 99q0 38 37 70q103 87 296 87t269 -68t75 -192v-651q0 -66 43 -92q29 -20 111 -25v-27q-52 -36 -138 -38q-86 -1 -122 34t-41 82h-10q-37 -51 -116 -85t-163 -34
q-141 0 -222 68t-81 188t93 196q65 52 182 81l313 74v219q0 112 -27 147q-28 35 -68 50q-40 16 -113 16t-99 -18t-30 -52q-5 -34 -8 -54q-11 -74 -85 -75zM455 1231q51 0 83 35t32 89t-32 87t-83 33t-82 -33t-31 -87t31 -89t82 -35zM452 1184q-79 0 -125 49t-46 121t50 120
t127 48t125 -49t48 -121t-50 -120t-129 -48z" />
    <glyph glyph-name="ae" unicode="&#xe6;" horiz-adv-x="1525" 
d="M1069 1010q-123 0 -197.5 -101.5t-83.5 -310.5l488 23q0 195 -42 292t-165 97zM207 264q0 -104 53 -154.5t138 -50.5t151.5 38t136.5 118q-55 125 -55 311l-142 -14q-133 -14 -207.5 -79t-74.5 -169zM199 813q-95 0 -95 98q0 39 70.5 98.5t278.5 59.5q256 0 305 -151
q117 152 314 152t292.5 -122t95.5 -401h-672q2 -244 94.5 -356.5t237.5 -112.5t220 38t104 50v-57q-18 -12 -51 -35t-116 -61t-200 -38q-258 0 -366 191h-9q-87 -98 -158 -145.5t-203 -47.5t-213 70t-81 194t93 200.5t225 105.5l266 55v201q0 112 -38 162.5t-169 50.5
q-74 0 -99.5 -18t-31.5 -52t-8 -55t-17.5 -47.5t-68.5 -26.5z" />
    <glyph glyph-name="ccedilla" unicode="&#xe7;" horiz-adv-x="925" 
d="M434 -106q160 -14 160 -132q0 -143 -301 -172v31q182 43 182 123q0 31 -29.5 51.5t-83.5 24.5l-10 14l72 152q-174 31 -268.5 170.5t-94.5 322.5q0 314 169.5 451t367.5 137q154 0 218.5 -47t64.5 -117q0 -41 -26 -68.5t-74 -27.5t-66.5 22.5t-25.5 61.5q-14 76 -38 94.5
t-89 18.5q-139 0 -235 -113t-96 -340q0 -228 78 -351.5t250 -123.5t320 86v-60q-78 -78 -178.5 -102.5t-168.5 -24.5l-49 2z" />
    <glyph glyph-name="egrave" unicode="&#xe8;" horiz-adv-x="993" 
d="M534 1008q-126 0 -210 -98t-95 -296l529 25q0 193 -49 281t-175 88zM913 109q-151 -134 -377 -134t-351 152q-124 152 -124 395t138 394t342 151q287 0 364 -271q27 -95 25 -231h-703v-6q-1 -249 99 -365t262 -116q116 0 188 25q71 25 137 63v-57zM344 1300
q-65 25 -68 86q0 31 20 54q43 49 120 -2l319 -234l-14 -28z" />
    <glyph glyph-name="eacute" unicode="&#xe9;" horiz-adv-x="993" 
d="M534 1008q-126 0 -210 -98t-95 -296l529 25q0 193 -49 281t-175 88zM913 109q-151 -134 -377 -134t-351 152q-124 152 -124 395t138 394t342 151q287 0 364 -271q27 -95 25 -231h-703v-6q-1 -249 99 -365t262 -116q116 0 188 25q71 25 137 63v-57zM740 1462q32 0 53 -22
q20 -23 20 -50q0 -64 -68 -90l-376 -124l-15 28l320 234q34 24 66 24z" />
    <glyph glyph-name="ecircumflex" unicode="&#xea;" horiz-adv-x="993" 
d="M534 1008q-126 0 -210 -98t-95 -296l529 25q0 193 -49 281t-175 88zM913 109q-151 -134 -377 -134t-351 152q-124 152 -124 395t138 394t342 151q287 0 364 -271q27 -95 25 -231h-703v-6q-1 -249 99 -365t262 -116q116 0 188 25q71 25 137 63v-57zM279 1200l229 264h59
l232 -264l-17 -22l-247 145l-240 -145z" />
    <glyph glyph-name="edieresis" unicode="&#xeb;" horiz-adv-x="993" 
d="M534 1008q-126 0 -210 -98t-95 -296l529 25q0 193 -49 281t-175 88zM913 109q-151 -134 -377 -134t-351 152q-124 152 -124 395t138 394t342 151q287 0 364 -271q27 -95 25 -231h-703v-6q-1 -249 99 -365t262 -116q116 0 188 25q71 25 137 63v-57zM715 1231q-43 0 -71 30
q-28 29 -28 69t28 69t71 29t71 -30q28 -28 27 -68q1 -40 -27 -70t-71 -29zM362 1231q-42 0 -70 30q-28 29 -28 69t28 69t70 29t71 -30q28 -28 28 -68t-28 -70t-71 -29z" />
    <glyph glyph-name="igrave" unicode="&#xec;" 
d="M334 840v-680q0 -60 12 -78t55 -31l68 -18v-33h-422v33l68 18q45 11 56 31t11 78v696q0 53 -11 67q-11 15 -27 23t-40 21l-55 26v29l281 41l12 -6q-8 -100 -8 -217zM-2 1390q0 26 20 50q43 49 119 -2l320 -234l-15 -28l-376 124q-68 26 -68 90z" />
    <glyph glyph-name="iacute" unicode="&#xed;" 
d="M334 840v-680q0 -60 12 -78t55 -31l68 -18v-33h-422v33l68 18q45 11 56 31t11 78v696q0 53 -11 67q-11 15 -27 23t-40 21l-55 26v29l281 41l12 -6q-8 -100 -8 -217zM462 1462q32 0 52 -22q40 -45 7 -100q-13 -24 -54 -40l-377 -124l-14 28l319 234q35 24 67 24z" />
    <glyph glyph-name="icircumflex" unicode="&#xee;" 
d="M334 840v-680q0 -60 12 -78t55 -31l68 -18v-33h-422v33l68 18q45 11 56 31t11 78v696q0 53 -11 67q-11 15 -27 23t-40 21l-55 26v29l281 41l12 -6q-8 -100 -8 -217zM0 1200l229 264h60l231 -264l-16 -22l-248 145l-240 -145z" />
    <glyph glyph-name="idieresis" unicode="&#xef;" 
d="M334 840v-680q0 -60 12 -78t55 -31l68 -18v-33h-422v33l68 18q45 11 56 31t11 78v696q0 53 -11 67q-11 15 -27 23t-40 21l-55 26v29l281 41l12 -6q-8 -100 -8 -217zM436 1231q-42 0 -70 30q-28 29 -28 69t28 69t70 29t71 -30q28 -28 28 -68t-28 -70t-71 -29zM84 1231
q-43 0 -71 30q-27 29 -27 69t27 69q28 29 71 29t71 -30q27 -28 27 -68t-28 -70t-70 -29z" />
    <glyph glyph-name="eth" unicode="&#xf0;" horiz-adv-x="1101" 
d="M559 33q307 -1 307 491t-321 492q-309 0 -309 -467q-1 -516 323 -516zM1036 594q0 -320 -140.5 -470.5t-350.5 -150.5t-347 143t-137 401t144 408t342 150q149 0 246 -92q-18 72 -81 159t-161 171l-252 -113l-20 51l227 101q-125 100 -275 170l15 34q195 -70 346 -165
l254 114l18 -51l-219 -98q391 -280 391 -762z" />
    <glyph glyph-name="ntilde" unicode="&#xf1;" horiz-adv-x="1150" 
d="M700 1067q165 0 223 -68t58 -204v-635q0 -56 11 -76t57 -33l69 -18v-33h-430v33l70 18q45 13 58 31t13 78v600q0 115 -39 159q-40 44 -142 44t-182 -24q-81 -24 -132 -42v-737q0 -58 13 -78t59 -31l71 -18v-33h-430v33l68 18q45 11 56 31t11 78v696q0 53 -11 67
q-11 15 -27 23t-40 21l-55 26v29l273 41l14 -6l-4 -113h6q197 123 362 123zM421 1270q-40 0 -64 -25t-46 -65l-35 12q45 103 70 135q46 62 98 63t152 -27q99 -28 150 -28t100 90l33 -14q-43 -98 -70 -132q-49 -63 -94 -64q-59 -1 -157 27q-97 28 -137 28z" />
    <glyph glyph-name="ograve" unicode="&#xf2;" horiz-adv-x="1099" 
d="M559 33q305 1 305 489t-319 488q-309 0 -309 -465q-1 -512 323 -512zM61 516q0 253 144 403t352 150q209 0 345 -138t136 -391q0 -254 -145 -410q-145 -157 -355 -157t-344 145t-133 398zM287 1390q0 26 20 50q43 49 119 -2l319 -234l-14 -28l-377 124q-67 26 -67 90z
" />
    <glyph glyph-name="oacute" unicode="&#xf3;" horiz-adv-x="1099" 
d="M559 33q305 1 305 489t-319 488q-309 0 -309 -465q-1 -512 323 -512zM61 516q0 253 144 403t352 150q209 0 345 -138t136 -391q0 -254 -145 -410q-145 -157 -355 -157t-344 145t-133 398zM751 1462q32 0 52 -22t20 -50q0 -64 -67 -90l-377 -124l-14 28l319 234
q35 24 67 24z" />
    <glyph glyph-name="ocircumflex" unicode="&#xf4;" horiz-adv-x="1099" 
d="M559 33q305 1 305 489t-319 488q-309 0 -309 -465q-1 -512 323 -512zM61 516q0 253 144 403t352 150q209 0 345 -138t136 -391q0 -254 -145 -410q-145 -157 -355 -157t-344 145t-133 398zM289 1200l229 264h60l231 -264l-16 -22l-248 145l-240 -145z" />
    <glyph glyph-name="otilde" unicode="&#xf5;" horiz-adv-x="1099" 
d="M559 33q305 1 305 489t-319 488q-309 0 -309 -465q-1 -512 323 -512zM61 516q0 253 144 403t352 150q209 0 345 -138t136 -391q0 -254 -145 -410q-145 -157 -355 -157t-344 145t-133 398zM392 1270q-40 0 -64 -25t-45 -65l-35 12q45 103 70 135q46 62 98 63t151 -27
t150 -28t100 90l33 -14q-43 -98 -70 -132q-49 -63 -94 -64q-59 -1 -156 27q-98 28 -138 28z" />
    <glyph glyph-name="odieresis" unicode="&#xf6;" horiz-adv-x="1099" 
d="M559 33q305 1 305 489t-319 488q-309 0 -309 -465q-1 -512 323 -512zM61 516q0 253 144 403t352 150q209 0 345 -138t136 -391q0 -254 -145 -410q-145 -157 -355 -157t-344 145t-133 398zM725 1231q-43 0 -71 30q-28 29 -28 69t28 69t71 29t71 -30q28 -28 28 -68t-28 -70
t-71 -29zM373 1231q-43 0 -71 30q-28 29 -28 69t28 69t71 29t71 -30q28 -28 27 -68q1 -40 -27 -70t-71 -29z" />
    <glyph glyph-name="divide" unicode="&#xf7;" horiz-adv-x="894" 
d="M68 735h759v-86h-759v86zM444.5 909q-47.5 0 -81 32t-33.5 80t33.5 80t81 32t81 -32t33.5 -80t-33.5 -80t-81 -32zM444.5 248q-47.5 0 -81 32.5t-33.5 80.5t33.5 80t81 32t81 -31.5t33.5 -79.5t-33.5 -81t-81 -33z" />
    <glyph glyph-name="oslash" unicode="&#xf8;" horiz-adv-x="1099" 
d="M559 33q301 0 301 448q0 283 -65 402l-447 -779q71 -71 211 -71zM752 940q-70 70 -207 70q-303 -1 -305 -443q0 -284 67 -405zM61 520q0 248 144 398.5t344 150.5q137 0 246 -55l79 139h74l-100 -174q190 -142 190 -447q0 -246 -144 -402.5t-364 -156.5q-114 0 -225 58
l-92 -162h-74l113 197q-191 140 -191 454z" />
    <glyph glyph-name="ugrave" unicode="&#xf9;" horiz-adv-x="1132" 
d="M172 242v622q0 56 -14 76t-62 39l-57 22v31l266 31l19 -16v-771q0 -196 182 -196q147 0 313 76v710q0 56 -13 76t-65 39l-57 20v31l266 31l21 -16v-846q0 -61 15 -86t63 -45l57 -27v-27l-275 -36l-12 8l4 121h-8q-192 -134 -377 -134q-122 0 -194 69t-72 198zM305 1390
q0 26 25 55q25 28 78 12q16 -5 36 -19l320 -234l-14 -28l-377 124q-68 26 -68 90z" />
    <glyph glyph-name="uacute" unicode="&#xfa;" horiz-adv-x="1132" 
d="M172 242v622q0 56 -14 76t-62 39l-57 22v31l266 31l19 -16v-771q0 -196 182 -196q147 0 313 76v710q0 56 -13 76t-65 39l-57 20v31l266 31l21 -16v-846q0 -61 15 -86t63 -45l57 -27v-27l-275 -36l-12 8l4 121h-8q-192 -134 -377 -134q-122 0 -194 69t-72 198zM769 1462
q32 0 52 -22q40 -45 7 -100q-13 -24 -54 -40l-377 -124l-14 28l319 234q35 24 67 24z" />
    <glyph glyph-name="ucircumflex" unicode="&#xfb;" horiz-adv-x="1132" 
d="M172 242v622q0 56 -14 76t-62 39l-57 22v31l266 31l19 -16v-771q0 -196 182 -196q147 0 313 76v710q0 56 -13 76t-65 39l-57 20v31l266 31l21 -16v-846q0 -61 15 -86t63 -45l57 -27v-27l-275 -36l-12 8l4 121h-8q-192 -134 -377 -134q-122 0 -194 69t-72 198zM307 1200
l230 264h59l231 -264l-16 -22l-248 145l-239 -145z" />
    <glyph glyph-name="udieresis" unicode="&#xfc;" horiz-adv-x="1132" 
d="M172 242v622q0 56 -14 76t-62 39l-57 22v31l266 31l19 -16v-771q0 -196 182 -196q147 0 313 76v710q0 56 -13 76t-65 39l-57 20v31l266 31l21 -16v-846q0 -61 15 -86t63 -45l57 -27v-27l-275 -36l-12 8l4 121h-8q-192 -134 -377 -134q-122 0 -194 69t-72 198zM743 1231
q-43 0 -71 30q-28 29 -27 69q0 40 28 69q29 29 71 29t70 -30q28 -28 28 -68t-28 -70t-71 -29zM391 1231q-43 0 -71 30q-28 29 -27 69q0 40 28 69q29 29 71 29t70 -30q28 -28 28 -68t-28 -70t-71 -29z" />
    <glyph glyph-name="yacute" unicode="&#xfd;" horiz-adv-x="978" 
d="M160 -420q-82 0 -116 35t-34 81t28 70t73 24t63 -21t30 -49t17 -34q6 -6 21 -8q78 0 155 185l58 139l-318 854q-29 76 -46 96q-17 21 -54 33l-53 16v33h399v-33l-53 -14q-75 -23 -51 -92q14 -41 24 -70l229 -618h9l217 616q42 123 8 147q-14 9 -43 17l-53 14v33h325v-33
l-61 -16q-35 -8 -47 -31q-25 -49 -49 -118l-336 -906q-24 -66 -50 -128t-64 -111t-92 -80t-136 -31zM744 1462q32 0 53 -22q20 -23 20 -50q0 -64 -67 -90l-377 -124l-15 28l320 234q34 24 66 24z" />
    <glyph glyph-name="thorn" unicode="&#xfe;" horiz-adv-x="1148" 
d="M556 39q179 0 269 120t90 392q0 199 -89 308.5t-251 109.5q-86 0 -147 -24.5t-102 -47.5v-780q47 -39 96 -58.5t134 -19.5zM326 -252q0 -57 14 -75.5t63 -28.5l91 -19v-33h-457v33l69 19q45 12 56.5 31.5t11.5 72.5v1593q0 54 -13 70.5t-63 40.5l-69 33v33l293 28l12 -12
q-8 -140 -8 -244v-176l-2 -113q-2 -27 -2 -51h6q157 117 327 117q290 0 356 -177.5t66 -321.5q0 -281 -152.5 -437t-416.5 -156q-91 0 -184 29v-41l2 -92v-123z" />
    <glyph glyph-name="ydieresis" unicode="&#xff;" horiz-adv-x="978" 
d="M160 -420q-82 0 -116 35t-34 81t28 70t73 24t63 -21t30 -49t17 -34q6 -6 21 -8q78 0 155 185l58 139l-318 854q-29 76 -46 96q-17 21 -54 33l-53 16v33h399v-33l-53 -14q-75 -23 -51 -92q14 -41 24 -70l229 -618h9l217 616q42 123 8 147q-14 9 -43 17l-53 14v33h325v-33
l-61 -16q-35 -8 -47 -31q-25 -49 -49 -118l-336 -906q-24 -66 -50 -128t-64 -111t-92 -80t-136 -31zM719 1231q-43 0 -71 30q-28 29 -28 69t28 69t71 29t71 -30q28 -28 28 -68t-28 -70t-71 -29zM367 1231q-43 0 -71 30q-28 29 -28 69t28 69t71 29t71 -30q28 -28 27 -68
q1 -40 -27 -70t-71 -29z" />
    <glyph glyph-name="Amacron" unicode="&#x100;" horiz-adv-x="1280" 
d="M387 582h424l-205 610h-10zM1286 0h-455v35l46 12q67 15 75.5 50t-26.5 145l-95 276h-466l-95 -276q-33 -101 -22.5 -131.5t29 -41t49.5 -18.5l59 -16v-35h-391l2 35l63 20q40 13 65 51t62 150l426 1163h82l408 -1192q47 -140 79.5 -157t55.5 -23l49 -12v-35zM395 1636
h512v-90h-512v90z" />
    <glyph glyph-name="amacron" unicode="&#x101;" horiz-adv-x="956" 
d="M207 264q1 -100 53 -152t143 -53q91 0 149 34t83 77v330l-152 -17q-276 -30 -276 -219zM205 813q-96 1 -96 99q0 38 37 70q103 87 296 87t269 -68t75 -192v-651q0 -66 43 -92q29 -20 111 -25v-27q-52 -36 -138 -38q-86 -1 -122 34t-41 82h-10q-37 -51 -116 -85t-163 -34
q-141 0 -222 68t-81 188t93 196q65 52 182 81l313 74v219q0 112 -27 147q-28 35 -68 50q-40 16 -113 16t-99 -18t-30 -52q-5 -34 -8 -54q-11 -74 -85 -75zM227 1319h455v-90h-455v90z" />
    <glyph glyph-name="Abreve" unicode="&#x102;" horiz-adv-x="1280" 
d="M387 582h424l-205 610h-10zM1286 0h-455v35l46 12q67 15 75.5 50t-26.5 145l-95 276h-466l-95 -276q-33 -101 -22.5 -131.5t29 -41t49.5 -18.5l59 -16v-35h-391l2 35l63 20q40 13 65 51t62 150l426 1163h82l408 -1192q47 -140 79.5 -157t55.5 -23l49 -12v-35zM484.5 1571
q-64.5 74 -68.5 162l22 6q18 -53 72.5 -94t144.5 -41t141.5 42t69.5 93l23 -6q-4 -89 -66 -162.5t-168 -73.5t-170.5 74z" />
    <glyph glyph-name="abreve" unicode="&#x103;" horiz-adv-x="956" 
d="M207 264q1 -100 53 -152t143 -53q91 0 149 34t83 77v330l-152 -17q-276 -30 -276 -219zM205 813q-96 1 -96 99q0 38 37 70q103 87 296 87t269 -68t75 -192v-651q0 -66 43 -92q29 -20 111 -25v-27q-52 -36 -138 -38q-86 -1 -122 34t-41 82h-10q-37 -51 -116 -85t-163 -34
q-141 0 -222 68t-81 188t93 196q65 52 182 81l313 74v219q0 112 -27 147q-28 35 -68 50q-40 16 -113 16t-99 -18t-30 -52q-5 -34 -8 -54q-11 -74 -85 -75zM459 1286q78 0 125 42t65 93l23 -6q0 -84 -60 -160q-60 -75 -153 -75q-92 0 -156 75q-63 75 -63 160l22 6
q18 -53 68 -94t129 -41z" />
    <glyph glyph-name="Aogonek" unicode="&#x104;" horiz-adv-x="1280" 
d="M387 582h424l-205 610h-10zM735 -276q0 160 262 305l-166 489h-466l-95 -276q-33 -101 -22.5 -131.5t29 -41t49.5 -18.5l59 -16v-35h-391l2 35l63 20q40 13 65 51t62 150l426 1163h82l408 -1192q47 -140 79.5 -157t55.5 -23l49 -12v-35h-184q-125 0 -183.5 -77
t-58.5 -142q0 -66 31 -94.5t81 -28.5t95 23v-33q-57 -58 -139 -58t-137.5 39t-55.5 95z" />
    <glyph glyph-name="aogonek" unicode="&#x105;" horiz-adv-x="956" 
d="M403 59q91 0 149 34t83 77v330l-152 -17q-276 -31 -276 -219q0 -100 52.5 -152.5t143.5 -52.5zM203 813q-94 0 -94 98q0 39 69.5 98.5t263.5 59.5q193 0 268.5 -67.5t75.5 -192.5v-651q0 -63 36 -88q36 -24 118 -29v-27q-88 -43 -147.5 -107.5t-59.5 -144.5
q0 -47 31 -75.5t81 -28.5t95 23v-33q-58 -58 -140 -58t-137 39t-55 105t60.5 136t134.5 112q-150 0 -164 110h-10q-37 -51 -116 -85t-163 -34q-141 0 -222 68t-81 189q0 212 275 276l313 74v219q0 112 -38 162.5t-169 50.5q-74 0 -99.5 -18t-30.5 -52t-11.5 -81.5
t-83.5 -47.5z" />
    <glyph glyph-name="Cacute" unicode="&#x106;" horiz-adv-x="1226" 
d="M683 -25q-435 0 -523 263.5t-88 465.5q0 383 194 561.5t482 178.5q194 0 366 -53l25 -383h-41q-56 160 -87 210q-32 50 -76 104t-204 54q-237 0 -363 -151t-126 -488q0 -533 166 -613.5t256 -80.5q146 0 245.5 52.5t136.5 159.5t60 179h39l-25 -377q-184 -82 -437 -82z
M902 1753q30 0 50.5 -23.5t20.5 -53.5q0 -61 -66 -81l-397 -102l-12 29l342 211q32 20 62 20z" />
    <glyph glyph-name="cacute" unicode="&#x107;" horiz-adv-x="925" 
d="M560 76q173 0 319 86v-60q-76 -76 -224 -113q-55 -14 -147 -14t-180 39q-266 118 -267 508q-1 140 55 250q106 210 311 268q93 27 171 27q154 0 218 -47t65 -117q0 -41 -26 -69t-74 -27t-66 23t-29 80t-34 75q-22 17 -89 18q-139 2 -235 -111q-97 -113 -97 -341
q0 -227 78 -351t251 -124zM734 1462q32 0 52 -22q39 -44 8 -100q-13 -24 -55 -40l-377 -124l-14 28l320 234q34 24 66 24z" />
    <glyph glyph-name="Ccircumflex" unicode="&#x108;" horiz-adv-x="1226" 
d="M683 -25q-435 0 -523 263.5t-88 465.5q0 383 194 561.5t482 178.5q194 0 366 -53l25 -383h-41q-56 160 -87 210q-32 50 -76 104t-204 54q-237 0 -363 -151t-126 -488q0 -533 166 -613.5t256 -80.5q146 0 245.5 52.5t136.5 159.5t60 179h39l-25 -377q-184 -82 -437 -82z
M418 1511l246 242h59l248 -242l-13 -24l-268 125l-260 -125z" />
    <glyph glyph-name="ccircumflex" unicode="&#x109;" horiz-adv-x="925" 
d="M560 76q173 0 319 86v-60q-76 -76 -224 -113q-55 -14 -147 -14t-180 39q-266 118 -267 508q-1 140 55 250q106 210 311 268q93 27 171 27q154 0 218 -47t65 -117q0 -41 -26 -69t-74 -27t-66 23t-29 80t-34 75q-22 17 -89 18q-139 2 -235 -111q-97 -113 -97 -341
q0 -227 78 -351t251 -124zM272 1200l230 264h59l232 -264l-17 -22l-248 145l-239 -145z" />
    <glyph glyph-name="Cdotaccent" unicode="&#x10a;" horiz-adv-x="1226" 
d="M683 -25q-435 0 -523 263.5t-88 465.5q0 383 194 561.5t482 178.5q194 0 366 -53l25 -383h-41q-56 160 -87 210q-32 50 -76 104t-204 54q-237 0 -363 -151t-126 -488q0 -533 166 -613.5t256 -80.5q146 0 245.5 52.5t136.5 159.5t60 179h39l-25 -377q-184 -82 -437 -82z
M695 1513q-42 0 -72.5 33t-30.5 73t30.5 71.5t72.5 31.5t73 -31.5t31 -71.5t-31 -73t-73 -33z" />
    <glyph glyph-name="cdotaccent" unicode="&#x10b;" horiz-adv-x="925" 
d="M560 76q173 0 319 86v-60q-76 -76 -224 -113q-55 -14 -147 -14t-180 39q-266 118 -267 508q-1 140 55 250q106 210 311 268q93 27 171 27q154 0 218 -47t65 -117q0 -41 -26 -69t-74 -27t-66 23t-29 80t-34 75q-22 17 -89 18q-139 2 -235 -111q-97 -113 -97 -341
q0 -227 78 -351t251 -124zM536 1446q42 0 72 -32t31 -72q-1 -40 -31 -72t-72 -33q-42 0 -73 33q-31 32 -31 72t31 72t73 32z" />
    <glyph glyph-name="Ccaron" unicode="&#x10c;" horiz-adv-x="1226" 
d="M683 -25q-435 0 -523 263.5t-88 465.5q0 383 194 561.5t482 178.5q194 0 366 -53l25 -383h-41q-56 160 -87 210q-32 50 -76 104t-204 54q-237 0 -363 -151t-126 -488q0 -533 166 -613.5t256 -80.5q146 0 245.5 52.5t136.5 159.5t60 179h39l-25 -377q-184 -82 -437 -82z
M971 1737l-246 -242h-59l-248 242l12 24l268 -125l260 125z" />
    <glyph glyph-name="ccaron" unicode="&#x10d;" horiz-adv-x="925" 
d="M560 76q173 0 319 86v-60q-76 -76 -224 -113q-55 -14 -147 -14t-180 39q-266 118 -267 508q-1 140 55 250q106 210 311 268q93 27 171 27q154 0 218 -47t65 -117q0 -41 -26 -69t-74 -27t-66 23t-29 80t-34 75q-22 17 -89 18q-139 2 -235 -111q-97 -113 -97 -341
q0 -227 78 -351t251 -124zM272 1444l17 20l248 -147l239 147l17 -20l-230 -266h-59z" />
    <glyph glyph-name="Dcaron" unicode="&#x10e;" horiz-adv-x="1349" 
d="M373 246q0 -57 6 -93t36.5 -64t181.5 -28q523 0 523 623q0 340 -123.5 508t-413.5 168q-150 0 -210 -19v-1095zM213 166v1087q0 69 -16 88t-62 27l-80 16v35h559q476 0 574 -249.5t98 -441.5q0 -363 -187.5 -545.5t-498.5 -182.5h-545v35l80 16q43 7 60.5 27.5t17.5 87.5
zM918 1737l-246 -242h-60l-247 242l12 24l268 -125l260 125z" />
    <glyph glyph-name="dcaron" unicode="&#x10f;" horiz-adv-x="1144" 
d="M233 518q0 -228 90 -336t234 -108t266 73v768q-98 88 -200 87q-101 -2 -171 -28q-220 -84 -219 -456zM975 1406v-1228q0 -53 12 -68q12 -16 66 -42l61 -29v-27l-278 -37l-13 11l4 106h-8q-61 -47 -149 -82t-175 -35q-288 0 -386 266q-37 99 -37 245t47 255
q93 215 304 290q99 36 214 36t186 -27v306q0 52 -10 67t-47 33l-86 39v33l289 28l12 -12q-6 -74 -6 -128zM1077 1176l15 280q6 90 74 90q86 -1 83 -71q0 -31 -22 -70l-121 -236z" />
    <glyph glyph-name="Dcroat" unicode="&#x110;" horiz-adv-x="1349" 
d="M373 750h405v-60h-405v-444q0 -57 6 -93t36.5 -64t181.5 -28q523 0 523 623q0 340 -123.5 508t-413.5 168q-150 0 -210 -19v-591zM55 750h158v503q0 69 -16 88t-62 27l-80 16v35h559q476 0 574 -249.5t98 -441.5q0 -363 -187.5 -545.5t-498.5 -182.5h-545v35l80 16
q43 7 60.5 27.5t17.5 87.5v524h-158v60z" />
    <glyph glyph-name="dcroat" unicode="&#x111;" horiz-adv-x="1144" 
d="M624 1001q-196 0 -293.5 -113.5t-97.5 -356.5q0 -242 90 -349.5t234 -107.5t266 73v768q-97 86 -199 86zM638 1067q116 0 185 -27v211h-346v60h346v35q0 52 -9.5 66.5t-47.5 33.5l-86 39v33l289 28l12 -12q-6 -75 -6 -86v-137h139v-60h-139v-1073q0 -53 11.5 -68.5
t66.5 -41.5l61 -29v-27l-278 -37l-13 11l4 106h-8q-61 -47 -149 -82t-174 -35q-183 0 -303.5 119t-120.5 395q0 275 165 426.5t401 151.5z" />
    <glyph glyph-name="Emacron" unicode="&#x112;" horiz-adv-x="1159" 
d="M577 1362q-136 0 -204 -19v-575h112q130 0 185 12t75 56t43 155h43v-506h-43q-28 150 -60 182t-102.5 36t-140.5 4h-112v-451q0 -74 5 -114t32.5 -58t86 -22.5t147.5 -4.5q158 0 216.5 16.5t102 104t90.5 228.5h47l-31 -406h-1014v35l80 16q43 7 60.5 27.5t17.5 87.5
v1087q0 69 -16 88t-62 27l-80 16v35h973l27 -342h-43q-71 165 -90 195q-18 29 -36 47t-47.5 27.5t-77.5 12.5t-184 3zM358 1636h512v-90h-512v90z" />
    <glyph glyph-name="emacron" unicode="&#x113;" horiz-adv-x="993" 
d="M534 1008q-126 0 -210 -98t-95 -296l529 25q0 193 -49 281t-175 88zM913 109q-151 -134 -377 -134t-351 152q-124 152 -124 395t138 394t342 151q287 0 364 -271q27 -95 25 -231h-703v-6q-1 -249 99 -365t262 -116q116 0 188 25q71 25 137 63v-57zM311 1319h455v-90h-455
v90z" />
    <glyph glyph-name="Ebreve" unicode="&#x114;" horiz-adv-x="1159" 
d="M577 1362q-136 0 -204 -19v-575h112q130 0 185 12t75 56t43 155h43v-506h-43q-28 150 -60 182t-102.5 36t-140.5 4h-112v-451q0 -74 5 -114t32.5 -58t86 -22.5t147.5 -4.5q158 0 216.5 16.5t102 104t90.5 228.5h47l-31 -406h-1014v35l80 16q43 7 60.5 27.5t17.5 87.5
v1087q0 69 -16 88t-62 27l-80 16v35h973l27 -342h-43q-71 165 -90 195q-18 29 -36 47t-47.5 27.5t-77.5 12.5t-184 3zM447.5 1571q-64.5 74 -68.5 162l22 6q18 -53 72.5 -94t145 -41t141.5 42t69 93l23 -6q-4 -89 -66 -162.5t-168 -73.5t-170.5 74z" />
    <glyph glyph-name="ebreve" unicode="&#x115;" horiz-adv-x="993" 
d="M534 1008q-126 0 -210 -98t-95 -296l529 25q0 193 -49 281t-175 88zM913 109q-151 -134 -377 -134t-351 152q-124 152 -124 395t138 394t342 151q287 0 364 -271q27 -95 25 -231h-703v-6q-1 -249 99 -365t262 -116q116 0 188 25q71 25 137 63v-57zM543 1286q78 0 125 42
t65 93l23 -6q0 -84 -60 -160q-60 -75 -153 -75q-92 0 -156 75q-63 75 -63 160l22 6q18 -53 68 -94t129 -41z" />
    <glyph glyph-name="Edotaccent" unicode="&#x116;" horiz-adv-x="1159" 
d="M577 1362q-136 0 -204 -19v-575h112q130 0 185 12t75 56t43 155h43v-506h-43q-28 150 -60 182t-102.5 36t-140.5 4h-112v-451q0 -74 5 -114t32.5 -58t86 -22.5t147.5 -4.5q158 0 216.5 16.5t102 104t90.5 228.5h47l-31 -406h-1014v35l80 16q43 7 60.5 27.5t17.5 87.5
v1087q0 69 -16 88t-62 27l-80 16v35h973l27 -342h-43q-71 165 -90 195q-18 29 -36 47t-47.5 27.5t-77.5 12.5t-184 3zM615 1513q-42 0 -72.5 33t-30.5 73t30.5 71.5t72.5 31.5t73 -31.5t31 -71.5t-31 -73t-73 -33z" />
    <glyph glyph-name="edotaccent" unicode="&#x117;" horiz-adv-x="993" 
d="M534 1008q-126 0 -210 -98t-95 -296l529 25q0 193 -49 281t-175 88zM913 109q-151 -134 -377 -134t-351 152q-124 152 -124 395t138 394t342 151q287 0 364 -271q27 -95 25 -231h-703v-6q-1 -249 99 -365t262 -116q116 0 188 25q71 25 137 63v-57zM542 1446q42 0 72 -32
t31 -72q-1 -40 -31 -72t-72 -33q-42 0 -73 33q-31 32 -31 72t31 72t73 32z" />
    <glyph glyph-name="Eogonek" unicode="&#x118;" horiz-adv-x="1159" 
d="M666 -266q0 128 200 266h-811v35l80 16q43 7 60.5 27.5t17.5 87.5v1087q0 69 -16 88t-62 27l-80 16v35h973l27 -342h-43q-71 165 -90 195q-38 60 -85 75t-222 15t-242 -19v-575h112q130 0 185 12t75 56t43 155h43v-506h-43q-28 150 -60 182t-102.5 36t-140.5 4h-112v-451
q0 -74 5 -114t32.5 -58t86 -22.5t147.5 -4.5q158 0 216.5 16.5t102 104t90.5 228.5h47l-31 -406h-151q-49 -59 -88 -114.5t-39 -113.5t30.5 -86t80.5 -28t95 23v-33q-57 -58 -139 -58t-137 39t-55 105z" />
    <glyph glyph-name="eogonek" unicode="&#x119;" horiz-adv-x="993" 
d="M534 1008q-126 0 -210 -97.5t-95 -296.5l529 25q0 193 -49 281t-175 88zM626 -410q-82 0 -137 39t-55 105q0 121 211 248q-40 -7 -131 -7q-90 0 -181 41t-181.5 151.5t-90.5 354.5q0 243 138 394t342 151q396 0 389 -502h-703v-6q0 -250 99.5 -365.5t261.5 -115.5
q116 0 181 22.5t144 65.5v-57q-39 -35 -99 -70t-116.5 -75t-97.5 -89t-41 -105t31 -84t81 -28t95 23v-33q-58 -58 -140 -58z" />
    <glyph glyph-name="Ecaron" unicode="&#x11a;" horiz-adv-x="1159" 
d="M577 1362q-136 0 -204 -19v-575h112q130 0 185 12t75 56t43 155h43v-506h-43q-28 150 -60 182t-102.5 36t-140.5 4h-112v-451q0 -74 5 -114t32.5 -58t86 -22.5t147.5 -4.5q158 0 216.5 16.5t102 104t90.5 228.5h47l-31 -406h-1014v35l80 16q43 7 60.5 27.5t17.5 87.5
v1087q0 69 -16 88t-62 27l-80 16v35h973l27 -342h-43q-71 165 -90 195q-18 29 -36 47t-47.5 27.5t-77.5 12.5t-184 3zM891 1737l-246 -242h-59l-248 242l12 24l268 -125l261 125z" />
    <glyph glyph-name="ecaron" unicode="&#x11b;" horiz-adv-x="993" 
d="M534 1008q-126 0 -210 -98t-95 -296l529 25q0 193 -49 281t-175 88zM913 109q-151 -134 -377 -134t-351 152q-124 152 -124 395t138 394t342 151q287 0 364 -271q27 -95 25 -231h-703v-6q-1 -249 99 -365t262 -116q116 0 188 25q71 25 137 63v-57zM279 1444l16 20
l248 -147l239 147l17 -20l-230 -266h-59z" />
    <glyph glyph-name="Gcircumflex" unicode="&#x11c;" horiz-adv-x="1339" 
d="M737 43q158 0 283 61v302q0 70 -14 88.5t-62 25.5l-88 17v34h461v-34l-76 -19q-41 -10 -51 -24.5t-10 -69.5v-377q-66 -18 -177.5 -45t-264.5 -27q-316 0 -491 180t-175 539q0 403 200 576.5t500 173.5q119 0 207 -16.5t170 -36.5l25 -379h-44q-46 162 -99 237
t-105.5 101t-175.5 26q-253 0 -382.5 -146.5t-129.5 -484.5q0 -337 117.5 -519.5t381.5 -182.5zM446 1511l246 242h60l247 -242l-12 -24l-268 125l-260 -125z" />
    <glyph glyph-name="gcircumflex" unicode="&#x11d;" horiz-adv-x="962" 
d="M438 432q215 0 215 266q0 314 -215 314q-102 0 -158 -68t-57 -209q0 -303 215 -303zM430 -342q256 0 351 134q34 48 34 123t-47 114t-156 39h-317q-106 -23 -144 -114q-15 -34 -16 -79q0 -113 75 -165t220 -52zM334 209h309q141 1 213 -63t72 -187t-107 -227
q-138 -133 -427 -133q-290 0 -390 148q-31 45 -31 113q-1 68 63 122t167 90v6q-117 45 -117 148q0 104 137 202v8q-61 29 -112 103t-51 168q-1 172 116 267t262 93q109 0 205 -51q108 92 221 92q49 0 76 -24t27 -62q0 -80 -76 -80q-53 0 -71 43t-59 40q-40 -3 -77 -26v-6
q133 -79 133 -259t-124 -274q-104 -81 -255 -81q-95 0 -162 31q-75 -48 -73 -113q0 -47 30 -68q31 -20 101 -20zM215 1200l229 264h60l231 -264l-16 -22l-248 145l-240 -145z" />
    <glyph glyph-name="Gbreve" unicode="&#x11e;" horiz-adv-x="1339" 
d="M737 43q158 0 283 61v302q0 70 -14 88.5t-62 25.5l-88 17v34h461v-34l-76 -19q-41 -10 -51 -24.5t-10 -69.5v-377q-66 -18 -177.5 -45t-264.5 -27q-316 0 -491 180t-175 539q0 403 200 576.5t500 173.5q119 0 207 -16.5t170 -36.5l25 -379h-44q-46 162 -99 237
t-105.5 101t-175.5 26q-253 0 -382.5 -146.5t-129.5 -484.5q0 -337 117.5 -519.5t381.5 -182.5zM556.5 1571q-65.5 74 -69.5 162l23 6q18 -53 72.5 -94t144.5 -41t141.5 42t69.5 93l23 -6q-4 -90 -67 -163t-167 -73q-105 0 -170.5 74z" />
    <glyph glyph-name="gbreve" unicode="&#x11f;" horiz-adv-x="962" 
d="M438 432q215 0 215 266q0 314 -215 314q-102 0 -158 -68t-57 -209q0 -303 215 -303zM430 -342q256 0 351 134q34 48 34 123t-47 114t-156 39h-317q-106 -23 -144 -114q-15 -34 -16 -79q0 -113 75 -165t220 -52zM334 209h309q141 1 213 -63t72 -187t-107 -227
q-138 -133 -427 -133q-290 0 -390 148q-31 45 -31 113q-1 68 63 122t167 90v6q-117 45 -117 148q0 104 137 202v8q-61 29 -112 103t-51 168q-1 172 116 267t262 93q109 0 205 -51q108 92 221 92q49 0 76 -24t27 -62q0 -80 -76 -80q-53 0 -71 43t-59 40q-40 -3 -77 -26v-6
q133 -79 133 -259t-124 -274q-104 -81 -255 -81q-95 0 -162 31q-75 -48 -73 -113q0 -47 30 -68q31 -20 101 -20zM479 1286q78 0 125 42t66 93l22 -6q0 -86 -60 -160q-60 -75 -153 -75t-156 76t-63 159l23 6q18 -53 68 -94t128 -41z" />
    <glyph glyph-name="Gdotaccent" unicode="&#x120;" horiz-adv-x="1339" 
d="M737 43q158 0 283 61v302q0 70 -14 88.5t-62 25.5l-88 17v34h461v-34l-76 -19q-41 -10 -51 -24.5t-10 -69.5v-377q-66 -18 -177.5 -45t-264.5 -27q-316 0 -491 180t-175 539q0 403 200 576.5t500 173.5q119 0 207 -16.5t170 -36.5l25 -379h-44q-46 162 -99 237
t-105.5 101t-175.5 26q-253 0 -382.5 -146.5t-129.5 -484.5q0 -337 117.5 -519.5t381.5 -182.5zM724 1513q-42 0 -72.5 33t-30.5 73t30.5 71.5t72.5 31.5t72.5 -31.5t30.5 -71.5t-30.5 -73t-72.5 -33z" />
    <glyph glyph-name="gdotaccent" unicode="&#x121;" horiz-adv-x="962" 
d="M438 432q215 0 215 266q0 314 -215 314q-102 0 -158 -68t-57 -209q0 -303 215 -303zM430 -342q256 0 351 134q34 48 34 123t-47 114t-156 39h-317q-106 -23 -144 -114q-15 -34 -16 -79q0 -113 75 -165t220 -52zM334 209h309q141 1 213 -63t72 -187t-107 -227
q-138 -133 -427 -133q-290 0 -390 148q-31 45 -31 113q-1 68 63 122t167 90v6q-117 45 -117 148q0 104 137 202v8q-61 29 -112 103t-51 168q-1 172 116 267t262 93q109 0 205 -51q108 92 221 92q49 0 76 -24t27 -62q0 -80 -76 -80q-53 0 -71 43t-59 40q-40 -3 -77 -26v-6
q133 -79 133 -259t-124 -274q-104 -81 -255 -81q-95 0 -162 31q-75 -48 -73 -113q0 -47 30 -68q31 -20 101 -20zM580 1342q0 -40 -31 -72t-73 -33q-42 0 -73 33q-31 32 -31 72t31 72t73 32t73 -32t31 -72z" />
    <glyph glyph-name="Gcommaaccent" unicode="&#x122;" horiz-adv-x="1339" 
d="M737 43q164 0 283 61v302q0 69 -13 88t-63 26l-88 17v34h461v-34l-76 -19q-41 -10 -51 -24t-10 -70v-377q-66 -18 -178 -45t-264 -27q-483 0 -620 400q-46 135 -46 337t60 346q160 386 640 386q119 0 207 -16t170 -37l25 -379h-44q-54 191 -146 296q-44 48 -107 58
q-65 10 -157 10t-186 -33q-299 -105 -297 -598q1 -337 118 -520q118 -182 382 -182zM688 -100q45 0 77 -32t32 -98t-49 -123q-49 -56 -156 -79l-12 29q76 33 104 67t29 82q-21 -14 -51 -14t-51 24t-21 57q0 35 26 61t72 26z" />
    <glyph glyph-name="gcommaaccent" unicode="&#x123;" horiz-adv-x="962" 
d="M438 432q215 0 215 266q0 314 -215 314q-102 0 -158 -68t-57 -209q0 -303 215 -303zM430 -342q256 0 351 134q34 48 34 123t-47 114t-156 39h-317q-106 -23 -144 -114q-15 -34 -16 -79q0 -113 75 -165t220 -52zM334 209h309q141 1 213 -63t72 -187t-107 -227
q-138 -133 -427 -133q-290 0 -390 148q-31 45 -31 113q-1 68 63 122t167 90v6q-117 45 -117 148q0 104 137 202v8q-61 29 -112 103t-51 168q-1 172 116 267t262 93q109 0 205 -51q108 92 221 92q49 0 76 -24t27 -62q0 -80 -76 -80q-53 0 -71 43t-59 40q-40 -3 -77 -26v-6
q133 -79 133 -259t-124 -274q-104 -81 -255 -81q-95 0 -162 31q-75 -48 -73 -113q0 -47 30 -68q31 -20 101 -20zM358 1362q0 66 50 122t155 79l12 -29q-77 -33 -105 -68t-28 -82q22 15 51 15t51 -24q22 -23 22 -57t-28 -61q-26 -27 -71 -27t-77 33t-32 99z" />
    <glyph glyph-name="Hcircumflex" unicode="&#x124;" horiz-adv-x="1417" 
d="M213 166v1087q0 69 -16 88t-62 27l-80 16v35h482v-35l-88 -16q-50 -8 -63 -26.5t-13 -88.5v-497h671v497q0 70 -13 88.5t-64 26.5l-86 16v35h481v-35l-82 -16q-47 -7 -61.5 -27t-14.5 -88v-1087q0 -68 15.5 -88t60.5 -27l82 -16v-35h-481v35l86 14q51 8 64 27.5t13 89.5
v524h-671v-524q0 -70 12 -88.5t64 -26.5l88 -16v-35h-482v35l80 16q43 7 60.5 27.5t17.5 87.5zM432 1511l246 242h59l248 -242l-12 -24l-268 125l-261 -125z" />
    <glyph glyph-name="hcircumflex" unicode="&#x125;" horiz-adv-x="1150" 
d="M330 942h6q126 85 227 105t146 20q156 0 214 -67.5t58 -204.5v-635q0 -57 11.5 -77t56.5 -32l69 -18v-33h-430v33l70 18q45 12 58 30.5t13 78.5v600q0 115 -39.5 159t-141.5 44t-182.5 -24t-131.5 -42v-737q0 -59 13 -79t59 -30l71 -18v-33h-430v33l68 18q45 12 56 31.5
t11 77.5v1181q0 54 -12.5 69.5t-65.5 41.5l-67 33v33l293 28l12 -12q-8 -132 -8 -244v-176l-2 -117q-2 -29 -2 -55zM313 1614l246 241h59l248 -241l-12 -25l-268 125l-260 -125z" />
    <glyph glyph-name="Hbar" unicode="&#x126;" horiz-adv-x="1417" 
d="M1044 756v264h-671v-264h671zM39 1079h174v174q0 69 -16 88t-62 27l-80 16v35h482v-35l-88 -16q-50 -8 -63 -26.5t-13 -88.5v-174h671v174q0 70 -13 88.5t-64 26.5l-86 16v35h481v-35l-82 -16q-47 -7 -61.5 -27t-14.5 -88v-174h174v-59h-174v-854q0 -68 15.5 -88
t60.5 -27l82 -16v-35h-481v35l86 14q51 8 64 27.5t13 89.5v524h-671v-524q0 -70 12 -88.5t64 -26.5l88 -16v-35h-482v35l80 16q43 7 60.5 27.5t17.5 87.5v854h-174v59z" />
    <glyph glyph-name="hbar" unicode="&#x127;" horiz-adv-x="1150" 
d="M330 942h6q126 85 227 105t146 20q156 0 214 -67.5t58 -204.5v-635q0 -57 11.5 -77t56.5 -32l69 -18v-33h-430v33l70 18q45 12 58 30.5t13 78.5v600q0 115 -39.5 159t-141.5 44t-182.5 -24t-131.5 -42v-737q0 -59 13 -79t59 -30l71 -18v-33h-430v33l68 18q45 12 56 31.5
t11 77.5v1091h-159v60h159v30q0 54 -12.5 69.5t-65.5 41.5l-67 33v33l293 28l12 -12q-8 -116 -8 -223h325v-60h-325v-137l-2 -117q-2 -29 -2 -55z" />
    <glyph glyph-name="Itilde" unicode="&#x128;" horiz-adv-x="598" 
d="M219 1253q0 70 -13 89t-63 26l-88 16v35h488v-35l-88 -16q-53 -8 -64.5 -27t-11.5 -88v-1087q0 -70 12 -88.5t64 -26.5l88 -16v-35h-488v35l88 16q49 7 62.5 26t13.5 89v1087zM330.5 1670q111.5 -28 155.5 -28t70 25t48 66l33 -15q-64 -147 -104.5 -171.5t-73.5 -24.5
q-56 0 -161 27.5t-153 27.5q-47 0 -70.5 -24.5t-45.5 -65.5l-35 12q45 102 81 150.5t90 48.5t165.5 -28z" />
    <glyph glyph-name="itilde" unicode="&#x129;" 
d="M334 840v-680q0 -60 12 -78t55 -31l68 -18v-33h-422v33l68 18q45 11 56 31t11 78v696q0 53 -11 67q-11 15 -27 23t-40 21l-55 26v29l281 41l12 -6q-8 -100 -8 -217zM104 1270q-40 0 -64 -25t-46 -65l-35 12q45 103 70 135q46 62 98 63t152 -27q99 -28 149 -28t100 90
l33 -14q-43 -98 -70 -132q-49 -63 -102 -64t-148 27q-96 28 -137 28z" />
    <glyph glyph-name="Imacron" unicode="&#x12a;" horiz-adv-x="598" 
d="M219 1253q0 70 -13 89t-63 26l-88 16v35h488v-35l-88 -16q-53 -8 -64.5 -27t-11.5 -88v-1087q0 -70 12 -88.5t64 -26.5l88 -16v-35h-488v35l88 16q49 7 62.5 26t13.5 89v1087zM43 1636h512v-90h-512v90z" />
    <glyph glyph-name="imacron" unicode="&#x12b;" 
d="M31 1319h407v-90h-407v90zM334 840v-680q0 -59 12 -78t55 -31l68 -18v-33h-422v33l68 18q45 12 56 31.5t11 77.5v696q0 54 -11 68t-26.5 22t-40.5 21l-55 26v29l281 41l12 -6q-8 -100 -8 -217z" />
    <glyph glyph-name="Ibreve" unicode="&#x12c;" horiz-adv-x="598" 
d="M219 1253q0 70 -13 89t-63 26l-88 16v35h488v-35l-88 -16q-53 -8 -64.5 -27t-11.5 -88v-1087q0 -70 12 -88.5t64 -26.5l88 -16v-35h-488v35l88 16q49 7 62.5 26t13.5 89v1087zM134 1569.5q-64 72.5 -71 163.5l23 6q18 -53 72.5 -94t144.5 -41t141.5 42t69.5 93l23 -6
q-4 -90 -67 -163t-167 -73q-105 0 -169 72.5z" />
    <glyph glyph-name="ibreve" unicode="&#x12d;" 
d="M334 840v-680q0 -60 12 -78t55 -31l68 -18v-33h-422v33l68 18q45 11 56 31t11 78v696q0 53 -11 67q-11 15 -27 23t-40 21l-55 26v29l281 41l12 -6q-8 -100 -8 -217zM264 1286q78 0 125 42t66 93l22 -6q0 -86 -60 -160q-60 -75 -152 -75q-93 0 -157 75q-63 75 -63 160
l23 6q18 -53 68 -94t128 -41z" />
    <glyph glyph-name="Iogonek" unicode="&#x12e;" horiz-adv-x="598" 
d="M313 -410q-82 0 -137 40t-55 118q0 110 184 252h-250v35l88 16q49 7 62.5 26t13.5 89v1087q0 70 -13 89t-63 26l-88 16v35h488v-35l-88 -16q-53 -8 -64.5 -27t-11.5 -88v-1087q0 -70 12 -88.5t64 -26.5l88 -16v-35h-189q-108 -126 -108 -229q0 -53 30.5 -83t80.5 -30
t96 23v-33q-58 -58 -140 -58z" />
    <glyph glyph-name="iogonek" unicode="&#x12f;" 
d="M251 1237q-42 0 -73 32.5t-31 72.5t31 72t73 32t72.5 -32t30.5 -72t-30.5 -72.5t-72.5 -32.5zM290 -410q-82 0 -137 40t-55 118q0 115 185 252h-236v33l68 18q45 12 56 31.5t11 77.5v696q0 54 -11 68t-26.5 22t-40.5 21l-55 26v29l281 41l12 -6q-8 -100 -8 -217v-680
q0 -59 12 -78t55 -31l68 -18v-33h-137q-109 -128 -109 -229q0 -53 31 -83t81 -30t95 23v-33q-58 -58 -140 -58z" />
    <glyph glyph-name="Idotaccent" unicode="&#x130;" horiz-adv-x="598" 
d="M219 1253q0 70 -13 89t-63 26l-88 16v35h488v-35l-88 -16q-53 -8 -64.5 -27t-11.5 -88v-1087q0 -70 12 -88.5t64 -26.5l88 -16v-35h-488v35l88 16q49 7 62.5 26t13.5 89v1087zM300 1513q-42 0 -72.5 33t-30.5 73t30.5 71.5t72.5 31.5t72.5 -31.5t30.5 -71.5t-30.5 -73
t-72.5 -33z" />
    <glyph glyph-name="dotlessi" unicode="&#x131;" 
d="M334 840v-680q0 -59 12 -78t55 -31l68 -18v-33h-422v33l68 18q45 12 56 31.5t11 77.5v696q0 54 -11 68t-26.5 22t-40.5 21l-55 26v29l281 41l12 -6q-8 -100 -8 -217z" />
    <glyph glyph-name="IJ" unicode="&#x132;" horiz-adv-x="1187" 
d="M676 -260q141 0 141 328v1185q0 70 -13 89t-63 26l-88 16v35h480v-35l-84 -16q-49 -8 -60.5 -27t-11.5 -88v-1138q0 -307 -136.5 -370.5t-226.5 -63.5t-138 34.5t-48 94.5q0 29 21.5 53t76.5 24t75 -27.5t28 -63.5t16 -46t31 -10zM219 1253q0 70 -13 89t-63 26l-88 16v35
h488v-35l-88 -16q-53 -8 -64.5 -27t-11.5 -88v-1087q0 -70 12 -88.5t64 -26.5l88 -16v-35h-488v35l88 16q49 7 62.5 26t13.5 89v1087z" />
    <glyph glyph-name="ij" unicode="&#x133;" horiz-adv-x="489" 
d="M838 1342q0 -40 -30 -72t-72 -33q-42 0 -72 33q-30 32 -31 72q0 40 31 72q30 32 72 32t72 -32t30 -72zM823 842v-842q0 -222 -91 -317t-240 -95q-78 0 -112 35t-34 73t23 62t67 23t62 -17t24 -57t16 -51t44 -10t62 37t28 114v1059q0 54 -12 68q-12 15 -66 43l-55 26v29
l280 41l12 -6q-8 -100 -8 -215zM251 1237q-42 0 -73 33q-31 32 -31 72t31 72t73 32t73 -32q30 -32 30 -72t-30 -72t-73 -33zM334 840v-680q0 -60 12 -78t55 -31l68 -18v-33h-422v33l68 18q45 11 56 31t11 78v696q0 53 -11 67q-11 15 -27 23t-40 21l-55 26v29l281 41l12 -6
q-8 -100 -8 -217z" />
    <glyph glyph-name="Jcircumflex" unicode="&#x134;" horiz-adv-x="589" 
d="M78 -260q141 0 141 328v1185q0 70 -13 89t-63 26l-88 16v35h480v-35l-84 -16q-49 -8 -60.5 -27t-11.5 -88v-1138q0 -307 -136.5 -370.5t-226.5 -63.5t-138 34.5t-48 94.5q0 29 21.5 53t76.5 24t75 -27.5t28 -63.5t16 -46t31 -10zM23 1511l245 242h60l247 -242l-12 -24
l-268 125l-260 -125z" />
    <glyph glyph-name="jcircumflex" unicode="&#x135;" horiz-adv-x="489" 
d="M334 842v-842q0 -221 -92 -316q-92 -96 -240 -96q-78 0 -112 35t-34 73t24 62q22 24 66 23t62 -17t24 -57t16 -51q9 -10 44 -10t63 37t27 114v1059q0 53 -11 67q-11 15 -27 23t-40 21l-55 26v29l281 41l12 -6q-8 -100 -8 -215zM-4 1200l229 264h60l231 -264l-16 -22
l-248 145l-240 -145z" />
    <glyph glyph-name="Kcommaaccent" unicode="&#x136;" horiz-adv-x="1226" 
d="M373 166q0 -68 12 -88t64 -27l90 -16l-2 -35h-482v35l80 16q44 8 61 28q17 21 17 87v1087q0 69 -16 88t-62 27l-80 16v35h482v-35l-88 -16q-49 -8 -62 -26q-14 -18 -14 -89v-1087zM905 1306q0 24 -17 36t-54 22l-72 20v35h424v-35l-53 -12q-45 -11 -73 -33
q-27 -22 -51 -48t-61 -64l-381 -428q151 -255 336 -481t222 -249q19 -12 53 -20l53 -14v-35h-264q-300 326 -523 717v22l428 500q33 43 33 67zM628 -268q-30 0 -52 24t-21 57q0 35 27 61q28 26 72 26t76 -32t32 -98t-49 -123q-49 -56 -156 -79l-12 29q77 33 105 67t28 82
q-20 -14 -50 -14z" />
    <glyph glyph-name="kcommaaccent" unicode="&#x137;" horiz-adv-x="1017" 
d="M334 1290v-1130q0 -58 13 -78t59 -31l73 -18v-33h-432v33l68 18q45 11 56 31t11 78v1186q0 50 -12 65t-66 41l-67 33v33l293 28l12 -12q-8 -132 -8 -244zM633 1034h328v-33l-54 -18q-61 -20 -91 -43t-91 -88l-231 -256q185 -265 417 -508q34 -34 68 -43l45 -12v-33h-223
q-219 219 -430 522v8l233 271q100 113 103 155q0 20 -39 35l-35 13v30zM446 -187q0 35 27 61t72 26t77 -32t32 -98t-50 -123q-49 -56 -155 -79l-13 29q76 33 105 67t28 82q-21 -14 -51 -14t-50 24q-22 24 -22 57z" />
    <glyph glyph-name="Lacute" unicode="&#x139;" horiz-adv-x="1085" 
d="M55 0v35l80 16q43 7 60.5 27.5t17.5 87.5v1087q0 69 -16 88t-62 27l-80 16v35h482v-35l-88 -16q-50 -8 -63 -26.5t-13 -88.5v-1032q0 -53 4 -85t36.5 -55.5t152.5 -23.5q186 0 236.5 17.5t92.5 75.5q20 25 54 99.5t61 172.5h47l-25 -422h-977zM499 1753q30 0 50 -23.5
t20 -53.5q0 -62 -65 -81l-398 -102l-12 29l342 211q33 20 63 20z" />
    <glyph glyph-name="lacute" unicode="&#x13a;" 
d="M334 1290v-1130q0 -59 12 -78t55 -31l68 -18v-33h-422v33l68 18q45 12 56 31.5t11 77.5v1186q0 50 -12.5 65t-65.5 41l-67 33v33l291 28l14 -12q-8 -132 -8 -244zM460 1855q30 0 50 -23.5t20 -53.5q0 -63 -65 -80l-397 -103l-13 29l342 211q33 20 63 20z" />
    <glyph glyph-name="Lcommaaccent" unicode="&#x13b;" horiz-adv-x="1085" 
d="M55 0v35l80 16q44 8 61 28q17 21 17 87v1087q0 69 -16 88t-62 27l-80 16v35h482v-35l-88 -16q-49 -8 -62 -26q-14 -18 -14 -89v-1032q0 -53 4 -85q7 -60 99 -73q48 -6 164 -6q116 1 156 15t59 31t39 45t55 102q34 74 61 172h47l-25 -422h-977zM574 -268q-30 0 -51 24
t-21 57q0 35 26 61t72 26q45 0 77 -32t32 -98q1 -66 -49 -123q-50 -56 -156 -79l-12 29q76 33 104 67t29 82q-21 -14 -51 -14z" />
    <glyph glyph-name="lcommaaccent" unicode="&#x13c;" 
d="M334 1290v-1130q0 -60 12 -78t55 -31l68 -18v-33h-422v33l68 18q45 11 56 31t11 78v1186q0 50 -12 65t-66 41l-67 33v33l291 28l14 -12q-8 -132 -8 -244zM226 -268q-30 0 -52 24t-20 57q0 35 26 61t72 26q45 0 77 -32q31 -32 31 -98t-49 -123q-49 -56 -155 -79l-13 29
q76 33 105 67t28 82q-20 -14 -50 -14z" />
    <glyph glyph-name="Lcaron" unicode="&#x13d;" horiz-adv-x="1085" 
d="M55 0v35l80 16q43 7 60.5 27.5t17.5 87.5v1087q0 69 -16 88t-62 27l-80 16v35h482v-35l-88 -16q-50 -8 -63 -26.5t-13 -88.5v-1032q0 -53 4 -85t36.5 -55.5t152.5 -23.5q186 0 236.5 17.5t92.5 75.5q20 25 54 99.5t61 172.5h47l-25 -422h-977zM831 1382q0 -29 -20 -69
l-125 -256l-29 6l17 301q5 90 74 90q83 0 83 -72z" />
    <glyph glyph-name="lcaron" unicode="&#x13e;" 
d="M334 1290v-1130q0 -60 12 -78t55 -31l68 -18v-33h-422v33l68 18q45 11 56 31t11 78v1186q0 50 -12 65t-66 41l-67 33v33l291 28l14 -12q-8 -132 -8 -244zM438 1176l15 280q5 90 73 90q86 -1 84 -71q0 -31 -22 -70l-121 -236z" />
    <glyph glyph-name="Ldot" unicode="&#x13f;" horiz-adv-x="1085" 
d="M909 655q-43 0 -74.5 31t-31.5 75t31.5 73.5t74.5 29.5t76 -29.5t33 -73.5t-33 -75t-76 -31zM55 0v35l80 16q43 7 60.5 27.5t17.5 87.5v1087q0 69 -16 88t-62 27l-80 16v35h482v-35l-88 -16q-50 -8 -63 -26.5t-13 -88.5v-1032q0 -53 4 -85t36.5 -55.5t152.5 -23.5
q186 0 236.5 17.5t92.5 75.5q20 25 54 99.5t61 172.5h47l-25 -422h-977z" />
    <glyph glyph-name="ldot" unicode="&#x140;" horiz-adv-x="565" 
d="M334 1290v-1130q0 -59 12 -78t55 -31l68 -18v-33h-422v33l68 18q45 12 56 31.5t11 77.5v1186q0 50 -12.5 65t-65.5 41l-67 33v33l291 28l14 -12q-8 -132 -8 -244zM541 621q-37 0 -64.5 26.5t-27.5 64.5t27.5 63.5t64.5 25.5t64.5 -25.5t27.5 -63.5t-27.5 -64.5
t-64.5 -26.5z" />
    <glyph glyph-name="Lslash" unicode="&#x141;" horiz-adv-x="1081" 
d="M213 1253q0 69 -16 88t-62 27l-80 16v35h482v-35l-88 -16q-50 -8 -63 -26.5t-13 -88.5v-518l395 178v-73l-395 -178v-441q0 -53 4 -85t37 -54.5t153 -22.5q191 0 238.5 16.5t89.5 74.5q20 25 54 99.5t61 172.5h47l-25 -422h-977v35l80 16q43 7 60.5 27.5t17.5 87.5v424
l-186 -84v74l186 84v589z" />
    <glyph glyph-name="lslash" unicode="&#x142;" 
d="M334 1284v-381l168 96v-71l-168 -94v-674q0 -59 12 -78t55 -31l68 -18v-33h-422v33l68 18q45 12 56 31.5t11 77.5v588l-162 -91v70l162 90v522q0 50 -12.5 65.5t-65.5 41.5l-67 33v32l291 29l14 -12q-8 -132 -8 -244z" />
    <glyph glyph-name="Nacute" unicode="&#x143;" horiz-adv-x="1359" 
d="M293 199q0 -70 12 -98.5t64 -43.5l88 -22v-35h-402v35l80 22q45 12 61.5 42t16.5 100v1054q0 69 -16 88t-62 27l-80 16v35h334l696 -1126h7v928q0 68 -12.5 100.5t-63.5 42.5l-103 20v35h416v-35l-80 -20q-51 -12 -64.5 -44t-13.5 -97v-1233h-79l-793 1276h-6v-1067z
M925 1753q30 0 50 -23.5t20 -53.5q0 -62 -65 -81l-398 -102l-12 29l342 211q33 20 63 20z" />
    <glyph glyph-name="nacute" unicode="&#x144;" horiz-adv-x="1150" 
d="M700 1067q165 0 223 -68t58 -204v-635q0 -56 11 -76t57 -33l69 -18v-33h-430v33l70 18q45 13 58 31t13 78v600q0 115 -39 159q-40 44 -142 44t-182 -24q-81 -24 -132 -42v-737q0 -58 13 -78t59 -31l71 -18v-33h-430v33l68 18q45 11 56 31t11 78v696q0 53 -11 67
q-11 15 -27 23t-40 21l-55 26v29l273 41l14 -6l-4 -113h6q197 123 362 123zM779 1462q32 0 52 -22q39 -44 8 -100q-13 -24 -55 -40l-376 -124l-15 28l320 234q34 24 66 24z" />
    <glyph glyph-name="Ncommaaccent" unicode="&#x145;" horiz-adv-x="1359" 
d="M293 199q0 -70 12 -99t64 -43l88 -22v-35h-402v35l80 22q45 12 62 42q16 30 16 100v1054q0 69 -16 88t-62 27l-80 16v35h334l696 -1126h7v928q0 69 -12 101t-64 42l-103 20v35h416v-35l-80 -20q-51 -12 -64 -44t-14 -97v-1233h-79l-793 1276h-6v-1067zM664 -268
q-30 0 -51 24t-21 57q0 35 26 61t72 26q45 0 77 -32t32 -98t-49 -123q-49 -56 -156 -79l-12 29q76 33 104 67t29 82q-21 -14 -51 -14z" />
    <glyph glyph-name="ncommaaccent" unicode="&#x146;" horiz-adv-x="1150" 
d="M700 1067q165 0 223 -68t58 -204v-635q0 -56 11 -76t57 -33l69 -18v-33h-430v33l70 18q45 13 58 31t13 78v600q0 115 -39 159q-40 44 -142 44t-182 -24q-81 -24 -132 -42v-737q0 -58 13 -78t59 -31l71 -18v-33h-430v33l68 18q45 11 56 31t11 78v696q0 53 -11 67
q-11 15 -27 23t-40 21l-55 26v29l273 41l14 -6l-4 -113h6q197 123 362 123zM550 -268q-30 0 -52 24t-21 57q0 35 27 61q28 26 72 26t76 -32t32 -98t-49 -123q-49 -56 -156 -79l-12 29q77 33 105 67t28 82q-20 -14 -50 -14z" />
    <glyph glyph-name="Ncaron" unicode="&#x147;" horiz-adv-x="1359" 
d="M293 199q0 -70 12 -98.5t64 -43.5l88 -22v-35h-402v35l80 22q45 12 61.5 42t16.5 100v1054q0 69 -16 88t-62 27l-80 16v35h334l696 -1126h7v928q0 68 -12.5 100.5t-63.5 42.5l-103 20v35h416v-35l-80 -20q-51 -12 -64.5 -44t-13.5 -97v-1233h-79l-793 1276h-6v-1067z
M993 1737l-245 -242h-60l-248 242l13 24l268 -125l260 125z" />
    <glyph glyph-name="ncaron" unicode="&#x148;" horiz-adv-x="1150" 
d="M700 1067q165 0 223 -68t58 -204v-635q0 -56 11 -76t57 -33l69 -18v-33h-430v33l70 18q45 13 58 31t13 78v600q0 115 -39 159q-40 44 -142 44t-182 -24q-81 -24 -132 -42v-737q0 -58 13 -78t59 -31l71 -18v-33h-430v33l68 18q45 11 56 31t11 78v696q0 53 -11 67
q-11 15 -27 23t-40 21l-55 26v29l273 41l14 -6l-4 -113h6q197 123 362 123zM317 1444l17 20l248 -147l239 147l17 -20l-230 -266h-59z" />
    <glyph glyph-name="napostrophe" unicode="&#x149;" horiz-adv-x="1232" 
d="M782 1067q165 0 223 -67.5t58 -204.5v-635q0 -57 11 -77t56 -32l70 -18v-33h-430v33l70 18q45 12 58 30.5t13 78.5v600q0 115 -40 159t-141 44t-182 -24t-132 -42v-737q0 -59 13 -79t58 -30l72 -18v-33h-430v33l68 18q45 12 56 31.5t11 77.5v696q0 54 -11 68t-26.5 22
t-40.5 21l-55 26v29l272 41l15 -6l-4 -113h6q197 123 362 123zM44 1260q-28 0 -53.5 27.5t-25.5 67.5t30 65.5t75 25.5t79.5 -38t34.5 -114t-54 -143.5t-169 -97.5l-12 30q80 39 113.5 82t33.5 107q-24 -12 -52 -12z" />
    <glyph glyph-name="Eng" unicode="&#x14a;" horiz-adv-x="1359" 
d="M700 -197q0 84 97 84q53 0 73.5 -26.5t32.5 -72.5t47 -46q53 0 96.5 57.5t45.5 190.5l-793 1276h-6v-1067q0 -70 12 -98.5t64 -43.5l88 -22v-35h-402v35l80 22q45 12 61.5 42t16.5 100v1054q0 69 -16 88t-62 27l-80 16v35h334l696 -1126h7v928q0 68 -12.5 100.5
t-63.5 42.5l-103 20v35h416v-35l-80 -20q-51 -12 -64.5 -44t-13.5 -97v-1215q0 -327 -292 -327q-98 0 -138.5 37.5t-40.5 84.5z" />
    <glyph glyph-name="eng" unicode="&#x14b;" horiz-adv-x="1122" 
d="M700 1067q165 0 223 -67.5t58 -204.5v-795q0 -220 -91 -316t-241 -96q-78 0 -111.5 35t-33.5 73t22.5 61.5t66.5 23.5t62.5 -16.5t24.5 -57.5t16 -51t44 -10t61.5 36.5t27.5 114.5v963q0 115 -39.5 159t-141.5 44t-182.5 -24t-131.5 -42v-737q0 -59 13 -79t59 -30l71 -18
v-33h-430v33l68 18q45 12 56 31.5t11 77.5v696q0 54 -11 68t-26.5 22t-40.5 21l-55 26v29l273 41l14 -6l-4 -113h6q197 123 362 123z" />
    <glyph glyph-name="Omacron" unicode="&#x14c;" horiz-adv-x="1374" 
d="M1137 686q0 299 -112.5 494.5t-343.5 195.5t-337 -169t-106 -480t117.5 -497.5t341.5 -186.5q440 0 440 643zM72 709q0 361 176.5 548t448.5 187q271 0 438.5 -194.5t167.5 -550.5t-177 -540t-453 -184q-265 0 -433 186.5t-168 547.5zM430 1636h512v-90h-512v90z" />
    <glyph glyph-name="omacron" unicode="&#x14d;" horiz-adv-x="1099" 
d="M559 33q305 1 305 489t-319 488q-309 0 -309 -465q-1 -512 323 -512zM61 516q0 253 144 403t352 150q209 0 345 -138t136 -391q0 -254 -145 -410q-145 -157 -355 -157t-344 145t-133 398zM322 1319h454v-90h-454v90z" />
    <glyph glyph-name="Obreve" unicode="&#x14e;" horiz-adv-x="1374" 
d="M1137 686q0 299 -112.5 494.5t-343.5 195.5t-337 -169t-106 -480t117.5 -497.5t341.5 -186.5q440 0 440 643zM72 709q0 361 176.5 548t448.5 187q271 0 438.5 -194.5t167.5 -550.5t-177 -540t-453 -184q-265 0 -433 186.5t-168 547.5zM520 1570q-65 73 -69 163l22 6
q18 -53 72.5 -94t144.5 -41t141.5 42t69.5 93l23 -6q-4 -90 -67 -163t-167 -73q-105 0 -170 73z" />
    <glyph glyph-name="obreve" unicode="&#x14f;" horiz-adv-x="1099" 
d="M559 33q305 1 305 489t-319 488q-309 0 -309 -465q-1 -512 323 -512zM61 516q0 253 144 403t352 150q209 0 345 -138t136 -391q0 -254 -145 -410q-145 -157 -355 -157t-344 145t-133 398zM553 1286q78 0 125 42t65 93l23 -6q0 -86 -60 -160q-60 -75 -152 -75
q-93 0 -157 75q-63 75 -63 160l22 6q18 -53 68 -94t129 -41z" />
    <glyph glyph-name="Ohungarumlaut" unicode="&#x150;" horiz-adv-x="1374" 
d="M1137 686q0 299 -112.5 494.5t-343.5 195.5t-337 -169t-106 -480t117.5 -497.5t341.5 -186.5q440 0 440 643zM72 709q0 361 176.5 548t448.5 187q271 0 438.5 -194.5t167.5 -550.5t-177 -540t-453 -184q-265 0 -433 186.5t-168 547.5zM1056 1798q24 0 46 -20t23 -46
q2 -58 -48 -92l-246 -151l-24 27l166 237q28 45 83 45zM724 1798q24 0 46.5 -20t23.5 -46q2 -58 -49 -92l-245 -151l-25 27l166 237q28 45 83 45z" />
    <glyph glyph-name="ohungarumlaut" unicode="&#x151;" horiz-adv-x="1099" 
d="M559 33q305 1 305 489t-319 488q-309 0 -309 -465q-1 -512 323 -512zM61 516q0 253 144 403t352 150q209 0 345 -138t136 -391q0 -254 -145 -410q-145 -157 -355 -157t-344 145t-133 398zM915 1489q25 -1 48 -19t23 -44q-1 -59 -48 -91l-264 -170l-25 27l187 254
q29 43 79 43zM586 1489q26 -1 48 -19t22 -44q-1 -59 -48 -91l-264 -170l-25 27l187 254q29 43 80 43z" />
    <glyph glyph-name="OE" unicode="&#x152;" horiz-adv-x="1923" 
d="M776 59q111 0 143.5 25t45 64.5t12.5 107.5v950q0 103 -40 129.5t-179 26.5q-138 0 -241 -53.5t-191 -176t-88 -422.5q0 -301 126.5 -476t411.5 -175zM739 0q-667 0 -667 698q0 349 182 535t498 186h1040l27 -342h-43q-71 165 -90 195q-18 29 -36 47t-47.5 27.5
t-77.5 12.5t-184 3t-204 -19v-575h112q130 0 185 12t75 56t43 155h43v-506h-43q-29 151 -61.5 182.5t-102 35.5t-139.5 4h-112v-451q0 -74 5 -114t32.5 -58t86 -22.5t147.5 -4.5t134 3t75 11.5t47.5 25t33.5 36.5q48 62 119 273h47l-31 -406h-1094z" />
    <glyph glyph-name="oe" unicode="&#x153;" horiz-adv-x="1779" 
d="M1323 1010q-121 0 -205 -96.5t-96 -295.5l510 25q0 184 -44 275.5t-165 91.5zM551 33q295 0 295 469q0 260 -73 384t-238 124q-299 0 -299 -463q0 -260 76.5 -387t238.5 -127zM556 -27q-232 0 -363.5 144t-131.5 398t141.5 404t338.5 150q300 0 399 -246
q57 117 156.5 181.5t211.5 64.5q216 0 312 -121t96 -391h-696q0 -239 96.5 -359t253.5 -120q123 0 199 30.5t131 57.5v-57q-18 -12 -108 -73t-263 -61q-304 0 -403 246q-55 -123 -154.5 -185.5t-215.5 -62.5z" />
    <glyph glyph-name="Racute" unicode="&#x154;" horiz-adv-x="1222" 
d="M498 735q193 0 279.5 79t86.5 239q0 249 -111.5 279t-212.5 30t-167 -14v-605q72 -8 125 -8zM373 678v-512q0 -70 12 -88.5t64 -26.5l90 -16l-2 -35h-482v35l80 16q43 7 60.5 27.5t17.5 87.5v1087q0 69 -16 88t-62 27l-80 16v35h551q424 0 424 -338q0 -141 -91 -235
t-245 -135v-6q243 -408 391 -584q35 -41 54.5 -53.5t48.5 -20.5l45 -12v-35h-254q-248 323 -436 678h-170zM794 1753q30 0 50 -23.5t20 -53.5q0 -62 -65 -81l-398 -102l-12 29l342 211q33 20 63 20z" />
    <glyph glyph-name="racute" unicode="&#x155;" horiz-adv-x="772" 
d="M182 160v696q0 53 -11 67q-11 15 -27 23t-40 21l-55 26v29l273 41l14 -10l-4 -117h6q57 53 137 93t150 40q123 0 123 -108q0 -51 -28 -77t-72 -26q-72 0 -91 70q-8 22 -13 30q-16 24 -100 -15q-84 -40 -110 -75v-708q0 -49 9 -73t48 -32l107 -22v-33h-451v33l68 18
q45 11 56 31t11 78zM652 1462q32 0 53 -22q20 -23 20 -50q0 -64 -68 -90l-376 -124l-15 28l320 234q34 24 66 24z" />
    <glyph glyph-name="Rcommaaccent" unicode="&#x156;" horiz-adv-x="1222" 
d="M498 735q194 0 280 79t86 239q0 247 -170 295q-53 14 -153 14t-168 -14v-605q72 -8 125 -8zM373 678v-512q0 -68 12 -88t64 -27l90 -16l-2 -35h-482v35l80 16q44 8 61 28q17 21 17 87v1087q0 69 -16 88t-62 27l-80 16v35h551q424 0 424 -338q0 -141 -91 -235t-245 -135
v-6q243 -408 391 -584q35 -41 55 -53t48 -21l45 -12v-35h-254q-255 331 -436 678h-170zM628 -268q-30 0 -52 24t-21 57q0 35 27 61q28 26 72 26t76 -32t32 -98t-49 -123q-49 -56 -156 -79l-12 29q77 33 105 67t28 82q-20 -14 -50 -14z" />
    <glyph glyph-name="rcommaaccent" unicode="&#x157;" horiz-adv-x="772" 
d="M182 160v696q0 53 -11 67q-11 15 -27 23t-40 21l-55 26v29l273 41l14 -10l-4 -117h6q57 53 137 93t150 40q123 0 123 -108q0 -51 -28 -77t-72 -26q-72 0 -91 70q-8 22 -13 30q-16 24 -100 -15q-84 -40 -110 -75v-708q0 -49 9 -73t48 -32l107 -22v-33h-451v33l68 18
q45 11 56 31t11 78zM228 -268q-30 0 -51 24t-21 57q0 35 26 61t72 26q45 0 77 -32q31 -32 31 -98t-49 -123q-49 -56 -155 -79l-13 29q76 33 105 67t29 82q-21 -14 -51 -14z" />
    <glyph glyph-name="Rcaron" unicode="&#x158;" horiz-adv-x="1222" 
d="M498 735q193 0 279.5 79t86.5 239q0 249 -111.5 279t-212.5 30t-167 -14v-605q72 -8 125 -8zM373 678v-512q0 -70 12 -88.5t64 -26.5l90 -16l-2 -35h-482v35l80 16q43 7 60.5 27.5t17.5 87.5v1087q0 69 -16 88t-62 27l-80 16v35h551q424 0 424 -338q0 -141 -91 -235
t-245 -135v-6q243 -408 391 -584q35 -41 54.5 -53.5t48.5 -20.5l45 -12v-35h-254q-248 323 -436 678h-170zM862 1737l-246 -242h-59l-248 242l13 24l268 -125l260 125z" />
    <glyph glyph-name="rcaron" unicode="&#x159;" horiz-adv-x="772" 
d="M182 160v696q0 53 -11 67q-11 15 -27 23t-40 21l-55 26v29l273 41l14 -10l-4 -117h6q57 53 137 93t150 40q123 0 123 -108q0 -51 -28 -77t-72 -26q-72 0 -91 70q-8 22 -13 30q-16 24 -100 -15q-84 -40 -110 -75v-708q0 -49 9 -73t48 -32l107 -22v-33h-451v33l68 18
q45 11 56 31t11 78zM190 1444l17 20l248 -147l239 147l17 -20l-230 -266h-59z" />
    <glyph glyph-name="Sacute" unicode="&#x15a;" horiz-adv-x="987" 
d="M489 1378q-270 0 -270 -235q0 -115 57.5 -180t191.5 -134q256 -132 345.5 -219t89.5 -223q0 -181 -118.5 -297.5t-323.5 -116.5t-381 78l-23 361h47q49 -148 96 -230q48 -82 110 -110.5t158 -28.5t147 21.5t100 75.5t49 168q0 113 -65 183.5t-249 164.5
q-183 94 -241.5 151t-87.5 120.5t-29 146.5q0 163 108.5 267.5t288.5 104.5t322 -53l25 -322h-43q-45 121 -59.5 147.5t-28.5 50.5q-33 57 -77 83t-139 26zM688 1753q30 0 50 -23.5t20 -53.5q0 -61 -66 -81l-397 -102l-12 29l342 211q33 20 63 20z" />
    <glyph glyph-name="sacute" unicode="&#x15b;" horiz-adv-x="806" 
d="M369 -25q-166 0 -306 52l-4 297h41q42 -117 69 -168q66 -121 206 -121q98 0 162 51q63 51 63 140q0 90 -58 142t-148 90q-175 74 -236 132q-84 80 -83 204q1 125 99 200t242 75t264 -45l6 -256h-35q-23 49 -41 91q-41 95 -105 130q-37 21 -121 21t-134 -49t-51 -127
q0 -78 60 -129t153 -89q92 -38 146 -66q181 -93 179 -247q0 -70 -25 -129q-52 -120 -188 -173q-66 -26 -155 -26zM613 1462q32 0 53 -22q20 -23 20 -50q0 -64 -68 -90l-376 -124l-15 28l320 234q34 24 66 24z" />
    <glyph glyph-name="Scircumflex" unicode="&#x15c;" horiz-adv-x="987" 
d="M489 1378q-270 0 -270 -235q0 -115 57.5 -180t191.5 -134q256 -132 345.5 -219t89.5 -223q0 -181 -118.5 -297.5t-323.5 -116.5t-381 78l-23 361h47q49 -148 96 -230q48 -82 110 -110.5t158 -28.5t147 21.5t100 75.5t49 168q0 113 -65 183.5t-249 164.5
q-183 94 -241.5 151t-87.5 120.5t-29 146.5q0 163 108.5 267.5t288.5 104.5t322 -53l25 -322h-43q-45 121 -59.5 147.5t-28.5 50.5q-33 57 -77 83t-139 26zM203 1511l246 242h59l248 -242l-13 -24l-268 125l-260 -125z" />
    <glyph glyph-name="scircumflex" unicode="&#x15d;" horiz-adv-x="806" 
d="M369 -25q-166 0 -306 52l-4 297h41q42 -117 69 -168q66 -121 206 -121q98 0 162 51q63 51 63 140q0 90 -58 142t-148 90q-175 74 -236 132q-84 80 -83 204q1 125 99 200t242 75t264 -45l6 -256h-35q-23 49 -41 91q-41 95 -105 130q-37 21 -121 21t-134 -49t-51 -127
q0 -78 60 -129t153 -89q92 -38 146 -66q181 -93 179 -247q0 -70 -25 -129q-52 -120 -188 -173q-66 -26 -155 -26zM152 1200l229 264h59l232 -264l-17 -22l-247 145l-240 -145z" />
    <glyph glyph-name="Scedilla" unicode="&#x15e;" horiz-adv-x="987" 
d="M414 -106q159 -14 159 -132q0 -143 -301 -172v31q183 43 183 123q0 31 -30 51.5t-83 24.5l-10 14l67 141q-160 7 -319 76l-23 361h47q49 -148 96 -230q48 -82 110 -110.5t158 -28.5t147 21.5t100 75.5t49 168q0 113 -65 183.5t-249 164.5q-183 94 -241.5 151t-87.5 120.5
t-29 146.5q0 163 108.5 267.5t288.5 104.5t322 -53l25 -322h-43q-45 121 -59.5 147.5t-28.5 50.5q-33 57 -77 83t-139 26q-270 0 -270 -235q0 -115 57.5 -180t191.5 -134q256 -132 345.5 -219t89.5 -223q0 -178 -116 -294t-326 -120z" />
    <glyph glyph-name="scedilla" unicode="&#x15f;" horiz-adv-x="806" 
d="M336 -106q160 -14 160 -132q0 -143 -301 -172v31q182 43 182 123q0 31 -30 51.5t-83 24.5l-10 14l68 143q-137 7 -259 50l-4 297h41q42 -117 69 -168q66 -121 206 -121q98 0 161.5 51t63.5 140t-58 141.5t-148 90.5q-174 74 -246 142t-72 194q0 127 98 201t240 74
t266 -45l6 -256h-35q-23 49 -41 91t-43 76q-55 75 -161 75t-156.5 -49t-50.5 -127t60 -129.5t153 -89.5q176 -72 250.5 -138t74.5 -189t-97.5 -216t-254.5 -97z" />
    <glyph glyph-name="Scaron" unicode="&#x160;" horiz-adv-x="987" 
d="M489 1378q-270 0 -270 -235q0 -115 57.5 -180t191.5 -134q256 -132 345.5 -219t89.5 -223q0 -181 -118.5 -297.5t-323.5 -116.5t-381 78l-23 361h47q49 -148 96 -230q48 -82 110 -110.5t158 -28.5t147 21.5t100 75.5t49 168q0 113 -65 183.5t-249 164.5
q-183 94 -241.5 151t-87.5 120.5t-29 146.5q0 163 108.5 267.5t288.5 104.5t322 -53l25 -322h-43q-45 121 -59.5 147.5t-28.5 50.5q-33 57 -77 83t-139 26zM756 1737l-246 -242h-59l-248 242l12 24l268 -125l260 125z" />
    <glyph glyph-name="scaron" unicode="&#x161;" horiz-adv-x="806" 
d="M369 -25q-166 0 -306 52l-4 297h41q42 -117 69 -168q66 -121 206 -121q98 0 162 51q63 51 63 140q0 90 -58 142t-148 90q-175 74 -236 132q-84 80 -83 204q1 125 99 200t242 75t264 -45l6 -256h-35q-23 49 -41 91q-41 95 -105 130q-37 21 -121 21t-134 -49t-51 -127
q0 -78 60 -129t153 -89q92 -38 146 -66q181 -93 179 -247q0 -70 -25 -129q-52 -120 -188 -173q-66 -26 -155 -26zM152 1444l16 20l248 -147l239 147l17 -20l-230 -266h-59z" />
    <glyph glyph-name="Tcommaaccent" unicode="&#x162;" horiz-adv-x="1150" 
d="M655 1360v-1194q0 -69 13 -88t63 -27l88 -16v-35h-487v35l88 16q49 7 63 27q13 19 13 88v1194h-60q-218 0 -258 -66q-32 -52 -96 -270h-49l22 395h1041l22 -395h-49q-65 222 -88 258q-22 34 -68 56t-198 22h-60zM548 -268q-30 0 -52 24t-21 57q0 35 27 61q28 26 72 26
t76 -32t32 -98t-49 -123q-49 -56 -156 -79l-12 29q77 33 105 67t28 82q-20 -14 -50 -14z" />
    <glyph glyph-name="tcommaaccent" unicode="&#x163;" horiz-adv-x="622" 
d="M309 188q0 -185 299 -92v-39q-167 -111 -316 -72q-80 19 -116 93q-18 37 -18 92v791h-146v32q98 29 163 93t106 182h28v-234h285l-8 -73h-277v-773zM304 -268q-30 0 -52 24t-21 57q0 35 27 61t72 26t77 -32q31 -32 31 -98t-49 -123q-49 -56 -156 -79l-12 29q76 33 105 67
t28 82q-20 -14 -50 -14z" />
    <glyph glyph-name="Tcaron" unicode="&#x164;" horiz-adv-x="1150" 
d="M655 1360v-1194q0 -70 12.5 -88.5t63.5 -26.5l88 -16v-35h-487v35l88 16q47 7 61.5 25.5t14.5 89.5v1194h-60q-156 0 -199.5 -21.5t-68.5 -60.5t-86 -254h-49l22 395h1041l22 -395h-49q-66 223 -88.5 258t-66 56.5t-199.5 21.5h-60zM852 1737l-246 -242h-59l-248 242
l12 24l269 -125l260 125z" />
    <glyph glyph-name="tcaron" unicode="&#x165;" horiz-adv-x="622" 
d="M309 188q0 -185 299 -92v-39q-167 -111 -316 -72q-80 19 -116 93q-18 37 -18 92v791h-146v32q98 29 163 93t106 182h28v-234h285l-8 -73h-277v-773zM629 1477q0 -33 -23 -72l-121 -236l-28 7l14 280q5 90 73 90q84 -2 85 -69z" />
    <glyph glyph-name="Tbar" unicode="&#x166;" horiz-adv-x="1150" 
d="M655 1360v-545h306v-59h-306v-590q0 -70 12.5 -88.5t63.5 -26.5l88 -16v-35h-487v35l88 16q47 7 61.5 25.5t14.5 89.5v590h-306v59h306v545h-60q-156 0 -199.5 -21.5t-68.5 -60.5t-86 -254h-49l22 395h1041l22 -395h-49q-66 223 -88.5 258t-66 56.5t-199.5 21.5h-60z" />
    <glyph glyph-name="tbar" unicode="&#x167;" horiz-adv-x="622" 
d="M441 66q68 0 167 30v-39q-12 -8 -33.5 -22.5t-96 -46.5t-170 -8t-123 79.5t-27.5 110.5v508h-146v59h146v224h-146v32q98 29 163 93.5t106 181.5h28v-234h285l-8 -73h-277v-224h285v-59h-285v-490q0 -63 32 -92.5t100 -29.5z" />
    <glyph glyph-name="Utilde" unicode="&#x168;" horiz-adv-x="1384" 
d="M352 455q0 -195 91 -290t293 -95t289 105.5t87 293.5v762q0 68 -12.5 95.5t-63.5 37.5l-108 20v35h422v-35l-80 -20q-51 -14 -64.5 -41t-13.5 -92v-780q0 -327 -182.5 -401.5t-317.5 -74.5q-233 0 -366 118t-133 370v790q0 67 -15.5 86.5t-62.5 28.5l-80 16v35h469v-35
l-82 -16q-50 -12 -60 -27t-10 -88v-798zM769 1670q112 -28 156 -28t69.5 25t47.5 66l33 -15q-64 -147 -104.5 -171.5t-73.5 -24.5q-56 0 -161 27.5t-152 27.5t-71 -24.5t-46 -65.5l-35 12q45 102 81 150.5t90 48.5t166 -28z" />
    <glyph glyph-name="utilde" unicode="&#x169;" horiz-adv-x="1132" 
d="M172 242v622q0 56 -14 76t-62 39l-57 22v31l266 31l19 -16v-771q0 -196 182 -196q147 0 313 76v710q0 56 -13 76t-65 39l-57 20v31l266 31l21 -16v-846q0 -61 15 -86t63 -45l57 -27v-27l-275 -36l-12 8l4 121h-8q-192 -134 -377 -134q-122 0 -194 69t-72 198zM735 1335
q49 0 101 90l32 -14q-42 -97 -69 -131q-48 -64 -101 -65t-150 27t-137 28t-64 -25t-46 -65l-35 12q45 103 70 135q46 62 98 63t152 -27t149 -28z" />
    <glyph glyph-name="Umacron" unicode="&#x16a;" horiz-adv-x="1384" 
d="M352 455q0 -195 91 -290t293 -95t289 105.5t87 293.5v762q0 68 -12.5 95.5t-63.5 37.5l-108 20v35h422v-35l-80 -20q-51 -14 -64.5 -41t-13.5 -92v-780q0 -327 -182.5 -401.5t-317.5 -74.5q-233 0 -366 118t-133 370v790q0 67 -15.5 86.5t-62.5 28.5l-80 16v35h469v-35
l-82 -16q-50 -12 -60 -27t-10 -88v-798zM481 1636h512v-90h-512v90z" />
    <glyph glyph-name="umacron" unicode="&#x16b;" horiz-adv-x="1132" 
d="M172 242v622q0 56 -14 76t-62 39l-57 22v31l266 31l19 -16v-771q0 -196 182 -196q147 0 313 76v710q0 56 -13 76t-65 39l-57 20v31l266 31l21 -16v-846q0 -61 15 -86t63 -45l57 -27v-27l-275 -36l-12 8l4 121h-8q-192 -134 -377 -134q-122 0 -194 69t-72 198zM340 1319
h455v-90h-455v90z" />
    <glyph glyph-name="Ubreve" unicode="&#x16c;" horiz-adv-x="1384" 
d="M352 455q0 -195 91 -290t293 -95t289 105.5t87 293.5v762q0 68 -12.5 95.5t-63.5 37.5l-108 20v35h422v-35l-80 -20q-51 -14 -64.5 -41t-13.5 -92v-780q0 -327 -182.5 -401.5t-317.5 -74.5q-233 0 -366 118t-133 370v790q0 67 -15.5 86.5t-62.5 28.5l-80 16v35h469v-35
l-82 -16q-50 -12 -60 -27t-10 -88v-798zM741 1604q90 0 141.5 42t69.5 93l23 -6q-4 -89 -66 -162.5t-167 -73.5q-107 0 -171.5 74t-68.5 162l22 6q18 -53 72.5 -94t144.5 -41z" />
    <glyph glyph-name="ubreve" unicode="&#x16d;" horiz-adv-x="1132" 
d="M172 242v622q0 56 -14 76t-62 39l-57 22v31l266 31l19 -16v-771q0 -196 182 -196q147 0 313 76v710q0 56 -13 76t-65 39l-57 20v31l266 31l21 -16v-846q0 -61 15 -86t63 -45l57 -27v-27l-275 -36l-12 8l4 121h-8q-192 -134 -377 -134q-122 0 -194 69t-72 198zM571 1286
q78 0 125 42t66 93l22 -6q0 -86 -60 -160q-60 -75 -153 -75t-155 75t-64 160l23 6q18 -53 68 -94t128 -41z" />
    <glyph glyph-name="Uring" unicode="&#x16e;" horiz-adv-x="1384" 
d="M352 455q0 -195 91 -290t293 -95t289 105.5t87 293.5v762q0 68 -12.5 95.5t-63.5 37.5l-108 20v35h422v-35l-80 -20q-51 -14 -64.5 -41t-13.5 -92v-780q0 -327 -182.5 -401.5t-317.5 -74.5q-233 0 -366 118t-133 370v790q0 67 -15.5 86.5t-62.5 28.5l-80 16v35h469v-35
l-82 -16q-50 -12 -60 -27t-10 -88v-798zM737 1491q51 0 83 35t32 89t-32 87t-83 33t-81.5 -33t-30.5 -87t30.5 -89t81.5 -35zM734 1444q-79 0 -125 49t-46 121t50.5 120t126.5 48t124.5 -49.5t48.5 -121t-50 -119.5t-129 -48z" />
    <glyph glyph-name="uring" unicode="&#x16f;" horiz-adv-x="1132" 
d="M172 242v622q0 56 -14 76t-62 39l-57 22v31l266 31l19 -16v-771q0 -196 182 -196q147 0 313 76v710q0 56 -13 76t-65 39l-57 20v31l266 31l21 -16v-846q0 -61 15 -86t63 -45l57 -27v-27l-275 -36l-12 8l4 121h-8q-192 -134 -377 -134q-122 0 -194 69t-72 198zM567 1231
q51 0 83 35t32 89t-32 87t-83 33t-82 -33t-31 -87t32 -89q30 -35 81 -35zM564 1184q-79 0 -125 49t-46 121t50 120t127 48t125 -49t48 -121t-50 -120t-129 -48z" />
    <glyph glyph-name="Uhungarumlaut" unicode="&#x170;" horiz-adv-x="1384" 
d="M352 455q0 -195 91 -290t293 -95t289 105.5t87 293.5v762q0 68 -12.5 95.5t-63.5 37.5l-108 20v35h422v-35l-80 -20q-51 -14 -64.5 -41t-13.5 -92v-780q0 -327 -182.5 -401.5t-317.5 -74.5q-233 0 -366 118t-133 370v790q0 67 -15.5 86.5t-62.5 28.5l-80 16v35h469v-35
l-82 -16q-50 -12 -60 -27t-10 -88v-798zM1107 1798q24 0 46.5 -20t23.5 -46q2 -58 -49 -92l-245 -151l-25 27l166 237q28 45 83 45zM776 1798q24 0 46 -20t23 -46q2 -57 -48 -92l-246 -151l-25 27l166 237q28 45 84 45z" />
    <glyph glyph-name="uhungarumlaut" unicode="&#x171;" horiz-adv-x="1132" 
d="M172 242v622q0 56 -14 76t-62 39l-57 22v31l266 31l19 -16v-771q0 -196 182 -196q147 0 313 76v710q0 56 -13 76t-65 39l-57 20v31l266 31l21 -16v-846q0 -61 15 -86t63 -45l57 -27v-27l-275 -36l-12 8l4 121h-8q-192 -134 -377 -134q-122 0 -194 69t-72 198zM934 1489
q26 -1 48 -19t22 -44q0 -57 -48 -91l-264 -170l-24 27l186 254q29 43 80 43zM604 1489q26 -1 48 -19t22 -44q0 -58 -47 -91l-265 -170l-24 27l186 254q29 43 80 43z" />
    <glyph glyph-name="Uogonek" unicode="&#x172;" horiz-adv-x="1384" 
d="M790 -410q-82 0 -137 39t-55 93q0 131 197 260q-47 -6 -103 -7q-233 0 -366 118t-133 370v790q0 67 -15.5 86.5t-62.5 28.5l-80 16v35h469v-35l-82 -16q-50 -12 -60 -27t-10 -88v-798q0 -195 91 -290t293 -95t289 105.5t87 293.5v762q0 68 -12.5 95.5t-63.5 37.5l-108 20
v35h422v-35l-80 -20q-51 -14 -64.5 -41t-13.5 -92v-780q0 -133 -54.5 -246t-176.5 -174q-115 -61 -176.5 -120t-61.5 -149q0 -47 30.5 -75.5t80.5 -28.5t96 23v-33q-58 -58 -140 -58z" />
    <glyph glyph-name="uogonek" unicode="&#x173;" horiz-adv-x="1132" 
d="M806 -410q-82 0 -137 39t-55 93t21.5 91t53.5 70t68 58.5t62 44.5l4 123h-8q-192 -134 -377 -134q-123 0 -194.5 69t-71.5 198v622q0 55 -14.5 76t-61.5 39l-57 22v31l266 31l19 -16v-771q0 -196 182 -196q147 0 313 76v710q0 55 -13 76t-65 39l-57 20v31l266 31l21 -16
v-846q0 -62 15 -86t63 -45l57 -27v-27l-92 -12q-157 -21 -216 -91.5t-59 -133.5q0 -64 31 -92.5t81 -28.5t95 23v-33q-58 -58 -140 -58z" />
    <glyph glyph-name="Wcircumflex" unicode="&#x174;" horiz-adv-x="1873" 
d="M-6 1419h461v-35l-70 -14q-35 -8 -51.5 -23.5t-16.5 -51.5t29 -121l295 -922h10l269 813l-35 104q-38 115 -58 147t-36.5 40t-36.5 14l-60 14v35h455v-35l-62 -12q-65 -12 -65 -68q0 -46 27 -130l297 -922h10l252 899q26 102 26 138t-13 51.5t-46 25.5l-70 18v35h375v-35
l-68 -18q-43 -10 -65.5 -54t-56.5 -165l-336 -1147h-78l-318 944h-6l-315 -944h-72l-387 1180q-35 112 -54.5 140t-34.5 36t-36 14l-59 14v35zM655 1511l246 242h60l247 -242l-12 -24l-268 125l-260 -125z" />
    <glyph glyph-name="wcircumflex" unicode="&#x175;" horiz-adv-x="1486" 
d="M-16 1034h411v-33l-55 -14q-35 -10 -43 -24t-8 -40t24 -100l201 -606h6l199 571l-25 68q-18 57 -38 87t-56 42l-53 16v33h373v-33l-56 -14q-29 -8 -34 -22t-5 -39t27 -103l209 -606h8l199 606q24 81 22 109t-16 38t-43 17l-53 14v33h325v-33l-53 -14q-40 -10 -54 -35
q-14 -24 -24 -51t-24 -65l-291 -836h-64l-239 690h-4l-240 -690h-70l-303 856q-25 70 -42 92t-50 33l-61 20v33zM483 1200l230 264h59l232 -264l-17 -22l-248 145l-239 -145z" />
    <glyph glyph-name="Ycircumflex" unicode="&#x176;" horiz-adv-x="1191" 
d="M-8 1419h463v-35l-70 -16q-59 -12 -69.5 -42.5t32.5 -108.5l305 -566h6l263 549q63 123 23 141.5t-71 26.5l-67 16v35h393v-35l-49 -16q-50 -16 -83 -54t-91 -159l-279 -565v-424q0 -70 12.5 -88.5t63.5 -26.5l88 -16v-35h-487v35l88 16q47 7 61.5 25.5t14.5 89.5v403
l-363 656q-25 43 -40 69.5t-32.5 45.5t-56.5 30l-55 14v35zM371 1511l245 242h60l248 -242l-13 -24l-268 125l-260 -125z" />
    <glyph glyph-name="ycircumflex" unicode="&#x177;" horiz-adv-x="978" 
d="M160 -420q-82 0 -116 35t-34 81t28 70t73 24t63 -21t30 -49t17 -34q6 -6 21 -8q78 0 155 185l58 139l-318 854q-29 76 -46 96q-17 21 -54 33l-53 16v33h399v-33l-53 -14q-75 -23 -51 -92q14 -41 24 -70l229 -618h9l217 616q42 123 8 147q-14 9 -43 17l-53 14v33h325v-33
l-61 -16q-35 -8 -47 -31q-25 -49 -49 -118l-336 -906q-24 -66 -50 -128t-64 -111t-92 -80t-136 -31zM283 1200l229 264h59l232 -264l-17 -22l-247 145l-240 -145z" />
    <glyph glyph-name="Ydieresis" unicode="&#x178;" horiz-adv-x="1191" 
d="M-8 1419h463v-35l-70 -16q-59 -12 -69.5 -42.5t32.5 -108.5l305 -566h6l263 549q63 123 23 141.5t-71 26.5l-67 16v35h393v-35l-49 -16q-50 -16 -83 -54t-91 -159l-279 -565v-424q0 -70 12.5 -88.5t63.5 -26.5l88 -16v-35h-487v35l88 16q47 7 61.5 25.5t14.5 89.5v403
l-363 656q-25 43 -40 69.5t-32.5 45.5t-56.5 30l-55 14v35zM836 1513q-43 0 -71 30t-28 70t28 68.5t71 28.5t70.5 -28.5t27.5 -68.5t-27.5 -70t-70.5 -30zM459 1513q-43 0 -71 30t-28 70t28 68.5t71 28.5t70.5 -28.5t27.5 -68.5t-27.5 -70t-70.5 -30z" />
    <glyph glyph-name="Zacute" unicode="&#x179;" horiz-adv-x="1095" 
d="M864 1362h-164q-268 0 -326.5 -11.5t-84 -31t-53.5 -70.5t-78 -200h-41l24 370h895v-57l-805 -1296v-9h148q275 0 357.5 16.5t108 35t52.5 66.5t90 228h45l-33 -403h-948v59l813 1295v8zM798 1753q30 0 50 -23.5t20 -53.5q0 -62 -65 -81l-397 -102l-13 29l342 211
q33 20 63 20z" />
    <glyph glyph-name="zacute" unicode="&#x17a;" horiz-adv-x="903" 
d="M672 981h-217q-127 0 -158 -12q-31 -13 -45 -31q-54 -71 -113 -209h-35l11 305h753v-30l-630 -943v-8h184q170 1 212 17t60 36q56 62 115 226h37l-19 -332h-782v37l627 936v8zM687 1462q32 0 52 -22q40 -45 7 -100q-13 -24 -54 -40l-377 -124l-14 28l320 234q34 24 66 24
z" />
    <glyph glyph-name="Zdotaccent" unicode="&#x17b;" horiz-adv-x="1095" 
d="M864 1362h-164q-268 0 -326.5 -11.5t-84 -31t-53.5 -70.5t-78 -200h-41l24 370h895v-57l-805 -1296v-9h148q275 0 357.5 16.5t108 35t52.5 66.5t90 228h45l-33 -403h-948v59l813 1295v8zM591 1513q-42 0 -73 33t-31 73t31 71.5t73 31.5t72.5 -31.5t30.5 -71.5t-30.5 -73
t-72.5 -33z" />
    <glyph glyph-name="zdotaccent" unicode="&#x17c;" horiz-adv-x="903" 
d="M672 981h-217q-127 0 -158 -12q-31 -13 -45 -31q-54 -71 -113 -209h-35l11 305h753v-30l-630 -943v-8h184q170 1 212 17t60 36q56 62 115 226h37l-19 -332h-782v37l627 936v8zM592 1342q0 -40 -31 -72t-73 -33q-42 0 -72 33q-30 32 -31 72q0 40 31 72q30 32 72 32t73 -32
t31 -72z" />
    <glyph glyph-name="Zcaron" unicode="&#x17d;" horiz-adv-x="1095" 
d="M864 1362h-164q-268 0 -326.5 -11.5t-84 -31t-53.5 -70.5t-78 -200h-41l24 370h895v-57l-805 -1296v-9h148q275 0 357.5 16.5t108 35t52.5 66.5t90 228h45l-33 -403h-948v59l813 1295v8zM866 1737l-245 -242h-60l-248 242l13 24l268 -125l260 125z" />
    <glyph glyph-name="zcaron" unicode="&#x17e;" horiz-adv-x="903" 
d="M672 981h-217q-127 0 -158 -12q-31 -13 -45 -31q-54 -71 -113 -209h-35l11 305h753v-30l-630 -943v-8h184q170 1 212 17t60 36q56 62 115 226h37l-19 -332h-782v37l627 936v8zM225 1444l17 20l247 -147l240 147l16 -20l-229 -266h-59z" />
    <glyph glyph-name="florin" unicode="&#x192;" horiz-adv-x="768" 
d="M57 788h174l37 256q26 193 131.5 292.5t235.5 99.5q92 0 147.5 -34t55.5 -93q0 -88 -88 -88q-45 0 -64.5 23.5t-27.5 67.5t-20.5 55t-36.5 11q-58 0 -96.5 -47.5t-58.5 -183.5l-53 -359h205v-61h-213l-102 -704q-29 -209 -124 -315.5t-191 -106.5q-95 0 -141 33.5
t-46 73.5q0 81 80 81q35 0 51 -17.5t26 -55.5t18 -52t28 -14q39 0 64.5 32.5t39.5 124.5l133 920h-164v61z" />
    <glyph glyph-name="Aringacute" unicode="&#x1fa;" horiz-adv-x="1280" 
d="M387 582h424l-205 610h-10zM1286 0h-455v35l46 12q67 15 75.5 50t-26.5 145l-95 276h-466l-95 -276q-33 -101 -22.5 -131.5t29 -41t49.5 -18.5l59 -16v-35h-391l2 35l63 20q40 13 65 51t62 150l426 1163h82l408 -1192q47 -140 79.5 -157t55.5 -23l49 -12v-35zM651 1532
q51 0 83 35t32 89t-32 87t-83 33t-81.5 -33t-30.5 -87t30.5 -89t81.5 -35zM648 1485q-79 0 -125 49t-46 121t50.5 120t126.5 48t124.5 -49.5t48.5 -121t-50 -119.5t-129 -48zM860 2101q30 0 50 -23.5t20 -53.5q0 -62 -66 -80l-397 -103l-12 29l342 211q33 20 63 20z" />
    <glyph glyph-name="aringacute" unicode="&#x1fb;" horiz-adv-x="956" 
d="M452.5 1231q51.5 0 83 34.5t31.5 88.5t-31.5 87.5t-83 33.5t-82 -33t-30.5 -87t30.5 -89t82 -35zM450 1184q-79 0 -125 49t-46 121t50 120t127 48t125 -49.5t48 -121t-50 -119.5t-129 -48zM403 59q91 0 149 34t83 77v330l-152 -17q-276 -31 -276 -219q0 -100 52.5 -152.5
t143.5 -52.5zM940 14q-56 -39 -168 -39q-56 0 -91.5 35t-41.5 82h-10q-37 -51 -116 -85t-163 -34q-141 0 -222 68t-81 189q0 212 275 276l313 74v219q0 112 -38 162.5t-169 50.5q-74 0 -99.5 -18t-30.5 -52t-12 -81.5t-83 -47.5q-94 0 -94 98q0 39 69.5 98.5t263.5 59.5
q193 0 268.5 -67.5t75.5 -192.5v-651q0 -63 36 -88q36 -24 118 -29v-27zM731 1738q0 -62 -65 -81l-398 -103l-12 29l342 211q72 44 102.5 9t30.5 -65z" />
    <glyph glyph-name="AEacute" unicode="&#x1fc;" horiz-adv-x="1798" 
d="M870 557v715h-6l-387 -715h393zM1228 1362q-124 0 -198 -19v-575h94q130 0 185 12t75 56t43 155h43v-506h-43q-28 150 -60 182t-102.5 36t-140.5 4h-94v-451q0 -74 6 -114t32 -58t80 -22.5t139 -4.5q154 0 212.5 16.5t102 104t90.5 228.5h47l-31 -406h-995v35l80 16
q43 8 60 28.5t17 86.5v326h-430l-131 -246q-53 -98 -51 -139t68 -58l57 -14v-35h-397v35l47 14q65 20 101.5 58t101.5 155l610 1088q-14 8 -53 18l-91 16v35h965l27 -342h-43q-68 159 -88 190q-20 32 -38 50t-47.5 28.5t-77.5 13.5t-172 3zM1431 1753q30 0 50 -23.5
t20 -53.5q0 -62 -65 -81l-398 -102l-12 29l342 211q33 20 63 20z" />
    <glyph glyph-name="aeacute" unicode="&#x1fd;" horiz-adv-x="1525" 
d="M1069 1010q-123 0 -198 -102t-83 -310l488 23q0 195 -42 292t-165 97zM207 264q0 -104 53 -154t138 -51q85 0 152 38t136 118q-55 125 -55 311l-142 -14q-133 -14 -207 -79t-75 -169zM453 1069q258 0 305 -151q117 152 314 152t293 -123q97 -122 95 -400h-672
q2 -244 94 -357q92 -112 238 -112q144 0 264 60q31 15 60 28v-57q-18 -12 -72 -50t-139 -61q-86 -23 -156 -23q-258 0 -366 191h-9q-87 -98 -134 -129q-93 -62 -226 -63t-214 69t-81 192t94 202t224 106l266 55v201q0 112 -27 147q-28 35 -68 50q-40 16 -113 16t-99 -18
t-31 -52q-6 -34 -8 -54q-7 -74 -86 -75q-93 1 -95 99q0 38 38 70q103 87 311 87zM996 1462q32 0 53 -22q20 -23 20 -50q0 -64 -68 -90l-376 -124l-15 28l320 234q34 24 66 24z" />
    <glyph glyph-name="Oslashacute" unicode="&#x1fe;" horiz-adv-x="1374" 
d="M1029.5 206q107.5 163 107.5 475t-111 501l-612 -1032q111 -107 272 -107q236 0 343.5 163zM686 1376q-236 0 -342 -169t-106 -495t127 -503l616 1034q-116 133 -295 133zM1094 1294q209 -196 209 -574q0 -377 -177 -561t-450 -184q-180 0 -318 84l-112 -190h-82l137 231
q-229 185 -229 577q0 393 176.5 580t449.5 187q197 0 340 -105l92 156h82zM894 1753q30 0 50.5 -23.5t20.5 -53.5q0 -61 -66 -81l-397 -102l-13 29l342 211q33 20 63 20z" />
    <glyph glyph-name="oslashacute" unicode="&#x1ff;" horiz-adv-x="1099" 
d="M559 33q301 0 301 448q0 287 -65 402l-447 -779q71 -71 211 -71zM752 940q-68 68 -207 70q-303 -1 -305 -443q0 -282 67 -405zM549 1069q137 0 246 -55l79 139h74l-100 -174q190 -142 190 -447q0 -246 -145 -402q-145 -157 -344 -157q-133 0 -244 58l-92 -162h-74
l113 197q-189 139 -191 454q0 248 144 399q144 150 344 150zM751 1462q32 0 52 -22t20 -50q0 -64 -67 -90l-377 -124l-14 28l319 234q35 24 67 24z" />
    <glyph glyph-name="Scommaaccent" unicode="&#x218;" horiz-adv-x="987" 
d="M489 1378q-270 0 -270 -235q0 -118 58 -181q58 -64 191 -133q255 -132 346 -220t89 -222q0 -182 -118 -298t-322 -116t-383 78l-23 361h47q45 -137 103 -242q41 -70 103 -98t158 -29q96 0 146 22q150 65 150 240q0 116 -68 190q-68 73 -249 164t-239 148
q-116 114 -116 273t109 262q109 104 288 104t322 -53l25 -322h-43q-65 174 -117 241q-18 24 -56 45t-131 21zM454 -268q-30 0 -52 24t-22 57q0 35 28 61t72 26t76 -32t32 -98t-49 -123q-49 -56 -156 -79l-12 29q77 33 105 67t28 82q-20 -14 -50 -14z" />
    <glyph glyph-name="scommaaccent" unicode="&#x219;" horiz-adv-x="806" 
d="M369 -25q-166 0 -306 52l-4 297h41q42 -117 69 -168q66 -121 206 -121q98 0 162 51q63 51 63 140q0 90 -58 142t-148 90q-175 74 -236 132q-84 80 -83 204q1 125 99 200t242 75t264 -45l6 -256h-35q-23 49 -41 91q-41 95 -105 130q-37 21 -121 21t-134 -49t-51 -127
q0 -78 60 -129t153 -89q92 -38 146 -66q181 -93 179 -247q0 -70 -25 -129q-52 -120 -188 -173q-66 -26 -155 -26zM272 -187q0 35 27 61t72 26t77 -32t31 -98q0 -66 -49 -123q-49 -56 -156 -79l-12 29q76 33 105 67t28 82q-21 -14 -51 -14q-28 0 -50 24t-22 57z" />
    <glyph glyph-name="uni0237" unicode="&#x237;" horiz-adv-x="489" 
d="M334 842v-842q0 -221 -91.5 -316.5t-240.5 -95.5q-78 0 -111.5 35t-33.5 73t22.5 61.5t66.5 23.5t62.5 -16.5t24.5 -57.5t15 -51t44 -10t62.5 36.5t27.5 114.5v1059q0 54 -11 68t-26.5 22t-40.5 21l-55 26v29l281 41l12 -6q-8 -100 -8 -215z" />
    <glyph glyph-name="circumflex" unicode="&#x2c6;" horiz-adv-x="970" 
d="M225 1200l230 264h59l231 -264l-16 -22l-248 145l-239 -145z" />
    <glyph glyph-name="caron" unicode="&#x2c7;" horiz-adv-x="970" 
d="M225 1444l17 20l247 -147l240 147l16 -20l-229 -266h-59z" />
    <glyph glyph-name="breve" unicode="&#x2d8;" horiz-adv-x="985" 
d="M339.5 1255.5q-63.5 75.5 -63.5 159.5l23 6q18 -53 68.5 -94t128 -41t125 42t65.5 93l23 -6q0 -84 -60 -159.5t-153 -75.5t-156.5 75.5z" />
    <glyph glyph-name="dotaccent" unicode="&#x2d9;" horiz-adv-x="1107" 
d="M554 1237q-42 0 -72.5 32.5t-30.5 72.5t30.5 72t72.5 32t72.5 -32t30.5 -72t-30.5 -72.5t-72.5 -32.5z" />
    <glyph glyph-name="ring" unicode="&#x2da;" horiz-adv-x="1007" 
d="M504 1231q51 0 82.5 34.5t31.5 88.5t-31.5 87.5t-82.5 33.5t-82 -33t-31 -87t31 -89t82 -35zM501 1184q-79 0 -125 49t-46 121t50 120t127 48t125 -49.5t48 -121t-50 -119.5t-129 -48z" />
    <glyph glyph-name="ogonek" unicode="&#x2db;" horiz-adv-x="1060" 
d="M588 -410q-82 0 -137.5 39t-55.5 93q0 90 62 149.5t157 128.5h33q-49 -59 -88 -114.5t-39 -113.5t31 -86t81 -28t95 23v-33q-57 -58 -139 -58z" />
    <glyph glyph-name="tilde" unicode="&#x2dc;" horiz-adv-x="1011" 
d="M524 1363q99 -28 138 -28q64 0 112 90l33 -14q-43 -97 -81.5 -147t-91.5 -50t-148 28t-136 28t-64.5 -24.5t-45.5 -65.5l-35 12q45 102 81 150.5t87.5 48.5t150.5 -28z" />
    <glyph glyph-name="hungarumlaut" unicode="&#x2dd;" horiz-adv-x="1017" 
d="M801 1489q25 0 47 -18.5t22 -44.5q0 -56 -47 -91l-264 -170l-24 27l186 254q29 43 80 43zM471 1489q25 0 47.5 -18.5t22.5 -44.5q0 -55 -47 -91l-265 -170l-24 27l186 254q29 43 80 43z" />
    <glyph glyph-name="Wgrave" unicode="&#x1e80;" horiz-adv-x="1873" 
d="M-6 1419h461v-35l-70 -14q-35 -8 -51.5 -23.5t-16.5 -51.5t29 -121l295 -922h10l269 813l-35 104q-38 115 -58 147t-36.5 40t-36.5 14l-60 14v35h455v-35l-62 -12q-65 -12 -65 -68q0 -46 27 -130l297 -922h10l252 899q26 102 26 138t-13 51.5t-46 25.5l-70 18v35h375v-35
l-68 -18q-43 -10 -65.5 -54t-56.5 -165l-336 -1147h-78l-318 944h-6l-315 -944h-72l-387 1180q-35 112 -54.5 140t-34.5 36t-36 14l-59 14v35zM670 1676q0 30 20 53.5t50 23.5t63 -20l342 -211l-12 -29l-398 102q-65 17 -65 81z" />
    <glyph glyph-name="wgrave" unicode="&#x1e81;" horiz-adv-x="1486" 
d="M-16 1034h411v-33l-55 -14q-35 -10 -43 -24t-8 -40t24 -100l201 -606h6l199 571l-25 68q-18 57 -38 87t-56 42l-53 16v33h373v-33l-56 -14q-29 -8 -34 -22t-5 -39t27 -103l209 -606h8l199 606q24 81 22 109t-16 38t-43 17l-53 14v33h325v-33l-53 -14q-40 -10 -54 -35
q-14 -24 -24 -51t-24 -65l-291 -836h-64l-239 690h-4l-240 -690h-70l-303 856q-25 70 -42 92t-50 33l-61 20v33zM549 1300q-65 25 -68 86q1 31 21 54q43 49 119 -2l319 -234l-14 -28z" />
    <glyph glyph-name="Wacute" unicode="&#x1e82;" horiz-adv-x="1873" 
d="M-6 1419h461v-35l-70 -14q-35 -8 -51.5 -23.5t-16.5 -51.5t29 -121l295 -922h10l269 813l-35 104q-38 115 -58 147t-36.5 40t-36.5 14l-60 14v35h455v-35l-62 -12q-65 -12 -65 -68q0 -46 27 -130l297 -922h10l252 899q26 102 26 138t-13 51.5t-46 25.5l-70 18v35h375v-35
l-68 -18q-43 -10 -65.5 -54t-56.5 -165l-336 -1147h-78l-318 944h-6l-315 -944h-72l-387 1180q-35 112 -54.5 140t-34.5 36t-36 14l-59 14v35zM1140 1753q30 0 50 -23.5t20 -53.5q0 -62 -65 -81l-397 -102l-13 29l342 211q33 20 63 20z" />
    <glyph glyph-name="wacute" unicode="&#x1e83;" horiz-adv-x="1486" 
d="M-16 1034h411v-33l-55 -14q-35 -10 -43 -24t-8 -40t24 -100l201 -606h6l199 571l-25 68q-18 57 -38 87t-56 42l-53 16v33h373v-33l-56 -14q-29 -8 -34 -22t-5 -39t27 -103l209 -606h8l199 606q24 81 22 109t-16 38t-43 17l-53 14v33h325v-33l-53 -14q-40 -10 -54 -35
q-14 -24 -24 -51t-24 -65l-291 -836h-64l-239 690h-4l-240 -690h-70l-303 856q-25 70 -42 92t-50 33l-61 20v33zM945 1462q32 0 52 -22q39 -44 8 -100q-13 -24 -55 -40l-377 -124l-14 28l320 234q34 24 66 24z" />
    <glyph glyph-name="Wdieresis" unicode="&#x1e84;" horiz-adv-x="1873" 
d="M-6 1419h461v-35l-70 -14q-35 -8 -51.5 -23.5t-16.5 -51.5t29 -121l295 -922h10l269 813l-35 104q-38 115 -58 147t-36.5 40t-36.5 14l-60 14v35h455v-35l-62 -12q-65 -12 -65 -68q0 -46 27 -130l297 -922h10l252 899q26 102 26 138t-13 51.5t-46 25.5l-70 18v35h375v-35
l-68 -18q-43 -10 -65.5 -54t-56.5 -165l-336 -1147h-78l-318 944h-6l-315 -944h-72l-387 1180q-35 112 -54.5 140t-34.5 36t-36 14l-59 14v35zM1120 1513q-43 0 -70.5 30t-27.5 70t27.5 68.5t70.5 28.5t71 -28.5t28 -68.5t-28 -70t-71 -30zM743 1513q-43 0 -70.5 30
t-27.5 70t27.5 68.5t70.5 28.5t71 -28.5t28 -68.5t-28 -70t-71 -30z" />
    <glyph glyph-name="wdieresis" unicode="&#x1e85;" horiz-adv-x="1486" 
d="M-16 1034h411v-33l-55 -14q-35 -10 -43 -24t-8 -40t24 -100l201 -606h6l199 571l-25 68q-18 57 -38 87t-56 42l-53 16v33h373v-33l-56 -14q-29 -8 -34 -22t-5 -39t27 -103l209 -606h8l199 606q24 81 22 109t-16 38t-43 17l-53 14v33h325v-33l-53 -14q-40 -10 -54 -35
q-14 -24 -24 -51t-24 -65l-291 -836h-64l-239 690h-4l-240 -690h-70l-303 856q-25 70 -42 92t-50 33l-61 20v33zM920 1231q-43 0 -71 30q-28 29 -28 69t28 69t71 29q42 0 70 -30q28 -28 28 -68t-28 -70t-70 -29zM567 1231q-43 0 -71 30q-28 29 -27 69q0 40 28 69
q29 29 71 29t70 -30q28 -28 28 -68t-28 -70t-71 -29z" />
    <glyph glyph-name="Ygrave" unicode="&#x1ef2;" horiz-adv-x="1191" 
d="M-8 1419h463v-35l-70 -16q-59 -12 -69.5 -42.5t32.5 -108.5l305 -566h6l263 549q63 123 23 141.5t-71 26.5l-67 16v35h393v-35l-49 -16q-50 -16 -83 -54t-91 -159l-279 -565v-424q0 -70 12.5 -88.5t63.5 -26.5l88 -16v-35h-487v35l88 16q47 7 61.5 25.5t14.5 89.5v403
l-363 656q-25 43 -40 69.5t-32.5 45.5t-56.5 30l-55 14v35zM385 1676q0 30 20.5 53.5t50.5 23.5t62 -20l342 -211l-12 -29l-397 102q-66 17 -66 81z" />
    <glyph glyph-name="ygrave" unicode="&#x1ef3;" horiz-adv-x="978" 
d="M160 -420q-82 0 -116 35t-34 81t28 70t73 24t63 -21t30 -49t17 -34q6 -6 21 -8q78 0 155 185l58 139l-318 854q-29 76 -46 96q-17 21 -54 33l-53 16v33h399v-33l-53 -14q-75 -23 -51 -92q14 -41 24 -70l229 -618h9l217 616q42 123 8 147q-14 9 -43 17l-53 14v33h325v-33
l-61 -16q-35 -8 -47 -31q-25 -49 -49 -118l-336 -906q-24 -66 -50 -128t-64 -111t-92 -80t-136 -31zM281 1390q0 26 20 50q43 49 119 -2l319 -234l-14 -28l-377 124q-67 26 -67 90z" />
    <glyph glyph-name="uni2009" unicode="&#x2009;" horiz-adv-x="204" 
 />
    <glyph glyph-name="endash" unicode="&#x2013;" horiz-adv-x="735" 
d="M82 623h571v-74h-571v74z" />
    <glyph glyph-name="emdash" unicode="&#x2014;" horiz-adv-x="1150" 
d="M82 623h987v-74h-987v74z" />
    <glyph glyph-name="quoteleft" unicode="&#x2018;" horiz-adv-x="372" 
d="M212 1239q28 0 53.5 -27.5t25.5 -67.5t-30 -65.5t-75 -25.5t-79.5 37.5t-34.5 114.5t54 143.5t169 97.5l12 -31q-80 -39 -113.5 -82t-33.5 -106q24 12 52 12z" />
    <glyph glyph-name="quoteright" unicode="&#x2019;" horiz-adv-x="372" 
d="M161 1260q-28 0 -53.5 27.5t-25.5 67.5t29.5 65.5t74.5 25.5t80 -38t35 -114t-54 -143.5t-169 -97.5l-12 30q80 39 113.5 82t33.5 107q-24 -12 -52 -12z" />
    <glyph glyph-name="quotesinglbase" unicode="&#x201a;" horiz-adv-x="372" 
d="M160 16q-27 0 -52.5 28t-25.5 68t29.5 65.5t74.5 25.5t80 -38.5t35 -114.5t-54 -143t-169 -97l-12 30q80 39 113.5 82t33.5 107q-26 -13 -53 -13z" />
    <glyph glyph-name="quotedblleft" unicode="&#x201c;" horiz-adv-x="694" 
d="M212 1239q28 0 53.5 -27.5t25.5 -67.5t-30 -65.5t-75 -25.5t-79.5 37.5t-34.5 114.5t54 143.5t169 97.5l12 -31q-80 -39 -113.5 -82t-33.5 -106q24 12 52 12zM533 1239q28 0 53.5 -27.5t25.5 -67.5t-29.5 -65.5t-74.5 -25.5t-80 37.5t-35 114.5t54.5 143.5t168.5 97.5
l13 -31q-80 -39 -114 -82t-34 -106q24 12 52 12z" />
    <glyph glyph-name="quotedblright" unicode="&#x201d;" horiz-adv-x="694" 
d="M483 1260q-28 0 -54 27.5t-26 67.5t30 65.5t75 25.5t80 -38t35 -114t-54.5 -143.5t-169.5 -97.5l-12 30q80 39 114 82t34 107q-24 -12 -52 -12zM161 1260q-28 0 -53.5 27.5t-25.5 67.5t29.5 65.5t74.5 25.5t80 -38t35 -114t-54 -143.5t-169 -97.5l-12 30q80 39 113.5 82
t33.5 107q-24 -12 -52 -12z" />
    <glyph glyph-name="quotedblbase" unicode="&#x201e;" horiz-adv-x="694" 
d="M482 16q-27 0 -53 28t-26 68t30 65.5t75 25.5t80 -38.5t35 -114.5t-54.5 -143t-169.5 -97l-12 30q80 39 114 82t34 107q-26 -13 -53 -13zM160 16q-27 0 -52.5 28t-25.5 68t29.5 65.5t74.5 25.5t80 -38.5t35 -114.5t-54 -143t-169 -97l-12 30q80 39 113.5 82t33.5 107
q-26 -13 -53 -13z" />
    <glyph glyph-name="dagger" unicode="&#x2020;" horiz-adv-x="849" 
d="M120 948q-30 0 -49.5 23.5t-19.5 58.5t19.5 58.5t49.5 23.5t55.5 -9t86.5 -30t139 -24q-3 78 -27 148.5t-34 99t-10 40.5q0 45 31.5 73t62.5 28t63.5 -28t32.5 -73q0 -12 -33.5 -108t-37.5 -180q79 0 163.5 31.5t116.5 31.5q31 0 50.5 -23.5t19.5 -58.5t-19.5 -58.5
t-49.5 -23.5t-114.5 31t-166.5 31q10 -154 71 -250l-74 -897h-43l-73 897q61 101 71 250q-85 0 -168 -31t-113 -31z" />
    <glyph glyph-name="daggerdbl" unicode="&#x2021;" horiz-adv-x="851" 
d="M732 287q30 0 49.5 -23.5t19.5 -58.5t-19.5 -58.5t-49.5 -23.5q-31 0 -118 30t-163 33q3 -78 27 -148.5t34 -99t10 -40.5q0 -45 -31.5 -73t-62.5 -28t-63.5 28t-32.5 73q0 12 31.5 101.5t39.5 186.5q-81 0 -163 -31.5t-114 -31.5t-52.5 23.5t-20.5 59.5t20.5 58.5
t50.5 22.5t55.5 -9.5t89 -31t134.5 -21.5q-6 72 -73 164l80 203h32l80 -203q-68 -83 -71 -164q67 0 132.5 21.5t92 31t56.5 9.5zM120 948q-30 0 -49.5 23.5t-19.5 58.5t19.5 58.5t49.5 23.5q31 0 118 -30t163 -33q-3 78 -27 148.5t-34 99t-10 40.5q0 45 31.5 73t62.5 28
t63.5 -28t32.5 -73q0 -12 -33.5 -108t-37.5 -180q81 0 163 31.5t114 31.5t52.5 -23.5t20.5 -59.5t-20.5 -58.5t-50.5 -22.5t-55.5 9.5t-89 31t-134.5 21.5q6 -72 73 -164l-80 -203h-32l-80 203q68 83 71 164q-67 0 -132.5 -21.5t-92 -31t-56.5 -9.5z" />
    <glyph glyph-name="bullet" unicode="&#x2022;" horiz-adv-x="665" 
d="M330 412q-47 0 -89 18.5t-73 50t-48.5 74.5t-17.5 92t17.5 92t48.5 75t73 50.5t89 18.5t90 -18.5t74.5 -50.5t50 -75t18.5 -92t-18.5 -92t-50 -74.5t-74.5 -50t-90 -18.5z" />
    <glyph glyph-name="ellipsis" unicode="&#x2026;" horiz-adv-x="1042" 
d="M865 -8q-44 0 -75.5 29.5t-31.5 73.5t31.5 75t75.5 31t75 -31t31 -75t-31 -73.5t-75 -29.5zM521 -8q-44 0 -75.5 29.5t-31.5 73.5t31.5 75t75.5 31t75 -31t31 -75t-31 -73.5t-75 -29.5zM177 -8q-44 0 -74.5 29.5t-30.5 73.5t30.5 75t74.5 31t75 -31t31 -75t-31 -73.5
t-75 -29.5z" />
    <glyph glyph-name="perthousand" unicode="&#x2030;" horiz-adv-x="2107" 
d="M1733 16q82 0 121.5 73t39.5 228q0 330 -160 330q-160 1 -159 -315q0 -316 158 -316zM1519.5 61q-94.5 90 -94.5 262t95.5 271.5t217.5 99.5t214 -92t92 -265t-98 -269.5t-215 -96.5t-211.5 90zM1030 16q160 0 160 316t-160 315q-160 1 -160 -315t160 -316zM1027 -29
q-118 0 -212 89.5t-94 262.5t95 272t217 99t214 -92t92 -264t-97 -269.5t-215 -97.5zM1153 1462h82l-1014 -1564h-84zM371 762q82 0 121.5 72.5t39.5 228.5q0 330 -160 330q-160 1 -159 -315q0 -316 158 -316zM157.5 807q-94.5 90 -94.5 261t95.5 271.5t217.5 100.5t214 -92
t92 -265t-98 -269.5t-215 -96.5t-211.5 90z" />
    <glyph glyph-name="guilsinglleft" unicode="&#x2039;" horiz-adv-x="540" 
d="M98 496v43l340 403h62l-240 -424l240 -426h-62z" />
    <glyph glyph-name="guilsinglright" unicode="&#x203a;" horiz-adv-x="542" 
d="M281 516l-240 426h63l340 -403v-43l-340 -404h-63z" />
    <glyph glyph-name="fraction" unicode="&#x2044;" horiz-adv-x="458" 
d="M694 1462h82l-1014 -1564h-84z" />
    <glyph glyph-name="Euro" unicode="&#x20ac;" horiz-adv-x="1128" 
d="M41 563v62h123q-2 16 -2 21v65q0 61 4 88h-125v63h131q38 291 195 436.5t362 145.5q158 0 250 -56.5t92 -140.5q0 -53 -29.5 -71.5t-72.5 -18.5t-65 26.5t-28 74.5q-11 84 -43.5 104t-113.5 20q-164 0 -266.5 -124.5t-120.5 -395.5h475l-10 -63h-469v-73q0 -73 2 -101
h434l-10 -62h-418q25 -260 125 -373.5t262 -113.5q119 0 194.5 34.5t135.5 75.5v-59q-163 -152 -368 -152q-204 0 -347 149t-170 439h-127z" />
    <glyph glyph-name="trademark" unicode="&#x2122;" horiz-adv-x="1351" 
d="M246 961v425h-6q-49 0 -71 -7t-38 -34t-53 -118h-29l8 192h482l8 -192h-29q-18 45 -27.5 69.5t-25.5 50.5t-37.5 32.5t-71.5 6.5h-6v-425q0 -29 4 -38.5t19 -13.5l55 -12v-31h-260v31l53 12q16 4 20.5 13.5t4.5 38.5zM678 991v348q0 18 -5 24.5t-22 12.5l-45 15v28h203
l145 -411h9l137 411h196v-30l-41 -13q-16 -4 -21 -12t-5 -27v-374q0 -31 3 -40.5t19 -13.5l45 -12v-29h-229v29l47 14q14 4 17.5 12.5t3.5 39.5v399h-7l-165 -477h-52l-180 477h-4v-373q0 -45 9 -59.5t38 -24.5l27 -8v-29h-195v29l23 6q29 8 39 24.5t10 63.5z" />
    <glyph glyph-name="arrowleft" unicode="&#x2190;" horiz-adv-x="1675" 
d="M733 545l164 -135q57 -48 75 -102q36 -106 -38 -186q-75 -81 -188 -63q-54 10 -103 60l-586 588v8l588 590q94 91 205 53q47 -16 82 -55t47 -87q28 -114 -82 -204l-164 -135l694 32q130 4 181 -96t2 -201q-23 -44 -69 -74t-114 -26z" />
    <glyph glyph-name="arrowright" unicode="&#x2192;" horiz-adv-x="1675" 
d="M248 512q-68 -4 -114 26q-90 59 -92 171q-2 113 91 174q45 29 115 26l694 -32l-164 135q-110 91 -82 203q12 47 47 87q73 83 184 61q54 -11 103 -58l588 -590v-8l-586 -588q-92 -92 -206 -53q-48 16 -83 54t-47 86q-28 112 82 204l164 135z" />
    <glyph glyph-name="minus" unicode="&#x2212;" horiz-adv-x="894" 
d="M68 735h759v-86h-759v86z" />
    <glyph glyph-name="approxequal" unicode="&#x2248;" horiz-adv-x="968" 
d="M475.5 780q-141.5 45 -175.5 45q-53 0 -90 -41t-54 -94l-80 29q29 76 80 134t123 58t169 -30.5t145 -45t91 -14.5t76 44t57 98l76 -35q-42 -97 -91.5 -145t-116.5 -48q-68 0 -209.5 45zM475.5 481q-141.5 45 -175.5 45q-53 0 -90 -41t-54 -94l-80 29q29 76 80 134t123 58
t169 -30.5t145 -45t91 -14.5t76 44t57 98l76 -35q-42 -97 -91.5 -145t-116.5 -48q-68 0 -209.5 45z" />
    <glyph glyph-name="notequal" unicode="&#x2260;" horiz-adv-x="968" 
d="M82 870h461l145 267h100l-145 -267h244v-86h-291l-125 -227h416v-84h-461l-145 -266h-101l146 266h-244v84h289l125 227h-414v86z" />
    <glyph glyph-name="lessequal" unicode="&#x2264;" horiz-adv-x="894" 
d="M68 629v84l759 336v-97l-659 -280l659 -281v-96zM68 86h759v-86h-759v86z" />
    <glyph glyph-name="greaterequal" unicode="&#x2265;" horiz-adv-x="894" 
d="M68 295v96l659 281l-659 280v97l759 -336v-84zM827 0h-759v86h759v-86z" />
    <glyph glyph-name="uni24C5" unicode="&#x24c5;" horiz-adv-x="1613" 
d="M1322 281.5q134 142.5 134 422.5q0 279 -183 473.5t-467 194.5q-282 0 -465 -194t-183 -474q0 -279 184 -475t464 -196q142 0 262 53t254 195.5zM807 -29q-154 0 -287 57.5t-231.5 158t-153.5 233.5t-55 284.5t55 284.5t153.5 231.5t231.5 156t287 57.5t287 -57.5
t230 -156t153.5 -231.5t56.5 -284.5t-56.5 -284.5t-153.5 -233.5t-230 -158t-287 -57.5zM827 1051q-72 0 -106 -13v-579q0 -67 9.5 -81t43.5 -18l47 -8v-35h-317v35l28 6q31 6 40.5 22.5t9.5 76.5v506q0 57 -9 74.5t-47 25.5l-22 4v35h332q294 0 294 -230q0 -113 -66.5 -174
t-178.5 -61q-42 0 -70 8v31q80 5 122 45t42 143q0 104 -40 145.5t-112 41.5z" />
    <glyph glyph-name="square" unicode="&#x25a0;" horiz-adv-x="1896" 
d="M238 1419h1421v-1419h-1421v1419z" />
    <glyph glyph-name="squareopen" unicode="&#x25a1;" horiz-adv-x="1896" 
d="M1565 90v1243h-1233v-1243h1233zM238 1419h1421v-1419h-1421v1419z" />
    <glyph glyph-name="triangleup" unicode="&#x25b2;" horiz-adv-x="1697" 
d="M104 0v29l725 1454h41l727 -1454v-29h-1493z" />
    <glyph glyph-name="triangleupopen" unicode="&#x25b3;" horiz-adv-x="1761" 
d="M946 1309l-614 -1223h1233zM203 0v29l735 1454h20l738 -1454v-29h-1493z" />
    <glyph glyph-name="triangleright" unicode="&#x25b6;" horiz-adv-x="1761" 
d="M238 1456h28l1393 -735v-21l-1393 -737h-28v1493z" />
    <glyph glyph-name="trianglerightopen" unicode="&#x25b7;" horiz-adv-x="1761" 
d="M1497 711l-1165 618v-1237zM238 1456h28l1393 -735v-21l-1393 -737h-28v1493z" />
    <glyph glyph-name="triangledown" unicode="&#x25bc;" horiz-adv-x="1697" 
d="M1595 1419v-28l-725 -1454h-41l-727 1454v28h1493z" />
    <glyph glyph-name="triangledownopen" unicode="&#x25bd;" horiz-adv-x="1761" 
d="M950 111l615 1222h-1233zM1694 1419v-28l-736 -1454h-20l-737 1454v28h1493z" />
    <glyph glyph-name="triangleleft" unicode="&#x25c0;" horiz-adv-x="1761" 
d="M1524 -37h-29l-1393 737v21l1393 735h29v-1493z" />
    <glyph glyph-name="triangleleftopen" unicode="&#x25c1;" horiz-adv-x="1761" 
d="M1430 92v1237l-1166 -618zM1524 -37h-29l-1393 737v21l1393 735h29v-1493z" />
    <glyph glyph-name="circle" unicode="&#x25cb;" horiz-adv-x="1650" 
d="M823.5 -31q-153.5 0 -289 58.5t-234.5 160t-157.5 235.5t-58.5 287.5t58.5 289t157.5 234.5t234.5 157.5t289 58.5t288.5 -58.5t236.5 -157.5t160 -234.5t58.5 -289t-58.5 -287.5t-160 -235.5t-236.5 -160t-288.5 -58.5z" />
    <glyph glyph-name="circleopen" unicode="&#x25cf;" horiz-adv-x="1650" 
d="M823 55q135 0 253 52.5t205 141.5t138 207.5t51 254t-51 254t-138 208t-205 140.5t-253 51t-252.5 -51t-204.5 -140.5t-136.5 -208t-49.5 -254t49.5 -254t136.5 -207.5t204.5 -141.5t252.5 -52.5zM823.5 -31q-153.5 0 -289 58.5t-234.5 160t-157.5 235.5t-58.5 287.5
t58.5 289t157.5 234.5t234.5 157.5t289 58.5t288.5 -58.5t236.5 -157.5t160 -234.5t58.5 -289t-58.5 -287.5t-160 -235.5t-236.5 -160t-288.5 -58.5z" />
    <glyph glyph-name="star" unicode="&#x2605;" horiz-adv-x="1703" 
d="M29 907h622l193 596h16l195 -596h620v-16l-497 -356l194 -592l-14 -9l-506 361l-506 -365l-14 9l196 596l-499 356v16z" />
    <glyph glyph-name="staropen" unicode="&#x2606;" horiz-adv-x="1703" 
d="M854 397l381 -286l-156 454l389 266h-469l-147 453l-147 -453h-467l387 -266l-156 -454zM29 907h622l193 596h16l195 -596h620v-16l-497 -356l194 -592l-14 -9l-506 361l-506 -365l-14 9l196 596l-499 356v16z" />
    <glyph glyph-name="space_uni0326" horiz-adv-x="1044" 
d="M428 -187q0 34 26.5 60.5t71.5 26.5t77 -32t32 -98t-49 -123t-156 -79l-12 29q76 33 104.5 67.5t28.5 81.5q-21 -14 -51 -14q-29 0 -50.5 23.5t-21.5 57.5z" />
    <glyph glyph-name="caron.alt" horiz-adv-x="1044" 
d="M752 1476q0 -32 -23 -71l-121 -236l-28 7l14 280q5 90 74 90q39 0 61.5 -19t22.5 -51z" />
    <glyph glyph-name="space_uni0326.alt" horiz-adv-x="1044" 
d="M610 1318q0 -34 -26.5 -60.5t-71.5 -26.5t-77 31.5t-32 98.5t49.5 123t155.5 79l13 -29q-76 -33 -105 -67.5t-29 -82.5q22 15 51 15t50.5 -23.5t21.5 -57.5z" />
    <glyph glyph-name="acute.pl" horiz-adv-x="1044" 
d="M614 1556q30 0 56 -20t26 -55t-28 -68l-222 -235l-26 16l117 295q22 67 77 67z" />
    <glyph glyph-name="Cacute.pl" horiz-adv-x="1226" 
d="M683 -25q-435 0 -523 263.5t-88 465.5q0 383 194 561.5t482 178.5q194 0 366 -53l25 -383h-41q-56 160 -87 210q-32 50 -76 104t-204 54q-237 0 -363 -151t-126 -488q0 -533 166 -613.5t256 -80.5q146 0 245.5 52.5t136.5 159.5t60 179h39l-25 -377q-184 -82 -437 -82z
M833 1829q30 0 57.5 -21.5t27.5 -56.5t-41 -70l-215 -190l-25 20l117 250q31 68 79 68z" />
    <glyph glyph-name="Nacute.pl" horiz-adv-x="1359" 
d="M293 199q0 -70 12 -98.5t64 -43.5l88 -22v-35h-402v35l80 22q45 12 61.5 42t16.5 100v1054q0 69 -16 88t-62 27l-80 16v35h334l696 -1126h7v928q0 68 -12.5 100.5t-63.5 42.5l-103 20v35h416v-35l-80 -20q-51 -12 -64.5 -44t-13.5 -97v-1233h-79l-793 1276h-6v-1067z
M855 1829q30 0 57.5 -21.5t27.5 -57.5t-41 -69l-215 -190l-25 20l117 250q31 68 79 68z" />
    <glyph glyph-name="Oacute.pl" horiz-adv-x="1374" 
d="M1137 686q0 299 -112.5 494.5t-343.5 195.5t-337 -169t-106 -480t117.5 -497.5t341.5 -186.5q440 0 440 643zM72 709q0 361 176.5 548t448.5 187q271 0 438.5 -194.5t167.5 -550.5t-177 -540t-453 -184q-265 0 -433 186.5t-168 547.5zM824 1829q30 0 57.5 -21.5
t27.5 -57.5t-41 -69l-215 -190l-24 20l116 250q30 68 79 68z" />
    <glyph glyph-name="Sacute.pl" horiz-adv-x="987" 
d="M489 1378q-270 0 -270 -235q0 -115 57.5 -180t191.5 -134q256 -132 345.5 -219t89.5 -223q0 -181 -118.5 -297.5t-323.5 -116.5t-381 78l-23 361h47q49 -148 96 -230q48 -82 110 -110.5t158 -28.5t147 21.5t100 75.5t49 168q0 113 -65 183.5t-249 164.5
q-183 94 -241.5 151t-87.5 120.5t-29 146.5q0 163 108.5 267.5t288.5 104.5t322 -53l25 -322h-43q-45 121 -59.5 147.5t-28.5 50.5q-33 57 -77 83t-139 26zM675 1807.5q27 -21.5 27 -56.5t-40 -70l-216 -190l-24 20l117 250q31 68 79 68q30 0 57 -21.5z" />
    <glyph glyph-name="Zacute.pl" horiz-adv-x="1095" 
d="M864 1362h-164q-268 0 -326.5 -11.5t-84 -31t-53.5 -70.5t-78 -200h-41l24 370h895v-57l-805 -1296v-9h148q275 0 357.5 16.5t108 35t52.5 66.5t90 228h45l-33 -403h-948v59l813 1295v8zM698 1829q30 0 57 -21.5t27 -57.5t-41 -69l-215 -190l-24 20l116 250q31 68 80 68z
" />
    <glyph glyph-name="cacute.pl" horiz-adv-x="925" 
d="M560 76q173 0 319 86v-60q-76 -76 -224 -113q-55 -14 -147 -14t-180 39q-266 118 -267 508q-1 140 55 250q106 210 311 268q93 27 171 27q154 0 218 -47t65 -117q0 -41 -26 -69t-74 -27t-66 23t-29 80t-34 75q-22 17 -89 18q-139 2 -235 -111q-97 -113 -97 -341
q0 -227 78 -351t251 -124zM662 1556q30 0 64 -25q33 -25 13 -83q-6 -16 -22 -35l-221 -235l-27 16l117 295q21 67 76 67z" />
    <glyph glyph-name="idotaccent" 
d="M251 1237q-42 0 -73 32.5t-31 72.5t31 72t73 32t72.5 -32t30.5 -72t-30.5 -72.5t-72.5 -32.5zM334 840v-680q0 -59 12 -78t55 -31l68 -18v-33h-422v33l68 18q45 12 56 31.5t11 77.5v696q0 54 -11 68t-26.5 22t-40.5 21l-55 26v29l281 41l12 -6q-8 -100 -8 -217z" />
    <glyph glyph-name="nacute.pl" horiz-adv-x="1150" 
d="M700 1067q165 0 223 -68t58 -204v-635q0 -56 11 -76t57 -33l69 -18v-33h-430v33l70 18q45 13 58 31t13 78v600q0 115 -39 159q-40 44 -142 44t-182 -24q-81 -24 -132 -42v-737q0 -58 13 -78t59 -31l71 -18v-33h-430v33l68 18q45 11 56 31t11 78v696q0 53 -11 67
q-11 15 -27 23t-40 21l-55 26v29l273 41l14 -6l-4 -113h6q197 123 362 123zM708 1556q30 0 56 -20t27 -54q0 -34 -29 -69l-221 -235l-27 16l117 295q22 67 77 67z" />
    <glyph glyph-name="oacute.pl" horiz-adv-x="1099" 
d="M559 33q305 1 305 489t-319 488q-309 0 -309 -465q-1 -512 323 -512zM61 516q0 253 144 403t352 150q209 0 345 -138t136 -391q0 -254 -145 -410q-145 -157 -355 -157t-344 145t-133 398zM679 1556q31 0 57 -20t26 -55t-29 -68l-221 -235l-27 16l117 295q22 67 77 67z
" />
    <glyph glyph-name="sacute.pl" horiz-adv-x="806" 
d="M369 -25q-166 0 -306 52l-4 297h41q42 -117 69 -168q66 -121 206 -121q98 0 162 51q63 51 63 140q0 90 -58 142t-148 90q-175 74 -236 132q-84 80 -83 204q1 125 99 200t242 75t264 -45l6 -256h-35q-23 49 -41 91q-41 95 -105 130q-37 21 -121 21t-134 -49t-51 -127
q0 -78 60 -129t153 -89q92 -38 146 -66q181 -93 179 -247q0 -70 -25 -129q-52 -120 -188 -173q-66 -26 -155 -26zM542 1556q30 0 56 -20t27 -54q0 -34 -29 -69l-221 -235l-27 16l117 295q22 67 77 67z" />
    <glyph glyph-name="zacute.pl" horiz-adv-x="903" 
d="M672 981h-217q-127 0 -158 -12q-31 -13 -45 -31q-54 -71 -113 -209h-35l11 305h753v-30l-630 -943v-8h184q170 1 212 17t60 36q56 62 115 226h37l-19 -332h-782v37l627 936v8zM638 1556q30 0 56 -20t27 -55q0 -35 -29 -68l-221 -235l-27 16l117 295q22 67 77 67z" />
    <glyph glyph-name="J.alt" horiz-adv-x="770" 
d="M569 410q0 -435 -368 -435q-84 0 -132.5 35t-48.5 94q0 29 21 53.5t77 24.5t75.5 -27.5t27.5 -63.5t16.5 -46t30.5 -10q142 0 142 327v891q0 71 -13.5 89.5t-62.5 25.5l-88 16v35h479v-35l-84 -16q-48 -8 -60 -26.5t-12 -88.5v-843z" />
    <glyph glyph-name="R.alt" horiz-adv-x="1226" 
d="M498 731q178 0 270 73t92 236q0 263 -113.5 292.5t-210.5 29.5t-163 -14v-609q72 -8 125 -8zM373 166q0 -70 12 -88.5t64 -26.5l90 -16l-2 -35h-482v35l80 16q43 7 60.5 27.5t17.5 87.5v1087q0 69 -16 88t-62 27l-80 16v35h523q223 0 335.5 -93t112.5 -271
q0 -135 -95 -231.5t-304 -131.5v-6q179 -56 275 -240q50 -96 74.5 -144t51.5 -97t58 -86t52 -50.5t50 -21.5l49 -12v-35h-279q-57 102 -113.5 221t-102.5 207t-71.5 131t-66 78t-155.5 35h-76v-506z" />
    <glyph glyph-name="Jcircumflex.alt" horiz-adv-x="770" 
d="M569 410q0 -435 -368 -435q-84 0 -132.5 35t-48.5 94q0 29 21 53.5t77 24.5t75.5 -27.5t27.5 -63.5t16.5 -46t30.5 -10q142 0 142 327v891q0 71 -13.5 89.5t-62.5 25.5l-88 16v35h479v-35l-84 -16q-48 -8 -60 -26.5t-12 -88.5v-843zM209 1511l246 242h59l248 -242
l-12 -24l-269 125l-260 -125z" />
    <glyph glyph-name="IJ.alt" horiz-adv-x="1368" 
d="M1167 410q0 -435 -368 -435q-84 0 -132.5 35t-48.5 94q0 29 22 53.5t77 24.5t74.5 -27.5t27.5 -63.5t16.5 -46t30.5 -10q142 0 142 327v891q0 71 -13.5 89.5t-62.5 25.5l-88 16v35h479v-35l-84 -16q-48 -8 -60 -26.5t-12 -88.5v-843zM219 1253q0 70 -13 89t-63 26l-88 16
v35h488v-35l-88 -16q-53 -8 -64.5 -27t-11.5 -88v-1087q0 -70 12 -88.5t64 -26.5l88 -16v-35h-488v35l88 16q49 7 62.5 26t13.5 89v1087z" />
    <glyph glyph-name="Racute.alt" horiz-adv-x="1226" 
d="M498 731q178 0 270 73t92 236q0 263 -113.5 292.5t-210.5 29.5t-163 -14v-609q72 -8 125 -8zM373 166q0 -70 12 -88.5t64 -26.5l90 -16l-2 -35h-482v35l80 16q43 7 60.5 27.5t17.5 87.5v1087q0 69 -16 88t-62 27l-80 16v35h523q223 0 335.5 -93t112.5 -271
q0 -135 -95 -231.5t-304 -131.5v-6q179 -56 275 -240q50 -96 74.5 -144t51.5 -97t58 -86t52 -50.5t50 -21.5l49 -12v-35h-279q-57 102 -113.5 221t-102.5 207t-71.5 131t-66 78t-155.5 35h-76v-506zM788 1753q30 0 50 -23.5t20 -53.5q0 -61 -65 -81l-398 -102l-12 29
l342 211q33 20 63 20z" />
    <glyph glyph-name="Rcaron.alt" horiz-adv-x="1226" 
d="M498 731q178 0 270 73t92 236q0 263 -113.5 292.5t-210.5 29.5t-163 -14v-609q72 -8 125 -8zM373 166q0 -70 12 -88.5t64 -26.5l90 -16l-2 -35h-482v35l80 16q43 7 60.5 27.5t17.5 87.5v1087q0 69 -16 88t-62 27l-80 16v35h523q223 0 335.5 -93t112.5 -271
q0 -135 -95 -231.5t-304 -131.5v-6q179 -56 275 -240q50 -96 74.5 -144t51.5 -97t58 -86t52 -50.5t50 -21.5l49 -12v-35h-279q-57 102 -113.5 221t-102.5 207t-71.5 131t-66 78t-155.5 35h-76v-506zM856 1737l-246 -242h-59l-248 242l12 24l269 -125l260 125z" />
    <glyph glyph-name="Rcommaaccent.alt" horiz-adv-x="1226" 
d="M498 731q178 0 270 73t92 246t-72 242q-72 70 -211 70q-138 0 -204 -14v-609q72 -8 125 -8zM373 166q0 -68 12 -88t64 -27l90 -16l-2 -35h-482v35l80 16q44 8 61 28q17 21 17 87v1087q0 69 -16 88t-62 27l-80 16v35h523q224 0 336 -93t112 -271q0 -135 -95 -231
t-304 -132v-6q179 -56 275 -240q132 -255 166 -304q34 -50 63 -68t57 -27l49 -12v-35h-279q-57 102 -113 221q-165 351 -223 401t-173 50h-76v-506zM569 -187q0 35 27 61t72 26q44 0 76 -32t32 -98t-49 -123q-49 -56 -156 -79l-12 29q76 33 105 67t28 82q-20 -14 -50 -14
t-52 24t-21 57z" />
    <glyph glyph-name="registered.alt" horiz-adv-x="1613" 
d="M760 721q190 1 190 151q0 119 -35 149t-111.5 30t-107.5 -9v-317q20 -4 24 -4h40zM696 670v-240q0 -43 7.5 -53t33.5 -15l58 -10v-35h-316v35l58 10q18 4 26 14.5t8 53.5v557q0 41 -8 52.5t-26 15.5l-58 12v35h334q270 0 270 -201q0 -66 -47 -119t-135 -80v-4
q106 -192 193 -307q16 -20 57 -33l25 -6v-35h-177q-124 157 -211 353h-92zM1322 281.5q134 142.5 134 422.5q0 279 -183 473.5t-467 194.5q-282 0 -465 -194t-183 -474q0 -279 184 -475t464 -196q142 0 262 53t254 195.5zM807 -29q-154 0 -287 57.5t-231.5 158t-153.5 233.5
t-55 284.5t55 284.5t153.5 231.5t231.5 156t287 57.5t287 -57.5t230 -156t153.5 -231.5t56.5 -284.5t-56.5 -284.5t-153.5 -233.5t-230 -158t-287 -57.5z" />
    <glyph glyph-name="uni021A" horiz-adv-x="1150" 
d="M655 1360v-1194q0 -69 13 -88t63 -27l88 -16v-35h-487v35l88 16q49 7 63 27q13 19 13 88v1194h-60q-218 0 -258 -66q-32 -52 -96 -270h-49l22 395h1041l22 -395h-49q-65 222 -88 258q-22 34 -68 56t-198 22h-60zM548 -268q-30 0 -52 24t-21 57q0 35 27 61q28 26 72 26
t76 -32t32 -98t-49 -123q-49 -56 -156 -79l-12 29q77 33 105 67t28 82q-20 -14 -50 -14z" />
    <glyph glyph-name="uni021B" horiz-adv-x="622" 
d="M309 188q0 -185 299 -92v-39q-167 -111 -316 -72q-80 19 -116 93q-18 37 -18 92v791h-146v32q98 29 163 93t106 182h28v-234h285l-8 -73h-277v-773zM304 -268q-30 0 -52 24t-21 57q0 35 27 61t72 26t77 -32q31 -32 31 -98t-49 -123q-49 -56 -156 -79l-12 29q76 33 105 67
t28 82q-20 -14 -50 -14z" />
    </font>
</defs>
</svg>
