<?xml version="1.0" standalone="no"?>
<!DOCTYPE svg PUBLIC "-//W3C//DTD SVG 1.1//EN" "http://www.w3.org/Graphics/SVG/1.1/DTD/svg11.dtd" >
<svg xmlns="http://www.w3.org/2000/svg">
<metadata>
Created by FontPrep 20130207 at Wed Apr 13 12:19:07 2016
 By Dan
(c)2010 Paul Barnes and Christian Schwartz, under exclusive license to Schwartzco Inc./Commercial Type. All rights reserved.
</metadata>
<defs>
<font id="5058f1af8388633f609cadb75a75dc9d" horiz-adv-x='1024' >
  <font-face 
    font-family="."
    font-weight="400"
    font-stretch="normal"
    units-per-em="2048"
    panose-1="2 0 6 3 8 0 0 2 0 4"
    ascent="1640"
    descent="-408"
    x-height="1042"
    cap-height="1419"
    bbox="-303 -502 2157 2145.27"
    underline-thickness="40"
    underline-position="-272"
    unicode-range="U+0020-FB04"
  />
<missing-glyph 
 />
    <glyph glyph-name="f_f" unicode="ff" horiz-adv-x="1218" 
d="M780 1415q0 -96 -93 -96t-107 94q-7 51 -38 51q-71 0 -118 -56.5t-47 -186.5v-179h397v95q0 188 125 300.5t274.5 112.5t193.5 -33.5t44 -79.5t-25.5 -74t-77.5 -28q-96 0 -110 103q-4 29 -11 40t-34 11q-69 0 -123.5 -58.5t-54.5 -185.5v-203h229l-20 -84h-209v-784
q0 -72 10 -91.5t43 -25.5l109 -22v-35h-492v35l76 22q29 8 41 27.5t12 79.5v794h-397v-784q0 -72 9 -90t44 -27l82 -22v-35h-471v35l82 22q29 8 41 27.5t12 79.5v794h-141v37l141 49v68q0 185 120.5 299.5t303.5 114.5q98 0 139 -34t41 -77z" />
    <glyph glyph-name="f_i" unicode="fi" horiz-adv-x="1140" 
d="M975 870v-706q0 -65 10 -82t43 -25l82 -22v-35h-465v35l76 22q29 8 41 27.5t12 79.5v686q0 61 -19.5 84.5t-60.5 23.5h-317v-784q0 -72 9 -90t44 -27l82 -22v-35h-471v35l82 22q29 8 41 27.5t12 79.5v794h-141v37l141 49v62q0 210 131.5 327t351.5 117q121 0 171.5 -37
t50.5 -85t-26 -76.5t-80 -28.5q-100 0 -116 121q-4 25 -16 35t-49 10q-92 0 -154.5 -62.5t-62.5 -212.5v-172h371l221 29l14 -8q-8 -108 -8 -193z" />
    <glyph glyph-name="f_l" unicode="fl" horiz-adv-x="1140" 
d="M975 1290v-1126q0 -65 10 -82t43 -25l82 -22v-35h-465v35l76 22q29 8 41 27.5t12 79.5v1163q-99 4 -115 117q-4 25 -16 35t-49 10q-92 0 -154.5 -62.5t-62.5 -212.5v-172h229l-20 -84h-209v-784q0 -72 9 -90t44 -27l82 -22v-35h-471v35l82 22q29 8 41 27.5t12 79.5v794
h-141v37l141 49v62q0 210 131.5 327t351.5 117q161 0 213 -71l97 67l14 -12q-8 -132 -8 -244z" />
    <glyph glyph-name="f_f_i" unicode="ffi" horiz-adv-x="1736" 
d="M780 1415q0 -96 -93 -96t-107 94q-7 51 -38 51q-71 0 -118 -56.5t-47 -186.5v-179h397v64q0 210 131.5 327t351.5 117q121 0 171.5 -37t50.5 -85t-26 -76.5t-80 -28.5q-100 0 -116 121q-4 25 -16 35t-49 10q-92 0 -154.5 -62.5t-62.5 -212.5v-172h371l221 29l14 -8
q-8 -108 -8 -193v-706q0 -65 10 -82t43 -25l82 -22v-35h-465v35l76 22q29 8 41 27.5t12 79.5v686q0 61 -19.5 84.5t-60.5 23.5h-317v-784q0 -72 9 -90t44 -27l82 -22v-35h-465v35l76 22q29 8 41 27.5t12 79.5v794h-397v-784q0 -72 9 -90t44 -27l82 -22v-35h-471v35l82 22
q29 8 41 27.5t12 79.5v794h-141v37l141 49v68q0 185 120.5 299.5t303.5 114.5q98 0 139 -34t41 -77z" />
    <glyph glyph-name="f_f_l" unicode="ffl" horiz-adv-x="1738" 
d="M780 1415q0 -96 -93 -96t-107 94q-7 51 -38 51q-71 0 -118 -56.5t-47 -186.5v-179h397v64q0 210 131.5 327t351.5 117q161 0 213 -71l97 67l14 -12q-8 -132 -8 -244v-1126q0 -65 10 -82t43 -25l82 -22v-35h-465v35l76 22q29 8 41 27.5t12 79.5v1163q-99 4 -115 117
q-4 25 -16 35t-49 10q-92 0 -154.5 -62.5t-62.5 -212.5v-172h229l-20 -84h-209v-784q0 -72 9 -90t44 -27l82 -22v-35h-471v35l82 22q29 8 41 27.5t12 79.5v794h-397v-784q0 -72 9 -90t44 -27l82 -22v-35h-471v35l82 22q29 8 41 27.5t12 79.5v794h-141v37l141 49v68
q0 185 120.5 299.5t303.5 114.5q98 0 139 -34t41 -77z" />
    <glyph glyph-name=".notdef" 
 />
    <glyph glyph-name=".null" horiz-adv-x="0" 
 />
    <glyph glyph-name="nonmarkingreturn" horiz-adv-x="681" 
 />
    <glyph glyph-name="space" unicode=" " horiz-adv-x="438" 
 />
    <glyph glyph-name="exclam" unicode="!" horiz-adv-x="532" 
d="M284 1438q42 0 84 -40t33 -122l-104 -879h-51l-105 879q-11 114 45 138t98 24zM269 -10q-52 0 -89 37t-37 89t37 88t89 36t91 -36t39 -88t-39 -89t-91 -37z" />
    <glyph glyph-name="quotedbl" unicode="&#x22;" horiz-adv-x="673" 
d="M391 1292q-19 73 14.5 111.5t85.5 38.5t86 -37t15 -113l-88 -321h-33zM266.5 1405q33.5 -37 14.5 -113l-80 -321h-33l-88 321q-28 110 25 130t90.5 20t71 -37z" />
    <glyph glyph-name="numbersign" unicode="#" horiz-adv-x="1071" 
d="M633 553l65 319h-262l-65 -319h262zM256 401h-188l24 152h197l65 319h-188l24 152h197l82 395h82l-82 -395h262l82 395h82l-82 -395h191l-25 -152h-199l-65 -319h190l-24 -152h-199l-82 -401h-82l82 401h-262l-82 -401h-82z" />
    <glyph glyph-name="dollar" unicode="$" horiz-adv-x="1007" 
d="M240 1133q0 -133 78.5 -186.5t140.5 -84.5v506q-111 -12 -165 -77.5t-54 -157.5zM760 321q0 121 -81 180.5t-149 92.5v-555q125 10 177.5 85.5t52.5 196.5zM27 215q0 47 30.5 73.5t80.5 26.5t76 -34.5t31 -90.5t14 -79t39.5 -46.5t160.5 -27.5v590q-209 90 -299 188
t-90 247t111.5 253.5t277.5 118.5v131h71v-129q184 -7 279.5 -67.5t95.5 -139.5q0 -47 -29.5 -75t-80.5 -28t-78 34t-34 100t-34.5 87t-118.5 25v-545q223 -99 316.5 -198t93.5 -262t-114.5 -270.5t-295.5 -121.5v-200h-71v198q-227 6 -329.5 75t-102.5 167z" />
    <glyph glyph-name="percent" unicode="%" horiz-adv-x="1478" 
d="M1194 1462h94l-1038 -1564h-94zM938 346q0 -323 152 -323t151 312q0 312 -151 312q-74 0 -113 -68.5t-39 -232.5zM762 327q0 175 105 273t226 98q120 0 222 -93.5t102 -263.5q0 -171 -106 -270.5t-227 -99.5q-118 0 -220 90.5t-102 265.5zM539 1063q-1 326 -151 326
q-150 -1 -150 -313t149 -312q74 0 113 68.5t39 230.5zM161.5 805q-100.5 92 -100.5 265t105 271.5t224 98.5t222 -92.5t103 -265.5t-106.5 -271t-226.5 -98t-220.5 92z" />
    <glyph glyph-name="ampersand" unicode="&#x26;" horiz-adv-x="1382" 
d="M788 1162q0 112 -47 163t-119 51t-115.5 -53t-43.5 -166.5t129 -294.5q102 59 149 123.5t47 176.5zM293 408q0 -152 75.5 -251.5t221.5 -99.5q92 0 160.5 32t107.5 73q-237 286 -422 577q-143 -119 -143 -331zM545 -27q-262 0 -373 117t-111 277q0 198 138.5 290.5
t206.5 128.5q-125 175 -125 322t109.5 241.5t242.5 94.5t233.5 -73.5t100.5 -205.5q0 -156 -134.5 -232.5t-209.5 -113.5q168 -255 358 -491q49 86 68.5 165.5t19.5 122.5t-19.5 59.5t-54.5 24.5l-63 13v37h409v-37l-61 -17q-37 -10 -54.5 -34.5t-41.5 -77.5t-60.5 -136
t-93.5 -180q44 -54 70 -83t44 -49t32 -34t29.5 -28.5t37.5 -18.5l74 -18v-37h-320q-22 26 -94 111q-171 -138 -358 -138z" />
    <glyph glyph-name="quotesingle" unicode="'" horiz-adv-x="362" 
d="M266 1405q34 -37 15 -113l-84 -321h-33l-84 321q-28 110 25 130t90 20t71 -37z" />
    <glyph glyph-name="parenleft" unicode="(" horiz-adv-x="641" 
d="M90 618q0 276 146 512.5t342 395.5l40 -37q-143 -151 -236 -371t-93 -459q0 -559 329 -911l-40 -37q-488 395 -488 907z" />
    <glyph glyph-name="parenright" unicode=")" horiz-adv-x="641" 
d="M23 -252q329 357 329 868t-329 873l40 37q488 -395 488 -908q0 -275 -146 -511.5t-342 -395.5z" />
    <glyph glyph-name="asterisk" unicode="*" horiz-adv-x="716" 
d="M366 1440q24 0 49 -23.5t11 -75.5l-59 -194l163 119q39 29 71 12.5t42 -48.5t-5 -59.5t-65 -31.5l-202 -11l164 -120q41 -31 35 -68t-32 -54t-61 -11t-51 53l-68 192l-69 -192q-16 -47 -50 -54t-62 12t-33 56t36 66l166 120l-203 11q-49 4 -64 33.5t-5 59.5t40.5 46
t71.5 -12l164 -119l-59 194q-14 47 3 68t32.5 26t39.5 5z" />
    <glyph glyph-name="plus" unicode="+" horiz-adv-x="921" 
d="M408 647h-336v90h336v379h106v-379h336v-90h-336v-379h-106v379z" />
    <glyph glyph-name="comma" unicode="," horiz-adv-x="450" 
d="M194 8q-42 0 -75 33t-33 84t38 83t94 32t101.5 -45t45.5 -141t-72 -176.5t-219 -117.5l-13 33q102 47 146.5 103.5t44.5 128.5q-16 -17 -58 -17z" />
    <glyph glyph-name="hyphen" unicode="-" horiz-adv-x="550" 
d="M74 672h422l-19 -152h-422z" />
    <glyph glyph-name="period" unicode="." horiz-adv-x="425" 
d="M213 -10q-53 0 -90 35.5t-37 89t37 89.5t90 36t90 -36t37 -89.5t-37 -89t-90 -35.5z" />
    <glyph glyph-name="slash" unicode="/" horiz-adv-x="755" 
d="M621 1503h94l-621 -1769h-94z" />
    <glyph glyph-name="zero" unicode="0" horiz-adv-x="1267" 
d="M299 725q0 -680 251 -680t336 152.5t85 498.5q0 678 -336 678q-164 0 -250 -154.5t-86 -494.5zM629 -25q-94 0 -193.5 39t-232.5 178.5t-133 502.5t137 513t238.5 193t195.5 43t192.5 -40t231.5 -181t133 -503t-137 -511.5t-237.5 -191.5t-194.5 -42z" />
    <glyph glyph-name="one" unicode="1" horiz-adv-x="702" 
d="M252 178v1026h-191v37q140 28 228.5 73.5t150.5 119.5l31 -7v-1249q0 -77 11 -96t53 -27l106 -18v-37h-575v37l116 18q37 4 53.5 27t16.5 96z" />
    <glyph glyph-name="two" unicode="2" horiz-adv-x="1030" 
d="M651.5 1299.5q-71.5 74.5 -170.5 74.5q-100 0 -129.5 -23t-37.5 -83q-17 -135 -124 -135q-59 0 -84.5 33.5t-25.5 72.5t28.5 77t82 65.5t130 45t226.5 17.5t275.5 -105t125.5 -301q0 -279 -295 -514t-432 -336v-8h510q82 0 108.5 21.5t45 53.5t45.5 85h37l-33 -340h-901
v109q212 177 302.5 270t139.5 147t97.5 113t99.5 154t51 264q0 168 -71.5 242.5z" />
    <glyph glyph-name="three" unicode="3" horiz-adv-x="1015" 
d="M23 184q0 39 26.5 72t85.5 33q90 0 121 -101q12 -43 20.5 -71.5t29.5 -50t107 -21.5q154 0 225 96t71 249q0 152 -63.5 232t-227.5 80h-111v70h90q145 0 209 75t64 232q0 295 -244 295q-61 0 -88 -17.5t-35 -86.5q-16 -137 -119 -137q-59 0 -85.5 32.5t-26.5 77.5
t33.5 84t118.5 78t213 39q226 0 338 -95.5t112 -229.5q0 -288 -338 -369v-7q186 -20 286.5 -110t100.5 -252t-136 -284t-414 -122q-158 0 -260.5 54.5t-102.5 154.5z" />
    <glyph glyph-name="four" unicode="4" horiz-adv-x="1116" 
d="M637 530v637h-6l-479 -632v-5h485zM637 178v240h-600v82l700 919h113v-889h221l-22 -112h-199v-240q0 -77 11 -96t52 -27l97 -18v-37h-529v37l92 18q54 6 59 45t5 78z" />
    <glyph glyph-name="five" unicode="5" horiz-adv-x="1036" 
d="M450 909q226 0 366 -114t140 -333q0 -220 -155 -353.5t-367 -133.5q-256 0 -312 75t-56 120t26.5 81t82.5 36t88 -28t42 -81q17 -91 40.5 -112t96.5 -21q328 0 328 354q0 248 -143.5 286t-249.5 38t-209 -37l-14 12l79 721h549q41 0 60.5 19.5t50.5 87.5h39l-37 -287
h-604l-45 -362q93 32 204 32z" />
    <glyph glyph-name="six" unicode="6" horiz-adv-x="1128" 
d="M297 616q0 -256 39 -360t97.5 -157.5t144.5 -53.5q153 0 206.5 91t53.5 267q0 363 -265 363q-162 0 -274 -78l-1 -9zM1051 1274q0 -107 -106 -107q-56 0 -83.5 30t-41.5 83t-32 73.5t-76 20.5t-128 -30.5t-169 -150t-114 -445.5q144 110 334 110t307 -115.5t117 -317.5
q0 -201 -139 -325.5t-330 -124.5q-225 0 -372.5 167.5t-147.5 459.5q0 223 62.5 383t159.5 261.5t216.5 149.5t209.5 48q332 0 333 -170z" />
    <glyph glyph-name="seven" unicode="7" horiz-adv-x="980" 
d="M211 1241q-52 0 -73.5 -24.5t-57.5 -114.5h-39l35 317h882v-92q-207 -310 -327.5 -620.5t-181.5 -706.5h-224q125 518 322.5 821t281.5 420h-618z" />
    <glyph glyph-name="eight" unicode="8" horiz-adv-x="1089" 
d="M549 1374q-117 0 -183.5 -61.5t-66.5 -165.5q0 -144 148.5 -229.5t209.5 -118.5q70 70 107 136t37 187t-67.5 186.5t-184.5 65.5zM558 43q138 0 212 72.5t74 188.5t-100 192t-318 196q-83 -71 -130.5 -146t-47.5 -209q0 -135 86 -214.5t224 -79.5zM127 1081
q0 156 124 259.5t300 103.5t301 -86.5t125 -233.5t-109.5 -232t-162.5 -120v-6q166 -96 221 -156.5t77.5 -114t22.5 -125.5t-35 -146t-136.5 -162.5t-298.5 -88.5t-345 93.5t-148 271.5q0 203 314 379v6q-250 141 -250 358z" />
    <glyph glyph-name="nine" unicode="9" horiz-adv-x="1128" 
d="M291 1004q0 -351 264 -351q162 0 274 78l1 9l1 63q0 255 -38.5 360t-97 158t-144.5 53q-152 0 -206 -91t-54 -279zM827 672q-146 -111 -329 -111q-184 0 -306 111.5t-122 316.5q0 204 140.5 329.5t328.5 125.5q225 0 372.5 -167.5t147.5 -459.5q0 -422 -189 -632
t-471 -210q-213 0 -259 63.5t-46 106.5q0 107 103 107q59 0 87 -29t42 -83t31 -74.5t83 -20.5q163 0 269.5 145t117.5 482z" />
    <glyph glyph-name="colon" unicode=":" horiz-adv-x="442" 
d="M221 594q-53 0 -90 36t-37 89t37 89t90 36t90 -36t37 -89t-37 -89t-90 -36zM221 -10q-53 0 -90 35.5t-37 89t37 89.5t90 36t90 -36t37 -89.5t-37 -89t-90 -35.5z" />
    <glyph glyph-name="semicolon" unicode=";" horiz-adv-x="444" 
d="M221 594q-53 0 -90 36t-37 89t37 89t90 36t90 -36t37 -89t-37 -89t-90 -36zM196 8q-42 0 -75 33t-33 84t38 83t94 32t101.5 -45t45.5 -141t-72 -176.5t-219 -117.5l-13 33q102 47 146.5 103.5t44.5 128.5q-16 -17 -58 -17z" />
    <glyph glyph-name="less" unicode="&#x3c;" horiz-adv-x="921" 
d="M66 629v84l778 362v-102l-664 -301l664 -301v-105z" />
    <glyph glyph-name="equal" unicode="=" horiz-adv-x="983" 
d="M72 891h839v-90h-839v90zM72 584h839v-90h-839v90z" />
    <glyph glyph-name="greater" unicode="&#x3e;" horiz-adv-x="921" 
d="M78 266v105l663 301l-663 301v102l778 -362v-84z" />
    <glyph glyph-name="question" unicode="?" horiz-adv-x="880" 
d="M339 -10q-52 0 -89 37t-37 89t37 88t89 36t91 -36t39 -88t-39 -89t-91 -37zM799 1053q0 -308 -414 -451v-205h-84v355q146 61 234 145t88 223q0 254 -224 254q-57 0 -78.5 -15.5t-30.5 -73.5t-36 -88t-82 -30t-78.5 32t-23.5 73q0 80 87.5 126t204.5 46q199 0 318 -97.5
t119 -293.5z" />
    <glyph glyph-name="at" unicode="@" horiz-adv-x="1710" 
d="M641 348q0 -80 19.5 -113.5t72.5 -33.5q92 0 236 211l90 458q-21 70 -105 70q-55 0 -111.5 -49t-129 -181t-72.5 -362zM858 -188q232 0 461 104v-57q-126 -85 -283 -110t-231 -25q-330 0 -534.5 189t-204.5 509q0 190 72.5 358t195.5 293t285.5 197.5t330.5 72.5
q319 0 507 -167.5t188 -438.5q0 -328 -125 -459t-212.5 -164.5t-155.5 -33.5q-120 0 -158 61t-29 172h-9q-61 -98 -139 -163.5t-163 -65.5t-141 59.5t-56 193.5t51 260t127 215t165 138t162 49t114.5 -18t84.5 -49h8l74 61l25 -12q-26 -74 -54 -215l-67 -383
q-18 -104 -5.5 -162.5t70.5 -58.5t110 27.5t95 87t71 155.5t28 306t-139.5 375t-411.5 165q-166 0 -303.5 -62.5t-234.5 -170t-150.5 -254.5t-53.5 -303q0 -317 159.5 -496.5t475.5 -179.5z" />
    <glyph glyph-name="A" unicode="A" horiz-adv-x="1310" 
d="M377 569h405l-202 578h-11zM1319 0h-522v37l57 14q41 10 55.5 26.5t14.5 50.5t-33 130l-86 244h-451l-80 -244q-24 -70 -24 -132q0 -61 72 -75l67 -14v-37h-397v37l59 14q44 13 65.5 44.5t69.5 166.5l408 1157h113l428 -1179q54 -149 82 -166t47 -23l55 -14v-37z" />
    <glyph glyph-name="B" unicode="B" horiz-adv-x="1232" 
d="M586 1350q-101 0 -160 -13v-567h172q133 0 206 75t73 199q0 170 -70 238t-221 68zM940 378q0 161 -71.5 242.5t-241.5 81.5h-201v-473q0 -53 6 -84.5t34 -53t169 -21.5t223 73.5t82 234.5zM1174 399q0 -189 -139.5 -294t-379.5 -105h-604v37l92 18q54 6 59 45t5 78v1063
q0 75 -13.5 95t-50.5 28l-92 18v37h553q494 0 494 -334q0 -145 -88 -224t-252 -107v-9q416 -32 416 -346z" />
    <glyph glyph-name="C" unicode="C" horiz-adv-x="1249" 
d="M712 -25q-292 0 -466 178t-174 555t195 556.5t505 179.5q219 0 381 -49l18 -406h-47q-47 147 -133 285q-29 47 -82 71.5t-161 24.5q-225 0 -334 -147t-109 -486q0 -539 156.5 -613.5t242.5 -74.5q149 0 204.5 25.5t97.5 85.5q75 114 131 274h41l-21 -368
q-70 -35 -187.5 -63t-257.5 -28z" />
    <glyph glyph-name="D" unicode="D" horiz-adv-x="1404" 
d="M618 1354q-128 0 -192 -19v-1077q0 -61 5 -99t31 -65.5t164 -27.5q259 0 368.5 163.5t109.5 479.5q0 315 -110.5 480t-375.5 165zM207 178v1063q0 75 -13.5 95t-50.5 28l-92 18v37h598q485 0 584.5 -249.5t99.5 -437.5q0 -359 -188.5 -545.5t-507.5 -186.5h-586v37l92 18
q54 6 59 45t5 78z" />
    <glyph glyph-name="E" unicode="E" horiz-adv-x="1191" 
d="M618 1350q-123 0 -192 -19v-559h113q126 0 175 13.5t65 50.5q34 77 52 161h46v-520h-46q-38 163 -69.5 191t-93.5 31t-129 3h-113v-391q0 -82 5 -130t30.5 -72.5t79 -31.5t137.5 -7q156 0 234 30t175 328h50l-31 -428h-1055v37l92 18q54 6 59 45t5 78v1063q0 75 -13.5 95
t-50.5 28l-92 18v37h1014l25 -362h-46q-81 186 -128 234.5t-111 53.5t-187 5z" />
    <glyph glyph-name="F" unicode="F" horiz-adv-x="1132" 
d="M615 1350q-102 0 -189 -15v-587h68q138 0 176.5 11t71 38t67.5 174h45v-529h-45q-22 97 -45 148q-24 51 -36.5 62.5t-49.5 18.5t-184 7h-68v-500q0 -75 11 -94t52 -27l119 -20v-37h-557v37l92 18q54 6 59 45t5 78v1063q0 75 -13.5 95t-50.5 28l-92 18v37h1000l20 -383
h-49q-57 151 -90 200q-33 50 -52.5 69.5t-49 30t-71.5 12.5t-144 2z" />
    <glyph glyph-name="G" unicode="G" horiz-adv-x="1370" 
d="M337 64.5q-265 89.5 -265 644.5q0 374 196 554.5t504 180.5q235 0 404 -39l26 -408h-47q-64 183 -102 236t-58 76.5t-59 42t-174 18.5q-225 0 -343 -147t-118 -489t105.5 -513.5t349.5 -171.5q138 0 243 51v306q0 70 -10 88t-22.5 23t-30.5 9l-96 21v37h512v-37l-70 -17
q-39 -9 -51 -30.5t-12 -93.5v-367q-223 -64 -420 -64t-462 89.5z" />
    <glyph glyph-name="H" unicode="H" horiz-adv-x="1466" 
d="M207 178v1063q0 75 -13.5 95t-50.5 28l-92 18v37h535v-37l-97 -18q-41 -8 -52 -28t-11 -95v-483h614v483q0 75 -11 95t-52 28l-96 18v37h534v-37l-92 -18q-40 -9 -51.5 -29.5t-11.5 -93.5v-1063q0 -74 12 -94t51 -29l92 -18v-37h-534v37l96 18q41 8 52 27t11 96v510h-614
v-510q0 -77 11 -96t52 -27l97 -18v-37h-535v37l92 18q54 6 59 45t5 78z" />
    <glyph glyph-name="I" unicode="I" horiz-adv-x="649" 
d="M215 178v1063q0 73 -10 91t-22.5 23t-30.5 9l-101 18v37h547v-37l-100 -18q-42 -8 -53 -27t-11 -96v-1063q0 -78 12 -96.5t52 -26.5l100 -18v-37h-547v37l101 18q37 4 50 26.5t13 96.5z" />
    <glyph glyph-name="J" unicode="J" horiz-adv-x="632" 
d="M-197 -209q0 49 27 80t85 31t83 -32t38 -76t20 -50t45 -6t72 48t34 161v1294q0 75 -12 95t-52 28l-96 18v37h535v-37l-93 -18q-40 -9 -51.5 -29.5t-11.5 -93.5v-1120q0 -206 -101 -330.5t-301 -124.5q-108 0 -164.5 38t-56.5 87z" />
    <glyph glyph-name="K" unicode="K" horiz-adv-x="1300" 
d="M207 178v1063q0 75 -13.5 95t-50.5 28l-92 18v37h535v-37l-97 -18q-41 -8 -52 -28t-11 -95v-1063q0 -77 11 -96t52 -27l97 -18v-37h-535v37l92 18q54 6 59 45t5 78zM811 1419h440v-37l-55 -14q-51 -12 -89 -43t-103 -108l-351 -390q140 -253 330.5 -497.5t210.5 -258.5
t43 -18l70 -16v-37h-326q-190 213 -315 413.5t-174 291.5v26l426 494q35 41 34 78q0 45 -73 63l-68 16v37z" />
    <glyph glyph-name="L" unicode="L" horiz-adv-x="1126" 
d="M207 178v1063q0 75 -13.5 95t-50.5 28l-92 18v37h543v-37l-105 -20q-40 -9 -51.5 -29.5t-11.5 -91.5v-977q0 -63 4 -102t25.5 -59.5t66.5 -26.5t120 -6q147 0 230 31t177 341h49l-25 -442h-1022v37l92 18q54 6 59 45t5 78z" />
    <glyph glyph-name="M" unicode="M" horiz-adv-x="1695" 
d="M207 199v1042q0 75 -13.5 95t-50.5 28l-92 18v37h412l387 -1065h6l371 1065h418v-37l-93 -18q-40 -9 -51.5 -29.5t-11.5 -93.5v-1063q0 -74 12 -94t51 -29l93 -18v-37h-523v37l84 18q41 8 52.5 26.5t11.5 96.5v1092h-8l-435 -1237h-84l-446 1237h-8v-1071
q0 -88 13 -109.5t29.5 -28t41.5 -10.5l76 -14v-37h-398v37l72 14q48 10 66 35.5t18 112.5z" />
    <glyph glyph-name="N" unicode="N" horiz-adv-x="1384" 
d="M289 1243v-1044q0 -88 13 -109.5t29.5 -28t41.5 -10.5l86 -14v-37h-408v37l72 14q48 10 66 35.5t18 112.5v1042q0 75 -13.5 95t-50.5 28l-92 18v37h383l672 -1044h8v846q0 87 -13.5 109t-29.5 28t-41 10l-94 14v37h416v-37l-72 -14q-48 -8 -66 -35t-18 -112v-1229h-90
l-809 1251h-8z" />
    <glyph glyph-name="O" unicode="O" horiz-adv-x="1413" 
d="M713 49q209 0 306 152.5t97 482.5q0 462 -147.5 574t-270.5 112q-209 0 -305 -157.5t-96 -487.5q0 -458 146.5 -567t269.5 -109zM68 709q0 356 187.5 545.5t462.5 189.5t451.5 -194t176.5 -549t-188 -540.5t-466 -185.5q-271 0 -447.5 189t-176.5 545z" />
    <glyph glyph-name="P" unicode="P" horiz-adv-x="1161" 
d="M585 1350q-101 0 -159 -15v-1157q0 -76 11 -97.5t52 -25.5l119 -18v-37h-557v37l92 18q54 6 59 45t5 78v1063q0 76 -10.5 94.5t-34.5 22.5l-111 24v37h572q248 0 374.5 -102.5t126.5 -299.5t-134 -318t-369 -121q-87 0 -127 16v47q205 -10 304 71t99 280t-50 260
t-105.5 79.5t-156.5 18.5z" />
    <glyph glyph-name="Q" unicode="Q" horiz-adv-x="1413" 
d="M713 49q209 0 306 152.5t97 482.5q0 464 -147.5 576t-270.5 112q-209 0 -305 -158.5t-96 -488.5q0 -458 146.5 -567t269.5 -109zM1206 -342q-107 0 -209.5 34t-208.5 118t-142 113.5t-79 64.5q-232 47 -365.5 228t-133.5 474q0 377 187.5 566.5t461.5 189.5t451.5 -195
t177.5 -517t-129.5 -501t-348.5 -235v-6q259 -221 486 -221q70 0 145 34v-41q-119 -106 -293 -106z" />
    <glyph glyph-name="R" unicode="R" horiz-adv-x="1288" 
d="M543 725q178 0 257 72.5t79 246.5t-62 240t-193 66t-198 -15v-602q64 -8 117 -8zM426 659v-481q0 -77 11 -96t52 -27l97 -18v-37h-535v37l92 18q54 6 59 45t5 78v1063q0 75 -13.5 95t-50.5 28l-92 18v37h586q244 0 356.5 -90t112.5 -270q0 -115 -83 -207t-243 -139v-6
q224 -393 391 -601q29 -41 84 -57l43 -12v-37h-315q-228 296 -408 659h-149z" />
    <glyph glyph-name="S" unicode="S" horiz-adv-x="1036" 
d="M522 47q130 0 196 70.5t66 180.5t-72 180.5t-266 159.5t-277 180t-83 249t123.5 268.5t322.5 110.5t332 -45l25 -336h-47q-42 107 -83 170q-42 64 -60.5 83t-53 36.5t-146.5 17.5t-180.5 -56t-68.5 -164t58 -171.5t200 -127.5q255 -116 355 -211.5t100 -223.5
q0 -196 -128.5 -320.5t-362.5 -124.5t-390 72l-23 373h50q69 -171 116 -246t107 -100t190 -25z" />
    <glyph glyph-name="T" unicode="T" horiz-adv-x="1222" 
d="M502 178v1176h-39q-152 0 -188.5 -13.5t-54.5 -37t-38 -56.5q-47 -79 -100 -241h-49l18 413h1120l19 -413h-49q-66 204 -111 262.5t-81.5 72t-188.5 13.5h-39v-1176q0 -77 11 -96t52 -27l99 -18v-37h-543v37l98 18q39 9 51.5 29t12.5 94z" />
    <glyph glyph-name="U" unicode="U" horiz-adv-x="1386" 
d="M712 -25q-259 0 -396.5 119.5t-137.5 366.5v780q0 73 -10 91t-22.5 23t-30.5 9l-92 18v37h526v-37l-88 -18q-40 -8 -52 -28t-12 -95v-801q0 -186 86.5 -276t280.5 -90t278 102.5t84 282.5v762q0 86 -13 108.5t-29.5 28.5t-41.5 10l-100 14v37h422v-37l-72 -14
q-48 -8 -66 -36t-18 -111v-777q0 -322 -184 -395.5t-312 -73.5z" />
    <glyph glyph-name="V" unicode="V" horiz-adv-x="1298" 
d="M-8 1419h518v-37l-57 -14q-70 -18 -70 -70q0 -47 33 -137l311 -889h10l295 889q29 96 29 130t-18.5 51.5t-57.5 25.5l-67 14v37h389v-37l-56 -14q-43 -11 -62 -47.5t-65 -163.5l-407 -1157h-117l-428 1180q-38 107 -61 142t-68 46l-51 14v37z" />
    <glyph glyph-name="W" unicode="W" horiz-adv-x="1898" 
d="M-6 1419h506v-37l-64 -14q-66 -14 -65 -76q0 -27 28 -131l273 -868h10l250 749l-45 138q-37 114 -58.5 144.5t-66.5 43.5l-55 14v37h503v-37l-63 -14q-63 -14 -64 -76q0 -36 27 -131l274 -868h11l237 868q25 88 25 125t-14.5 55.5t-49.5 26.5l-67 14v37h379v-37l-62 -14
q-47 -10 -70.5 -60.5t-56.5 -164.5l-336 -1143h-110l-295 915h-6l-307 -915h-107l-383 1180q-37 114 -59 145t-64 43l-55 14v37z" />
    <glyph glyph-name="X" unicode="X" horiz-adv-x="1312" 
d="M35 1419h534v-37l-73 -14q-50 -9 -50 -51t41 -119l220 -379h6l221 400q31 60 31 100q0 39 -45 49l-70 14v37h375v-37l-58 -14q-39 -12 -67.5 -43t-81.5 -123l-266 -440l331 -551q47 -80 72 -117t68 -45l55 -12v-37h-526v37l65 10q60 7 60 51q0 34 -50 119l-237 406h-6
l-250 -422q-39 -66 -39 -94q0 -51 49 -60l55 -10v-37h-364v37l57 12q40 8 69.5 41t88.5 127l297 465l-326 539q-23 37 -38 62.5t-34 49t-59 35.5l-55 14v37z" />
    <glyph glyph-name="Y" unicode="Y" horiz-adv-x="1232" 
d="M532 178v395l-339 613q-56 101 -83.5 135.5t-66.5 46.5l-51 14v37h530v-37l-51 -12q-47 -10 -65.5 -27.5t-18.5 -51.5t39 -105l276 -522h9l239 522q31 67 31 101t-16.5 52.5t-63.5 28.5l-63 14v37h403v-37l-45 -14q-51 -16 -81.5 -53t-88.5 -158l-274 -567v-412
q0 -77 11 -96t52 -27l98 -18v-37h-542v37l98 18q39 9 51 29t12 94z" />
    <glyph glyph-name="Z" unicode="Z" horiz-adv-x="1126" 
d="M838 1350h-133q-242 0 -304.5 -12.5t-86 -31t-54.5 -64.5t-98 -216h-45l20 393h942v-63l-780 -1278v-8h129q269 0 334 13t92 29.5t61 64.5t113 249h49l-26 -426h-1000v63l787 1278v9z" />
    <glyph glyph-name="bracketleft" unicode="[" horiz-adv-x="702" 
d="M205 1503h436v-37l-182 -22q-53 -9 -64.5 -31t-11.5 -98v-1393q0 -76 12.5 -100.5t63.5 -28.5l182 -22v-37h-436v1769z" />
    <glyph glyph-name="backslash" unicode="\" horiz-adv-x="755" 
d="M41 1503h94l621 -1769h-94z" />
    <glyph glyph-name="bracketright" unicode="]" horiz-adv-x="702" 
d="M319 -78v1393q0 76 -10 95.5t-25.5 24.5t-39.5 9l-183 22v37h437v-1769h-437v37l183 22q50 4 62.5 28.5t12.5 100.5z" />
    <glyph glyph-name="asciicircum" unicode="^" horiz-adv-x="817" 
d="M90 999l283 441h71l283 -441l-27 -24l-290 258l-293 -258z" />
    <glyph glyph-name="underscore" unicode="_" horiz-adv-x="688" 
d="M-4 -266h696v-90h-696v90z" />
    <glyph glyph-name="grave" unicode="`" 
d="M262 1406q0 30 24.5 57.5t61.5 27.5t76 -31l321 -246l-12 -28l-395 123q-76 25 -76 97z" />
    <glyph glyph-name="a" unicode="a" horiz-adv-x="1003" 
d="M428 74q80 0 130 28.5t73 67.5v332l-156 -17q-225 -23 -225 -211q0 -102 49 -151t129 -49zM983 23q-69 -48 -189 -48q-66 0 -105.5 34t-49.5 85h-10q-37 -51 -114 -86t-165 -35q-141 0 -223 70t-82 193t82 186t211 94l293 70v211q0 114 -25.5 151t-63.5 51.5t-103 14.5
t-89 -17.5t-30 -54.5q-11 -77 -30 -109t-78 -32q-60 0 -85 30.5t-25 73.5t67 106.5t329 63.5q333 0 333 -266v-631q0 -78 54 -106q23 -14 98 -19v-30z" />
    <glyph glyph-name="b" unicode="b" horiz-adv-x="1148" 
d="M872 530q0 424 -313 424q-86 0 -139 -22.5t-88 -38.5v-776q84 -76 185 -76t228 50t127 439zM680 1073q273 0 338 -178t65 -391.5t-156.5 -371t-399.5 -157.5q-244 0 -396 76v1280q0 57 -10.5 73.5t-48.5 35.5l-86 41v32l340 33l14 -12q-8 -108 -8 -244v-166l-2 -120
q-2 -27 -2 -52h8q163 121 344 121z" />
    <glyph glyph-name="c" unicode="c" horiz-adv-x="956" 
d="M57 508q0 299 174 433t400 134q145 0 213.5 -47t68.5 -125q0 -47 -32.5 -78.5t-88.5 -31.5t-79 29.5t-32 89.5t-29.5 79t-77.5 19q-134 0 -219 -102.5t-85 -333.5q0 -478 330 -478q102 0 189.5 29t136.5 57v-57q-173 -150 -395 -150q-223 0 -348.5 147.5t-125.5 385.5z
" />
    <glyph glyph-name="d" unicode="d" horiz-adv-x="1177" 
d="M276 530q0 -442 304 -442q92 0 147 25.5t90 42.5v766q-91 86 -199 86q-342 0 -342 -478zM184.5 96.5q-118.5 121.5 -118.5 396.5t163.5 427.5t403.5 152.5q112 0 186 -24q-2 23 -2 49v233q0 57 -10.5 73.5t-48.5 35.5l-86 41v32l338 33l14 -12q-6 -81 -6 -94v-1231
q0 -90 20.5 -104.5t38.5 -22.5l76 -35v-29l-319 -43l-15 13l4 108h-8q-163 -121 -338 -121q-174 0 -292.5 121.5z" />
    <glyph glyph-name="e" unicode="e" horiz-adv-x="1021" 
d="M548 1014q-114 0 -190.5 -93.5t-87.5 -293.5l469 24q0 184 -38.5 273.5t-152.5 89.5zM555 -25q-243 0 -370.5 150.5t-127.5 399.5t146.5 399.5t349.5 150.5t307.5 -121.5t104.5 -388.5h-695q0 -241 93 -355t258 -114q115 0 190.5 29t132.5 57v-57q-187 -150 -389 -150z
" />
    <glyph glyph-name="f" unicode="f" horiz-adv-x="620" 
d="M176 164v794h-141v37l141 49v93q0 187 124.5 300t274.5 113t194 -33.5t44 -79.5t-25.5 -74t-77.5 -28q-96 0 -110 103q-4 29 -11 40t-34 11q-69 0 -123.5 -58.5t-54.5 -185.5v-203h229l-20 -84h-209v-784q0 -72 10 -91.5t43 -25.5l109 -22v-35h-498v35l82 22
q29 8 41 27.5t12 79.5z" />
    <glyph glyph-name="g" unicode="g" horiz-adv-x="999" 
d="M647 719q0 297 -143.5 297t-192.5 -64.5t-49 -218.5t49 -221.5t143.5 -67.5t143.5 60.5t49 214.5zM446 -356q158 0 267.5 62.5t109.5 180.5q0 70 -41 114t-149 44h-336q-47 -12 -91 -57t-44 -127q-1 -217 284 -217zM207 311q0 -80 127 -80h336q144 0 218.5 -59t74.5 -203
q0 -145 -133.5 -266t-417.5 -121q-205 0 -321 67.5t-116 178.5q0 151 232 221v8q-59 18 -97 58.5t-38 91.5q0 81 39.5 129.5t113.5 103.5v9q-68 29 -119 100.5t-51 164.5q0 174 120.5 266.5t260.5 92.5t238 -51q105 90 223 90q47 0 79 -24.5t32 -67.5t-21.5 -69.5
t-62.5 -26.5t-59.5 16t-32.5 48q-27 62 -119 11v-6q63 -37 102 -104.5t39 -155.5q0 -164 -118.5 -255t-280.5 -91q-99 0 -179 33q-69 -48 -69 -109z" />
    <glyph glyph-name="h" unicode="h" horiz-adv-x="1193" 
d="M744 1073q164 0 224 -67.5t60 -204.5v-637q0 -59 12.5 -78.5t40.5 -28.5l82 -22v-35h-471v35l82 22q31 9 42 27t11 80v592q0 109 -38.5 149.5t-134.5 40.5t-175.5 -23.5t-101.5 -29.5v-729q0 -65 10 -82t43 -25l82 -22v-35h-471v35l82 22q29 8 41 27.5t12 79.5v1167
q0 57 -10.5 73.5t-48.5 35.5l-86 41v32l340 33l14 -12q-8 -132 -8 -244v-166l-6 -180h8q201 129 365 129z" />
    <glyph glyph-name="i" unicode="i" horiz-adv-x="540" 
d="M268 1233q-51 0 -87 37t-36 85t36 84t87 36t87 -36t36 -84t-36 -85t-87 -37zM377 870v-706q0 -65 10 -82t43 -25l82 -22v-35h-471v35l82 22q29 8 41 27.5t12 79.5v686q0 58 -9 73t-20.5 21t-29.5 17l-76 38v29l330 43l14 -8q-8 -108 -8 -193z" />
    <glyph glyph-name="j" unicode="j" horiz-adv-x="524" 
d="M264 1233q-51 0 -87 37t-36 85t36 84t87 36t87 -36t36 -84t-36 -85t-87 -37zM-168 -300q0 97 106 97q88 0 100 -98q5 -41 12 -52.5t24 -11.5q102 0 102 146v1069q0 58 -9 73t-20.5 21t-29.5 17l-76 38v29l330 43l14 -8q-8 -108 -8 -193v-874q0 -218 -100 -320t-265 -102
q-94 0 -137 40t-43 86z" />
    <glyph glyph-name="k" unicode="k" horiz-adv-x="1069" 
d="M377 1290v-1126q0 -65 10 -82t43 -25l82 -22v-35h-471v35l82 22q29 8 41 27.5t12 79.5v1167q0 57 -10.5 73.5t-48.5 35.5l-86 41v32l340 33l14 -12q-8 -132 -8 -244zM743 954q0 16 -12 24.5t-43 18.5l-29 11v34h361v-34l-62 -21q-58 -15 -97.5 -54.5t-69.5 -72.5
l-224 -239q194 -298 412 -533q24 -27 55 -35l58 -18v-35h-283q-181 197 -397 516v14l237 271q94 112 94 153z" />
    <glyph glyph-name="l" unicode="l" horiz-adv-x="542" 
d="M377 1290v-1126q0 -65 10 -82t43 -25l82 -22v-35h-471v35l82 22q29 8 41 27.5t12 79.5v1167q0 57 -10.5 73.5t-48.5 35.5l-86 41v32l340 33l14 -12q-8 -132 -8 -244z" />
    <glyph glyph-name="m" unicode="m" horiz-adv-x="1779" 
d="M639 946q-92 0 -262 -53v-729q0 -65 10 -82t43 -25l82 -22v-35h-471v35l82 22q29 8 41 27.5t12 79.5v686q0 58 -9 73t-20.5 21t-29.5 17l-76 38v29l319 43l15 -12l-4 -115h8q200 129 358 129q111 0 163 -34.5t79 -98.5h8q84 49 177 91t216 42t178.5 -67.5t55.5 -206.5
v-635q0 -59 12 -78.5t41 -28.5l82 -22v-35h-471v35l82 22q31 9 42 27t11 80v590q0 104 -31.5 148t-136.5 44t-254 -57q4 -32 4 -90v-635q0 -59 12.5 -78.5t41.5 -28.5l81 -22v-35h-471v35l82 22q31 9 42.5 28t11.5 79v590q0 102 -32 147t-124 45z" />
    <glyph glyph-name="n" unicode="n" horiz-adv-x="1193" 
d="M744 1073q164 0 224 -67.5t60 -204.5v-637q0 -59 12.5 -78.5t40.5 -28.5l82 -22v-35h-471v35l82 22q31 9 42 27t11 80v592q0 109 -38.5 149.5t-134.5 40.5t-175.5 -23.5t-101.5 -29.5v-729q0 -65 10 -82t43 -25l82 -22v-35h-471v35l82 22q29 8 41 27.5t12 79.5v686
q0 58 -9 73t-20.5 21t-29.5 17l-76 38v29l319 43l15 -8l-4 -119h8q201 129 365 129z" />
    <glyph glyph-name="o" unicode="o" horiz-adv-x="1130" 
d="M573 35q279 0 279 471q0 274 -73 391t-215 117t-213.5 -108.5t-71.5 -368.5t73.5 -381t220.5 -121zM205.5 926.5q148.5 148.5 366.5 148.5t359.5 -140t141.5 -399t-149.5 -411t-363.5 -152q-218 0 -360.5 142.5t-142.5 402.5t148.5 408.5z" />
    <glyph glyph-name="p" unicode="p" horiz-adv-x="1193" 
d="M918 530q0 424 -314 424q-86 0 -139 -22.5t-88 -38.5v-776q84 -76 183 -76t228.5 51t129.5 438zM377 -244q0 -63 10 -82.5t43 -23.5l109 -23v-35h-498v35l82 23q31 8 42 27.5t11 78.5v1094q0 58 -9 73t-20.5 21t-29.5 17l-76 38v29l319 43l15 -8l-2 -111h8
q163 121 344 121q273 0 338 -178t65 -394.5t-154.5 -371t-422.5 -154.5q-84 0 -176 27v-39l2 -92v-115z" />
    <glyph glyph-name="q" unicode="q" horiz-adv-x="1161" 
d="M276 530q0 -442 304 -442q92 0 147 25.5t90 42.5v766q-91 86 -199 86q-342 0 -342 -478zM657 1073q133 0 263 -74h8l65 78l25 -8v-1313q0 -59 11 -78.5t42 -27.5l82 -23v-35h-498v35l109 23q33 4 43 23.5t10 82.5v297q0 23 2 41h-8q-61 -47 -151.5 -83t-177.5 -36
q-179 0 -297.5 121.5t-118.5 396.5t163.5 427.5t427.5 152.5z" />
    <glyph glyph-name="r" unicode="r" horiz-adv-x="825" 
d="M670 1075q133 0 133 -121q0 -57 -32 -86.5t-82 -29.5t-72.5 22t-32.5 50t-16.5 34t-21.5 6q-34 0 -88 -28t-81 -56v-702q0 -65 10.5 -84t42.5 -23l102 -22v-35h-491v35l82 22q29 8 41 27.5t12 79.5v686q0 58 -9 73t-20.5 21t-29.5 17l-76 38v29l319 43l15 -12l-4 -123h8
q97 97 175.5 118t115.5 21z" />
    <glyph glyph-name="s" unicode="s" horiz-adv-x="833" 
d="M604 218q0 85 -58 133.5t-154 88.5q-177 73 -251.5 144t-74.5 196t108 210t265 85t268 -43l8 -260h-37q-43 92 -103 172q-37 47 -72.5 58.5t-82.5 11.5q-100 0 -148.5 -42t-48.5 -115t56.5 -127t156.5 -93q185 -73 262.5 -143t77.5 -179q0 -148 -109.5 -244t-288.5 -96
t-312 50l-7 301h41q36 -84 79 -154q44 -70 59.5 -87t43 -32.5t114.5 -15.5t147.5 48t60.5 133z" />
    <glyph glyph-name="t" unicode="t" horiz-adv-x="661" 
d="M487 84q84 0 160 27v-41q-90 -64 -151.5 -79.5t-110.5 -15.5q-105 0 -169 53t-64 162v768h-142v35q211 66 293 295h49v-246h287l-21 -84h-266v-747q0 -127 135 -127z" />
    <glyph glyph-name="u" unicode="u" horiz-adv-x="1179" 
d="M440 -25q-129 0 -200.5 69t-71.5 200v626q0 56 -8 68.5t-45 30.5l-82 37v30l315 35l21 -16v-770q0 -90 41 -137.5t139 -47.5t270 66v704q0 55 -7.5 68.5t-45.5 30.5l-82 37v30l315 35l21 -16v-846q0 -90 20.5 -104.5t38.5 -22.5l76 -35v-29l-319 -43l-15 13l4 127h-8
q-211 -140 -377 -140z" />
    <glyph glyph-name="v" unicode="v" horiz-adv-x="1036" 
d="M-16 1042h467v-34l-56 -15q-39 -10 -47 -25.5t-8 -44.5t27 -102l213 -575h8l211 575q24 70 24 102t-11 47t-42 23l-55 15v34h334v-34l-58 -17q-38 -11 -52.5 -38t-25 -55t-24.5 -64l-320 -834h-96l-332 854q-25 70 -46.5 96t-61.5 41l-49 17v34z" />
    <glyph glyph-name="w" unicode="w" horiz-adv-x="1560" 
d="M-16 1042h467v-34l-56 -15q-39 -10 -47 -25.5t-8 -38.5t27 -108l188 -575h8l187 536l-25 72q-23 68 -43 97.5t-55 39.5l-49 17v34h432v-34l-56 -15q-45 -12 -45 -53q0 -40 27 -119l197 -575h8l186 575q25 73 25 104q0 30 -11.5 45t-42.5 23l-55 15v34h334v-34l-57 -17
q-39 -12 -53.5 -37.5t-24.5 -53.5t-25 -66l-295 -834h-96l-235 672h-7l-239 -672h-96l-308 854q-26 72 -44 96t-64 41l-49 17v34z" />
    <glyph glyph-name="x" unicode="x" horiz-adv-x="1095" 
d="M20 1042h469v-34l-49 -11q-27 -6 -36 -18t-9 -39t43 -94l148 -232h6l115 203q51 93 51 130q0 36 -43 46l-62 15v34h369v-34l-57 -17q-57 -15 -85.5 -43.5t-78.5 -109.5l-170 -271l258 -370q27 -37 46 -64t45.5 -54t70.5 -38l24 -6v-35h-469v35l53 10q48 10 48 47
q0 31 -50 105l-161 243h-7l-133 -219q-57 -94 -57 -120q0 -27 13.5 -37.5t54.5 -20.5l36 -8v-35h-368v35l57 16q76 22 108.5 68.5t57.5 81.5l195 284l-246 361q-86 124 -108.5 135.5t-45.5 17.5l-33 9v34z" />
    <glyph glyph-name="y" unicode="y" horiz-adv-x="1030" 
d="M191 -422q-82 0 -125 36t-43 85t30.5 75.5t95.5 26.5t91 -84q8 -23 14 -29.5t33 -6.5t69.5 54t94.5 181l30 76l-336 862q-33 84 -49.5 105t-54.5 32l-49 17v34h459v-34l-56 -15q-35 -10 -46 -21t-11 -43t29 -108l217 -577h8l207 577q47 134 23.5 149t-52.5 23l-55 15v34
h332v-34l-58 -17q-34 -11 -50.5 -37.5t-51.5 -119.5l-348 -914q-63 -167 -110.5 -226t-101.5 -87.5t-136 -28.5z" />
    <glyph glyph-name="z" unicode="z" horiz-adv-x="935" 
d="M655 983h-186q-163 0 -203 -37.5t-77 -112.5t-54 -108h-37l15 317h788v-43l-618 -931v-9h163q152 0 198 13.5t62.5 30t56.5 76.5t81 161h39l-23 -340h-819v47l614 928v8z" />
    <glyph glyph-name="braceleft" unicode="{" horiz-adv-x="727" 
d="M225 -53q0 58 51.5 268.5t51.5 238.5q0 59 -49 97t-187 45v53q127 3 181.5 43.5t54.5 100.5q0 31 -51.5 234t-51.5 263q0 109 100.5 157t325.5 56v-37q-150 -20 -182.5 -42.5t-41.5 -50t-9 -84.5q0 -95 30.5 -237.5t30.5 -220.5q0 -147 -250 -204v-9q141 -25 195.5 -73.5
t54.5 -126.5t-30.5 -226t-30.5 -224t9 -104t41.5 -50t182.5 -43v-37q-225 8 -325.5 56t-100.5 157z" />
    <glyph glyph-name="bar" unicode="|" horiz-adv-x="462" 
d="M184 1503h95v-1769h-95v1769z" />
    <glyph glyph-name="braceright" unicode="}" horiz-adv-x="727" 
d="M399 453q0 -38 19.5 -114.5t32 -128.5t32 -132.5t19.5 -130.5q0 -109 -100.5 -157t-325.5 -56v37q150 20 182.5 42.5t41.5 50t9 84.5q0 97 -30.5 242.5t-30.5 223.5t64.5 127t185.5 77v9q-141 25 -195.5 74t-54.5 127t30.5 221t30.5 220q0 76 -9 104t-41.5 50.5
t-182.5 42.5v37q225 -8 325.5 -56t100.5 -157q0 -56 -51.5 -263.5t-51.5 -238.5q0 -133 236 -139v-53q-236 -13 -236 -143z" />
    <glyph glyph-name="asciitilde" unicode="~" horiz-adv-x="753" 
d="M549 641q35 0 58.5 22.5t51.5 69.5l33 -16q-45 -98 -84 -159.5t-97 -61.5t-161.5 32.5t-141.5 32.5t-61.5 -22.5t-52.5 -69.5l-33 16q45 98 84 160t95 62t165 -33t144 -33z" />
    <glyph glyph-name="uni00A0" unicode="&#xa0;" horiz-adv-x="438" 
 />
    <glyph glyph-name="exclamdown" unicode="&#xa1;" horiz-adv-x="532" 
d="M275 -174q-77 0 -114.5 41.5t-29.5 120.5l105 878h51l104 -878q8 -84 -33 -123t-83 -39zM263 1024q-52 0 -91 36t-39 88t39 89t91 37t89 -37t37 -89t-37 -88t-89 -36z" />
    <glyph glyph-name="cent" unicode="&#xa2;" horiz-adv-x="960" 
d="M274 582q0 -412 236 -473v892q-165 -34 -200.5 -176.5t-35.5 -242.5zM610 96q169 0 320 86v-57q-85 -85 -184 -114t-160 -34v-202h-76v202q-215 12 -334 159t-119 389t131 375t322 165v156h76v-148l49 2q145 0 215 -47t70 -125q0 -47 -30 -76.5t-86 -29.5t-79 29.5
t-32 89.5t-32.5 77t-74.5 17v-914h24z" />
    <glyph glyph-name="sterling" unicode="&#xa3;" horiz-adv-x="1044" 
d="M276 498q0 45 -26 198h-152v68h138q-31 176 -31 265q0 184 131 299.5t340 115.5t257 -64.5t48 -110.5t-31.5 -75t-76.5 -29q-85 0 -121 117q-20 66 -36 79t-73 13q-96 0 -158.5 -73.5t-62.5 -241.5q0 -100 10 -295h342v-68h-340q4 -86 4 -137q0 -123 -61.5 -207
t-167.5 -162v-10h561q65 0 92 24t84 136h37l-55 -340h-889v131q125 74 181 160t56 207z" />
    <glyph glyph-name="yen" unicode="&#xa5;" horiz-adv-x="1167" 
d="M115 678h346l-279 508q-29 51 -46 84t-37.5 60t-53.5 38l-51 14v37h518v-37l-51 -12q-84 -18 -84 -70q0 -38 39 -114l235 -461h8l215 461q31 68 31 102t-17.5 51t-62.5 29l-53 14v37h379v-37l-45 -14q-39 -12 -64 -45.5t-92 -165.5l-237 -479h354v-68h-367v-157h367v-68
h-367v-207q0 -75 11.5 -95t52.5 -28l98 -18v-37h-543v37l99 18q39 9 51 29t12 94v207h-366v68h366v157h-366v68z" />
    <glyph glyph-name="brokenbar" unicode="&#xa6;" horiz-adv-x="462" 
d="M184 1503h95v-831h-95v831zM184 520h95v-786h-95v786z" />
    <glyph glyph-name="section" unicode="&#xa7;" horiz-adv-x="1089" 
d="M293 911q-86 -49 -86 -163q0 -54 15.5 -87.5t56.5 -77.5t181 -157t219 -180t126 -137q80 55 80 176q0 72 -58.5 135.5t-196.5 174.5q-138 112 -214 179.5t-123 136.5zM233 1105q0 144 104 238.5t284 94.5q133 0 210.5 -46t77.5 -122q0 -45 -31.5 -72t-79.5 -27t-70 25
t-32 85t-30 76.5t-96 16.5t-119 -53t-43 -121t13 -107.5t62.5 -98.5t178.5 -161t254.5 -213.5t125.5 -258.5q0 -105 -57 -173.5t-151 -128.5q64 -137 9 -270.5t-162 -170t-225 -36.5t-199 49.5t-81 126.5q0 45 25.5 73t77 28t78 -26t33.5 -73q12 -79 32.5 -96.5t105.5 -17.5
q84 0 125 53t41 119t-15 106.5t-62.5 94.5t-181.5 163t-196.5 163t-127 132.5t-64.5 194.5q0 171 221 286q-35 76 -35 147z" />
    <glyph glyph-name="dieresis" unicode="&#xa8;" 
d="M706.5 1206q-47.5 0 -81 34t-33.5 80t33.5 79t81 33t81 -33t33.5 -79t-33.5 -80t-81 -34zM317.5 1206q-47.5 0 -81 34t-33.5 80t33.5 79t81 33t81 -33t33.5 -79t-33.5 -80t-81 -34z" />
    <glyph glyph-name="copyright" unicode="&#xa9;" horiz-adv-x="1613" 
d="M1320 282q134 141 134 421t-183 474.5t-467 194.5q-282 0 -465 -194.5t-183 -474.5t184.5 -474t463.5 -194q142 0 262 53t254 194zM804.5 -29q-153.5 0 -286.5 57.5t-230.5 158t-152.5 233.5t-55 284.5t55 284.5t152.5 231.5t230.5 156t286.5 57.5t287 -57.5t231.5 -156
t154.5 -231.5t56.5 -284.5t-56.5 -284.5t-154.5 -233.5t-231.5 -158t-287 -57.5zM403 703q0 221 120 332.5t313 111.5q112 0 239 -31l6 -244h-37q-23 49 -35 79.5t-29 58.5q-29 48 -60.5 62.5t-95.5 14.5q-128 0 -181 -81t-53 -293t58 -299.5t188 -87.5q55 0 87.5 15
t61 64.5t70.5 149.5h37l-13 -240q-126 -49 -239 -49q-208 0 -322.5 108t-114.5 329z" />
    <glyph glyph-name="ordfeminine" unicode="&#xaa;" horiz-adv-x="841" 
d="M238 778q0 -141 133 -141q55 0 93 23.5t54 52.5v254l-125 -15q-78 -10 -116.5 -46t-38.5 -128zM516 647q-74 -98 -238 -98q-92 0 -158.5 56.5t-66.5 162.5q0 163 232 217l233 57v150q0 100 -20.5 131t-50 42t-81.5 11t-64.5 -17t-19.5 -57t-23.5 -74t-66.5 -34t-74 27.5
t-24 64.5q0 70 92 109t213 39q303 0 303 -232v-475q0 -35 11 -65t110 -37v-31q-77 -43 -155 -43q-130 0 -144 96h-8z" />
    <glyph glyph-name="guillemotleft" unicode="&#xab;" horiz-adv-x="901" 
d="M422 498v39l348 405h61l-221 -424l221 -426h-61zM88 498v39l348 405h62l-222 -424l222 -426h-62z" />
    <glyph glyph-name="registered" unicode="&#xae;" horiz-adv-x="806" 
d="M387 1067q49 0 65.5 23.5t16.5 62.5q0 78 -78 78h-39v-164h35zM625.5 1295.5q-89.5 93.5 -222.5 93.5q-134 0 -221.5 -94t-87.5 -233t86.5 -234t221.5 -95q136 0 224.5 94.5t88.5 234.5t-89.5 233.5zM402 688q-151 0 -256 108.5t-105 264t103.5 264.5t257.5 109
t260 -109.5t106 -264t-107.5 -263.5t-258.5 -109zM352 1036v-104q0 -16 3 -21.5t14 -9.5l30 -8v-23h-182v23l31 8q10 4 13 9t3 22v268q0 27 -16 33l-29 8v23h178q86 0 123 -26t37 -79q0 -72 -82 -94v-4q38 -83 86 -146q10 -10 27 -16l22 -6v-23h-116q-52 69 -97 166h-45z
" />
    <glyph glyph-name="macron" unicode="&#xaf;" 
d="M266 1372h492v-133h-492v133z" />
    <glyph glyph-name="degree" unicode="&#xb0;" horiz-adv-x="622" 
d="M311 997q78 0 126 56.5t48 134.5t-48 133t-126 55t-126 -55t-48 -133t48 -134.5t126 -56.5zM311.5 936q-55.5 0 -100.5 20.5t-79 54t-52.5 80t-18.5 97.5t18.5 96t52.5 79t79 54.5t100.5 20.5t100.5 -20.5t78.5 -54.5t52 -79t18.5 -96t-18.5 -97.5t-52 -80t-78.5 -54
t-100.5 -20.5z" />
    <glyph glyph-name="plusminus" unicode="&#xb1;" horiz-adv-x="921" 
d="M408 668h-336v90h336v358h106v-358h336v-90h-336v-359h-106v359zM72 90h778v-90h-778v90z" />
    <glyph glyph-name="twosuperior" unicode="&#xb2;" horiz-adv-x="600" 
d="M391 1232q0 91 -31.5 121.5t-81.5 30.5t-59.5 -11t-14.5 -55t-24.5 -66.5t-57.5 -22.5t-58.5 21.5t-20.5 49.5q0 49 64.5 91.5t181.5 42.5t193.5 -53.5t76.5 -163.5q0 -146 -159.5 -256.5t-241.5 -163.5v-6h272q41 0 58.5 16.5t41.5 75.5h29l-16 -215h-514v77
q241 191 301.5 293.5t60.5 193.5z" />
    <glyph glyph-name="threesuperior" unicode="&#xb3;" horiz-adv-x="598" 
d="M377 1239q0 145 -111 145q-35 0 -48 -9t-18 -45t-22.5 -60.5t-55.5 -24.5t-55.5 20.5t-17.5 45.5q0 59 69.5 91t177.5 32t169 -49t61 -121q0 -162 -184 -199v-4q96 -8 155.5 -53t59.5 -134q0 -150 -112.5 -184.5t-203.5 -34.5t-156 37t-65 94q0 29 17.5 46.5t50.5 17.5
t54.5 -15.5t31.5 -59.5t23 -58.5t75 -14.5q120 0 121 177q0 88 -32.5 120.5t-110.5 32.5h-60v49h54q72 0 102.5 36t30.5 122z" />
    <glyph glyph-name="acute" unicode="&#xb4;" 
d="M676 1491q37 0 61.5 -27.5t24.5 -57.5q0 -72 -76 -97l-395 -123l-12 28l321 246q39 31 76 31z" />
    <glyph glyph-name="paragraph" unicode="&#xb6;" horiz-adv-x="1069" 
d="M461 705q-213 0 -313.5 99t-100.5 263t104.5 258t307.5 94h559v-37l-92 -18q-40 -9 -52 -29t-12 -94v-1446h-86v1559h-168v-1559h-86v914q-28 -4 -61 -4z" />
    <glyph glyph-name="periodcentered" unicode="&#xb7;" horiz-adv-x="430" 
d="M218 567q-52 0 -89 37t-37 89t37 88t89 36t91 -36t39 -88t-39 -89t-91 -37z" />
    <glyph glyph-name="cedilla" unicode="&#xb8;" 
d="M494 -104q165 -18 165 -139q0 -65 -75.5 -111.5t-235.5 -61.5v33q174 41 174 123q0 33 -29.5 47t-80.5 23l-11 14l88 176h70z" />
    <glyph glyph-name="onesuperior" unicode="&#xb9;" horiz-adv-x="436" 
d="M303 782q0 -47 8 -58t43 -17l49 -9v-30h-370v30l53 9q35 4 43 16t8 59v484h-104v37q162 30 243 127l27 -7v-641z" />
    <glyph glyph-name="ordmasculine" unicode="&#xba;" horiz-adv-x="940" 
d="M472 610q114 0 166 86t52 283q0 316 -83 356.5t-142 40.5q-111 0 -162 -83t-51 -291t53 -300t167 -92zM175.5 667.5q-116.5 114.5 -116.5 320.5t121 326t296 120q176 0 290.5 -112.5t114.5 -319.5t-121 -328t-295 -121q-173 0 -289.5 114.5z" />
    <glyph glyph-name="guillemotright" unicode="&#xbb;" horiz-adv-x="901" 
d="M625 516l-222 426h62l348 -405v-39l-348 -406h-62zM291 516l-221 426h61l348 -405v-39l-348 -406h-61z" />
    <glyph glyph-name="onequarter" unicode="&#xbc;" horiz-adv-x="1310" 
d="M1012 279v309h-2l-248 -305v-4h250zM1012 115v94h-326v53l397 490h91v-473h108l-12 -70h-96v-94q0 -47 9 -58.5t42 -17.5l39 -8v-31h-346v31l43 8q33 6 42 17.5t9 58.5zM1116 1462h94l-1038 -1564h-94zM305 782q0 -47 8.5 -58t42.5 -17l50 -9v-30h-371v30l53 9
q35 4 43 16t8 59v484h-104v37q161 30 244 127l26 -7v-641z" />
    <glyph glyph-name="onehalf" unicode="&#xbd;" horiz-adv-x="1366" 
d="M1157 564q0 91 -31.5 122t-81.5 31t-59.5 -11.5t-14.5 -55.5t-24.5 -66.5t-57.5 -22.5t-58.5 21.5t-20.5 50.5q0 49 64.5 91t181.5 42t193.5 -53.5t76.5 -163.5q0 -143 -159.5 -255t-241.5 -165v-6h272q41 0 59 18t41 74h29l-16 -215h-514v78q240 190 301 292.5t61 193.5
zM1096 1462h94l-1038 -1564h-95zM305 782q0 -47 8.5 -58t42.5 -17l50 -9v-30h-371v30l53 9q35 4 43 16t8 59v484h-104v37q161 30 244 127l26 -7v-641z" />
    <glyph glyph-name="threequarters" unicode="&#xbe;" horiz-adv-x="1386" 
d="M1087 279v309h-2l-247 -305v-4h249zM1087 115v94h-325v53l397 490h90v-473h109l-12 -70h-97v-94q0 -47 9.5 -58.5t41.5 -17.5l39 -8v-31h-346v31l43 8q33 6 42 17.5t9 58.5zM1212 1462h95l-1039 -1564h-94zM401 1236q0 148 -101 148q-44 0 -57.5 -9t-18.5 -45
t-22.5 -60.5t-55.5 -24.5t-55 20.5t-17 45.5q0 59 69 91t177 32t169.5 -49t61.5 -121q0 -162 -184 -199v-4q96 -8 155.5 -53t59.5 -134q0 -150 -113 -184.5t-204 -34.5t-155.5 37t-64.5 94q0 29 17.5 46.5t50 17.5t54 -15.5t31.5 -59.5t24 -58.5t76 -14.5q120 0 120 177
q0 88 -33 120.5t-111 32.5h-59v49h53q72 0 102.5 36t30.5 119z" />
    <glyph glyph-name="questiondown" unicode="&#xbf;" horiz-adv-x="880" 
d="M542 1024q-52 0 -91 36t-39 88t39 89t91 37t89 -37t37 -89t-37 -88t-89 -36zM82 211q0 308 414 451v204h84v-354q-146 -61 -204.5 -116.5t-88 -115t-29.5 -169t63 -166t140 -56.5t99 15.5t31 73.5t35 88t82 30t79.5 -31.5t23.5 -72.5q0 -81 -86.5 -126.5t-206.5 -45.5
q-199 0 -317.5 97t-118.5 294z" />
    <glyph glyph-name="Agrave" unicode="&#xc0;" horiz-adv-x="1310" 
d="M377 569h405l-202 578h-11zM1319 0h-522v37l57 14q41 10 61 33t5 78t-29 96l-86 244h-451l-80 -244q-24 -70 -24 -132q0 -61 72 -75l67 -14v-37h-397v37l59 14q44 13 63 41t72 170l408 1157h113l428 -1179q39 -108 59 -136t36 -37t34 -16l55 -14v-37zM879 1483l-404 92
q-82 18 -84 88q0 39 25 67q47 53 133 3l340 -222z" />
    <glyph glyph-name="Aacute" unicode="&#xc1;" horiz-adv-x="1310" 
d="M377 569h405l-202 578h-11zM1319 0h-522v37l57 14q41 10 61 33t5 78t-29 96l-86 244h-451l-80 -244q-24 -70 -24 -132q0 -61 72 -75l67 -14v-37h-397v37l59 14q44 13 63 41t72 170l408 1157h113l428 -1179q39 -108 59 -136t36 -37t34 -16l55 -14v-37zM918 1667
q0 -73 -84 -92l-404 -92l-10 28l340 222q82 53 133 -3q25 -28 25 -63z" />
    <glyph glyph-name="Acircumflex" unicode="&#xc2;" horiz-adv-x="1310" 
d="M377 569h405l-202 578h-11zM1319 0h-522v37l57 14q41 10 61 33t5 78t-29 96l-86 244h-451l-80 -244q-24 -70 -24 -132q0 -61 72 -75l67 -14v-37h-397v37l59 14q44 13 63 41t72 170l408 1157h113l428 -1179q39 -108 59 -136t36 -37t34 -16l55 -14v-37zM360 1499l252 256
h72l254 -256l-16 -22l-273 120l-272 -120z" />
    <glyph glyph-name="Atilde" unicode="&#xc3;" horiz-adv-x="1310" 
d="M377 569h405l-202 578h-11zM1319 0h-522v37l57 14q41 10 61 33t5 78t-29 96l-86 244h-451l-80 -244q-24 -70 -24 -132q0 -61 72 -75l67 -14v-37h-397v37l59 14q44 13 63 41t72 170l408 1157h113l428 -1179q39 -108 59 -136t36 -37t34 -16l55 -14v-37zM832 1655
q36 1 58 25q24 24 52 71l33 -16q-45 -99 -82 -157t-96 -58t-180 22t-153 23q-32 0 -56 -25t-52 -72l-32 17q45 98 82 156q37 59 94 59t176 -22q121 -22 156 -23z" />
    <glyph glyph-name="Adieresis" unicode="&#xc4;" horiz-adv-x="1310" 
d="M377 569h405l-202 578h-11zM1319 0h-522v37l57 14q41 10 61 33t5 78t-29 96l-86 244h-451l-80 -244q-24 -70 -24 -132q0 -61 72 -75l67 -14v-37h-397v37l59 14q44 13 63 41t72 170l408 1157h113l428 -1179q39 -108 59 -136t36 -37t34 -16l55 -14v-37zM860 1503
q-47 0 -81 34t-34 80t34 79t81 33t81 -33t34 -79t-34 -80t-81 -34zM438 1503q-47 0 -81 34q-33 34 -33 80t33 79q34 33 81 33t81 -33t34 -79t-34 -80t-81 -34z" />
    <glyph glyph-name="Aring" unicode="&#xc5;" horiz-adv-x="1310" 
d="M377 569h405l-202 578h-11zM1319 0h-522v37l57 14q41 10 61 33t5 78t-29 96l-86 244h-451l-80 -244q-24 -70 -24 -132q0 -61 72 -75l67 -14v-37h-397v37l59 14q44 13 63 41t72 170l408 1157h113l428 -1179q39 -108 59 -136t36 -37t34 -16l55 -14v-37zM649 1534
q53 0 85 35t32 89t-32 89t-85 35t-85 -35t-32 -89t32 -89t85 -35zM649 1475q-80 0 -133 54t-53 130t53 129t133 53t133 -53q54 -53 54 -129t-54 -130t-133 -54z" />
    <glyph glyph-name="AE" unicode="&#xc6;" horiz-adv-x="1839" 
d="M879 545v704h-7l-380 -704h387zM1275 1350q-114 0 -181 -19v-559h92q126 0 175 13.5t65 50.5q33 74 53 161h45v-520h-45q-38 160 -69.5 189.5t-94 32.5t-129.5 3h-92v-391q0 -82 5 -130t29.5 -72.5t73.5 -31.5t128 -7q151 0 227.5 29.5t177.5 328.5h49l-31 -428h-1030v37
l92 18q33 4 48.5 27t15.5 96v299h-424l-119 -219q-55 -102 -55 -148t57 -59l68 -14v-37h-414v37l59 14q51 15 85 50.5t106 160.5l610 1079q-25 16 -51 23l-96 18v37h1007l25 -362h-45q-80 184 -128 233.5t-111.5 54.5t-177.5 5z" />
    <glyph glyph-name="Ccedilla" unicode="&#xc7;" horiz-adv-x="1249" 
d="M662 -104q165 -18 165 -139q0 -65 -75.5 -111.5t-235.5 -61.5v33q174 41 174 123q0 33 -29.5 47t-80.5 23l-11 14l76 153q-406 26 -489.5 282.5t-83.5 450.5t106.5 464t593.5 270q219 0 381 -49l18 -406h-47q-47 147 -133 285q-29 47 -82 71.5t-161 24.5
q-225 0 -334 -147t-109 -486q0 -539 156.5 -613.5t242.5 -74.5q149 0 204.5 25.5t97.5 85.5q75 114 131 274h41l-21 -368q-175 -87 -446 -91z" />
    <glyph glyph-name="Egrave" unicode="&#xc8;" horiz-adv-x="1191" 
d="M614 1350q-127 0 -188 -19v-559h113q125 0 174 12t66 51q35 78 52 162h46v-520h-46q-38 162 -69 190q-31 29 -93 32q-63 3 -130 3h-113v-391q0 -82 5 -130q5 -49 31 -73t79 -31t137 -7t147 4t102 43q85 80 160 311h50l-31 -428h-1055v37l92 18q34 4 49 26t15 97v1063
q0 77 -14 96t-50 27l-92 18v37h1014l25 -362h-46q-81 186 -147 254q-28 29 -92 34t-191 5zM367 1668q0 34 24 62q48 54 133 3l340 -222l-10 -28l-403 92q-84 19 -84 93z" />
    <glyph glyph-name="Eacute" unicode="&#xc9;" horiz-adv-x="1191" 
d="M614 1350q-127 0 -188 -19v-559h113q125 0 174 12t66 51q35 78 52 162h46v-520h-46q-38 162 -69 190q-31 29 -93 32q-63 3 -130 3h-113v-391q0 -82 5 -130q5 -49 31 -73t79 -31t137 -7t147 4t102 43q85 80 160 311h50l-31 -428h-1055v37l92 18q34 4 49 26t15 97v1063
q0 77 -14 96t-50 27l-92 18v37h1014l25 -362h-46q-81 186 -147 254q-28 29 -92 34t-191 5zM893 1667q0 -73 -84 -92l-403 -92l-11 28l340 222q83 53 133 -3q24 -28 25 -63z" />
    <glyph glyph-name="Ecircumflex" unicode="&#xca;" horiz-adv-x="1191" 
d="M614 1350q-127 0 -188 -19v-559h113q125 0 174 12t66 51q35 78 52 162h46v-520h-46q-38 162 -69 190q-31 29 -93 32q-63 3 -130 3h-113v-391q0 -82 5 -130q5 -49 31 -73t79 -31t137 -7t147 4t102 43q85 80 160 311h50l-31 -428h-1055v37l92 18q34 4 49 26t15 97v1063
q0 77 -14 96t-50 27l-92 18v37h1014l25 -362h-46q-81 186 -147 254q-28 29 -92 34t-191 5zM336 1499l252 256h71l254 -256l-16 -22l-272 120l-273 -120z" />
    <glyph glyph-name="Edieresis" unicode="&#xcb;" horiz-adv-x="1191" 
d="M614 1350q-127 0 -188 -19v-559h113q125 0 174 12t66 51q35 78 52 162h46v-520h-46q-38 162 -69 190q-31 29 -93 32q-63 3 -130 3h-113v-391q0 -82 5 -130q5 -49 31 -73t79 -31t137 -7t147 4t102 43q85 80 160 311h50l-31 -428h-1055v37l92 18q34 4 49 26t15 97v1063
q0 77 -14 96t-50 27l-92 18v37h1014l25 -362h-46q-81 186 -147 254q-28 29 -92 34t-191 5zM836 1503q-47 0 -81 34t-34 80t34 79t81 33q46 0 80 -33t34 -79t-34 -80t-80 -34zM414 1503q-47 0 -81 34t-34 80t34 79t81 33t81 -33q33 -33 33 -79t-34 -80t-80 -34z" />
    <glyph glyph-name="Igrave" unicode="&#xcc;" horiz-adv-x="649" 
d="M215 178v1063q0 76 -12 95t-51 28l-101 18v37h547v-37l-100 -18q-41 -8 -53 -27q-11 -19 -11 -96v-1063q0 -77 9 -93q9 -15 21 -20t34 -10l100 -18v-37h-547v37l101 18q36 4 49 26q14 23 14 97zM66 1668q0 34 24 62q48 54 133 3l340 -222l-10 -28l-403 92q-84 19 -84 93z
" />
    <glyph glyph-name="Iacute" unicode="&#xcd;" horiz-adv-x="649" 
d="M215 178v1063q0 76 -12 95t-51 28l-101 18v37h547v-37l-100 -18q-41 -8 -53 -27q-11 -19 -11 -96v-1063q0 -77 9 -93q9 -15 21 -20t34 -10l100 -18v-37h-547v37l101 18q36 4 49 26q14 23 14 97zM592 1667q0 -73 -84 -92l-404 -92l-10 28l340 222q84 53 134 -3
q24 -28 24 -63z" />
    <glyph glyph-name="Icircumflex" unicode="&#xce;" horiz-adv-x="649" 
d="M215 178v1063q0 76 -12 95t-51 28l-101 18v37h547v-37l-100 -18q-41 -8 -53 -27q-11 -19 -11 -96v-1063q0 -77 9 -93q9 -15 21 -20t34 -10l100 -18v-37h-547v37l101 18q36 4 49 26q14 23 14 97zM35 1499l252 256h71l254 -256l-16 -22l-272 120l-273 -120z" />
    <glyph glyph-name="Idieresis" unicode="&#xcf;" horiz-adv-x="649" 
d="M215 178v1063q0 76 -12 95t-51 28l-101 18v37h547v-37l-100 -18q-41 -8 -53 -27q-11 -19 -11 -96v-1063q0 -77 9 -93q9 -15 21 -20t34 -10l100 -18v-37h-547v37l101 18q36 4 49 26q14 23 14 97zM535 1503q-47 0 -81 34t-34 80t34 79t81 33t81 -33t33 -79q1 -46 -33 -80
t-81 -34zM113 1503q-47 0 -81 34t-34 80t34 79t81 33t81 -33t34 -79t-34 -80t-81 -34z" />
    <glyph glyph-name="Eth" unicode="&#xd0;" horiz-adv-x="1404" 
d="M618 1354q-128 0 -192 -19v-585h369v-64h-369v-428q0 -61 5 -99t31 -65.5t164 -27.5q259 0 368.5 163.5t109.5 479.5q0 315 -110.5 480t-375.5 165zM57 750h150v491q0 75 -13.5 95t-50.5 28l-92 18v37h598q485 0 584.5 -249.5t99.5 -437.5q0 -359 -188.5 -545.5
t-507.5 -186.5h-586v37l92 18q54 6 59 45t5 78v508h-150v64z" />
    <glyph glyph-name="Ntilde" unicode="&#xd1;" horiz-adv-x="1384" 
d="M289 1243v-1044q0 -88 13 -109q14 -22 30 -28t41 -11l86 -14v-37h-408v37l72 14q49 10 61 28q23 36 23 120v1042q0 77 -14 96t-50 27l-92 18v37h383l672 -1044h8v846q0 87 -13 108q-13 23 -29 29t-42 10l-94 14v37h416v-37l-72 -14q-48 -8 -61 -28q-23 -36 -23 -119
v-1229h-90l-809 1251h-8zM907 1655q35 1 59 25t52 71l33 -16q-45 -99 -82 -157t-97 -58t-180 22t-152 23q-32 0 -56 -25t-52 -72l-33 17q45 98 82 156q37 59 94 59t177 -22t155 -23z" />
    <glyph glyph-name="Ograve" unicode="&#xd2;" horiz-adv-x="1413" 
d="M713 49q209 0 306 153t97 482q0 461 -214 625q-81 61 -204 61q-209 0 -305 -158t-96 -487q0 -459 213 -616q80 -60 203 -60zM1146 148q-177 -173 -451 -173t-451 189q-176 189 -176 544t199 558q176 178 453 178t443 -187q181 -198 182 -555q1 -356 -199 -554zM449 1668
q0 34 24 62q48 54 133 3l340 -222l-10 -28l-404 92q-83 19 -83 93z" />
    <glyph glyph-name="Oacute" unicode="&#xd3;" horiz-adv-x="1413" 
d="M713 49q209 0 306 153t97 482q0 461 -214 625q-81 61 -204 61q-209 0 -305 -158t-96 -487q0 -459 213 -616q80 -60 203 -60zM1146 148q-177 -173 -451 -173t-451 189q-176 189 -176 544t199 558q176 178 453 178t443 -187q181 -198 182 -555q1 -356 -199 -554zM975 1667
q0 -73 -84 -92l-404 -92l-10 28l340 222q83 53 133 -3q24 -28 25 -63z" />
    <glyph glyph-name="Ocircumflex" unicode="&#xd4;" horiz-adv-x="1413" 
d="M713 49q209 0 306 153t97 482q0 461 -214 625q-81 61 -204 61q-209 0 -305 -158t-96 -487q0 -459 213 -616q80 -60 203 -60zM1146 148q-177 -173 -451 -173t-451 189q-176 189 -176 544t199 558q176 178 453 178t443 -187q181 -198 182 -555q1 -356 -199 -554zM418 1499
l252 256h71l254 -256l-16 -22l-272 120l-273 -120z" />
    <glyph glyph-name="Otilde" unicode="&#xd5;" horiz-adv-x="1413" 
d="M713 49q209 0 306 153t97 482q0 461 -214 625q-81 61 -204 61q-209 0 -305 -158t-96 -487q0 -459 213 -616q80 -60 203 -60zM1146 148q-177 -173 -451 -173t-451 189q-176 189 -176 544t199 558q176 178 453 178t443 -187q181 -198 182 -555q1 -356 -199 -554zM888 1655
q36 1 60 25t51 71l33 -16q-45 -99 -82 -157t-96 -58t-180 22t-153 23q-31 0 -55 -25t-52 -72l-33 17q45 98 82 156q37 59 94 59t176 -22t155 -23z" />
    <glyph glyph-name="Odieresis" unicode="&#xd6;" horiz-adv-x="1413" 
d="M713 49q209 0 306 153t97 482q0 461 -214 625q-81 61 -204 61q-209 0 -305 -158t-96 -487q0 -459 213 -616q80 -60 203 -60zM1146 148q-177 -173 -451 -173t-451 189q-176 189 -176 544t199 558q176 178 453 178t443 -187q181 -198 182 -555q1 -356 -199 -554zM918 1503
q-47 0 -81 34t-34 80t34 79t81 33q46 0 80 -33t34 -79t-34 -80t-80 -34zM496 1503q-47 0 -81 34t-34 80t34 79t81 33t81 -33q33 -33 33 -79t-34 -80t-80 -34z" />
    <glyph glyph-name="multiply" unicode="&#xd7;" horiz-adv-x="884" 
d="M86 389l287 303l-287 303l74 72l282 -301l287 301l70 -72l-287 -303l287 -303l-70 -72l-287 301l-282 -301z" />
    <glyph glyph-name="Oslash" unicode="&#xd8;" horiz-adv-x="1413" 
d="M393 1212.5q-96 -157.5 -96 -481.5t82 -485l606 999q-104 125 -300 125t-292 -157.5zM1019 201.5q97 152.5 97 476.5t-88 498l-604 -1000q105 -127 302 -127q196 0 293 152.5zM297 111q-229 194 -229 574t187.5 569.5t461.5 189.5q185 0 332 -92l88 143h86l-115 -186
q238 -197 238 -581q0 -383 -188 -568t-462 -185q-199 0 -338 93l-120 -199h-86z" />
    <glyph glyph-name="Ugrave" unicode="&#xd9;" horiz-adv-x="1386" 
d="M178 461v780q0 76 -12 95t-51 28l-92 18v37h526v-37l-88 -18q-41 -8 -52 -29q-12 -21 -12 -94v-801q0 -186 87 -276q86 -90 280 -90t278 102t84 283v762q0 87 -13 108q-13 23 -29 29t-42 10l-100 14v37h422v-37l-72 -14q-48 -8 -61 -28q-23 -36 -23 -119v-777
q0 -206 -116 -328q-132 -141 -380 -141q-390 0 -497 266q-37 91 -37 220zM492 1668q0 34 24 62q48 54 133 3l340 -222l-10 -28l-404 92q-83 19 -83 93z" />
    <glyph glyph-name="Uacute" unicode="&#xda;" horiz-adv-x="1386" 
d="M178 461v780q0 76 -12 95t-51 28l-92 18v37h526v-37l-88 -18q-41 -8 -52 -29q-12 -21 -12 -94v-801q0 -186 87 -276q86 -90 280 -90t278 102t84 283v762q0 87 -13 108q-13 23 -29 29t-42 10l-100 14v37h422v-37l-72 -14q-48 -8 -61 -28q-23 -36 -23 -119v-777
q0 -206 -116 -328q-132 -141 -380 -141q-390 0 -497 266q-37 91 -37 220zM1018 1667q0 -73 -84 -92l-404 -92l-10 28l340 222q84 53 134 -3q24 -28 24 -63z" />
    <glyph glyph-name="Ucircumflex" unicode="&#xdb;" horiz-adv-x="1386" 
d="M178 461v780q0 76 -12 95t-51 28l-92 18v37h526v-37l-88 -18q-41 -8 -52 -29q-12 -21 -12 -94v-801q0 -186 87 -276q86 -90 280 -90t278 102t84 283v762q0 87 -13 108q-13 23 -29 29t-42 10l-100 14v37h422v-37l-72 -14q-48 -8 -61 -28q-23 -36 -23 -119v-777
q0 -206 -116 -328q-132 -141 -380 -141q-390 0 -497 266q-37 91 -37 220zM461 1499l252 256h71l254 -256l-16 -22l-272 120l-273 -120z" />
    <glyph glyph-name="Udieresis" unicode="&#xdc;" horiz-adv-x="1386" 
d="M178 461v780q0 76 -12 95t-51 28l-92 18v37h526v-37l-88 -18q-41 -8 -52 -29q-12 -21 -12 -94v-801q0 -186 87 -276q86 -90 280 -90t278 102t84 283v762q0 87 -13 108q-13 23 -29 29t-42 10l-100 14v37h422v-37l-72 -14q-48 -8 -61 -28q-23 -36 -23 -119v-777
q0 -206 -116 -328q-132 -141 -380 -141q-390 0 -497 266q-37 91 -37 220zM961 1503q-47 0 -81 34t-34 80t34 79t81 33t81 -33t33 -79q1 -46 -33 -80t-81 -34zM539 1503q-47 0 -81 34t-34 80t34 79t81 33t81 -33t34 -79t-34 -80t-81 -34z" />
    <glyph glyph-name="Yacute" unicode="&#xdd;" horiz-adv-x="1232" 
d="M532 178v395l-339 613q-57 104 -84 137q-26 33 -66 45l-51 14v37h530v-37l-51 -12q-47 -10 -65 -28q-43 -42 20 -156l276 -522h9l239 522q31 67 31 101t-16 52t-64 29l-63 14v37h403v-37l-45 -14q-52 -17 -81 -52t-89 -159l-274 -567v-412q0 -77 9 -93q9 -15 21 -20
t33 -10l98 -18v-37h-542v37l98 18q39 9 51 29t12 94zM457 1511l340 222q82 52 133 -3q24 -28 24 -63q-1 -74 -84 -92l-403 -92z" />
    <glyph glyph-name="Thorn" unicode="&#xde;" horiz-adv-x="1167" 
d="M580 1069q-100 0 -154 -14v-877q0 -77 11 -96t52 -27l97 -18v-37h-535v37l92 18q54 6 59 45t5 78v1063q0 75 -13.5 95t-50.5 28l-92 18v37h535v-37l-97 -18q-41 -8 -52 -28t-11 -95v-102h190q248 0 378 -96.5t130 -284.5t-133 -304t-370 -116q-87 0 -127 16v47
q212 -8 307.5 68t95.5 270q0 265 -108.5 297.5t-208.5 32.5z" />
    <glyph glyph-name="germandbls" unicode="&#xdf;" horiz-adv-x="1214" 
d="M590 1493q-213 0 -213 -287v-1042q0 -67 8 -86t41 -27l66 -16v-35h-451v35l82 22q29 8 41 27.5t12 79.5v794h-141v37l141 49v43q0 242 132.5 352.5t303.5 110.5t265 -74t94 -180q0 -74 -46 -139t-100.5 -122.5t-100.5 -107.5t-46 -91t51 -85.5t159 -111.5
q108 -68 194.5 -137t86.5 -202q0 -156 -103 -235t-255 -79q-283 0 -283 155q0 43 27 71t78 28q91 0 104 -101q12 -61 30 -76.5t87 -15.5q70 0 113 44.5t43 98.5q0 91 -45 141.5t-134 105.5q-165 102 -218.5 159.5t-53.5 129.5q0 71 37 130t80 121.5t80 132.5t37 136
q0 248 -203 247z" />
    <glyph glyph-name="agrave" unicode="&#xe0;" horiz-adv-x="1003" 
d="M428 74q80 0 130 28t73 68v332l-156 -17q-225 -23 -225 -211q0 -102 49 -151t129 -49zM350 -27q-141 0 -223 70t-82 192t96 197q63 49 197 84l293 70v211q0 117 -32 160q-37 55 -159 57q-66 0 -90 -18t-30 -54q-5 -37 -13 -74t-35 -52q-28 -15 -74 -15q-46 1 -71 31
t-25 73t36 77q98 93 343 93q182 0 267 -66q84 -67 83 -200v-631q0 -105 95 -120q25 -3 57 -5v-30q-67 -47 -189 -47q-66 0 -105 33q-40 34 -50 85h-10q-37 -51 -114 -86t-165 -35zM217 1406q0 30 25 58q26 28 62 27q36 0 75 -31l321 -246l-12 -28l-395 123q-76 24 -76 97z
" />
    <glyph glyph-name="aacute" unicode="&#xe1;" horiz-adv-x="1003" 
d="M428 74q80 0 130 28t73 68v332l-156 -17q-225 -23 -225 -211q0 -102 49 -151t129 -49zM350 -27q-141 0 -223 70t-82 192t96 197q63 49 197 84l293 70v211q0 117 -32 160q-37 55 -159 57q-66 0 -90 -18t-30 -54q-5 -37 -13 -74t-35 -52q-28 -15 -74 -15q-46 1 -71 31
t-25 73t36 77q98 93 343 93q182 0 267 -66q84 -67 83 -200v-631q0 -105 95 -120q25 -3 57 -5v-30q-67 -47 -189 -47q-66 0 -105 33q-40 34 -50 85h-10q-37 -51 -114 -86t-165 -35zM690 1491q37 0 62 -28q46 -51 8 -113q-16 -27 -60 -41l-395 -123l-12 28l321 246
q39 31 76 31z" />
    <glyph glyph-name="acircumflex" unicode="&#xe2;" horiz-adv-x="1003" 
d="M428 74q80 0 130 28t73 68v332l-156 -17q-225 -23 -225 -211q0 -102 49 -151t129 -49zM350 -27q-141 0 -223 70t-82 192t96 197q63 49 197 84l293 70v211q0 117 -32 160q-37 55 -159 57q-66 0 -90 -18t-30 -54q-5 -37 -13 -74t-35 -52q-28 -15 -74 -15q-46 1 -71 31
t-25 73t36 77q98 93 343 93q182 0 267 -66q84 -67 83 -200v-631q0 -105 95 -120q25 -3 57 -5v-30q-67 -47 -189 -47q-66 0 -105 33q-40 34 -50 85h-10q-37 -51 -114 -86t-165 -35zM197 1202l252 279h71l254 -279l-16 -22l-273 143l-272 -143z" />
    <glyph glyph-name="atilde" unicode="&#xe3;" horiz-adv-x="1003" 
d="M428 74q80 0 130 28t73 68v332l-156 -17q-225 -23 -225 -211q0 -102 49 -151t129 -49zM350 -27q-141 0 -223 70t-82 192t96 197q63 49 197 84l293 70v211q0 117 -32 160q-37 55 -159 57q-66 0 -90 -18t-30 -54q-5 -37 -13 -74t-35 -52q-28 -15 -74 -15q-46 1 -71 31
t-25 73t36 77q98 93 343 93q182 0 267 -66q84 -67 83 -200v-631q0 -105 95 -120q25 -3 57 -5v-30q-67 -47 -189 -47q-66 0 -105 33q-40 34 -50 85h-10q-37 -51 -114 -86t-165 -35zM664 1358q38 0 62 24t52 72l33 -16q-45 -98 -82 -156t-96 -59q-59 1 -180 23t-153 22
t-56 -25t-51 -72l-33 17q45 98 82 156t97 59q60 -1 173 -23t152 -22z" />
    <glyph glyph-name="adieresis" unicode="&#xe4;" horiz-adv-x="1003" 
d="M428 74q80 0 130 28t73 68v332l-156 -17q-225 -23 -225 -211q0 -102 49 -151t129 -49zM350 -27q-141 0 -223 70t-82 192t96 197q63 49 197 84l293 70v211q0 117 -32 160q-37 55 -159 57q-66 0 -90 -18t-30 -54q-5 -37 -13 -74t-35 -52q-28 -15 -74 -15q-46 1 -71 31
t-25 73t36 77q98 93 343 93q182 0 267 -66q84 -67 83 -200v-631q0 -105 95 -120q25 -3 57 -5v-30q-67 -47 -189 -47q-66 0 -105 33q-40 34 -50 85h-10q-37 -51 -114 -86t-165 -35zM680 1206q-47 0 -81 34t-34 80t34 79t81 33t81 -33t34 -79t-34 -80t-81 -34zM291 1206
q-47 0 -81 34t-34 80t34 79t81 33t81 -33t34 -79t-34 -80t-81 -34z" />
    <glyph glyph-name="aring" unicode="&#xe5;" horiz-adv-x="1003" 
d="M428 74q80 0 130 28t73 68v332l-156 -17q-225 -23 -225 -211q0 -102 49 -151t129 -49zM350 -27q-141 0 -223 70t-82 192t96 197q63 49 197 84l293 70v211q0 117 -32 160q-37 55 -159 57q-66 0 -90 -18t-30 -54q-5 -37 -13 -74t-35 -52q-28 -15 -74 -15q-46 1 -71 31
t-25 73t36 77q98 93 343 93q182 0 267 -66q84 -67 83 -200v-631q0 -105 95 -120q25 -3 57 -5v-30q-67 -47 -189 -47q-66 0 -105 33q-40 34 -50 85h-10q-37 -51 -114 -86t-165 -35zM485 1237q53 0 85 35t32 89t-32 89t-85 35t-85 -35t-32 -89t32 -89t85 -35zM485 1178
q-80 0 -133 54t-53 130t53 129t133 53t133 -53q54 -53 54 -129t-54 -130t-133 -54z" />
    <glyph glyph-name="ae" unicode="&#xe6;" horiz-adv-x="1556" 
d="M1087 1014q-117 0 -185 -97.5t-75 -306.5l447 25q0 207 -27.5 270.5t-65 86t-94.5 22.5zM428 74q80 0 141.5 32.5t112.5 114.5q-55 125 -55 301l-152 -16q-100 -10 -162.5 -68t-62.5 -162t49 -153t129 -49zM1096 -25q-267 0 -381 183q-66 -86 -151 -135.5t-220 -49.5
t-217 70t-82 195t83 196.5t210 102.5l289 65v195q0 115 -26 151.5t-63.5 51t-102.5 14.5t-89 -17.5t-30 -54.5q-11 -77 -30 -109t-78 -32q-60 0 -85 30.5t-25 73.5t67 106.5t311 63.5q243 0 304 -141q118 141 317 141t300.5 -125t101.5 -401h-672q4 -244 92.5 -348.5
t241.5 -104.5q115 0 187.5 29t130.5 57v-57q-187 -150 -383 -150z" />
    <glyph glyph-name="ccedilla" unicode="&#xe7;" horiz-adv-x="956" 
d="M459 -104q166 -18 166 -139q0 -65 -76 -111.5t-236 -61.5v33q174 41 174 123q0 33 -29.5 47t-80.5 23l-10 14l77 158q-184 27 -285.5 168t-101.5 332q0 192 54.5 300.5t174 200.5t345.5 92q145 0 213.5 -47t68.5 -125q0 -47 -32.5 -78.5t-88.5 -31.5t-79 29.5t-32 89.5
t-29.5 79t-77.5 19q-134 0 -219 -102.5t-85 -333.5q0 -478 330 -478q102 0 189.5 29t136.5 57v-57q-173 -150 -394 -150h-24z" />
    <glyph glyph-name="egrave" unicode="&#xe8;" horiz-adv-x="1021" 
d="M548 1014q-114 0 -191 -93t-87 -294l469 24q-1 183 -39 273t-152 90zM555 -25q-243 0 -370 151q-128 151 -128 399t146 399t350 151q203 0 308 -121q104 -121 104 -389h-695q0 -358 208 -443q66 -26 162 -26t172 29t132 57v-57q-187 -150 -389 -150zM283 1406q1 30 25 58
t61 27q37 0 75 -31l322 -246l-12 -28l-396 123q-75 24 -75 97z" />
    <glyph glyph-name="eacute" unicode="&#xe9;" horiz-adv-x="1021" 
d="M548 1014q-114 0 -191 -93t-87 -294l469 24q-1 183 -39 273t-152 90zM555 -25q-243 0 -370 151q-128 151 -128 399t146 399t350 151q203 0 308 -121q104 -121 104 -389h-695q0 -358 208 -443q66 -26 162 -26t172 29t132 57v-57q-187 -150 -389 -150zM758 1491
q38 0 62 -28q24 -27 24 -57q0 -72 -76 -97l-395 -123l-13 28l322 246q39 31 76 31z" />
    <glyph glyph-name="ecircumflex" unicode="&#xea;" horiz-adv-x="1021" 
d="M548 1014q-114 0 -191 -93t-87 -294l469 24q-1 183 -39 273t-152 90zM555 -25q-243 0 -370 151q-128 151 -128 399t146 399t350 151q203 0 308 -121q104 -121 104 -389h-695q0 -358 208 -443q66 -26 162 -26t172 29t132 57v-57q-187 -150 -389 -150zM262 1202l252 279h72
l254 -279l-17 -22l-272 143l-272 -143z" />
    <glyph glyph-name="edieresis" unicode="&#xeb;" horiz-adv-x="1021" 
d="M548 1014q-114 0 -191 -93t-87 -294l469 24q-1 183 -39 273t-152 90zM555 -25q-243 0 -370 151q-128 151 -128 399t146 399t350 151q203 0 308 -121q104 -121 104 -389h-695q0 -358 208 -443q66 -26 162 -26t172 29t132 57v-57q-187 -150 -389 -150zM745 1206
q-47 0 -81 34t-33 80q0 46 34 79q35 33 81 33t80 -33t34 -79t-34 -80t-81 -34zM356 1206q-47 0 -81 34q-33 34 -33 80t33 79q34 33 81 33t81 -33t34 -79t-34 -80t-81 -34z" />
    <glyph glyph-name="igrave" unicode="&#xec;" horiz-adv-x="540" 
d="M377 870v-757q0 -27 13 -34t40 -13l82 -19v-47h-471v47l82 19q53 12 53 47v778q0 31 -12 44t-47 30l-76 34v29l330 43l14 -12q-8 -110 -8 -189zM94 1491q36 0 76 -31l322 -246l-13 -28l-395 123q-74 23 -76 97q0 30 25 58t61 27z" />
    <glyph glyph-name="iacute" unicode="&#xed;" horiz-adv-x="540" 
d="M377 870v-757q0 -27 13 -34t40 -13l82 -19v-47h-471v47l82 19q53 12 53 47v778q0 31 -12 44t-47 30l-76 34v29l330 43l14 -12q-8 -110 -8 -189zM484 1491q36 0 61 -28q46 -51 8 -113q-16 -27 -59 -41l-396 -123l-12 28l322 246q40 31 76 31z" />
    <glyph glyph-name="icircumflex" unicode="&#xee;" horiz-adv-x="540" 
d="M377 870v-757q0 -27 13 -34t40 -13l82 -19v-47h-471v47l82 19q53 12 53 47v778q0 31 -12 44t-47 30l-76 34v29l330 43l14 -12q-8 -110 -8 -189zM-12 1202l252 279h71l254 -279l-16 -22l-273 143l-272 -143z" />
    <glyph glyph-name="idieresis" unicode="&#xef;" horiz-adv-x="540" 
d="M377 870v-757q0 -27 13 -34t40 -13l82 -19v-47h-471v47l82 19q53 12 53 47v778q0 31 -12 44t-47 30l-76 34v29l330 43l14 -12q-8 -110 -8 -189zM471 1206q-47 0 -81 34t-34 80t34 79t81 33t81 -33t34 -79t-34 -80t-81 -34zM82 1206q-47 0 -81 34t-34 80t34 79t81 33
t81 -33t34 -79t-34 -80t-81 -34z" />
    <glyph glyph-name="eth" unicode="&#xf0;" horiz-adv-x="1132" 
d="M573 35q279 0 279 471q0 274 -73 391t-215 117t-213.5 -108.5t-71.5 -368.5t73.5 -381t220.5 -121zM1073 600q0 -326 -146.5 -476.5t-365.5 -150.5t-361.5 142.5t-142.5 401t148 408.5t350 150q138 0 225 -76q-51 159 -217 310l-252 -115l-22 55l225 103
q-135 107 -270 168l18 36q233 -80 356 -157l248 112l23 -55l-211 -96q199 -135 297 -320.5t98 -439.5z" />
    <glyph glyph-name="ntilde" unicode="&#xf1;" horiz-adv-x="1193" 
d="M744 1073q164 1 224 -67t60 -205v-637q0 -58 12 -78t41 -29l82 -22v-35h-471v35l82 22q31 9 42 27t11 80v592q0 110 -39 150t-137 40t-220 -38q-32 -9 -54 -15v-729q0 -64 9 -80q9 -17 44 -27l82 -22v-35h-471v35l82 22q29 7 41 27t12 80v686q0 58 -9 73t-21 21t-29 17
l-76 38v29l319 43l15 -8l-4 -119h8q201 129 365 129zM785 1358q39 0 63 24t51 72l33 -16q-45 -98 -82 -156t-96 -59q-59 1 -180 23t-153 22q-31 0 -55 -25t-53 -72l-32 17q45 98 81 157q37 58 97 58q60 -1 174 -23q113 -22 152 -22z" />
    <glyph glyph-name="ograve" unicode="&#xf2;" horiz-adv-x="1130" 
d="M568 35q142 1 213 113t71 372t-73 377t-215 117t-214 -109t-72 -369t74 -380q74 -121 216 -121zM560 -27q-104 0 -196 35t-160 104q-69 69 -108 172t-39 238q0 136 42 238q85 207 276 279q92 36 194 36q219 0 361 -139q143 -139 143 -401q0 -135 -43 -240
q-86 -208 -276 -285q-90 -37 -194 -37zM297 1406q0 30 25 58q26 28 62 27q36 0 75 -31l321 -246l-12 -28l-395 123q-76 24 -76 97z" />
    <glyph glyph-name="oacute" unicode="&#xf3;" horiz-adv-x="1130" 
d="M568 35q142 1 213 113t71 372t-73 377t-215 117t-214 -109t-72 -369t74 -380q74 -121 216 -121zM560 -27q-104 0 -196 35t-160 104q-69 69 -108 172t-39 238q0 136 42 238q85 207 276 279q92 36 194 36q219 0 361 -139q143 -139 143 -401q0 -135 -43 -240
q-86 -208 -276 -285q-90 -37 -194 -37zM772 1491q37 0 62 -28q46 -51 8 -113q-16 -27 -60 -41l-395 -123l-12 28l321 246q39 31 76 31z" />
    <glyph glyph-name="ocircumflex" unicode="&#xf4;" horiz-adv-x="1130" 
d="M568 35q142 1 213 113t71 372t-73 377t-215 117t-214 -109t-72 -369t74 -380q74 -121 216 -121zM560 -27q-104 0 -196 35t-160 104q-69 69 -108 172t-39 238q0 136 42 238q85 207 276 279q92 36 194 36q219 0 361 -139q143 -139 143 -401q0 -135 -43 -240
q-86 -208 -276 -285q-90 -37 -194 -37zM276 1202l252 279h72l254 -279l-16 -22l-273 143l-272 -143z" />
    <glyph glyph-name="otilde" unicode="&#xf5;" horiz-adv-x="1130" 
d="M568 35q142 1 213 113t71 372t-73 377t-215 117t-214 -109t-72 -369t74 -380q74 -121 216 -121zM560 -27q-104 0 -196 35t-160 104q-69 69 -108 172t-39 238q0 136 42 238q85 207 276 279q92 36 194 36q219 0 361 -139q143 -139 143 -401q0 -135 -43 -240
q-86 -208 -276 -285q-90 -37 -194 -37zM744 1358q38 0 62 24t52 72l33 -16q-45 -98 -82 -156t-96 -59q-59 1 -180 23t-153 22t-56 -25t-52 -72l-32 17q45 98 82 156t97 59q60 -1 173 -23t152 -22z" />
    <glyph glyph-name="odieresis" unicode="&#xf6;" horiz-adv-x="1130" 
d="M568 35q142 1 213 113t71 372t-73 377t-215 117t-214 -109t-72 -369t74 -380q74 -121 216 -121zM560 -27q-104 0 -196 35t-160 104q-69 69 -108 172t-39 238q0 136 42 238q85 207 276 279q92 36 194 36q219 0 361 -139q143 -139 143 -401q0 -135 -43 -240
q-86 -208 -276 -285q-90 -37 -194 -37zM760 1206q-47 0 -81 34t-34 80t34 79t81 33t81 -33q33 -33 33 -79t-34 -80t-80 -34zM371 1206q-47 0 -81 34t-34 80t34 79t81 33t81 -33t34 -79t-34 -80t-81 -34z" />
    <glyph glyph-name="divide" unicode="&#xf7;" horiz-adv-x="921" 
d="M72 737h778v-90h-778v90zM458 911q-50 0 -86 36t-36 87t36 85t86 34t87 -34t37 -85t-37 -87t-87 -36zM458 231q-50 0 -86 36t-36 87t36 85t86 34t87 -33.5t37 -85.5t-37 -87.5t-87 -35.5z" />
    <glyph glyph-name="oslash" unicode="&#xf8;" horiz-adv-x="1130" 
d="M852 506q0 227 -45 348l-442 -731q66 -88 208 -88q279 0 279 471zM279 553q0 -244 47 -358l442 731q-63 88 -204 88q-142 0 -213.5 -108.5t-71.5 -352.5zM57 522q0 256 148.5 404.5t359.5 148.5q143 0 258 -59l88 147h82l-112 -184q192 -141 192 -444q0 -258 -150 -410
t-358 -152q-141 0 -256 60l-98 -164h-82l121 201q-193 146 -193 452z" />
    <glyph glyph-name="ugrave" unicode="&#xf9;" horiz-adv-x="1179" 
d="M369 285q0 -185 165 -185q82 0 156 23t129 43v704q0 52 -7 66t-17 19t-29 14l-82 37v30l315 35l21 -16v-846q0 -88 30 -111q11 -8 29 -16l76 -35v-29l-319 -43l-15 13l4 127h-8q-81 -53 -177 -97t-212 -43q-116 0 -188 69t-72 200v626q0 54 -8 67t-18 18t-27 14l-82 37
v30l315 35l21 -16v-770zM328 1406q0 30 24 58t62 27q37 0 75 -31l322 -246l-12 -28l-396 123q-75 24 -75 97z" />
    <glyph glyph-name="uacute" unicode="&#xfa;" horiz-adv-x="1179" 
d="M369 285q0 -185 165 -185q82 0 156 23t129 43v704q0 52 -7 66t-17 19t-29 14l-82 37v30l315 35l21 -16v-846q0 -88 30 -111q11 -8 29 -16l76 -35v-29l-319 -43l-15 13l4 127h-8q-81 -53 -177 -97t-212 -43q-116 0 -188 69t-72 200v626q0 54 -8 67t-18 18t-27 14l-82 37
v30l315 35l21 -16v-770zM803 1491q37 0 61 -28q24 -27 25 -57q0 -72 -76 -97l-395 -123l-12 28l321 246q39 31 76 31z" />
    <glyph glyph-name="ucircumflex" unicode="&#xfb;" horiz-adv-x="1179" 
d="M369 285q0 -185 165 -185q82 0 156 23t129 43v704q0 52 -7 66t-17 19t-29 14l-82 37v30l315 35l21 -16v-846q0 -88 30 -111q11 -8 29 -16l76 -35v-29l-319 -43l-15 13l4 127h-8q-81 -53 -177 -97t-212 -43q-116 0 -188 69t-72 200v626q0 54 -8 67t-18 18t-27 14l-82 37
v30l315 35l21 -16v-770zM307 1202l252 279h72l254 -279l-17 -22l-272 143l-272 -143z" />
    <glyph glyph-name="udieresis" unicode="&#xfc;" horiz-adv-x="1179" 
d="M369 285q0 -185 165 -185q82 0 156 23t129 43v704q0 52 -7 66t-17 19t-29 14l-82 37v30l315 35l21 -16v-846q0 -88 30 -111q11 -8 29 -16l76 -35v-29l-319 -43l-15 13l4 127h-8q-81 -53 -177 -97t-212 -43q-116 0 -188 69t-72 200v626q0 54 -8 67t-18 18t-27 14l-82 37
v30l315 35l21 -16v-770zM791 1206q-47 0 -81 34t-34 80t34 79t81 33t81 -33t33 -79q1 -46 -33 -80t-81 -34zM401 1206q-47 0 -81 34t-33 80q0 46 34 79q35 33 81 33t80 -33t34 -79t-34 -80t-81 -34z" />
    <glyph glyph-name="yacute" unicode="&#xfd;" horiz-adv-x="1030" 
d="M23 -301q0 49 30 76q31 27 78 27q85 -1 109 -85q8 -23 14 -29t33 -7q27 0 69 54t95 181l30 76l-336 862q-34 87 -51 107t-53 30l-49 17v34h459v-34l-56 -15q-35 -10 -46 -21t-11 -43t29 -108l217 -577h8l207 577q47 134 14 155q-14 9 -43 17l-55 15v34h332v-34l-58 -17
q-35 -12 -50 -36q-15 -25 -52 -121l-348 -914q-62 -164 -119 -236q-86 -106 -229 -106q-82 0 -125 36t-43 85zM782 1491q36 0 62 -28q46 -51 8 -113q-16 -27 -59 -41l-396 -123l-12 28l322 246q39 31 75 31z" />
    <glyph glyph-name="thorn" unicode="&#xfe;" horiz-adv-x="1148" 
d="M872 530q0 424 -313 424q-86 0 -139 -22.5t-88 -38.5v-776q84 -76 183 -76t228 51t129 438zM332 -244q0 -63 10 -82.5t43 -23.5l109 -23v-35h-498v35l82 23q31 8 42 27.5t11 78.5v1575q0 57 -10.5 73.5t-48.5 35.5l-86 41v32l340 33l14 -12q-8 -108 -8 -244v-166l-2 -120
q-2 -27 -2 -52h8q163 121 344 121q273 0 338 -178t65 -393.5t-154.5 -371t-422.5 -155.5q-84 0 -176 27v-39l2 -92v-115z" />
    <glyph glyph-name="ydieresis" unicode="&#xff;" horiz-adv-x="1030" 
d="M23 -301q0 49 30 76q31 27 78 27q85 -1 109 -85q8 -23 14 -29t33 -7q27 0 69 54t95 181l30 76l-336 862q-34 87 -51 107t-53 30l-49 17v34h459v-34l-56 -15q-35 -10 -46 -21t-11 -43t29 -108l217 -577h8l207 577q47 134 14 155q-14 9 -43 17l-55 15v34h332v-34l-58 -17
q-35 -12 -50 -36q-15 -25 -52 -121l-348 -914q-62 -164 -119 -236q-86 -106 -229 -106q-82 0 -125 36t-43 85zM770 1206q-47 0 -81 34t-34 80t34 79t81 33t81 -33t34 -79t-34 -80t-81 -34zM381 1206q-47 0 -81 34t-34 80t34 79t81 33t81 -33t34 -79t-34 -80t-81 -34z" />
    <glyph glyph-name="Amacron" unicode="&#x100;" horiz-adv-x="1310" 
d="M377 569h405l-202 578h-11zM1319 0h-522v37l57 14q41 10 61 33t5 78t-29 96l-86 244h-451l-80 -244q-24 -70 -24 -132q0 -61 72 -75l67 -14v-37h-397v37l59 14q44 13 63 41t72 170l408 1157h113l428 -1179q39 -108 59 -136t36 -37t34 -16l55 -14v-37zM387 1669h526v-133
h-526v133z" />
    <glyph glyph-name="amacron" unicode="&#x101;" horiz-adv-x="1003" 
d="M428 74q80 0 130 28t73 68v332l-156 -17q-225 -23 -225 -211q0 -102 49 -151t129 -49zM350 -27q-141 0 -223 70t-82 192t96 197q63 49 197 84l293 70v211q0 117 -32 160q-37 55 -159 57q-66 0 -90 -18t-30 -54q-5 -37 -13 -74t-35 -52q-28 -15 -74 -15q-46 1 -71 31
t-25 73t36 77q98 93 343 93q182 0 267 -66q84 -67 83 -200v-631q0 -105 95 -120q25 -3 57 -5v-30q-67 -47 -189 -47q-66 0 -105 33q-40 34 -50 85h-10q-37 -51 -114 -86t-165 -35zM240 1372h491v-133h-491v133z" />
    <glyph glyph-name="Abreve" unicode="&#x102;" horiz-adv-x="1310" 
d="M377 569h405l-202 578h-11zM1319 0h-522v37l57 14q41 10 61 33t5 78t-29 96l-86 244h-451l-80 -244q-24 -70 -24 -132q0 -61 72 -75l67 -14v-37h-397v37l59 14q44 13 63 41t72 170l408 1157h113l428 -1179q39 -108 59 -136t36 -37t34 -16l55 -14v-37zM467 1569
q-72 82 -78 188l31 4q23 -57 78 -98t151 -41t152 41q55 41 78 98l30 -4q-9 -108 -77 -189t-181 -81q-112 0 -184 82z" />
    <glyph glyph-name="abreve" unicode="&#x103;" horiz-adv-x="1003" 
d="M428 74q80 0 130 28t73 68v332l-156 -17q-225 -23 -225 -211q0 -102 49 -151t129 -49zM350 -27q-141 0 -223 70t-82 192t96 197q63 49 197 84l293 70v211q0 117 -32 160q-37 55 -159 57q-66 0 -90 -18t-30 -54q-5 -37 -13 -74t-35 -52q-28 -15 -74 -15q-46 1 -71 31
t-25 73t36 77q98 93 343 93q182 0 267 -66q84 -67 83 -200v-631q0 -105 95 -120q25 -3 57 -5v-30q-67 -47 -189 -47q-66 0 -105 33q-40 34 -50 85h-10q-37 -51 -114 -86t-165 -35zM486 1180q-99 0 -165 84q-67 84 -71 186l31 4q23 -57 73 -98t131 -41q82 0 132 41t73 98
l31 -4q-14 -176 -141 -246q-42 -24 -94 -24z" />
    <glyph glyph-name="Aogonek" unicode="&#x104;" horiz-adv-x="1310" 
d="M377 569h403l-200 578h-11zM713 -274q0 60 22 97q45 74 144 131q47 28 98 56l-172 492h-451l-80 -244q-24 -70 -24 -132q0 -61 72 -75l67 -14v-37h-397v37l59 14q44 13 63 41t72 170l408 1157h113l428 -1179q39 -108 59 -136t36 -37t34 -16l55 -14v-37h-162
q-145 0 -212 -69q-66 -69 -66 -164q1 -83 55 -101q34 -11 115 -12v-33q-62 -37 -147 -37t-137 41t-52 101z" />
    <glyph glyph-name="aogonek" unicode="&#x105;" horiz-adv-x="1003" 
d="M428 74q80 0 130 28t73 68v332l-156 -17q-225 -23 -225 -211q0 -102 49 -151t129 -49zM795 -416q-84 0 -137 41q-52 41 -52 113q0 101 129 191q37 26 76 46q-84 0 -123 35t-49 84h-10q-37 -51 -114 -86t-165 -35q-141 0 -223 70t-82 192t96 197q63 49 197 84l293 70v211
q0 117 -32 160q-37 55 -159 57q-66 0 -90 -18t-30 -54q-5 -37 -13 -74t-35 -52q-28 -15 -74 -15q-46 1 -71 31t-25 73t36 77q98 93 343 93q182 0 267 -66q84 -67 83 -200v-631q0 -105 95 -120q25 -3 57 -5v-30q-211 -94 -211 -265q0 -74 54 -92q34 -12 116 -12v-33
q-63 -37 -147 -37z" />
    <glyph glyph-name="Cacute" unicode="&#x106;" horiz-adv-x="1249" 
d="M712 -25q-451 0 -591 394q-49 137 -49 335q0 381 208 572q181 168 492 168q227 0 381 -49l18 -406h-47q-47 147 -133 285q-29 47 -82 72q-53 24 -161 24q-225 -1 -334 -148q-109 -148 -109 -485q0 -539 236 -651q78 -37 196 -37t172 25q55 25 97 86q75 114 131 274h41
l-21 -368q-69 -35 -187 -63t-258 -28zM496 1511l340 222q82 52 133 -3q25 -28 25 -63q-1 -74 -85 -92l-403 -92z" />
    <glyph glyph-name="cacute" unicode="&#x107;" horiz-adv-x="956" 
d="M57 532q1 142 55 250t139 174q157 121 380 119q145 0 214 -47t68 -125q-1 -47 -33 -79t-88 -32t-79 30t-32 90t-29 79t-78 19q-130 1 -217 -102q-87 -102 -87 -334q0 -478 330 -478q102 0 190 29t136 57v-57q-172 -150 -418 -150q-94 0 -180 40q-270 123 -271 517z
M776 1491q37 0 62 -28q46 -51 8 -113q-16 -27 -60 -41l-395 -123l-12 28l321 246q39 31 76 31z" />
    <glyph glyph-name="Ccircumflex" unicode="&#x108;" horiz-adv-x="1249" 
d="M712 -25q-451 0 -591 394q-49 137 -49 335q0 381 208 572q181 168 492 168q227 0 381 -49l18 -406h-47q-47 147 -133 285q-29 47 -82 72q-53 24 -161 24q-225 -1 -334 -148q-109 -148 -109 -485q0 -539 236 -651q78 -37 196 -37t172 25q55 25 97 86q75 114 131 274h41
l-21 -368q-69 -35 -187 -63t-258 -28zM436 1499l252 256h72l254 -256l-17 -22l-272 120l-272 -120z" />
    <glyph glyph-name="ccircumflex" unicode="&#x109;" horiz-adv-x="956" 
d="M57 532q1 142 55 250t139 174q157 121 380 119q145 0 214 -47t68 -125q-1 -47 -33 -79t-88 -32t-79 30t-32 90t-29 79t-78 19q-130 1 -217 -102q-87 -102 -87 -334q0 -478 330 -478q102 0 190 29t136 57v-57q-172 -150 -418 -150q-94 0 -180 40q-270 123 -271 517z
M281 1202l251 279h72l254 -279l-16 -22l-273 143l-272 -143z" />
    <glyph glyph-name="Cdotaccent" unicode="&#x10a;" horiz-adv-x="1249" 
d="M712 -25q-451 0 -591 394q-49 137 -49 335q0 381 208 572q181 168 492 168q227 0 381 -49l18 -406h-47q-47 147 -133 285q-29 47 -82 72q-53 24 -161 24q-225 -1 -334 -148q-109 -148 -109 -485q0 -539 236 -651q78 -37 196 -37t172 25q55 25 97 86q75 114 131 274h41
l-21 -368q-69 -35 -187 -63t-258 -28zM725 1497q-47 0 -81 34t-34 80t34 79q34 32 81 32t81 -32t34 -79q0 -46 -34 -80t-81 -34z" />
    <glyph glyph-name="cdotaccent" unicode="&#x10b;" horiz-adv-x="956" 
d="M57 532q1 142 55 250t139 174q157 121 380 119q145 0 214 -47t68 -125q-1 -47 -33 -79t-88 -32t-79 30t-32 90t-29 79t-78 19q-130 1 -217 -102q-87 -102 -87 -334q0 -478 330 -478q102 0 190 29t136 57v-57q-172 -150 -418 -150q-94 0 -180 40q-270 123 -271 517z
M569 1200q-47 0 -81 34t-34 80t34 79t81 33t81 -34q34 -32 34 -78t-34 -80t-81 -34z" />
    <glyph glyph-name="Ccaron" unicode="&#x10c;" horiz-adv-x="1249" 
d="M712 -25q-451 0 -591 394q-49 137 -49 335q0 381 208 572q181 168 492 168q227 0 381 -49l18 -406h-47q-47 147 -133 285q-29 47 -82 72q-53 24 -161 24q-225 -1 -334 -148q-109 -148 -109 -485q0 -539 236 -651q78 -37 196 -37t172 25q55 25 97 86q75 114 131 274h41
l-21 -368q-69 -35 -187 -63t-258 -28zM436 1741l17 22l272 -121l272 121l17 -22l-252 -256h-72z" />
    <glyph glyph-name="ccaron" unicode="&#x10d;" horiz-adv-x="956" 
d="M57 532q1 142 55 250t139 174q157 121 380 119q145 0 214 -47t68 -125q-1 -47 -33 -79t-88 -32t-79 30t-32 90t-29 79t-78 19q-130 1 -217 -102q-87 -102 -87 -334q0 -478 330 -478q102 0 190 29t136 57v-57q-172 -150 -418 -150q-94 0 -180 40q-270 123 -271 517z
M281 1466l16 23l272 -143l273 143l16 -23l-252 -278h-71z" />
    <glyph glyph-name="Dcaron" unicode="&#x10e;" horiz-adv-x="1404" 
d="M618 1354q-135 0 -192 -19v-1077q0 -61 5 -99q5 -39 25 -59q33 -34 170 -34q258 0 378 177q100 151 100 466t-111 480t-375 165zM207 178v1063q0 77 -14 96t-50 27l-92 18v37h598q485 0 631 -366q53 -133 53 -321q0 -356 -188 -545q-188 -188 -508 -187h-586v37l92 18
q34 4 49 26t15 97zM406 1741l16 22l272 -121l273 121l16 -22l-252 -256h-72z" />
    <glyph glyph-name="dcaron" unicode="&#x10f;" horiz-adv-x="1177" 
d="M276 530q0 -442 304 -442q92 0 147 26t90 42v766q-91 86 -199 86q-342 0 -342 -478zM633 1073q112 0 186 -24q-2 23 -2 49v233q0 78 -32 94q-11 6 -27 15l-86 41v32l338 33l14 -12q-6 -80 -6 -132v-1193q0 -88 30 -111q11 -8 29 -16l76 -35v-29l-319 -43l-15 13l4 108h-8
q-163 -121 -346 -121q-268 0 -368 270q-35 99 -35 247q1 280 175 439q154 142 392 142zM1311 1466q0 -36 -19 -65l-145 -258l-31 8l17 293q5 102 85 102q94 0 93 -80z" />
    <glyph glyph-name="Dcroat" unicode="&#x110;" horiz-adv-x="1404" 
d="M618 1354q-135 0 -192 -19v-585h369v-64h-369v-428q0 -61 5 -99q5 -39 25 -59q33 -34 170 -34q258 0 378 177q100 151 100 466t-111 480t-375 165zM57 750h150v491q0 77 -14 96t-50 27l-92 18v37h598q485 0 631 -366q53 -133 53 -321q0 -356 -188 -545
q-188 -188 -508 -187h-586v37l92 18q34 4 49 26t15 97v508h-150v64z" />
    <glyph glyph-name="dcroat" unicode="&#x111;" horiz-adv-x="1177" 
d="M276 530q0 -442 304 -442q92 0 147 26t90 42v766q-91 86 -199 86q-342 0 -342 -478zM633 1073q112 0 186 -24q-2 23 -2 49v141h-319v74h319v18q0 78 -32 94q-11 6 -27 15l-86 41v32l338 33l14 -12q-6 -81 -6 -139v-82h129v-74h-129v-1030q0 -88 30 -111q11 -8 29 -16
l76 -35v-29l-319 -43l-15 13l4 108h-8q-163 -121 -346 -121q-268 0 -368 270q-35 99 -35 247q1 280 175 439q154 142 392 142z" />
    <glyph glyph-name="Emacron" unicode="&#x112;" horiz-adv-x="1191" 
d="M614 1350q-127 0 -188 -19v-559h113q125 0 174 12t66 51q35 78 52 162h46v-520h-46q-38 162 -69 190q-31 29 -93 32q-63 3 -130 3h-113v-391q0 -82 5 -130q5 -49 31 -73t79 -31t137 -7t147 4t102 43q85 80 160 311h50l-31 -428h-1055v37l92 18q34 4 49 26t15 97v1063
q0 77 -14 96t-50 27l-92 18v37h1014l25 -362h-46q-81 186 -147 254q-28 29 -92 34t-191 5zM362 1669h527v-133h-527v133z" />
    <glyph glyph-name="emacron" unicode="&#x113;" horiz-adv-x="1021" 
d="M548 1014q-114 0 -191 -93t-87 -294l469 24q-1 183 -39 273t-152 90zM555 -25q-243 0 -370 151q-128 151 -128 399t146 399t350 151q203 0 308 -121q104 -121 104 -389h-695q0 -358 208 -443q66 -26 162 -26t172 29t132 57v-57q-187 -150 -389 -150zM305 1372h492v-133
h-492v133z" />
    <glyph glyph-name="Ebreve" unicode="&#x114;" horiz-adv-x="1191" 
d="M614 1350q-127 0 -188 -19v-559h113q125 0 174 12t66 51q35 78 52 162h46v-520h-46q-38 162 -69 190q-31 29 -93 32q-63 3 -130 3h-113v-391q0 -82 5 -130q5 -49 31 -73t79 -31t137 -7t147 4t102 43q85 80 160 311h50l-31 -428h-1055v37l92 18q34 4 49 26t15 97v1063
q0 77 -14 96t-50 27l-92 18v37h1014l25 -362h-46q-81 186 -147 254q-28 29 -92 34t-191 5zM442 1570q-72 83 -77 187l30 4q23 -57 78 -98t151 -41t152 41q55 41 78 98l31 -4q-9 -107 -78 -188q-69 -82 -181 -82t-184 83z" />
    <glyph glyph-name="ebreve" unicode="&#x115;" horiz-adv-x="1021" 
d="M548 1014q-114 0 -191 -93t-87 -294l469 24q-1 183 -39 273t-152 90zM555 -25q-243 0 -370 151q-128 151 -128 399t146 399t350 151q203 0 308 -121q104 -121 104 -389h-695q0 -358 208 -443q66 -26 162 -26t172 29t132 57v-57q-187 -150 -389 -150zM552 1180
q-99 0 -165 83t-72 187l31 4q23 -57 73 -98t132 -41t132 41t73 98l30 -4q-14 -176 -140 -246q-42 -24 -94 -24z" />
    <glyph glyph-name="Edotaccent" unicode="&#x116;" horiz-adv-x="1191" 
d="M614 1350q-127 0 -188 -19v-559h113q125 0 174 12t66 51q35 78 52 162h46v-520h-46q-38 162 -69 190q-31 29 -93 32q-63 3 -130 3h-113v-391q0 -82 5 -130q5 -49 31 -73t79 -31t137 -7t147 4t102 43q85 80 160 311h50l-31 -428h-1055v37l92 18q34 4 49 26t15 97v1063
q0 77 -14 96t-50 27l-92 18v37h1014l25 -362h-46q-81 186 -147 254q-28 29 -92 34t-191 5zM625 1497q-47 0 -81 34t-34 80t34 79q34 32 81 32t81 -32t34 -79q0 -46 -34 -80t-81 -34z" />
    <glyph glyph-name="edotaccent" unicode="&#x117;" horiz-adv-x="1021" 
d="M548 1014q-114 0 -191 -93t-87 -294l469 24q-1 183 -39 273t-152 90zM555 -25q-243 0 -370 151q-128 151 -128 399t146 399t350 151q203 0 308 -121q104 -121 104 -389h-695q0 -358 208 -443q66 -26 162 -26t172 29t132 57v-57q-187 -150 -389 -150zM551 1200
q-47 0 -81 34t-34 80t34 79t81 33t81 -34q34 -32 34 -78t-34 -80t-81 -34z" />
    <glyph glyph-name="Eogonek" unicode="&#x118;" horiz-adv-x="1191" 
d="M838 -416q-84 0 -137 41q-52 41 -52 99t25 96q68 107 211 180h-834v37l92 18q34 4 49 26t15 97v1063q0 77 -14 96t-50 27l-92 18v37h1014l25 -362h-46q-81 186 -128 234t-111 54q-64 5 -191 5t-188 -19v-559h113q125 0 174 12t66 51q35 78 52 162h46v-520h-46
q-38 162 -69 190q-31 29 -93 32q-63 3 -130 3h-113v-391q0 -82 5 -130q5 -49 31 -73t79 -31t137 -7t147 4t102 43q85 80 160 311h50l-31 -428h-180q-111 -125 -111 -242q0 -94 85 -101q43 -3 85 -3v-33q-63 -37 -147 -37z" />
    <glyph glyph-name="eogonek" unicode="&#x119;" horiz-adv-x="1021" 
d="M548 1014q-114 0 -191 -93t-87 -294l469 24q-1 183 -39 273t-152 90zM57 531q0 125 40 225q80 201 268 280q90 39 187 39q204 0 309 -121q104 -121 104 -389h-695q0 -358 208 -443q66 -26 162 -26t172 29t132 57v-57q-29 -23 -77 -55q-49 -32 -105 -74t-102 -104
t-46 -122t16 -78t46 -28q28 -10 108 -10v-33q-62 -37 -147 -37q-84 0 -136 41t-52 113q0 106 161 215q41 27 80 47q-192 -58 -365 18t-237 287q-31 102 -31 226z" />
    <glyph glyph-name="Ecaron" unicode="&#x11a;" horiz-adv-x="1191" 
d="M614 1350q-127 0 -188 -19v-559h113q125 0 174 12t66 51q35 78 52 162h46v-520h-46q-38 162 -69 190q-31 29 -93 32q-63 3 -130 3h-113v-391q0 -82 5 -130q5 -49 31 -73t79 -31t137 -7t147 4t102 43q85 80 160 311h50l-31 -428h-1055v37l92 18q34 4 49 26t15 97v1063
q0 77 -14 96t-50 27l-92 18v37h1014l25 -362h-46q-81 186 -147 254q-28 29 -92 34t-191 5zM336 1741l16 22l273 -121l272 121l16 -22l-251 -256h-72z" />
    <glyph glyph-name="ecaron" unicode="&#x11b;" horiz-adv-x="1021" 
d="M548 1014q-114 0 -191 -93t-87 -294l469 24q-1 183 -39 273t-152 90zM555 -25q-243 0 -370 151q-128 151 -128 399t146 399t350 151q203 0 308 -121q104 -121 104 -389h-695q0 -358 208 -443q66 -26 162 -26t172 29t132 57v-57q-187 -150 -389 -150zM262 1466l17 23
l272 -143l272 143l17 -23l-252 -278h-72z" />
    <glyph glyph-name="Gcircumflex" unicode="&#x11c;" horiz-adv-x="1370" 
d="M475 18q-403 136 -403 691q0 374 211 568q180 167 489 167q244 0 404 -39l26 -408h-47q-63 179 -101 234q-39 55 -59 79t-60 42t-173 18q-225 0 -343 -147t-118 -489q-1 -342 105 -514t350 -171q138 0 243 51v306q0 72 -10 89t-22 22t-31 9l-96 21v37h512v-37l-70 -17
q-39 -9 -51 -29q-12 -21 -12 -95v-367q-223 -64 -420 -64t-324 43zM461 1499l252 256h71l254 -256l-16 -22l-272 120l-273 -120z" />
    <glyph glyph-name="gcircumflex" unicode="&#x11d;" horiz-adv-x="999" 
d="M647 711q-1 305 -193 305t-192 -275q0 -161 50 -229t143 -68q94 0 143 60t49 207zM446 -356q160 0 269 63t108 180q0 70 -41 114t-149 44h-336q-47 -12 -91 -57t-44 -127q-1 -217 284 -217zM334 231h336q144 0 218 -59q75 -59 75 -201q0 -59 -27 -128q-28 -69 -92 -127
q-149 -134 -432 -134q-205 0 -321 68t-116 178q0 151 232 221v8q-59 19 -97 59t-38 91q0 110 101 192q28 23 52 41v9q-68 29 -119 101t-51 164q0 174 121 268t279 91q121 0 219 -51q105 90 223 90q47 0 79 -25t32 -67t-22 -70q-22 -26 -62 -26t-60 16q-18 16 -32 48
q-28 63 -119 11v-6q63 -37 102 -105t39 -155q0 -164 -128 -262q-106 -82 -271 -84q-99 0 -179 33q-71 -49 -69 -109q0 -80 127 -80zM186 1202l252 279h72l254 -279l-16 -22l-273 143l-272 -143z" />
    <glyph glyph-name="Gbreve" unicode="&#x11e;" horiz-adv-x="1370" 
d="M475 18q-403 136 -403 691q0 374 211 568q180 167 489 167q244 0 404 -39l26 -408h-47q-63 179 -101 234q-39 55 -59 79t-60 42t-173 18q-225 0 -343 -147t-118 -489q-1 -342 105 -514t350 -171q138 0 243 51v306q0 72 -10 89t-22 22t-31 9l-96 21v37h512v-37l-70 -17
q-39 -9 -51 -29q-12 -21 -12 -95v-367q-223 -64 -420 -64t-324 43zM567 1569q-72 82 -78 188l31 4q23 -57 78 -98q56 -41 152 -41t151 41t78 98l31 -4q-9 -107 -78 -188q-69 -82 -181 -82t-184 82z" />
    <glyph glyph-name="gbreve" unicode="&#x11f;" horiz-adv-x="999" 
d="M647 711q-1 305 -193 305t-192 -275q0 -161 50 -229t143 -68q94 0 143 60t49 207zM446 -356q160 0 269 63t108 180q0 70 -41 114t-149 44h-336q-47 -12 -91 -57t-44 -127q-1 -217 284 -217zM334 231h336q144 0 218 -59q75 -59 75 -201q0 -59 -27 -128q-28 -69 -92 -127
q-149 -134 -432 -134q-205 0 -321 68t-116 178q0 151 232 221v8q-59 19 -97 59t-38 91q0 110 101 192q28 23 52 41v9q-68 29 -119 101t-51 164q0 174 121 268t279 91q121 0 219 -51q105 90 223 90q47 0 79 -25t32 -67t-22 -70q-22 -26 -62 -26t-60 16q-18 16 -32 48
q-28 63 -119 11v-6q63 -37 102 -105t39 -155q0 -164 -128 -262q-106 -82 -271 -84q-99 0 -179 33q-71 -49 -69 -109q0 -80 127 -80zM476 1180q-99 0 -165 84q-67 84 -71 186l30 4q23 -57 73 -98t132 -41t132 41t73 98l31 -4q-14 -176 -141 -246q-42 -24 -94 -24z" />
    <glyph glyph-name="Gdotaccent" unicode="&#x120;" horiz-adv-x="1370" 
d="M475 18q-403 136 -403 691q0 374 211 568q180 167 489 167q244 0 404 -39l26 -408h-47q-63 179 -101 234q-39 55 -59 79t-60 42t-173 18q-225 0 -343 -147t-118 -489q-1 -342 105 -514t350 -171q138 0 243 51v306q0 72 -10 89t-22 22t-31 9l-96 21v37h512v-37l-70 -17
q-39 -9 -51 -29q-12 -21 -12 -95v-367q-223 -64 -420 -64t-324 43zM750 1497q-47 0 -81 34t-34 80t34 79q34 32 81 32q46 0 80 -32t34 -79q0 -46 -34 -80t-80 -34z" />
    <glyph glyph-name="gdotaccent" unicode="&#x121;" horiz-adv-x="999" 
d="M647 711q-1 305 -193 305t-192 -275q0 -161 50 -229t143 -68q94 0 143 60t49 207zM446 -356q160 0 269 63t108 180q0 70 -41 114t-149 44h-336q-47 -12 -91 -57t-44 -127q-1 -217 284 -217zM334 231h336q144 0 218 -59q75 -59 75 -201q0 -59 -27 -128q-28 -69 -92 -127
q-149 -134 -432 -134q-205 0 -321 68t-116 178q0 151 232 221v8q-59 19 -97 59t-38 91q0 110 101 192q28 23 52 41v9q-68 29 -119 101t-51 164q0 174 121 268t279 91q121 0 219 -51q105 90 223 90q47 0 79 -25t32 -67t-22 -70q-22 -26 -62 -26t-60 16q-18 16 -32 48
q-28 63 -119 11v-6q63 -37 102 -105t39 -155q0 -164 -128 -262q-106 -82 -271 -84q-99 0 -179 33q-71 -49 -69 -109q0 -80 127 -80zM475 1200q-47 0 -81 34t-34 80t34 79t81 33t81 -34q34 -32 34 -78t-34 -80t-81 -34z" />
    <glyph glyph-name="Gcommaaccent" unicode="&#x122;" horiz-adv-x="1370" 
d="M606 -216q0 40 33 70t85 30t90 -37t38 -113t-57 -143t-187 -93l-12 33q92 35 124 78t32 96q-22 -14 -58 -14q-36 1 -62 27t-26 66zM475 18q-403 136 -403 691q0 374 211 568q180 167 489 167q244 0 404 -39l26 -408h-47q-63 179 -101 234q-39 55 -59 79t-60 42t-173 18
q-225 0 -343 -147t-118 -489q-1 -342 105 -514t350 -171q138 0 243 51v306q0 72 -10 89t-22 22t-31 9l-96 21v37h512v-37l-70 -17q-39 -9 -51 -29q-12 -21 -12 -95v-367q-223 -64 -420 -64t-324 43z" />
    <glyph glyph-name="gcommaaccent" unicode="&#x123;" horiz-adv-x="999" 
d="M507 1395q35 0 61 -27t26 -67q0 -39 -33 -69t-85 -30t-90 36t-38 113t58 143t186 93l12 -33q-92 -36 -124 -78t-31 -96q22 15 58 15zM647 711q-1 305 -193 305t-192 -275q0 -161 50 -229t143 -68q94 0 143 60t49 207zM446 -356q160 0 269 63t108 180q0 70 -41 114
t-149 44h-336q-47 -12 -91 -57t-44 -127q-1 -217 284 -217zM334 231h336q144 0 218 -59q75 -59 75 -201q0 -59 -27 -128q-28 -69 -92 -127q-149 -134 -432 -134q-205 0 -321 68t-116 178q0 151 232 221v8q-59 19 -97 59t-38 91q0 110 101 192q28 23 52 41v9q-68 29 -119 101
t-51 164q0 174 121 268t279 91q121 0 219 -51q105 90 223 90q47 0 79 -25t32 -67t-22 -70q-22 -26 -62 -26t-60 16q-18 16 -32 48q-28 63 -119 11v-6q63 -37 102 -105t39 -155q0 -164 -128 -262q-106 -82 -271 -84q-99 0 -179 33q-71 -49 -69 -109q0 -80 127 -80z" />
    <glyph glyph-name="Hcircumflex" unicode="&#x124;" horiz-adv-x="1466" 
d="M207 178v1063q0 77 -14 96t-50 27l-92 18v37h535v-37l-97 -18q-39 -8 -51 -28t-12 -95v-483h614v483q0 77 -12 96t-51 27l-96 18v37h534v-37l-92 -18q-40 -9 -52 -29q-11 -20 -11 -94v-1063q0 -74 10 -91t22 -22t31 -10l92 -18v-37h-534v37l96 18q41 8 52 27t11 96v510
h-614v-510q0 -77 9 -93q9 -15 21 -20t33 -10l97 -18v-37h-535v37l92 18q34 4 49 26t15 97zM444 1499l252 256h72l254 -256l-16 -22l-273 120l-272 -120z" />
    <glyph glyph-name="hcircumflex" unicode="&#x125;" horiz-adv-x="1193" 
d="M744 1073q164 1 224 -67t60 -205v-637q0 -58 12 -78t41 -29l82 -22v-35h-471v35l82 22q31 9 42 27t11 80v592q0 110 -39 150t-137 40t-220 -38q-32 -9 -54 -15v-729q0 -64 9 -80q9 -17 44 -27l82 -22v-35h-471v35l82 22q29 7 41 27t12 80v1167q0 78 -32 94q-11 6 -27 15
l-86 41v32l340 33l14 -12q-8 -132 -8 -244v-166l-6 -180h8q201 129 365 129zM307 1642l252 256h72l254 -256l-17 -22l-272 121l-272 -121z" />
    <glyph glyph-name="Hbar" unicode="&#x126;" horiz-adv-x="1466" 
d="M1040 758v256h-614v-256h614zM207 178v836h-174v69h174v158q0 77 -14 96t-50 27l-92 18v37h535v-37l-97 -18q-39 -8 -51 -28t-12 -95v-158h614v158q0 77 -12 96t-51 27l-96 18v37h534v-37l-92 -18q-40 -9 -52 -29q-11 -20 -11 -94v-158h174v-69h-174v-836q0 -74 10 -91
t22 -22t31 -10l92 -18v-37h-534v37l96 18q41 8 52 27t11 96v510h-614v-510q0 -77 9 -93q9 -15 21 -20t33 -10l97 -18v-37h-535v37l92 18q34 4 49 26t15 97z" />
    <glyph glyph-name="hbar" unicode="&#x127;" horiz-adv-x="1193" 
d="M385 1534q-8 -132 -8 -221h319v-74h-319v-115l-6 -180h8q200 129 365 129q164 1 224 -67t60 -205v-637q0 -58 12 -78t41 -29l82 -22v-35h-471v35l82 22q31 9 42 27t11 80v592q0 110 -39 150t-137 40t-220 -38q-32 -9 -54 -15v-729q0 -64 9 -80q9 -17 44 -27l82 -22v-35
h-471v35l82 22q29 7 41 27t12 80v1075h-160v74h160v18q0 78 -32 94q-11 6 -27 15l-86 41v32l340 33z" />
    <glyph glyph-name="Itilde" unicode="&#x128;" horiz-adv-x="649" 
d="M215 178v1063q0 76 -12 95t-51 28l-101 18v37h547v-37l-100 -18q-41 -8 -53 -27q-11 -19 -11 -96v-1063q0 -77 9 -93q9 -15 21 -20t34 -10l100 -18v-37h-547v37l101 18q36 4 49 26q14 23 14 97zM506 1655q34 1 58 25t52 71l33 -16q-45 -99 -82 -157t-96 -58t-180 22
t-153 23q-32 0 -56 -25t-51 -72l-33 17q45 98 82 156q37 59 94 59t176 -22q121 -22 156 -23z" />
    <glyph glyph-name="itilde" unicode="&#x129;" horiz-adv-x="540" 
d="M377 870v-757q0 -27 13 -34t40 -13l82 -19v-47h-471v47l82 19q53 12 53 47v778q0 31 -12 44t-47 30l-76 34v29l330 43l14 -12q-8 -110 -8 -189zM455 1358q39 0 63 24t51 72l33 -16q-45 -98 -82 -156t-96 -59q-59 1 -180 23t-153 22q-31 0 -55 -25t-52 -72l-33 17
q45 98 82 156t97 59q60 -1 173 -23t152 -22z" />
    <glyph glyph-name="Imacron" unicode="&#x12a;" horiz-adv-x="649" 
d="M215 178v1063q0 76 -12 95t-51 28l-101 18v37h547v-37l-100 -18q-41 -8 -53 -27q-11 -19 -11 -96v-1063q0 -77 9 -93q9 -15 21 -20t34 -10l100 -18v-37h-547v37l101 18q36 4 49 26q14 23 14 97zM61 1669h527v-133h-527v133z" />
    <glyph glyph-name="imacron" unicode="&#x12b;" horiz-adv-x="540" 
d="M29 1372h491v-133h-491v133zM377 870v-757q0 -27 13 -34t40 -13l82 -19v-47h-471v47l82 19q53 12 53 47v778q0 31 -12 44t-47 30l-76 34v29l330 43l14 -12q-8 -110 -8 -189z" />
    <glyph glyph-name="Ibreve" unicode="&#x12c;" horiz-adv-x="649" 
d="M215 178v1063q0 76 -12 95t-51 28l-101 18v37h547v-37l-100 -18q-41 -8 -53 -27q-11 -19 -11 -96v-1063q0 -77 9 -93q9 -15 21 -20t34 -10l100 -18v-37h-547v37l101 18q36 4 49 26q14 23 14 97zM141 1569q-72 82 -78 188l31 4q23 -57 78 -98q56 -41 152 -41t151 41t78 98
l31 -4q-9 -107 -78 -188q-69 -82 -181 -82t-184 82z" />
    <glyph glyph-name="ibreve" unicode="&#x12d;" horiz-adv-x="540" 
d="M377 870v-757q0 -27 13 -34t40 -13l82 -19v-47h-471v47l82 19q53 12 53 47v778q0 31 -12 44t-47 30l-76 34v29l330 43l14 -12q-8 -110 -8 -189zM276 1315q82 0 133 41q50 41 72 98l31 -4q-9 -112 -73 -191t-163 -79t-165 84t-70 186l31 4q22 -57 72 -98t132 -41z" />
    <glyph glyph-name="Iogonek" unicode="&#x12e;" horiz-adv-x="649" 
d="M160 -270q0 58 22 95q56 92 189 175h-320v37l101 18q36 4 49 26q14 22 14 97v1063q0 76 -12 95t-51 28l-101 18v37h547v-37l-100 -18q-41 -8 -53 -27q-11 -19 -11 -96v-1063q0 -77 9 -93q9 -15 21 -20t34 -10l100 -18v-37h-186q-86 -130 -86 -224q0 -95 54 -111
q35 -11 116 -11v-33q-62 -37 -147 -37t-137 44t-52 102z" />
    <glyph glyph-name="iogonek" unicode="&#x12f;" horiz-adv-x="540" 
d="M268 1233q-51 0 -87 37t-36 85t36 84t87 36t87 -36t36 -84t-36 -85t-87 -37zM360 0q-86 -128 -86 -224q0 -94 56 -111q35 -11 114 -11v-33q-62 -37 -147 -37q-84 0 -136 44t-52 116q0 121 210 256h-278v35l82 22q29 7 41 27t12 80v686q0 58 -9 73t-21 21t-29 17l-76 38
v29l330 43l14 -8q-8 -108 -8 -193v-706q0 -64 9 -80q9 -17 44 -27l82 -22v-35h-152z" />
    <glyph glyph-name="Idotaccent" unicode="&#x130;" horiz-adv-x="649" 
d="M215 178v1063q0 76 -12 95t-51 28l-101 18v37h547v-37l-100 -18q-41 -8 -53 -27q-11 -19 -11 -96v-1063q0 -77 9 -93q9 -15 21 -20t34 -10l100 -18v-37h-547v37l101 18q36 4 49 26q14 23 14 97zM324 1497q-47 0 -81 34t-34 80t34 79q34 32 81 32q46 0 80 -32t34 -79
q0 -46 -34 -80t-80 -34z" />
    <glyph glyph-name="dotlessi" unicode="&#x131;" horiz-adv-x="540" 
d="M377 870v-757q0 -27 13 -34t40 -13l82 -19v-47h-471v47l82 19q53 12 53 47v778q0 31 -12 44t-47 30l-76 34v29l330 43l14 -12q-8 -110 -8 -189z" />
    <glyph glyph-name="IJ" unicode="&#x132;" horiz-adv-x="1282" 
d="M672 -334q-108 0 -163 38q-56 38 -56 87q0 111 108 111q61 0 86 -32t38 -76t21 -50t44 -6q38 0 72 48t34 161v1294q0 77 -12 96t-51 27l-97 18v37h535v-37l-92 -18q-40 -9 -52 -30t-12 -93v-1120q0 -98 -24 -182q-82 -273 -379 -273zM215 178v1063q0 76 -12 95t-51 28
l-101 18v37h547v-37l-100 -18q-41 -8 -53 -27q-11 -19 -11 -96v-1063q0 -77 9 -93q9 -15 21 -20t34 -10l100 -18v-37h-547v37l101 18q36 4 49 26q14 23 14 97z" />
    <glyph glyph-name="ij" unicode="&#x133;" horiz-adv-x="1064" 
d="M268 1233q-51 0 -87 37t-36 85t36 84t87 36t87 -36t36 -84t-36 -85t-87 -37zM377 870v-706q0 -64 9 -80q9 -17 44 -27l82 -22v-35h-471v35l82 22q29 7 41 27t12 80v686q0 58 -9 73t-21 21t-29 17l-76 38v29l330 43l14 -8q-8 -108 -8 -193zM805 1233q-51 0 -87 37t-36 85
t36 84t87 36t87 -36t36 -84t-36 -85t-87 -37zM373 -300q0 98 106 98q53 0 74 -29q19 -29 25 -70t13 -52t39 -11t59 34q28 35 28 111v1069q0 58 -9 73q-8 15 -20 21t-31 17l-75 38v29l329 43l15 -8q-8 -108 -8 -193v-874q0 -218 -100 -320t-265 -102q-94 0 -137 40t-43 86z
" />
    <glyph glyph-name="Jcircumflex" unicode="&#x134;" horiz-adv-x="632" 
d="M-85 -98q58 0 83 -32t38 -76t20 -50t45 -6t72 48t34 161v1294q0 77 -12 96t-52 27l-96 18v37h535v-37l-93 -18q-39 -9 -51 -29t-12 -94v-1120q0 -202 -101 -329q-101 -126 -301 -126q-108 0 -164 38t-56 87t26 80q27 31 85 31zM27 1499l252 256h71l254 -256l-16 -22
l-273 120l-272 -120z" />
    <glyph glyph-name="jcircumflex" unicode="&#x135;" horiz-adv-x="524" 
d="M377 870v-874q0 -218 -100 -320t-265 -102q-94 0 -137 40t-43 86t27 72t79 26t74 -29q20 -29 26 -70t12 -52q7 -11 24 -12q102 0 102 146v1069q0 58 -9 73t-21 21t-29 17l-76 38v29l330 43l14 -8q-8 -108 -8 -193zM-12 1202l252 279h71l254 -279l-16 -22l-273 143
l-272 -143z" />
    <glyph glyph-name="Kcommaaccent" unicode="&#x136;" horiz-adv-x="1300" 
d="M658 -309q-36 1 -63 27q-26 26 -26 66t33 70t85 30t90 -37t38 -113t-57 -143t-187 -93l-12 33q92 35 124 78t32 96q-21 -14 -57 -14zM207 178v1063q0 77 -14 96t-50 27l-92 18v37h535v-37l-97 -18q-39 -8 -51 -28t-12 -95v-1063q0 -77 9 -93q9 -15 21 -20t33 -10l97 -18
v-37h-535v37l92 18q34 4 49 26t15 97zM811 1419h440v-37l-55 -14q-51 -12 -87 -41t-105 -110l-351 -390q85 -154 234 -363t284 -368q23 -26 33 -32t33 -11l70 -16v-37h-326q-133 149 -268 348q-135 198 -221 357v26l426 494q35 41 34 78q0 45 -73 63l-68 16v37z" />
    <glyph glyph-name="kcommaaccent" unicode="&#x137;" horiz-adv-x="1069" 
d="M560 -309q-36 1 -62 27t-25 66q0 40 33 70t85 30t90 -37t38 -113t-57 -143t-187 -93l-12 33q92 35 124 78t31 96q-22 -14 -58 -14zM377 1290v-1126q0 -64 9 -80q9 -17 44 -27l82 -22v-35h-471v35l82 22q29 7 41 27t12 80v1167q0 78 -32 94q-11 6 -27 15l-86 41v32l340 33
l14 -12q-8 -132 -8 -244zM743 954q0 16 -12 24t-43 19l-29 11v34h361v-34l-62 -21q-57 -15 -115 -73q-22 -22 -52 -54l-224 -239q132 -202 272 -372t167 -184q12 -7 28 -12l58 -18v-35h-283q-181 197 -397 516v14l237 271q94 112 94 153z" />
    <glyph glyph-name="Lacute" unicode="&#x139;" horiz-adv-x="1126" 
d="M207 178v1063q0 77 -14 96t-50 27l-92 18v37h543v-37l-105 -20q-39 -9 -51 -29t-12 -92v-977q0 -63 4 -102q8 -74 92 -86q45 -6 120 -6t139 4t104 43q90 81 164 325h49l-25 -442h-1022v37l92 18q34 4 49 26t15 97zM588 1667q0 -73 -84 -92l-404 -92l-10 28l340 222
q84 53 134 -3q24 -28 24 -63z" />
    <glyph glyph-name="lacute" unicode="&#x13a;" horiz-adv-x="542" 
d="M377 1290v-1126q0 -64 9 -80q9 -17 44 -27l82 -22v-35h-471v35l82 22q29 7 41 27t12 80v1167q0 78 -32 94q-11 6 -27 15l-86 41v32l340 33l14 -12q-8 -132 -8 -244zM455 1880q35 0 59 -28t25 -62q0 -73 -84 -92l-404 -92l-10 28l340 221q39 25 74 25z" />
    <glyph glyph-name="Lcommaaccent" unicode="&#x13b;" horiz-adv-x="1126" 
d="M576 -309q-36 1 -63 27q-26 26 -26 66t33 70t85 30t90 -37t38 -113t-57 -143t-187 -93l-12 33q92 35 124 78t32 96q-21 -14 -57 -14zM207 178v1063q0 77 -14 96t-50 27l-92 18v37h543v-37l-105 -20q-39 -9 -51 -29t-12 -92v-977q0 -63 4 -102q8 -74 92 -86q45 -6 120 -6
t139 4t104 43q90 81 164 325h49l-25 -442h-1022v37l92 18q34 4 49 26t15 97z" />
    <glyph glyph-name="lcommaaccent" unicode="&#x13c;" horiz-adv-x="542" 
d="M242 -309q-36 1 -63 27q-25 26 -25 66t32 70q33 30 85 30t90 -37t38 -113t-57 -143t-186 -93l-13 33q92 35 124 78t32 96q-21 -14 -57 -14zM377 1290v-1126q0 -64 9 -80q9 -17 44 -27l82 -22v-35h-471v35l82 22q29 7 41 27t12 80v1167q0 78 -32 94q-11 6 -27 15l-86 41
v32l340 33l14 -12q-8 -132 -8 -244z" />
    <glyph glyph-name="Lcaron" unicode="&#x13d;" horiz-adv-x="1126" 
d="M207 178v1063q0 77 -14 96t-50 27l-92 18v37h543v-37l-105 -20q-39 -9 -51 -29t-12 -92v-977q0 -63 4 -102q8 -74 92 -86q45 -6 120 -6t139 4t104 43q90 81 164 325h49l-25 -442h-1022v37l92 18q34 4 49 26t15 97zM822 1458q95 0 93 -80q0 -34 -18 -65l-145 -258l-31 8
l16 293q1 38 21 70t64 32z" />
    <glyph glyph-name="lcaron" unicode="&#x13e;" horiz-adv-x="542" 
d="M377 1290v-1126q0 -64 9 -80q9 -17 44 -27l82 -22v-35h-471v35l82 22q29 7 41 27t12 80v1167q0 78 -32 94q-11 6 -27 15l-86 41v32l340 33l14 -12q-8 -132 -8 -244zM578 1546q94 0 94 -80q0 -36 -19 -65l-145 -258l-31 8l17 293q5 102 84 102z" />
    <glyph glyph-name="Ldot" unicode="&#x13f;" horiz-adv-x="1126" 
d="M953 635q-52 0 -89 37t-37 89t37 88t89 36t91 -36t39 -88t-39 -89t-91 -37zM207 178v1063q0 77 -14 96t-50 27l-92 18v37h543v-37l-105 -20q-39 -9 -51 -29t-12 -92v-977q0 -63 4 -102q8 -74 92 -86q45 -6 120 -6t139 4t104 43q90 81 164 325h49l-25 -442h-1022v37l92 18
q34 4 49 26t15 97z" />
    <glyph glyph-name="ldot" unicode="&#x140;" horiz-adv-x="628" 
d="M377 1290v-1126q0 -64 9 -80q9 -17 44 -27l82 -22v-35h-471v35l82 22q29 7 41 27t12 80v1167q0 78 -32 94q-11 6 -27 15l-86 41v32l340 33l14 -12q-8 -132 -8 -244zM699 697q0 -45 -33 -77t-78 -31q-44 -1 -76 31t-32 77t32 76t76 31t78 -31q33 -31 33 -76z" />
    <glyph glyph-name="Lslash" unicode="&#x141;" horiz-adv-x="1126" 
d="M207 1241q0 75 -13.5 95t-50.5 28l-92 18v37h543v-37l-105 -20q-40 -9 -51.5 -29.5t-11.5 -91.5v-498l397 166v-75l-397 -166v-404q0 -63 4 -102t25.5 -59.5t66.5 -26.5t120 -6q147 0 230 31t177 341h49l-25 -442h-1022v37l92 18q54 6 59 45t5 78v400l-182 -76v76l182 75
v588z" />
    <glyph glyph-name="lslash" unicode="&#x142;" horiz-adv-x="542" 
d="M377 1290v-397l164 90v-76l-164 -90v-653q0 -65 10 -82t43 -25l82 -22v-35h-471v35l82 22q29 8 41 27.5t12 79.5v545l-158 -86v75l158 86v547q0 57 -10.5 73.5t-48.5 35.5l-86 41v32l340 33l14 -12q-8 -132 -8 -244z" />
    <glyph glyph-name="Nacute" unicode="&#x143;" horiz-adv-x="1384" 
d="M289 1243v-1044q0 -88 13 -109q14 -22 30 -28t41 -11l86 -14v-37h-408v37l72 14q49 10 61 28q23 36 23 120v1042q0 77 -14 96t-50 27l-92 18v37h383l672 -1044h8v846q0 87 -13 108q-13 23 -29 29t-42 10l-94 14v37h416v-37l-72 -14q-48 -8 -61 -28q-23 -36 -23 -119
v-1229h-90l-809 1251h-8zM496 1511l340 222q82 52 133 -3q25 -28 25 -63q-1 -74 -85 -92l-403 -92z" />
    <glyph glyph-name="nacute" unicode="&#x144;" horiz-adv-x="1193" 
d="M744 1073q164 1 224 -67t60 -205v-637q0 -58 12 -78t41 -29l82 -22v-35h-471v35l82 22q31 9 42 27t11 80v592q0 110 -39 150t-137 40t-220 -38q-32 -9 -54 -15v-729q0 -64 9 -80q9 -17 44 -27l82 -22v-35h-471v35l82 22q29 7 41 27t12 80v686q0 58 -9 73t-21 21t-29 17
l-76 38v29l319 43l15 -8l-4 -119h8q201 129 365 129zM813 1491q37 0 61 -28q24 -27 25 -57q0 -72 -76 -97l-395 -123l-12 28l321 246q39 31 76 31z" />
    <glyph glyph-name="Ncommaaccent" unicode="&#x145;" horiz-adv-x="1384" 
d="M573 -216q0 40 33 70t85 30t90 -37t38 -113t-57 -143t-187 -93l-12 33q92 35 124 78t32 96q-21 -14 -57 -14q-36 1 -63 27q-26 26 -26 66zM289 1243v-1044q0 -88 13 -109q14 -22 30 -28t41 -11l86 -14v-37h-408v37l72 14q49 10 61 28q23 36 23 120v1042q0 77 -14 96
t-50 27l-92 18v37h383l672 -1044h8v846q0 87 -13 108q-13 23 -29 29t-42 10l-94 14v37h416v-37l-72 -14q-48 -8 -61 -28q-23 -36 -23 -119v-1229h-90l-809 1251h-8z" />
    <glyph glyph-name="ncommaaccent" unicode="&#x146;" horiz-adv-x="1193" 
d="M489 -216q0 40 33 70t85 30t90 -37t38 -113t-57 -143t-186 -93l-13 33q92 35 124 78t32 96q-21 -14 -57 -14q-36 1 -63 27q-26 26 -26 66zM744 1073q164 1 224 -67t60 -205v-637q0 -58 12 -78t41 -29l82 -22v-35h-471v35l82 22q31 9 42 27t11 80v592q0 110 -39 150
t-137 40t-220 -38q-32 -9 -54 -15v-729q0 -64 9 -80q9 -17 44 -27l82 -22v-35h-471v35l82 22q29 7 41 27t12 80v686q0 58 -9 73t-21 21t-29 17l-76 38v29l319 43l15 -8l-4 -119h8q201 129 365 129z" />
    <glyph glyph-name="Ncaron" unicode="&#x147;" horiz-adv-x="1384" 
d="M289 1243v-1044q0 -88 13 -109q14 -22 30 -28t41 -11l86 -14v-37h-408v37l72 14q49 10 61 28q23 36 23 120v1042q0 77 -14 96t-50 27l-92 18v37h383l672 -1044h8v846q0 87 -13 108q-13 23 -29 29t-42 10l-94 14v37h416v-37l-72 -14q-48 -8 -61 -28q-23 -36 -23 -119
v-1229h-90l-809 1251h-8zM436 1741l17 22l272 -121l272 121l17 -22l-252 -256h-72z" />
    <glyph glyph-name="ncaron" unicode="&#x148;" horiz-adv-x="1193" 
d="M744 1073q164 1 224 -67t60 -205v-637q0 -58 12 -78t41 -29l82 -22v-35h-471v35l82 22q31 9 42 27t11 80v592q0 110 -39 150t-137 40t-220 -38q-32 -9 -54 -15v-729q0 -64 9 -80q9 -17 44 -27l82 -22v-35h-471v35l82 22q29 7 41 27t12 80v686q0 58 -9 73t-21 21t-29 17
l-76 38v29l319 43l15 -8l-4 -119h8q201 129 365 129zM317 1466l17 23l272 -143l273 143l16 -23l-252 -278h-72z" />
    <glyph glyph-name="napostrophe" unicode="&#x149;" horiz-adv-x="1288" 
d="M838 1073q164 1 224 -67t60 -205v-637q0 -58 12 -78t42 -29l81 -22v-35h-471v35l82 22q31 9 43 28q11 19 11 79v592q0 110 -39 150t-138 40t-220 -38q-32 -9 -54 -15v-729q0 -64 9 -80t44 -27l82 -22v-35h-471v35l82 22q29 7 41 27t12 80v686q0 58 -9 73t-20 21t-30 17
l-76 38v29l320 43l14 -8l-4 -119h8q201 129 365 129zM-3 1233q-38 0 -68 30q-29 31 -29 77t34 76q35 30 87 30q53 0 95 -41t42 -129t-65 -162t-193 -106l-13 32q86 42 124 92t38 115q-14 -14 -52 -14z" />
    <glyph glyph-name="Eng" unicode="&#x14a;" horiz-adv-x="1384" 
d="M289 1243v-1044q0 -88 13 -109q14 -22 30 -28t41 -11l86 -14v-37h-408v37l72 14q49 10 61 28q23 36 23 120v1042q0 77 -14 96t-50 27l-92 18v37h383l672 -1044h8v846q0 87 -13 108q-13 23 -29 29t-42 10l-94 14v37h416v-37l-72 -14q-48 -8 -61 -28q-23 -36 -23 -119
v-1213q0 -150 -62 -246t-190 -96t-183 40q-56 40 -56 88q0 104 102 104q59 0 83 -31t37 -73t22 -49t38 -7q55 0 89 60t38 179l-817 1266h-8z" />
    <glyph glyph-name="eng" unicode="&#x14b;" horiz-adv-x="1165" 
d="M744 1073q164 1 224 -67t60 -205v-805q0 -217 -100 -319q-100 -103 -264 -103q-94 0 -138 40q-43 40 -43 86t27 72t80 26q88 -1 98 -93q6 -47 13 -58t39 -11t60 34q28 35 27 111v975q0 110 -39 150t-137 40t-220 -38q-32 -9 -54 -15v-729q0 -64 9 -80q9 -17 44 -27
l82 -22v-35h-471v35l82 22q29 7 41 27t12 80v686q0 58 -9 73t-21 21t-29 17l-76 38v29l319 43l15 -8l-4 -119h8q201 129 365 129z" />
    <glyph glyph-name="Omacron" unicode="&#x14c;" horiz-adv-x="1413" 
d="M713 49q209 0 306 153t97 482q0 461 -214 625q-81 61 -204 61q-209 0 -305 -158t-96 -487q0 -459 213 -616q80 -60 203 -60zM1146 148q-177 -173 -451 -173t-451 189q-176 189 -176 544t199 558q176 178 453 178t443 -187q181 -198 182 -555q1 -356 -199 -554zM444 1669
h527v-133h-527v133z" />
    <glyph glyph-name="omacron" unicode="&#x14d;" horiz-adv-x="1130" 
d="M568 35q142 1 213 113t71 372t-73 377t-215 117t-214 -109t-72 -369t74 -380q74 -121 216 -121zM560 -27q-104 0 -196 35t-160 104q-69 69 -108 172t-39 238q0 136 42 238q85 207 276 279q92 36 194 36q219 0 361 -139q143 -139 143 -401q0 -135 -43 -240
q-86 -208 -276 -285q-90 -37 -194 -37zM319 1372h492v-133h-492v133z" />
    <glyph glyph-name="Obreve" unicode="&#x14e;" horiz-adv-x="1413" 
d="M713 49q209 0 306 153t97 482q0 461 -214 625q-81 61 -204 61q-209 0 -305 -158t-96 -487q0 -459 213 -616q80 -60 203 -60zM1146 148q-177 -173 -451 -173t-451 189q-176 189 -176 544t199 558q176 178 453 178t443 -187q181 -198 182 -555q1 -356 -199 -554zM524 1569
q-72 82 -78 188l31 4q23 -57 78 -98t151 -41t152 41q55 41 78 98l31 -4q-9 -107 -78 -188q-69 -82 -181 -82t-184 82z" />
    <glyph glyph-name="obreve" unicode="&#x14f;" horiz-adv-x="1130" 
d="M568 35q142 1 213 113t71 372t-73 377t-215 117t-214 -109t-72 -369t74 -380q74 -121 216 -121zM560 -27q-104 0 -196 35t-160 104q-69 69 -108 172t-39 238q0 136 42 238q85 207 276 279q92 36 194 36q219 0 361 -139q143 -139 143 -401q0 -135 -43 -240
q-86 -208 -276 -285q-90 -37 -194 -37zM566 1180q-99 0 -165 84q-67 84 -71 186l30 4q23 -57 73 -98t132 -41t132 41t73 98l31 -4q-14 -176 -141 -246q-42 -24 -94 -24z" />
    <glyph glyph-name="Ohungarumlaut" unicode="&#x150;" horiz-adv-x="1413" 
d="M713 49q209 0 306 153t97 482q0 461 -214 625q-81 61 -204 61q-209 0 -305 -158t-96 -487q0 -459 213 -616q80 -60 203 -60zM1146 148q-177 -173 -451 -173t-451 189q-176 189 -176 544t199 558q176 178 453 178t443 -187q181 -198 182 -555q1 -356 -199 -554zM1052 1788
q32 0 64 -24t31 -52q0 -28 -9 -48q-9 -19 -42 -40l-248 -147l-29 30l170 238q31 43 63 43zM714 1788q32 0 64 -24t31 -52q0 -28 -9 -48q-9 -19 -42 -40l-248 -147l-29 30l170 238q31 43 63 43z" />
    <glyph glyph-name="ohungarumlaut" unicode="&#x151;" horiz-adv-x="1130" 
d="M568 35q142 1 213 113t71 372t-73 377t-215 117t-214 -109t-72 -369t74 -380q74 -121 216 -121zM560 -27q-104 0 -196 35t-160 104q-69 69 -108 172t-39 238q0 136 42 238q85 207 276 279q92 36 194 36q219 0 361 -139q143 -139 143 -401q0 -135 -43 -240
q-86 -208 -276 -285q-90 -37 -194 -37zM928 1511q30 1 62 -23t32 -52t-9 -48q-9 -19 -42 -40l-269 -168l-28 30l190 258q33 43 64 43zM590 1511q30 1 62 -23t32 -52t-9 -48q-9 -19 -42 -40l-268 -168l-29 30l190 258q33 43 64 43z" />
    <glyph glyph-name="OE" unicode="&#x152;" horiz-adv-x="1959" 
d="M782 66q128 0 160.5 42.5t32.5 186.5v866q0 61 -5 99t-31.5 66t-164.5 28q-259 0 -368 -163.5t-109 -479.5t110.5 -480.5t374.5 -164.5zM1386 1350q-123 0 -192 -19v-559h113q126 0 175 13.5t65 50.5q34 77 52 161h46v-520h-46q-38 163 -69.5 191t-93.5 31t-129 3h-113
v-391q0 -82 5 -130t30.5 -72.5t79 -31.5t137.5 -7q156 0 234 30t175 328h50l-31 -428h-1122q-485 0 -584.5 250t-99.5 438q0 359 190 545t506 186h1069l25 -362h-46q-81 186 -128 234.5t-111 53.5t-187 5z" />
    <glyph glyph-name="oe" unicode="&#x153;" horiz-adv-x="1802" 
d="M1328 1014q-114 0 -189.5 -93.5t-85.5 -293.5l467 24q0 184 -39 273.5t-153 89.5zM562 35q142 0 209 112.5t67 372.5t-69 377t-211 117t-210.5 -108.5t-68.5 -368.5t70.5 -381t212.5 -121zM1335 -25q-283 0 -395 215q-61 -106 -160.5 -161.5t-214.5 -55.5t-206 35
t-158.5 103.5t-105.5 172t-38 298t145.5 344t356.5 149.5q283 0 395 -215q61 102 159.5 158.5t206.5 56.5q215 0 320 -121t105 -389h-692q0 -361 135.5 -415t231.5 -54t171.5 29t132.5 57v-57q-187 -150 -389 -150z" />
    <glyph glyph-name="Racute" unicode="&#x154;" horiz-adv-x="1288" 
d="M543 725q178 0 257 73q79 72 79 246t-61 239t-198 66q-136 1 -194 -14v-602q64 -8 117 -8zM426 659v-481q0 -77 9 -93q9 -15 21 -20t33 -10l97 -18v-37h-535v37l92 18q34 4 49 26t15 97v1063q0 77 -14 96t-50 27l-92 18v37h586q245 0 357 -90t112 -270q0 -115 -83 -207
t-243 -139v-6q224 -393 391 -601q27 -39 84 -57l43 -12v-37h-315q-221 288 -408 659h-149zM887 1667q0 -73 -84 -92l-404 -92l-10 28l340 222q83 53 133 -3q24 -28 25 -63z" />
    <glyph glyph-name="racute" unicode="&#x155;" horiz-adv-x="825" 
d="M379 936q139 139 304 139q50 0 85 -31t35 -89t-32 -88q-32 -29 -82 -29q-81 1 -107 77q-8 23 -14 29t-22 6q-58 0 -132 -54q-23 -15 -37 -30v-702q0 -63 10 -82t43 -25l102 -22v-35h-491v35l82 22q29 7 41 27t12 80v686q0 58 -9 73t-21 21t-29 17l-76 38v29l319 43
l15 -12l-4 -123h8zM682 1491q38 0 62 -28q24 -27 24 -57q0 -72 -76 -97l-395 -123l-12 28l321 246q39 31 76 31z" />
    <glyph glyph-name="Rcommaaccent" unicode="&#x156;" horiz-adv-x="1288" 
d="M670 -309q-36 1 -63 27q-25 26 -25 66t32 70q33 30 85 30q53 0 91 -37t38 -113t-58 -143q-57 -67 -186 -93l-13 33q92 35 124 78t32 96q-21 -14 -57 -14zM543 725q178 0 257 73q79 72 79 246t-61 239t-198 66q-136 1 -194 -14v-602q64 -8 117 -8zM426 659v-481
q0 -77 9 -93q9 -15 21 -20t33 -10l97 -18v-37h-535v37l92 18q34 4 49 26t15 97v1063q0 77 -14 96t-50 27l-92 18v37h586q245 0 357 -90t112 -270q0 -115 -83 -207t-243 -139v-6q224 -393 391 -601q27 -39 84 -57l43 -12v-37h-315q-221 288 -408 659h-149z" />
    <glyph glyph-name="rcommaaccent" unicode="&#x157;" horiz-adv-x="825" 
d="M236 -309q-36 1 -63 27q-26 26 -26 66t33 70t85 30t90 -37t38 -113t-57 -143t-186 -93l-13 33q92 35 124 78t32 96q-21 -14 -57 -14zM379 936q139 139 304 139q50 0 85 -31t35 -89t-32 -88q-32 -29 -82 -29q-81 1 -107 77q-8 23 -14 29t-22 6q-58 0 -132 -54
q-23 -15 -37 -30v-702q0 -63 10 -82t43 -25l102 -22v-35h-491v35l82 22q29 7 41 27t12 80v686q0 58 -9 73t-21 21t-29 17l-76 38v29l319 43l15 -12l-4 -123h8z" />
    <glyph glyph-name="Rcaron" unicode="&#x158;" horiz-adv-x="1288" 
d="M543 725q178 0 257 73q79 72 79 246t-61 239t-198 66q-136 1 -194 -14v-602q64 -8 117 -8zM426 659v-481q0 -77 9 -93q9 -15 21 -20t33 -10l97 -18v-37h-535v37l92 18q34 4 49 26t15 97v1063q0 77 -14 96t-50 27l-92 18v37h586q245 0 357 -90t112 -270q0 -115 -83 -207
t-243 -139v-6q224 -393 391 -601q27 -39 84 -57l43 -12v-37h-315q-221 288 -408 659h-149zM330 1741l16 22l272 -121l273 121l16 -22l-252 -256h-71z" />
    <glyph glyph-name="rcaron" unicode="&#x159;" horiz-adv-x="825" 
d="M379 936q139 139 304 139q50 0 85 -31t35 -89t-32 -88q-32 -29 -82 -29q-81 1 -107 77q-8 23 -14 29t-22 6q-58 0 -132 -54q-23 -15 -37 -30v-702q0 -63 10 -82t43 -25l102 -22v-35h-491v35l82 22q29 7 41 27t12 80v686q0 58 -9 73t-21 21t-29 17l-76 38v29l319 43
l15 -12l-4 -123h8zM188 1466l17 23l272 -143l273 143l16 -23l-252 -278h-72z" />
    <glyph glyph-name="Sacute" unicode="&#x15a;" horiz-adv-x="1036" 
d="M522 47q130 0 196 71t66 181t-71 179t-266 159t-278 181t-83 249t123 268q123 111 327 111q203 0 328 -45l25 -336h-47q-69 178 -126 235q-56 58 -106 65q-49 7 -100 7q-123 0 -192 -56q-68 -56 -68 -164t60 -174t200 -127q251 -111 352 -208t101 -225q0 -195 -128 -320
t-358 -125t-395 72l-23 373h50q68 -168 115 -244q48 -77 108 -102t190 -25zM811 1667q0 -74 -84 -92l-403 -92l-11 28l340 222q83 53 133 -3q24 -28 25 -63z" />
    <glyph glyph-name="sacute" unicode="&#x15b;" horiz-adv-x="833" 
d="M223 854q1 -134 213 -217q182 -71 238 -122q57 -50 80 -95q22 -45 22 -111q-1 -142 -109 -238q-109 -96 -289 -96t-312 50l-7 301h41q31 -72 77 -148t71 -103t64 -32q39 -6 79 -6q92 0 153 48q60 48 60 133t-58 134t-193 105t-190 107q-99 93 -97 204q0 138 109 223
q109 86 265 85t267 -44l8 -260h-37q-43 92 -103 172q-37 47 -73 58t-82 12q-197 0 -197 -160zM629 1491q37 0 61 -28q24 -27 25 -57q0 -72 -76 -97l-395 -123l-13 28l322 246q39 31 76 31z" />
    <glyph glyph-name="Scircumflex" unicode="&#x15c;" horiz-adv-x="1036" 
d="M522 47q130 0 196 71t66 181t-71 179t-266 159t-278 181t-83 249t123 268q123 111 327 111q203 0 328 -45l25 -336h-47q-69 178 -126 235q-56 58 -106 65q-49 7 -100 7q-123 0 -192 -56q-68 -56 -68 -164t60 -174t200 -127q251 -111 352 -208t101 -225q0 -195 -128 -320
t-358 -125t-395 72l-23 373h50q68 -168 115 -244q48 -77 108 -102t190 -25zM254 1499l252 256h72l253 -256l-16 -22l-272 120l-273 -120z" />
    <glyph glyph-name="scircumflex" unicode="&#x15d;" horiz-adv-x="833" 
d="M223 854q1 -134 213 -217q182 -71 238 -122q57 -50 80 -95q22 -45 22 -111q-1 -142 -109 -238q-109 -96 -289 -96t-312 50l-7 301h41q31 -72 77 -148t71 -103t64 -32q39 -6 79 -6q92 0 153 48q60 48 60 133t-58 134t-193 105t-190 107q-99 93 -97 204q0 138 109 223
q109 86 265 85t267 -44l8 -260h-37q-43 92 -103 172q-37 47 -73 58t-82 12q-197 0 -197 -160zM133 1202l252 279h72l254 -279l-17 -22l-272 143l-272 -143z" />
    <glyph glyph-name="Scedilla" unicode="&#x15e;" horiz-adv-x="1036" 
d="M453 -104q165 -18 165 -139q0 -65 -76 -111t-235 -62v33q174 41 174 123q0 33 -29 47q-30 14 -81 23l-11 14l75 150q-205 6 -353 71l-23 373h50q68 -168 115 -244q48 -77 108 -102t190 -25t196 71t66 181t-71 179t-266 159t-278 181t-83 249t123 268q123 111 327 111
q203 0 328 -45l25 -336h-47q-69 178 -126 235q-56 58 -106 65q-49 7 -100 7q-123 0 -192 -56q-68 -56 -68 -164t60 -174t200 -127q251 -111 352 -208t101 -225q0 -195 -125 -316t-336 -128z" />
    <glyph glyph-name="scedilla" unicode="&#x15f;" horiz-adv-x="833" 
d="M352 -104q166 -18 166 -139q0 -65 -76 -111t-235 -62v33q174 41 174 123q0 33 -30 47t-81 23l-10 14l76 152q-152 5 -270 49l-7 301h41q31 -72 77 -148t71 -103t64 -32q39 -6 79 -6q92 0 153 48q60 48 60 133t-58 134t-193 105t-190 107q-99 93 -97 204q0 138 109 223
q109 86 265 85t267 -44l8 -260h-37q-43 92 -103 172q-37 47 -73 58t-82 12q-197 0 -197 -160q1 -134 213 -217q182 -71 238 -122q57 -50 80 -95q22 -45 22 -111t-28 -128q-57 -129 -207 -180q-63 -21 -138 -25z" />
    <glyph glyph-name="Scaron" unicode="&#x160;" horiz-adv-x="1036" 
d="M522 47q130 0 196 71t66 181t-71 179t-266 159t-278 181t-83 249t123 268q123 111 327 111q203 0 328 -45l25 -336h-47q-69 178 -126 235q-56 58 -106 65q-49 7 -100 7q-123 0 -192 -56q-68 -56 -68 -164t60 -174t200 -127q251 -111 352 -208t101 -225q0 -195 -128 -320
t-358 -125t-395 72l-23 373h50q68 -168 115 -244q48 -77 108 -102t190 -25zM254 1741l16 22l273 -121l272 121l16 -22l-251 -256h-72z" />
    <glyph glyph-name="scaron" unicode="&#x161;" horiz-adv-x="833" 
d="M223 854q1 -134 213 -217q182 -71 238 -122q57 -50 80 -95q22 -45 22 -111q-1 -142 -109 -238q-109 -96 -289 -96t-312 50l-7 301h41q31 -72 77 -148t71 -103t64 -32q39 -6 79 -6q92 0 153 48q60 48 60 133t-58 134t-193 105t-190 107q-99 93 -97 204q0 138 109 223
q109 86 265 85t267 -44l8 -260h-37q-43 92 -103 172q-37 47 -73 58t-82 12q-197 0 -197 -160zM133 1466l17 23l272 -143l272 143l17 -23l-252 -278h-72z" />
    <glyph glyph-name="Tcommaaccent" unicode="&#x162;" horiz-adv-x="1222" 
d="M560 -309q-36 1 -62 27t-25 66q0 40 33 70t85 30t90 -37t38 -113t-57 -143t-187 -93l-12 33q92 35 124 78t31 96q-22 -14 -58 -14zM502 178v1176h-39q-152 0 -189 -14q-65 -24 -110 -121q-44 -98 -56 -134q-12 -37 -26 -79h-49l18 413h1120l19 -413h-49q-99 304 -185 332
q-51 16 -196 16h-39v-1176q0 -77 9 -93q10 -15 22 -20t32 -10l99 -18v-37h-543v37l98 18q39 9 52 30q12 21 12 93z" />
    <glyph glyph-name="tcommaaccent" unicode="&#x163;" horiz-adv-x="661" 
d="M318 -309q-36 1 -63 27q-26 26 -26 66t33 70t85 30t90 -37t38 -113t-57 -143t-187 -93l-12 33q92 35 124 78t32 96q-21 -14 -57 -14zM487 84q84 0 160 27v-41q-184 -131 -353 -83q-86 23 -124 104q-18 40 -18 99v768h-142v35q211 66 293 295h49v-246h287l-21 -84h-266
v-747q0 -127 135 -127z" />
    <glyph glyph-name="Tcaron" unicode="&#x164;" horiz-adv-x="1222" 
d="M502 178v1176h-39q-152 0 -189 -14q-65 -24 -110 -121q-44 -98 -56 -134q-12 -37 -26 -79h-49l18 413h1120l19 -413h-49q-99 304 -185 332q-51 16 -196 16h-39v-1176q0 -77 9 -93q10 -15 22 -20t32 -10l99 -18v-37h-543v37l98 18q39 9 52 30q12 21 12 93zM322 1741l16 22
l272 -121l273 121l16 -22l-252 -256h-72z" />
    <glyph glyph-name="tcaron" unicode="&#x165;" horiz-adv-x="661" 
d="M487 84q84 0 160 27v-41q-184 -131 -353 -83q-86 23 -124 104q-18 40 -18 99v768h-142v35q211 66 293 295h49v-246h287l-21 -84h-266v-747q0 -127 135 -127zM607 1546q95 0 93 -80q0 -34 -18 -65l-145 -258l-31 8l16 293q2 38 22 70t63 32z" />
    <glyph glyph-name="Tbar" unicode="&#x166;" horiz-adv-x="1222" 
d="M504 178v572h-326v69h326v535h-39q-152 0 -189 -14t-66 -51q-29 -38 -48 -81q-20 -44 -32 -70t-21 -58q-10 -32 -25 -74h-49l18 413h1121l18 -413h-49q-45 137 -63 173q-45 87 -74 125t-97 44q-69 6 -147 6h-39v-535h326v-69h-326v-572q0 -77 9 -93q10 -15 22 -20t32 -10
l99 -18v-37h-543v37l98 18q39 9 52 30q12 21 12 93z" />
    <glyph glyph-name="tbar" unicode="&#x167;" horiz-adv-x="661" 
d="M487 84q84 0 160 27v-41q-184 -131 -353 -83q-86 23 -124 104q-18 40 -18 99v482h-140v73h140v213h-142v35q211 66 293 295h49v-246h287l-21 -84h-266v-213h281v-73h-281v-461q0 -127 135 -127z" />
    <glyph glyph-name="Utilde" unicode="&#x168;" horiz-adv-x="1386" 
d="M178 461v780q0 76 -12 95t-51 28l-92 18v37h526v-37l-88 -18q-41 -8 -52 -29q-12 -21 -12 -94v-801q0 -186 87 -276q86 -90 280 -90t278 102t84 283v762q0 87 -13 108q-13 23 -29 29t-42 10l-100 14v37h422v-37l-72 -14q-48 -8 -61 -28q-23 -36 -23 -119v-777
q0 -206 -116 -328q-132 -141 -380 -141q-390 0 -497 266q-37 91 -37 220zM932 1655q34 1 58 25t52 71l33 -16q-45 -99 -82 -157t-96 -58t-180 22t-153 23q-32 0 -56 -25t-51 -72l-33 17q45 98 82 156q37 59 94 59t176 -22q121 -22 156 -23z" />
    <glyph glyph-name="utilde" unicode="&#x169;" horiz-adv-x="1179" 
d="M369 285q0 -185 165 -185q82 0 156 23t129 43v704q0 52 -7 66t-17 19t-29 14l-82 37v30l315 35l21 -16v-846q0 -88 30 -111q11 -8 29 -16l76 -35v-29l-319 -43l-15 13l4 127h-8q-81 -53 -177 -97t-212 -43q-116 0 -188 69t-72 200v626q0 54 -8 67t-18 18t-27 14l-82 37
v30l315 35l21 -16v-770zM775 1358q38 0 62 24q24 25 52 72l33 -16q-45 -98 -82 -156t-97 -59q-60 1 -180 23q-121 22 -153 22t-55 -25q-24 -25 -52 -72l-33 17q45 98 82 156t97 59q60 -1 174 -23t152 -22z" />
    <glyph glyph-name="Umacron" unicode="&#x16a;" horiz-adv-x="1386" 
d="M178 461v780q0 76 -12 95t-51 28l-92 18v37h526v-37l-88 -18q-41 -8 -52 -29q-12 -21 -12 -94v-801q0 -186 87 -276q86 -90 280 -90t278 102t84 283v762q0 87 -13 108q-13 23 -29 29t-42 10l-100 14v37h422v-37l-72 -14q-48 -8 -61 -28q-23 -36 -23 -119v-777
q0 -206 -116 -328q-132 -141 -380 -141q-390 0 -497 266q-37 91 -37 220zM487 1669h527v-133h-527v133z" />
    <glyph glyph-name="umacron" unicode="&#x16b;" horiz-adv-x="1179" 
d="M369 285q0 -185 165 -185q82 0 156 23t129 43v704q0 52 -7 66t-17 19t-29 14l-82 37v30l315 35l21 -16v-846q0 -88 30 -111q11 -8 29 -16l76 -35v-29l-319 -43l-15 13l4 127h-8q-81 -53 -177 -97t-212 -43q-116 0 -188 69t-72 200v626q0 54 -8 67t-18 18t-27 14l-82 37
v30l315 35l21 -16v-770zM350 1372h492v-133h-492v133z" />
    <glyph glyph-name="Ubreve" unicode="&#x16c;" horiz-adv-x="1386" 
d="M178 461v780q0 76 -12 95t-51 28l-92 18v37h526v-37l-88 -18q-41 -8 -52 -29q-12 -21 -12 -94v-801q0 -186 87 -276q86 -90 280 -90t278 102t84 283v762q0 87 -13 108q-13 23 -29 29t-42 10l-100 14v37h422v-37l-72 -14q-48 -8 -61 -28q-23 -36 -23 -119v-777
q0 -206 -116 -328q-132 -141 -380 -141q-390 0 -497 266q-37 91 -37 220zM567 1569q-72 82 -78 188l31 4q23 -57 78 -98q56 -41 152 -41t151 41t78 98l31 -4q-9 -107 -78 -188q-69 -82 -181 -82t-184 82z" />
    <glyph glyph-name="ubreve" unicode="&#x16d;" horiz-adv-x="1179" 
d="M369 285q0 -185 165 -185q82 0 156 23t129 43v704q0 52 -7 66t-17 19t-29 14l-82 37v30l315 35l21 -16v-846q0 -88 30 -111q11 -8 29 -16l76 -35v-29l-319 -43l-15 13l4 127h-8q-81 -53 -177 -97t-212 -43q-116 0 -188 69t-72 200v626q0 54 -8 67t-18 18t-27 14l-82 37
v30l315 35l21 -16v-770zM597 1180q-99 0 -165 83t-72 187l31 4q23 -57 73 -98t132 -41t132 41t73 98l30 -4q-14 -176 -140 -246q-42 -24 -94 -24z" />
    <glyph glyph-name="Uring" unicode="&#x16e;" horiz-adv-x="1386" 
d="M178 461v780q0 76 -12 95t-51 28l-92 18v37h526v-37l-88 -18q-41 -8 -52 -29q-12 -21 -12 -94v-801q0 -186 87 -276q86 -90 280 -90t278 102t84 283v762q0 87 -13 108q-13 23 -29 29t-42 10l-100 14v37h422v-37l-72 -14q-48 -8 -61 -28q-23 -36 -23 -119v-777
q0 -206 -116 -328q-132 -141 -380 -141q-390 0 -497 266q-37 91 -37 220zM752 1481q53 0 85 35q31 35 31 89t-31 89q-32 35 -85 35t-85 -35t-32 -89t32 -89t85 -35zM752 1421q-80 1 -134 55t-53 130q0 76 53 129q54 53 134 53t133 -53t53 -129t-53 -130t-133 -55z" />
    <glyph glyph-name="uring" unicode="&#x16f;" horiz-adv-x="1179" 
d="M369 285q0 -185 165 -185q82 0 156 23t129 43v704q0 52 -7 66t-17 19t-29 14l-82 37v30l315 35l21 -16v-846q0 -88 30 -111q11 -8 29 -16l76 -35v-29l-319 -43l-15 13l4 127h-8q-81 -53 -177 -97t-212 -43q-116 0 -188 69t-72 200v626q0 54 -8 67t-18 18t-27 14l-82 37
v30l315 35l21 -16v-770zM596 1237q53 0 85 35t32 89t-32 89t-85 35t-85 -35t-32 -89t32 -89t85 -35zM596 1178q-80 0 -133 54t-53 130t53 129t133 53t133 -53t53 -129t-53 -130t-133 -54z" />
    <glyph glyph-name="Uhungarumlaut" unicode="&#x170;" horiz-adv-x="1386" 
d="M178 461v780q0 76 -12 95t-51 28l-92 18v37h526v-37l-88 -18q-41 -8 -52 -29q-12 -21 -12 -94v-801q0 -186 87 -276q86 -90 280 -90t278 102t84 283v762q0 87 -13 108q-13 23 -29 29t-42 10l-100 14v37h422v-37l-72 -14q-48 -8 -61 -28q-23 -36 -23 -119v-777
q0 -206 -116 -328q-132 -141 -380 -141q-390 0 -497 266q-37 91 -37 220zM1095 1788q31 0 63 -24t32 -52t-9 -48q-9 -19 -42 -40l-248 -147l-29 30l170 238q31 43 63 43zM757 1788q31 0 63 -24t32 -52t-9 -48q-9 -19 -42 -40l-248 -147l-29 30l170 238q31 43 63 43z" />
    <glyph glyph-name="uhungarumlaut" unicode="&#x171;" horiz-adv-x="1179" 
d="M369 285q0 -185 165 -185q82 0 156 23t129 43v704q0 52 -7 66t-17 19t-29 14l-82 37v30l315 35l21 -16v-846q0 -88 30 -111q11 -8 29 -16l76 -35v-29l-319 -43l-15 13l4 127h-8q-81 -53 -177 -97t-212 -43q-116 0 -188 69t-72 200v626q0 54 -8 67t-18 18t-27 14l-82 37
v30l315 35l21 -16v-770zM959 1511q31 1 63 -23t31 -52q1 -28 -9 -48q-10 -19 -43 -40l-268 -168l-28 30l190 258q33 43 64 43zM621 1511q31 1 63 -23t31 -52q0 -28 -9 -48q-9 -19 -42 -40l-269 -168l-28 30l190 258q33 43 64 43z" />
    <glyph glyph-name="Uogonek" unicode="&#x172;" horiz-adv-x="1386" 
d="M791 -416q-85 0 -137 41t-52 113q0 98 139 200q39 28 80 48q-74 -11 -156 -11q-81 0 -179 28q-308 89 -308 458v780q0 76 -12 95t-51 28l-92 18v37h526v-37l-88 -18q-41 -8 -52 -29q-12 -21 -12 -94v-801q0 -186 87 -276q86 -90 280 -90t278 102t84 283v762q0 87 -13 108
q-13 23 -29 29t-42 10l-100 14v37h422v-37l-72 -14q-48 -8 -61 -28q-23 -36 -23 -119v-777q0 -130 -53 -240t-165 -165t-151 -99q-71 -82 -71 -182q0 -74 54 -92q34 -11 116 -12v-33q-62 -37 -147 -37z" />
    <glyph glyph-name="uogonek" unicode="&#x173;" horiz-adv-x="1179" 
d="M369 285q0 -185 165 -185q82 0 156 23t129 43v704q0 52 -7 66t-17 19t-29 14l-82 37v30l315 35l21 -16v-846q0 -88 30 -111q11 -8 29 -16l76 -35v-29l-72 -6q-167 -14 -239 -87t-72 -167q0 -74 54 -92q34 -12 116 -12v-33q-62 -37 -147 -37q-84 0 -137 41q-52 41 -52 113
q0 96 144 193q37 26 71 44l4 140h-8q-211 -140 -377 -140q-128 0 -200 69t-72 200v626q0 54 -8 67t-19 17l-26 15l-82 37v30l315 35l21 -16v-770z" />
    <glyph glyph-name="Wcircumflex" unicode="&#x174;" horiz-adv-x="1898" 
d="M-6 1419h506v-37l-64 -14q-66 -14 -65 -76q0 -27 28 -131l273 -868h10l250 749l-45 138q-38 115 -59 145q-22 30 -66 43l-55 14v37h503v-37l-63 -14q-63 -14 -64 -76q0 -36 27 -131l274 -868h11l237 868q25 88 25 125q-1 37 -15 55t-49 27l-67 14v37h379v-37l-62 -14
q-47 -10 -71 -60t-56 -165l-336 -1143h-110l-295 915h-6l-307 -915h-107l-383 1180q-37 114 -58 145t-65 43l-55 14v37zM682 1499l252 256h72l254 -256l-17 -22l-272 120l-273 -120z" />
    <glyph glyph-name="wcircumflex" unicode="&#x175;" horiz-adv-x="1560" 
d="M-16 1042h467v-34l-56 -15q-39 -10 -47 -25t-8 -38t27 -109l188 -575h8l187 536l-25 72q-23 68 -43 98t-55 39l-49 17v34h432v-34l-56 -15q-28 -8 -36 -24q-20 -43 18 -148l197 -575h8l186 575q25 73 25 104q0 30 -12 45t-42 23l-55 15v34h334v-34l-57 -17
q-39 -12 -53 -37q-15 -26 -25 -54t-25 -66l-295 -834h-96l-235 672h-7l-239 -672h-96l-308 854q-27 73 -45 98q-19 24 -63 39l-49 17v34zM516 1202l252 279h72l254 -279l-17 -22l-272 143l-273 -143z" />
    <glyph glyph-name="Ycircumflex" unicode="&#x176;" horiz-adv-x="1232" 
d="M532 178v395l-339 613q-57 104 -84 137q-26 33 -66 45l-51 14v37h530v-37l-51 -12q-47 -10 -65 -28q-43 -42 20 -156l276 -522h9l239 522q31 67 31 101t-16 52t-64 29l-63 14v37h403v-37l-45 -14q-52 -17 -81 -52t-89 -159l-274 -567v-412q0 -77 9 -93q9 -15 21 -20
t33 -10l98 -18v-37h-542v37l98 18q39 9 51 29t12 94zM397 1499l252 256h72l254 -256l-17 -22l-272 120l-272 -120z" />
    <glyph glyph-name="ycircumflex" unicode="&#x177;" horiz-adv-x="1030" 
d="M23 -301q0 49 30 76q31 27 78 27q85 -1 109 -85q8 -23 14 -29t33 -7q27 0 69 54t95 181l30 76l-336 862q-34 87 -51 107t-53 30l-49 17v34h459v-34l-56 -15q-35 -10 -46 -21t-11 -43t29 -108l217 -577h8l207 577q47 134 14 155q-14 9 -43 17l-55 15v34h332v-34l-58 -17
q-35 -12 -50 -36q-15 -25 -52 -121l-348 -914q-62 -164 -119 -236q-86 -106 -229 -106q-82 0 -125 36t-43 85zM287 1202l252 279h71l254 -279l-16 -22l-273 143l-272 -143z" />
    <glyph glyph-name="Ydieresis" unicode="&#x178;" horiz-adv-x="1232" 
d="M532 178v395l-339 613q-57 104 -84 137q-26 33 -66 45l-51 14v37h530v-37l-51 -12q-47 -10 -65 -28q-43 -42 20 -156l276 -522h9l239 522q31 67 31 101t-16 52t-64 29l-63 14v37h403v-37l-45 -14q-52 -17 -81 -52t-89 -159l-274 -567v-412q0 -77 9 -93q9 -15 21 -20
t33 -10l98 -18v-37h-542v37l98 18q39 9 51 29t12 94zM897 1503q-47 0 -81 34t-34 80t34 79t81 33t81 -33t34 -79t-34 -80t-81 -34zM475 1503q-47 0 -81 34t-34 80t34 79t81 33t81 -33t34 -79t-34 -80t-81 -34z" />
    <glyph glyph-name="Zacute" unicode="&#x179;" horiz-adv-x="1126" 
d="M838 1350h-133q-250 0 -309 -12q-58 -12 -82 -31q-49 -37 -98 -150q-24 -53 -54 -131h-45l20 393h942v-63l-780 -1278v-8h129q269 0 334 13t92 29q53 32 105 149q28 60 69 165h49l-26 -426h-1000v63l787 1278v9zM879 1667q0 -73 -84 -92l-404 -92l-10 28l340 222
q83 53 133 -3q24 -28 25 -63z" />
    <glyph glyph-name="zacute" unicode="&#x17a;" horiz-adv-x="935" 
d="M655 983h-186q-165 0 -196 -31q-49 -45 -108 -168q-13 -27 -30 -59h-37l15 317h788v-43l-618 -931v-9h163q160 -1 202 13t69 40t67 102q40 75 60 126h39l-23 -340h-819v47l614 928v8zM707 1491q37 0 61 -28q24 -27 25 -57q0 -72 -76 -97l-395 -123l-13 28l322 246
q39 31 76 31z" />
    <glyph glyph-name="Zdotaccent" unicode="&#x17b;" horiz-adv-x="1126" 
d="M838 1350h-133q-250 0 -309 -12q-58 -12 -82 -31q-49 -37 -98 -150q-24 -53 -54 -131h-45l20 393h942v-63l-780 -1278v-8h129q269 0 334 13t92 29q53 32 105 149q28 60 69 165h49l-26 -426h-1000v63l787 1278v9zM610 1497q-47 0 -81 34q-33 34 -33 80t33 79q34 32 81 32
t81 -32t34 -79q0 -46 -34 -80t-81 -34z" />
    <glyph glyph-name="zdotaccent" unicode="&#x17c;" horiz-adv-x="935" 
d="M655 983h-186q-165 0 -196 -31q-49 -45 -108 -168q-13 -27 -30 -59h-37l15 317h788v-43l-618 -931v-9h163q160 -1 202 13t69 40t67 102q40 75 60 126h39l-23 -340h-819v47l614 928v8zM502 1200q-47 0 -81 34t-34 80t34 79t81 33t81 -34q33 -32 33 -78t-34 -80t-80 -34z
" />
    <glyph glyph-name="Zcaron" unicode="&#x17d;" horiz-adv-x="1126" 
d="M838 1350h-133q-250 0 -309 -12q-58 -12 -82 -31q-49 -37 -98 -150q-24 -53 -54 -131h-45l20 393h942v-63l-780 -1278v-8h129q269 0 334 13t92 29q53 32 105 149q28 60 69 165h49l-26 -426h-1000v63l787 1278v9zM322 1741l16 22l272 -121l273 121l16 -22l-252 -256h-72z
" />
    <glyph glyph-name="zcaron" unicode="&#x17e;" horiz-adv-x="935" 
d="M655 983h-186q-165 0 -196 -31q-49 -45 -108 -168q-13 -27 -30 -59h-37l15 317h788v-43l-618 -931v-9h163q160 -1 202 13t69 40t67 102q40 75 60 126h39l-23 -340h-819v47l614 928v8zM213 1466l16 23l273 -143l272 143l17 -23l-252 -278h-72z" />
    <glyph glyph-name="florin" unicode="&#x192;" horiz-adv-x="843" 
d="M74 797h174l35 241q27 197 139.5 298.5t248.5 101.5t188 -45t52 -95t-27.5 -78t-72.5 -28t-68.5 22t-33.5 82t-18.5 70t-36.5 10q-58 0 -94 -47.5t-54 -179.5l-51 -352h219v-68h-230l-100 -682q-34 -231 -132 -339.5t-230 -108.5q-100 0 -149.5 39.5t-49.5 83.5t24.5 68
t62.5 24t58.5 -20.5t32.5 -68t20.5 -59.5t36.5 -12q63 0 86 162l134 913h-164v68z" />
    <glyph glyph-name="Aringacute" unicode="&#x1fa;" horiz-adv-x="1310" 
d="M377 569h405l-202 578h-11zM1319 0h-522v37l57 14q41 10 61 33t5 78t-29 96l-86 244h-451l-80 -244q-24 -70 -24 -132q0 -61 72 -75l67 -14v-37h-397v37l59 14q44 13 63 41t72 170l408 1157h113l428 -1179q39 -108 59 -136t36 -37t34 -16l55 -14v-37zM649 1534
q53 0 85 35t32 89t-32 89t-85 35t-85 -35t-32 -89t32 -89t85 -35zM649 1475q-80 0 -133 54t-53 130t53 129t133 53t133 -53q54 -53 54 -129t-54 -130t-133 -54zM418 1898l340 222q82 52 133 -3q25 -28 25 -63q-1 -74 -85 -92l-403 -92z" />
    <glyph glyph-name="aringacute" unicode="&#x1fb;" horiz-adv-x="1003" 
d="M487 1237q53 0 85 35t32 89t-32 89t-85 35t-85 -35t-32 -89t32 -89t85 -35zM487 1178q-80 0 -133 54t-53 130t53 129t133 53q79 0 133 -53t54 -129t-54 -130t-133 -54zM428 74q80 0 130 28t73 68v332l-156 -17q-225 -23 -225 -211q0 -102 49 -151t129 -49zM350 -27
q-141 0 -223 70t-82 192t96 197q63 49 197 84l293 70v211q0 117 -32 160q-37 55 -159 57q-66 0 -90 -18t-30 -54q-5 -37 -13 -74t-35 -52q-28 -15 -74 -15q-46 1 -71 31t-25 73t36 77q98 93 343 93q182 0 267 -66q84 -67 83 -200v-631q0 -105 95 -120q25 -3 57 -5v-30
q-67 -47 -189 -47q-66 0 -105 33q-40 34 -50 85h-10q-37 -51 -114 -86t-165 -35zM672 1864q36 0 60 -28t24 -63q0 -73 -84 -92l-404 -92l-10 29l340 221q39 25 74 25z" />
    <glyph glyph-name="AEacute" unicode="&#x1fc;" horiz-adv-x="1839" 
d="M879 545v704h-7l-380 -704h387zM1271 1350q-118 0 -177 -19v-559h92q125 0 174 12t66 51q33 75 53 162h45v-520h-45q-38 160 -69 190q-32 29 -94 32q-63 3 -130 3h-92v-391q0 -82 5 -130q5 -49 29 -73t74 -31q49 -7 128 -7t142 4t102 43q82 78 161 311h49l-31 -428h-1030
v37l92 18q35 4 49 27q15 23 15 96v299h-424l-119 -219q-55 -102 -55 -148t57 -59l68 -14v-37h-414v37l59 14q49 15 84 52q36 37 107 159l610 1079q-25 16 -51 23l-96 18v37h1007l25 -362h-45q-56 127 -88 176t-60 78t-92 34q-63 5 -181 5zM1059 1511l340 222q82 52 133 -3
q24 -28 24 -63q-1 -74 -83 -92l-404 -92z" />
    <glyph glyph-name="aeacute" unicode="&#x1fd;" horiz-adv-x="1556" 
d="M902 916q-68 -98 -75 -306l447 25q0 209 -35 287q-39 92 -154 92t-183 -98zM428 74q80 0 141 32t113 115q-55 125 -55 301l-152 -16q-101 -10 -163 -68t-62 -162t49 -153t129 -49zM1096 -25q-267 0 -381 183q-66 -86 -151 -135t-220 -49t-217 69q-82 70 -82 193t85 198
q85 76 208 103l289 65v195q0 117 -32 160q-37 55 -159 57q-66 0 -90 -18t-30 -54q-5 -37 -13 -74t-35 -52q-28 -15 -74 -15q-46 1 -71 31t-25 73t36 77q98 93 342 93q243 0 304 -141q118 141 318 141t301 -125q100 -125 100 -401h-672q5 -244 93 -348t241 -105q115 0 188 29
t130 57v-57q-187 -150 -383 -150zM981 1491q37 0 61 -28q24 -27 25 -57q0 -72 -76 -97l-395 -123l-12 28l321 246q39 31 76 31z" />
    <glyph glyph-name="Oslashacute" unicode="&#x1fe;" horiz-adv-x="1413" 
d="M393 1212q-96 -158 -96 -483q0 -326 82 -483l606 999q-104 125 -300 125t-292 -158zM1019 202q97 153 97 478t-88 496l-604 -1000q105 -127 302 -127q196 0 293 153zM297 111q-229 194 -229 573t199 582q176 178 450 178q181 0 332 -92l88 143h86l-115 -186
q236 -196 237 -579q1 -384 -199 -582q-177 -173 -450 -173q-196 0 -338 93l-120 -199h-86zM975 1667q0 -73 -84 -92l-404 -92l-10 28l340 222q83 53 133 -3q24 -28 25 -63z" />
    <glyph glyph-name="oslashacute" unicode="&#x1ff;" horiz-adv-x="1130" 
d="M571 35q281 0 281 464q0 239 -45 355l-442 -731q67 -88 206 -88zM279 553q0 -244 47 -358l442 731q-61 86 -204 87q-142 1 -214 -107t-71 -353zM565 1075q143 0 258 -59l88 147h82l-112 -184q192 -141 192 -444q0 -257 -150 -409q-150 -153 -358 -153q-141 0 -256 60
l-98 -164h-82l121 201q-191 144 -193 452q1 256 149 404t359 149zM772 1491q37 0 62 -28q46 -51 8 -113q-16 -27 -60 -41l-395 -123l-12 28l321 246q39 31 76 31z" />
    <glyph glyph-name="Scommaaccent" unicode="&#x218;" horiz-adv-x="1036" 
d="M356 -216q0 40 33 70t85 30t90 -37t38 -113t-57 -143t-187 -93l-12 33q92 35 124 78t32 96q-22 -14 -58 -14q-36 1 -62 27t-26 66zM522 47q130 0 196 71t66 181t-71 179t-266 159t-278 181t-83 249t123 268q123 111 327 111q203 0 328 -45l25 -336h-47q-69 178 -126 235
q-56 58 -106 65q-49 7 -100 7q-123 0 -192 -56q-68 -56 -68 -164t60 -174t200 -127q251 -111 352 -208t101 -225q0 -195 -128 -320t-358 -125t-395 72l-23 373h50q68 -168 115 -244q48 -77 108 -102t190 -25z" />
    <glyph glyph-name="scommaaccent" unicode="&#x219;" horiz-adv-x="833" 
d="M266 -216q0 40 33 70t85 30t90 -37t38 -113t-57 -143t-187 -93l-12 33q92 35 124 78t32 96q-22 -14 -58 -14q-36 1 -62 27t-26 66zM223 854q1 -134 213 -217q182 -71 238 -122q57 -50 80 -95q22 -45 22 -111q-1 -142 -109 -238q-109 -96 -289 -96t-312 50l-7 301h41
q31 -72 77 -148t71 -103t64 -32q39 -6 79 -6q92 0 153 48q60 48 60 133t-58 134t-193 105t-190 107q-99 93 -97 204q0 138 109 223q109 86 265 85t267 -44l8 -260h-37q-43 92 -103 172q-37 47 -73 58t-82 12q-197 0 -197 -160z" />
    <glyph glyph-name="uni021A" unicode="&#x21a;" horiz-adv-x="1222" 
d="M560 -309q-36 1 -62 27t-25 66q0 40 33 70t85 30t90 -37t38 -113t-57 -143t-187 -93l-12 33q92 35 124 78t31 96q-22 -14 -58 -14zM502 178v1176h-39q-152 0 -189 -14q-65 -24 -110 -121q-44 -98 -56 -134q-12 -37 -26 -79h-49l18 413h1120l19 -413h-49q-99 304 -185 332
q-51 16 -196 16h-39v-1176q0 -77 9 -93q10 -15 22 -20t32 -10l99 -18v-37h-543v37l98 18q39 9 52 30q12 21 12 93z" />
    <glyph glyph-name="uni021B" unicode="&#x21b;" horiz-adv-x="661" 
d="M318 -309q-36 1 -63 27q-26 26 -26 66t33 70t85 30t90 -37t38 -113t-57 -143t-187 -93l-12 33q92 35 124 78t32 96q-21 -14 -57 -14zM487 84q84 0 160 27v-41q-184 -131 -353 -83q-86 23 -124 104q-18 40 -18 99v768h-142v35q211 66 293 295h49v-246h287l-21 -84h-266
v-747q0 -127 135 -127z" />
    <glyph glyph-name="uni0237" unicode="&#x237;" horiz-adv-x="524" 
d="M377 870v-874q0 -218 -100 -320t-265 -102q-94 0 -137 40t-43 86t27 72t79 26t74 -29q20 -29 26 -70t12 -52q7 -11 24 -12q102 0 102 146v1069q0 58 -9 73t-21 21t-29 17l-76 38v29l330 43l14 -8q-8 -108 -8 -193z" />
    <glyph glyph-name="circumflex" unicode="&#x2c6;" 
d="M223 1202l252 279h72l254 -279l-17 -22l-272 143l-272 -143z" />
    <glyph glyph-name="caron" unicode="&#x2c7;" 
d="M223 1466l17 23l272 -143l272 143l17 -23l-252 -278h-72z" />
    <glyph glyph-name="breve" unicode="&#x2d8;" 
d="M513 1180q-99 0 -165 83t-72 187l31 4q23 -57 73 -98t132 -41t132 41t73 98l31 -4q-9 -110 -72.5 -190t-162.5 -80z" />
    <glyph glyph-name="dotaccent" unicode="&#x2d9;" 
d="M512 1200q-47 0 -81 34t-34 80t34 78.5t81 32.5t81 -32.5t34 -78.5t-34 -80t-81 -34z" />
    <glyph glyph-name="ring" unicode="&#x2da;" 
d="M512 1237q53 0 85 35t32 89t-32 89t-85 35t-85 -35t-32 -89t32 -89t85 -35zM512 1178q-80 0 -133 54t-53 130t53 129t133 53t133 -53t53 -129t-53 -130t-133 -54z" />
    <glyph glyph-name="ogonek" unicode="&#x2db;" 
d="M629 0q-111 -126 -111 -230q0 -60 16.5 -79t44.5 -28t109 -9v-33q-62 -37 -147 -37q-84 0 -136.5 41t-52.5 99t45.5 129.5t190.5 146.5h41z" />
    <glyph glyph-name="tilde" unicode="&#x2dc;" 
d="M692 1358q37 0 60.5 24.5t52.5 71.5l33 -16q-45 -98 -82 -156.5t-93 -58.5t-180 22.5t-156 22.5t-55.5 -24.5t-52.5 -72.5l-33 17q45 98 82 156.5t95 58.5t175 -22.5t154 -22.5z" />
    <glyph glyph-name="hungarumlaut" unicode="&#x2dd;" 
d="M848 1511q31 0 62.5 -23.5t31.5 -51.5t-9 -48t-42 -40l-268 -168l-29 30l190 258q33 43 64 43zM510 1511q31 0 62.5 -23.5t31.5 -51.5t-9 -48t-42 -40l-268 -168l-29 30l190 258q33 43 64 43z" />
    <glyph glyph-name="Wgrave" unicode="&#x1e80;" horiz-adv-x="1898" 
d="M-6 1419h506v-37l-64 -14q-66 -14 -65 -76q0 -27 28 -131l273 -868h10l250 749l-45 138q-38 115 -59 145q-22 30 -66 43l-55 14v37h503v-37l-63 -14q-63 -14 -64 -76q0 -36 27 -131l274 -868h11l237 868q25 88 25 125q-1 37 -15 55t-49 27l-67 14v37h379v-37l-62 -14
q-47 -10 -71 -60t-56 -165l-336 -1143h-110l-295 915h-6l-307 -915h-107l-383 1180q-37 114 -58 145t-65 43l-55 14v37zM713 1668q0 34 24 62q48 54 133 3l340 -222l-10 -28l-403 92q-84 19 -84 93z" />
    <glyph glyph-name="wgrave" unicode="&#x1e81;" horiz-adv-x="1560" 
d="M-16 1042h467v-34l-56 -15q-39 -10 -47 -25t-8 -38t27 -109l188 -575h8l187 536l-25 72q-23 68 -43 98t-55 39l-49 17v34h432v-34l-56 -15q-28 -8 -36 -24q-20 -43 18 -148l197 -575h8l186 575q25 73 25 104q0 30 -12 45t-42 23l-55 15v34h334v-34l-57 -17
q-39 -12 -53 -37q-15 -26 -25 -54t-25 -66l-295 -834h-96l-235 672h-7l-239 -672h-96l-308 854q-27 73 -45 98q-19 24 -63 39l-49 17v34zM537 1406q1 30 25 58t61 27q37 0 75 -31l322 -246l-12 -28l-396 123q-75 24 -75 97z" />
    <glyph glyph-name="Wacute" unicode="&#x1e82;" horiz-adv-x="1898" 
d="M-6 1419h506v-37l-64 -14q-66 -14 -65 -76q0 -27 28 -131l273 -868h10l250 749l-45 138q-38 115 -59 145q-22 30 -66 43l-55 14v37h503v-37l-63 -14q-63 -14 -64 -76q0 -36 27 -131l274 -868h11l237 868q25 88 25 125q-1 37 -15 55t-49 27l-67 14v37h379v-37l-62 -14
q-47 -10 -71 -60t-56 -165l-336 -1143h-110l-295 915h-6l-307 -915h-107l-383 1180q-37 114 -58 145t-65 43l-55 14v37zM1223 1667q0 -73 -84 -92l-404 -92l-10 28l340 222q83 53 133 -3q24 -28 25 -63z" />
    <glyph glyph-name="wacute" unicode="&#x1e83;" horiz-adv-x="1560" 
d="M-16 1042h467v-34l-56 -15q-39 -10 -47 -25t-8 -38t27 -109l188 -575h8l187 536l-25 72q-23 68 -43 98t-55 39l-49 17v34h432v-34l-56 -15q-28 -8 -36 -24q-20 -43 18 -148l197 -575h8l186 575q25 73 25 104q0 30 -12 45t-42 23l-55 15v34h334v-34l-57 -17
q-39 -12 -53 -37q-15 -26 -25 -54t-25 -66l-295 -834h-96l-235 672h-7l-239 -672h-96l-308 854q-27 73 -45 98q-19 24 -63 39l-49 17v34zM1012 1491q38 0 62 -28q24 -27 24 -57q0 -72 -76 -97l-395 -123l-13 28l322 246q39 31 76 31z" />
    <glyph glyph-name="Wdieresis" unicode="&#x1e84;" horiz-adv-x="1898" 
d="M-6 1419h506v-37l-64 -14q-66 -14 -65 -76q0 -27 28 -131l273 -868h10l250 749l-45 138q-38 115 -59 145q-22 30 -66 43l-55 14v37h503v-37l-63 -14q-63 -14 -64 -76q0 -36 27 -131l274 -868h11l237 868q25 88 25 125q-1 37 -15 55t-49 27l-67 14v37h379v-37l-62 -14
q-47 -10 -71 -60t-56 -165l-336 -1143h-110l-295 915h-6l-307 -915h-107l-383 1180q-37 114 -58 145t-65 43l-55 14v37zM1182 1503q-47 0 -81 34t-34 80t34 79t81 33t81 -33q33 -33 33 -79t-34 -80t-80 -34zM760 1503q-47 0 -81 34t-34 80t34 79t81 33t81 -33q33 -33 33 -79
t-34 -80t-80 -34z" />
    <glyph glyph-name="wdieresis" unicode="&#x1e85;" horiz-adv-x="1560" 
d="M-16 1042h467v-34l-56 -15q-39 -10 -47 -25t-8 -38t27 -109l188 -575h8l187 536l-25 72q-23 68 -43 98t-55 39l-49 17v34h432v-34l-56 -15q-28 -8 -36 -24q-20 -43 18 -148l197 -575h8l186 575q25 73 25 104q0 30 -12 45t-42 23l-55 15v34h334v-34l-57 -17
q-39 -12 -53 -37q-15 -26 -25 -54t-25 -66l-295 -834h-96l-235 672h-7l-239 -672h-96l-308 854q-27 73 -45 98q-19 24 -63 39l-49 17v34zM999 1206q-47 0 -81 34t-33 80q0 46 34 79q35 33 81 33t80 -33t34 -79t-34 -80t-81 -34zM610 1206q-47 0 -81 34q-33 34 -33 80t33 79
q34 33 81 33t81 -33t34 -79t-34 -80t-81 -34z" />
    <glyph glyph-name="Ygrave" unicode="&#x1ef2;" horiz-adv-x="1232" 
d="M532 178v395l-339 613q-57 104 -84 137q-26 33 -66 45l-51 14v37h530v-37l-51 -12q-47 -10 -65 -28q-43 -42 20 -156l276 -522h9l239 522q31 67 31 101t-16 52t-64 29l-63 14v37h403v-37l-45 -14q-52 -17 -81 -52t-89 -159l-274 -567v-412q0 -77 9 -93q9 -15 21 -20
t33 -10l98 -18v-37h-542v37l98 18q39 9 51 29t12 94zM428 1668q0 34 25 62q47 53 133 3l340 -222l-11 -28l-403 92q-84 19 -84 93z" />
    <glyph glyph-name="ygrave" unicode="&#x1ef3;" horiz-adv-x="1030" 
d="M23 -301q0 49 30 76q31 27 78 27q85 -1 109 -85q8 -23 14 -29t33 -7q27 0 69 54t95 181l30 76l-336 862q-34 87 -51 107t-53 30l-49 17v34h459v-34l-56 -15q-35 -10 -46 -21t-11 -43t29 -108l217 -577h8l207 577q47 134 14 155q-14 9 -43 17l-55 15v34h332v-34l-58 -17
q-35 -12 -50 -36q-15 -25 -52 -121l-348 -914q-62 -164 -119 -236q-86 -106 -229 -106q-82 0 -125 36t-43 85zM394 1491q36 0 75 -31l322 -246l-13 -28l-395 123q-73 23 -75 97q0 30 24 58q26 28 62 27z" />
    <glyph glyph-name="uni2009" unicode="&#x2009;" horiz-adv-x="204" 
 />
    <glyph glyph-name="endash" unicode="&#x2013;" horiz-adv-x="768" 
d="M86 627h596v-80h-596v80z" />
    <glyph glyph-name="emdash" unicode="&#x2014;" horiz-adv-x="1208" 
d="M86 627h1036v-80h-1036v80z" />
    <glyph glyph-name="quoteleft" unicode="&#x2018;" horiz-adv-x="413" 
d="M234 1219q38 0 68 -30t30 -77t-35 -76.5t-87 -29.5t-94 40.5t-42 128.5t64.5 162t193.5 107l12 -33q-86 -43 -124 -92t-38 -115q14 15 52 15z" />
    <glyph glyph-name="quoteright" unicode="&#x2019;" horiz-adv-x="413" 
d="M179 1233q-38 0 -67.5 29.5t-29.5 76.5t35 77t87 30t94 -41t42 -129t-64.5 -162t-193.5 -106l-12 32q86 43 123.5 92.5t37.5 114.5q-14 -14 -52 -14z" />
    <glyph glyph-name="quotesinglbase" unicode="&#x201a;" horiz-adv-x="413" 
d="M178 20q-38 0 -67 30t-29 77t35 76.5t87 29.5t94 -40.5t42 -128.5t-64.5 -162t-193.5 -107l-12 33q86 43 123.5 92t37.5 115q-15 -15 -53 -15z" />
    <glyph glyph-name="quotedblleft" unicode="&#x201c;" horiz-adv-x="770" 
d="M592 1219q38 0 67 -30t29 -77t-35 -76.5t-87 -29.5t-94 40.5t-42 128.5t64.5 162t193.5 107l12 -33q-86 -43 -123.5 -92t-37.5 -115q15 15 53 15zM234 1219q38 0 68 -30t30 -77t-35 -76.5t-87 -29.5t-94 40.5t-42 128.5t64.5 162t193.5 107l12 -33q-86 -43 -124 -92
t-38 -115q14 15 52 15z" />
    <glyph glyph-name="quotedblright" unicode="&#x201d;" horiz-adv-x="770" 
d="M536 1233q-38 0 -68 29.5t-30 76.5t35 77t87 30t94 -41t42 -129t-64.5 -162t-193.5 -106l-12 32q86 43 124 92.5t38 114.5q-14 -14 -52 -14zM179 1233q-38 0 -67.5 29.5t-29.5 76.5t35 77t87 30t94 -41t42 -129t-64.5 -162t-193.5 -106l-12 32q86 43 123.5 92.5
t37.5 114.5q-14 -14 -52 -14z" />
    <glyph glyph-name="quotedblbase" unicode="&#x201e;" horiz-adv-x="770" 
d="M536 20q-38 0 -68 30t-30 77t35 76.5t87 29.5t94 -40.5t42 -128.5t-64.5 -162t-193.5 -107l-12 33q86 43 124 92t38 115q-14 -15 -52 -15zM178 20q-38 0 -67 30t-29 77t35 76.5t87 29.5t94 -40.5t42 -128.5t-64.5 -162t-193.5 -107l-12 33q86 43 123.5 92t37.5 115
q-15 -15 -53 -15z" />
    <glyph glyph-name="dagger" unicode="&#x2020;" horiz-adv-x="849" 
d="M124 932q-34 0 -56.5 26.5t-22.5 66.5t22.5 66.5t56.5 26.5q46 0 125 -36.5t150 -39.5q-7 76 -34 143.5t-39.5 97.5t-12.5 46q0 47 35 78t74 31t73.5 -31t34.5 -78q0 -16 -39.5 -115t-44.5 -172q66 3 128.5 28.5t89 36.5t60.5 11t57.5 -26.5t23.5 -66.5t-23.5 -66.5
t-57.5 -26.5t-60.5 10t-89 35.5t-128.5 28.5q9 -137 82 -252l-84 -891h-43l-84 891q74 121 82 252q-67 -3 -126.5 -28.5t-87 -35.5t-61.5 -10z" />
    <glyph glyph-name="daggerdbl" unicode="&#x2021;" horiz-adv-x="849" 
d="M126 940q-36 0 -58.5 26.5t-22.5 66.5t22.5 66.5t56.5 26.5q46 0 123.5 -36t151.5 -39q-6 57 -32.5 126.5t-39 103t-12.5 67.5t34 62t73 28t72.5 -28t33.5 -63q0 -46 -38.5 -141t-43.5 -155q69 3 130 28t87.5 36t60.5 11t57.5 -26.5t23.5 -66.5t-23.5 -66.5t-57.5 -26.5
t-60.5 10.5t-90.5 35.5t-127 28q7 -76 82 -160l-88 -213h-34l-89 213q75 75 82 160q-65 -3 -151 -38.5t-122 -35.5zM724 297q34 0 57.5 -26.5t23.5 -66.5t-23.5 -66.5t-57.5 -26.5t-60.5 11t-87.5 36t-130 28q3 -56 42.5 -153t39.5 -137q0 -41 -33.5 -69t-72.5 -28t-73 28
t-34 63t12.5 67.5t39.5 102.5t32 126q-82 -7 -155.5 -41t-113.5 -34t-62.5 26.5t-22.5 66.5t22.5 66.5t56.5 26.5q39 0 124.5 -35.5t150.5 -38.5q-7 85 -82 160l89 213h34l88 -213q-73 -78 -82 -160q64 3 127.5 28t90 35.5t60.5 10.5z" />
    <glyph glyph-name="bullet" unicode="&#x2022;" horiz-adv-x="722" 
d="M174 470.5q-78 77.5 -78 191.5t77 191t186 77t188.5 -78t79.5 -190q0 -113 -80.5 -191t-187.5 -78t-185 77.5z" />
    <glyph glyph-name="ellipsis" unicode="&#x2026;" horiz-adv-x="1236" 
d="M1024 -10q-53 0 -90 35.5t-37 89t37 89.5t90 36t90 -36t37 -89.5t-37 -89t-90 -35.5zM618.5 -10q-53.5 0 -90 35.5t-36.5 89t36.5 89.5t90 36t90 -36t36.5 -89.5t-36.5 -89t-90 -35.5zM213 -10q-53 0 -90 35.5t-37 89t37 89.5t90 36t90 -36t37 -89.5t-37 -89t-90 -35.5z
" />
    <glyph glyph-name="perthousand" unicode="&#x2030;" horiz-adv-x="2217" 
d="M1194 1462h94l-1038 -1564h-94zM1677 346q-1 -323 151 -323t152 312t-151 312q-74 0 -113 -68.5t-39 -232.5zM1501 327q0 174 105 272.5t225 98.5q121 0 223.5 -94t102.5 -263t-105.5 -269.5t-227.5 -100.5q-119 0 -221 91t-102 265zM938 346q0 -323 152 -323t151 312
q0 312 -151 312q-74 0 -113 -68.5t-39 -232.5zM762 327q0 175 105 273t226 98q120 0 222 -93.5t102 -263.5q0 -171 -106 -270.5t-227 -99.5q-118 0 -220 90.5t-102 265.5zM539 1063q-1 326 -151 326q-150 -1 -150 -313t149 -312q74 0 113 68.5t39 230.5zM161.5 805
q-100.5 92 -100.5 265t105 271.5t224 98.5t222 -92.5t103 -265.5t-106.5 -271t-226.5 -98t-220.5 92z" />
    <glyph glyph-name="guilsinglleft" unicode="&#x2039;" horiz-adv-x="567" 
d="M88 498v39l348 405h62l-222 -424l222 -426h-62z" />
    <glyph glyph-name="guilsinglright" unicode="&#x203a;" horiz-adv-x="567" 
d="M291 516l-221 426h61l348 -405v-39l-348 -406h-61z" />
    <glyph glyph-name="fraction" unicode="&#x2044;" horiz-adv-x="526" 
d="M735 1462h94l-1038 -1564h-94z" />
    <glyph glyph-name="Euro" unicode="&#x20ac;" horiz-adv-x="1169" 
d="M37 864h135q38 285 205 432.5t383 147.5q155 0 256.5 -58t101.5 -159q0 -45 -32.5 -72t-81.5 -27t-78 29t-37 89t-16.5 80t-30 33t-105.5 13t-141 -27.5t-124.5 -124t-82.5 -356.5h465l-12 -67h-455v-75q0 -75 2 -104h420l-10 -67h-404q23 -250 117 -353.5t264 -103.5
q113 0 188.5 30t135.5 69v-60q-86 -74 -175.5 -116t-205.5 -42q-228 0 -375 149t-174 427h-133v67h127q-2 18 -2 23v68q0 63 4 88h-129v67z" />
    <glyph glyph-name="trademark" unicode="&#x2122;" horiz-adv-x="1386" 
d="M242 963v419h-9q-43 0 -68.5 -8t-46 -56t-40.5 -95h-29l8 196h496l8 -196h-29q-36 89 -54 119q-19 29 -38.5 34.5t-62.5 5.5h-8v-419q0 -33 5 -41.5t21 -12.5l51 -12v-31h-282v31l51 12q16 4 21.5 12.5t5.5 41.5zM680 987v346q0 23 -6 30t-23 13l-37 13v30h226l133 -377
h4l129 377h223v-30l-39 -13q-16 -6 -22 -13t-6 -30v-370q0 -33 4 -42.5t20 -13.5l43 -10v-31h-258v31l43 12q16 4 20.5 12.5t4.5 41.5v393h-6l-164 -475h-58l-176 475h-4v-369q0 -43 7 -58.5t30 -21.5l39 -10v-31h-197v31l37 10q33 7 33 80z" />
    <glyph glyph-name="arrowleft" unicode="&#x2190;" horiz-adv-x="1675" 
d="M733 545l164 -135q109 -94 82 -204q-12 -48 -47 -86q-73 -79 -186 -61q-54 10 -103 60l-586 588v8l588 590q94 91 205 53q47 -16 82 -55t47 -87q28 -114 -82 -204l-164 -135l694 32q130 4 181 -96t2 -201q-23 -44 -69 -74t-114 -26z" />
    <glyph glyph-name="arrowright" unicode="&#x2192;" horiz-adv-x="1675" 
d="M248 512q-68 -4 -114 26q-90 59 -92 171q-2 113 91 174q45 29 115 26l694 -32l-164 135q-110 91 -82 203q12 47 47 87q73 83 184 61q54 -11 103 -58l588 -590v-8l-586 -588q-92 -92 -206 -53q-48 16 -83 54t-47 86q-28 112 82 204l164 135z" />
    <glyph glyph-name="minus" unicode="&#x2212;" horiz-adv-x="921" 
d="M72 737h778v-90h-778v90z" />
    <glyph glyph-name="approxequal" unicode="&#x2248;" horiz-adv-x="983" 
d="M250 952q102 0 202.5 -30.5t150.5 -45t93 -14.5t75 41t56 94l82 -39q-40 -91 -91.5 -142.5t-117.5 -51.5t-170 30.5t-153 45t-91 14.5t-75 -42t-51 -89l-86 33q74 196 176 196zM246.5 647q98.5 0 202.5 -30.5t154 -45t93 -14.5t75 41t56 94l82 -39q-62 -141 -120 -167.5
t-102 -26.5t-98 14t-108.5 30.5t-103.5 31t-91 14.5t-75 -42t-51 -89l-86 33q74 196 172.5 196z" />
    <glyph glyph-name="notequal" unicode="&#x2260;" horiz-adv-x="983" 
d="M72 891h475l147 270h107l-150 -270h260v-90h-309l-119 -217h428v-90h-477l-147 -271h-105l148 271h-258v90h307l119 217h-426v90z" />
    <glyph glyph-name="lessequal" unicode="&#x2264;" horiz-adv-x="921" 
d="M72 90h778v-90h-778v90zM72 629v84l778 342v-103l-664 -280l664 -281v-104z" />
    <glyph glyph-name="greaterequal" unicode="&#x2265;" horiz-adv-x="921" 
d="M850 0h-778v90h778v-90zM72 287v104l663 281l-663 280v103l778 -342v-84z" />
    <glyph glyph-name="triangleright" unicode="&#x22b2;" horiz-adv-x="1761" 
d="M238 1456h28l1393 -735v-21l-1393 -737h-28v1493z" />
    <glyph glyph-name="triangleleft" unicode="&#x22b3;" horiz-adv-x="1761" 
d="M1524 -37h-29l-1393 737v21l1393 735h29v-1493z" />
    <glyph glyph-name="star" unicode="&#x22c6;" horiz-adv-x="1703" 
d="M29 907h622l193 596h16l195 -596h620v-16l-497 -356l194 -592l-14 -9l-506 361l-506 -365l-14 9l196 596l-499 356v16z" />
    <glyph glyph-name="uni24C5" unicode="&#x24c5;" horiz-adv-x="1613" 
d="M804 35q142 0 262 53t206 143q182 190 182 474q0 137 -48 259t-134 213t-206 143t-262 52t-261 -52t-205 -143t-134 -213t-48 -260t48 -260t134 -213q86 -90 205 -143t261 -53zM805 -29q-154 -1 -287 57q-268 116 -383 392q-55 133 -55 285q0 153 55 285t153 230t230 156
q133 58 287 58t287 -58q271 -117 386 -387q56 -133 56 -285q0 -303 -211 -518q-98 -100 -231 -158t-287 -57zM807 1057q-42 0 -70 -10v-605q0 -62 10 -76t48 -22l43 -8v-35h-359v35l25 6q31 8 42 24t11 74v531q0 58 -9 73q-9 16 -44 25l-25 6v35h352q324 0 324 -240
q0 -118 -70 -182t-186 -63q-56 0 -88 12v39q67 6 105 44t38 140t-33 149q-34 48 -114 48z" />
    <glyph glyph-name="circle" unicode="&#x25cb;" horiz-adv-x="1650" 
d="M823 -31q-155 1 -289 59q-271 118 -392 395q-58 134 -58 288q0 155 58 289q118 273 393 392q135 58 289 58t288 -58q280 -120 396 -393q58 -135 58 -289t-58 -287q-121 -278 -396 -395q-135 -59 -289 -59z" />
    <glyph glyph-name="space_uni0326" horiz-adv-x="1044" 
d="M498 -309q-36 0 -62 26.5t-26 66.5t32.5 69.5t84.5 29.5t90 -35.5t38 -112.5t-57 -143.5t-186 -93.5l-13 33q92 35 124 78t32 96q-21 -14 -57 -14z" />
    <glyph glyph-name="caron.alt" horiz-adv-x="1044" 
d="M679 1546q93 0 93 -80q0 -36 -18 -65l-146 -258l-30 8l16 293q2 39 21.5 70.5t63.5 31.5z" />
    <glyph glyph-name="space_uni0326.alt" horiz-adv-x="1044" 
d="M633 1301q0 -40 -33 -69.5t-85 -29.5t-90 36t-38 113t57.5 143.5t186.5 92.5l12 -33q-92 -35 -124 -77.5t-32 -96.5q22 15 59 15q36 0 61.5 -27t25.5 -67z" />
    <glyph glyph-name="acute.pl" horiz-adv-x="1044" 
d="M609 1567q34 0 65 -23.5t31 -65.5t-31 -73l-228 -227l-24 18l98 293q10 31 32.5 54.5t56.5 23.5z" />
    <glyph glyph-name="J.alt" horiz-adv-x="886" 
d="M268 -25q-129 0 -189.5 50.5t-60.5 104.5q0 112 107 112q63 0 82 -34t31 -88t24 -63.5t48 -9.5q81 0 119 59t38 209v926q0 77 -10.5 96t-53.5 27l-96 18v37h535v-37l-92 -18q-40 -9 -52 -29t-12 -94v-764q0 -242 -108.5 -372t-309.5 -130z" />
    <glyph glyph-name="R.alt" horiz-adv-x="1302" 
d="M543 725q164 0 247.5 72.5t83.5 247.5t-63 240t-190 65t-195 -15v-602q64 -8 117 -8zM207 178v1063q0 75 -13.5 95t-50.5 28l-92 18v37h578q233 0 351 -93t118 -273q0 -225 -144.5 -289t-257.5 -78v-6q187 -56 299 -258q33 -57 100.5 -190.5t97.5 -153t62 -29.5l45 -12
v-37h-333q-37 70 -146 322.5t-165 294.5t-152 42h-78v-481q0 -77 11 -96t52 -27l97 -18v-37h-535v37l92 18q54 6 59 45t5 78z" />
    <glyph glyph-name="Cacute.pl" horiz-adv-x="1249" 
d="M712 -25q-451 0 -591 394q-49 137 -49 335q0 381 208 572q181 168 492 168q227 0 381 -49l18 -406h-47q-47 147 -133 285q-29 47 -82 72q-53 24 -161 24q-225 -1 -334 -148q-109 -148 -109 -485q0 -539 236 -651q78 -37 196 -37t172 25q55 25 97 86q75 114 131 274h41
l-21 -368q-69 -35 -187 -63t-258 -28zM830 1823q34 0 64 -24t30 -62t-45 -78l-217 -178l-29 20l110 246q13 29 33 53t54 23z" />
    <glyph glyph-name="Nacute.pl" horiz-adv-x="1384" 
d="M289 1243v-1044q0 -88 13 -109q14 -22 30 -28t41 -11l86 -14v-37h-408v37l72 14q49 10 61 28q23 36 23 120v1042q0 77 -14 96t-50 27l-92 18v37h383l672 -1044h8v846q0 87 -13 108q-13 23 -29 29t-42 10l-94 14v37h416v-37l-72 -14q-48 -8 -61 -28q-23 -36 -23 -119
v-1229h-90l-809 1251h-8zM830 1823q34 0 64 -24t30 -62t-45 -78l-217 -178l-29 20l110 246q13 29 33 53t54 23z" />
    <glyph glyph-name="Oacute.pl" horiz-adv-x="1413" 
d="M713 49q209 0 306 153t97 482q0 461 -214 625q-81 61 -204 61q-209 0 -305 -158t-96 -487q0 -459 213 -616q80 -60 203 -60zM1146 148q-177 -173 -451 -173t-451 189q-176 189 -176 544t199 558q176 178 453 178t443 -187q181 -198 182 -555q1 -356 -199 -554zM812 1823
q34 0 64 -24q47 -38 20 -98q-9 -19 -36 -42l-217 -178l-29 20l111 246q13 29 33 53t54 23z" />
    <glyph glyph-name="Sacute.pl" horiz-adv-x="1036" 
d="M522 47q130 0 196 71t66 181t-71 179t-266 159t-278 181t-83 249t123 268q123 111 327 111q203 0 328 -45l25 -336h-47q-69 178 -126 235q-56 58 -106 65q-49 7 -100 7q-123 0 -192 -56q-68 -56 -68 -164t60 -174t200 -127q251 -111 352 -208t101 -225q0 -195 -128 -320
t-358 -125t-395 72l-23 373h50q68 -168 115 -244q48 -77 108 -102t190 -25zM648 1823q34 0 64 -24q47 -38 20 -98q-9 -19 -36 -42l-217 -178l-28 20l110 246q13 29 33 53t54 23z" />
    <glyph glyph-name="Zacute.pl" horiz-adv-x="1126" 
d="M838 1350h-133q-250 0 -309 -12q-58 -12 -82 -31q-49 -37 -98 -150q-24 -53 -54 -131h-45l20 393h942v-63l-780 -1278v-8h129q269 0 334 13t92 29q53 32 105 149q28 60 69 165h49l-26 -426h-1000v63l787 1278v9zM736 1823q34 0 64 -24q47 -38 20 -98q-9 -19 -36 -42
l-217 -178l-28 20l110 246q13 29 33 53t54 23z" />
    <glyph glyph-name="cacute.pl" horiz-adv-x="956" 
d="M57 532q1 142 55 250t139 174q157 121 380 119q145 0 214 -47t68 -125q-1 -47 -33 -79t-88 -32t-79 30t-32 90t-29 79t-78 19q-130 1 -217 -102q-87 -102 -87 -334q0 -478 330 -478q102 0 190 29t136 57v-57q-172 -150 -418 -150q-94 0 -180 40q-270 123 -271 517z
M678 1567q34 0 64 -24q30 -23 30 -65t-31 -73l-227 -227l-25 18l99 293q10 31 33 55t57 23z" />
    <glyph glyph-name="idotaccent" horiz-adv-x="540" 
d="M268 1233q-51 0 -87 37t-36 85t36 84t87 36t87 -36t36 -84t-36 -85t-87 -37zM377 870v-706q0 -64 9 -80q9 -17 44 -27l82 -22v-35h-471v35l82 22q29 7 41 27t12 80v686q0 58 -9 73t-21 21t-29 17l-76 38v29l330 43l14 -8q-8 -108 -8 -193z" />
    <glyph glyph-name="nacute.pl" horiz-adv-x="1193" 
d="M744 1073q164 1 224 -67t60 -205v-637q0 -58 12 -78t41 -29l82 -22v-35h-471v35l82 22q31 9 42 27t11 80v592q0 110 -39 150t-137 40t-220 -38q-32 -9 -54 -15v-729q0 -64 9 -80q9 -17 44 -27l82 -22v-35h-471v35l82 22q29 7 41 27t12 80v686q0 58 -9 73t-21 21t-29 17
l-76 38v29l319 43l15 -8l-4 -119h8q201 129 365 129zM714 1567q34 0 64 -24q30 -23 31 -65q0 -42 -31 -73l-227 -227l-25 18l99 293q11 31 33 55t56 23z" />
    <glyph glyph-name="oacute.pl" horiz-adv-x="1130" 
d="M568 35q142 1 213 113t71 372t-73 377t-215 117t-214 -109t-72 -369t74 -380q74 -121 216 -121zM560 -27q-104 0 -196 35t-160 104q-69 69 -108 172t-39 238q0 136 42 238q85 207 276 279q92 36 194 36q219 0 361 -139q143 -139 143 -401q0 -135 -43 -240
q-86 -208 -276 -285q-90 -37 -194 -37zM673 1567q35 0 65 -24q30 -23 30 -65t-31 -73l-227 -227l-25 18l99 293q10 31 32 55t57 23z" />
    <glyph glyph-name="sacute.pl" horiz-adv-x="833" 
d="M223 854q1 -134 213 -217q182 -71 238 -122q57 -50 80 -95q22 -45 22 -111q-1 -142 -109 -238q-109 -96 -289 -96t-312 50l-7 301h41q31 -72 77 -148t71 -103t64 -32q39 -6 79 -6q92 0 153 48q60 48 60 133t-58 134t-193 105t-190 107q-99 93 -97 204q0 138 109 223
q109 86 265 85t267 -44l8 -260h-37q-43 92 -103 172q-37 47 -73 58t-82 12q-197 0 -197 -160zM530 1567q34 0 64 -24q31 -24 31 -65t-31 -73l-227 -227l-25 18l98 293q10 31 33 55t57 23z" />
    <glyph glyph-name="zacute.pl" horiz-adv-x="935" 
d="M655 983h-186q-165 0 -196 -31q-49 -45 -108 -168q-13 -27 -30 -59h-37l15 317h788v-43l-618 -931v-9h163q160 -1 202 13t69 40t67 102q40 75 60 126h39l-23 -340h-819v47l614 928v8zM648 1567q34 0 71 -29t18 -95q-6 -19 -24 -38l-228 -227l-24 18l98 293q10 31 33 55
q22 24 56 23z" />
    <glyph glyph-name="Jcircumflex.alt" horiz-adv-x="886" 
d="M268 -25q-129 1 -189 51q-61 50 -61 104q-1 112 107 112q63 0 83 -34t30 -88q12 -54 24 -63q12 -10 48 -10t66 11q91 33 91 257v926q0 79 -11 97t-53 26l-96 18v37h535v-37l-92 -18q-40 -9 -52 -29t-12 -94v-764q0 -242 -108 -372t-310 -130zM285 1499l252 256h71
l254 -256l-16 -22l-273 120l-272 -120z" />
    <glyph glyph-name="IJ.alt" horiz-adv-x="1497" 
d="M929 -25q-79 1 -125 15q-128 40 -128 147q0 41 26 73q27 32 84 32q56 0 76 -36t30 -88t26 -61q16 -10 54 -10t72 48t33 161l-6 985q0 77 -12 96t-51 27l-97 18v37h535v-37l-92 -18q-40 -9 -52 -30t-12 -93l6 -811q0 -98 -25 -182q-53 -172 -193 -239q-70 -34 -149 -34z
M215 178v1063q0 76 -12 95t-51 28l-101 18v37h547v-37l-100 -18q-41 -8 -53 -27q-11 -19 -11 -96v-1063q0 -77 9 -93q9 -15 21 -20t34 -10l100 -18v-37h-547v37l101 18q36 4 49 26q14 23 14 97z" />
    <glyph glyph-name="Racute.alt" horiz-adv-x="1302" 
d="M543 725q164 0 248 73q83 73 83 248t-62 238q-62 64 -195 65t-191 -14v-602q64 -8 117 -8zM207 178v1063q0 77 -14 96t-50 27l-92 18v37h578q233 0 351 -93t118 -273q0 -225 -212 -319q-77 -34 -190 -48v-6q188 -56 299 -258q41 -70 80 -147q93 -181 136 -208
q11 -7 44 -18l45 -12v-37h-333q-49 92 -89 187q-164 384 -236 441q-42 31 -138 31h-78v-481q0 -77 9 -93q9 -15 21 -20t33 -10l97 -18v-37h-535v37l92 18q34 4 49 26t15 97zM881 1667q0 -73 -84 -92l-404 -92l-10 28l340 222q83 53 133 -3q24 -28 25 -63z" />
    <glyph glyph-name="Rcaron.alt" horiz-adv-x="1302" 
d="M543 725q164 0 248 73q83 73 83 248t-62 238q-62 64 -195 65t-191 -14v-602q64 -8 117 -8zM207 178v1063q0 77 -14 96t-50 27l-92 18v37h578q233 0 351 -93t118 -273q0 -225 -212 -319q-77 -34 -190 -48v-6q188 -56 299 -258q41 -70 80 -147q93 -181 136 -208
q11 -7 44 -18l45 -12v-37h-333q-49 92 -89 187q-164 384 -236 441q-42 31 -138 31h-78v-481q0 -77 9 -93q9 -15 21 -20t33 -10l97 -18v-37h-535v37l92 18q34 4 49 26t15 97zM324 1741l16 22l272 -121l273 121l16 -22l-252 -256h-71z" />
    <glyph glyph-name="Rcommaaccent.alt" horiz-adv-x="1302" 
d="M543 725q164 0 248 73q83 73 83 248t-62 238q-62 64 -195 65t-191 -14v-602q64 -8 117 -8zM207 178v1063q0 77 -14 96t-50 27l-92 18v37h578q233 0 351 -93t118 -273q0 -225 -212 -319q-77 -34 -190 -48v-6q188 -56 299 -258q41 -70 80 -147q93 -181 136 -208
q11 -7 44 -18l45 -12v-37h-333q-49 92 -89 187q-164 384 -236 441q-42 31 -138 31h-78v-481q0 -77 9 -93q9 -15 21 -20t33 -10l97 -18v-37h-535v37l92 18q34 4 49 26t15 97zM652 -309q-36 1 -63 27q-26 26 -26 66t33 70t85 30t90 -37t38 -113t-57 -143t-187 -93l-12 33
q92 35 124 78t32 96q-21 -14 -57 -14z" />
    <glyph glyph-name="registered.alt" horiz-adv-x="806" 
d="M387 1067q49 0 66 24q16 24 16 62q0 78 -78 78h-39v-164h35zM715 1061q0 139 -89 233q-89 95 -222 95q-132 0 -221 -94t-89 -231q0 -136 86 -235q87 -96 221 -96q133 0 227 96q87 93 87 232zM402 688q-152 0 -257 109q-104 109 -104 262q0 154 103 265q103 110 258 110
t261 -110q105 -110 105 -264t-107 -263t-259 -109zM352 1036v-104q0 -16 3 -22t14 -9l30 -8v-23h-182v23l31 8q10 4 13 9t3 22v268q0 27 -16 33l-29 8v23h178q86 0 123 -26t37 -79q0 -72 -82 -94v-4q38 -83 86 -146q12 -12 27 -16l22 -6v-23h-116q-58 76 -97 166h-45z" />
    <glyph glyph-name="triangledown" horiz-adv-x="1697" 
d="M1595 1419v-28l-725 -1454h-41l-727 1454v28h1493z" />
    <glyph glyph-name="triangleup" horiz-adv-x="1697" 
d="M104 0v29l725 1454h41l727 -1454v-29h-1493z" />
    <glyph glyph-name="triangleleftopen" horiz-adv-x="1761" 
d="M1430 92v1237l-1166 -618zM1524 -37h-29l-1393 737v21l1393 735h29v-1493z" />
    <glyph glyph-name="trianglerightopen" horiz-adv-x="1761" 
d="M1497 711l-1165 618v-1237zM238 1456h28l1393 -735v-21l-1393 -737h-28v1493z" />
    <glyph glyph-name="triangledownopen" horiz-adv-x="1761" 
d="M950 111l615 1222h-1233zM1694 1419v-28l-736 -1454h-20l-737 1454v28h1493z" />
    <glyph glyph-name="triangleupopen" horiz-adv-x="1761" 
d="M946 1309l-614 -1223h1233zM203 0v29l735 1454h20l738 -1454v-29h-1493z" />
    <glyph glyph-name="square" horiz-adv-x="1896" 
d="M238 1419h1421v-1419h-1421v1419z" />
    <glyph glyph-name="squareopen" horiz-adv-x="1896" 
d="M1565 90v1243h-1233v-1243h1233zM238 1419h1421v-1419h-1421v1419z" />
    <glyph glyph-name="circleopen" horiz-adv-x="1650" 
d="M823 55q135 1 253 53t205 141t138 208t51 254t-51 254q-104 243 -343 348q-118 51 -253 51t-253 -51q-237 -102 -341 -348q-49 -119 -49 -254q0 -274 186 -462q86 -89 204 -141t253 -53zM823 -31q-155 1 -289 59q-271 118 -392 395q-58 134 -58 288q0 155 58 289
q118 273 393 392q135 58 289 58t288 -58q280 -120 396 -393q58 -135 58 -289t-58 -287q-121 -278 -396 -395q-135 -59 -289 -59z" />
    <glyph glyph-name="staropen" horiz-adv-x="1703" 
d="M854 397l381 -286l-156 454l389 266h-469l-147 453l-147 -453h-467l387 -266l-156 -454zM29 907h622l193 596h16l195 -596h620v-16l-497 -356l194 -592l-14 -9l-506 361l-506 -365l-14 9l196 596l-499 356v16z" />
    <glyph glyph-name="commaaccent" horiz-adv-x="1044" 
d="M498 -309q-36 1 -63 27q-25 26 -25 66t32 70q33 30 85 30t90 -37t38 -113t-57 -143t-186 -93l-13 33q92 35 124 78t32 96q-21 -14 -57 -14z" />
    <glyph glyph-name="commaaccent.alt" horiz-adv-x="1044" 
d="M633 1301q0 -39 -33 -69t-85 -30t-90 36t-38 113t57 143t187 93l12 -33q-92 -36 -124 -78t-32 -96q22 15 59 15q36 0 62 -27t25 -67z" />
    </font>
</defs>
</svg>
