<?xml version="1.0" encoding="UTF-8" standalone="no"?>
<!-- Created with Inkscape (http://www.inkscape.org/) -->

<svg
   xmlns:dc="http://purl.org/dc/elements/1.1/"
   xmlns:cc="http://creativecommons.org/ns#"
   xmlns:rdf="http://www.w3.org/1999/02/22-rdf-syntax-ns#"
   xmlns:svg="http://www.w3.org/2000/svg"
   xmlns="http://www.w3.org/2000/svg"
   xmlns:sodipodi="http://sodipodi.sourceforge.net/DTD/sodipodi-0.dtd"
   xmlns:inkscape="http://www.inkscape.org/namespaces/inkscape"
   version="1.1"
   id="svg5177"
   xml:space="preserve"
   width="1000"
   height="890.28143"
   viewBox="0 0 1000 890.28143"
   sodipodi:docname="A.svg"
   inkscape:version="0.92.4 (5da689c313, 2019-01-14)"><metadata
     id="metadata5183"><rdf:RDF><cc:Work
         rdf:about=""><dc:format>image/svg+xml</dc:format><dc:type
           rdf:resource="http://purl.org/dc/dcmitype/StillImage" /><dc:title></dc:title></cc:Work></rdf:RDF></metadata><defs
     id="defs5181"><clipPath
       clipPathUnits="userSpaceOnUse"
       id="clipPath8033"><path
         d="M 0,630 H 810 V 0 H 0 Z"
         id="path8031"
         inkscape:connector-curvature="0" /></clipPath><clipPath
       clipPathUnits="userSpaceOnUse"
       id="clipPath9023"><path
         d="m 264.121,319.069 h 82.104 v 43.655 h -82.104 z"
         id="path9021"
         inkscape:connector-curvature="0" /></clipPath><clipPath
       clipPathUnits="userSpaceOnUse"
       id="clipPath9035"><path
         d="M 0,630 H 810 V 0 H 0 Z"
         id="path9033"
         inkscape:connector-curvature="0" /></clipPath><clipPath
       clipPathUnits="userSpaceOnUse"
       id="clipPath9171"><path
         d="m 305.114,349.252 h 0.204 v 0.409 h -0.204 z"
         id="path9169"
         inkscape:connector-curvature="0" /></clipPath><clipPath
       clipPathUnits="userSpaceOnUse"
       id="clipPath9183"><path
         d="M 0,630 H 810 V 0 H 0 Z"
         id="path9181"
         inkscape:connector-curvature="0" /></clipPath><clipPath
       clipPathUnits="userSpaceOnUse"
       id="clipPath9193"><path
         d="m 305.114,332.24 h 0.204 v 0.414 h -0.204 z"
         id="path9191"
         inkscape:connector-curvature="0" /></clipPath><clipPath
       clipPathUnits="userSpaceOnUse"
       id="clipPath9205"><path
         d="M 0,630 H 810 V 0 H 0 Z"
         id="path9203"
         inkscape:connector-curvature="0" /></clipPath><clipPath
       clipPathUnits="userSpaceOnUse"
       id="clipPath9269"><path
         d="m 329.779,334.18 h 16.355 v 13.576 h -16.355 z"
         id="path9267"
         inkscape:connector-curvature="0" /></clipPath><clipPath
       clipPathUnits="userSpaceOnUse"
       id="clipPath9281"><path
         d="M 0,630 H 810 V 0 H 0 Z"
         id="path9279"
         inkscape:connector-curvature="0" /></clipPath></defs><sodipodi:namedview
     pagecolor="#ffffff"
     bordercolor="#111111"
     borderopacity="1"
     objecttolerance="10"
     gridtolerance="10"
     guidetolerance="10"
     inkscape:pageopacity="0"
     inkscape:pageshadow="2"
     inkscape:window-width="1920"
     inkscape:window-height="1017"
     id="namedview5179"
     showgrid="false"
     fit-margin-top="0"
     fit-margin-left="0"
     fit-margin-right="0"
     fit-margin-bottom="0"
     inkscape:zoom="0.19866333"
     inkscape:cx="738.69606"
     inkscape:cy="13.098994"
     inkscape:window-x="1912"
     inkscape:window-y="-8"
     inkscape:window-maximized="1"
     inkscape:current-layer="g5185"><inkscape:grid
       type="xygrid"
       id="grid14003"
       originx="-325.77755"
       originy="-255.7699" /></sodipodi:namedview><g
     id="g5185"
     inkscape:groupmode="layer"
     inkscape:label="201819-0173-Updated-Concessions-Map-0f283f8d11"
     transform="matrix(1.3333333,0,0,-1.3333333,-325.77755,1146.0513)"><path
       inkscape:connector-curvature="0"
       id="path10711"
       style="fill:#d71920;fill-opacity:1;fill-rule:nonzero;stroke:none;stroke-width:4.93963575"
       d="m 338.16524,199.85631 c -8.61957,-5.20145 -23.32983,-8.02689 -32.399,-8.02689 -35.67406,0 -59.74984,20.36611 -59.74984,54.10382 0,17.09608 6.68823,30.61588 18.13343,39.98634 11.14369,9.21243 26.30355,14.26568 42.95508,14.26568 13.82106,0 27.19765,-3.56641 34.33046,-6.09553 -1.48192,-6.9846 -2.82056,-14.86334 -2.82056,-22.59388 h -4.60372 v 10.70418 c 0,4.1592 -5.95231,6.68829 -12.78375,9.21738 -4.75689,1.63007 -11.14882,2.52412 -16.65153,2.52412 -27.94361,0 -42.65872,-20.36114 -42.65872,-45.62738 0,-29.43034 19.47198,-48.45784 48.90231,-48.45784 10.70421,0 23.33493,3.86775 30.17136,8.92099 l 1.33866,-1.49175 z" /><path
       inkscape:connector-curvature="0"
       id="path10715"
       style="fill:#d71920;fill-opacity:1;fill-rule:nonzero;stroke:none;stroke-width:4.93963575"
       d="m 395.83698,279.37757 c 0,5.646 -0.2964,9.50878 -1.33866,11.14873 -0.88908,1.48187 -2.67221,2.07957 -6.24361,2.22777 l -7.13281,0.44459 v 4.46048 c 8.17509,-0.15309 16.65139,-0.44949 25.12289,-0.44949 12.93195,0 26.60495,0.44949 35.07642,0.44949 6.6882,0 13.37656,-0.15309 19.17074,-0.44458 -1.6351,-6.54005 -2.37595,-15.01152 -2.37595,-22.59391 h -5.20147 v 9.66195 c 0,1.9314 -0.14818,3.56644 -1.33869,4.01096 -7.88362,2.97368 -19.62015,3.12188 -29.12897,3.12188 -4.01598,0 -8.32329,-0.14818 -12.49242,-1.19046 v -39.68011 c 4.75684,-0.30129 10.11154,-0.44947 17.24435,-0.44947 9.06917,0 14.12241,0.59273 15.75737,1.63499 0.73605,0.59276 1.03742,1.93142 1.18562,3.86775 l 0.74582,7.72557 h 4.46051 c -0.14817,-6.09552 -0.4496,-11.7415 -0.4496,-17.24426 0,-5.49783 0.30137,-11.14874 0.4496,-16.49839 h -4.46051 l -0.74582,8.76785 c -0.14817,1.93142 -0.44957,3.27006 -1.18562,3.71958 -1.63496,1.19043 -6.6882,1.78319 -15.75737,1.78319 -7.13281,0 -12.63072,0 -17.24435,-0.44456 v -41.62138 c 4.16913,-1.03732 8.47644,-1.18552 12.49242,-1.18552 12.186,0 27.34583,0.44458 30.01819,1.93142 2.23271,1.19043 4.16408,7.73051 5.20136,16.64162 h 5.20644 c -1.48686,-7.1279 -2.38091,-16.34527 -2.38091,-24.37216 -6.53517,-0.14817 -18.28166,-0.59276 -29.27731,-0.44455 -11.44506,0.14817 -23.19155,0.44455 -32.4039,0.44455 -5.64611,0 -10.55603,-0.2964 -15.90074,-0.44455 v 4.46048 l 5.34471,0.44456 c 3.5714,0.30134 5.35453,0.74587 6.24361,2.22777 1.04226,1.63504 1.33866,5.50276 1.33866,11.14876 z" /><path
       inkscape:connector-curvature="0"
       id="path10719"
       style="fill:#d71920;fill-opacity:1;fill-rule:nonzero;stroke:none;stroke-width:4.93963575"
       d="m 515.04425,279.37757 c 0,5.646 -0.29638,9.50878 -1.33864,11.14873 -0.89901,1.48187 -2.67734,1.92648 -6.24375,2.22777 l -6.54002,0.44459 v 4.46048 c 6.54002,-0.15309 12.48251,-0.44949 17.83704,-0.44949 2.67236,0 5.34954,0.29635 8.02192,0.44949 l 71.05175,-87.69335 h 0.44461 v 69.41178 c 0,5.646 -0.2964,9.50878 -1.33866,11.14873 -0.89405,1.48187 -2.67238,1.92648 -6.24375,2.22777 l -6.53503,0.44459 v 4.46048 c 5.94235,-0.15309 11.88473,-0.44949 17.23927,-0.44949 5.94729,0 11.29702,0.29635 17.83702,0.44949 v -4.46048 l -6.54,-0.44459 c -3.5714,-0.30129 -5.34973,-0.7459 -6.24375,-2.22777 -1.04229,-1.63995 -1.33869,-5.50273 -1.33869,-11.14873 v -82.04738 c 0,-1.78321 0.2964,-3.7146 0.44464,-5.50276 l -13.37657,2.38091 -70.00453,86.95241 h -0.29643 v -68.52263 c 0,-5.646 0.29643,-9.51372 1.33369,-11.14876 0.89405,-1.4819 2.67732,-1.92643 6.24376,-2.22777 l 6.53999,-0.44456 v -4.46048 c -6.53999,0.14817 -11.8897,0.44455 -17.83688,0.44455 -5.34973,0 -11.29206,-0.2964 -17.23444,-0.44455 v 4.46048 l 6.53506,0.44456 c 3.56641,0.30134 5.34965,0.74587 6.24375,2.22777 1.04226,1.63504 1.33864,5.50276 1.33864,11.14876 z" /><path
       inkscape:connector-curvature="0"
       id="path10723"
       style="fill:#d71920;fill-opacity:1;fill-rule:nonzero;stroke:none;stroke-width:4.93963575"
       d="m 690.13366,275.51377 c 0,5.646 -0.14818,10.40286 -0.59284,14.85841 H 666.4975 c -4.45549,0 -5.64595,-1.3337 -5.94238,-4.9001 l -0.59778,-11.74649 h -4.6037 c 0,8.02694 -0.2964,16.20203 -1.04225,23.93257 10.70418,0 21.40842,-0.44459 32.10766,-0.44459 h 21.54669 c 10.70915,0 21.40839,0.44459 32.10763,0.44459 -0.74102,-7.73054 -1.03729,-15.90563 -1.03729,-23.93257 h -4.60879 l -0.59271,11.74649 c -0.30134,3.5664 -1.48683,4.9001 -5.94729,4.9001 h -23.03854 c -0.44448,-4.45555 -0.59765,-9.21241 -0.59765,-14.85841 v -62.87663 c 0,-5.646 0.29641,-9.50881 1.33866,-11.14876 0.88911,-1.48187 2.67732,-2.0796 6.24859,-2.22778 l 7.128,-0.44458 v -4.46048 c -7.73061,0.29638 -14.71525,0.44952 -21.54671,0.44952 -7.28598,0 -14.27558,-0.15309 -22.00121,-0.44952 v 4.46048 l 7.13281,0.44458 c 3.56644,0.14818 5.34971,0.74591 6.24376,2.22778 1.04222,1.63995 1.33866,5.50276 1.33866,11.14876 z" /><path
       inkscape:connector-curvature="0"
       id="path10727"
       style="fill:#d71920;fill-opacity:1;fill-rule:nonzero;stroke:none;stroke-width:4.93963575"
       d="m 790.46056,279.37757 c 0,5.646 -0.29638,9.50878 -1.33864,11.14873 -0.88908,1.48187 -2.67718,2.07957 -6.24361,2.22777 l -7.13295,0.44459 v 4.46048 c 8.17523,-0.15309 16.64656,-0.44949 25.11806,-0.44949 12.93198,0 26.60492,0.44949 35.07642,0.44949 6.69319,0 13.38139,-0.15309 19.17571,-0.44458 -1.63507,-6.54005 -2.38092,-15.01152 -2.38092,-22.59391 h -5.2015 v 9.66195 c 0,1.9314 -0.14326,3.56644 -1.33369,4.01096 -7.87868,2.97368 -19.62018,3.12188 -29.1339,3.12188 -4.01105,0 -8.32333,-0.14818 -12.48748,-1.19046 v -39.68011 c 4.76182,-0.30129 10.1115,-0.44947 17.24917,-0.44947 9.05934,0 14.11261,0.59273 15.74757,1.63499 0.74596,0.59276 1.04719,1.93142 1.19046,3.86775 l 0.74595,7.72557 h 4.45552 c -0.14818,-6.09552 -0.44461,-11.7415 -0.44461,-17.24426 0,-5.49783 0.29638,-11.14874 0.44461,-16.49839 h -4.45552 l -0.74595,8.76785 c -0.14327,1.93142 -0.4445,3.27006 -1.19046,3.71958 -1.63496,1.19043 -6.68823,1.78319 -15.74757,1.78319 -7.13767,0 -12.63555,0 -17.24917,-0.44456 v -41.62138 c 4.16415,-1.03732 8.47643,-1.18552 12.48748,-1.18552 12.18596,0 27.35074,0.44458 30.02298,1.93142 2.23271,1.19043 4.16419,7.73051 5.20644,16.64162 h 5.20134 c -1.48673,-7.1279 -2.38075,-16.34527 -2.38075,-24.37216 -6.54016,-0.14817 -18.28166,-0.59276 -29.28227,-0.44455 -11.44013,0.14817 -23.18659,0.44455 -32.39897,0.44455 -5.65107,0 -10.556,-0.2964 -15.90071,-0.44455 v 4.46048 l 5.34471,0.44456 c 3.57126,0.30134 5.35453,0.74587 6.24361,2.22777 1.04226,1.63504 1.33864,5.50276 1.33864,11.14876 z" /><path
       inkscape:connector-curvature="0"
       id="path10731"
       style="fill:#d71920;fill-opacity:1;fill-rule:nonzero;stroke:none;stroke-width:4.93963575"
       d="m 925.12095,212.63714 c 0,-5.646 0.29641,-9.50881 1.33869,-11.14876 0.89405,-1.48187 2.67732,-2.0796 6.24372,-2.22778 l 7.13284,-0.44458 v -4.46048 c -7.73062,0.29638 -14.71525,0.44952 -21.55165,0.44952 -7.28104,0 -14.26568,-0.15309 -21.99627,-0.44952 v 4.46048 l 7.12798,0.44458 c 3.57623,0.14818 5.35454,0.74591 6.24859,2.22778 1.03728,1.63995 1.33866,5.50276 1.33866,11.14876 v 66.73942 c 0,5.646 -0.30138,9.51372 -1.33866,11.14873 -0.89405,1.4819 -2.67236,1.9314 -6.24859,2.2278 l -6.08572,0.44456 v 4.46051 c 7.87382,-0.14818 16.49849,-0.44952 25.26129,-0.44952 8.7729,0 17.39258,0.30131 26.01214,0.44952 23.78437,0.44455 30.02313,-11.59335 30.02313,-22.29259 0,-16.20695 -14.56703,-25.86887 -28.98074,-28.68447 l 33.73762,-44.00227 c 2.23272,-2.97367 5.50274,-3.56643 9.06912,-3.86281 v -4.46048 c -3.86265,0.14817 -7.28101,0.44952 -10.70407,0.44952 -3.41834,0 -6.68834,-0.30132 -10.10654,-0.44952 -1.93134,2.8255 -4.15925,5.34962 -6.09555,8.02691 l -27.34583,36.71136 c -2.37592,3.27499 -5.20134,6.10046 -7.73046,9.22231 l 0.89408,1.77827 c 4.01099,-0.29638 8.61968,-0.14817 13.08016,0.5977 10.40777,1.78319 19.32388,9.80519 19.32388,20.80575 0,16.05381 -11.8897,20.50935 -23.48313,20.50935 -6.69319,0 -11.0005,-0.74093 -15.16469,-1.77825 z" /><path
       inkscape:connector-curvature="0"
       id="path10735"
       style="fill:#d71920;fill-opacity:1;fill-rule:nonzero;stroke:none;stroke-width:4.93963575"
       d="m 338.16524,199.85631 c -8.61957,-5.20145 -23.32983,-8.02689 -32.399,-8.02689 -35.67406,0 -59.74984,20.36611 -59.74984,54.10382 0,17.09608 6.68823,30.61588 18.13343,39.98634 11.14369,9.21243 26.30355,14.26568 42.95508,14.26568 13.82106,0 27.19765,-3.56641 34.33046,-6.09553 -1.48192,-6.9846 -2.82056,-14.86334 -2.82056,-22.59388 h -4.60372 v 10.70418 c 0,4.1592 -5.95231,6.68829 -12.78375,9.21738 -4.75689,1.63007 -11.14882,2.52412 -16.65153,2.52412 -27.94361,0 -42.65872,-20.36114 -42.65872,-45.62738 0,-29.43034 19.47198,-48.45784 48.90231,-48.45784 10.70421,0 23.33493,3.86775 30.17136,8.92099 l 1.33866,-1.49175 z" /><path
       inkscape:connector-curvature="0"
       id="path10739"
       style="fill:#d71920;fill-opacity:1;fill-rule:nonzero;stroke:none;stroke-width:4.93963575"
       d="m 395.83698,279.37757 c 0,5.646 -0.2964,9.50878 -1.33866,11.14873 -0.88908,1.48187 -2.67221,2.07957 -6.24361,2.22777 l -7.13281,0.44459 v 4.46048 c 8.17509,-0.15309 16.65139,-0.44949 25.12289,-0.44949 12.93195,0 26.60495,0.44949 35.07642,0.44949 6.6882,0 13.37656,-0.15309 19.17074,-0.44458 -1.6351,-6.54005 -2.37595,-15.01152 -2.37595,-22.59391 h -5.20147 v 9.66195 c 0,1.9314 -0.14818,3.56644 -1.33869,4.01096 -7.88362,2.97368 -19.62015,3.12188 -29.12897,3.12188 -4.01598,0 -8.32329,-0.14818 -12.49242,-1.19046 v -39.68011 c 4.75684,-0.30129 10.11154,-0.44947 17.24435,-0.44947 9.06917,0 14.12241,0.59273 15.75737,1.63499 0.73605,0.59276 1.03742,1.93142 1.18562,3.86775 l 0.74582,7.72557 h 4.46051 c -0.14817,-6.09552 -0.4496,-11.7415 -0.4496,-17.24426 0,-5.49783 0.30137,-11.14874 0.4496,-16.49839 h -4.46051 l -0.74582,8.76785 c -0.14817,1.93142 -0.44957,3.27006 -1.18562,3.71958 -1.63496,1.19043 -6.6882,1.78319 -15.75737,1.78319 -7.13281,0 -12.63072,0 -17.24435,-0.44456 v -41.62138 c 4.16913,-1.03732 8.47644,-1.18552 12.49242,-1.18552 12.186,0 27.34583,0.44458 30.01819,1.93142 2.23271,1.19043 4.16408,7.73051 5.20136,16.64162 h 5.20644 c -1.48686,-7.1279 -2.38091,-16.34527 -2.38091,-24.37216 -6.53517,-0.14817 -18.28166,-0.59276 -29.27731,-0.44455 -11.44506,0.14817 -23.19155,0.44455 -32.4039,0.44455 -5.64611,0 -10.55603,-0.2964 -15.90074,-0.44455 v 4.46048 l 5.34471,0.44456 c 3.5714,0.30134 5.35453,0.74587 6.24361,2.22777 1.04226,1.63504 1.33866,5.50276 1.33866,11.14876 z" /><path
       inkscape:connector-curvature="0"
       id="path10743"
       style="fill:#d71920;fill-opacity:1;fill-rule:nonzero;stroke:none;stroke-width:4.93963575"
       d="m 515.04425,279.37757 c 0,5.646 -0.29638,9.50878 -1.33864,11.14873 -0.89901,1.48187 -2.67734,1.92648 -6.24375,2.22777 l -6.54002,0.44459 v 4.46048 c 6.54002,-0.15309 12.48251,-0.44949 17.83704,-0.44949 2.67236,0 5.34954,0.29635 8.02192,0.44949 l 71.05175,-87.69335 h 0.44461 v 69.41178 c 0,5.646 -0.2964,9.50878 -1.33866,11.14873 -0.89405,1.48187 -2.67238,1.92648 -6.24375,2.22777 l -6.53503,0.44459 v 4.46048 c 5.94235,-0.15309 11.88473,-0.44949 17.23927,-0.44949 5.94729,0 11.29702,0.29635 17.83702,0.44949 v -4.46048 l -6.54,-0.44459 c -3.5714,-0.30129 -5.34973,-0.7459 -6.24375,-2.22777 -1.04229,-1.63995 -1.33869,-5.50273 -1.33869,-11.14873 v -82.04738 c 0,-1.78321 0.2964,-3.7146 0.44464,-5.50276 l -13.37657,2.38091 -70.00453,86.95241 h -0.29643 v -68.52263 c 0,-5.646 0.29643,-9.51372 1.33369,-11.14876 0.89405,-1.4819 2.67732,-1.92643 6.24376,-2.22777 l 6.53999,-0.44456 v -4.46048 c -6.53999,0.14817 -11.8897,0.44455 -17.83688,0.44455 -5.34973,0 -11.29206,-0.2964 -17.23444,-0.44455 v 4.46048 l 6.53506,0.44456 c 3.56641,0.30134 5.34965,0.74587 6.24375,2.22777 1.04226,1.63504 1.33864,5.50276 1.33864,11.14876 z" /><path
       inkscape:connector-curvature="0"
       id="path10747"
       style="fill:#d71920;fill-opacity:1;fill-rule:nonzero;stroke:none;stroke-width:4.93963575"
       d="m 690.13366,275.51377 c 0,5.646 -0.14818,10.40286 -0.59284,14.85841 H 666.4975 c -4.45549,0 -5.64595,-1.3337 -5.94238,-4.9001 l -0.59778,-11.74649 h -4.6037 c 0,8.02694 -0.2964,16.20203 -1.04225,23.93257 10.70418,0 21.40842,-0.44459 32.10766,-0.44459 h 21.54669 c 10.70915,0 21.40839,0.44459 32.10763,0.44459 -0.74102,-7.73054 -1.03729,-15.90563 -1.03729,-23.93257 h -4.60879 l -0.59271,11.74649 c -0.30134,3.5664 -1.48683,4.9001 -5.94729,4.9001 h -23.03854 c -0.44448,-4.45555 -0.59765,-9.21241 -0.59765,-14.85841 v -62.87663 c 0,-5.646 0.29641,-9.50881 1.33866,-11.14876 0.88911,-1.48187 2.67732,-2.0796 6.24859,-2.22778 l 7.128,-0.44458 v -4.46048 c -7.73061,0.29638 -14.71525,0.44952 -21.54671,0.44952 -7.28598,0 -14.27558,-0.15309 -22.00121,-0.44952 v 4.46048 l 7.13281,0.44458 c 3.56644,0.14818 5.34971,0.74591 6.24376,2.22778 1.04222,1.63995 1.33866,5.50276 1.33866,11.14876 z" /><path
       inkscape:connector-curvature="0"
       id="path10751"
       style="fill:#d71920;fill-opacity:1;fill-rule:nonzero;stroke:none;stroke-width:4.93963575"
       d="m 790.46056,279.37757 c 0,5.646 -0.29638,9.50878 -1.33864,11.14873 -0.88908,1.48187 -2.67718,2.07957 -6.24361,2.22777 l -7.13295,0.44459 v 4.46048 c 8.17523,-0.15309 16.64656,-0.44949 25.11806,-0.44949 12.93198,0 26.60492,0.44949 35.07642,0.44949 6.69319,0 13.38139,-0.15309 19.17571,-0.44458 -1.63507,-6.54005 -2.38092,-15.01152 -2.38092,-22.59391 h -5.2015 v 9.66195 c 0,1.9314 -0.14326,3.56644 -1.33369,4.01096 -7.87868,2.97368 -19.62018,3.12188 -29.1339,3.12188 -4.01105,0 -8.32333,-0.14818 -12.48748,-1.19046 v -39.68011 c 4.76182,-0.30129 10.1115,-0.44947 17.24917,-0.44947 9.05934,0 14.11261,0.59273 15.74757,1.63499 0.74596,0.59276 1.04719,1.93142 1.19046,3.86775 l 0.74595,7.72557 h 4.45552 c -0.14818,-6.09552 -0.44461,-11.7415 -0.44461,-17.24426 0,-5.49783 0.29638,-11.14874 0.44461,-16.49839 h -4.45552 l -0.74595,8.76785 c -0.14327,1.93142 -0.4445,3.27006 -1.19046,3.71958 -1.63496,1.19043 -6.68823,1.78319 -15.74757,1.78319 -7.13767,0 -12.63555,0 -17.24917,-0.44456 v -41.62138 c 4.16415,-1.03732 8.47643,-1.18552 12.48748,-1.18552 12.18596,0 27.35074,0.44458 30.02298,1.93142 2.23271,1.19043 4.16419,7.73051 5.20644,16.64162 h 5.20134 c -1.48673,-7.1279 -2.38075,-16.34527 -2.38075,-24.37216 -6.54016,-0.14817 -18.28166,-0.59276 -29.28227,-0.44455 -11.44013,0.14817 -23.18659,0.44455 -32.39897,0.44455 -5.65107,0 -10.556,-0.2964 -15.90071,-0.44455 v 4.46048 l 5.34471,0.44456 c 3.57126,0.30134 5.35453,0.74587 6.24361,2.22777 1.04226,1.63504 1.33864,5.50276 1.33864,11.14876 z" /><path
       inkscape:connector-curvature="0"
       id="path10755"
       style="fill:#d71920;fill-opacity:1;fill-rule:nonzero;stroke:none;stroke-width:4.93963575"
       d="m 925.12095,212.63714 c 0,-5.646 0.29641,-9.50881 1.33869,-11.14876 0.89405,-1.48187 2.67732,-2.0796 6.24372,-2.22778 l 7.13284,-0.44458 v -4.46048 c -7.73062,0.29638 -14.71525,0.44952 -21.55165,0.44952 -7.28104,0 -14.26568,-0.15309 -21.99627,-0.44952 v 4.46048 l 7.12798,0.44458 c 3.57623,0.14818 5.35454,0.74591 6.24859,2.22778 1.03728,1.63995 1.33866,5.50276 1.33866,11.14876 v 66.73942 c 0,5.646 -0.30138,9.51372 -1.33866,11.14873 -0.89405,1.4819 -2.67236,1.9314 -6.24859,2.2278 l -6.08572,0.44456 v 4.46051 c 7.87382,-0.14818 16.49849,-0.44952 25.26129,-0.44952 8.7729,0 17.39258,0.30131 26.01214,0.44952 23.78437,0.44455 30.02313,-11.59335 30.02313,-22.29259 0,-16.20695 -14.56703,-25.86887 -28.98074,-28.68447 l 33.73762,-44.00227 c 2.23272,-2.97367 5.50274,-3.56643 9.06912,-3.86281 v -4.46048 c -3.86265,0.14817 -7.28101,0.44952 -10.70407,0.44952 -3.41834,0 -6.68834,-0.30132 -10.10654,-0.44952 -1.93134,2.8255 -4.15925,5.34962 -6.09555,8.02691 l -27.34583,36.71136 c -2.37592,3.27499 -5.20134,6.10046 -7.73046,9.22231 l 0.89408,1.77827 c 4.01099,-0.29638 8.61968,-0.14817 13.08016,0.5977 10.40777,1.78319 19.32388,9.80519 19.32388,20.80575 0,16.05381 -11.8897,20.50935 -23.48313,20.50935 -6.69319,0 -11.0005,-0.74093 -15.16469,-1.77825 z" /><path
       inkscape:connector-curvature="0"
       id="path10759"
       style="fill:#d71920;fill-opacity:1;fill-rule:nonzero;stroke:none;stroke-width:11.44854641"
       d="m 626.08643,531.08234 c 29.93796,5.80441 57.50606,54.51797 57.50606,149.83857 0,3.11402 -0.0246,6.18222 -0.0802,9.21609 78.5943,10.9906 131.96741,42.10774 135.3104,80.25433 19.2221,-20.42421 30.6134,-44.82109 30.6134,-72.50366 0,-104.11308 -119.28241,-164.4126 -223.34971,-166.80533 M 389.92574,697.88767 c 0,27.64822 11.34551,52.01074 30.53328,72.41205 3.42312,-38.20381 57.09389,-69.36674 135.98582,-80.2543 -0.0458,-3.01098 -0.0688,-6.04485 -0.0688,-9.12451 0,-95.42364 27.61389,-144.1372 57.57477,-149.85003 -104.23905,2.14091 -224.02518,62.47473 -224.02518,166.81679 m 229.71509,28.30079 c -12.44456,0 -25.31274,0.61822 -38.08931,1.83179 6.85769,47.82058 25.26694,68.89733 38.43276,68.89733 13.15438,0 31.56364,-21.06532 38.42133,-68.82864 -13.00555,-1.25934 -26.10268,-1.90048 -38.76478,-1.90048 m 41.51242,-39.29139 c 0,-65.10789 -22.46202,-98.78952 -41.16897,-98.78952 -18.71838,0 -41.15754,33.68163 -41.15754,98.78952 0,0.22922 0,0.43503 0,0.65255 13.07424,-1.1105 26.7095,-1.69439 40.81409,-1.69439 14.34503,0 28.20921,0.60678 41.50098,1.74018 0,-0.22895 0.0109,-0.45793 0.0109,-0.69834 m 113.03149,97.78204 c 0,-27.95734 -43.0122,-45.81709 -93.19117,-53.73949 -7.95673,71.62211 -33.20078,107.87965 -61.00929,107.87965 -27.80853,0 -53.07545,-36.29187 -61.02075,-107.99415 -50.4652,7.87664 -93.86666,25.77069 -93.86666,53.85399 0,16.30273 20.26394,30.25849 50.01871,40.09279 27.49941,8.4834 57.60907,13.60088 88.24539,14.95179 0.0341,0 0.0573,0 0.0802,0 3.42311,0.16046 6.86912,0.25187 10.30369,0.32059 0.35492,0 0.69837,0 1.04182,0.0109 1.62568,0.0109 3.25142,0.0246 4.86563,0.0246 h 0.11434 c 1.5341,0 3.06823,-0.0109 4.61376,-0.0246 0.46939,-0.0109 0.93878,-0.0109 1.41963,-0.0246 1.47688,-0.0341 2.94229,-0.0688 4.41914,-0.10288 0.44649,-0.0109 0.90445,-0.0246 1.35091,-0.0341 1.14489,-0.0458 2.28975,-0.0917 3.43458,-0.13753 0.52664,-0.0246 1.06471,-0.0458 1.57989,-0.0688 1.53413,-0.0688 3.07966,-0.13753 4.60233,-0.22922 0.1831,-0.0109 0.36634,-0.0246 0.53807,-0.0341 27.95736,-1.66004 55.36517,-6.45701 80.63214,-14.08172 30.70501,-9.85721 51.82755,-24.04194 51.82755,-40.66526 m -9.74273,49.50354 c -33.62437,14.98614 -81.03279,24.51133 -137.23372,25.3013 -0.10287,0 -0.19456,0 -0.30909,0.0109 -2.36984,0.0246 -4.73973,0.0458 -7.13246,0.0458 h -0.0917 -0.0246 -0.0109 c -59.95606,0 -110.39835,-9.84574 -145.54539,-25.69054 -75.38867,-30.12112 -121.22865,-83.76903 -121.22865,-144.99583 0,-99.17877 112.48198,-176.67397 266.80837,-176.67397 154.33788,0 266.81983,77.4952 266.81983,176.67397 0,61.45578 -46.17197,115.27541 -122.05296,145.32784" /><path
       inkscape:connector-curvature="0"
       id="path10763"
       style="fill:#d71920;fill-opacity:1;fill-rule:nonzero;stroke:none;stroke-width:5.83483601"
       d="m 282.88393,446.08291 h -38.55076 v 23.08259 h 104.96285 v -23.08259 h -39.99197 v -99.5423 h -26.42012 z" /><path
       inkscape:connector-curvature="0"
       id="path10767"
       style="fill:#d71920;fill-opacity:1;fill-rule:nonzero;stroke:none;stroke-width:5.83483601"
       d="m 538.87045,392.84526 -48.45834,76.31969 h 32.03914 l 31.15218,-51.10735 32.00992,51.10735 H 617.314 l -49.63111,-76.38966 -0.40845,-46.23528 h -27.98973 z" /><path
       inkscape:connector-curvature="0"
       id="path10771"
       style="fill:#d71920;fill-opacity:1;fill-rule:nonzero;stroke:none;stroke-width:5.83483601"
       d="m 684.83239,366.91059 c 24.20873,0 35.16656,19.1616 35.16656,39.60685 0,22.18409 -10.22847,41.6666 -35.16656,41.6666 -26.19841,0 -35.16655,-22.90173 -35.16655,-41.6666 0,-20.44525 10.94614,-39.60685 35.16655,-39.60685 m -46.91209,86.3906 c 11.82137,12.07228 27.95469,19.8151 46.91209,19.8151 37.94976,0 66.24874,-30.18945 66.24874,-66.59885 0,-15.81817 -6.23744,-29.95019 -15.83576,-41.18808 -11.87972,-13.88691 -29.43092,-23.14098 -50.41298,-23.14098 -37.95559,0 -66.24874,28.95246 -66.24874,64.32906 0,18.22806 7.5036,34.68816 19.33665,46.78375" /><path
       inkscape:connector-curvature="0"
       id="path10775"
       style="fill:#d71920;fill-opacity:1;fill-rule:nonzero;stroke:none;stroke-width:5.83483601"
       d="m 909.82135,395.38403 h 35.6742 l -17.85462,44.17556 z m 0.30342,73.78147 h 35.27158 L 994.33319,346.54061 H 965.11226 L 954.18363,373.6376 H 900.91738 L 890.07627,346.54061 H 860.9196 Z" /><path
       inkscape:connector-curvature="0"
       id="path10779"
       style="fill:#d71920;fill-opacity:1;fill-rule:nonzero;stroke:none;stroke-width:5.83483601"
       d="m 797.94476,446.08291 h -38.55073 v 23.08259 h 104.96288 v -23.08259 h -39.992 v -99.5423 h -26.42015 z" /><path
       inkscape:connector-curvature="0"
       id="path10783"
       style="fill:#d71920;fill-opacity:1;fill-rule:nonzero;stroke:none;stroke-width:5.83483601"
       d="m 421.89423,366.91059 c 24.21457,0 35.17239,19.1616 35.17239,39.60685 0,22.18409 -10.22846,41.6666 -35.17239,41.6666 -26.18673,0 -35.16656,-22.90173 -35.16656,-41.6666 0,-20.43941 10.95783,-39.60685 35.16656,-39.60685 m -46.90041,86.3906 c 11.80969,12.07228 27.94885,19.80926 46.90041,19.80926 37.96143,0 66.24871,-30.18361 66.24871,-66.59301 0,-15.81817 -6.22574,-29.95019 -15.83574,-41.18808 -11.87387,-13.88691 -29.43672,-23.14098 -50.41297,-23.14098 -37.94392,0 -66.23707,28.95246 -66.23707,64.32906 0,18.22806 7.49777,34.68816 19.33666,46.78375" /></g></svg>